<svg width="23" height="23" viewBox="0 0 23 23" fill="none" xmlns="http://www.w3.org/2000/svg">
<g clip-path="url(#clip0_1232_6272)">
<path d="M34.5 0H-11.5V23H34.5V0Z" fill="#509E2F"/>
<path d="M34.5 0H-11.5V15.3333H34.5V0Z" fill="#EF3340"/>
<path d="M34.5 0H-11.5V7.66667H34.5V0Z" fill="#00B5E2"/>
<path d="M10.3499 14.9508C12.2553 14.9508 13.7999 13.4062 13.7999 11.5008C13.7999 9.5954 12.2553 8.05078 10.3499 8.05078C8.44452 8.05078 6.8999 9.5954 6.8999 11.5008C6.8999 13.4062 8.44452 14.9508 10.3499 14.9508Z" fill="white"/>
<path d="M11.1167 14.375C12.7045 14.375 13.9917 13.0878 13.9917 11.5C13.9917 9.91218 12.7045 8.625 11.1167 8.625C9.52888 8.625 8.2417 9.91218 8.2417 11.5C8.2417 13.0878 9.52888 14.375 11.1167 14.375Z" fill="#EF3340"/>
<path d="M14.1833 9.58203L14.55 10.6133L15.5385 10.1434L15.0687 11.132L16.0999 11.4987L15.0687 11.8654L15.5385 12.854L14.55 12.3841L14.1833 13.4154L13.8165 12.3841L12.828 12.854L13.2979 11.8654L12.2666 11.4987L13.2979 11.132L12.828 10.1434L13.8165 10.6133L14.1833 9.58203Z" fill="white"/>
</g>
<defs>
<clipPath id="clip0_1232_6272">
<rect width="23" height="23" rx="11.5" fill="white"/>
</clipPath>
</defs>
</svg>
