<svg width="23" height="23" viewBox="0 0 23 23" fill="none" xmlns="http://www.w3.org/2000/svg">
<g clip-path="url(#clip0_1232_6271)">
<path d="M0 0H46V23H0V0Z" fill="#CE1720"/>
<mask id="mask0_1232_6271" style="mask-type:luminance" maskUnits="userSpaceOnUse" x="0" y="0" width="6" height="23">
<path d="M0.243652 0H5.35476V15.5378H5.55921V22.7956L5.35476 23H0.243652V0Z" fill="white"/>
</mask>
<g mask="url(#mask0_1232_6271)">
<path d="M1.16351 0V0.357778H0.933507V0.715556H0.652396V1.12444H0.447951V1.45667H0.0390625V0.613333H0.447951V0.153333H0.0390625V0H1.16351ZM1.82795 1.96778V2.35111H1.62351V2.65778H1.41906V2.35111H1.21462V1.96778H1.01017V1.45667H1.21462V1.07333H1.41906V0.766667H1.62351V1.07333H1.82795V1.45667H2.0324V1.96778H1.82795ZM1.39351 1.94222H1.64906V1.48222H1.39351V1.94222ZM0.729062 4.67667H0.933507V4.21667H0.729062V4.67667ZM2.10906 4.67667H2.31351V4.21667H2.10906V4.67667ZM0.0390625 7.79444H0.39684V8.12667H0.550174V8.53555H0.780174V8.91889H1.08684V8.53555H1.31684V8.12667H1.52128V7.79444H1.21462V7.41111H1.75128V7.66667H2.08351V8.10111H2.36462V8.58667H2.16017V8.94444H1.98128V9.27667H1.82795V9.63444H1.59795V9.94111H1.41906V10.2222H1.18906V10.58H0.85684V10.1967H0.62684V9.83889H0.447951V9.60889H0.0390625V9.02111H0.447951V8.51H0.0390625V7.79444Z" fill="white"/>
<path d="M4.43464 0V0.357778H4.66464V0.715556H4.94575V1.12444H5.15019V1.45667H5.55908V0.613333H5.15019V0.153333H5.55908V0H4.43464ZM3.77019 1.96778V2.35111H3.97464V2.65778H4.17908V2.35111H4.38353V1.96778H4.58797V1.45667H4.38353V1.07333H4.17908V0.766667H3.97464V1.07333H3.77019V1.45667H3.56575V1.96778H3.77019ZM4.20464 1.94222H3.94908V1.48222H4.20464V1.94222ZM4.86908 4.67667H4.66464V4.21667H4.86908V4.67667ZM3.48908 4.67667H3.28464V4.21667H3.48908V4.67667ZM5.55908 7.79444H5.2013V8.12667H5.04797V8.53555H4.81797V8.91889H4.5113V8.53555H4.2813V8.12667H4.07686V7.79444H4.38353V7.41111H3.84686V7.66667H3.51464V8.10111H3.23353V8.58667H3.43797V8.94444H3.61686V9.27667H3.77019V9.63444H4.00019V9.94111H4.17908V10.2222H4.40908V10.58H4.7413V10.1967H4.9713V9.83889H5.15019V9.60889H5.55908V9.02111H5.15019V8.51H5.55908V7.79444Z" fill="white"/>
<path d="M2.69684 0V0.817778H2.90128V0H3.71906V0.357778H3.51462V0.715556H3.20795V1.12444H3.00351V1.45667H2.59462V1.12444H2.39017V0.715556H2.08351V0.357778H1.87906V0H2.69684ZM2.64573 7.00222V6.72111H2.4924V6.38889H2.31351V6.03111H2.10906V5.67333H1.90462V5.41778H1.67462V5.06H1.36795V5.41778H1.13795V5.67333H0.959062V6.03111H0.754618V6.38889H0.601285V6.72111H0.447951V7.15556H0.0390625V6.03111H0.447951V5.52H0.0390625V4.67667H0.447951V5.03444H0.703507V5.39222H0.959062V5.03444H1.21462V4.67667H1.41906V4.21667H1.21462V3.85889H0.959062V3.50111H0.703507V3.85889H0.447951V4.21667H0.0390625V3.16889H0.447951V2.68333H0.0390625V1.96778H0.447951V2.3H0.652396V2.70889H0.933507V3.04111H1.16351V3.42444H1.3424V3.73111H1.70017V3.42444H1.87906V3.04111H2.10906V2.70889H2.39017V2.3H2.59462V1.96778H3.00351V2.3H3.20795V2.70889H3.48906V3.04111H3.71906V3.42444H3.89795V3.73111H4.25573V3.42444H4.43462V3.04111H4.66462V2.70889H4.94573V2.3H5.15017V1.96778H5.55906V2.68333H5.15017V3.16889H5.55906V4.21667H5.15017V3.85889H4.89462V3.50111H4.63906V3.85889H4.38351V4.21667H4.17906V4.67667H4.38351V5.03444H4.63906V5.39222H4.89462V5.03444H5.15017V4.67667H5.55906V5.52H5.15017V6.03111H5.55906V7.15556H5.15017V6.72111H4.99684V6.38889H4.84351V6.03111H4.63906V5.67333H4.46017V5.41778H4.23017V5.06H3.92351V5.41778H3.69351V5.67333H3.48906V6.03111H3.28462V6.38889H3.10573V6.72111H2.9524V7.00222H2.64573ZM2.69684 2.73444V3.42444H2.90128V2.73444H2.69684ZM2.59462 4.21667V3.85889H2.33906V3.50111H2.08351V3.85889H1.82795V4.21667H1.62351V4.67667H1.82795V5.03444H2.08351V5.39222H2.33906V5.03444H2.59462V4.67667H3.00351V5.03444H3.25906V5.39222H3.51462V5.03444H3.77017V4.67667H3.97462V4.21667H3.77017V3.85889H3.51462V3.50111H3.25906V3.85889H3.00351V4.21667H2.59462ZM2.69684 5.39222V6.08222H2.90128V5.39222H2.69684Z" fill="white"/>
<path d="M1.16351 23V22.6422H0.933507V22.2844H0.652396V21.8756H0.447951V21.5433H0.0390625V22.3867H0.447951V22.8467H0.0390625V23H1.16351ZM1.82795 21.0322V20.6489H1.62351V20.3422H1.41906V20.6489H1.21462V21.0322H1.01017V21.5433H1.21462V21.9267H1.41906V22.2333H1.62351V21.9267H1.82795V21.5433H2.0324V21.0322H1.82795ZM1.39351 21.0578H1.64906V21.5178H1.39351V21.0578ZM0.729062 18.3233H0.933507V18.7833H0.729062V18.3233ZM2.10906 18.3233H2.31351V18.7833H2.10906V18.3233ZM0.0390625 15.2056H0.39684V14.8733H0.550174V14.4644H0.780174V14.0811H1.08684V14.4644H1.31684V14.8733H1.52128V15.2056H1.21462V15.5889H1.75128V15.3333H2.08351V14.8989H2.36462V14.4133H2.16017V14.0556H1.98128V13.7233H1.82795V13.3656H1.59795V13.0589H1.41906V12.7778H1.18906V12.42H0.85684V12.8033H0.62684V13.1611H0.447951V13.3911H0.0390625V13.9789H0.447951V14.49H0.0390625V15.2056Z" fill="white"/>
<path d="M4.43464 23V22.6422H4.66464V22.2844H4.94575V21.8756H5.15019V21.5433H5.55908V22.3867H5.15019V22.8467H5.55908V23H4.43464ZM3.77019 21.0322V20.6489H3.97464V20.3422H4.17908V20.6489H4.38353V21.0322H4.58797V21.5433H4.38353V21.9267H4.17908V22.2333H3.97464V21.9267H3.77019V21.5433H3.56575V21.0322H3.77019ZM4.20464 21.0578H3.94908V21.5178H4.20464V21.0578ZM4.86908 18.3233H4.66464V18.7833H4.86908V18.3233ZM3.48908 18.3233H3.28464V18.7833H3.48908V18.3233ZM5.55908 15.2056H5.2013V14.8733H5.04797V14.4644H4.81797V14.0811H4.5113V14.4644H4.2813V14.8733H4.07686V15.2056H4.38353V15.5889H3.84686V15.3333H3.51464V14.8989H3.23353V14.4133H3.43797V14.0556H3.61686V13.7233H3.77019V13.3656H4.00019V13.0589H4.17908V12.7778H4.40908V12.42H4.7413V12.8033H4.9713V13.1611H5.15019V13.3911H5.55908V13.9789H5.15019V14.49H5.55908V15.2056Z" fill="white"/>
<path d="M2.69684 23V22.1822H2.90128V23H3.71906V22.6422H3.51462V22.2844H3.20795V21.8756H3.00351V21.5433H2.59462V21.8756H2.39017V22.2844H2.08351V22.6422H1.87906V23H2.69684ZM2.64573 15.9978V16.2789H2.4924V16.6111H2.31351V16.9689H2.10906V17.3267H1.90462V17.5822H1.67462V17.94H1.36795V17.5822H1.13795V17.3267H0.959062V16.9689H0.754618V16.6111H0.601285V16.2789H0.447951V15.8444H0.0390625V16.9689H0.447951V17.48H0.0390625V18.3233H0.447951V17.9656H0.703507V17.6078H0.959062V17.9656H1.21462V18.3233H1.41906V18.7833H1.21462V19.1411H0.959062V19.4989H0.703507V19.1411H0.447951V18.7833H0.0390625V19.8311H0.447951V20.3167H0.0390625V21.0322H0.447951V20.7H0.652396V20.2911H0.933507V19.9589H1.16351V19.5756H1.3424V19.2689H1.70017V19.5756H1.87906V19.9589H2.10906V20.2911H2.39017V20.7H2.59462V21.0322H3.00351V20.7H3.20795V20.2911H3.48906V19.9589H3.71906V19.5756H3.89795V19.2689H4.25573V19.5756H4.43462V19.9589H4.66462V20.2911H4.94573V20.7H5.15017V21.0322H5.55906V20.3167H5.15017V19.8311H5.55906V18.7833H5.15017V19.1411H4.89462V19.4989H4.63906V19.1411H4.38351V18.7833H4.17906V18.3233H4.38351V17.9656H4.63906V17.6078H4.89462V17.9656H5.15017V18.3233H5.55906V17.48H5.15017V16.9689H5.55906V15.8444H5.15017V16.2789H4.99684V16.6111H4.84351V16.9689H4.63906V17.3267H4.46017V17.5822H4.23017V17.94H3.92351V17.5822H3.69351V17.3267H3.48906V16.9689H3.28462V16.6111H3.10573V16.2789H2.9524V15.9978H2.64573ZM2.69684 20.2656V19.5756H2.90128V20.2656H2.69684ZM2.59462 18.7833V19.1411H2.33906V19.4989H2.08351V19.1411H1.82795V18.7833H1.62351V18.3233H1.82795V17.9656H2.08351V17.6078H2.33906V17.9656H2.59462V18.3233H3.00351V17.9656H3.25906V17.6078H3.51462V17.9656H3.77017V18.3233H3.97462V18.7833H3.77017V19.1411H3.51462V19.4989H3.25906V19.1411H3.00351V18.7833H2.59462ZM2.69684 17.6078V16.9178H2.90128V17.6078H2.69684Z" fill="white"/>
<path d="M0.0390625 10.4251H0.447951V10.7829H0.62684V10.9873H0.831285V11.3451H1.01017V11.6518H0.831285V12.0095H0.62684V12.214H0.447951V12.5718H0.0390625V10.4251ZM5.55906 10.4251V12.5718H5.15017V12.214H4.97128V12.0095H4.76684V11.6518H4.58795V11.3451H4.76684V10.9873H4.97128V10.7829H5.15017V10.4251H5.55906ZM1.82795 11.7284H2.0324V11.2684H1.82795V11.7284ZM3.77017 11.7284V11.2684H3.56573V11.7284H3.77017ZM2.69684 10.2206H2.90128V9.76064H2.69684V10.2206ZM2.69684 12.7762V13.2362H2.90128V12.7762H2.69684ZM1.41906 10.8595H1.77684V10.5784H2.0324V10.3229H2.16017V10.0673H2.31351V9.70953H2.51795V9.35175H2.62017V9.01953H2.97795V9.35175H3.08017V9.70953H3.28462V10.0673H3.43795V10.3229H3.56573V10.5784H3.82128V10.8595H4.17906V12.1373H3.82128V12.4184H3.56573V12.674H3.43795V12.9295H3.28462V13.2873H3.08017V13.6451H2.97795V13.9773H2.62017V13.6451H2.51795V13.2873H2.31351V12.9295H2.16017V12.674H2.0324V12.4184H1.77684V12.1373H1.41906V10.8595ZM2.69684 11.0895V10.7062H2.4924V10.4506H2.28795V11.0895H2.4924V11.3195H2.62017V11.6773H2.4924V11.9073H2.28795V12.5462H2.4924V12.2906H2.69684V11.9073H2.90128V12.2906H3.10573V12.5462H3.31017V11.9073H3.10573V11.6773H2.97795V11.3195H3.10573V11.0895H3.31017V10.4506H3.10573V10.7062H2.90128V11.0895H2.69684Z" fill="white"/>
</g>
<path d="M5.35449 15.332H46V22.9987H5.35449V15.332Z" fill="#007C30"/>
</g>
<defs>
<clipPath id="clip0_1232_6271">
<rect width="23" height="23" rx="11.5" fill="white"/>
</clipPath>
</defs>
</svg>
