<svg width="76" height="76" viewBox="0 0 76 76" fill="none" xmlns="http://www.w3.org/2000/svg">
<g clip-path="url(#clip0_1290_6734)">
<g clip-path="url(#clip1_1290_6734)">
<path d="M-19 0H95V76H-19V0Z" fill="black"/>
<path d="M-19 0H95V50.6667H-19V0Z" fill="white"/>
<path d="M-19 0H95V25.3333H-19V0Z" fill="#CE1126"/>
<path d="M38.1007 38.3039L46.7758 46.3572L46.1582 31.7311C46.0675 29.5144 44.1412 30.0229 42.7419 30.8226C41.3244 31.7311 39.7072 31.731 37.9988 31.1312C36.2907 31.731 34.6734 31.731 33.2558 30.8225C31.8567 30.023 29.9306 29.5143 29.8397 31.731L29.2217 46.3572L38.1007 38.3039Z" fill="white" stroke="#C09300" stroke-width="0.574685" stroke-linejoin="round"/>
<path d="M30.8381 31.2227L30.2385 45.4498L29.2207 46.3578L29.8387 31.7316C30.1293 31.5317 30.6384 31.2228 30.8381 31.2228V31.2227ZM32.0566 32.2411L31.5478 44.142L30.5304 45.1832L31.1482 31.4412C31.3482 31.6409 31.948 32.1315 32.0566 32.2404L32.0566 32.2411ZM33.165 33.1493L32.7653 43.0751L31.9477 43.8743L32.4567 32.5496C32.656 32.7495 33.0558 33.0403 33.165 33.1493ZM34.3645 33.6584L33.9647 42.1181L33.1651 42.7666L33.5648 33.3496C33.7648 33.4404 34.1646 33.6584 34.3645 33.6584ZM35.4728 33.6584L35.1819 40.7083L34.3642 41.508L34.6733 33.7494C34.8728 33.7494 35.3818 33.7494 35.4728 33.6584Z" fill="#C09300"/>
<path d="M45.159 31.2227L45.7586 45.4498L46.7764 46.3578L46.1584 31.7316C45.8678 31.5317 45.3587 31.2228 45.159 31.2228V31.2227ZM43.9405 32.2411L44.4493 44.142L45.4666 45.1832L44.8489 31.4412C44.6489 31.6409 44.0491 32.1315 43.9404 32.2404L43.9405 32.2411ZM42.8321 33.1493L43.2317 43.0751L44.0494 43.8743L43.5404 32.5496C43.341 32.7495 42.9413 33.0403 42.8321 33.1493ZM41.6326 33.6584L42.0324 42.1181L42.832 42.7666L42.4322 33.3496C42.2322 33.4404 41.8325 33.6584 41.6326 33.6584ZM40.5242 33.6584L40.8152 40.7083L41.6328 41.508L41.3238 33.7494C41.1243 33.7494 40.6153 33.7494 40.5242 33.6584Z" fill="#C09300"/>
<path d="M38.399 39.9063L39.6166 45.4486L39.2166 45.8482L38.7987 45.5393L38.1081 40.597L38.3989 45.5393L37.999 46.048L37.5993 45.5393L37.8901 40.597L37.1997 45.5393L36.7814 45.8482L36.3818 45.4486L37.5992 39.9062L38.399 39.9063Z" fill="#C09300" stroke="#C09300" stroke-width="0.485794"/>
<path d="M35.2733 37.4727L32.8564 46.0486L36.1821 46.5575L37.5992 40.1072L35.2732 37.4727L35.2733 37.4727Z" fill="white" stroke="#C09300" stroke-width="0.537884" stroke-linejoin="round"/>
<path d="M34.4736 40.4017L34.7644 41.1101L36.3357 39.6094" stroke="#C09300" stroke-width="0.574474" stroke-linejoin="round"/>
<path d="M35.562 38.625L35.8908 41.7088L36.8902 40.4006M36.4905 40.9088L37.0364 42.7929M37.2504 42.1007L36.1462 43.7779M36.4906 45.4519L36.1372 43.7802L35.8286 42.0799L35.0889 43.0817L34.7644 41.9267L33.729 42.9887L34.2556 44.9205L34.9823 43.7254L35.382 44.943L36.1281 43.7824M33.5645 45.8513L34.2357 44.9084L34.6731 46.3597L35.2727 45.3422L35.6727 46.56" stroke="#C09300" stroke-width="0.574474" stroke-linejoin="round"/>
<path d="M40.7248 37.4727L43.1416 46.0486L39.816 46.5575L38.3988 40.1072L40.7248 37.4727L40.7248 37.4727Z" fill="white" stroke="#C09300" stroke-width="0.537884" stroke-linejoin="round"/>
<path d="M41.5244 40.4017L41.2337 41.1101L39.6624 39.6094" stroke="#C09300" stroke-width="0.574474" stroke-linejoin="round"/>
<path d="M40.4361 38.625L40.1073 41.7088L39.1078 40.4006M39.5076 40.9088L38.9617 42.7929M38.7476 42.1007L39.8519 43.7779M39.5074 45.4519L39.8609 43.7802L40.1694 42.0799L40.9092 43.0817L41.2336 41.9267L42.2691 42.9887L41.7425 44.9205L41.0157 43.7254L40.616 44.943L39.8699 43.7824M42.4336 45.8513L41.7623 44.9084L41.325 46.3597L40.7253 45.3422L40.3253 46.56" stroke="#C09300" stroke-width="0.574474" stroke-linejoin="round"/>
<path d="M37.9985 49.883C40.5246 49.883 42.9415 49.6832 44.3588 49.2834C44.9586 49.1746 44.9586 48.8657 44.9586 48.4657C45.5584 48.2659 45.2493 47.5574 45.6672 47.5574C45.2493 47.6667 45.1586 46.8488 44.6497 46.9581C44.6497 46.2492 43.941 46.1585 43.3413 46.358C42.1418 46.758 40.0156 46.8489 37.9985 46.8489C35.9814 46.758 33.8733 46.758 32.6558 46.358C32.0561 46.1585 31.3477 46.2492 31.3477 46.9581C30.8387 46.8489 30.7479 47.6667 30.3301 47.5575C30.7479 47.5575 30.4389 48.2659 31.0387 48.4657C31.0387 48.8657 31.0387 49.1746 31.6565 49.2834C33.0556 49.6832 35.4727 49.883 37.9985 49.883H37.9985Z" fill="white" stroke="#C09300" stroke-width="1.07577" stroke-linejoin="round"/>
<path d="M34.5648 46.0491C35.3824 46.1582 36.291 46.249 37 46.1582C37.3994 46.1582 37.6902 46.8486 36.8907 46.9578C36.1823 47.0484 35.0737 46.9578 34.4739 46.8486C33.9651 46.7577 32.8566 46.5579 32.1478 46.3577C31.4391 46.0491 31.9482 45.4498 32.3476 45.5405C32.9656 45.7402 33.7652 45.9403 34.5649 46.0491L34.5648 46.0491ZM41.4339 46.0491C40.6161 46.1582 39.7077 46.249 39.017 46.1582C38.5989 46.1582 38.3081 46.8486 39.1078 46.9578C39.8166 47.0484 40.9251 46.9578 41.5244 46.8486C42.0334 46.7577 43.1418 46.5579 43.8505 46.3577C44.5594 46.0491 44.0507 45.4498 43.6507 45.5405C43.0328 45.7402 42.2333 45.9402 41.4339 46.0491Z" fill="white" stroke="#C09300" stroke-width="0.574474" stroke-linejoin="round"/>
<path d="M32.0572 45.6519C31.4394 45.5428 31.1487 46.2512 31.3488 46.6509C31.4395 46.4511 31.8575 46.4511 31.9485 46.2512C32.0572 45.9425 31.8575 45.9426 32.0572 45.6519ZM34.474 47.5101C34.474 47.1107 34.8735 47.1598 34.8735 46.76C34.8735 46.5603 34.7647 46.2512 34.5649 46.2512C34.365 46.2512 34.1649 46.451 34.1649 46.6509C34.074 47.0507 34.474 47.1108 34.474 47.5101ZM37.3506 46.3599C37.9498 46.3599 37.8904 47.1598 37.5995 47.5595C37.5995 47.2688 37.0908 47.1598 37.0908 46.9601C37.0908 46.6508 37.5501 46.6508 37.3506 46.3599ZM43.941 45.6519C44.5589 45.5428 44.8498 46.2512 44.6497 46.6509C44.5588 46.4511 44.1409 46.4511 44.0501 46.2512C43.941 45.9425 44.141 45.9426 43.941 45.6519ZM41.5242 47.5101C41.5242 47.1107 41.1248 47.1598 41.1248 46.76C41.1248 46.5603 41.2337 46.2512 41.4336 46.2512C41.6334 46.2512 41.8334 46.451 41.8334 46.6509C41.9243 47.0507 41.5242 47.1108 41.5242 47.5101ZM38.6476 46.3599C38.0482 46.3599 38.1077 47.1598 38.3984 47.5595C38.3984 47.2688 38.9071 47.1598 38.9071 46.9601C38.9072 46.6508 38.4478 46.6508 38.6476 46.3599Z" fill="white" stroke="#C09300" stroke-width="0.574474" stroke-linejoin="round"/>
<path d="M32.2565 45.8519C32.4566 45.8519 32.7653 45.9429 32.8563 46.0517L32.2559 45.8516L32.2565 45.8519ZM33.2546 46.161C33.3637 46.161 33.7636 46.2517 33.9634 46.3605L33.254 46.1604L33.2546 46.161ZM36.8899 46.56C36.6901 46.56 36.2903 46.56 36.1815 46.6506L36.8896 46.5594L36.8899 46.56ZM35.7816 46.56C35.6728 46.4508 35.2728 46.4508 35.0731 46.56H35.7811H35.7816ZM43.7413 45.8519C43.5415 45.8519 43.2505 45.9429 43.1415 46.0517L43.7413 45.8519ZM42.7419 46.161C42.6329 46.161 42.233 46.2517 42.0332 46.3605L42.7425 46.1604L42.7419 46.161ZM39.1066 46.56C39.3066 46.56 39.7063 46.56 39.8153 46.6506L39.106 46.5594L39.1066 46.56ZM40.2149 46.56C40.3238 46.4508 40.7239 46.4508 40.9236 46.56H40.2143H40.2149Z" fill="white" stroke="#C09300" stroke-width="0.403018" stroke-linejoin="round"/>
<path d="M32.088 47.4477C32.0204 47.4347 31.9849 47.3812 32.0019 47.3179C32.0226 47.2407 32.0844 47.1966 32.1428 47.2173C32.18 47.2304 32.2479 47.2989 32.2482 47.3235C32.2486 47.3517 32.2126 47.4188 32.1972 47.419C32.1905 47.419 32.1802 47.4249 32.1742 47.4319C32.1616 47.4469 32.1219 47.4541 32.088 47.4477ZM39.0458 47.9442C39.0207 47.9349 38.9806 47.8785 38.9806 47.8525C38.9809 47.8035 39.0533 47.7236 39.0983 47.7232C39.1205 47.723 39.1812 47.7546 39.2039 47.7782C39.2451 47.821 39.2361 47.8913 39.1844 47.9312C39.1589 47.9508 39.083 47.958 39.0458 47.9442L39.0458 47.9442ZM39.0914 48.2583C39.0382 48.2403 39.0187 48.2143 39.0144 48.1553C39.0099 48.0938 39.0159 48.0842 39.0808 48.0488L39.1272 48.0235L39.171 48.0431C39.2319 48.0702 39.2589 48.0994 39.261 48.1403C39.2633 48.1844 39.2306 48.2294 39.1799 48.2522C39.1354 48.2721 39.1327 48.2723 39.0914 48.2583ZM32.6466 46.8789C32.6028 46.8776 32.5426 46.9179 32.5081 46.9383C32.4259 46.9576 32.3302 47.0081 32.2508 46.9541C32.1726 46.93 32.0686 46.949 32.0568 47.0452C32.0769 47.1277 32.1926 47.1749 32.2627 47.1204C32.3147 47.0523 32.4567 47.0124 32.4725 47.1283C32.4146 47.216 32.4212 47.3321 32.3735 47.4252C32.3658 47.4832 32.3416 47.5382 32.3102 47.5875C32.2516 47.5934 32.1894 47.5865 32.14 47.6231C32.0607 47.6274 31.9798 47.6668 31.9341 47.7339C31.8831 47.8072 31.8342 47.8816 31.8193 47.9714C31.8329 48.0633 31.9381 48.0896 32.0173 48.0941C32.1017 48.1174 32.1863 48.1479 32.2706 48.1733C32.4081 48.2041 32.5369 48.2538 32.6744 48.2841C32.875 48.3447 33.0858 48.3725 33.2879 48.4266C33.3091 48.4337 33.3289 48.4398 33.3512 48.4425C33.4351 48.4599 33.4789 48.3687 33.4858 48.3C33.5274 48.1531 33.5592 48.0037 33.6006 47.8566C33.6291 47.7977 33.6635 47.6645 33.5492 47.6944C33.4839 47.7335 33.4286 47.7923 33.3473 47.7973C33.2365 47.8037 33.2997 47.917 33.3433 47.9635C33.3529 48.0379 33.3294 48.1268 33.28 48.1852C33.2141 48.2269 33.1316 48.1781 33.0623 48.1615C32.9895 48.1627 32.844 48.1255 32.9119 48.0268C32.9359 47.9538 32.9381 47.8738 32.9673 47.8012C33.0044 47.7234 33.0098 47.6384 33.0266 47.5558C32.9809 47.4574 32.9027 47.5882 32.8406 47.5994C32.7978 47.6291 32.6372 47.6417 32.7218 47.7181C32.7947 47.7735 32.7388 47.8697 32.7258 47.9398C32.7211 48.0373 32.6197 48.0606 32.5397 48.0387C32.4602 48.0349 32.3496 47.9757 32.417 47.8883C32.4324 47.8155 32.4578 47.7439 32.4725 47.6706L32.5596 47.4094C32.5733 47.3308 32.6015 47.2564 32.6387 47.1877C32.6409 47.1009 32.6992 47.0262 32.6981 46.9383C32.6922 46.8954 32.6729 46.8798 32.6466 46.8789ZM32.1914 47.7973C32.2018 47.7955 32.2092 47.797 32.2191 47.8012C32.2508 47.8147 32.2517 47.8404 32.2191 47.8685C32.2049 47.8808 32.1887 47.8926 32.1835 47.8923C32.1243 47.8872 32.1068 47.8784 32.1044 47.8566C32.1022 47.8375 32.1082 47.832 32.1479 47.8131C32.1676 47.8037 32.1811 47.7991 32.1914 47.7973ZM32.0602 48.4331C31.9973 48.3741 32.0075 48.331 32.1004 48.2617C32.1401 48.2321 32.1642 48.2354 32.2097 48.2769C32.2797 48.3408 32.2825 48.3811 32.2207 48.4359C32.1902 48.4629 32.1768 48.4685 32.1413 48.4688C32.1041 48.4692 32.0936 48.4646 32.0602 48.4331ZM32.4465 48.5497C32.432 48.5462 32.4184 48.5398 32.4065 48.5309C32.3946 48.522 32.3847 48.5107 32.3773 48.4978C32.3699 48.4849 32.3653 48.4706 32.3636 48.4559C32.362 48.4411 32.3633 48.4261 32.3677 48.4119C32.3839 48.3568 32.3934 48.3514 32.4741 48.3506C32.5646 48.3497 32.5822 48.3649 32.5831 48.4446C32.5836 48.4895 32.5801 48.4999 32.5578 48.5207C32.5315 48.545 32.4811 48.5582 32.4465 48.5497ZM43.7338 48.5598C43.705 48.5359 43.6992 48.5251 43.6989 48.4946C43.6985 48.4426 43.7285 48.4044 43.7934 48.375C43.8798 48.3359 43.9149 48.3413 43.9475 48.3986C43.9907 48.4747 43.9887 48.5058 43.9369 48.5571C43.9082 48.5855 43.9029 48.5871 43.8374 48.5878C43.7731 48.5882 43.7658 48.5865 43.7338 48.5598ZM32.9595 48.7055C32.9134 48.6932 32.8895 48.6586 32.8889 48.6033C32.8884 48.561 32.8915 48.5543 32.921 48.5311C32.9402 48.5161 32.9705 48.5033 32.9943 48.5C33.0281 48.4954 33.0405 48.4983 33.0677 48.5174C33.1374 48.5664 33.1522 48.615 33.1119 48.662C33.0688 48.7121 33.0281 48.7238 32.9595 48.7055ZM35.736 48.8296C35.7258 48.8169 35.7032 48.8093 35.7009 48.7932C35.7049 48.723 35.7083 48.6518 35.7307 48.5845C35.7429 48.5182 35.7322 48.449 35.7553 48.3845C35.779 48.2671 35.7789 48.146 35.8062 48.0294C35.8075 47.9693 35.8132 47.9092 35.8306 47.8513C35.8506 47.7599 35.8323 47.6644 35.8593 47.5741C35.8564 47.5401 35.8954 47.4495 35.9297 47.5032C35.9795 47.5762 36.0452 47.6356 36.1097 47.6951C36.1652 47.7271 36.1143 47.7742 36.0759 47.7901C36.0234 47.8108 36.0106 47.8687 36.0143 47.9196C36.0069 47.9721 35.9859 48.0218 35.9837 48.0754C35.9726 48.1542 35.9748 48.2343 35.9645 48.313C35.9415 48.3902 35.9503 48.4726 35.9426 48.5521C35.9436 48.6026 35.9196 48.6485 35.9229 48.6991C35.9168 48.7505 35.9145 48.8124 35.8713 48.8476C35.8297 48.8687 35.7695 48.865 35.736 48.8296H35.736ZM39.498 47.5883C39.4369 47.6345 39.3823 47.689 39.3278 47.7427C39.2528 47.7995 39.3895 47.8326 39.407 47.8812C39.4269 47.9555 39.4257 48.0345 39.4307 48.1108C39.4534 48.1806 39.4634 48.255 39.4584 48.3285C39.4519 48.4073 39.3491 48.3907 39.3041 48.4354C39.2418 48.4616 39.2169 48.5228 39.1695 48.566C39.1383 48.6271 39.1299 48.7023 39.1259 48.7718C39.1304 48.8285 39.0876 48.8921 39.1259 48.942C39.1309 48.9491 39.1367 48.9587 39.1418 48.9658C39.1546 48.9842 39.1852 48.9695 39.2051 48.9737C39.2689 48.9701 39.3354 48.9797 39.3951 48.9539C39.5484 48.9274 39.703 48.9253 39.8582 48.9183C39.9531 48.9213 40.0444 48.8883 40.1393 48.8906C40.2136 48.907 40.247 48.8264 40.2462 48.7679C40.2041 48.6851 40.2404 48.5869 40.2066 48.5026C40.1768 48.4175 40.1885 48.3218 40.1749 48.2335C40.173 48.164 40.0849 48.1383 40.0403 48.1899C39.9971 48.2336 39.9272 48.2424 39.8939 48.2968C39.8563 48.3731 39.9733 48.3732 39.9928 48.4314C40.0151 48.4902 40.0078 48.5556 40.0126 48.6174C40.0271 48.6925 39.9456 48.6968 39.8939 48.7045C39.8259 48.73 39.7304 48.7471 39.692 48.665C39.6678 48.6042 39.6711 48.5392 39.6643 48.4749C39.6626 48.362 39.6354 48.2509 39.6286 48.1385C39.6221 47.9996 39.5981 47.8615 39.5891 47.7229C39.5878 47.6652 39.5801 47.5711 39.498 47.5883V47.5883ZM39.4189 48.6333L39.4584 48.6372L39.4624 48.6847L39.4663 48.7322L39.4149 48.7481C39.398 48.7531 39.3808 48.7571 39.3634 48.7599C39.3553 48.755 39.3474 48.7497 39.3397 48.7441C39.3119 48.724 39.319 48.6953 39.3555 48.657C39.3761 48.6354 39.3858 48.6313 39.4188 48.6333H39.4189ZM35.6233 47.4578C35.5752 47.4749 35.514 47.5456 35.465 47.5449C35.3535 47.5528 35.3691 47.6613 35.4491 47.6993C35.4597 47.7322 35.4498 47.7737 35.4531 47.8101C35.4686 47.9101 35.4055 47.9906 35.4175 48.0912C35.4119 48.2014 35.3786 48.3087 35.3739 48.4197C35.3426 48.5341 35.3423 48.6517 35.3225 48.768C35.3093 48.8723 35.2339 48.8355 35.1681 48.8076C35.1676 48.7624 35.1646 48.7182 35.1641 48.673C35.1915 48.5695 35.1083 48.5393 35.0256 48.5266C34.9387 48.5348 34.896 48.4603 34.9147 48.3841C34.9521 48.3396 35.046 48.352 35.1047 48.3445C35.229 48.3703 35.224 48.2037 35.1602 48.1466C35.1165 48.0661 35.0084 48.0314 34.9781 47.9487C34.9902 47.8389 34.9173 47.7292 34.8277 47.6756C34.6898 47.6659 34.5857 47.7849 34.5348 47.9012C34.4774 47.9177 34.4203 47.9349 34.3645 47.9566C34.2747 47.979 34.1467 48.1348 34.2695 48.1941C34.3385 48.2131 34.5483 48.2609 34.4556 48.3563C34.4034 48.4459 34.3035 48.4475 34.2141 48.4237C34.1225 48.4237 34.0204 48.3791 34.0241 48.2732C34.0054 48.1783 34.0085 48.0759 33.9648 47.9882C33.9459 47.8819 33.8253 47.9068 33.8183 48.0041C33.7254 48.0717 33.7378 48.1811 33.8025 48.2614C33.8428 48.3537 33.8029 48.4612 33.7629 48.5463C33.7387 48.6572 33.6165 48.661 33.5293 48.6968C33.4866 48.7134 33.3231 48.6869 33.3829 48.7799C33.4783 48.8135 33.5922 48.8438 33.6916 48.8194C33.7959 48.8065 33.8864 48.7353 33.9371 48.6453C34.0071 48.5744 34.1273 48.6115 34.2181 48.6097C34.316 48.6094 34.416 48.6784 34.511 48.6334C34.5385 48.562 34.6658 48.444 34.705 48.5661C34.6983 48.6754 34.7948 48.7341 34.895 48.7205C35.0044 48.7143 34.9639 48.7979 34.9623 48.863C34.9695 48.9814 35.0458 49.0435 35.1443 49.0926C35.1779 49.1016 35.2134 49.0986 35.2473 49.0926C35.342 49.0628 35.444 49.0206 35.4729 48.9145C35.5113 48.8283 35.5122 48.7307 35.5402 48.6414C35.5626 48.4982 35.5916 48.3551 35.5956 48.2099C35.6306 48.0784 35.6205 47.9394 35.647 47.8062C35.6638 47.7071 35.6763 47.6082 35.6866 47.5093C35.675 47.4565 35.6522 47.4476 35.6233 47.4578ZM34.7643 47.9842C34.7835 47.9866 34.7942 48.0101 34.796 48.0516C34.798 48.0976 34.8222 48.1352 34.8514 48.1426C34.8745 48.1484 34.8726 48.1728 34.8475 48.1901C34.8329 48.2001 34.8068 48.2062 34.7604 48.2059C34.6872 48.2055 34.6418 48.1866 34.6021 48.1465L34.5783 48.1228L34.6139 48.099C34.6389 48.0793 34.6627 48.0582 34.6852 48.0357C34.7213 47.9989 34.7452 47.9819 34.7643 47.9842ZM43.1283 46.9866C43.0564 46.9899 42.9842 47.0015 42.9185 47.0183C42.7867 47.0101 42.7206 47.1484 42.8473 47.2162C42.9234 47.4105 43.0424 47.1761 43.1639 47.1924C43.346 47.2279 43.3614 47.4245 43.3895 47.5724C43.3998 47.719 43.442 47.8614 43.4845 48C43.6064 48.1354 43.3932 48.2204 43.3024 48.1147C43.225 48.0306 43.0592 47.9273 42.966 48.0435C42.8515 48.092 42.8468 48.2449 42.7522 48.2889C42.5991 48.3355 42.5798 48.1472 42.4989 48.0672C42.4245 47.9628 42.2823 47.9537 42.1664 47.9168C42.1121 47.8068 42.1404 47.6197 42.0279 47.5447C41.9334 47.5833 41.7602 47.7603 41.9052 47.8416C42.0467 47.9633 41.8434 48.0191 41.7785 48.1028C41.6858 48.206 41.671 48.3481 41.6558 48.4789C41.4963 48.567 41.4652 48.3791 41.446 48.2612C41.4336 48.1204 41.3148 48.1617 41.2322 48.2137C41.1116 48.2626 41.0514 48.3771 40.967 48.467C40.9569 48.5491 40.9718 48.6388 40.971 48.7243C40.9984 48.8271 41.1233 48.7788 41.2006 48.7718C41.3246 48.7199 41.3753 48.8513 41.2758 48.9262C41.2084 49.0118 40.9946 48.9671 41.0145 49.1043C41.0834 49.1124 41.1552 49.1098 41.2243 49.1043C41.3624 49.0666 41.5107 48.9691 41.5252 48.8153C41.5433 48.6813 41.7364 48.7057 41.8418 48.6768C41.9736 48.6388 42.1325 48.629 42.1625 48.7956C42.2523 48.8899 42.4473 48.9962 42.5464 48.8668C42.647 48.8053 42.6954 48.6974 42.6889 48.5818C42.6684 48.4824 42.8496 48.4788 42.8947 48.5343C42.9608 48.643 43.1672 48.6109 43.2668 48.5501C43.3727 48.472 43.3957 48.3342 43.5479 48.3324C43.7736 48.2648 44.0082 48.2258 44.2287 48.1424C44.4073 48.1035 44.2021 47.9907 44.1574 47.9247C44.0214 47.8575 43.9031 48.1327 43.7497 47.996C43.6312 47.9053 43.6393 47.7329 43.5953 47.6001C43.5653 47.4282 43.5729 47.2299 43.4489 47.0935C43.3637 47.0029 43.248 46.9811 43.1283 46.9866H43.1283ZM42.2654 48.186C42.2813 48.1856 42.2993 48.1935 42.3287 48.2097C42.3842 48.2404 42.4238 48.2912 42.4237 48.3324C42.4237 48.3594 42.4168 48.3612 42.3762 48.3799C42.3512 48.3915 42.3228 48.4038 42.3129 48.4037C42.2899 48.4034 42.2338 48.3585 42.2337 48.3403C42.2336 48.3328 42.2263 48.3041 42.2179 48.281C42.203 48.2404 42.2053 48.2409 42.2258 48.2137C42.2389 48.1963 42.2495 48.1864 42.2654 48.186ZM43.0927 48.2295C43.1398 48.2264 43.1678 48.2411 43.1877 48.277C43.2107 48.3187 43.195 48.3506 43.1362 48.376C43.1104 48.3871 43.0846 48.3961 43.0808 48.3958C43.0769 48.3954 43.0556 48.3828 43.0333 48.3681C42.9991 48.3455 42.9941 48.3346 42.9937 48.3087C42.9933 48.2687 43.0379 48.2331 43.0926 48.2295H43.0927ZM41.9606 48.2414C41.9744 48.2392 41.987 48.2465 42.0041 48.2612C42.0269 48.2808 42.0341 48.2965 42.0397 48.3364C42.0437 48.3641 42.0431 48.4 42.0397 48.4155C42.0336 48.4442 42.033 48.4429 41.9685 48.4433C41.8874 48.444 41.8799 48.4352 41.8814 48.3601C41.8824 48.3124 41.8829 48.2996 41.9091 48.2731C41.9294 48.2525 41.9468 48.2435 41.9606 48.2414ZM41.2639 48.4235C41.2892 48.4294 41.313 48.4485 41.3193 48.4789C41.3276 48.5191 41.3203 48.5374 41.2877 48.5541C41.2595 48.5684 41.1947 48.5732 41.1768 48.562C41.171 48.5584 41.1591 48.549 41.1531 48.5383C41.1445 48.5229 41.1461 48.5155 41.157 48.5066C41.1647 48.5004 41.1729 48.4914 41.1729 48.4868C41.1728 48.4822 41.1814 48.4662 41.1926 48.4512C41.2112 48.4266 41.2387 48.4175 41.2639 48.4235ZM42.4356 48.5739C42.4581 48.5738 42.4772 48.5816 42.491 48.5937C42.5145 48.6142 42.5137 48.6444 42.487 48.6649C42.4699 48.6781 42.3766 48.6769 42.3445 48.6649C42.3302 48.6596 42.3248 48.6524 42.3248 48.6372C42.3245 48.6194 42.3295 48.6084 42.3604 48.5937C42.3863 48.5813 42.413 48.574 42.4356 48.5739H42.4356ZM40.2606 49.1843C40.2484 49.1763 40.2304 49.1694 40.2485 49.1562C40.2704 49.1179 40.3142 49.1046 40.353 49.0904C40.4224 49.0603 40.4823 49.0093 40.527 48.9487C40.5333 48.9065 40.5806 48.8836 40.5804 48.8396C40.5808 48.7794 40.5844 48.7177 40.5697 48.6589C40.5535 48.605 40.5125 48.5637 40.465 48.5356C40.4325 48.51 40.3797 48.503 40.3677 48.4578C40.361 48.4144 40.3998 48.3813 40.4133 48.3426C40.4416 48.2892 40.4654 48.2332 40.4958 48.1811C40.5286 48.1447 40.5792 48.1791 40.5962 48.2143C40.6202 48.2495 40.6414 48.2873 40.6533 48.328C40.6916 48.37 40.7256 48.4193 40.7393 48.4752C40.7581 48.5145 40.7879 48.5515 40.7861 48.5975C40.7861 48.6503 40.8159 48.6973 40.814 48.7503C40.8157 48.8213 40.8157 48.8954 40.7897 48.9624C40.772 48.9996 40.7365 49.0219 40.7129 49.0552C40.6725 49.0926 40.628 49.1285 40.5761 49.1484C40.5395 49.1601 40.5183 49.2023 40.4723 49.1921C40.4072 49.1932 40.3411 49.2021 40.2764 49.1916C40.2805 49.1984 40.2566 49.18 40.2606 49.1843V49.1843ZM39.3929 49.2413C39.3621 49.2097 39.3555 49.1962 39.3551 49.1652C39.3548 49.1339 39.3608 49.1214 39.3909 49.091C39.4464 49.035 39.4736 49.0336 39.5694 49.0821C39.661 49.1285 39.6919 49.1327 39.7001 49.0998C39.7081 49.0681 39.7608 49.0391 39.8109 49.0389C39.8425 49.0387 39.8605 49.045 39.8859 49.0647C39.9177 49.0895 39.9192 49.0934 39.9201 49.1508C39.9206 49.2094 39.9198 49.2117 39.8833 49.244C39.8481 49.2749 39.8425 49.2768 39.799 49.2725C39.7436 49.2669 39.7104 49.2416 39.7013 49.1979C39.6948 49.1663 39.6837 49.1587 39.6753 49.1802C39.6727 49.1872 39.6591 49.1957 39.6451 49.1992C39.6193 49.2057 39.5756 49.2332 39.5445 49.2625C39.5327 49.2736 39.5122 49.2788 39.4788 49.2792C39.4337 49.2795 39.4275 49.2769 39.3929 49.2413H39.3929ZM36.8824 48.1139C36.7982 48.1148 36.7075 48.1857 36.6963 48.2683C36.7156 48.3636 36.7947 48.457 36.7438 48.5573C36.779 48.6856 36.6474 48.7343 36.5578 48.6602C36.5037 48.5372 36.4763 48.4023 36.3955 48.2921C36.2936 48.2632 36.2493 48.4259 36.1778 48.4821C36.2132 48.5777 36.3166 48.6635 36.3282 48.7829C36.3529 48.8988 36.2824 49.0274 36.1817 49.0877C36.0949 49.1706 35.9759 49.141 35.869 49.1589C35.7393 49.2347 35.9642 49.2625 36.0234 49.2658C36.1561 49.2793 36.2939 49.2618 36.3915 49.1629C36.4889 49.1164 36.4814 48.9479 36.5974 48.9293C36.7985 48.9204 36.998 48.9602 37.199 48.965C37.3066 48.9907 37.4731 48.9522 37.5474 49.0323C37.5476 49.1725 37.6665 49.259 37.7809 49.3133C37.8441 49.3309 37.9106 49.2526 37.9748 49.2381C38.0971 49.1991 38.0599 49.0479 38.1332 48.9887C38.3422 48.9774 38.5532 48.9798 38.7625 48.9768C38.8024 48.9778 38.8142 48.9211 38.8417 48.8977C38.8371 48.8168 38.8342 48.7365 38.822 48.6562C38.7816 48.5541 38.8284 48.4226 38.7546 48.3356C38.6495 48.307 38.5601 48.4032 38.4538 48.4108C38.3365 48.4631 38.2377 48.5714 38.2322 48.7037C38.1627 48.8173 38.0513 48.6835 38.0896 48.5889C38.0853 48.5477 38.0986 48.4997 38.0857 48.4623C38.0215 48.3852 37.909 48.4104 37.8205 48.399C37.6915 48.4041 37.5655 48.3762 37.4365 48.3792C37.3234 48.3706 37.2057 48.389 37.0961 48.3594C36.9654 48.3556 36.9834 48.2279 36.9615 48.1377C36.9383 48.1205 36.9104 48.1137 36.8824 48.1139ZM37.1357 48.581C37.1791 48.5819 37.2201 48.5876 37.2624 48.5929C37.3169 48.6019 37.3751 48.5741 37.4286 48.5929C37.5523 48.6139 37.6761 48.609 37.8007 48.6206C37.8336 48.6201 37.8572 48.644 37.8798 48.6641V48.9254C37.8761 48.958 37.8895 49.0011 37.8601 49.0244C37.8506 49.0308 37.84 49.0379 37.8284 49.0402C37.7941 49.0313 37.7578 49.0088 37.7413 48.9768C37.7361 48.9316 37.7436 48.8877 37.7453 48.8423C37.7444 48.8305 37.7504 48.8122 37.7453 48.8027C37.7183 48.7836 37.6878 48.7711 37.6542 48.771C37.5466 48.7673 37.4412 48.7594 37.3336 48.7552C37.2441 48.7495 37.1521 48.7628 37.0644 48.7393C37.0305 48.727 36.9862 48.7312 36.9655 48.6958C36.9358 48.6613 36.9786 48.6202 37.009 48.6048C37.0494 48.5864 37.0923 48.5802 37.1357 48.581L37.1357 48.581ZM38.5646 48.6127C38.5847 48.6124 38.5911 48.619 38.6003 48.6562L38.6161 48.7196C38.6207 48.7345 38.6133 48.7393 38.5923 48.7473C38.5297 48.7709 38.4675 48.7685 38.4459 48.7393C38.4361 48.7261 38.4475 48.6843 38.4657 48.6681C38.5023 48.6353 38.5429 48.6127 38.5646 48.6127Z" fill="#C09300"/>
<path d="M39.5568 32.058C39.6413 32.0631 39.4426 31.606 39.4426 31.606C39.6661 31.8345 40.5104 31.8891 40.5104 31.8891C40.0037 31.6654 39.4973 29.977 39.5568 28.6312C39.6115 27.2804 39.3633 26.7489 39.1645 26.5503C38.9112 26.297 38.0967 26.0735 37.5604 26.0436C37.2575 26.0288 37.3071 26.2721 37.3071 26.2721C36.746 26.1281 36.1848 26.0735 35.9315 26.2424C35.693 26.4013 35.6433 27.1959 35.8173 27.0568C36.2393 26.7191 36.6069 27.0271 36.8601 27.3945C37.0835 27.7174 37.0687 28.6312 36.7458 29.6988C36.4082 30.8212 35.4844 31.9436 35.4844 31.9436C35.986 31.9436 36.6913 31.4967 36.6913 31.4967L36.5224 32.1969C37.0538 31.9436 37.4759 31.5513 37.4759 31.5513L37.9825 32.0827C38.1513 31.8592 38.4892 31.5513 38.4892 31.5513C38.4892 31.5513 38.9112 31.9983 39.5568 32.058Z" fill="white" stroke="#C09300" stroke-width="0.550998"/>
<path d="M37.5059 28.824C37.5059 28.824 37.2228 30.9049 36.6914 31.4959M37.953 28.7695C37.953 28.7695 37.8437 30.8751 37.4762 31.5506M38.3495 28.8544C38.3495 28.8544 38.3495 31.1587 38.4885 31.551M38.8511 28.9684C38.8511 28.9684 38.9653 30.9053 39.4421 31.6055" stroke="#C09300" stroke-width="0.574522"/>
<path d="M36.9938 27.8165C36.9689 27.6328 36.9242 27.4886 36.8596 27.3943C36.6063 27.0268 36.239 26.7189 35.8168 27.0566C35.8168 27.0566 35.9608 26.6096 36.2687 26.5948C36.5071 26.5798 37.0484 26.7735 37.5253 27.5879C37.5253 27.5879 37.1726 27.5085 37.0883 27.583C36.9292 27.7221 36.9938 27.8165 36.9938 27.8165ZM35.7727 26.5055C35.8074 26.3912 35.8621 26.287 35.9317 26.2422C36.185 26.0734 36.7461 26.128 37.3073 26.272C37.3073 26.272 37.2576 26.0287 37.5606 26.0436C38.0969 26.0734 38.9114 26.297 39.1646 26.5502C39.2241 26.6148 39.2938 26.7091 39.3533 26.853H39.3434C39.2193 26.6792 38.8667 26.6892 38.7822 26.6991C38.648 26.7141 38.5637 26.709 38.3848 26.7537C38.3005 26.7736 38.1713 26.7984 38.1017 26.853C38.0472 26.8977 38.0024 27.0616 37.9181 27.0616C37.7839 27.0616 37.7939 27.0269 37.7591 26.9872C37.7144 26.9326 37.6895 26.853 37.6448 26.858C37.5059 26.8829 37.2823 26.7736 36.9993 26.5502C36.7164 26.3267 36.6069 26.272 36.2395 26.2968C35.8769 26.3266 35.7627 26.5303 35.7627 26.5303L35.7727 26.5055Z" fill="#C09300" stroke="#C09300" stroke-width="0.160142"/>
<path d="M37.8482 26.8331C37.9304 26.8331 37.9971 26.7664 37.9971 26.6841C37.9971 26.6018 37.9304 26.5352 37.8482 26.5352C37.7659 26.5352 37.6992 26.6018 37.6992 26.6841C37.6992 26.7664 37.7659 26.8331 37.8482 26.8331Z" fill="white"/>
<path d="M37.9955 41.4479C42.1302 38.2678 41.7756 33.6093 41.7756 33.6093C41.6665 33.6311 41.5629 33.642 41.4538 33.642C40.5865 33.642 38.5179 33.1459 38.0353 32.5156C37.5184 33.0861 35.4045 33.642 34.5426 33.642C34.4335 33.642 34.3244 33.6311 34.2208 33.6093C34.2208 33.6093 33.8608 38.2676 37.9955 41.4479H37.9955Z" fill="white" stroke="#C09300" stroke-width="0.520275"/>
<path d="M41.4468 33.9499L41.3395 33.9532C40.5534 33.9532 38.7277 33.55 38.024 32.9453C37.2868 33.5038 35.431 33.9532 34.6577 33.9532C34.6214 33.9532 34.5856 33.9488 34.55 33.9423C34.5482 34.1185 34.5574 34.301 34.5683 34.4672C34.6093 35.0879 34.7181 35.7109 34.8834 36.3104C35.4038 38.1971 36.4688 39.8005 37.9959 41.0167C39.5242 39.7995 40.5905 38.1946 41.112 36.3065C41.2776 35.7071 41.3868 35.0842 41.4281 34.4635C41.4378 34.2897 41.4475 34.0769 41.4468 33.9499Z" stroke="#C09300" stroke-width="0.414406"/>
<mask id="mask0_1290_6734" style="mask-type:luminance" maskUnits="userSpaceOnUse" x="34" y="32" width="8" height="9">
<path d="M41.4102 33.9781L41.3041 33.9814C40.5264 33.9814 38.7204 33.5826 38.0241 32.9844C37.2947 33.5371 35.4589 33.9814 34.6935 33.9814C34.6577 33.9811 34.622 33.9774 34.5869 33.9705L34.6049 34.4896C34.6452 35.1039 34.7532 35.7201 34.9166 36.3131C35.4314 38.1798 36.4853 39.766 37.9957 40.9695C39.5076 39.7651 40.5629 38.1774 41.0787 36.3094C41.2441 35.7136 41.3488 35.1027 41.3913 34.4858C41.4017 34.3166 41.4079 34.1471 41.4098 33.9776L41.4102 33.9781Z" fill="white"/>
</mask>
<g mask="url(#mask0_1290_6734)">
<path d="M34.5293 32.9062H36.8421V41.052H34.5293V32.9062Z" fill="#C09300"/>
<path fill-rule="evenodd" clip-rule="evenodd" d="M36.8418 32.9062H39.1546V41.052H36.8418V32.9062Z" fill="white"/>
<path fill-rule="evenodd" clip-rule="evenodd" d="M39.1543 32.9062H41.4671V41.052H39.1543V32.9062Z" fill="#C09300"/>
</g>
<g clip-path="url(#clip2_1290_6734)">
<path d="M-38 -16H153.9V85H-38" fill="#B31942"/>
<path d="M-38 -4.34766H153.9H-38ZM153.9 11.1908H-38H153.9ZM-38 26.7293H153.9H-38ZM153.9 42.2677H-38H153.9ZM-38 57.8062H153.9H-38ZM153.9 73.3447H-38H153.9Z" fill="black"/>
<path d="M-38 -4.34766H153.9M153.9 11.1908H-38M-38 26.7293H153.9M153.9 42.2677H-38M-38 57.8062H153.9M153.9 73.3447H-38" stroke="white" stroke-width="7.76923"/>
<path d="M-38 -16H38.76V38.3846H-38" fill="#0A3161"/>
<path d="M0.380395 2.64062L2.20705 8.26249L-2.5752 4.78799H3.33599L-1.44626 8.26249L0.380395 2.64062Z" fill="white"/>
<path d="M0.380395 13.5234L2.20705 19.1453L-2.5752 15.6708H3.33599L-1.44626 19.1453L0.380395 13.5234Z" fill="white"/>
<path d="M0.380395 24.3984L2.20705 30.0203L-2.5752 26.5458H3.33599L-1.44626 30.0203L0.380395 24.3984Z" fill="white"/>
<path d="M6.77737 -2.79297L8.60402 2.8289L3.82178 -0.645606H9.73296L4.95071 2.8289L6.77737 -2.79297Z" fill="white"/>
<path d="M6.77737 8.08984L8.60402 13.7117L3.82178 10.2372H9.73296L4.95071 13.7117L6.77737 8.08984Z" fill="white"/>
<path d="M6.77737 18.9648L8.60402 24.5867L3.82178 21.1122H9.73296L4.95071 24.5867L6.77737 18.9648Z" fill="white"/>
<path d="M6.77737 29.8438L8.60402 35.4656L3.82178 31.9911H9.73296L4.95071 35.4656L6.77737 29.8438Z" fill="white"/>
<path d="M13.1739 2.64062L15.0005 8.26249L10.2183 4.78799H16.1294L11.3472 8.26249L13.1739 2.64062Z" fill="white"/>
<path d="M13.1739 13.5234L15.0005 19.1453L10.2183 15.6708H16.1294L11.3472 19.1453L13.1739 13.5234Z" fill="white"/>
<path d="M13.1739 24.3984L15.0005 30.0203L10.2183 26.5458H16.1294L11.3472 30.0203L13.1739 24.3984Z" fill="white"/>
<path d="M19.5689 -2.79297L21.3955 2.8289L16.6133 -0.645606H22.5245L17.7422 2.8289L19.5689 -2.79297Z" fill="white"/>
<path d="M19.5689 8.08984L21.3955 13.7117L16.6133 10.2372H22.5245L17.7422 13.7117L19.5689 8.08984Z" fill="white"/>
<path d="M19.5689 18.9648L21.3955 24.5867L16.6133 21.1122H22.5245L17.7422 24.5867L19.5689 18.9648Z" fill="white"/>
<path d="M19.5689 29.8398L21.3955 35.4617L16.6133 31.9872H22.5245L17.7422 35.4617L19.5689 29.8398Z" fill="white"/>
<path d="M25.9663 2.64062L27.793 8.26249L23.0107 4.78799H28.9219L24.1397 8.26249L25.9663 2.64062Z" fill="white"/>
<path d="M25.9663 13.5234L27.793 19.1453L23.0107 15.6708H28.9219L24.1397 19.1453L25.9663 13.5234Z" fill="white"/>
<path d="M25.9663 24.3984L27.793 30.0203L23.0107 26.5458H28.9219L24.1397 30.0203L25.9663 24.3984Z" fill="white"/>
<path d="M32.3638 -2.78906L34.1904 2.83281L29.4082 -0.6417H35.3194L30.5371 2.83281L32.3638 -2.78906Z" fill="white"/>
<path d="M32.3638 8.09375L34.1904 13.7156L29.4082 10.2411H35.3194L30.5371 13.7156L32.3638 8.09375Z" fill="white"/>
<path d="M32.3638 18.9688L34.1904 24.5906L29.4082 21.1161H35.3194L30.5371 24.5906L32.3638 18.9688Z" fill="white"/>
<path d="M32.3638 29.8438L34.1904 35.4656L29.4082 31.9911H35.3194L30.5371 35.4656L32.3638 29.8438Z" fill="white"/>
</g>
</g>
</g>
<defs>
<clipPath id="clip0_1290_6734">
<rect width="76" height="76" rx="38" fill="white"/>
</clipPath>
<clipPath id="clip1_1290_6734">
<rect width="76" height="76" rx="38" fill="white"/>
</clipPath>
<clipPath id="clip2_1290_6734">
<rect width="191.9" height="101" fill="white" transform="translate(-38 -16)"/>
</clipPath>
</defs>
</svg>
