<svg width="23" height="23" viewBox="0 0 23 23" fill="none" xmlns="http://www.w3.org/2000/svg">
<g clip-path="url(#clip0_1232_6270)">
<path d="M-5.75 0H28.75V23H-5.75V0Z" fill="white"/>
<path d="M9.2 0H13.8V23H9.2V0ZM-5.75 9.2H28.75V13.8H-5.75V9.2Z" fill="#FF0000"/>
<path d="M4.84131 3.39844C5.37812 3.46894 5.92185 3.46894 6.45867 3.39844C6.14703 4.95156 6.14703 6.55112 6.45867 8.10424C5.92185 8.03373 5.37812 8.03373 4.84131 8.10424C5.15295 6.55112 5.15295 4.95156 4.84131 3.39844Z" fill="#FF0000"/>
<path d="M8.00244 4.94141C7.93194 5.47822 7.93194 6.02195 8.00244 6.55877C6.44932 6.24713 4.84976 6.24713 3.29664 6.55877C3.36715 6.02195 3.36715 5.47822 3.29664 4.94141C4.84976 5.25304 6.44932 5.25304 8.00244 4.94141Z" fill="#FF0000"/>
<path d="M16.562 3.39844C17.0988 3.46894 17.6426 3.46894 18.1794 3.39844C17.8677 4.95156 17.8677 6.55112 18.1794 8.10424C17.6426 8.03373 17.0988 8.03373 16.562 8.10424C16.8736 6.55112 16.8736 4.95156 16.562 3.39844Z" fill="#FF0000"/>
<path d="M19.7231 4.94141C19.6526 5.47822 19.6526 6.02195 19.7231 6.55877C18.17 6.24713 16.5705 6.24713 15.0173 6.55877C15.0878 6.02195 15.0878 5.47822 15.0173 4.94141C16.5705 5.25304 18.17 5.25304 19.7231 4.94141Z" fill="#FF0000"/>
<path d="M4.84131 14.8984C5.37812 14.9689 5.92185 14.9689 6.45867 14.8984C6.14703 16.4516 6.14703 18.0511 6.45867 19.6042C5.92185 19.5337 5.37812 19.5337 4.84131 19.6042C5.15295 18.0511 5.15295 16.4516 4.84131 14.8984Z" fill="#FF0000"/>
<path d="M8.00244 16.4414C7.93194 16.9782 7.93194 17.522 8.00244 18.0588C6.44932 17.7471 4.84976 17.7471 3.29664 18.0588C3.36715 17.522 3.36715 16.9782 3.29664 16.4414C4.84976 16.753 6.44932 16.753 8.00244 16.4414Z" fill="#FF0000"/>
<path d="M16.562 14.8984C17.0988 14.9689 17.6426 14.9689 18.1794 14.8984C17.8677 16.4516 17.8677 18.0511 18.1794 19.6042C17.6426 19.5337 17.0988 19.5337 16.562 19.6042C16.8736 18.0511 16.8736 16.4516 16.562 14.8984Z" fill="#FF0000"/>
<path d="M19.7231 16.4414C19.6526 16.9782 19.6526 17.522 19.7231 18.0588C18.17 17.7471 16.5705 17.7471 15.0173 18.0588C15.0878 17.522 15.0878 16.9782 15.0173 16.4414C16.5705 16.753 18.17 16.753 19.7231 16.4414Z" fill="#FF0000"/>
</g>
<rect x="0.5" y="0.5" width="22" height="22" rx="11" stroke="black" stroke-opacity="0.1"/>
<defs>
<clipPath id="clip0_1232_6270">
<rect width="23" height="23" rx="11.5" fill="white"/>
</clipPath>
</defs>
</svg>
