<svg width="23" height="23" viewBox="0 0 23 23" fill="none" xmlns="http://www.w3.org/2000/svg">
<g clip-path="url(#clip0_1232_6267)">
<path d="M-7.6665 0H30.6668V23H-7.6665V0Z" fill="#FF0000"/>
<path fill-rule="evenodd" clip-rule="evenodd" d="M12.5145 6.93101L12.6466 4.38483C12.6473 4.37347 12.6391 4.3631 12.6275 4.36129C12.6156 4.35939 12.6045 4.36711 12.6019 4.37865L11.949 6.83274C11.947 6.84097 11.9454 6.84889 11.9442 6.85683C11.9195 7.0138 12.0267 7.16101 12.1837 7.18569C12.3406 7.21032 12.4878 7.1031 12.5125 6.94614C12.5133 6.94106 12.514 6.93591 12.5145 6.93101ZM13.2174 7.14587L13.7487 4.65222C13.7512 4.64102 13.7447 4.62951 13.7335 4.62588C13.7221 4.62219 13.7099 4.62804 13.7055 4.63901L12.6744 6.95971C12.6711 6.96757 12.6683 6.97509 12.6658 6.98279C12.6167 7.13387 12.6995 7.29616 12.8506 7.34524C13.0017 7.39431 13.164 7.31158 13.213 7.16046C13.2146 7.15553 13.2161 7.15057 13.2174 7.14587ZM13.8776 7.46871L14.7949 5.0898C14.7991 5.0792 14.7945 5.0668 14.784 5.06139C14.7733 5.05595 14.7604 5.05984 14.7543 5.07L13.3707 7.19944C13.3663 7.20666 13.3623 7.21367 13.3586 7.22089C13.2864 7.36238 13.3425 7.53561 13.484 7.60785C13.6255 7.68015 13.7988 7.62398 13.8711 7.48247C13.8734 7.47785 13.8756 7.47319 13.8776 7.46871ZM14.4789 7.89082L15.757 5.68474C15.7629 5.67488 15.7603 5.66192 15.7508 5.655C15.7411 5.64793 15.7277 5.64972 15.7201 5.65883L14.0204 7.54555C14.0148 7.55202 14.0098 7.55833 14.0051 7.56485C13.9116 7.69328 13.94 7.87324 14.0684 7.96673C14.1968 8.06021 14.3768 8.03183 14.4703 7.9034C14.4733 7.89916 14.4763 7.89493 14.4789 7.89082ZM15.007 8.40124L16.6129 6.42096C16.6202 6.41213 16.6197 6.39896 16.6113 6.39064C16.6028 6.38209 16.5893 6.38178 16.5804 6.38957L14.6078 7.98881C14.6013 7.99429 14.5954 7.99975 14.5897 8.00546C14.4773 8.11778 14.4773 8.29998 14.5897 8.41226C14.702 8.52465 14.8841 8.52465 14.9965 8.41226C15.0001 8.40858 15.0037 8.40484 15.007 8.40124ZM15.4492 8.98753L17.3437 7.28132C17.3523 7.27374 17.3538 7.26069 17.3469 7.25116C17.3399 7.24141 17.3265 7.23898 17.3165 7.24531L15.119 8.51806C15.1117 8.52245 15.1051 8.52691 15.0985 8.53164C14.9701 8.62512 14.9417 8.80507 15.0352 8.93355C15.1287 9.06196 15.3086 9.09037 15.4371 8.99686C15.4413 8.99376 15.4454 8.99067 15.4492 8.98753ZM15.7945 9.63603L17.9326 8.24721C17.9423 8.24106 17.9459 8.22834 17.9405 8.21788C17.935 8.20717 17.9222 8.20269 17.9113 8.20741L15.5418 9.12068C15.534 9.12387 15.5267 9.12721 15.5195 9.13088C15.378 9.2031 15.3218 9.37642 15.394 9.51792C15.4663 9.65941 15.6396 9.71553 15.781 9.64329C15.7857 9.64095 15.7902 9.63845 15.7945 9.63603ZM16.0335 10.331L18.3636 9.29611C18.3741 9.29155 18.3797 9.2796 18.376 9.26841C18.3723 9.25698 18.3604 9.25055 18.3489 9.25343L15.8651 9.78228C15.8569 9.78427 15.8491 9.78639 15.8415 9.7889C15.6904 9.83796 15.6076 10.0003 15.6567 10.1514C15.7057 10.3025 15.868 10.3852 16.0191 10.3361C16.0241 10.3345 16.0289 10.3328 16.0335 10.331ZM16.1601 11.055L18.6241 10.3998C18.6351 10.397 18.6425 10.3861 18.6407 10.3744C18.6388 10.3626 18.628 10.3543 18.6162 10.3553L16.0802 10.4866C16.0717 10.4873 16.0638 10.4882 16.0558 10.4894C15.8988 10.5141 15.7916 10.6613 15.8162 10.8183C15.8409 10.9752 15.9881 11.0825 16.1451 11.0578C16.1502 11.057 16.1553 11.056 16.1601 11.055ZM16.1724 11.7892L18.7081 11.5245C18.7195 11.5234 18.7285 11.5137 18.7285 11.502C18.7285 11.4899 18.7192 11.4801 18.7073 11.4794L16.1817 11.2153C16.1732 11.2146 16.1652 11.2142 16.1571 11.2142C15.9982 11.2142 15.8694 11.3431 15.8694 11.502C15.8694 11.6608 15.9982 11.7896 16.1571 11.7896C16.1623 11.7896 16.1674 11.7895 16.1724 11.7892ZM16.0709 12.5165L18.6171 12.6486C18.6285 12.6493 18.6388 12.6411 18.6407 12.6295C18.6425 12.6176 18.6348 12.6064 18.6233 12.6038L16.1692 11.9509C16.1609 11.949 16.153 11.9474 16.1451 11.9461C15.9881 11.9214 15.8409 12.0287 15.8162 12.1857C15.7916 12.3426 15.8988 12.4898 16.0558 12.5145C16.0609 12.5153 16.066 12.516 16.0709 12.5165ZM15.8561 13.2193L18.3497 13.7506C18.3609 13.7531 18.3724 13.7467 18.376 13.7354C18.3797 13.724 18.3739 13.7118 18.3629 13.7075L16.0422 12.6763C16.0344 12.6731 16.0268 12.6703 16.0191 12.6677C15.868 12.6187 15.7057 12.7014 15.6567 12.8525C15.6076 13.0036 15.6904 13.1659 15.8415 13.215C15.8464 13.2166 15.8514 13.218 15.8561 13.2193ZM15.5332 13.8796L17.9121 14.7968C17.9228 14.801 17.9351 14.7965 17.9405 14.786C17.946 14.7752 17.9421 14.7623 17.9319 14.7562L15.8025 13.3727C15.7953 13.3682 15.7883 13.3642 15.781 13.3606C15.6396 13.2883 15.4663 13.3445 15.394 13.486C15.3218 13.6275 15.378 13.8007 15.5195 13.873C15.5241 13.8753 15.5288 13.8775 15.5332 13.8796ZM15.1111 14.4809L17.3172 15.759C17.3271 15.7648 17.34 15.7623 17.347 15.7527C17.354 15.7431 17.3522 15.7296 17.3431 15.722L15.4563 14.0224C15.4499 14.0168 15.4436 14.0118 15.4371 14.007C15.3086 13.9135 15.1287 13.9419 15.0352 14.0704C14.9417 14.1988 14.9701 14.3788 15.0985 14.4722C15.1027 14.4753 15.107 14.4782 15.1111 14.4809ZM14.6007 15.0089L16.581 16.6148C16.5898 16.6221 16.603 16.6216 16.6113 16.6132C16.6198 16.6048 16.6202 16.5912 16.6123 16.5823L15.0131 14.6097C15.0076 14.6032 15.0022 14.5973 14.9965 14.5916C14.8841 14.4793 14.702 14.4793 14.5897 14.5916C14.4773 14.7039 14.4773 14.886 14.5897 14.9984C14.5933 15.0021 14.5971 15.0056 14.6007 15.0089ZM14.0144 15.4512L15.7206 17.3456C15.7282 17.3543 15.7413 17.3558 15.7508 17.3489C15.7605 17.3418 15.7629 17.3285 15.7566 17.3185L14.4839 15.1209C14.4795 15.1137 14.475 15.107 14.4703 15.1005C14.3768 14.972 14.1968 14.9437 14.0684 15.0372C13.94 15.1307 13.9116 15.3106 14.0051 15.439C14.0082 15.4433 14.0113 15.4473 14.0144 15.4512ZM13.3659 15.7964L14.7547 17.9346C14.7609 17.9442 14.7735 17.9478 14.784 17.9425C14.7948 17.937 14.7992 17.9242 14.7945 17.9133L13.8813 15.5438C13.8781 15.5359 13.8747 15.5286 13.8711 15.5214C13.7988 15.3799 13.6255 15.3238 13.484 15.396C13.3425 15.4683 13.2864 15.6415 13.3586 15.783C13.361 15.7877 13.3635 15.7922 13.3659 15.7964ZM12.6709 16.0355L13.7058 18.3656C13.7103 18.376 13.7223 18.3816 13.7335 18.378C13.745 18.3743 13.7514 18.3623 13.7485 18.3509L13.2196 15.8671C13.2177 15.8588 13.2155 15.8511 13.213 15.8434C13.164 15.6923 13.0017 15.6095 12.8506 15.6586C12.6995 15.7077 12.6167 15.87 12.6658 16.0211C12.6674 16.0261 12.6692 16.0309 12.6709 16.0355ZM11.9469 16.162L12.6021 18.626C12.6049 18.6371 12.6159 18.6445 12.6275 18.6426C12.6394 18.6408 12.6476 18.63 12.6466 18.6182L12.5153 16.0822C12.5147 16.0737 12.5138 16.0657 12.5125 16.0577C12.4879 15.9007 12.3406 15.7935 12.1837 15.8182C12.0267 15.8428 11.9195 15.9901 11.9442 16.1471C11.945 16.1522 11.9459 16.1573 11.9469 16.162ZM11.2127 16.1743L11.4775 18.7101C11.4785 18.7215 11.4882 18.7305 11.5 18.7305C11.512 18.7305 11.5218 18.7211 11.5226 18.7093L11.7866 16.1836C11.7873 16.1751 11.7877 16.1671 11.7877 16.159C11.7877 16.0002 11.6589 15.8714 11.5 15.8714C11.3411 15.8714 11.2123 16.0002 11.2123 16.159C11.2123 16.1642 11.2125 16.1694 11.2127 16.1743ZM10.4855 16.0728L10.3534 18.619C10.3527 18.6304 10.3609 18.6408 10.3725 18.6426C10.3844 18.6445 10.3955 18.6368 10.3981 18.6252L11.051 16.1712C11.053 16.1629 11.0546 16.155 11.0558 16.1471C11.0805 15.9901 10.9733 15.8428 10.8163 15.8182C10.6594 15.7935 10.5122 15.9007 10.4875 16.0577C10.4867 16.0629 10.486 16.068 10.4855 16.0728ZM9.78263 15.858L9.25133 18.3517C9.24883 18.3628 9.25524 18.3743 9.26647 18.378C9.2779 18.3817 9.29012 18.3758 9.2945 18.3648L10.3256 16.0442C10.3289 16.0363 10.3317 16.0288 10.3342 16.0211C10.3832 15.87 10.3005 15.7077 10.1494 15.6586C9.99833 15.6095 9.83602 15.6923 9.78699 15.8434C9.78535 15.8484 9.78392 15.8533 9.78263 15.858ZM9.12239 15.5352L8.20517 17.9141C8.20094 17.9247 8.20548 17.9371 8.21598 17.9425C8.22669 17.9479 8.23969 17.9441 8.24572 17.9339L9.62927 15.8045C9.63379 15.7972 9.63773 15.7902 9.64137 15.783C9.71363 15.6415 9.65749 15.4683 9.51598 15.396C9.37448 15.3238 9.20118 15.3799 9.12898 15.5214C9.1266 15.526 9.12439 15.5307 9.12239 15.5352ZM8.52108 15.1131L7.24299 17.3191C7.23714 17.329 7.23968 17.3419 7.24922 17.3489C7.25892 17.3559 7.27235 17.3542 7.27993 17.3451L8.97962 15.4583C8.98518 15.4519 8.99016 15.4456 8.9949 15.439C9.08842 15.3106 9.06006 15.1307 8.93159 15.0372C8.80315 14.9437 8.62325 14.972 8.52972 15.1005C8.52667 15.1047 8.52376 15.1089 8.52108 15.1131ZM7.99302 14.6027L6.38713 16.5829C6.37983 16.5917 6.38034 16.6049 6.3887 16.6132C6.39717 16.6218 6.41074 16.6221 6.41961 16.6143L8.39224 15.0151C8.39873 15.0096 8.40464 15.0041 8.41035 14.9984C8.52269 14.886 8.52269 14.7039 8.41035 14.5916C8.298 14.4793 8.11585 14.4793 8.00355 14.5916C7.99986 14.5953 7.99631 14.599 7.99302 14.6027ZM7.5508 14.0163L5.65626 15.7225C5.64769 15.7301 5.64613 15.7432 5.65307 15.7527C5.66019 15.7624 5.67348 15.7649 5.68348 15.7586L7.881 14.4858C7.88825 14.4814 7.89491 14.477 7.90148 14.4722C8.02991 14.3788 8.05827 14.1988 7.96477 14.0704C7.87128 13.9419 7.69137 13.9135 7.56291 14.007C7.55872 14.0101 7.55462 14.0132 7.5508 14.0163ZM7.20551 13.3679L5.06741 14.7567C5.05775 14.7628 5.05414 14.7755 5.0595 14.786C5.06499 14.7967 5.07779 14.8012 5.08866 14.7965L7.45816 13.8832C7.46605 13.88 7.47335 13.8766 7.48053 13.873C7.62205 13.8007 7.6782 13.6275 7.60594 13.486C7.5337 13.3445 7.36042 13.2883 7.21896 13.3606C7.21432 13.3629 7.20978 13.3654 7.20551 13.3679ZM6.96646 12.6728L4.63637 13.7078C4.62591 13.7123 4.62032 13.7243 4.62397 13.7354C4.6277 13.7469 4.63961 13.7533 4.65109 13.7505L7.13486 13.2216C7.14308 13.2196 7.15085 13.2175 7.15855 13.215C7.30965 13.1659 7.39238 13.0036 7.3433 12.8525C7.29427 12.7014 7.13196 12.6187 6.98086 12.6677C6.97592 12.6694 6.97108 12.6711 6.96646 12.6728ZM6.83988 11.9489L4.37593 12.6041C4.36486 12.6069 4.35748 12.6178 4.35934 12.6295C4.36119 12.6414 4.37196 12.6496 4.38376 12.6485L6.91979 12.5173C6.92827 12.5166 6.93624 12.5157 6.94424 12.5145C7.10117 12.4898 7.20843 12.3426 7.18375 12.1857C7.15909 12.0287 7.01189 11.9214 6.85492 11.9461C6.84978 11.9469 6.84472 11.9479 6.83988 11.9489ZM6.82764 11.2147L4.29187 11.4794C4.28046 11.4805 4.27148 11.4902 4.27148 11.502C4.27148 11.5139 4.28085 11.5238 4.29266 11.5245L6.81833 11.7886C6.82679 11.7892 6.83484 11.7896 6.84293 11.7896C7.00176 11.7896 7.13059 11.6608 7.13059 11.502C7.13059 11.3431 7.00176 11.2142 6.84293 11.2142C6.83773 11.2142 6.83256 11.2144 6.82764 11.2147ZM6.92908 10.4874L4.38294 10.3553C4.37154 10.3546 4.36117 10.3628 4.35934 10.3744C4.35746 10.3863 4.36518 10.3974 4.37673 10.4L6.83079 11.053C6.83906 11.0549 6.84696 11.0565 6.85492 11.0578C7.01189 11.0825 7.15909 10.9752 7.18375 10.8183C7.20843 10.6613 7.10117 10.5141 6.94424 10.4894C6.9391 10.4886 6.934 10.4879 6.92908 10.4874ZM7.14392 9.78455L4.65028 9.25326C4.63912 9.2507 4.6276 9.25715 4.62397 9.26841C4.62026 9.27986 4.62615 9.29206 4.63712 9.29641L6.95779 10.3275C6.96565 10.3308 6.97318 10.3336 6.98086 10.3361C7.13196 10.3852 7.29427 10.3025 7.3433 10.1514C7.39238 10.0003 7.30965 9.83796 7.15855 9.7889C7.15359 9.78732 7.14865 9.78586 7.14392 9.78455ZM7.46678 9.12431L5.08789 8.20704C5.07729 8.20283 5.06489 8.20741 5.0595 8.21788C5.05404 8.2286 5.05793 8.24156 5.06809 8.24763L7.19753 9.63122C7.20474 9.63573 7.21174 9.63965 7.21896 9.64329C7.36042 9.71553 7.5337 9.65941 7.60594 9.51792C7.6782 9.37642 7.62205 9.2031 7.48053 9.13088C7.47591 9.1285 7.47125 9.12634 7.46678 9.12431ZM7.88888 8.52304L5.68279 7.24486C5.67295 7.23904 5.66 7.24162 5.65307 7.25117C5.64599 7.26083 5.64778 7.27428 5.6569 7.28185L7.54365 8.98156C7.55011 8.98708 7.55638 8.99206 7.56291 8.99686C7.69137 9.09037 7.87128 9.06198 7.96477 8.93355C8.05827 8.80507 8.02991 8.62516 7.90148 8.53166C7.89724 8.5286 7.89301 8.52572 7.88888 8.52304ZM8.3993 7.99494L6.41901 6.38909C6.4102 6.38178 6.39701 6.38229 6.3887 6.39064C6.38017 6.39912 6.37985 6.41265 6.38768 6.42156L7.98687 8.39418C7.99237 8.40067 7.9978 8.40658 8.00355 8.41226C8.11585 8.52465 8.298 8.52465 8.41035 8.41226C8.52269 8.29998 8.52269 8.11778 8.41035 8.00546C8.40669 8.00177 8.40292 7.99824 8.3993 7.99494ZM8.98563 7.55271L7.27939 5.65817C7.27184 5.64962 7.25874 5.64805 7.24922 5.655C7.23948 5.66208 7.23708 5.6754 7.2434 5.68543L8.51614 7.88292C8.52049 7.89017 8.52499 7.89682 8.52972 7.9034C8.62325 8.03183 8.80315 8.06021 8.93159 7.96673C9.06006 7.87324 9.08842 7.69328 8.9949 7.56485C8.99186 7.56062 8.98871 7.55654 8.98563 7.55271ZM9.63411 7.20744L8.24529 5.06932C8.23916 5.05966 8.22647 5.05607 8.21596 5.06139C8.20526 5.06692 8.20077 5.07972 8.20545 5.09059L9.11872 7.4601C9.12193 7.46795 9.12529 7.47529 9.12898 7.48247C9.20118 7.62398 9.37448 7.68015 9.51598 7.60785C9.65749 7.53561 9.71363 7.36238 9.64137 7.22089C9.63903 7.21623 9.63655 7.21172 9.63411 7.20744ZM10.3291 6.96841L9.29419 4.6383C9.28962 4.6278 9.27766 4.62223 9.26647 4.62588C9.25504 4.62961 9.24861 4.64155 9.25151 4.653L9.78035 7.13678C9.78233 7.14504 9.78447 7.1528 9.78699 7.16046C9.83602 7.31158 9.99833 7.39431 10.1494 7.34524C10.3005 7.29616 10.3832 7.13387 10.3342 6.98279C10.3325 6.97783 10.3309 6.97297 10.3291 6.96841ZM11.0531 6.8418L10.3979 4.37784C10.3951 4.36679 10.3841 4.35941 10.3725 4.36129C10.3606 4.36312 10.3524 4.37387 10.3534 4.3857L10.4847 6.9217C10.4853 6.93019 10.4862 6.93817 10.4875 6.94614C10.5122 7.1031 10.6594 7.21032 10.8163 7.18569C10.9733 7.16101 11.0805 7.0138 11.0558 6.85683C11.055 6.85171 11.0541 6.84663 11.0531 6.8418ZM11.7873 6.82958L11.5225 4.29376C11.5215 4.28239 11.5118 4.27344 11.5 4.27344C11.488 4.27344 11.4782 4.28273 11.4774 4.29459L11.2134 6.82028C11.2127 6.82875 11.2123 6.83677 11.2123 6.84484C11.2123 7.00372 11.3411 7.13252 11.5 7.13252C11.6589 7.13252 11.7877 7.00372 11.7877 6.84484C11.7877 6.83964 11.7875 6.8345 11.7873 6.82958ZM11.5 7.13456C13.912 7.13456 15.8674 9.08991 15.8674 11.502C15.8674 13.9139 13.912 15.8694 11.5 15.8694C9.08799 15.8694 7.13264 13.9139 7.13264 11.502C7.13264 9.08991 9.08799 7.13456 11.5 7.13456ZM11.5 7.6581C13.6229 7.6581 15.3438 9.37906 15.3438 11.502C15.3438 13.6248 13.6229 15.3458 11.5 15.3458C9.3771 15.3458 7.65618 13.6248 7.65618 11.502C7.65618 9.37906 9.3771 7.6581 11.5 7.6581ZM8.29046 12.6556C8.68345 11.8336 9.22661 11.1073 9.85463 10.4964C9.95281 10.5608 10.05 10.6277 10.1462 10.6969C9.4867 11.3274 8.91191 12.1075 8.47829 13.0634C8.40712 12.9324 8.34443 12.7962 8.29046 12.6556ZM11.7711 10.6716C11.8603 10.7463 11.9482 10.8236 12.0346 10.9032C12.1269 10.8275 12.2204 10.7544 12.315 10.6839C12.2288 10.6057 12.141 10.5298 12.0521 10.456C11.9573 10.5255 11.8636 10.5974 11.7711 10.6716ZM11.2126 10.2454C11.3095 10.3127 11.4054 10.3824 11.5 10.4546C11.5946 10.3824 11.6905 10.3127 11.7874 10.2454C11.6927 10.1731 11.5968 10.1032 11.5 10.0357C11.4032 10.1032 11.3073 10.1731 11.2126 10.2454ZM11.2384 11.1382C11.3271 11.2182 11.4143 11.3008 11.5 11.386C11.5857 11.3008 11.673 11.2182 11.7616 11.1382C11.6759 11.0563 11.5886 10.9764 11.5 10.8989C11.4114 10.9764 11.3242 11.0563 11.2384 11.1382ZM10.685 10.6839C10.7797 10.7544 10.8732 10.8275 10.9654 10.9032C11.0519 10.8236 11.1398 10.7463 11.2289 10.6716C11.1364 10.5974 11.0427 10.5255 10.9479 10.456C10.859 10.5298 10.7713 10.6057 10.685 10.6839ZM12.4045 9.85726C12.3093 9.78462 12.2129 9.7143 12.1156 9.64648C12.0048 9.70973 11.8948 9.77607 11.7858 9.8454C11.8853 9.91135 11.9838 9.97986 12.0811 10.0509C12.1879 9.98358 12.2957 9.91904 12.4045 9.85726ZM12.9132 10.2791C12.8278 10.2023 12.741 10.1273 12.653 10.0546C12.5491 10.1175 12.4459 10.1832 12.3438 10.2515C12.4339 10.3233 12.5226 10.3975 12.6102 10.4741C12.7101 10.4065 12.8113 10.3416 12.9132 10.2791ZM11.1537 9.46671C11.2681 9.39356 11.3836 9.32361 11.5 9.25714C11.6164 9.32361 11.7319 9.39356 11.8464 9.46671C11.7299 9.52959 11.6144 9.59555 11.5 9.66461C11.3856 9.59555 11.2701 9.52959 11.1537 9.46671ZM10.5956 9.85726C10.6908 9.78462 10.7871 9.7143 10.8844 9.64648C10.9952 9.70973 11.1052 9.77607 11.2142 9.8454C11.1147 9.91135 11.0162 9.97986 10.9189 10.0509C10.8122 9.98358 10.7043 9.91904 10.5956 9.85726ZM10.0867 10.2791C10.1722 10.2023 10.259 10.1273 10.347 10.0546C10.4509 10.1175 10.5541 10.1832 10.6562 10.2515C10.5662 10.3233 10.4774 10.3975 10.3899 10.4741C10.2898 10.4065 10.1888 10.3416 10.0867 10.2791ZM8.48317 9.77683C8.8387 9.9193 9.19322 10.0942 9.53935 10.2994C9.00651 10.8072 8.5287 11.4126 8.13551 12.129C8.08808 11.9016 8.06312 11.6659 8.06312 11.4245C8.06312 10.8274 8.21537 10.266 8.48317 9.77683ZM8.77529 9.32974C9.19435 9.46517 9.61611 9.64714 10.0288 9.87178C9.93992 9.94295 9.85225 10.0165 9.76584 10.0924C9.38904 9.88424 9.00189 9.70834 8.61144 9.56158C8.66292 9.48191 8.71761 9.40461 8.77529 9.32974ZM9.14174 8.92446C9.61548 9.0487 10.0971 9.23432 10.569 9.47589C10.4695 9.5425 10.371 9.61156 10.2737 9.68328C9.83705 9.45969 9.38864 9.27775 8.93913 9.13252C9.00373 9.06039 9.0713 8.99095 9.14174 8.92446ZM9.67623 8.51104C9.68631 8.51475 9.69692 8.51848 9.70813 8.52227C9.72073 8.52546 9.73329 8.52874 9.7459 8.53193C10.2283 8.65752 10.719 8.84682 11.1996 9.09411C11.0775 9.16072 10.9565 9.23072 10.8369 9.30414C10.3719 9.07771 9.89524 8.89707 9.41934 8.75676C9.41525 8.75562 9.38872 8.74642 9.35883 8.73603C9.46015 8.65532 9.56608 8.58012 9.67623 8.51104ZM13.0308 8.34667C13.0123 8.35258 12.9988 8.35701 12.9948 8.35861C12.4928 8.50489 11.9896 8.69575 11.5 8.93803C11.0197 8.70037 10.5263 8.51213 10.0338 8.36694C10.0243 8.36416 10.0147 8.3614 10.0052 8.35861C9.99178 8.35514 9.97952 8.35129 9.96815 8.3472C10.4294 8.11712 10.9495 7.98748 11.5 7.98748C12.0501 7.98748 12.5699 8.11684 13.0308 8.34667ZM13.6444 8.73867C13.6316 8.74251 13.6198 8.74587 13.6098 8.74828C13.1242 8.88967 12.6376 9.07305 12.1632 9.30414C12.0435 9.23072 11.9225 9.16072 11.8005 9.09411C12.2935 8.84036 12.7973 8.64764 13.2919 8.52227C13.304 8.52031 13.3162 8.51741 13.3283 8.51382C13.438 8.58294 13.5436 8.65796 13.6444 8.73867ZM14.0609 9.13252C13.6114 9.27775 13.163 9.45969 12.7263 9.68328C12.6291 9.61156 12.5305 9.5425 12.431 9.47589C12.903 9.23432 13.3845 9.0487 13.8583 8.92446C13.9287 8.99095 13.9963 9.06039 14.0609 9.13252ZM14.3886 9.56158C13.9981 9.70834 13.611 9.88422 13.2342 10.0924C13.1478 10.0165 13.0601 9.94295 12.9713 9.87178C13.3839 9.64714 13.8057 9.46517 14.2247 9.32974C14.2824 9.40461 14.3372 9.48191 14.3886 9.56158ZM14.8645 12.129C14.4714 11.4126 13.9935 10.8072 13.4607 10.2994C13.8068 10.0942 14.1613 9.9193 14.5168 9.77683C14.7845 10.2661 14.9369 10.8274 14.9369 11.4245C14.9369 11.6659 14.9119 11.9017 14.8645 12.129ZM14.5217 13.0634C14.0881 12.1075 13.5133 11.3274 12.8538 10.6969C12.95 10.6277 13.0472 10.5608 13.1453 10.4964C13.7734 11.1073 14.3166 11.8336 14.7096 12.6556C14.6556 12.7961 14.5929 12.9324 14.5217 13.0634ZM13.9863 13.7973C13.5677 12.7181 12.9777 11.8447 12.2857 11.1453C12.3765 11.0669 12.4687 10.9908 12.5622 10.917C13.2784 11.6213 13.8816 12.4768 14.274 13.4536C14.1855 13.5743 14.0895 13.6892 13.9863 13.7973ZM13.3376 14.3292L13.2919 14.2065C12.9123 13.1813 12.38 12.3377 11.7523 11.6494C11.8378 11.5609 11.9253 11.4745 12.0142 11.3905C12.733 12.1407 13.3237 13.0489 13.679 14.0824C13.5705 14.1714 13.4565 14.2538 13.3376 14.3292ZM10.0122 14.5235L10.0562 14.3862C10.3728 13.4561 10.88 12.6272 11.5 11.9229C12.12 12.6272 12.6272 13.4561 12.9438 14.3862L12.9889 14.523C12.5384 14.7399 12.0334 14.8614 11.5 14.8614C10.9671 14.8614 10.4624 14.7401 10.0122 14.5235ZM9.32109 14.0824C9.6764 13.0489 10.267 12.1407 10.9858 11.3905C11.0748 11.4745 11.1622 11.5609 11.2477 11.6494C10.62 12.3377 10.0877 13.1813 9.70813 14.2065L9.66259 14.3293C9.54361 14.2539 9.42957 14.1714 9.32109 14.0824ZM8.72603 13.4536C9.1184 12.4768 9.72162 11.6213 10.4379 10.917C10.5313 10.9908 10.6235 11.0669 10.7143 11.1453C10.0223 11.8447 9.43235 12.7181 9.01365 13.7973C8.91052 13.6892 8.81453 13.5743 8.72603 13.4536Z" fill="#FFED00"/>
</g>
<defs>
<clipPath id="clip0_1232_6267">
<rect width="23" height="23" rx="11.5" fill="white"/>
</clipPath>
</defs>
</svg>
