<svg width="23" height="23" viewBox="0 0 23 23" fill="none" xmlns="http://www.w3.org/2000/svg">
<g clip-path="url(#clip0_1232_6268)">
<path d="M-11.5 0H34.5V23H-11.5V0Z" fill="#00ABC2"/>
<path d="M11.4858 12.7557C13.1949 12.7557 14.5804 11.3702 14.5804 9.66106C14.5804 7.95193 13.1949 6.56641 11.4858 6.56641C9.77664 6.56641 8.39111 7.95193 8.39111 9.66106C8.39111 11.3702 9.77664 12.7557 11.4858 12.7557Z" fill="#FFEC2D"/>
<path d="M11.4859 6.14372C11.6699 6.14143 11.7389 6.02642 11.7389 5.88842C11.7389 5.70442 11.4859 4.82812 11.4859 4.82812C11.4859 4.82812 11.2329 5.70442 11.2329 5.88842C11.2329 6.02642 11.3019 6.14372 11.4859 6.14372Z" fill="#FFEC2D"/>
<path d="M15.0028 9.65925C15.0051 9.84325 15.1201 9.91225 15.2581 9.91225C15.4421 9.91225 16.3184 9.65925 16.3184 9.65925C16.3184 9.65925 15.4421 9.40625 15.2581 9.40625C15.1201 9.40625 15.0028 9.47525 15.0028 9.65925Z" fill="#FFEC2D"/>
<path d="M11.4863 13.1766C11.3023 13.1789 11.2333 13.2939 11.2333 13.4319C11.2333 13.6159 11.4863 14.4922 11.4863 14.4922C11.4863 14.4922 11.7393 13.6159 11.7393 13.4319C11.7393 13.2939 11.6703 13.1766 11.4863 13.1766Z" fill="#FFEC2D"/>
<path d="M7.96941 9.66106C7.96711 9.47706 7.85211 9.40806 7.71411 9.40806C7.53011 9.40806 6.65381 9.66106 6.65381 9.66106C6.65381 9.66106 7.53011 9.91406 7.71411 9.91406C7.85211 9.91406 7.96941 9.84506 7.96941 9.66106Z" fill="#FFEC2D"/>
<path d="M12.8318 6.41384C13.0027 6.48213 13.1105 6.40229 13.1633 6.27479C13.2337 6.1048 13.3353 5.19838 13.3353 5.19838C13.3353 5.19838 12.7662 5.91116 12.6958 6.08115C12.643 6.20865 12.6619 6.34342 12.8318 6.41384Z" fill="#FFEC2D"/>
<path d="M14.7351 11.0076C14.6668 11.1785 14.7466 11.2863 14.8741 11.3391C15.0441 11.4095 15.9505 11.5111 15.9505 11.5111C15.9505 11.5111 15.2378 10.942 15.0678 10.8716C14.9403 10.8188 14.8055 10.8376 14.7351 11.0076Z" fill="#FFEC2D"/>
<path d="M10.1398 12.9104C9.96896 12.8421 9.8612 12.9219 9.80839 13.0494C9.73798 13.2194 9.63638 14.1258 9.63638 14.1258C9.63638 14.1258 10.2055 13.4131 10.2759 13.2431C10.3287 13.1156 10.3098 12.9808 10.1398 12.9104Z" fill="#FFEC2D"/>
<path d="M8.23708 8.31659C8.30537 8.14572 8.22553 8.03796 8.09803 7.98515C7.92804 7.91474 7.02162 7.81313 7.02162 7.81313C7.02162 7.81313 7.7344 8.38222 7.90439 8.45263C8.03189 8.50544 8.16667 8.48659 8.23708 8.31659Z" fill="#FFEC2D"/>
<path d="M13.9727 7.17557C14.1045 7.30406 14.2346 7.27153 14.3322 7.17395C14.4623 7.04384 14.903 6.2453 14.903 6.2453C14.903 6.2453 14.1045 6.68604 13.9744 6.81615C13.8768 6.91373 13.8426 7.04547 13.9727 7.17557Z" fill="#FFEC2D"/>
<path d="M13.9729 12.1471C13.8444 12.2788 13.8769 12.4089 13.9745 12.5065C14.1046 12.6366 14.9031 13.0773 14.9031 13.0773C14.9031 13.0773 14.4624 12.2788 14.3323 12.1487C14.2347 12.0511 14.103 12.017 13.9729 12.1471Z" fill="#FFEC2D"/>
<path d="M8.99942 12.1486C8.86768 12.0202 8.73758 12.0527 8.64 12.1503C8.50989 12.2804 8.06915 13.0789 8.06915 13.0789C8.06915 13.0789 8.86768 12.6382 8.99779 12.5081C9.09537 12.4105 9.12953 12.2788 8.99942 12.1486Z" fill="#FFEC2D"/>
<path d="M8.99979 7.17715C9.12827 7.04542 9.09575 6.91531 8.99817 6.81773C8.86806 6.68762 8.06952 6.24688 8.06952 6.24688C8.06952 6.24688 8.51026 7.04542 8.64037 7.17553C8.73795 7.27311 8.86968 7.30726 8.99979 7.17715Z" fill="#FFEC2D"/>
<path d="M14.7349 8.31532C14.8074 8.48444 14.9401 8.50418 15.0676 8.45137C15.2376 8.38095 15.9503 7.81187 15.9503 7.81187C15.9503 7.81187 15.0439 7.91347 14.8739 7.98388C14.7464 8.03669 14.6645 8.14533 14.7349 8.31532Z" fill="#FFEC2D"/>
<path d="M12.8316 12.9087C12.6625 12.9812 12.6428 13.1139 12.6956 13.2414C12.766 13.4114 13.3351 14.1242 13.3351 14.1242C13.3351 14.1242 13.2335 13.2177 13.1631 13.0478C13.1103 12.9203 13.0016 12.8383 12.8316 12.9087Z" fill="#FFEC2D"/>
<path d="M8.2368 11.0089C8.16426 10.8398 8.03161 10.82 7.90412 10.8729C7.73412 10.9433 7.02135 11.5124 7.02135 11.5124C7.02135 11.5124 7.92776 11.4107 8.09775 11.3403C8.22525 11.2875 8.30722 11.1789 8.2368 11.0089Z" fill="#FFEC2D"/>
<path d="M10.14 6.41161C10.3091 6.33907 10.3289 6.20642 10.2761 6.07892C10.2057 5.90893 9.63657 5.19615 9.63657 5.19615C9.63657 5.19615 9.73818 6.10256 9.80859 6.27256C9.8614 6.40005 9.97004 6.48202 10.14 6.41161Z" fill="#FFEC2D"/>
<path d="M12.1717 6.21468C12.3526 6.24832 12.4427 6.14899 12.4696 6.01364C12.5055 5.83318 12.4283 4.92436 12.4283 4.92436C12.4283 4.92436 12.0092 5.73446 11.9733 5.91493C11.9464 6.05028 11.9912 6.17878 12.1717 6.21468Z" fill="#FFEC2D"/>
<path d="M14.9347 10.3469C14.9011 10.5279 15.0004 10.618 15.1358 10.6449C15.3162 10.6808 16.2251 10.6036 16.2251 10.6036C16.2251 10.6036 15.415 10.1845 15.2345 10.1486C15.0991 10.1217 14.9706 10.1665 14.9347 10.3469Z" fill="#FFEC2D"/>
<path d="M10.7995 13.1134C10.6186 13.0798 10.5285 13.1791 10.5016 13.3145C10.4657 13.4949 10.5429 14.4038 10.5429 14.4038C10.5429 14.4038 10.962 13.5937 10.9979 13.4132C11.0248 13.2779 10.98 13.1493 10.7995 13.1134Z" fill="#FFEC2D"/>
<path d="M8.03646 8.97727C8.0701 8.79636 7.97077 8.70625 7.83542 8.67933C7.65496 8.64343 6.74614 8.72061 6.74614 8.72061C6.74614 8.72061 7.55624 9.13971 7.7367 9.1756C7.87205 9.20253 8.00056 9.15774 8.03646 8.97727Z" fill="#FFEC2D"/>
<path d="M13.4394 6.73444C13.5937 6.83475 13.7149 6.77747 13.7916 6.66273C13.8938 6.50974 14.1703 5.64056 14.1703 5.64056C14.1703 5.64056 13.4731 6.22862 13.3709 6.38161C13.2942 6.49635 13.2864 6.63222 13.4394 6.73444Z" fill="#FFEC2D"/>
<path d="M14.4096 11.6123C14.3093 11.7665 14.3666 11.8878 14.4813 11.9645C14.6343 12.0667 15.5035 12.3432 15.5035 12.3432C15.5035 12.3432 14.9154 11.646 14.7624 11.5437C14.6477 11.4671 14.5118 11.4593 14.4096 11.6123Z" fill="#FFEC2D"/>
<path d="M9.53178 12.582C9.37751 12.4817 9.25625 12.5389 9.17958 12.6537C9.07735 12.8067 8.80087 13.6758 8.80087 13.6758C8.80087 13.6758 9.49808 13.0878 9.6003 12.9348C9.67697 12.8201 9.68477 12.6842 9.53178 12.582Z" fill="#FFEC2D"/>
<path d="M8.56159 7.70414C8.6619 7.54987 8.60462 7.42861 8.48987 7.35194C8.33688 7.24972 7.46771 6.97323 7.46771 6.97323C7.46771 6.97323 8.05576 7.67044 8.20876 7.77266C8.3235 7.84933 8.45936 7.85713 8.56159 7.70414Z" fill="#FFEC2D"/>
<path d="M14.4095 7.7069C14.5136 7.85861 14.6476 7.85209 14.7623 7.77542C14.9153 7.67319 15.5034 6.97599 15.5034 6.97599C15.5034 6.97599 14.6342 7.25247 14.4812 7.3547C14.3664 7.43136 14.3072 7.5539 14.4095 7.7069Z" fill="#FFEC2D"/>
<path d="M13.4396 12.5818C13.2879 12.686 13.2944 12.8199 13.3711 12.9347C13.4733 13.0877 14.1705 13.6757 14.1705 13.6757C14.1705 13.6757 13.894 12.8065 13.7918 12.6535C13.7151 12.5388 13.5926 12.4796 13.4396 12.5818Z" fill="#FFEC2D"/>
<path d="M8.56172 11.6134C8.45758 11.4617 8.32363 11.4682 8.20889 11.5449C8.0559 11.6471 7.46784 12.3443 7.46784 12.3443C7.46784 12.3443 8.33702 12.0678 8.49001 11.9656C8.60475 11.8889 8.66395 11.7664 8.56172 11.6134Z" fill="#FFEC2D"/>
<path d="M9.5316 6.73457C9.68331 6.63044 9.67679 6.49648 9.60013 6.38174C9.4979 6.22875 8.80069 5.64069 8.80069 5.64069C8.80069 5.64069 9.07718 6.50987 9.1794 6.66286C9.25607 6.7776 9.37861 6.8368 9.5316 6.73457Z" fill="#FFEC2D"/>
<path d="M14.9348 8.97746C14.973 9.15747 15.0992 9.20271 15.2346 9.17579C15.415 9.13989 16.2251 8.72079 16.2251 8.72079C16.2251 8.72079 15.3163 8.64361 15.1359 8.67951C15.0005 8.70643 14.8989 8.79699 14.9348 8.97746Z" fill="#FFEC2D"/>
<path d="M12.1715 13.1106C11.9915 13.1488 11.9462 13.275 11.9731 13.4104C12.009 13.5908 12.4281 14.4009 12.4281 14.4009C12.4281 14.4009 12.5053 13.4921 12.4694 13.3116C12.4425 13.1763 12.3519 13.0747 12.1715 13.1106Z" fill="#FFEC2D"/>
<path d="M8.03637 10.3468C7.99822 10.1667 7.87197 10.1215 7.73662 10.1484C7.55616 10.1843 6.74605 10.6034 6.74605 10.6034C6.74605 10.6034 7.65487 10.6806 7.83534 10.6447C7.97069 10.6178 8.07227 10.5272 8.03637 10.3468Z" fill="#FFEC2D"/>
<path d="M10.7997 6.21362C10.9797 6.17547 11.025 6.04922 10.9981 5.91387C10.9622 5.7334 10.5431 4.9233 10.5431 4.9233C10.5431 4.9233 10.4659 5.83212 10.5018 6.01258C10.5287 6.14793 10.6193 6.24952 10.7997 6.21362Z" fill="#FFEC2D"/>
<path d="M14.5154 17.1597C14.3488 17.2598 14.2216 17.0824 14.0823 17.0292C13.9828 17.0833 13.9735 17.264 13.8806 17.3496C13.7694 17.4762 13.6331 17.3143 13.6432 17.1894C13.5103 17.3015 13.443 17.5556 13.2279 17.5217C13.126 17.4385 13.0504 17.2641 12.9725 17.4627C12.909 17.5598 12.74 17.698 12.6524 17.5513C12.6253 17.4219 12.5604 17.2696 12.49 17.4753C12.4416 17.6207 12.2864 17.7278 12.1363 17.6641C12.0541 17.5969 12.2022 17.3483 12.0975 17.366C11.9411 17.4694 11.8502 17.7262 11.632 17.7056C11.5472 17.6105 11.6834 17.4493 11.5904 17.3437C11.4807 17.4845 11.359 17.6907 11.1692 17.7056C11.0775 17.6313 11.1728 17.4181 11.1142 17.3865C10.9195 17.5033 10.714 17.7115 10.4691 17.6463C10.5645 17.2812 10.9633 17.1531 11.2987 17.1247C11.8758 17.0537 12.4829 17.1841 13.0381 16.9758C13.1278 16.9213 13.3451 16.8438 13.2677 16.7173C13.1992 16.6173 13.4461 16.6564 13.4698 16.5396C13.4551 16.3917 13.5831 16.4121 13.7082 16.3991C14.2688 16.3749 14.8226 16.493 15.3816 16.5131C15.4238 16.7854 15.1217 16.9767 14.8785 16.8926C14.7623 16.9114 14.588 16.6254 14.6222 16.8334C14.5988 16.9427 14.6152 17.0869 14.5154 17.1598M9.74521 16.6021C9.87499 16.7209 9.96601 16.5797 10.0873 16.5281C10.4942 16.3882 10.8493 16.1436 11.1993 15.8992C11.4113 15.7237 11.5952 15.4961 11.88 15.4392C12.4356 15.2712 13.0262 15.2916 13.5839 15.1366C14.0086 14.5552 14.7299 14.3477 15.3341 14.0135C15.4698 13.9713 15.5222 13.8597 15.5655 13.7364C15.7962 13.3723 16.1104 13.0497 16.482 12.8293C16.6578 12.7332 16.8675 12.6779 17.0666 12.7219C17.0523 12.9589 16.9163 13.169 16.7521 13.333C16.8865 13.33 17.002 13.2451 17.1378 13.2499C17.1843 13.4932 16.9216 13.6205 16.7818 13.772C16.8596 13.7901 17.1579 13.8127 16.9953 13.8907C16.7882 14.0344 16.5517 14.1331 16.3605 14.3C16.5369 14.3317 16.557 14.3692 16.3776 14.433C16.2805 14.4989 16.0938 14.5219 16.0757 14.6501C16.209 14.732 16.0143 14.8133 15.9393 14.8399C15.7957 14.8734 15.6449 14.9357 15.8356 15.0448C15.7635 15.1538 15.6087 15.177 15.4824 15.1662C15.5207 15.2898 15.5762 15.428 15.4159 15.4825C15.0566 15.7541 14.6348 15.9517 14.1831 15.9969C14.7474 16.0403 15.3286 15.9355 15.8109 15.6286C15.8745 15.5534 16.2083 15.4725 16.0216 15.4092C15.9337 15.3726 15.7453 15.332 15.7325 15.2649C15.9937 15.1038 16.3228 15.1611 16.6038 15.0654C16.611 14.9744 16.39 14.9997 16.3077 14.979C16.1112 14.9629 16.1227 14.9128 16.3121 14.8942C16.5518 14.8307 16.8233 14.8182 17.025 14.6619C16.8608 14.5859 16.6543 14.6528 16.4791 14.5907C16.7761 14.4608 17.1264 14.4477 17.3928 14.2525C17.5142 14.1175 17.2374 14.1597 17.1567 14.163C16.9923 14.1916 16.9162 14.1129 17.1031 14.0446C17.4221 13.8094 17.826 13.6566 18.0501 13.3156C18.1032 13.2392 18.1751 13.0092 18.0058 13.0919C17.7831 13.166 17.5872 13.4163 17.3335 13.3388C17.8334 12.9514 18.309 12.5104 18.6507 11.9743C18.6683 11.8196 18.4256 11.8029 18.3624 11.9243C18.0413 12.2337 17.7506 12.599 17.3395 12.793C17.7332 12.4129 18.0588 11.9629 18.3429 11.4965C18.4038 11.3577 18.5674 11.1909 18.4786 11.0368C18.3354 10.9183 18.1563 11.0268 18.0819 11.1686C17.8323 11.4945 17.6427 11.8749 17.3217 12.1404C17.6027 11.604 17.8937 11.033 17.9008 10.4143C17.8999 10.287 17.8743 10.0994 17.7014 10.1232C17.5643 10.1477 17.5968 10.353 17.5403 10.4568C17.4158 10.8794 17.3574 11.3372 17.1021 11.7073C17.1596 11.3638 17.2601 11.0058 17.1829 10.6589C17.1469 10.5039 16.8966 10.5706 16.9288 10.724C16.6298 12.2388 15.6134 13.5636 14.284 14.33C13.6754 14.6743 12.9955 14.8964 12.3038 14.997C12.1178 15.0377 11.9165 15.0138 11.7387 15.0773C11.3078 15.4077 11.0468 15.9606 10.5012 16.1338C10.2567 16.2553 9.93783 16.28 9.76298 16.5071C9.74785 16.5362 9.74461 16.5699 9.74521 16.6021Z" fill="#FFEC2D"/>
<path d="M11.378 15.063C11.2975 15.2091 11.2501 15.3771 11.1466 15.5079C10.8352 15.2245 10.3837 15.2339 9.98865 15.215C9.66258 15.1976 9.30799 15.1676 9.05571 14.935C8.79031 14.7176 8.57367 14.4353 8.27711 14.259C8.00642 14.1854 7.73355 14.0933 7.51592 13.9077C7.05086 13.5286 6.78452 12.9662 6.33009 12.5753C6.24345 12.49 6.14128 12.4239 6.04422 12.3515C5.95199 12.374 5.99374 12.5731 5.88088 12.4716C5.81947 12.4279 5.66587 12.4237 5.65203 12.4847C5.79097 12.6678 5.93005 12.8768 5.9493 13.111C5.85454 13.1207 5.68607 13.091 5.6391 13.1263C5.76493 13.3149 5.92623 13.4821 6.1095 13.6153C6.02159 13.6294 5.84838 13.6217 5.81468 13.6572C5.99659 13.8054 6.19165 13.9569 6.42986 13.995C6.47862 14.0593 6.35856 14.1834 6.45953 14.2383C6.51807 14.2622 6.71125 14.3022 6.57819 14.3688C6.48688 14.4303 6.52076 14.5737 6.63753 14.5705C6.71136 14.6082 6.87712 14.6175 6.89009 14.6828C6.82466 14.7493 6.62104 14.8283 6.79434 14.8907C6.95624 14.9805 7.14089 15.0388 7.32576 15.0452C7.23298 15.1232 7.11867 15.1675 7.02317 15.241C7.44982 15.4911 7.92277 15.6557 8.39013 15.8141C8.5762 15.8763 8.76443 15.9342 8.95731 15.9707C8.39685 15.9384 7.85513 15.7725 7.34467 15.5454C7.0801 15.4293 6.81373 15.3172 6.54259 15.2173C6.66147 15.1554 6.79899 15.1403 6.92229 15.0867C6.66635 15.0354 6.38674 15.0187 6.16175 14.878C6.19625 14.8164 6.32696 14.8135 6.39925 14.7822C6.5352 14.7496 6.61954 14.7101 6.42784 14.6983C6.23452 14.6458 6.0128 14.6694 5.84244 14.5527C5.85341 14.4828 6.03171 14.5072 6.10432 14.477C6.19577 14.4613 6.29743 14.4481 6.3705 14.3866C6.07164 14.2627 5.68073 14.3505 5.44664 14.0866C5.39266 13.986 5.61428 14.067 5.6774 14.0503C5.83777 14.0503 6.01014 14.1012 6.16286 14.0366C5.72737 13.8454 5.26091 13.6664 4.92879 13.3127C4.89192 13.2559 4.78143 13.1006 4.87058 13.0814C5.12907 13.1156 5.31618 13.3977 5.59269 13.3538C5.62942 13.3043 5.43205 13.2231 5.38279 13.1523C4.97964 12.8064 4.58837 12.431 4.30581 11.9778C4.28638 11.8265 4.52424 11.8038 4.58687 11.9207C4.89519 12.2176 5.17369 12.5642 5.5577 12.7669C5.69395 12.833 5.47946 12.6887 5.45089 12.6364C5.09607 12.2243 4.75829 11.7892 4.51031 11.3039C4.46592 11.2165 4.39236 11.0581 4.52516 11.0116C4.65794 10.9451 4.78969 11.0357 4.85701 11.1498C5.11787 11.4788 5.30983 11.8698 5.6348 12.1439C5.35795 11.6067 5.06235 11.0411 5.0552 10.4229C5.06171 10.3031 5.06941 10.1218 5.23193 10.1267C5.36839 10.106 5.34684 10.2807 5.39155 10.364C5.52601 10.8182 5.58464 11.3098 5.85436 11.7108C5.79479 11.3739 5.70709 11.0269 5.76535 10.6844C5.77878 10.5719 5.90539 10.5379 5.98803 10.6058C6.05485 10.7694 6.06876 10.9713 6.12964 11.1461C6.47602 12.3311 7.25377 13.3733 8.26729 14.0727C9.102 14.6452 10.0926 14.9869 11.1036 15.0465C11.195 15.0545 11.2866 15.0572 11.3781 15.0628" fill="#FFEC2D"/>
<path d="M10.9333 16.3633C10.8505 16.3679 10.77 16.3786 10.691 16.4039C10.5829 16.4185 10.4794 16.456 10.3721 16.4737L10.3291 16.4806L10.2571 16.4875C10.2617 16.5074 10.2647 16.5273 10.2647 16.5473C10.2647 16.568 10.2624 16.5879 10.2571 16.6048C10.2525 16.6209 10.2379 16.6408 10.2264 16.6531C10.2111 16.6699 10.195 16.6845 10.1758 16.6937C10.1574 16.7029 10.1367 16.7067 10.116 16.7083C10.0953 16.709 10.0738 16.7083 10.0539 16.7006C10.0332 16.6937 10.014 16.6807 9.99637 16.6653C9.97518 16.6706 9.95367 16.6744 9.93197 16.6768C9.91051 16.6791 9.89057 16.6791 9.87141 16.6768C9.84996 16.6707 9.82772 16.6638 9.80702 16.6554C9.78617 16.6467 9.76615 16.6362 9.74722 16.6239C9.66902 16.6699 9.58162 16.7136 9.53407 16.7941C9.50726 16.8309 9.50187 16.8731 9.49576 16.9168C9.49191 16.9705 9.50572 17.0272 9.52872 17.077C9.53716 17.0916 9.54406 17.0241 9.57012 17.0149C9.61382 16.9789 9.66826 16.9528 9.72346 16.9383C9.77022 16.9145 9.76407 16.9398 9.74491 16.9766C9.74031 16.9958 9.71426 17.0686 9.74952 17.0318C9.90516 16.9628 10.0777 16.949 10.2456 16.936C10.4894 16.9107 10.7339 16.9053 10.9785 16.9022L11.6685 16.9168C11.7781 16.9199 11.8885 16.9444 11.9966 16.926C12.0227 16.9191 12.0633 16.9176 12.0787 16.9022C12.0296 16.8739 11.9721 16.8731 11.9177 16.8662H11.4791C11.3572 16.8539 11.23 16.8524 11.115 16.8064C11.0843 16.7941 11.0559 16.765 11.0268 16.7964C10.9831 16.8118 10.9363 16.8225 10.8903 16.8256C10.8098 16.8317 10.7293 16.8148 10.655 16.7849C10.7086 16.7106 10.773 16.6454 10.8321 16.5764C10.7845 16.5687 10.7385 16.5588 10.691 16.5473C10.7746 16.4898 10.852 16.4246 10.9333 16.3633Z" fill="#FFEC2D"/>
<path d="M10.095 16.6362C10.125 16.6362 10.1494 16.6119 10.1494 16.5818C10.1494 16.5517 10.125 16.5273 10.095 16.5273C10.0649 16.5273 10.0405 16.5517 10.0405 16.5818C10.0405 16.6119 10.0649 16.6362 10.095 16.6362Z" fill="#FFEC2D"/>
<path d="M10.0906 16.5952C10.1028 16.5952 10.1127 16.5852 10.1127 16.573C10.1127 16.5607 10.1028 16.5508 10.0906 16.5508C10.0783 16.5508 10.0684 16.5607 10.0684 16.573C10.0684 16.5852 10.0783 16.5952 10.0906 16.5952Z" fill="#FFEC2D" stroke="#FFEC2D" stroke-width="0.1905"/>
<path d="M1.97782 4.6245C1.97782 4.6245 1.8231 4.49448 1.77055 4.5597C1.68602 4.66459 2.03041 5.18709 2.03041 5.37109C2.03041 5.67311 1.82888 5.75524 1.58004 5.79837C1.41306 5.82732 1.14116 5.78626 1.14116 5.78626C1.19236 5.71747 1.22565 5.6972 1.31192 5.69171C1.21588 5.64184 1.11809 5.5336 1.11809 5.36513C1.11809 5.1053 1.22504 4.9982 1.22504 4.70529C1.22504 4.54279 1.0918 4.33594 1.0918 4.33594C1.32733 4.35951 1.44405 4.57759 1.37764 4.75187C1.41512 4.75726 1.44916 4.74881 1.4784 4.72112C1.49562 4.76942 1.46841 4.8255 1.43198 4.87381C1.46133 4.8895 1.48289 4.88009 1.52964 4.87043C1.5252 4.92021 1.49538 4.97309 1.42242 5.02287C1.63415 4.96789 1.76443 5.11546 1.76443 5.26996C1.76443 5.38665 1.68266 5.4703 1.60272 5.4703C1.5769 5.4703 1.53895 5.45965 1.51755 5.44367C1.50245 5.47579 1.51023 5.51877 1.52576 5.55089C1.46719 5.5354 1.43 5.50061 1.45647 5.42819C1.41147 5.42406 1.37568 5.40886 1.35133 5.37989C1.376 5.34829 1.41343 5.33009 1.45647 5.33158C1.4237 5.26395 1.46022 5.22612 1.51343 5.19543C1.51343 5.19543 1.47959 5.33158 1.566 5.33158C1.60485 5.33158 1.64025 5.31892 1.64025 5.26165C1.64025 5.21179 1.59667 5.14272 1.4959 5.14712C1.39513 5.15151 1.31345 5.21659 1.31345 5.37745C1.31345 5.52582 1.43314 5.59963 1.59086 5.60439C1.73307 5.60879 1.84041 5.53175 1.84041 5.38503C1.84041 5.18976 1.55853 4.74467 1.55853 4.57068C1.55853 4.44011 1.67593 4.36724 1.7908 4.36724C1.93976 4.36724 2.06544 4.51473 2.06544 4.51473L1.97794 4.62445L1.97782 4.6245Z" fill="#FFEC2D"/>
<path d="M2.01029 8.15275C2.01029 8.4791 1.7173 8.64683 1.48706 8.64683C1.17687 8.64683 1.01172 8.46138 1.01172 8.2186C1.01172 8.08098 1.03693 7.99463 1.10038 7.86291L1.81126 6.38728C1.8361 6.33595 1.84412 6.27751 1.84412 6.19186C1.84412 6.05956 1.7158 5.95143 1.58125 5.94811C1.4586 5.94506 1.32496 6.06246 1.32496 6.19625C1.32496 6.35875 1.40927 6.4312 1.49582 6.4312C1.60234 6.4312 1.64478 6.38741 1.64478 6.31262C1.64478 6.26051 1.61962 6.23797 1.58344 6.23797C1.49209 6.23797 1.51773 6.36094 1.51773 6.36094C1.47236 6.35101 1.43507 6.30464 1.45639 6.24674C1.42194 6.23913 1.39084 6.22066 1.36768 6.19405C1.39217 6.1703 1.42026 6.15198 1.45639 6.14574C1.43499 6.0751 1.46359 6.04059 1.5254 6.02607C1.51292 6.05323 1.5125 6.07824 1.51664 6.10182C1.61393 6.07415 1.76307 6.11818 1.76307 6.28627C1.76307 6.45315 1.64724 6.59367 1.4301 6.55855C1.48175 6.58325 1.50802 6.63379 1.51334 6.6903C1.47389 6.67494 1.4301 6.67275 1.4301 6.67275C1.45549 6.71751 1.49075 6.7561 1.48924 6.84401C1.44898 6.82571 1.41158 6.79181 1.36 6.81326C1.44098 6.97262 1.34148 7.19181 1.08837 7.24367C1.18101 7.13507 1.22637 7.01783 1.22637 6.9011C1.22637 6.52281 1.12123 6.45923 1.12123 6.19623C1.12123 6.08619 1.17779 5.96737 1.2899 5.88661V5.89101C1.21581 5.87116 1.16834 5.83467 1.14105 5.7851C1.31035 5.73709 1.55644 5.73797 1.68856 5.78996C1.84045 5.80756 1.94648 5.92408 1.97772 5.98323C2.00895 6.04238 2.06963 6.25618 1.97772 6.44872L1.25485 7.98143C1.22349 8.04849 1.20445 8.11962 1.20445 8.19662C1.20445 8.39031 1.38188 8.45793 1.48267 8.45793C1.60314 8.45793 1.72581 8.36616 1.72581 8.25153C1.72581 8.1789 1.68637 8.13515 1.62942 8.13515C1.49324 8.13515 1.50152 8.25099 1.52866 8.32399C1.44391 8.28588 1.39465 8.21786 1.40819 8.14613C1.36021 8.13955 1.31453 8.1168 1.27238 8.06927C1.30555 8.02741 1.34599 7.99574 1.40819 7.99461C1.38103 7.88333 1.45552 7.83627 1.52866 7.81017C1.50553 7.89185 1.49035 7.98584 1.62942 7.98584C1.73085 7.98584 1.81068 8.00341 1.85724 8.06929L1.86819 7.6345C1.87405 7.50412 1.69369 7.50784 1.57906 7.54666C1.62232 7.39649 1.71105 7.3153 1.91639 7.33586C1.86654 7.31501 1.81343 7.26811 1.81343 7.17775C1.81346 7.0555 1.91264 6.92007 1.97775 6.88003L2.0103 8.15277L2.01029 8.15275Z" fill="#FFEC2D"/>
<path d="M2.01029 9.13241C2.01029 8.80605 1.7173 8.63832 1.48706 8.63832C1.17687 8.63832 1.01172 8.82378 1.01172 9.06656C1.01172 9.20418 1.03693 9.29053 1.10038 9.42224L1.81126 10.8979C1.8361 10.9492 1.84412 11.0076 1.84412 11.0933C1.84412 11.2256 1.7158 11.3337 1.58125 11.337C1.4586 11.3401 1.32496 11.2227 1.32496 11.0889C1.32496 10.9264 1.40927 10.854 1.49582 10.854C1.60234 10.854 1.64478 10.8977 1.64478 10.9725C1.64478 11.0246 1.61962 11.0472 1.58344 11.0472C1.49209 11.0472 1.51773 10.9242 1.51773 10.9242C1.47236 10.9341 1.43507 10.9805 1.45639 11.0384C1.42194 11.046 1.39084 11.0645 1.36768 11.0911C1.39217 11.1149 1.42026 11.1332 1.45639 11.1394C1.43499 11.2101 1.46359 11.2446 1.5254 11.2591C1.51292 11.2319 1.5125 11.2069 1.51664 11.1833C1.61393 11.211 1.76307 11.167 1.76307 10.9989C1.76307 10.832 1.64724 10.6915 1.4301 10.7266C1.48175 10.7019 1.50802 10.6514 1.51334 10.5949C1.47389 10.6102 1.4301 10.6124 1.4301 10.6124C1.45549 10.5676 1.49075 10.5291 1.48924 10.4411C1.44898 10.4595 1.41158 10.4933 1.36 10.4719C1.44098 10.3125 1.34148 10.0933 1.08837 10.0415C1.18101 10.1501 1.22637 10.2673 1.22637 10.3841C1.22637 10.7623 1.12123 10.8259 1.12123 11.0889C1.12123 11.199 1.17779 11.3178 1.2899 11.3985V11.3941C1.21581 11.414 1.16834 11.4505 1.14105 11.5001C1.31035 11.5481 1.55644 11.5472 1.68856 11.4952C1.84045 11.4776 1.94648 11.3611 1.97772 11.3019C2.00895 11.2428 2.06963 11.029 1.97772 10.8364L1.25485 9.30373C1.22349 9.23667 1.20445 9.16554 1.20445 9.08853C1.20445 8.89485 1.38188 8.82723 1.48267 8.82723C1.60314 8.82723 1.72581 8.919 1.72581 9.03363C1.72581 9.10626 1.68637 9.15 1.62942 9.15C1.49324 9.15 1.50152 9.03416 1.52866 8.96116C1.44391 8.99927 1.39465 9.0673 1.40819 9.13902C1.36021 9.14561 1.31453 9.16836 1.27238 9.21589C1.30555 9.25775 1.34599 9.28942 1.40819 9.29054C1.38103 9.40183 1.45552 9.44889 1.52866 9.47499C1.50553 9.39331 1.49035 9.29932 1.62942 9.29932C1.73085 9.29932 1.81068 9.28175 1.85724 9.21587L1.86819 9.65066C1.87405 9.78104 1.69369 9.77732 1.57906 9.7385C1.62232 9.88867 1.71105 9.96986 1.91639 9.9493C1.86654 9.97015 1.81343 10.017 1.81343 10.1074C1.81346 10.2297 1.91264 10.3651 1.97775 10.4051L2.0103 9.13239L2.01029 9.13241Z" fill="#FFEC2D"/>
<path d="M1.97774 4.6245C1.97774 4.6245 2.13246 4.49448 2.18502 4.5597C2.26954 4.66459 1.92516 5.18709 1.92516 5.37109C1.92516 5.67311 2.12668 5.75524 2.37553 5.79837C2.54251 5.82732 2.81441 5.78626 2.81441 5.78626C2.76321 5.71747 2.72991 5.6972 2.64365 5.69171C2.73969 5.64184 2.83748 5.5336 2.83748 5.36513C2.83748 5.1053 2.73052 4.9982 2.73052 4.70529C2.73052 4.54279 2.86377 4.33594 2.86377 4.33594C2.62824 4.35951 2.51151 4.57759 2.57793 4.75187C2.54044 4.75726 2.50641 4.74881 2.47717 4.72112C2.45994 4.76942 2.48715 4.8255 2.52359 4.87381C2.49424 4.8895 2.47268 4.88009 2.42592 4.87043C2.43037 4.92021 2.46019 4.97309 2.53315 5.02287C2.32142 4.96789 2.19113 5.11546 2.19113 5.26996C2.19113 5.38665 2.27291 5.4703 2.35284 5.4703C2.37867 5.4703 2.41662 5.45965 2.43801 5.44367C2.45312 5.47579 2.44534 5.51877 2.4298 5.55089C2.48838 5.5354 2.52557 5.50061 2.4991 5.42819C2.5441 5.42406 2.57989 5.40886 2.60423 5.37989C2.57957 5.34829 2.54214 5.33009 2.4991 5.33158C2.53186 5.26395 2.49535 5.22612 2.44214 5.19543C2.44214 5.19543 2.47598 5.33158 2.38957 5.33158C2.35072 5.33158 2.31532 5.31892 2.31532 5.26165C2.31532 5.21179 2.3589 5.14272 2.45967 5.14712C2.56044 5.15151 2.64212 5.21659 2.64212 5.37745C2.64212 5.52582 2.52243 5.59963 2.36471 5.60439C2.2225 5.60879 2.11516 5.53175 2.11516 5.38503C2.11516 5.18976 2.39704 4.74467 2.39704 4.57068C2.39704 4.44011 2.27964 4.36724 2.16476 4.36724C2.0158 4.36724 1.89012 4.51473 1.89012 4.51473L1.97763 4.62445L1.97774 4.6245Z" fill="#FFEC2D"/>
<path d="M1.94528 8.15275C1.94528 8.4791 2.23827 8.64683 2.4685 8.64683C2.77869 8.64683 2.94385 8.46138 2.94385 8.2186C2.94385 8.08098 2.91863 7.99463 2.85518 7.86291L2.14431 6.38728C2.11947 6.33595 2.11145 6.27751 2.11145 6.19186C2.11145 6.05956 2.23977 5.95143 2.37432 5.94811C2.49697 5.94506 2.6306 6.06246 2.6306 6.19625C2.6306 6.35875 2.5463 6.4312 2.45975 6.4312C2.35323 6.4312 2.31079 6.38741 2.31079 6.31262C2.31079 6.26051 2.33595 6.23797 2.37213 6.23797C2.46348 6.23797 2.43783 6.36094 2.43783 6.36094C2.4832 6.35101 2.52049 6.30464 2.49918 6.24674C2.53363 6.23913 2.56472 6.22066 2.58789 6.19405C2.5634 6.1703 2.5353 6.15198 2.49918 6.14574C2.52057 6.0751 2.49198 6.04059 2.43017 6.02607C2.44265 6.05323 2.44307 6.07824 2.43893 6.10182C2.34163 6.07415 2.1925 6.11818 2.1925 6.28627C2.1925 6.45315 2.30832 6.59367 2.52547 6.55855C2.47382 6.58325 2.44754 6.63379 2.44223 6.6903C2.48167 6.67494 2.52547 6.67275 2.52547 6.67275C2.50008 6.71751 2.46482 6.7561 2.46633 6.84401C2.50658 6.82571 2.54398 6.79181 2.59557 6.81326C2.51458 6.97262 2.61408 7.19181 2.86719 7.24367C2.77455 7.13507 2.7292 7.01783 2.7292 6.9011C2.7292 6.52281 2.83433 6.45923 2.83433 6.19623C2.83433 6.08619 2.77777 5.96737 2.66567 5.88661V5.89101C2.73976 5.87116 2.78722 5.83467 2.81451 5.7851C2.64522 5.73709 2.39913 5.73797 2.26701 5.78996C2.11512 5.80756 2.00908 5.92408 1.97785 5.98323C1.94662 6.04238 1.88593 6.25618 1.97785 6.44872L2.70072 7.98143C2.73208 8.04849 2.75111 8.11962 2.75111 8.19662C2.75111 8.39031 2.57369 8.45793 2.4729 8.45793C2.35242 8.45793 2.22975 8.36616 2.22975 8.25153C2.22975 8.1789 2.2692 8.13515 2.32615 8.13515C2.46232 8.13515 2.45405 8.25099 2.4269 8.32399C2.51165 8.28588 2.56092 8.21786 2.54738 8.14613C2.59536 8.13955 2.64103 8.1168 2.68318 8.06927C2.65002 8.02741 2.60957 7.99574 2.54738 7.99461C2.57454 7.88333 2.50004 7.83627 2.4269 7.81017C2.45004 7.89185 2.46522 7.98584 2.32615 7.98584C2.22471 7.98584 2.14489 8.0034 2.09833 8.06929L2.08738 7.6345C2.08152 7.50412 2.26187 7.50784 2.37651 7.54666C2.33325 7.39649 2.24452 7.3153 2.03918 7.33586C2.08902 7.31501 2.14214 7.26811 2.14214 7.17775C2.1421 7.0555 2.04293 6.92007 1.97782 6.88003L1.94526 8.15277L1.94528 8.15275Z" fill="#FFEC2D"/>
<path d="M1.94528 9.1324C1.94528 8.80605 2.23827 8.63832 2.4685 8.63832C2.77869 8.63832 2.94385 8.82378 2.94385 9.06655C2.94385 9.20418 2.91863 9.29053 2.85518 9.42224L2.14431 10.8979C2.11947 10.9492 2.11145 11.0076 2.11145 11.0933C2.11145 11.2256 2.23977 11.3337 2.37432 11.337C2.49697 11.3401 2.6306 11.2227 2.6306 11.0889C2.6306 10.9264 2.5463 10.854 2.45975 10.854C2.35323 10.854 2.31079 10.8977 2.31079 10.9725C2.31079 11.0246 2.33595 11.0472 2.37213 11.0472C2.46348 11.0472 2.43783 10.9242 2.43783 10.9242C2.4832 10.9341 2.52049 10.9805 2.49918 11.0384C2.53363 11.046 2.56472 11.0645 2.58789 11.0911C2.5634 11.1149 2.5353 11.1332 2.49918 11.1394C2.52057 11.2101 2.49198 11.2446 2.43017 11.2591C2.44265 11.2319 2.44307 11.2069 2.43893 11.1833C2.34163 11.211 2.1925 11.167 2.1925 10.9989C2.1925 10.832 2.30832 10.6915 2.52547 10.7266C2.47382 10.7019 2.44754 10.6514 2.44223 10.5949C2.48167 10.6102 2.52547 10.6124 2.52547 10.6124C2.50008 10.5676 2.46482 10.5291 2.46633 10.4411C2.50658 10.4595 2.54398 10.4933 2.59557 10.4719C2.51458 10.3125 2.61408 10.0933 2.86719 10.0415C2.77455 10.1501 2.7292 10.2673 2.7292 10.3841C2.7292 10.7623 2.83433 10.8259 2.83433 11.0889C2.83433 11.199 2.77777 11.3178 2.66567 11.3985V11.3941C2.73976 11.414 2.78722 11.4505 2.81451 11.5001C2.64522 11.5481 2.39913 11.5472 2.26701 11.4952C2.11512 11.4776 2.00908 11.3611 1.97785 11.3019C1.94662 11.2428 1.88593 11.029 1.97785 10.8364L2.70072 9.30373C2.73208 9.23667 2.75111 9.16554 2.75111 9.08853C2.75111 8.89485 2.57369 8.82723 2.4729 8.82723C2.35242 8.82723 2.22975 8.919 2.22975 9.03363C2.22975 9.10626 2.2692 9.15 2.32615 9.15C2.46232 9.15 2.45405 9.03416 2.4269 8.96116C2.51165 8.99927 2.56092 9.0673 2.54738 9.13902C2.59536 9.14561 2.64103 9.16836 2.68318 9.21588C2.65002 9.25775 2.60957 9.28941 2.54738 9.29054C2.57454 9.40183 2.50004 9.44889 2.4269 9.47499C2.45004 9.39331 2.46522 9.29932 2.32615 9.29932C2.22471 9.29932 2.14489 9.28175 2.09833 9.21587L2.08738 9.65066C2.08152 9.78104 2.26187 9.77732 2.37651 9.7385C2.33325 9.88867 2.24452 9.96986 2.03918 9.9493C2.08902 9.97015 2.14214 10.017 2.14214 10.1074C2.1421 10.2297 2.04293 10.3651 1.97782 10.4051L1.94526 9.13239L1.94528 9.1324Z" fill="#FFEC2D"/>
<path d="M1.97782 18.3755C1.97782 18.3755 1.8231 18.5055 1.77055 18.4403C1.68602 18.3354 2.03041 17.8129 2.03041 17.6289C2.03041 17.3269 1.82888 17.2448 1.58004 17.2016C1.41306 17.1727 1.14116 17.2137 1.14116 17.2137C1.19236 17.2825 1.22565 17.3028 1.31192 17.3083C1.21588 17.3582 1.11809 17.4664 1.11809 17.6349C1.11809 17.8947 1.22504 18.0018 1.22504 18.2947C1.22504 18.4572 1.0918 18.6641 1.0918 18.6641C1.32733 18.6405 1.44405 18.4224 1.37764 18.2481C1.41512 18.2427 1.44916 18.2512 1.4784 18.2789C1.49562 18.2306 1.46841 18.1745 1.43198 18.1262C1.46133 18.1105 1.48289 18.1199 1.52964 18.1296C1.5252 18.0798 1.49538 18.0269 1.42241 17.9771C1.63415 18.0321 1.76443 17.8845 1.76443 17.73C1.76443 17.6133 1.68266 17.5297 1.60272 17.5297C1.5769 17.5297 1.53895 17.5403 1.51755 17.5563C1.50245 17.5242 1.51023 17.4812 1.52576 17.4491C1.46719 17.4646 1.43 17.4994 1.45647 17.5718C1.41147 17.5759 1.37568 17.5911 1.35133 17.6201C1.376 17.6517 1.41343 17.6699 1.45647 17.6684C1.4237 17.736 1.46022 17.7739 1.51343 17.8046C1.51343 17.8046 1.47959 17.6684 1.566 17.6684C1.60485 17.6684 1.64025 17.6811 1.64025 17.7383C1.64025 17.7882 1.59667 17.8573 1.4959 17.8529C1.39513 17.8485 1.31345 17.7834 1.31345 17.6226C1.31345 17.4742 1.43314 17.4004 1.59086 17.3956C1.73307 17.3912 1.84041 17.4683 1.84041 17.615C1.84041 17.8102 1.55853 18.2553 1.55853 18.4293C1.55853 18.5599 1.67593 18.6328 1.7908 18.6328C1.93976 18.6328 2.06544 18.4853 2.06544 18.4853L1.97794 18.3755L1.97782 18.3755Z" fill="#FFEC2D"/>
<path d="M2.01029 14.8472C2.01029 14.5209 1.7173 14.3532 1.48706 14.3532C1.17687 14.3532 1.01172 14.5386 1.01172 14.7814C1.01172 14.919 1.03693 15.0054 1.10038 15.1371L1.81126 16.6127C1.8361 16.664 1.84412 16.7225 1.84412 16.8081C1.84412 16.9404 1.7158 17.0486 1.58125 17.0519C1.4586 17.0549 1.32496 16.9375 1.32496 16.8037C1.32496 16.6412 1.40927 16.5688 1.49582 16.5688C1.60234 16.5688 1.64478 16.6126 1.64478 16.6874C1.64478 16.7395 1.61962 16.762 1.58344 16.762C1.49209 16.762 1.51773 16.6391 1.51773 16.6391C1.47236 16.649 1.43507 16.6954 1.45639 16.7533C1.42194 16.7609 1.39084 16.7793 1.36768 16.806C1.39217 16.8297 1.42026 16.848 1.45639 16.8543C1.43499 16.9249 1.46359 16.9594 1.5254 16.9739C1.51292 16.9468 1.5125 16.9218 1.51664 16.8982C1.61393 16.9259 1.76307 16.8818 1.76307 16.7137C1.76307 16.5469 1.64724 16.4063 1.4301 16.4414C1.48175 16.4167 1.50802 16.3662 1.51334 16.3097C1.47389 16.3251 1.4301 16.3272 1.4301 16.3272C1.45549 16.2825 1.49075 16.2439 1.48924 16.156C1.44898 16.1743 1.41158 16.2082 1.36 16.1867C1.44098 16.0274 1.34148 15.8082 1.08837 15.7563C1.18101 15.8649 1.22637 15.9822 1.22637 16.0989C1.22637 16.4772 1.12123 16.5408 1.12123 16.8038C1.12123 16.9138 1.17779 17.0326 1.2899 17.1134V17.109C1.21581 17.1288 1.16834 17.1653 1.14105 17.2149C1.31035 17.2629 1.55644 17.262 1.68856 17.21C1.84045 17.1924 1.94648 17.0759 1.97772 17.0168C2.00895 16.9576 2.06963 16.7438 1.97772 16.5513L1.25485 15.0186C1.22349 14.9515 1.20445 14.8804 1.20445 14.8034C1.20445 14.6097 1.38188 14.5421 1.48267 14.5421C1.60314 14.5421 1.72581 14.6338 1.72581 14.7485C1.72581 14.8211 1.68637 14.8648 1.62942 14.8648C1.49324 14.8648 1.50152 14.749 1.52867 14.676C1.44391 14.7141 1.39465 14.7821 1.40819 14.8539C1.36021 14.8605 1.31453 14.8832 1.27238 14.9307C1.30555 14.9726 1.34599 15.0043 1.40819 15.0054C1.38103 15.1167 1.45552 15.1637 1.52867 15.1898C1.50553 15.1082 1.49035 15.0142 1.62942 15.0142C1.73085 15.0142 1.81068 14.9966 1.85724 14.9307L1.86819 15.3655C1.87405 15.4959 1.69369 15.4922 1.57906 15.4533C1.62232 15.6035 1.71105 15.6847 1.91639 15.6641C1.86654 15.685 1.81343 15.7319 1.81343 15.8222C1.81346 15.9445 1.91264 16.0799 1.97775 16.12L2.0103 14.8472L2.01029 14.8472Z" fill="#FFEC2D"/>
<path d="M2.01029 13.8676C2.01029 14.1939 1.7173 14.3617 1.48706 14.3617C1.17687 14.3617 1.01172 14.1762 1.01172 13.9334C1.01172 13.7958 1.03693 13.7095 1.10038 13.5778L1.81126 12.1021C1.8361 12.0508 1.84412 11.9924 1.84412 11.9067C1.84412 11.7744 1.7158 11.6663 1.58125 11.663C1.4586 11.6599 1.32496 11.7773 1.32496 11.9111C1.32496 12.0736 1.40927 12.146 1.49582 12.146C1.60234 12.146 1.64478 12.1023 1.64478 12.0275C1.64478 11.9754 1.61962 11.9528 1.58344 11.9528C1.49209 11.9528 1.51773 12.0758 1.51773 12.0758C1.47236 12.0659 1.43507 12.0195 1.45639 11.9616C1.42194 11.954 1.39084 11.9355 1.36768 11.9089C1.39217 11.8851 1.42026 11.8668 1.45639 11.8606C1.43499 11.7899 1.46359 11.7554 1.5254 11.7409C1.51292 11.7681 1.5125 11.7931 1.51664 11.8167C1.61393 11.789 1.76307 11.833 1.76307 12.0011C1.76307 12.168 1.64724 12.3085 1.4301 12.2734C1.48175 12.2981 1.50802 12.3486 1.51334 12.4051C1.47389 12.3898 1.4301 12.3876 1.4301 12.3876C1.45549 12.4324 1.49075 12.4709 1.48924 12.5589C1.44898 12.5405 1.41158 12.5067 1.36 12.5281C1.44098 12.6875 1.34148 12.9067 1.08837 12.9585C1.18101 12.8499 1.22637 12.7327 1.22637 12.6159C1.22637 12.2377 1.12123 12.1741 1.12123 11.9111C1.12123 11.801 1.17779 11.6822 1.2899 11.6015V11.6059C1.21581 11.586 1.16834 11.5495 1.14105 11.4999C1.31035 11.4519 1.55644 11.4528 1.68856 11.5048C1.84045 11.5224 1.94648 11.6389 1.97772 11.6981C2.00895 11.7572 2.06963 11.971 1.97772 12.1636L1.25485 13.6963C1.22349 13.7633 1.20445 13.8345 1.20445 13.9115C1.20445 14.1052 1.38188 14.1728 1.48267 14.1728C1.60314 14.1728 1.72581 14.081 1.72581 13.9664C1.72581 13.8937 1.68637 13.85 1.62942 13.85C1.49324 13.85 1.50152 13.9658 1.52867 14.0388C1.44391 14.0007 1.39465 13.9327 1.40819 13.861C1.36021 13.8544 1.31453 13.8316 1.27238 13.7841C1.30555 13.7423 1.34599 13.7106 1.40819 13.7095C1.38103 13.5982 1.45552 13.5511 1.52867 13.525C1.50553 13.6067 1.49035 13.7007 1.62942 13.7007C1.73085 13.7007 1.81068 13.7182 1.85724 13.7841L1.86819 13.3493C1.87405 13.219 1.69369 13.2227 1.57906 13.2615C1.62232 13.1113 1.71105 13.0301 1.91639 13.0507C1.86654 13.0299 1.81343 12.983 1.81343 12.8926C1.81346 12.7703 1.91264 12.6349 1.97775 12.5949L2.0103 13.8676L2.01029 13.8676Z" fill="#FFEC2D"/>
<path d="M1.97774 18.3755C1.97774 18.3755 2.13247 18.5055 2.18502 18.4403C2.26954 18.3354 1.92516 17.8129 1.92516 17.6289C1.92516 17.3269 2.12669 17.2448 2.37553 17.2016C2.54251 17.1727 2.81441 17.2137 2.81441 17.2137C2.76321 17.2825 2.72991 17.3028 2.64365 17.3083C2.73969 17.3582 2.83748 17.4664 2.83748 17.6349C2.83748 17.8947 2.73052 18.0018 2.73052 18.2947C2.73052 18.4572 2.86377 18.6641 2.86377 18.6641C2.62824 18.6405 2.51151 18.4224 2.57793 18.2481C2.54044 18.2427 2.50641 18.2512 2.47717 18.2789C2.45994 18.2306 2.48715 18.1745 2.52359 18.1262C2.49424 18.1105 2.47268 18.1199 2.42592 18.1296C2.43037 18.0798 2.46019 18.0269 2.53315 17.9771C2.32142 18.0321 2.19113 17.8845 2.19113 17.73C2.19113 17.6133 2.27291 17.5297 2.35284 17.5297C2.37867 17.5297 2.41662 17.5403 2.43802 17.5563C2.45312 17.5242 2.44534 17.4812 2.4298 17.4491C2.48838 17.4646 2.52557 17.4994 2.4991 17.5718C2.5441 17.5759 2.57989 17.5911 2.60423 17.6201C2.57957 17.6517 2.54214 17.6699 2.4991 17.6684C2.53186 17.736 2.49535 17.7739 2.44214 17.8046C2.44214 17.8046 2.47598 17.6684 2.38957 17.6684C2.35072 17.6684 2.31532 17.6811 2.31532 17.7383C2.31532 17.7882 2.3589 17.8573 2.45967 17.8529C2.56044 17.8485 2.64212 17.7834 2.64212 17.6226C2.64212 17.4742 2.52243 17.4004 2.36471 17.3956C2.2225 17.3912 2.11516 17.4683 2.11516 17.615C2.11516 17.8102 2.39704 18.2553 2.39704 18.4293C2.39704 18.5599 2.27964 18.6328 2.16476 18.6328C2.0158 18.6328 1.89012 18.4853 1.89012 18.4853L1.97763 18.3755L1.97774 18.3755Z" fill="#FFEC2D"/>
<path d="M1.94528 14.8472C1.94528 14.5209 2.23827 14.3532 2.4685 14.3532C2.77869 14.3532 2.94385 14.5386 2.94385 14.7814C2.94385 14.919 2.91863 15.0054 2.85518 15.1371L2.14431 16.6127C2.11947 16.664 2.11145 16.7225 2.11145 16.8081C2.11145 16.9404 2.23977 17.0486 2.37432 17.0519C2.49697 17.0549 2.6306 16.9375 2.6306 16.8037C2.6306 16.6412 2.5463 16.5688 2.45975 16.5688C2.35323 16.5688 2.31079 16.6126 2.31079 16.6874C2.31079 16.7395 2.33595 16.762 2.37213 16.762C2.46348 16.762 2.43783 16.6391 2.43783 16.6391C2.4832 16.649 2.52049 16.6954 2.49918 16.7533C2.53363 16.7609 2.56472 16.7793 2.58789 16.806C2.5634 16.8297 2.5353 16.848 2.49918 16.8543C2.52057 16.9249 2.49198 16.9594 2.43017 16.9739C2.44265 16.9468 2.44307 16.9218 2.43893 16.8982C2.34163 16.9259 2.1925 16.8818 2.1925 16.7137C2.1925 16.5469 2.30832 16.4063 2.52547 16.4414C2.47382 16.4167 2.44754 16.3662 2.44223 16.3097C2.48167 16.3251 2.52547 16.3272 2.52547 16.3272C2.50008 16.2825 2.46482 16.2439 2.46633 16.156C2.50658 16.1743 2.54398 16.2082 2.59557 16.1867C2.51458 16.0274 2.61408 15.8082 2.86719 15.7563C2.77455 15.8649 2.7292 15.9822 2.7292 16.0989C2.7292 16.4772 2.83433 16.5408 2.83433 16.8038C2.83433 16.9138 2.77777 17.0326 2.66567 17.1134V17.109C2.73976 17.1288 2.78722 17.1653 2.81451 17.2149C2.64522 17.2629 2.39913 17.262 2.26701 17.21C2.11512 17.1924 2.00908 17.0759 1.97785 17.0168C1.94662 16.9576 1.88593 16.7438 1.97785 16.5513L2.70072 15.0186C2.73208 14.9515 2.75111 14.8804 2.75111 14.8034C2.75111 14.6097 2.57369 14.5421 2.4729 14.5421C2.35242 14.5421 2.22975 14.6338 2.22975 14.7485C2.22975 14.8211 2.2692 14.8648 2.32615 14.8648C2.46232 14.8648 2.45405 14.749 2.4269 14.676C2.51165 14.7141 2.56092 14.7821 2.54738 14.8539C2.59536 14.8605 2.64103 14.8832 2.68318 14.9307C2.65002 14.9726 2.60957 15.0043 2.54738 15.0054C2.57454 15.1167 2.50004 15.1637 2.4269 15.1898C2.45004 15.1082 2.46522 15.0142 2.32615 15.0142C2.22471 15.0142 2.14489 14.9966 2.09833 14.9307L2.08738 15.3655C2.08152 15.4959 2.26187 15.4922 2.37651 15.4533C2.33325 15.6035 2.24452 15.6847 2.03918 15.6641C2.08902 15.685 2.14214 15.7319 2.14214 15.8222C2.1421 15.9445 2.04293 16.0799 1.97782 16.12L1.94526 14.8472L1.94528 14.8472Z" fill="#FFEC2D"/>
<path d="M1.94528 13.8676C1.94528 14.1939 2.23827 14.3617 2.4685 14.3617C2.77869 14.3617 2.94385 14.1762 2.94385 13.9334C2.94385 13.7958 2.91863 13.7095 2.85518 13.5778L2.14431 12.1021C2.11947 12.0508 2.11145 11.9924 2.11145 11.9067C2.11145 11.7744 2.23977 11.6663 2.37432 11.663C2.49697 11.6599 2.6306 11.7773 2.6306 11.9111C2.6306 12.0736 2.5463 12.146 2.45975 12.146C2.35323 12.146 2.31079 12.1023 2.31079 12.0275C2.31079 11.9754 2.33595 11.9528 2.37213 11.9528C2.46348 11.9528 2.43783 12.0758 2.43783 12.0758C2.4832 12.0659 2.52049 12.0195 2.49918 11.9616C2.53363 11.954 2.56472 11.9355 2.58789 11.9089C2.5634 11.8851 2.5353 11.8668 2.49918 11.8606C2.52057 11.7899 2.49198 11.7554 2.43017 11.7409C2.44265 11.7681 2.44307 11.7931 2.43893 11.8167C2.34163 11.789 2.1925 11.833 2.1925 12.0011C2.1925 12.168 2.30832 12.3085 2.52547 12.2734C2.47382 12.2981 2.44754 12.3486 2.44223 12.4051C2.48167 12.3898 2.52547 12.3876 2.52547 12.3876C2.50008 12.4324 2.46482 12.4709 2.46633 12.5589C2.50658 12.5405 2.54398 12.5067 2.59557 12.5281C2.51458 12.6875 2.61408 12.9067 2.86719 12.9585C2.77455 12.8499 2.7292 12.7327 2.7292 12.6159C2.7292 12.2377 2.83433 12.1741 2.83433 11.9111C2.83433 11.801 2.77777 11.6822 2.66567 11.6015V11.6059C2.73976 11.586 2.78722 11.5495 2.81451 11.4999C2.64522 11.4519 2.39913 11.4528 2.26701 11.5048C2.11512 11.5224 2.00908 11.6389 1.97785 11.6981C1.94662 11.7572 1.88593 11.971 1.97785 12.1636L2.70072 13.6963C2.73208 13.7633 2.75111 13.8345 2.75111 13.9115C2.75111 14.1052 2.57369 14.1728 2.4729 14.1728C2.35242 14.1728 2.22975 14.081 2.22975 13.9664C2.22975 13.8937 2.2692 13.85 2.32615 13.85C2.46232 13.85 2.45405 13.9658 2.4269 14.0388C2.51165 14.0007 2.56092 13.9327 2.54738 13.861C2.59536 13.8544 2.64103 13.8316 2.68318 13.7841C2.65002 13.7423 2.60957 13.7106 2.54738 13.7095C2.57454 13.5982 2.50004 13.5511 2.4269 13.525C2.45004 13.6067 2.46522 13.7007 2.32615 13.7007C2.22471 13.7007 2.14489 13.7182 2.09833 13.7841L2.08738 13.3493C2.08152 13.219 2.26187 13.2227 2.37651 13.2615C2.33325 13.1113 2.24452 13.0301 2.03918 13.0507C2.08902 13.0299 2.14214 12.983 2.14214 12.8926C2.1421 12.7703 2.04293 12.6349 1.97782 12.5949L1.94526 13.8676L1.94528 13.8676Z" fill="#FFEC2D"/>
</g>
<defs>
<clipPath id="clip0_1232_6268">
<rect width="23" height="23" rx="11.5" fill="white"/>
</clipPath>
</defs>
</svg>
