<svg width="76" height="76" viewBox="0 0 76 76" fill="none" xmlns="http://www.w3.org/2000/svg">
<g clip-path="url(#clip0_1232_4591)">
<path d="M-38 0H114V76H-38V0Z" fill="#006600"/>
<path d="M-38 0H114V54.2857H-38V0Z" fill="white"/>
<path d="M-38 0H114V21.7143H-38V0Z" fill="#CC0000"/>
<path d="M34.741 37.6487C34.8892 37.3938 35.1164 37.1941 35.3881 37.0798C35.6599 36.9656 35.9615 36.9429 36.2473 37.0153C36.5331 37.0876 36.7876 37.2511 36.9723 37.481C37.1569 37.7108 37.2617 37.9946 37.2707 38.2892V43.7178H38.2913V38.2892C38.3003 37.9946 38.4051 37.7108 38.5897 37.481C38.7744 37.2511 39.0288 37.0876 39.3146 37.0153C39.6004 36.9429 39.902 36.9656 40.1738 37.0798C40.4456 37.1941 40.6728 37.3938 40.821 37.6487C40.9806 37.1674 41.0237 36.655 40.9467 36.1538C40.8696 35.6526 40.6747 35.1768 40.3779 34.7657C40.0811 34.3545 39.6909 34.0197 39.2394 33.7888C38.7879 33.5579 38.2881 33.4375 37.781 33.4375C37.2739 33.4375 36.774 33.5579 36.3226 33.7888C35.8711 34.0197 35.4809 34.3545 35.1841 34.7657C34.8873 35.1768 34.6923 35.6526 34.6153 36.1538C34.5383 36.655 34.5813 37.1674 34.741 37.6487Z" fill="#F8C300"/>
<path d="M35.4688 36.2315C35.9142 36.1404 36.3771 36.1915 36.792 36.3775C37.2069 36.5636 37.5529 36.8751 37.7813 37.2683C38.0097 36.8751 38.3557 36.5636 38.7706 36.3775C39.1856 36.1915 39.6484 36.1404 40.0939 36.2315C40.0171 35.6727 39.7406 35.1605 39.3155 34.7898C38.8904 34.4191 38.3454 34.2148 37.7813 34.2148C37.2173 34.2148 36.6723 34.4191 36.2471 34.7898C35.822 35.1605 35.5455 35.6727 35.4688 36.2315Z" fill="white"/>
<path d="M37.2716 41.5469C37.2025 42.3171 36.9182 43.0524 36.4513 43.6688C35.9844 44.2853 35.3536 44.7581 34.6309 45.0334C33.9082 45.3086 33.1227 45.3752 32.364 45.2255C31.6053 45.0759 30.9039 44.716 30.3399 44.1869C30.0989 44.7919 29.7232 45.3341 29.2415 45.7723C28.7597 46.2105 28.1845 46.5332 27.5595 46.716C26.9344 46.8987 26.2759 46.9368 25.634 46.8271C24.992 46.7175 24.3835 46.4632 23.8545 46.0833C24.2507 50.0381 30.179 49.2307 30.6207 45.3853C32.4831 48.655 36.5783 47.7185 37.7766 43.7133L37.2716 41.5469Z" fill="#F8C300"/>
<path d="M38.2918 41.5469C38.361 42.3171 38.6453 43.0524 39.1122 43.6688C39.5791 44.2853 40.2099 44.7581 40.9326 45.0334C41.6553 45.3086 42.4408 45.3752 43.1995 45.2255C43.9582 45.0759 44.6596 44.716 45.2236 44.1869C45.4646 44.7919 45.8402 45.3341 46.322 45.7723C46.8037 46.2105 47.379 46.5332 48.004 46.716C48.6291 46.8987 49.2876 46.9368 49.9295 46.8271C50.5714 46.7175 51.18 46.4632 51.709 46.0833C51.3127 50.0381 45.3845 49.2307 44.9428 45.3853C43.0804 48.655 38.9852 47.7185 37.7869 43.7133L38.2918 41.5469Z" fill="#F8C300"/>
<path d="M33.3131 48.5688C32.486 50.3544 30.8328 50.6611 29.3867 49.2198C29.3867 49.2198 29.968 48.809 30.5903 48.6958C30.4736 48.1992 30.7129 47.5122 31.0502 47.1406C31.4039 47.3823 31.8974 47.8668 32.023 48.4298C32.8947 48.317 33.3131 48.5688 33.3131 48.5688Z" fill="#F8C300"/>
<path d="M39.7831 48.3687C38.6763 49.9958 36.9952 50.0293 35.8031 48.3717C35.8031 48.3717 36.4435 48.0611 37.076 48.0507C37.0417 47.5417 37.3896 46.9028 37.7829 46.5911C38.0925 46.8872 38.5006 47.4456 38.5328 48.0215C39.4113 48.0521 39.7831 48.3687 39.7831 48.3687Z" fill="#F8C300"/>
<path d="M46.2008 49.2233C44.8439 50.6485 43.1798 50.4078 42.2734 48.5783C42.2734 48.5783 42.9559 48.3761 43.5816 48.4688C43.6306 47.961 44.0779 47.3873 44.5167 47.1438C44.7739 47.4863 45.0857 48.1037 45.0237 48.6772C45.8855 48.8504 46.2008 49.2233 46.2008 49.2233Z" fill="#F8C300"/>
<path d="M27.25 52.5537C34.122 50.5081 41.4409 50.5081 48.3129 52.5537" stroke="#F8C300" stroke-width="13.7143"/>
<path d="M35.2002 25.8755H40.3631L36.1862 28.9102L37.7816 24L39.3771 28.9102L35.2002 25.8755Z" fill="#F8C300"/>
<path d="M27.5996 27.9107H32.7625L28.5856 30.9453L30.181 26.0352L31.7765 30.9453L27.5996 27.9107Z" fill="#F8C300"/>
<path d="M22.0361 33.4732H27.199L23.0222 36.5078L24.6176 31.5977L26.213 36.5078L22.0361 33.4732Z" fill="#F8C300"/>
<path d="M20 41.0747H25.1629L20.986 44.1094L22.5814 39.1992L24.1769 44.1094L20 41.0747Z" fill="#F8C300"/>
<path d="M47.9629 27.9146H42.8L46.9769 30.9493L45.3815 26.0391L43.786 30.9493L47.9629 27.9146Z" fill="#F8C300"/>
<path d="M53.5264 33.4771H48.3635L52.5403 36.5118L50.9449 31.6016L49.3495 36.5118L53.5264 33.4771Z" fill="#F8C300"/>
<path d="M55.5625 41.0787H50.3996L54.5765 44.1133L52.9811 39.2031L51.3856 44.1133L55.5625 41.0787Z" fill="#F8C300"/>
</g>
<defs>
<clipPath id="clip0_1232_4591">
<rect width="76" height="76" rx="38" fill="white"/>
</clipPath>
</defs>
</svg>
