<svg width="23" height="23" viewBox="0 0 23 23" fill="none" xmlns="http://www.w3.org/2000/svg">
<g clip-path="url(#clip0_1232_6263)">
<path d="M-5.75 0H28.75V23H-5.75V0Z" fill="#E30A17"/>
<path d="M13.8861 11.5L19.0872 9.81027L15.8726 14.2343V8.76568L19.0872 13.1897L13.8861 11.5ZM14.2407 14.5747C13.5745 15.6274 12.5845 16.4353 11.4195 16.8768C10.2546 17.3183 8.97777 17.3695 7.78121 17.0227C6.58465 16.6759 5.53309 15.9499 4.78477 14.9539C4.03644 13.9579 3.63184 12.7458 3.63184 11.5C3.63184 10.2542 4.03644 9.0421 4.78477 8.0461C5.53309 7.05009 6.58465 6.32407 7.78121 5.97727C8.97777 5.63048 10.2546 5.68168 11.4195 6.12317C12.5845 6.56466 13.5745 7.37256 14.2407 8.42528C13.6186 7.73305 12.8012 7.24579 11.8964 7.02787C10.9915 6.80996 10.0419 6.87163 9.17285 7.20474C8.30382 7.53785 7.55627 8.12674 7.02893 8.89362C6.5016 9.6605 6.21929 10.5693 6.21929 11.5C6.21929 12.4307 6.5016 13.3395 7.02893 14.1064C7.55627 14.8733 8.30382 15.4621 9.17285 15.7953C10.0419 16.1284 10.9915 16.19 11.8964 15.9721C12.8012 15.7542 13.6186 15.267 14.2407 14.5747Z" fill="white"/>
</g>
<defs>
<clipPath id="clip0_1232_6263">
<rect width="23" height="23" rx="11.5" fill="white"/>
</clipPath>
</defs>
</svg>
