<svg width="23" height="23" viewBox="0 0 23 23" fill="none" xmlns="http://www.w3.org/2000/svg">
<g clip-path="url(#clip0_1232_6264)">
<path d="M0 0H46V23H0V0Z" fill="#1EB53A"/>
<path d="M0 0H46V11.5H0V0Z" fill="#0099B5"/>
<path d="M0 7.35938H46V15.6394H0V7.35938Z" fill="#CE1126"/>
<path d="M0 7.82031H46V15.1803H0V7.82031Z" fill="white"/>
<path d="M8.09588 6.265C9.23911 6.265 10.1659 5.33823 10.1659 4.195C10.1659 3.05177 9.23911 2.125 8.09588 2.125C6.95265 2.125 6.02588 3.05177 6.02588 4.195C6.02588 5.33823 6.95265 6.265 8.09588 6.265Z" fill="white"/>
<path d="M8.78631 6.265C9.92954 6.265 10.8563 5.33823 10.8563 4.195C10.8563 3.05177 9.92954 2.125 8.78631 2.125C7.64308 2.125 6.71631 3.05177 6.71631 4.195C6.71631 5.33823 7.64308 6.265 8.78631 6.265Z" fill="#0099B5"/>
<path d="M12.6294 5.41797L12.5019 5.81048L12.6981 5.87424" fill="white"/>
<path d="M12.6294 5.41797L12.7569 5.81048L12.5607 5.87424" fill="white"/>
<path d="M13.0215 5.70312L12.6088 5.70312L12.6088 5.90948" fill="white"/>
<path d="M13.0215 5.70312L12.6876 5.94571L12.5663 5.77876" fill="white"/>
<path d="M12.2363 5.70312L12.5702 5.94571L12.6915 5.77876" fill="white"/>
<path d="M12.2363 5.70312L12.649 5.70313L12.649 5.90948" fill="white"/>
<path d="M12.8721 6.16797L12.7445 5.77546L12.5483 5.83923" fill="white"/>
<path d="M12.8721 6.16797L12.5382 5.92539L12.6595 5.75844" fill="white"/>
<path d="M12.3867 6.16406L12.7206 5.92148L12.5993 5.75454" fill="white"/>
<path d="M12.3867 6.16406L12.5143 5.77156L12.7105 5.83532" fill="white"/>
<path d="M12.6294 3.76953L12.5019 4.16204L12.6981 4.2258" fill="white"/>
<path d="M12.6294 3.76953L12.7569 4.16204L12.5607 4.2258" fill="white"/>
<path d="M13.0215 4.05469L12.6088 4.05469L12.6088 4.26104" fill="white"/>
<path d="M13.0215 4.05469L12.6876 4.29727L12.5663 4.13033" fill="white"/>
<path d="M12.2363 4.05469L12.5702 4.29727L12.6915 4.13033" fill="white"/>
<path d="M12.2363 4.05469L12.649 4.05469L12.649 4.26104" fill="white"/>
<path d="M12.8721 4.51953L12.7445 4.12702L12.5483 4.19079" fill="white"/>
<path d="M12.8721 4.51953L12.5382 4.27695L12.6595 4.11001" fill="white"/>
<path d="M12.3872 4.51562L12.7211 4.27304L12.5998 4.1061" fill="white"/>
<path d="M12.3872 4.51562L12.5147 4.12312L12.711 4.18688" fill="white"/>
<path d="M12.6294 2.11719L12.5019 2.50969L12.6981 2.57346" fill="white"/>
<path d="M12.6294 2.11719L12.7569 2.50969L12.5607 2.57346" fill="white"/>
<path d="M13.0215 2.40234L12.6088 2.40234L12.6088 2.6087" fill="white"/>
<path d="M13.0215 2.40234L12.6876 2.64493L12.5663 2.47798" fill="white"/>
<path d="M12.2363 2.40234L12.5702 2.64493L12.6915 2.47798" fill="white"/>
<path d="M12.2363 2.40234L12.649 2.40234L12.649 2.6087" fill="white"/>
<path d="M12.8721 2.86719L12.7445 2.47468L12.5483 2.53845" fill="white"/>
<path d="M12.8721 2.86719L12.5382 2.6246L12.6595 2.45766" fill="white"/>
<path d="M12.3867 2.86328L12.7206 2.6207L12.5993 2.45376" fill="white"/>
<path d="M12.3867 2.86328L12.5143 2.47077L12.7105 2.53454" fill="white"/>
<path d="M14.2798 5.41797L14.1523 5.81048L14.3485 5.87424" fill="white"/>
<path d="M14.2798 5.41797L14.4073 5.81048L14.2111 5.87424" fill="white"/>
<path d="M14.6719 5.70312L14.2592 5.70312L14.2592 5.90948" fill="white"/>
<path d="M14.6719 5.70312L14.338 5.94571L14.2167 5.77876" fill="white"/>
<path d="M13.8872 5.70312L14.2211 5.94571L14.3424 5.77876" fill="white"/>
<path d="M13.8872 5.70312L14.2999 5.70313L14.2999 5.90948" fill="white"/>
<path d="M14.5225 6.16797L14.3949 5.77546L14.1987 5.83923" fill="white"/>
<path d="M14.5225 6.16797L14.1886 5.92539L14.3099 5.75844" fill="white"/>
<path d="M14.0376 6.16406L14.3715 5.92148L14.2502 5.75454" fill="white"/>
<path d="M14.0376 6.16406L14.1651 5.77156L14.3614 5.83532" fill="white"/>
<path d="M14.2798 3.76953L14.1523 4.16204L14.3485 4.2258" fill="white"/>
<path d="M14.2798 3.76953L14.4073 4.16204L14.2111 4.2258" fill="white"/>
<path d="M14.6719 4.05469L14.2592 4.05469L14.2592 4.26104" fill="white"/>
<path d="M14.6719 4.05469L14.338 4.29727L14.2167 4.13033" fill="white"/>
<path d="M13.8872 4.05469L14.2211 4.29727L14.3424 4.13033" fill="white"/>
<path d="M13.8872 4.05469L14.2999 4.05469L14.2999 4.26104" fill="white"/>
<path d="M14.5225 4.51953L14.3949 4.12702L14.1987 4.19079" fill="white"/>
<path d="M14.5225 4.51953L14.1886 4.27695L14.3099 4.11001" fill="white"/>
<path d="M14.0376 4.51562L14.3715 4.27304L14.2502 4.1061" fill="white"/>
<path d="M14.0376 4.51562L14.1651 4.12312L14.3614 4.18688" fill="white"/>
<path d="M14.2798 2.11719L14.1523 2.50969L14.3485 2.57346" fill="white"/>
<path d="M14.2798 2.11719L14.4073 2.50969L14.2111 2.57346" fill="white"/>
<path d="M14.6719 2.40234L14.2592 2.40234L14.2592 2.6087" fill="white"/>
<path d="M14.6719 2.40234L14.338 2.64493L14.2167 2.47798" fill="white"/>
<path d="M13.8872 2.40234L14.2211 2.64493L14.3424 2.47798" fill="white"/>
<path d="M13.8872 2.40234L14.2999 2.40234L14.2999 2.6087" fill="white"/>
<path d="M14.5225 2.86719L14.3949 2.47468L14.1987 2.53845" fill="white"/>
<path d="M14.5225 2.86719L14.1886 2.6246L14.3099 2.45766" fill="white"/>
<path d="M14.0376 2.86328L14.3715 2.6207L14.2502 2.45376" fill="white"/>
<path d="M14.0376 2.86328L14.1651 2.47077L14.3614 2.53454" fill="white"/>
<path d="M15.9312 5.41797L15.8036 5.81048L15.9999 5.87424" fill="white"/>
<path d="M15.9312 5.41797L16.0587 5.81048L15.8624 5.87424" fill="white"/>
<path d="M16.3232 5.70312L15.9105 5.70312L15.9105 5.90948" fill="white"/>
<path d="M16.3232 5.70312L15.9894 5.94571L15.8681 5.77876" fill="white"/>
<path d="M15.5381 5.70312L15.872 5.94571L15.9933 5.77876" fill="white"/>
<path d="M15.5381 5.70312L15.9508 5.70313L15.9508 5.90948" fill="white"/>
<path d="M16.1738 6.16797L16.0463 5.77546L15.85 5.83923" fill="white"/>
<path d="M16.1738 6.16797L15.8399 5.92539L15.9612 5.75844" fill="white"/>
<path d="M15.6885 6.16406L16.0224 5.92148L15.9011 5.75454" fill="white"/>
<path d="M15.6885 6.16406L15.816 5.77156L16.0123 5.83532" fill="white"/>
<path d="M15.9312 3.76953L15.8036 4.16204L15.9999 4.2258" fill="white"/>
<path d="M15.9312 3.76953L16.0587 4.16204L15.8624 4.2258" fill="white"/>
<path d="M16.3232 4.05469L15.9105 4.05469L15.9105 4.26104" fill="white"/>
<path d="M16.3232 4.05469L15.9894 4.29727L15.8681 4.13033" fill="white"/>
<path d="M15.5381 4.05469L15.872 4.29727L15.9933 4.13033" fill="white"/>
<path d="M15.5381 4.05469L15.9508 4.05469L15.9508 4.26104" fill="white"/>
<path d="M16.1738 4.51953L16.0463 4.12702L15.85 4.19079" fill="white"/>
<path d="M16.1738 4.51953L15.8399 4.27695L15.9612 4.11001" fill="white"/>
<path d="M15.6885 4.51562L16.0224 4.27304L15.9011 4.1061" fill="white"/>
<path d="M15.6885 4.51562L15.816 4.12312L16.0123 4.18688" fill="white"/>
<path d="M15.9312 2.11719L15.8036 2.50969L15.9999 2.57346" fill="white"/>
<path d="M15.9312 2.11719L16.0587 2.50969L15.8624 2.57346" fill="white"/>
<path d="M16.3232 2.40234L15.9105 2.40234L15.9105 2.6087" fill="white"/>
<path d="M16.3232 2.40234L15.9894 2.64493L15.8681 2.47798" fill="white"/>
<path d="M15.5381 2.40234L15.872 2.64493L15.9933 2.47798" fill="white"/>
<path d="M15.5381 2.40234L15.9508 2.40234L15.9508 2.6087" fill="white"/>
<path d="M16.1738 2.86719L16.0463 2.47468L15.85 2.53845" fill="white"/>
<path d="M16.1738 2.86719L15.8399 2.6246L15.9612 2.45766" fill="white"/>
<path d="M15.6885 2.86328L16.0224 2.6207L15.9011 2.45376" fill="white"/>
<path d="M15.6885 2.86328L15.816 2.47077L16.0123 2.53454" fill="white"/>
<path d="M9.32764 5.41797L9.2001 5.81048L9.39636 5.87424" fill="white"/>
<path d="M9.32764 5.41797L9.45517 5.81048L9.25892 5.87424" fill="white"/>
<path d="M9.71973 5.70312L9.30702 5.70312L9.30702 5.90948" fill="white"/>
<path d="M9.71973 5.70312L9.38584 5.94571L9.26455 5.77876" fill="white"/>
<path d="M8.93457 5.70312L9.26846 5.94571L9.38975 5.77876" fill="white"/>
<path d="M8.93457 5.70312L9.34728 5.70313L9.34728 5.90948" fill="white"/>
<path d="M9.57031 6.16797L9.44278 5.77546L9.24653 5.83923" fill="white"/>
<path d="M9.57031 6.16797L9.23643 5.92539L9.35772 5.75844" fill="white"/>
<path d="M9.08545 6.16406L9.41934 5.92148L9.29804 5.75454" fill="white"/>
<path d="M9.08545 6.16406L9.21298 5.77156L9.40924 5.83532" fill="white"/>
<path d="M10.9785 5.41797L10.851 5.81048L11.0472 5.87424" fill="white"/>
<path d="M10.9785 5.41797L11.106 5.81048L10.9098 5.87424" fill="white"/>
<path d="M11.3706 5.70312L10.9579 5.70312L10.9579 5.90948" fill="white"/>
<path d="M11.3706 5.70312L11.0367 5.94571L10.9154 5.77876" fill="white"/>
<path d="M10.5854 5.70312L10.9193 5.94571L11.0406 5.77876" fill="white"/>
<path d="M10.5854 5.70312L10.9982 5.70313L10.9982 5.90948" fill="white"/>
<path d="M11.2212 6.16797L11.0937 5.77546L10.8974 5.83923" fill="white"/>
<path d="M11.2212 6.16797L10.8873 5.92539L11.0086 5.75844" fill="white"/>
<path d="M10.7363 6.16406L11.0702 5.92148L10.9489 5.75454" fill="white"/>
<path d="M10.7363 6.16406L10.8639 5.77156L11.0601 5.83532" fill="white"/>
<path d="M10.9785 3.76953L10.851 4.16204L11.0472 4.2258" fill="white"/>
<path d="M10.9785 3.76953L11.106 4.16204L10.9098 4.2258" fill="white"/>
<path d="M11.3706 4.05469L10.9579 4.05469L10.9579 4.26104" fill="white"/>
<path d="M11.3706 4.05469L11.0367 4.29727L10.9154 4.13033" fill="white"/>
<path d="M10.5854 4.05469L10.9193 4.29727L11.0406 4.13033" fill="white"/>
<path d="M10.5854 4.05469L10.9982 4.05469L10.9982 4.26104" fill="white"/>
<path d="M11.2207 4.51953L11.0932 4.12702L10.8969 4.19079" fill="white"/>
<path d="M11.2207 4.51953L10.8868 4.27695L11.0081 4.11001" fill="white"/>
<path d="M10.7358 4.51562L11.0697 4.27304L10.9484 4.1061" fill="white"/>
<path d="M10.7358 4.51562L10.8634 4.12312L11.0596 4.18688" fill="white"/>
</g>
<rect x="0.5" y="0.5" width="22" height="22" rx="11" stroke="black" stroke-opacity="0.1"/>
<defs>
<clipPath id="clip0_1232_6264">
<rect width="23" height="23" rx="11.5" fill="white"/>
</clipPath>
</defs>
</svg>
