<svg width="23" height="23" viewBox="0 0 23 23" fill="none" xmlns="http://www.w3.org/2000/svg">
<g clip-path="url(#clip0_1232_6265)">
<g clip-path="url(#clip1_1232_6265)">
<path d="M-5.75 0H28.75V23H-5.75V0Z" fill="black"/>
<path d="M-5.75 0H28.75V15.3333H-5.75V0Z" fill="white"/>
<path d="M-5.75 0H28.75V7.66667H-5.75V0Z" fill="#CE1126"/>
<path d="M11.5308 11.5915L14.1562 14.0287L13.9693 9.60241C13.9418 8.93157 13.3589 9.08548 12.9354 9.32747C12.5064 9.60241 12.017 9.60241 11.5 9.42088C10.9831 9.6024 10.4936 9.6024 10.0646 9.32746C9.64119 9.08549 9.05829 8.93156 9.03077 9.6024L8.84375 14.0287L11.5308 11.5915Z" fill="white" stroke="#C09300" stroke-width="0.574685" stroke-linejoin="round"/>
<path d="M9.33273 9.44922L9.15127 13.7548L8.84326 14.0296L9.03029 9.60324C9.11823 9.54275 9.27229 9.44926 9.33273 9.44926V9.44922ZM9.7015 9.75742L9.54752 13.359L9.23963 13.6741L9.42658 9.51535C9.48711 9.5758 9.66862 9.72426 9.70151 9.75723L9.7015 9.75742ZM10.0369 10.0323L9.91598 13.0361L9.66854 13.278L9.82256 9.8508C9.8829 9.9113 10.0039 9.99931 10.0369 10.0323ZM10.3999 10.1864L10.2789 12.7465L10.0369 12.9428L10.1579 10.0929C10.2185 10.1204 10.3394 10.1864 10.3999 10.1864ZM10.7354 10.1864L10.6473 12.3199L10.3999 12.5619L10.4934 10.2139C10.5538 10.2139 10.7078 10.2139 10.7354 10.1864Z" fill="#C09300"/>
<path d="M13.6668 9.44922L13.8482 13.7548L14.1562 14.0296L13.9692 9.60324C13.8813 9.54275 13.7272 9.44926 13.6668 9.44926V9.44922ZM13.298 9.75742L13.452 13.359L13.7599 13.6741L13.5729 9.51535C13.5124 9.5758 13.3309 9.72426 13.298 9.75723L13.298 9.75742ZM12.9626 10.0323L13.0835 13.0361L13.331 13.278L13.1769 9.8508C13.1166 9.9113 12.9956 9.99931 12.9626 10.0323ZM12.5996 10.1864L12.7206 12.7465L12.9626 12.9428L12.8416 10.0929C12.7811 10.1204 12.6601 10.1864 12.5996 10.1864ZM12.2642 10.1864L12.3522 12.3199L12.5997 12.5619L12.5061 10.2139C12.4457 10.2139 12.2917 10.2139 12.2642 10.1864Z" fill="#C09300"/>
<path d="M11.6207 12.0781L11.9892 13.7554L11.8682 13.8764L11.7417 13.7829L11.5327 12.2872L11.6207 13.7829L11.4997 13.9368L11.3787 13.7829L11.4667 12.2872L11.2578 13.7829L11.1312 13.8764L11.0103 13.7554L11.3787 12.0781L11.6207 12.0781Z" fill="#C09300" stroke="#C09300" stroke-width="0.485794"/>
<path d="M10.6748 11.3399L9.94336 13.9352L10.9498 14.0892L11.3787 12.1371L10.6748 11.3398L10.6748 11.3399Z" fill="white" stroke="#C09300" stroke-width="0.537884" stroke-linejoin="round"/>
<path d="M10.4326 12.2242L10.5206 12.4386L10.9961 11.9844" stroke="#C09300" stroke-width="0.574474" stroke-linejoin="round"/>
<path d="M10.7622 11.6875L10.8617 12.6208L11.1642 12.2248M11.0432 12.3786L11.2084 12.9489M11.2732 12.7394L10.939 13.2469M11.0433 13.7535L10.9363 13.2476L10.8429 12.7331L10.619 13.0362L10.5209 12.6867L10.2075 13.0081L10.3669 13.5927L10.5868 13.2311L10.7078 13.5995L10.9336 13.2483M10.1577 13.8744L10.3609 13.5891L10.4932 14.0283L10.6747 13.7203L10.7957 14.0889" stroke="#C09300" stroke-width="0.574474" stroke-linejoin="round"/>
<path d="M12.3247 11.3399L13.0562 13.9352L12.0497 14.0892L11.6208 12.1371L12.3248 11.3398L12.3247 11.3399Z" fill="white" stroke="#C09300" stroke-width="0.537884" stroke-linejoin="round"/>
<path d="M12.5664 12.2242L12.4784 12.4386L12.0029 11.9844" stroke="#C09300" stroke-width="0.574474" stroke-linejoin="round"/>
<path d="M12.2373 11.6875L12.1378 12.6208L11.8353 12.2248M11.9563 12.3786L11.7911 12.9489M11.7263 12.7394L12.0605 13.2469M11.9563 13.7535L12.0632 13.2476L12.1566 12.7331L12.3805 13.0362L12.4787 12.6867L12.792 13.0081L12.6326 13.5927L12.4127 13.2311L12.2917 13.5995L12.0659 13.2483M12.8418 13.8744L12.6386 13.5891L12.5063 14.0283L12.3248 13.7203L12.2038 14.0889" stroke="#C09300" stroke-width="0.574474" stroke-linejoin="round"/>
<path d="M11.4999 15.0986C12.2644 15.0986 12.9958 15.0382 13.4247 14.9172C13.6063 14.8842 13.6063 14.7908 13.6063 14.6697C13.7878 14.6092 13.6942 14.3949 13.8207 14.3949C13.6942 14.4279 13.6668 14.1804 13.5128 14.2135C13.5128 13.9989 13.2983 13.9715 13.1168 14.0319C12.7538 14.1529 12.1104 14.1804 11.4999 14.1804C10.8895 14.1529 10.2515 14.1529 9.88304 14.0319C9.70156 13.9715 9.48717 13.9989 9.48717 14.2135C9.33314 14.1804 9.30565 14.4279 9.1792 14.3949C9.30565 14.3949 9.21214 14.6092 9.39364 14.6697C9.39364 14.7908 9.39364 14.8842 9.58062 14.9172C10.004 15.0382 10.7355 15.0986 11.4999 15.0986H11.4999Z" fill="white" stroke="#C09300" stroke-width="1.07577" stroke-linejoin="round"/>
<path d="M10.4611 13.938C10.7085 13.971 10.9835 13.9985 11.1981 13.971C11.3189 13.971 11.407 14.1799 11.165 14.213C10.9506 14.2404 10.6151 14.213 10.4336 14.1799C10.2796 14.1524 9.94416 14.092 9.72965 14.0314C9.51518 13.938 9.66923 13.7566 9.79011 13.784C9.97713 13.8445 10.2191 13.905 10.4611 13.938L10.4611 13.938ZM12.5399 13.938C12.2924 13.971 12.0175 13.9985 11.8085 13.971C11.682 13.971 11.594 14.1799 11.836 14.213C12.0505 14.2404 12.3859 14.213 12.5673 14.1799C12.7214 14.1524 13.0568 14.092 13.2712 14.0314C13.4858 13.938 13.3318 13.7566 13.2108 13.784C13.0238 13.8445 12.7818 13.905 12.5399 13.938Z" fill="white" stroke="#C09300" stroke-width="0.574474" stroke-linejoin="round"/>
<path d="M9.70209 13.8159C9.51514 13.7829 9.42715 13.9973 9.48771 14.1182C9.51517 14.0578 9.64166 14.0578 9.6692 13.9973C9.70209 13.9039 9.64166 13.9039 9.70209 13.8159ZM10.4335 14.3783C10.4335 14.2574 10.5544 14.2723 10.5544 14.1513C10.5544 14.0908 10.5215 13.9973 10.461 13.9973C10.4005 13.9973 10.34 14.0578 10.34 14.1182C10.3124 14.2392 10.4335 14.2574 10.4335 14.3783ZM11.304 14.0302C11.4854 14.0302 11.4674 14.2722 11.3794 14.3932C11.3794 14.3052 11.2254 14.2722 11.2254 14.2118C11.2254 14.1182 11.3644 14.1182 11.304 14.0302ZM13.2985 13.8159C13.4855 13.7829 13.5735 13.9973 13.513 14.1182C13.4855 14.0578 13.359 14.0578 13.3315 13.9973C13.2985 13.9039 13.359 13.9039 13.2985 13.8159ZM12.5671 14.3783C12.5671 14.2574 12.4463 14.2723 12.4463 14.1513C12.4463 14.0908 12.4792 13.9973 12.5397 13.9973C12.6002 13.9973 12.6607 14.0578 12.6607 14.1182C12.6882 14.2392 12.5671 14.2574 12.5671 14.3783ZM11.6966 14.0302C11.5152 14.0302 11.5332 14.2722 11.6212 14.3932C11.6212 14.3052 11.7751 14.2722 11.7751 14.2118C11.7751 14.1182 11.6361 14.1182 11.6966 14.0302Z" fill="white" stroke="#C09300" stroke-width="0.574474" stroke-linejoin="round"/>
<path d="M9.76239 13.879C9.82295 13.879 9.91639 13.9065 9.94391 13.9395L9.76221 13.8789L9.76239 13.879ZM10.0645 13.9726C10.0975 13.9726 10.2185 14 10.279 14.0329L10.0643 13.9724L10.0645 13.9726ZM11.1646 14.0933C11.1041 14.0933 10.9831 14.0933 10.9502 14.1207L11.1645 14.0931L11.1646 14.0933ZM10.8292 14.0933C10.7963 14.0602 10.6752 14.0602 10.6148 14.0933H10.8291H10.8292ZM13.2381 13.879C13.1776 13.879 13.0895 13.9065 13.0565 13.9395L13.2381 13.879ZM12.9356 13.9726C12.9026 13.9726 12.7816 14 12.7211 14.0329L12.9358 13.9724L12.9356 13.9726ZM11.8354 14.0933C11.896 14.0933 12.017 14.0933 12.0499 14.1207L11.8353 14.0931L11.8354 14.0933ZM12.1709 14.0933C12.2038 14.0602 12.3249 14.0602 12.3853 14.0933H12.1707H12.1709Z" fill="white" stroke="#C09300" stroke-width="0.403018" stroke-linejoin="round"/>
<path d="M9.7112 14.3596C9.69073 14.3557 9.67998 14.3395 9.68513 14.3204C9.69141 14.297 9.71011 14.2836 9.72778 14.2899C9.73902 14.2939 9.75959 14.3146 9.75968 14.322C9.75978 14.3306 9.74891 14.3509 9.74424 14.3509C9.74222 14.351 9.73909 14.3527 9.73728 14.3548C9.73345 14.3594 9.72144 14.3616 9.7112 14.3596ZM11.8168 14.5099C11.8092 14.5071 11.7971 14.49 11.7971 14.4821C11.7972 14.4673 11.8191 14.4431 11.8327 14.443C11.8394 14.443 11.8578 14.4525 11.8647 14.4596C11.8771 14.4726 11.8744 14.4939 11.8588 14.506C11.8511 14.5119 11.8281 14.5141 11.8169 14.5099L11.8168 14.5099ZM11.8306 14.605C11.8145 14.5995 11.8086 14.5916 11.8073 14.5738C11.806 14.5552 11.8078 14.5523 11.8274 14.5415L11.8415 14.5339L11.8547 14.5398C11.8731 14.548 11.8813 14.5569 11.882 14.5692C11.8827 14.5826 11.8728 14.5962 11.8574 14.6031C11.844 14.6091 11.8431 14.6092 11.8306 14.605ZM9.88025 14.1875C9.86698 14.1871 9.84877 14.1993 9.83832 14.2055C9.81344 14.2113 9.78448 14.2266 9.76046 14.2103C9.7368 14.203 9.70533 14.2087 9.70176 14.2378C9.70783 14.2628 9.74284 14.2771 9.76405 14.2606C9.7798 14.24 9.82276 14.2279 9.82754 14.263C9.81003 14.2895 9.81202 14.3246 9.7976 14.3528C9.79525 14.3704 9.78795 14.387 9.77843 14.4019C9.76071 14.4037 9.74187 14.4016 9.72692 14.4127C9.70292 14.414 9.67844 14.426 9.66462 14.4463C9.64917 14.4684 9.6344 14.4909 9.62988 14.5181C9.63399 14.5459 9.66582 14.5539 9.68978 14.5553C9.71534 14.5623 9.74093 14.5715 9.76645 14.5792C9.80805 14.5885 9.84703 14.6036 9.88864 14.6128C9.94937 14.6311 10.0131 14.6395 10.0743 14.6559C10.0807 14.658 10.0867 14.6599 10.0935 14.6607C10.1189 14.666 10.1321 14.6383 10.1342 14.6176C10.1468 14.5731 10.1564 14.5279 10.1689 14.4834C10.1776 14.4655 10.188 14.4252 10.1534 14.4343C10.1336 14.4461 10.1169 14.4639 10.0923 14.4654C10.0588 14.4674 10.0779 14.5017 10.0911 14.5157C10.094 14.5383 10.0869 14.5651 10.0719 14.5828C10.052 14.5955 10.027 14.5807 10.006 14.5756C9.984 14.576 9.93997 14.5648 9.96051 14.5349C9.9678 14.5128 9.96845 14.4886 9.97728 14.4666C9.98853 14.4431 9.99014 14.4174 9.99524 14.3924C9.98139 14.3626 9.95773 14.4022 9.93895 14.4055C9.926 14.4145 9.87741 14.4183 9.90301 14.4415C9.92506 14.4582 9.90815 14.4873 9.9042 14.5086C9.90279 14.5381 9.87209 14.5451 9.8479 14.5385C9.82384 14.5373 9.79035 14.5194 9.81077 14.493C9.81541 14.4709 9.82311 14.4493 9.82754 14.4271L9.8539 14.348C9.85805 14.3243 9.86659 14.3017 9.87784 14.2809C9.87851 14.2547 9.89616 14.2321 9.89581 14.2055C9.89403 14.1925 9.88821 14.1878 9.88025 14.1875ZM9.74249 14.4654C9.74562 14.4649 9.74785 14.4654 9.75087 14.4666C9.76044 14.4707 9.76073 14.4785 9.75087 14.487C9.74657 14.4907 9.74167 14.4943 9.74009 14.4942C9.72217 14.4926 9.71688 14.49 9.71614 14.4834C9.71547 14.4776 9.71731 14.4759 9.72931 14.4702C9.73527 14.4674 9.73936 14.466 9.74249 14.4654ZM9.70277 14.6579C9.68375 14.64 9.68682 14.6269 9.71493 14.606C9.72696 14.597 9.73426 14.598 9.74802 14.6106C9.76919 14.6299 9.77004 14.6421 9.75135 14.6587C9.74211 14.6669 9.73807 14.6685 9.72731 14.6687C9.71606 14.6688 9.71287 14.6674 9.70277 14.6579ZM9.81969 14.6931C9.81531 14.6921 9.81119 14.6901 9.80759 14.6874C9.80399 14.6848 9.80098 14.6813 9.79874 14.6774C9.79651 14.6735 9.7951 14.6692 9.7946 14.6647C9.79409 14.6603 9.79451 14.6557 9.79583 14.6514C9.80074 14.6348 9.8036 14.6331 9.82803 14.6329C9.85543 14.6326 9.86075 14.6372 9.86101 14.6613C9.86116 14.6749 9.86012 14.6781 9.85335 14.6843C9.84542 14.6917 9.83016 14.6957 9.81969 14.6931ZM13.2356 14.6962C13.2269 14.689 13.2251 14.6857 13.225 14.6765C13.2249 14.6607 13.234 14.6492 13.2536 14.6403C13.2797 14.6284 13.2904 14.6301 13.3002 14.6474C13.3133 14.6705 13.3127 14.6799 13.297 14.6954C13.2884 14.704 13.2868 14.7045 13.2669 14.7047C13.2475 14.7048 13.2453 14.7043 13.2356 14.6962ZM9.97493 14.7403C9.96099 14.7366 9.95376 14.7261 9.95358 14.7094C9.95342 14.6966 9.95435 14.6945 9.96329 14.6875C9.9691 14.683 9.97825 14.6791 9.98547 14.6781C9.9957 14.6767 9.99944 14.6776 10.0077 14.6834C10.0288 14.6982 10.0333 14.7129 10.021 14.7271C10.008 14.7423 9.99569 14.7458 9.97493 14.7403ZM10.8152 14.7778C10.8121 14.774 10.8053 14.7717 10.8046 14.7668C10.8058 14.7456 10.8068 14.724 10.8136 14.7037C10.8173 14.6836 10.814 14.6627 10.821 14.6431C10.8282 14.6076 10.8282 14.571 10.8364 14.5357C10.8368 14.5175 10.8386 14.4993 10.8438 14.4818C10.8499 14.4541 10.8443 14.4252 10.8525 14.3979C10.8516 14.3876 10.8634 14.3602 10.8738 14.3764C10.8889 14.3985 10.9088 14.4165 10.9283 14.4345C10.9451 14.4442 10.9297 14.4585 10.9181 14.4633C10.9022 14.4695 10.8983 14.4871 10.8994 14.5024C10.8972 14.5183 10.8908 14.5334 10.8902 14.5496C10.8868 14.5734 10.8874 14.5977 10.8843 14.6215C10.8774 14.6449 10.88 14.6698 10.8777 14.6939C10.878 14.7091 10.8708 14.723 10.8718 14.7384C10.8699 14.7539 10.8692 14.7726 10.8561 14.7833C10.8435 14.7897 10.8253 14.7886 10.8152 14.7778H10.8152ZM11.9537 14.4022C11.9352 14.4162 11.9187 14.4327 11.9022 14.4489C11.8795 14.4661 11.9208 14.4761 11.9261 14.4908C11.9322 14.5133 11.9318 14.5372 11.9333 14.5603C11.9402 14.5814 11.9432 14.6039 11.9417 14.6262C11.9397 14.6501 11.9086 14.645 11.895 14.6585C11.8761 14.6665 11.8686 14.685 11.8543 14.6981C11.8448 14.7166 11.8423 14.7393 11.8411 14.7604C11.8424 14.7775 11.8295 14.7967 11.8411 14.8119C11.8426 14.814 11.8444 14.8169 11.8459 14.8191C11.8498 14.8246 11.859 14.8202 11.865 14.8214C11.8843 14.8204 11.9045 14.8233 11.9225 14.8155C11.9689 14.8074 12.0157 14.8068 12.0627 14.8047C12.0914 14.8056 12.1191 14.7956 12.1478 14.7963C12.1702 14.8013 12.1804 14.7769 12.1801 14.7592C12.1674 14.7341 12.1784 14.7044 12.1681 14.6789C12.1591 14.6531 12.1627 14.6242 12.1585 14.5974C12.158 14.5764 12.1313 14.5686 12.1178 14.5843C12.1047 14.5975 12.0836 14.6001 12.0735 14.6166C12.0621 14.6397 12.0975 14.6397 12.1034 14.6573C12.1102 14.6751 12.108 14.6949 12.1094 14.7136C12.1138 14.7363 12.0891 14.7376 12.0735 14.74C12.0529 14.7477 12.024 14.7529 12.0124 14.728C12.0051 14.7096 12.0061 14.69 12.004 14.6705C12.0035 14.6363 11.9953 14.6027 11.9932 14.5687C11.9913 14.5266 11.984 14.4849 11.9813 14.4429C11.9809 14.4255 11.9785 14.397 11.9537 14.4022V14.4022ZM11.9297 14.7184L11.9417 14.7196L11.9429 14.734L11.9441 14.7484L11.9285 14.7532C11.9234 14.7547 11.9182 14.7559 11.913 14.7568C11.9105 14.7553 11.9081 14.7537 11.9058 14.752C11.8974 14.7459 11.8995 14.7372 11.9106 14.7256C11.9168 14.7191 11.9197 14.7178 11.9297 14.7184H11.9297ZM10.7811 14.3627C10.7665 14.3679 10.748 14.3893 10.7332 14.3891C10.6994 14.3914 10.7041 14.4243 10.7284 14.4358C10.7316 14.4457 10.7286 14.4583 10.7296 14.4693C10.7343 14.4996 10.7152 14.5239 10.7188 14.5544C10.7171 14.5877 10.707 14.6202 10.7056 14.6538C10.6961 14.6884 10.696 14.724 10.69 14.7592C10.686 14.7908 10.6632 14.7796 10.6433 14.7712C10.6432 14.7575 10.6423 14.7441 10.6421 14.7305C10.6504 14.6991 10.6252 14.69 10.6002 14.6861C10.5739 14.6886 10.561 14.6661 10.5667 14.643C10.578 14.6296 10.6064 14.6333 10.6242 14.631C10.6618 14.6388 10.6602 14.5884 10.6409 14.5711C10.6277 14.5468 10.595 14.5363 10.5858 14.5112C10.5895 14.478 10.5674 14.4448 10.5403 14.4286C10.4986 14.4257 10.4671 14.4617 10.4517 14.4969C10.4343 14.5019 10.417 14.5071 10.4001 14.5136C10.373 14.5204 10.3342 14.5676 10.3714 14.5855C10.3923 14.5913 10.4557 14.6057 10.4277 14.6346C10.4119 14.6617 10.3817 14.6622 10.3546 14.655C10.3269 14.655 10.296 14.6415 10.2971 14.6095C10.2915 14.5807 10.2924 14.5497 10.2792 14.5232C10.2735 14.491 10.237 14.4986 10.2348 14.528C10.2067 14.5485 10.2105 14.5816 10.23 14.6059C10.2423 14.6338 10.2302 14.6663 10.2181 14.6921C10.2107 14.7257 10.1738 14.7268 10.1474 14.7376C10.1344 14.7427 10.085 14.7347 10.1031 14.7628C10.1319 14.773 10.1664 14.7821 10.1965 14.7748C10.228 14.7709 10.2554 14.7493 10.2708 14.7221C10.292 14.7006 10.3283 14.7118 10.3558 14.7113C10.3854 14.7112 10.4157 14.7321 10.4445 14.7185C10.4528 14.6968 10.4913 14.6611 10.5032 14.6981C10.5011 14.7312 10.5304 14.7489 10.5607 14.7448C10.5938 14.7429 10.5815 14.7682 10.581 14.788C10.5832 14.8238 10.6063 14.8426 10.6361 14.8574C10.6463 14.8602 10.657 14.8593 10.6673 14.8574C10.696 14.8484 10.7268 14.8356 10.7356 14.8035C10.7472 14.7774 10.7475 14.7479 10.7559 14.7209C10.7627 14.6776 10.7715 14.6342 10.7727 14.5903C10.7833 14.5505 10.7802 14.5084 10.7883 14.4681C10.7933 14.4382 10.7971 14.4082 10.8002 14.3783C10.7967 14.3623 10.7898 14.3596 10.7811 14.3627ZM10.5211 14.522C10.5269 14.5227 10.5302 14.5298 10.5307 14.5424C10.5313 14.5563 10.5386 14.5677 10.5475 14.5699C10.5545 14.5717 10.5539 14.5791 10.5463 14.5843C10.5419 14.5873 10.534 14.5892 10.5199 14.5891C10.4978 14.589 10.484 14.5832 10.472 14.5711L10.4648 14.5639L10.4756 14.5567C10.4832 14.5508 10.4904 14.5444 10.4972 14.5376C10.5081 14.5264 10.5153 14.5213 10.5211 14.522ZM13.0523 14.2201C13.0306 14.2211 13.0087 14.2246 12.9888 14.2297C12.949 14.2272 12.9289 14.269 12.9673 14.2896C12.9903 14.3484 13.0263 14.2774 13.0631 14.2824C13.1182 14.2931 13.1229 14.3526 13.1314 14.3974C13.1345 14.4417 13.1473 14.4848 13.1601 14.5268C13.197 14.5678 13.1325 14.5935 13.105 14.5615C13.0816 14.536 13.0314 14.5048 13.0032 14.5399C12.9686 14.5546 12.9672 14.6009 12.9385 14.6142C12.8922 14.6283 12.8863 14.5713 12.8619 14.5471C12.8393 14.5155 12.7963 14.5128 12.7612 14.5016C12.7448 14.4683 12.7534 14.4117 12.7193 14.389C12.6907 14.4007 12.6383 14.4542 12.6822 14.4788C12.725 14.5157 12.6635 14.5325 12.6438 14.5579C12.6158 14.5891 12.6113 14.6321 12.6067 14.6717C12.5584 14.6984 12.549 14.6415 12.5432 14.6058C12.5395 14.5632 12.5035 14.5757 12.4785 14.5914C12.442 14.6062 12.4238 14.6409 12.3983 14.6681C12.3952 14.6929 12.3997 14.7201 12.3995 14.746C12.4078 14.7771 12.4456 14.7625 12.4689 14.7603C12.5065 14.7447 12.5218 14.7844 12.4917 14.8071C12.4713 14.833 12.4066 14.8195 12.4126 14.861C12.4335 14.8634 12.4552 14.8626 12.4761 14.861C12.5179 14.8496 12.5628 14.8201 12.5672 14.7735C12.5727 14.733 12.6311 14.7404 12.663 14.7316C12.7029 14.7201 12.751 14.7171 12.76 14.7675C12.7872 14.7961 12.8462 14.8283 12.8762 14.7891C12.9067 14.7705 12.9213 14.7378 12.9194 14.7028C12.9131 14.6728 12.968 14.6717 12.9816 14.6885C13.0016 14.7214 13.0641 14.7117 13.0943 14.6933C13.1263 14.6696 13.1333 14.6279 13.1793 14.6274C13.2476 14.6069 13.3186 14.5951 13.3853 14.5699C13.4394 14.5581 13.3773 14.524 13.3638 14.504C13.3226 14.4836 13.2868 14.5669 13.2404 14.5256C13.2045 14.4981 13.207 14.446 13.1937 14.4058C13.1846 14.3537 13.1869 14.2937 13.1494 14.2524C13.1236 14.225 13.0886 14.2184 13.0523 14.2201H13.0523ZM12.7912 14.5831C12.796 14.5829 12.8014 14.5853 12.8104 14.5902C12.8271 14.5995 12.8391 14.6149 12.8391 14.6274C12.8391 14.6355 12.837 14.6361 12.8247 14.6418C12.8172 14.6452 12.8086 14.649 12.8056 14.6489C12.7986 14.6489 12.7816 14.6353 12.7816 14.6298C12.7816 14.6275 12.7794 14.6188 12.7768 14.6118C12.7723 14.5995 12.773 14.5997 12.7792 14.5914C12.7832 14.5862 12.7864 14.5832 12.7912 14.5831ZM13.0416 14.5962C13.0558 14.5953 13.0643 14.5998 13.0703 14.6106C13.0773 14.6232 13.0725 14.6329 13.0547 14.6406C13.0469 14.6439 13.0391 14.6467 13.0379 14.6465C13.0368 14.6464 13.0303 14.6426 13.0236 14.6382C13.0132 14.6313 13.0117 14.6281 13.0116 14.6202C13.0115 14.6081 13.025 14.5973 13.0415 14.5962H13.0416ZM12.6989 14.5998C12.7031 14.5992 12.7069 14.6014 12.7121 14.6058C12.719 14.6117 12.7212 14.6165 12.7229 14.6286C12.7241 14.637 12.7239 14.6478 12.7229 14.6525C12.721 14.6612 12.7209 14.6608 12.7013 14.6609C12.6768 14.6612 12.6745 14.6585 12.675 14.6358C12.6753 14.6213 12.6754 14.6174 12.6834 14.6094C12.6895 14.6032 12.6948 14.6005 12.6989 14.5998ZM12.4881 14.6549C12.4958 14.6567 12.503 14.6625 12.5049 14.6717C12.5074 14.6839 12.5052 14.6894 12.4953 14.6945C12.4868 14.6988 12.4672 14.7002 12.4618 14.6969C12.46 14.6958 12.4564 14.6929 12.4546 14.6897C12.452 14.685 12.4524 14.6828 12.4558 14.6801C12.4581 14.6782 12.4606 14.6755 12.4606 14.6741C12.4605 14.6727 12.4631 14.6679 12.4665 14.6633C12.4721 14.6559 12.4805 14.6531 12.4881 14.6549ZM12.8427 14.7005C12.8495 14.7004 12.8553 14.7028 12.8595 14.7064C12.8666 14.7127 12.8663 14.7218 12.8583 14.728C12.8531 14.732 12.8248 14.7316 12.8151 14.728C12.8108 14.7264 12.8092 14.7242 12.8092 14.7196C12.8091 14.7142 12.8106 14.7109 12.8199 14.7064C12.8278 14.7027 12.8359 14.7005 12.8427 14.7005H12.8427ZM12.1845 14.8852C12.1808 14.8828 12.1754 14.8807 12.1808 14.8767C12.1874 14.8651 12.2007 14.8611 12.2124 14.8568C12.2334 14.8477 12.2516 14.8322 12.2651 14.8139C12.267 14.8011 12.2813 14.7942 12.2813 14.7809C12.2814 14.7626 12.2825 14.744 12.278 14.7262C12.2731 14.7099 12.2607 14.6974 12.2463 14.6889C12.2365 14.6811 12.2205 14.679 12.2169 14.6653C12.2149 14.6522 12.2266 14.6422 12.2307 14.6305C12.2393 14.6143 12.2465 14.5974 12.2557 14.5816C12.2656 14.5706 12.2809 14.581 12.286 14.5916C12.2933 14.6023 12.2997 14.6137 12.3033 14.626C12.3149 14.6388 12.3252 14.6537 12.3293 14.6706C12.335 14.6825 12.344 14.6937 12.3435 14.7076C12.3435 14.7236 12.3525 14.7378 12.352 14.7539C12.3525 14.7753 12.3525 14.7977 12.3446 14.818C12.3392 14.8293 12.3285 14.836 12.3214 14.8461C12.3091 14.8574 12.2957 14.8683 12.28 14.8743C12.2689 14.8779 12.2625 14.8906 12.2486 14.8875C12.2288 14.8879 12.2088 14.8906 12.1893 14.8874C12.1905 14.8895 12.1833 14.8839 12.1845 14.8852V14.8852ZM11.9219 14.9024C11.9126 14.8929 11.9106 14.8888 11.9105 14.8794C11.9104 14.8699 11.9122 14.8662 11.9213 14.857C11.9381 14.84 11.9463 14.8396 11.9753 14.8543C12.003 14.8683 12.0124 14.8696 12.0149 14.8596C12.0173 14.85 12.0332 14.8413 12.0484 14.8412C12.058 14.8411 12.0634 14.843 12.0711 14.849C12.0807 14.8565 12.0812 14.8577 12.0814 14.875C12.0816 14.8928 12.0813 14.8935 12.0703 14.9033C12.0596 14.9126 12.0579 14.9132 12.0448 14.9119C12.028 14.9102 12.018 14.9025 12.0152 14.8893C12.0132 14.8797 12.0099 14.8774 12.0074 14.8839C12.0066 14.886 12.0024 14.8886 11.9982 14.8897C11.9904 14.8917 11.9772 14.9 11.9678 14.9089C11.9642 14.9122 11.958 14.9138 11.9479 14.9139C11.9342 14.914 11.9323 14.9132 11.9219 14.9024H11.9219ZM11.1621 14.5613C11.1366 14.5615 11.1092 14.583 11.1058 14.608C11.1116 14.6368 11.1356 14.6651 11.1202 14.6954C11.1308 14.7343 11.091 14.749 11.0639 14.7266C11.0475 14.6893 11.0392 14.6485 11.0148 14.6152C10.9839 14.6064 10.9705 14.6557 10.9489 14.6727C10.9596 14.7016 10.9909 14.7276 10.9944 14.7637C11.0019 14.7988 10.9806 14.8377 10.9501 14.8559C10.9238 14.881 10.8878 14.8721 10.8554 14.8775C10.8162 14.9005 10.8843 14.9088 10.9022 14.9099C10.9423 14.9139 10.984 14.9086 11.0136 14.8787C11.0431 14.8646 11.0408 14.8136 11.0759 14.808C11.1367 14.8053 11.1971 14.8174 11.2579 14.8188C11.2905 14.8266 11.3409 14.8149 11.3634 14.8392C11.3634 14.8816 11.3994 14.9078 11.434 14.9242C11.4532 14.9295 11.4733 14.9058 11.4927 14.9015C11.5297 14.8897 11.5185 14.8439 11.5407 14.826C11.6039 14.8226 11.6678 14.8233 11.7311 14.8224C11.7432 14.8227 11.7467 14.8055 11.7551 14.7984C11.7537 14.774 11.7528 14.7497 11.7491 14.7254C11.7369 14.6945 11.7511 14.6547 11.7287 14.6283C11.6969 14.6197 11.6698 14.6488 11.6377 14.6511C11.6022 14.6669 11.5723 14.6997 11.5706 14.7397C11.5496 14.7741 11.5159 14.7336 11.5275 14.705C11.5262 14.6925 11.5302 14.678 11.5263 14.6667C11.5068 14.6434 11.4728 14.651 11.446 14.6475C11.407 14.6491 11.3689 14.6406 11.3298 14.6415C11.2956 14.6389 11.26 14.6445 11.2268 14.6355C11.1873 14.6344 11.1927 14.5957 11.1861 14.5684C11.1791 14.5632 11.1706 14.5612 11.1621 14.5613ZM11.2388 14.7026C11.2519 14.7029 11.2643 14.7046 11.2771 14.7062C11.2936 14.7089 11.3112 14.7005 11.3274 14.7062C11.3649 14.7126 11.4023 14.7111 11.44 14.7146C11.45 14.7144 11.4571 14.7217 11.464 14.7278V14.8068C11.4628 14.8167 11.4669 14.8298 11.458 14.8368C11.4551 14.8387 11.4519 14.8409 11.4484 14.8416C11.438 14.8389 11.4271 14.8321 11.4221 14.8224C11.4205 14.8087 11.4227 14.7954 11.4233 14.7817C11.423 14.7781 11.4248 14.7726 11.4233 14.7697C11.4151 14.7639 11.4059 14.7602 11.3957 14.7601C11.3631 14.759 11.3312 14.7566 11.2987 14.7553C11.2716 14.7536 11.2437 14.7576 11.2172 14.7505C11.2069 14.7468 11.1935 14.7481 11.1873 14.7373C11.1783 14.7269 11.1912 14.7145 11.2004 14.7098C11.2127 14.7043 11.2256 14.7024 11.2388 14.7026L11.2388 14.7026ZM11.6712 14.7122C11.6773 14.7121 11.6792 14.7141 11.682 14.7254L11.6868 14.7445C11.6882 14.7491 11.686 14.7505 11.6796 14.7529C11.6607 14.7601 11.6418 14.7594 11.6353 14.7505C11.6323 14.7465 11.6358 14.7339 11.6413 14.729C11.6524 14.719 11.6646 14.7122 11.6712 14.7122Z" fill="#C09300"/>
<path d="M11.9712 9.70315C11.9968 9.70468 11.9366 9.56637 11.9366 9.56637C12.0043 9.63553 12.2598 9.65205 12.2598 9.65205C12.1065 9.58435 11.9532 9.07337 11.9712 8.66608C11.9878 8.25729 11.9126 8.09645 11.8525 8.03634C11.7758 7.95968 11.5294 7.89206 11.3671 7.88301C11.2754 7.87852 11.2904 7.95216 11.2904 7.95216C11.1206 7.90858 10.9508 7.89206 10.8741 7.94315C10.8019 7.99126 10.7869 8.23173 10.8395 8.18964C10.9672 8.08744 11.0785 8.18063 11.1551 8.29183C11.2227 8.38954 11.2182 8.66608 11.1205 8.98919C11.0183 9.32886 10.7388 9.66853 10.7388 9.66853C10.8906 9.66853 11.104 9.53329 11.104 9.53329L11.0529 9.7452C11.2137 9.66853 11.3415 9.54981 11.3415 9.54981L11.4948 9.71062C11.5459 9.643 11.6481 9.54981 11.6481 9.54981C11.6481 9.54981 11.7758 9.68509 11.9712 9.70315Z" fill="white" stroke="#C09300" stroke-width="0.550998"/>
<path d="M11.3505 8.72351C11.3505 8.72351 11.2648 9.35325 11.104 9.53211M11.4858 8.70703C11.4858 8.70703 11.4527 9.34424 11.3415 9.54867M11.6058 8.73271C11.6058 8.73271 11.6058 9.43007 11.6479 9.54879M11.7576 8.76721C11.7576 8.76721 11.7922 9.35337 11.9364 9.56527" stroke="#C09300" stroke-width="0.574522"/>
<path d="M11.1958 8.41952C11.1883 8.36394 11.1748 8.32032 11.1552 8.29176C11.0785 8.18055 10.9674 8.08737 10.8396 8.18956C10.8396 8.18956 10.8832 8.05429 10.9764 8.0498C11.0485 8.04528 11.2123 8.10389 11.3566 8.35037C11.3566 8.35037 11.2499 8.32634 11.2244 8.34888C11.1763 8.39097 11.1958 8.41952 11.1958 8.41952ZM10.8263 8.02278C10.8368 7.9882 10.8533 7.95665 10.8744 7.94312C10.951 7.89202 11.1209 7.90854 11.2907 7.95213C11.2907 7.95213 11.2757 7.87849 11.3673 7.88301C11.5296 7.89202 11.7761 7.95968 11.8528 8.03631C11.8708 8.05586 11.8919 8.08442 11.9099 8.12796H11.9069C11.8693 8.07537 11.7626 8.0784 11.737 8.08139C11.6964 8.08591 11.6709 8.08438 11.6168 8.09791C11.5912 8.10393 11.5521 8.11144 11.5311 8.12796C11.5146 8.14149 11.5011 8.1911 11.4755 8.1911C11.4349 8.1911 11.438 8.18059 11.4274 8.16856C11.4139 8.15204 11.4064 8.12796 11.3928 8.12946C11.3508 8.13701 11.2831 8.10393 11.1975 8.03631C11.1119 7.96869 11.0787 7.95213 10.9675 7.95964C10.8578 7.96865 10.8232 8.03029 10.8232 8.03029L10.8263 8.02278Z" fill="#C09300" stroke="#C09300" stroke-width="0.160142"/>
<path d="M11.4543 8.12141C11.4792 8.12141 11.4993 8.10123 11.4993 8.07633C11.4993 8.05143 11.4792 8.03125 11.4543 8.03125C11.4294 8.03125 11.4092 8.05143 11.4092 8.07633C11.4092 8.10123 11.4294 8.12141 11.4543 8.12141Z" fill="white"/>
<path d="M11.4987 12.5469C12.75 11.5845 12.6427 10.1747 12.6427 10.1747C12.6097 10.1813 12.5784 10.1846 12.5453 10.1846C12.2829 10.1846 11.6568 10.0345 11.5108 9.84375C11.3543 10.0164 10.7146 10.1846 10.4538 10.1846C10.4208 10.1846 10.3878 10.1813 10.3564 10.1747C10.3564 10.1747 10.2475 11.5845 11.4987 12.5469H11.4987Z" fill="white" stroke="#C09300" stroke-width="0.520275"/>
<path d="M12.5433 10.2767L12.5108 10.2777C12.2729 10.2777 11.7204 10.1556 11.5074 9.97266C11.2844 10.1417 10.7227 10.2777 10.4887 10.2777C10.4777 10.2777 10.4669 10.2763 10.4561 10.2744C10.4556 10.3277 10.4583 10.3829 10.4617 10.4332C10.474 10.6211 10.507 10.8096 10.557 10.991C10.7145 11.562 11.0368 12.0472 11.4989 12.4153C11.9615 12.0469 12.2842 11.5613 12.442 10.9899C12.4921 10.8085 12.5251 10.6199 12.5376 10.4321C12.5406 10.3795 12.5435 10.3151 12.5433 10.2767Z" stroke="#C09300" stroke-width="0.414406"/>
<mask id="mask0_1232_6265" style="mask-type:luminance" maskUnits="userSpaceOnUse" x="10" y="9" width="3" height="4">
<path d="M12.5322 10.2851L12.5001 10.2861C12.2648 10.2861 11.7182 10.1654 11.5075 9.98438C11.2868 10.1517 10.7312 10.2861 10.4995 10.2861C10.4887 10.286 10.4779 10.2849 10.4673 10.2828L10.4727 10.4399C10.4849 10.6258 10.5176 10.8123 10.5671 10.9918C10.7229 11.5567 11.0418 12.0367 11.4989 12.4009C11.9564 12.0364 12.2758 11.556 12.4319 10.9906C12.482 10.8103 12.5137 10.6254 12.5265 10.4388C12.5297 10.3876 12.5315 10.3363 12.5321 10.285L12.5322 10.2851Z" fill="white"/>
</mask>
<g mask="url(#mask0_1232_6265)">
<path d="M10.4497 9.96094H11.1496V12.4261H10.4497V9.96094Z" fill="#C09300"/>
<path fill-rule="evenodd" clip-rule="evenodd" d="M11.1494 9.96094H11.8493V12.4261H11.1494V9.96094Z" fill="white"/>
<path fill-rule="evenodd" clip-rule="evenodd" d="M11.8496 9.96094H12.5495V12.4261H11.8496V9.96094Z" fill="#C09300"/>
</g>
</g>
</g>
<rect x="0.5" y="0.5" width="22" height="22" rx="11" stroke="black" stroke-opacity="0.1"/>
<defs>
<clipPath id="clip0_1232_6265">
<rect width="23" height="23" rx="11.5" fill="white"/>
</clipPath>
<clipPath id="clip1_1232_6265">
<rect width="23" height="23" rx="11.5" fill="white"/>
</clipPath>
</defs>
</svg>
