<svg width="23" height="23" viewBox="0 0 23 23" fill="none" xmlns="http://www.w3.org/2000/svg">
<g clip-path="url(#clip0_1232_6269)">
<path d="M-5.75 0H28.75V23H-5.75V0Z" fill="white"/>
<path d="M-5.75 0H28.75V7.66667H-5.75V0Z" fill="#FF6820"/>
<path d="M-5.75 15.332H28.75V22.9987H-5.75V15.332Z" fill="#046A38"/>
<path d="M11.4999 15.0448C13.4582 15.0448 15.0458 13.4573 15.0458 11.499C15.0458 9.54065 13.4582 7.95312 11.4999 7.95312C9.54163 7.95312 7.9541 9.54065 7.9541 11.499C7.9541 13.4573 9.54163 15.0448 11.4999 15.0448Z" fill="#07038D"/>
<path d="M11.4998 14.5669C13.1934 14.5669 14.5664 13.1939 14.5664 11.5003C14.5664 9.80659 13.1934 8.43359 11.4998 8.43359C9.8061 8.43359 8.43311 9.80659 8.43311 11.5003C8.43311 13.1939 9.8061 14.5669 11.4998 14.5669Z" fill="white"/>
<path d="M11.5001 12.1134C11.8388 12.1134 12.1134 11.8388 12.1134 11.5001C12.1134 11.1613 11.8388 10.8867 11.5001 10.8867C11.1613 10.8867 10.8867 11.1613 10.8867 11.5001C10.8867 11.8388 11.1613 12.1134 11.5001 12.1134Z" fill="#07038D"/>
<path d="M11.5003 8.4375L11.6153 10.2829L11.5003 11.1966L11.3853 10.2829L11.5003 8.4375Z" fill="#07038D"/>
<path d="M11.8832 8.59605C11.9566 8.60572 12.024 8.55401 12.0337 8.48054C12.0434 8.40708 11.9916 8.33968 11.9182 8.33001C11.8447 8.32034 11.7773 8.37205 11.7676 8.44552C11.758 8.51898 11.8097 8.58638 11.8832 8.59605Z" fill="#07038D"/>
<path d="M11.5002 14.5703L11.3852 12.7249L11.5002 11.8112L11.6152 12.7249L11.5002 14.5703Z" fill="#07038D"/>
<path d="M11.1173 14.4118C11.0439 14.4021 10.9765 14.4538 10.9668 14.5273C10.9571 14.6007 11.0088 14.6681 11.0823 14.6778C11.1558 14.6875 11.2232 14.6358 11.2328 14.5623C11.2425 14.4888 11.1908 14.4214 11.1173 14.4118Z" fill="#07038D"/>
<path d="M12.3194 8.57894L11.8907 10.3786L11.5521 11.1691L11.7217 10.2441L12.3194 8.57894Z" fill="#07038D"/>
<path d="M12.5942 8.75651C12.6478 8.80631 12.7263 8.80858 12.7695 8.76157C12.8128 8.71456 12.8044 8.63608 12.7508 8.58627C12.6972 8.53647 12.6188 8.5342 12.5755 8.58121C12.5323 8.62822 12.5406 8.7067 12.5942 8.75651Z" fill="#07038D"/>
<path d="M10.6787 14.425L11.1074 12.6253L11.4459 11.8348L11.2764 12.7598L10.6787 14.425Z" fill="#07038D"/>
<path d="M10.4038 14.2474C10.3503 14.1976 10.2718 14.1953 10.2285 14.2423C10.1853 14.2893 10.1937 14.3678 10.2472 14.4176C10.3008 14.4674 10.3793 14.4697 10.4225 14.4227C10.4658 14.3757 10.4574 14.2972 10.4038 14.2474Z" fill="#07038D"/>
<path d="M13.0341 8.84581L12.2097 10.5004L11.6534 11.229L12.0116 10.3791L13.0341 8.84581Z" fill="#07038D"/>
<path d="M13.2812 9.16728C13.3377 9.2158 13.4219 9.21025 13.4693 9.15488C13.5167 9.09951 13.5094 9.01529 13.4529 8.96676C13.3964 8.91824 13.3122 8.92379 13.2648 8.97916C13.2174 9.03454 13.2247 9.11876 13.2812 9.16728Z" fill="#07038D"/>
<path d="M9.96591 14.1542L10.7903 12.4996L11.3466 11.771L10.9884 12.6209L9.96591 14.1542Z" fill="#07038D"/>
<path d="M9.71877 13.8327C9.66227 13.7842 9.57805 13.7897 9.53065 13.8451C9.48325 13.9005 9.49063 13.9847 9.54712 14.0332C9.60362 14.0818 9.68784 14.0762 9.73524 14.0208C9.78264 13.9655 9.77526 13.8812 9.71877 13.8327Z" fill="#07038D"/>
<path d="M13.6798 9.34229L12.4284 10.7248L11.705 11.2713L12.2896 10.5402L13.6798 9.34229Z" fill="#07038D"/>
<path d="M13.8178 9.70856C13.8585 9.77096 13.9427 9.78791 14.0059 9.74642C14.0691 9.70493 14.0874 9.6207 14.0468 9.5583C14.0061 9.4959 13.9219 9.47895 13.8587 9.52044C13.7954 9.56193 13.7771 9.64616 13.8178 9.70856Z" fill="#07038D"/>
<path d="M9.31875 13.6577L10.5701 12.2752L11.2935 11.7287L10.709 12.4598L9.31875 13.6577Z" fill="#07038D"/>
<path d="M9.18075 13.2914C9.14009 13.229 9.05586 13.2121 8.99263 13.2536C8.9294 13.2951 8.9111 13.3793 8.95176 13.4417C8.99243 13.5041 9.07665 13.5211 9.13988 13.4796C9.20311 13.4381 9.22141 13.3538 9.18075 13.2914Z" fill="#07038D"/>
<path d="M14.1539 9.96769L12.6184 10.9897L11.7688 11.3454L12.499 10.7887L14.1539 9.96769Z" fill="#07038D"/>
<path d="M14.2122 10.3759C14.2421 10.4439 14.3206 10.4757 14.3875 10.4469C14.4544 10.4181 14.4844 10.3396 14.4545 10.2716C14.4246 10.2036 14.3461 10.1718 14.2792 10.2006C14.2123 10.2294 14.1823 10.3078 14.2122 10.3759Z" fill="#07038D"/>
<path d="M8.84657 13.0323L10.3821 12.0103L11.2316 11.6546L10.5015 12.2113L8.84657 13.0323Z" fill="#07038D"/>
<path d="M8.78831 12.6241C8.75841 12.5561 8.67993 12.5243 8.61301 12.5531C8.54609 12.5819 8.51608 12.6604 8.54597 12.7284C8.57586 12.7964 8.65435 12.8282 8.72127 12.7994C8.78819 12.7706 8.8182 12.6922 8.78831 12.6241Z" fill="#07038D"/>
<path d="M14.471 10.7424L12.6973 11.3197L11.788 11.3892L12.6557 11.0303L14.471 10.7424Z" fill="#07038D"/>
<path d="M14.4001 11.116C14.4059 11.1923 14.4733 11.2486 14.5507 11.2418C14.628 11.235 14.6861 11.1676 14.6803 11.0913C14.6746 11.015 14.6072 10.9587 14.5298 10.9655C14.4524 10.9724 14.3944 11.0397 14.4001 11.116Z" fill="#07038D"/>
<path d="M8.52853 12.2654L10.3023 11.6881L11.2116 11.6186L10.3438 11.9776L8.52853 12.2654Z" fill="#07038D"/>
<path d="M8.59939 11.8918C8.59363 11.8155 8.52624 11.7592 8.44886 11.766C8.37148 11.7729 8.31341 11.8402 8.31917 11.9165C8.32492 11.9928 8.39232 12.0491 8.4697 12.0423C8.54708 12.0355 8.60514 11.9681 8.59939 11.8918Z" fill="#07038D"/>
<path d="M14.5173 11.5917L12.6885 11.497L11.8564 11.4123L12.7866 11.4464L14.5173 11.5917Z" fill="#07038D"/>
<path d="M14.4398 11.8821C14.412 11.9553 14.4342 12.0227 14.4895 12.0326C14.5447 12.0425 14.6121 11.9911 14.64 11.9178C14.6678 11.8445 14.6456 11.7772 14.5903 11.7673C14.5351 11.7574 14.4677 11.8088 14.4398 11.8821Z" fill="#07038D"/>
<path d="M8.48217 11.4122L10.311 11.5069L11.1431 11.5916L10.2129 11.5575L8.48217 11.4122Z" fill="#07038D"/>
<path d="M8.5597 11.1219C8.58756 11.0486 8.56533 10.9812 8.51006 10.9713C8.45478 10.9614 8.38738 11.0128 8.35953 11.0861C8.33167 11.1594 8.35389 11.2268 8.40917 11.2366C8.46445 11.2465 8.53184 11.1951 8.5597 11.1219Z" fill="#07038D"/>
<path d="M14.4657 12.2602L12.7048 11.9775L11.7936 11.6179L12.6522 11.6836L14.4657 12.2602Z" fill="#07038D"/>
<path d="M14.1586 12.632C14.1589 12.705 14.2374 12.7835 14.3339 12.8073C14.4303 12.8311 14.5083 12.7912 14.5079 12.7182C14.5076 12.6451 14.4291 12.5666 14.3326 12.5429C14.2362 12.5191 14.1582 12.559 14.1586 12.632Z" fill="#07038D"/>
<path d="M8.53428 10.7398L10.2952 11.0225L11.2064 11.3821L10.3478 11.3164L8.53428 10.7398Z" fill="#07038D"/>
<path d="M8.84143 10.368C8.84109 10.295 8.76261 10.2165 8.66613 10.1927C8.56966 10.1689 8.49172 10.2088 8.49206 10.2818C8.4924 10.3549 8.57088 10.4334 8.66736 10.4571C8.76384 10.4809 8.84177 10.441 8.84143 10.368Z" fill="#07038D"/>
<path d="M14.1539 13.0338L12.4989 12.2122L11.7684 11.6555L12.6179 12.0117L14.1539 13.0338Z" fill="#07038D"/>
<path d="M13.8325 13.2819C13.7841 13.3384 13.7898 13.4226 13.8453 13.4701C13.9008 13.5175 13.9851 13.5102 14.0335 13.4538C14.0819 13.3973 14.0761 13.3131 14.0206 13.2657C13.9651 13.2182 13.8809 13.2255 13.8325 13.2819Z" fill="#07038D"/>
<path d="M8.84613 9.97009L10.5011 10.7917L11.2316 11.3484L10.3821 10.9922L8.84613 9.97009Z" fill="#07038D"/>
<path d="M9.1675 9.72196C9.2159 9.66552 9.21016 9.58129 9.15466 9.53385C9.09917 9.4864 9.01495 9.49369 8.96655 9.55014C8.91814 9.60658 8.92389 9.69081 8.97938 9.73826C9.03488 9.7857 9.1191 9.77841 9.1675 9.72196Z" fill="#07038D"/>
<path d="M13.6587 13.6824L12.2759 12.4395L11.7277 11.7149L12.4584 12.2934L13.6587 13.6824Z" fill="#07038D"/>
<path d="M13.2949 13.8215C13.2309 13.8622 13.2113 13.9464 13.2511 14.0096C13.291 14.0728 13.3752 14.091 13.4392 14.0503C13.5033 14.0096 13.5229 13.9253 13.483 13.8622C13.4431 13.799 13.3589 13.7808 13.2949 13.8215Z" fill="#07038D"/>
<path d="M9.34129 9.32541L10.7241 10.5684L11.2723 11.293L10.5416 10.7144L9.34129 9.32541Z" fill="#07038D"/>
<path d="M9.70511 9.18635C9.76915 9.14564 9.78875 9.06141 9.74889 8.99823C9.70903 8.93505 9.62481 8.91683 9.56077 8.95754C9.49674 8.99825 9.47714 9.08247 9.51699 9.14565C9.55685 9.20884 9.64107 9.22706 9.70511 9.18635Z" fill="#07038D"/>
<path d="M13.0201 14.1708L12.0019 12.5935L11.6649 11.75L12.2254 12.5098L13.0201 14.1708Z" fill="#07038D"/>
<path d="M12.6286 14.1931C12.5562 14.2133 12.5174 14.2918 12.5418 14.3684C12.5662 14.4449 12.6447 14.4905 12.7171 14.4703C12.7895 14.45 12.8283 14.3715 12.8039 14.295C12.7795 14.2184 12.701 14.1728 12.6286 14.1931Z" fill="#07038D"/>
<path d="M9.97799 8.82924L10.9962 10.4065L11.3332 11.25L10.7726 10.4902L9.97799 8.82924Z" fill="#07038D"/>
<path d="M10.3694 8.80694C10.4418 8.78668 10.4807 8.7082 10.4563 8.63164C10.4318 8.55509 10.3534 8.50946 10.281 8.52972C10.2086 8.54998 10.1697 8.62846 10.1941 8.70502C10.2186 8.78157 10.297 8.8272 10.3694 8.80694Z" fill="#07038D"/>
<path d="M12.2685 14.4774L11.6883 12.6843L11.6048 11.7778L11.9608 12.6592L12.2685 14.4774Z" fill="#07038D"/>
<path d="M11.8912 14.3934C11.813 14.3917 11.7538 14.4564 11.7588 14.5378C11.7638 14.6192 11.8312 14.6866 11.9093 14.6883C11.9875 14.69 12.0467 14.6254 12.0417 14.544C12.0367 14.4625 11.9693 14.3951 11.8912 14.3934Z" fill="#07038D"/>
<path d="M10.73 8.52265L11.3102 10.3157L11.3938 11.2222L11.0377 10.3408L10.73 8.52265Z" fill="#07038D"/>
<path d="M11.1074 8.60657C11.1855 8.60827 11.2447 8.54364 11.2397 8.46221C11.2347 8.38078 11.1673 8.31339 11.0892 8.31168C11.0111 8.30998 10.9518 8.37461 10.9568 8.45604C10.9619 8.53747 11.0293 8.60486 11.1074 8.60657Z" fill="#07038D"/>
</g>
<defs>
<clipPath id="clip0_1232_6269">
<rect width="23" height="23" rx="11.5" fill="white"/>
</clipPath>
</defs>
</svg>
