<svg xmlns="http://www.w3.org/2000/svg" xmlns:xlink="http://www.w3.org/1999/xlink" version="1.1" width="250px" height="250px" style="shape-rendering:geometricPrecision; text-rendering:geometricPrecision; image-rendering:optimizeQuality; fill-rule:evenodd; clip-rule:evenodd" viewBox="0 0 250 240">
<g><path style="opacity:0.986" fill="#ff0032" d="M 123.5,-0.5 C 133.833,-0.5 144.167,-0.5 154.5,-0.5C 183.885,3.77744 208.385,17.1108 228,39.5C 239.771,54.9917 246.938,72.325 249.5,91.5C 249.5,100.833 249.5,110.167 249.5,119.5C 238.796,176.709 205.13,212.542 148.5,227C 95.9903,238.913 46.3236,231.747 -0.5,205.5C -0.5,203.5 -0.5,201.5 -0.5,199.5C 6.18743,197.525 12.8541,195.358 19.5,193C 24.5541,190.611 29.0541,187.445 33,183.5C 33.6667,181.5 33.6667,179.5 33,177.5C 14.7022,142.108 12.7022,105.774 27,68.5C 41.4105,38.6971 64.2439,18.1971 95.5,7C 104.772,3.73391 114.105,1.23391 123.5,-0.5 Z M 133.5,59.5 C 148.485,58.961 163.151,60.7943 177.5,65C 196.391,74.2543 203.891,89.4209 200,110.5C 198.166,122.506 196.333,134.506 194.5,146.5C 194.667,148.5 194.833,150.5 195,152.5C 195.5,153 196,153.5 196.5,154C 200.784,155.663 205.117,155.996 209.5,155C 207.843,161.425 206.343,167.925 205,174.5C 194.101,179.895 183.268,179.728 172.5,174C 169.02,171.703 167.02,168.536 166.5,164.5C 165.448,164.351 164.448,164.517 163.5,165C 148.436,178.384 131.103,182.384 111.5,177C 95.5706,171.739 87.2373,160.739 86.5,144C 89.3182,120.52 102.652,107.853 126.5,106C 142.149,104.83 157.149,107.33 171.5,113.5C 174.908,96.1251 167.908,86.2917 150.5,84C 136.398,81.8591 122.398,82.3591 108.5,85.5C 108.167,84.3333 107.833,83.1667 107.5,82C 108.826,75.5392 109.826,69.0392 110.5,62.5C 118.309,61.5608 125.976,60.5608 133.5,59.5 Z"/></g>
<g><path style="opacity:0.982" fill="#ff0133" d="M 116.5,127.5 C 134.5,127.5 152.5,127.5 170.5,127.5C 166.65,146.844 154.817,157.177 135,158.5C 115.528,156.233 109.361,145.899 116.5,127.5 Z"/></g>




</svg>