<svg xmlns="http://www.w3.org/2000/svg" width="38" height="38" viewBox="" fill="none">



<path fill-rule="evenodd" clip-rule="evenodd" d="M7.11583 18.936C4.99203 15.5179 3.85528 11.4738 4.61909 7.37619C4.87979 5.9785 6.0066 4.89294 7.41755 4.67165C8.68004 4.4737 9.59249 4.37455 11.3806 4.52248C10.7362 5.58701 10.3549 6.64889 9.95407 7.6809C9.06097 7.64873 8.15117 7.82654 7.86295 7.91491C7.13731 10.5845 8.07375 15.1549 10.9028 18.936H7.11583Z" fill="#0056C1"/>
<path fill-rule="evenodd" clip-rule="evenodd" d="M10.5779 10.6173C11.5045 6.70578 13.5742 3.04612 17.0256 0.686408C18.2029 -0.118661 19.7712 -0.0932101 20.926 0.74332C21.9593 1.49165 22.675 2.0636 23.8343 3.42665C22.6222 3.72588 21.5982 4.20857 20.5815 4.65608C19.9729 4.00478 19.2032 3.49028 18.9365 3.34994C16.5268 4.72696 13.9416 8.6178 13.2558 13.2824L10.5779 10.6173Z" fill="#0056C1"/>
<path fill-rule="evenodd" clip-rule="evenodd" d="M18.9365 7.17141C22.3709 5.05772 26.4345 3.92638 30.5516 4.68656C31.956 4.94602 33.0469 6.06746 33.2693 7.4717C33.468 8.72817 33.5678 9.63628 33.4192 11.4159C32.3494 10.7745 31.2826 10.395 30.2455 9.99613C30.2779 9.10729 30.0993 8.20182 30.0103 7.91497C27.328 7.19279 22.7359 8.12476 18.9365 10.9403V7.17141Z" fill="#0056C1"/>
<path fill-rule="evenodd" clip-rule="evenodd" d="M27.2953 10.6172C31.2256 11.5394 34.9027 13.5992 37.2737 17.0342C38.0827 18.2059 38.0571 19.7667 37.2165 20.9161C36.4646 21.9444 35.8899 22.6567 34.5204 23.8104C34.2197 22.604 33.7347 21.5851 33.2851 20.5732C33.9395 19.9673 34.4564 19.2015 34.5974 18.936C33.2138 16.5378 29.3044 13.9649 24.6174 13.2823L27.2953 10.6172Z" fill="#0056C1"/>
<path fill-rule="evenodd" clip-rule="evenodd" d="M30.7575 18.9358C32.8813 22.3538 34.0181 26.3979 33.2541 30.4956C32.9935 31.8933 31.8667 32.979 30.4558 33.2003C29.1933 33.3981 28.2808 33.4972 26.4927 33.3493C27.1371 32.2848 27.5184 31.2229 27.9193 30.1909C28.8124 30.2232 29.722 30.0454 30.0104 29.9569C30.736 27.2873 29.7996 22.7169 26.9704 18.9358H30.7575Z" fill="#0056C1"/>
<path fill-rule="evenodd" clip-rule="evenodd" d="M27.2952 27.255C26.3685 31.1665 24.2989 34.8262 20.8474 37.1859C19.6702 37.9908 18.1019 37.9655 16.947 37.129C15.9138 36.3806 15.1981 35.8087 14.0388 34.4456C15.2509 34.1462 16.2749 33.6637 17.2916 33.2162C17.9002 33.8673 18.6698 34.3818 18.9366 34.5222C21.3463 33.1451 23.9315 29.2545 24.6173 24.5898L27.2952 27.255Z" fill="#0056C1"/>
<path fill-rule="evenodd" clip-rule="evenodd" d="M18.9365 30.7007C15.5021 32.8144 11.4385 33.9458 7.32139 33.1854C5.91701 32.9261 4.82608 31.8045 4.60391 30.4003C4.40501 29.144 4.30538 28.2359 4.45385 26.4561C5.52365 27.0975 6.59061 27.4769 7.62756 27.876C7.59506 28.7649 7.77389 29.6701 7.86268 29.957C10.545 30.6793 15.1373 29.7472 18.9365 26.9317V30.7007Z" fill="#0056C1"/>
<path fill-rule="evenodd" clip-rule="evenodd" d="M10.578 27.255C6.6478 26.3328 2.97062 24.2732 0.59962 20.838C-0.209302 19.6663 -0.183729 18.1057 0.656804 16.9561C1.40872 15.928 1.9834 15.2156 3.35297 14.0618C3.65363 15.268 4.13863 16.2872 4.58829 17.299C3.93387 17.9047 3.41691 18.6707 3.2759 18.9362C4.6595 21.3344 8.56897 23.9073 13.2559 24.5901L10.578 27.255Z" fill="#0056C1"/>

























<script xmlns=""/><link xmlns=""/></svg>