<svg xmlns="http://www.w3.org/2000/svg" width="30" height="30" viewBox="0 0 45 30" fill="none">
<g clip-path="url(#clip0_677_3670)">
<path d="M28.3991 18.5251C28.3991 18.5251 27.7882 24.661 27.66 25.7287H29.7053C29.7053 25.7287 29.9453 24.0665 30.5057 19.3514C30.6066 18.4951 30.7471 16.7812 30.7471 16.7812L28.3991 18.5251Z" fill="url(#paint0_linear_677_3670)"/>
<path d="M22.8385 2.75031C25.4619 2.09991 27.3504 3.31482 28.2095 8.57807C28.4584 10.2481 28.5792 11.9347 28.5708 13.6231C29.3644 13 30.1225 12.396 30.8411 11.8028C30.7819 9.77962 30.5358 7.76621 30.1061 5.78827C29.1912 1.72766 26.6005 6.10352e-05 23.9702 6.10352e-05C23.5931 0.00358894 23.2169 0.0377901 22.8453 0.102326L22.8385 2.75031Z" fill="url(#paint1_linear_677_3670)"/>
<path d="M23.9634 0.00457764C20.9105 0.00457764 15.3418 2.63075 9.70629 8.76393C3.34812 15.6839 1.81824 21.1162 1.81824 23.9701C1.81824 26.824 3.71492 29.0752 7.15921 29.0752C10.6035 29.0752 16.1231 26.9017 24.3289 21.3794C32.5346 15.857 40.4704 8.94937 40.4704 8.94937L38.7578 5.01148C36.9934 6.42411 29.2444 13.8895 18.8938 20.5572C8.95771 26.9576 5.80385 25.8995 5.36616 25.08C4.99937 24.3887 4.25897 21.9343 8.28549 15.4398C12.312 8.94528 18.5829 4.34471 21.7654 3.09844C22.5549 2.78892 23.2898 2.60348 23.9634 2.59121V0.00457764Z" fill="#5C2483"/>
</g>
<defs>
<linearGradient id="paint0_linear_677_3670" x1="27.6137" y1="18.8933" x2="31.4357" y2="24.5601" gradientUnits="userSpaceOnUse">
<stop offset="0.07" stop-color="#5C2483" stop-opacity="0.5"/>
<stop offset="0.7" stop-color="#5C2483"/>
</linearGradient>
<linearGradient id="paint1_linear_677_3670" x1="31.3456" y1="11.4006" x2="22.4526" y2="0.418664" gradientUnits="userSpaceOnUse">
<stop offset="0.07" stop-color="#5C2483" stop-opacity="0.5"/>
<stop offset="0.6" stop-color="#5C2483"/>
</linearGradient>
<clipPath id="clip0_677_3670">
<rect width="80" height="29.0909" fill="white"/>
</clipPath>
</defs>
</svg>