<svg width="32" height="32" viewBox="0 0 32 32" fill="none" xmlns="http://www.w3.org/2000/svg">
<path d="M31.8118 15.6682C31.3548 14.5112 30.2265 13.8812 29.0054 14.1016L26.496 14.5536C26.0794 14.6285 25.8029 15.0272 25.8771 15.4439C25.952 15.8605 26.3501 16.1374 26.7661 16.0631L29.2754 15.6112C29.8726 15.5035 30.2412 15.8612 30.3871 16.231C30.5337 16.6015 30.5081 17.1149 29.9993 17.4451L26.3162 19.8353C25.9738 20.0571 25.5571 20.0724 25.2006 19.8783C24.8435 19.684 24.6298 19.3244 24.6298 18.9174V11.1723C24.6298 10.7486 24.2874 10.4051 23.8643 10.4051C23.4413 10.4051 23.0989 10.7486 23.0989 11.1723V18.9187C23.0989 19.8968 23.6109 20.7596 24.4691 21.2269C24.8678 21.4436 25.2973 21.5519 25.7248 21.5519C26.2182 21.5519 26.7098 21.4089 27.1488 21.1237L30.8319 18.7334C31.8751 18.0565 32.2687 16.8252 31.8118 15.6682ZM18.8563 14.1023L16.3469 14.5542C15.9309 14.6292 15.6544 15.0279 15.7286 15.4445C15.8035 15.8612 16.2016 16.138 16.6176 16.0637L19.127 15.6118C19.7248 15.5041 20.0928 15.8618 20.2394 16.2316C20.3853 16.6021 20.3603 17.1156 19.8509 17.4457L16.1677 19.836C15.8259 20.0577 15.4093 20.0731 15.0522 19.8789C14.695 19.6847 14.4819 19.3251 14.4819 18.918V13.0337C14.4819 12.0549 13.9699 11.1922 13.1117 10.7249C12.2534 10.2583 11.2518 10.2968 10.432 10.8281L1.16742 16.84C0.124871 17.5162 -0.268726 18.7476 0.188231 19.9045C0.64455 21.0608 1.77222 21.6904 2.99462 21.4704L11.0835 20.0141C11.4995 19.9392 11.7766 19.5404 11.7018 19.1238C11.6269 18.7072 11.2288 18.4296 10.8128 18.5046L2.7239 19.9609C2.12614 20.0686 1.75814 19.7109 1.61222 19.3411C1.46566 18.9706 1.49062 18.4572 2.00006 18.1264L11.2627 12.1159C11.6038 11.8947 12.0211 11.8787 12.3782 12.0729C12.7354 12.2678 12.9485 12.6274 12.9485 13.0344V18.9187C12.9485 19.8968 13.4605 20.7596 14.3187 21.2269C14.7174 21.4436 15.1475 21.5519 15.575 21.5519C16.0685 21.5519 16.5594 21.4089 16.9984 21.1237L20.6822 18.7334C21.7242 18.0572 22.1178 16.8259 21.6614 15.6688C21.2064 14.5112 20.0774 13.8824 18.8563 14.1023Z" fill="#009C32"/>
</svg>
