<svg width="64" height="64" viewBox="0 0 35 32" fill="none" xmlns="http://www.w3.org/2000/svg">
<path fill-rule="evenodd" clip-rule="evenodd" d="M16.0039 8.41309H18.9678V23.4411H16.0039V8.41309Z" fill="#007640"/>
<path fill-rule="evenodd" clip-rule="evenodd" d="M14.084 8.41309H15.4208V17.274H14.084V8.41309Z" fill="#007640"/>
<path fill-rule="evenodd" clip-rule="evenodd" d="M9.8913 6.64844C11.6792 6.64844 13.1283 7.96548 13.1283 9.59022C13.1283 11.215 11.6792 12.532 9.8913 12.532C8.10353 12.532 6.6543 11.215 6.6543 9.59022C6.6543 7.96548 8.10353 6.64844 9.8913 6.64844V6.64844ZM9.8913 7.89547C10.9213 7.89547 11.7562 8.65425 11.7562 9.59022C11.7562 10.5263 10.9213 11.285 9.8913 11.285C8.86139 11.285 8.02653 10.5263 8.02653 9.59022C8.02653 8.65425 8.86139 7.89547 9.8913 7.89547Z" fill="#007640"/>
<path fill-rule="evenodd" clip-rule="evenodd" d="M14.0837 11.279C13.324 12.5514 11.7324 13.4278 9.89198 13.4278C8.10877 13.4278 6.5591 12.6049 5.77353 11.3962H1.98214L3.95754 13.1925H3.28343L1.30744 11.3956L0.828965 10.9628H0.831409H5.9973C6.64521 12.2041 8.14508 13.0739 9.89198 13.0739C12.0222 13.0739 13.7854 11.7804 14.0837 10.0973V8.41309H15.4205V17.2739L9.78507 23.856H2.28621L5.1391 20.393H2.06639L1.58033 19.9596L0.800742 19.2506L0.322268 18.8178H0.324712H1.41865L0.55034 18.0281L0.0718681 17.5953H0.0743097H1.61808L0.481084 16.5614L0.00261028 16.1286H0.00505395H1.38605L0.478558 15.3032L0 14.8704H0.002528L2.06412 14.8706L0.698289 13.6285L0.219815 13.1957H0.222259H5.12596V13.1925C6.16101 13.9557 7.19934 14.3978 9.02789 14.3978C10.8564 14.3978 13.0704 13.4361 14.0837 12.0061V11.279V11.279ZM14.7328 17.2739H14.0837V17.2214C12.0875 18.5022 9.57654 19.2661 6.84876 19.2661V19.2512H1.47535L2.25444 19.9596H6.22352C9.49524 19.9596 12.4786 18.9429 14.7328 17.2739ZM14.0837 16.6801V16.2121C12.2581 17.4706 9.9053 18.2291 7.33718 18.2291C6.57856 18.2291 5.83907 18.1623 5.12596 18.0366V18.0286H1.22495L2.09276 18.8178H6.84876V18.8327C9.60055 18.8327 12.1226 18.0237 14.0837 16.6801V16.6801ZM14.0837 15.6518V15.0031C12.4855 16.2175 10.3489 16.9601 8.00151 16.9601C6.99562 16.9601 6.02873 16.8231 5.12596 16.5717V16.5619H1.1557L2.29219 17.5953H5.12596V17.6032C5.83739 17.7354 5.65734 17.8055 7.33718 17.8055C9.01693 17.8055 12.305 16.9892 14.0837 15.6518V15.6518ZM14.0837 14.4459V13.8269C12.6786 15.1016 10.6492 15.9028 8.39236 15.9028C7.22428 15.9028 6.11736 15.6879 5.12596 15.3041L1.15317 15.3037L2.06024 16.1286H5.12596V16.1384C6.02443 16.4035 6.30567 16.5482 8.00151 16.5482C9.69736 16.5482 12.538 15.7428 14.0837 14.4459V14.4459ZM14.0837 13.2474V12.6403C12.942 13.9172 11.1028 14.7463 9.02789 14.7463C7.55278 14.7463 6.19715 14.3269 5.12596 13.6259V13.629H1.37299L2.73823 14.8706L5.12596 14.8707C6.10809 15.2779 6.65237 15.5078 8.39245 15.5078C10.1324 15.5078 12.7523 14.6243 14.0837 13.2474V13.2474Z" fill="#007640"/>
<path fill-rule="evenodd" clip-rule="evenodd" d="M17.4862 0C24.0129 0 29.7066 3.24425 32.7226 8.05476H31.067C28.2055 3.98652 23.192 1.28873 17.4862 1.28873C10.5084 1.28873 4.56653 5.32361 2.32945 10.9653H0.830078C3.12538 4.59937 9.71516 0 17.4862 0V0ZM34.1219 20.9452C31.808 27.2816 25.2339 31.8537 17.4862 31.8537C10.9854 31.8537 5.31024 28.6348 2.28504 23.8558H3.94618C6.81432 27.8922 11.8072 30.565 17.4862 30.565C24.4405 30.565 30.3666 26.5572 32.621 20.9452H34.1219V20.9452Z" fill="#007640"/>
<path fill-rule="evenodd" clip-rule="evenodd" d="M25.1081 25.2254C23.3203 25.2254 21.8711 23.9084 21.8711 22.2836C21.8711 20.6588 23.3203 19.3418 25.1081 19.3418C26.8959 19.3418 28.3451 20.6588 28.3451 22.2836C28.3451 23.9084 26.8959 25.2254 25.1081 25.2254ZM25.1081 23.9783C24.0782 23.9783 23.2433 23.2196 23.2433 22.2836C23.2433 21.3476 24.0782 20.5888 25.1081 20.5888C26.1381 20.5888 26.973 21.3476 26.973 22.2836C26.973 23.2196 26.1381 23.9783 25.1081 23.9783Z" fill="#007640"/>
<path fill-rule="evenodd" clip-rule="evenodd" d="M20.915 20.5958C21.6748 19.3233 23.2663 18.4469 25.1066 18.4469C26.8899 18.4469 28.4396 19.2699 29.2252 20.4785H33.0166L31.0412 18.6821H31.7153L33.6913 20.479L34.1697 20.9119H34.1672H29.0014C28.3535 19.6706 26.8535 18.8008 25.1066 18.8008C22.9765 18.8008 21.2133 20.0942 20.915 21.7774V23.4616H19.5781V14.6007L25.2237 8.05469H32.7225L30.0384 11.4818H32.9323L33.4183 11.9151L34.198 12.6241L34.6764 13.0569H34.674H33.5801L34.4484 13.8465L34.9268 14.2794H34.9244H33.3806L34.5176 15.3133L34.9961 15.7462H34.9937H33.6126L34.5202 16.5714L34.9986 17.0043H34.9962L32.9346 17.0041L34.3004 18.2461L34.7789 18.679H34.7764H29.8727V18.6821C28.8376 17.919 27.7993 17.4768 25.9707 17.4768C24.1423 17.4768 21.9283 18.4385 20.915 19.8686V20.5958V20.5958ZM20.2659 14.6007H20.915V14.6532C22.9112 13.3724 25.4222 12.6087 28.15 12.6087V12.6236H33.5233L32.7442 11.9151H28.7751C25.5034 11.9151 22.5201 12.9318 20.2659 14.6007ZM20.915 15.1946V15.6625C22.7406 14.4041 25.0933 13.6456 27.6615 13.6456C28.4201 13.6456 29.1596 13.7125 29.8727 13.8381V13.846H33.7737L32.906 13.0569H28.15V13.042C25.3982 13.042 22.8761 13.851 20.915 15.1946V15.1946ZM20.915 16.2229V16.8715C22.5132 15.6572 24.6498 14.9145 26.9972 14.9145C28.0031 14.9145 28.97 15.0516 29.8727 15.3029V15.3128H33.8429L32.7065 14.2794H29.8727V14.2714C29.1613 14.1394 29.3414 14.0691 27.6615 14.0691C25.9817 14.0691 22.6937 14.8854 20.915 16.2229V16.2229ZM20.915 17.4288V18.0478C22.3201 16.773 24.3495 15.9719 26.6064 15.9719C27.7744 15.9719 28.8813 16.1868 29.8727 16.5706L33.8455 16.5709L32.9385 15.7462H29.8727V15.7363C28.9743 15.4712 28.693 15.3264 26.9972 15.3264C25.3014 15.3264 22.4607 16.1319 20.915 17.4288V17.4288ZM20.915 18.6272V19.2343C22.0567 17.9575 23.8959 17.1283 25.9707 17.1283C27.4459 17.1283 28.8016 17.5477 29.8727 18.2488V18.2456H33.6257L32.2605 17.0041L29.8727 17.004C28.8906 16.5968 28.3463 16.3668 26.6063 16.3668C24.8662 16.3668 22.2463 17.2503 20.915 18.6272Z" fill="#007640"/>
</svg>
