<svg width="40" height="41" viewBox="0 0 40 41" fill="none" xmlns="http://www.w3.org/2000/svg">
<path d="M33.4132 0.5H6.65492C2.98085 0.5 0 3.47578 0 7.1436V33.8564C0 37.5242 2.98085 40.5 6.65492 40.5H33.3439C37.018 40.5 39.9988 37.5242 39.9988 33.8564V7.1436C40.0681 3.47578 37.0873 0.5 33.4132 0.5ZM37.9885 33.1644C37.9192 33.2336 37.7805 33.3028 37.7112 33.2336C32.5814 30.1194 26.481 28.3201 20.0341 28.3201C13.5871 28.3201 7.48678 30.1194 2.35695 33.2336C2.28763 33.3028 2.14898 33.2336 2.07966 33.1644C2.01034 33.026 2.07966 32.9567 2.14898 32.8875C6.86288 29.2889 10.8836 24.7215 14.0031 19.3235C17.1225 13.9256 19.0636 8.11246 19.8261 2.29931C19.8261 2.2301 19.8954 2.0917 20.0341 2.0917C20.1727 2.0917 20.242 2.1609 20.242 2.29931C21.0046 8.11246 22.9456 13.9256 26.0651 19.3235C29.1846 24.7215 33.2746 29.2889 37.9192 32.8183C38.0578 32.9567 38.0578 33.026 37.9885 33.1644Z" fill="#FE5000"/>
</svg>
