<svg width="40" height="40" xmlns="http://www.w3.org/2000/svg">
 <defs>
  <style type="text/css">
   <![CDATA[
    .fil0 {fill:#E41D31}
    .fil2 {fill:#B32143}
    .fil3 {fill:#262826}
    .fil1 {fill:#393185}
   ]]>
  </style>
 </defs>
 <g>
  <title>background</title>
  <rect fill="none" id="canvas_background" height="42" width="42" y="-1" x="-1"/>
 </g>
 <g>
  <title>Layer 1</title>
  <g stroke="null" id="Слой_x0020_1">
   <metadata stroke="null" transform="translate(0.19047637283802032,1.1428582668304443) translate(0.19047637283802032,2.6666693687438965) translate(-9.90477180480957,-19.61906623840332) translate(9.523818969726562,3.0476222038269043) translate(13.714299201965332,5.523815155029297) translate(1.3333346843719482,20.38097381591797) translate(-1.3333346843719482,-11.428583145141602) translate(-0.38095277547836304,-1.7142874002456665) translate(-13,-64) translate(10,124) translate(7,-86) translate(181,97) translate(0,-112) translate(-10,58) translate(-78,4) translate(-15,-56) translate(-1268,120) translate(2119.881591796875,4) scale(0.35329505801200867,1) translate(-2119.881591796875,-4) translate(3888.06884765625,4) scale(0.4836852252483368) translate(-3888.06884765625,-4) translate(618.1723022460938,256.3650817871094) scale(1.3684738874435425) translate(-618.1723022460938,-256.3650817871094) translate(54.0326042175293,108.77601623535156) scale(1,0.7506201267242432) translate(-54.0326042175293,-108.77601623535156) translate(11.270101547241211,36.22871780395508) scale(0.15780647099018097) translate(-11.270101547241211,-36.22871780395508) translate(7278.10009765625,369.8738708496094) scale(3.1296186447143555,1) translate(-7278.10009765625,-369.8738708496094) translate(213.30860900878906,369.8738708496094) scale(0.22934460639953613,1) translate(-213.30860900878906,-369.8738708496094) translate(816.8182373046875,1656.130126953125) scale(1,2.701970100402832) translate(-816.8182373046875,-1656.130126953125) translate(816.8182373046875,91.9343032836914) scale(1,0.604802668094635) translate(-816.8182373046875,-91.9343032836914) translate(816.8182373046875,152.00711059570312) scale(1.3234286308288574,1) translate(-816.8182373046875,-152.00711059570312) translate(2729.444580078125,152.00711059570312) scale(1.2186620235443115,1) translate(-2729.444580078125,-152.00711059570312) translate(87.33094787597656,49.42971420288086) scale(1,0.6147890686988831) translate(-87.33094787597656,-49.42971420288086) translate(118.5423812866211,339.1390686035156) scale(0.6010367274284363) translate(-118.5423812866211,-339.1390686035156) translate(731.3600463867188,680.9306640625) scale(0.7436147928237915) translate(-731.3600463867188,-680.9306640625) translate(3594.577880859375,1523.26953125) scale(1.439243197441101) translate(-3594.577880859375,-1523.26953125) translate(385.3011474609375,537.3822631835938) scale(0.34039491415023804) translate(-385.3011474609375,-537.3822631835938) translate(73.0293197631836,441.21307373046875) scale(1.9158587455749512) translate(-73.0293197631836,-441.21307373046875) " id="CorelCorpID_0Corel-Layer"/>
   <path stroke="null" id="svg_1" d="m19.79773,17.99522l0,0l-0.41218,0l0.05376,-0.16522l0.87811,0l-0.01792,0.16522l-0.50178,0l0,0zm-0.34049,-0.2974l0.03584,-0.19826l0.86019,0l-0.01792,0.19826l-0.87811,0zm0.07168,-0.2974l0.03584,-0.19826l0.82435,0l-0.01792,0.19826l-0.84227,0zm0.05376,-0.2974l0.01792,-0.13218l0.80643,0l-0.01792,0.13218l-0.80643,0zm0.17921,1.02437l-0.03584,0.19826l-0.39426,0l0.03584,-0.19826l0.39426,0zm0.53762,0l-0.01792,0.19826l-0.5197,0l0.01792,-0.19826l0.5197,0zm-0.59138,0.2974l-0.05376,0.19826l-0.39426,0l0.05376,-0.19826l0.39426,0zm0.55554,0l-0.01792,0.19826l-0.5197,0l0.01792,-0.19826l0.5197,0zm-0.62722,0.2974l-0.05376,0.19826l-0.37633,0l0.03584,-0.19826l0.39426,0zm0.59138,0l-0.01792,0.19826l-0.53762,0l0.01792,-0.06609l0.01792,-0.13218l0.5197,0zm-0.66307,0.2974l-0.05376,0.19826l-0.37633,0l0.05376,-0.19826l0.37633,0zm0.64515,0l-0.01792,0.19826l-0.53762,0l0.01792,-0.19826l0.53762,0zm-0.71683,0.2974l-0.05376,0.19826l-0.35841,0l0.03584,-0.19826l0.37633,0zm0.68099,0l-0.01792,0.19826l-0.53762,0l0.01792,-0.19826l0.53762,0zm-0.75267,0.33044l-0.05376,0.16522l-0.71683,0l0,-0.16522l0.39426,0l0,0.03304l0,-0.03304l0.37633,0zm-0.77059,-0.13218l0,-0.19826l0.39426,0l0,0.19826l-0.39426,0zm-0.01792,-0.2974l0,-0.19826l0.39426,0l0,0.19826l-0.39426,0zm0,-0.2974l-0.01792,-0.19826l0.41218,0l0,0.19826l-0.39426,0zm-0.01792,-0.2974l0,-0.19826l0.41218,0l0,0.19826l-0.41218,0zm0,-0.2974l-0.01792,-0.19826l0.4301,0l0,0.19826l-0.41218,0zm-0.01792,-0.33044l0,0l0,0l-0.50178,0l0.01792,-0.16522l0.89604,0l0,0.16522l-0.41218,0zm-0.46594,-0.2974l0.01792,-0.19826l0.86019,0l0,0.19826l-0.87811,0zm0.01792,-0.2974l0.01792,-0.19826l0.84227,0l0,0.19826l-0.86019,0zm0.03584,-0.2974l0.01792,-0.13218l0.80643,0l0,0.13218l-0.82435,0zm0.41218,1.02437l-0.01792,0.19826l-0.5197,0l0.01792,-0.19826l0.5197,0zm-0.03584,0.2974l0,0.19826l-0.53762,0l0.03584,-0.19826l0.50178,0zm-0.01792,0.2974l-0.01792,0.19826l-0.5197,0l0.01792,-0.19826l0.5197,0zm-0.01792,0.2974l-0.01792,0.19826l-0.53762,0l0.01792,-0.19826l0.53762,0zm-0.03584,0.2974l-0.01792,0.19826l-0.53762,0l0.01792,-0.19826l0.53762,0zm-0.03584,0.33044l-0.01792,0.16522l-0.5197,0l0.01792,-0.16522l0.5197,0zm1.68455,0l-0.01792,0.16522l-0.53762,0l0.01792,-0.16522l0.53762,0zm-0.78851,0.2974l-0.03584,0.19826l-0.64515,0l0,-0.19826l0.68099,0zm-0.91396,0l-0.01792,0.19826l-0.53762,0l0.01792,-0.19826l0.53762,0zm1.68455,0l-0.03584,0.19826l-0.5197,0l0.01792,-0.19826l0.53762,0zm-0.84227,0.2974l-0.03584,0.19826l-0.57346,0l0,-0.19826l0.6093,0zm-0.87811,0l-0.01792,0.19826l-0.53762,0l0.01792,-0.19826l0.53762,0zm1.68455,0l-0.01792,0.19826l-0.53762,0l0.01792,-0.19826l0.53762,0zm-0.87811,0.2974l-0.03584,0.19826l-0.48386,0l0,-0.19826l0.5197,0zm-0.84227,0l-0.01792,0.19826l-0.5197,0l0.01792,-0.19826l0.5197,0zm1.68455,0l-0.01792,0.19826l-0.53762,0l0.01792,-0.19826l0.53762,0zm-0.91396,0.2974l-0.03584,0.19826l-0.39426,0l-0.01792,-0.19826l0.44802,0zm-0.78851,0l-0.01792,0.19826l-0.53762,0l0.01792,-0.19826l0.53762,0zm1.66663,0l-0.01792,0.19826l-0.5197,0l0.01792,-0.19826l0.5197,0zm-0.9498,0.2974l-0.01792,0.16522l-0.34049,0l0,-0.16522l0.35841,0zm-0.75267,0l-0.01792,0.16522l-0.53762,0l0.01792,-0.16522l0.53762,0zm1.68455,0l-0.01792,0.16522l-0.53762,0l0.01792,-0.16522l0.53762,0zm2.20425,-1.61916c0,0 0,0 0,0l-0.53762,0l0.01792,-0.19826l0.53762,0l-0.01792,0.19826zm-0.5197,-0.2974l0.03584,-0.19826l0.53762,0l-0.01792,0.19826l-0.55554,0zm0.03584,-0.2974l0.01792,-0.19826l0.55554,0c0,0.03304 -0.01792,0.09913 -0.01792,0.13218l0,0.06609l-0.55554,0zm0.03584,-0.2974l0.01792,-0.16522c0,0 0,-0.03304 0,-0.03304l0.53762,0c0,0.06609 0,0.13218 -0.01792,0.19826l-0.53762,0zm0.01792,-0.2974c0,-0.06609 0,-0.09913 0,-0.13218c0,-0.03304 0,-0.06609 0,-0.06609l0.55554,0c0,0 0,0 0,0c0,0.06609 0,0.13218 -0.01792,0.19826l-0.53762,0zm0,-0.33044c0,-0.03304 0,-0.06609 -0.01792,-0.09913c0,-0.03304 0,-0.06609 0,-0.06609l0.57346,0c0,0.06609 0,0.09913 0,0.16522l-0.55554,0zm-0.07168,-0.2974c-0.03584,-0.03304 -0.0896,-0.06609 -0.14337,-0.06609c-0.07168,0 -0.12544,0.03304 -0.17921,0.06609l-0.6093,0c0.01792,-0.06609 0.03584,-0.13218 0.05376,-0.19826l1.4695,0c0,0.03304 0,0.03304 0,0.03304c0,0.06609 0.01792,0.09913 0.01792,0.16522l-0.6093,0zm-0.82435,-0.2974c0,-0.03304 0.01792,-0.03304 0.03584,-0.06609c0.01792,-0.03304 0.03584,-0.09913 0.07168,-0.13218l1.20069,0c0.03584,0.06609 0.05376,0.13218 0.07168,0.19826l-1.37989,0zm0.17921,-0.2974c0.07168,-0.09913 0.14337,-0.13218 0.21505,-0.19826c0.07168,-0.03304 0.19713,-0.06609 0.35841,-0.06609c0.17921,0 0.34049,0.06609 0.44802,0.19826c0.01792,0.03304 0.03584,0.03304 0.05376,0.06609l-1.07524,0zm0.25089,0.72697c-0.03584,0.03304 -0.05376,0.09913 -0.07168,0.16522l-0.53762,0c0.01792,-0.06609 0.03584,-0.13218 0.03584,-0.16522l0.57346,0zm-0.10752,0.2974c0,0.06609 -0.01792,0.13218 -0.01792,0.19826l-0.5197,0c0.01792,-0.06609 0.01792,-0.13218 0.01792,-0.19826l0.5197,0zm-0.03584,0.2974l-0.01792,0.19826l-0.5197,0c0,-0.06609 0.01792,-0.09913 0.01792,-0.16522c0,0 0,-0.03304 0,-0.03304l0.5197,0zm-0.03584,0.2974l-0.01792,0.19826l-0.53762,0c0.01792,0 0.01792,-0.06609 0.03584,-0.19826l0.5197,0zm-0.01792,0.2974l-0.03584,0.19826l-0.53762,0l0.01792,-0.19826l0.55554,0zm-0.03584,0.2974l-0.01792,0.19826l-0.55554,0l0.03584,-0.19826l0.53762,0zm1.129,0.33044c-0.01792,0.06609 -0.01792,0.13218 -0.03584,0.16522l-0.53762,0l0.01792,-0.16522l0.55554,0zm-1.16485,0l-0.01792,0.16522l-0.53762,0c0,-0.03304 0,-0.09913 0.01792,-0.16522l0.53762,0zm1.129,0.2974c-0.01792,0.06609 -0.01792,0.13218 -0.03584,0.19826l-0.53762,0c0,-0.06609 0.01792,-0.13218 0.01792,-0.19826l0.55554,0zm-1.16485,0c0,0.06609 0,0.13218 0,0.19826l-0.53762,0c0,-0.06609 0,-0.13218 0,-0.19826l0.53762,0zm1.11108,0.2974c0,0 0,0 0,0.03304c-0.01792,0.03304 -0.03584,0.09913 -0.03584,0.16522l-0.57346,0c0.01792,-0.06609 0.05376,-0.13218 0.07168,-0.19826l0.53762,0zm-1.11108,0c0,0.06609 0.01792,0.13218 0.03584,0.19826l-0.59138,0c0,-0.03304 0,-0.09913 0,-0.13218c0,-0.03304 0,-0.03304 0,-0.06609l0.55554,0zm1.0394,0.2974c-0.01792,0.06609 -0.03584,0.13218 -0.05376,0.19826l-1.50534,0c0,-0.06609 -0.01792,-0.13218 -0.01792,-0.19826l0.6093,0c0.05376,0.06609 0.10752,0.09913 0.17921,0.09913c0.07168,0 0.12544,-0.03304 0.17921,-0.09913l0.6093,0zm-0.10752,0.2974c-0.03584,0.06609 -0.07168,0.13218 -0.10752,0.19826l-1.25445,0c-0.01792,-0.06609 -0.05376,-0.13218 -0.07168,-0.19826l1.43366,0zm-0.17921,0.2974c-0.03584,0.06609 -0.07168,0.09913 -0.10752,0.09913c-0.12544,0.13218 -0.28673,0.16522 -0.46594,0.16522c-0.19713,0 -0.35841,-0.03304 -0.46594,-0.16522c-0.03584,-0.03304 -0.05376,-0.03304 -0.0896,-0.09913l1.129,0zm2.29385,-1.15654c-0.01792,0.06609 -0.01792,0.09913 -0.01792,0.16522l-0.55554,0c0,-0.06609 0.01792,-0.09913 0.01792,-0.16522c0,0 0,-0.03304 0,-0.03304l0.55554,0c0,0 0,0.03304 0,0.03304zm-0.53762,-0.16522c0,-0.06609 0,-0.13218 -0.01792,-0.16522l0.57346,0c0,0 0,0.03304 0,0.03304c0,0.06609 -0.01792,0.09913 -0.01792,0.13218l-0.53762,0zm-0.05376,-0.2974c-0.03584,-0.06609 -0.0896,-0.09913 -0.16129,-0.09913l-0.19713,0l-0.01792,0.09913l-0.53762,0l0.01792,-0.19826l1.4695,0c0.01792,0.06609 0.01792,0.09913 0.01792,0.13218c0,0.03304 0,0.03304 0,0.06609l-0.59138,0zm-0.87811,-0.2974l0.01792,-0.19826l1.30821,0c0.01792,0.03304 0.03584,0.06609 0.05376,0.06609c0.01792,0.03304 0.03584,0.09913 0.05376,0.13218l-1.43366,0zm0.03584,-0.2974l0.01792,-0.19826l1.37989,0c-0.03584,0.06609 -0.07168,0.13218 -0.12544,0.19826l-1.27237,0zm0.01792,-0.2974l0.01792,-0.19826l0.53762,0l-0.01792,0.19826l-0.53762,0zm0.03584,-0.2974l0.01792,-0.19826l0.53762,0l-0.01792,0.19826l-0.53762,0zm0.03584,-0.33044l0.01792,-0.16522l0.53762,0l-0.01792,0.16522l-0.53762,0zm0.01792,-0.2974l0.01792,-0.19826l1.43366,0c0,0.06609 0,0.13218 0.01792,0.19826l-1.4695,0zm0.03584,-0.2974l0.01792,-0.19826l1.29029,0c0,0.03304 0.01792,0.03304 0.01792,0.03304c0.03584,0.06609 0.05376,0.09913 0.05376,0.16522l-1.37989,0zm0.03584,-0.2974l0,-0.13218l0.84227,0c0.14337,0 0.25089,0.06609 0.34049,0.13218l-1.18277,0zm1.39782,0.72697c0,0.03304 -0.01792,0.09913 -0.01792,0.16522l-0.53762,0c0,-0.03304 0,-0.09913 -0.01792,-0.13218c0,-0.03304 0,-0.03304 0,-0.03304l0.57346,0zm-0.03584,0.2974c0,0.06609 -0.01792,0.13218 -0.01792,0.19826l-0.53762,0c0.01792,-0.06609 0.01792,-0.09913 0.01792,-0.16522c0.01792,0 0.01792,-0.03304 0.01792,-0.03304l0.5197,0zm-0.03584,0.2974c-0.01792,0.06609 -0.03584,0.13218 -0.05376,0.19826l-0.57346,0c0,0 0.01792,-0.03304 0.01792,-0.03304c0.03584,-0.03304 0.05376,-0.09913 0.07168,-0.16522l0.53762,0zm-1.05732,1.22263l-0.01792,0.16522l-0.5197,0l0.01792,-0.16522l0.5197,0zm-0.01792,0.2974l-0.01792,0.19826l-0.53762,0l0.01792,-0.19826l0.53762,0zm0.96772,0.2974c-0.01792,0.06609 -0.03584,0.13218 -0.05376,0.19826l-0.57346,0c0.01792,-0.06609 0.05376,-0.13218 0.07168,-0.19826l0.55554,0zm-1.00356,0l-0.01792,0.19826l-0.53762,0l0.01792,-0.19826l0.53762,0zm0.93188,0.2974c-0.01792,0.03304 -0.01792,0.06609 -0.03584,0.09913c0,0.03304 -0.01792,0.06609 -0.03584,0.09913l-1.45158,0l0.03584,-0.19826l0.5197,0l0,0.03304l0.21505,0c0.03584,0 0.07168,0 0.0896,-0.03304l0.66307,0zm-0.10752,0.2974c-0.03584,0.06609 -0.07168,0.13218 -0.12544,0.19826l-1.30821,0l0.01792,-0.19826l1.41574,0zm-0.21505,0.2974c-0.05376,0.06609 -0.0896,0.09913 -0.14337,0.09913c-0.07168,0.03304 -0.12544,0.06609 -0.21505,0.06609l-0.89604,0l0.01792,-0.16522l1.23653,0zm1.14693,0.16522l-0.53762,0l0.01792,-0.16522l0.53762,0l-0.01792,0.16522zm-0.50178,-0.26435l0.01792,-0.19826l0.53762,0l-0.01792,0.19826l-0.53762,0zm0.01792,-0.2974l0.03584,-0.19826l0.5197,0l-0.01792,0.19826l-0.53762,0zm0.03584,-0.2974l0.01792,-0.19826l0.53762,0l-0.01792,0.19826l-0.53762,0zm0.03584,-0.2974l0.01792,-0.19826l0.53762,0l-0.01792,0.19826l-0.53762,0zm0.03584,-0.33044l0.01792,-0.16522l0.5197,0l-0.01792,0.16522l-0.5197,0zm0.01792,-0.2974l0.01792,-0.19826l0.53762,0l-0.01792,0.19826l-0.53762,0zm0.03584,-0.2974l0.01792,-0.19826l0.53762,0l-0.01792,0.19826l-0.53762,0zm0.03584,-0.2974l0.01792,-0.19826l0.53762,0l-0.03584,0.19826l-0.5197,0zm0.01792,-0.2974l0.01792,-0.19826l0.53762,0l-0.01792,0.19826l-0.53762,0zm0.03584,-0.2974l0.01792,-0.19826l0.53762,0l-0.01792,0.19826l-0.53762,0zm0.03584,-0.33044l0.01792,-0.16522l0.53762,0l-0.01792,0.16522l-0.53762,0zm0.01792,-0.2974l0.03584,-0.19826l0.5197,0l-0.01792,0.19826l-0.53762,0zm0.03584,-0.2974l0.01792,-0.19826l0.53762,0l-0.01792,0.19826l-0.53762,0zm0.03584,-0.2974l0,-0.13218l0.53762,0l0,0.13218l-0.53762,0zm1.8996,4.19661l-1.39782,0l0.01792,-0.16522l1.39782,0l-0.01792,0.16522zm-1.37989,-0.26435l0.01792,-0.19826l1.39782,0l-0.01792,0.19826l-1.39782,0zm0.03584,-0.2974l0.01792,-0.19826l0.5197,0l0,0.03304l0.87811,0l-0.01792,0.16522l-1.39782,0zm0.03584,-0.2974l0.01792,-0.19826l0.5197,0l-0.01792,0.19826l-0.5197,0zm0.01792,-0.2974l0.01792,-0.19826l0.53762,0l-0.01792,0.19826l-0.53762,0zm0.03584,-0.33044l0.01792,-0.16522l0.5197,0l-0.01792,0.16522l-0.5197,0zm0.03584,-0.2974l0.01792,-0.19826l0.5197,0l-0.01792,0.19826l-0.5197,0zm0.01792,-0.2974l0.01792,-0.19826l0.53762,0l-0.01792,0.19826l-0.53762,0zm0.03584,-0.2974l0.01792,-0.19826l0.53762,0l-0.03584,0.19826l-0.5197,0zm0.03584,-0.2974l0.01792,-0.19826l0.5197,0l-0.01792,0.19826l-0.5197,0zm0.01792,-0.2974l0.03584,-0.19826l0.5197,0l-0.01792,0.19826l-0.53762,0zm0.03584,-0.33044l0.01792,-0.16522l0.53762,0l-0.01792,0.16522l-0.53762,0zm0.03584,-0.2974l0.01792,-0.19826l0.5197,0l-0.01792,0.19826l-0.5197,0zm0.03584,-0.2974l0.01792,-0.19826l0.5197,0l-0.01792,0.19826l-0.5197,0zm0.01792,-0.2974l0.01792,-0.13218l0.5197,0l0,0.13218l-0.53762,0zm2.5985,4.19661l-1.36197,0l0,-0.16522l1.37989,0l-0.01792,0.16522zm-1.34405,-0.26435l0.01792,-0.19826l1.37989,0l-0.01792,0.19826l-1.37989,0zm0.03584,-0.2974l0.01792,-0.19826l0.53762,0l0,0.03304l0.84227,0l-0.01792,0.16522l-1.37989,0zm0.01792,-0.2974l0.01792,-0.19826l0.53762,0l-0.01792,0.19826l-0.53762,0zm0.03584,-0.2974l0.01792,-0.19826l0.53762,0l-0.01792,0.19826l-0.53762,0zm0.03584,-0.33044l0.01792,-0.16522l0.53762,0l-0.01792,0.16522l-0.53762,0zm0.01792,-0.2974l0.03584,-0.19826l1.30821,0l-0.01792,0.06609l-0.77059,0l-0.01792,0.13218l-0.53762,0zm0.03584,-0.2974l0.01792,-0.19826l1.30821,0l-0.01792,0.19826l-1.30821,0zm0.03584,-0.2974l0.01792,-0.19826l1.30821,0l-0.01792,0.19826l-1.30821,0zm0.03584,-0.2974l0.01792,-0.19826l0.53762,0l-0.03584,0.19826l-0.5197,0zm0.01792,-0.2974l0.01792,-0.19826l0.53762,0l-0.01792,0.19826l-0.53762,0zm0.03584,-0.33044l0.01792,-0.16522l0.53762,0l-0.01792,0.16522l-0.53762,0zm0.03584,-0.2974l0.01792,-0.19826l1.37989,0l-0.01792,0.19826l-1.37989,0zm0.01792,-0.2974l0.01792,-0.19826l1.37989,0l-0.01792,0.19826l-1.37989,0zm0.03584,-0.2974l0.01792,-0.13218l1.37989,0l-0.01792,0.13218l-1.37989,0z" class="fil0"/>
   <path stroke="null" id="svg_2" d="m34.0447,24.07534l0.32257,0l0,0.59479l-0.32257,0l0,-0.59479zm-3.13612,-2.01569l1.07524,0c0.12544,0 0.23297,0.23131 0.23297,0.46262l0,0.39653l-0.23297,0l0,-0.39653l-1.0394,0c0,0.19826 0,0.26435 0,0.49566c0.28673,0 0.91396,0.09913 1.07524,0.13218c0.14337,0.03304 0.19713,0.06609 0.19713,0.23131l0,0.8261c0,0.26435 -0.10752,0.46262 -0.23297,0.46262l-1.07524,0c-0.12544,0 -0.23297,-0.19826 -0.23297,-0.46262l0,-0.42957l0.26881,0l0,0.46262l1.0394,0c0,-0.23131 0,-0.42957 0,-0.66088c-0.28673,-0.03304 -0.87811,-0.09913 -1.07524,-0.13218c-0.16129,-0.03304 -0.23297,-0.23131 -0.23297,-0.52871l0,-0.39653c0,-0.23131 0.10752,-0.46262 0.23297,-0.46262zm1.88167,0l1.84583,0c0.10752,0 0.19713,0.16522 0.19713,0.39653l0,2.21396l-0.26881,0l0,-2.14787l-0.71683,0l0,2.14787l-0.26881,0l0,-2.14787l-0.71683,0l0,2.14787l-0.26881,0l0,-2.21396c0,-0.23131 0.0896,-0.39653 0.19713,-0.39653zm-3.92464,0l1.21861,0c0.14337,0 0.25089,0.23131 0.25089,0.46262l0,0.39653l-0.23297,0l0,-0.39653l-1.23653,0l0,1.68525l1.23653,0l0,-0.42957l-0.68099,0l0,-0.39653l0.91396,0l0,0.8261c0,0.26435 -0.10752,0.46262 -0.25089,0.46262l-1.21861,0c-0.12544,0 -0.23297,-0.19826 -0.23297,-0.46262l0,-1.68525c0,-0.23131 0.10752,-0.46262 0.23297,-0.46262zm4.17553,0.85915l0.32257,0l0,0.59479l-0.32257,0l0,-0.59479zm0,1.15654l0.32257,0l0,0.59479l-0.32257,0l0,-0.59479z" class="fil1"/>
   <polygon stroke="null" id="svg_3" points="35.137867882847786,22.059655904769897 35.460438683629036,22.059655904769897 35.460438683629036,22.654435873031616 35.137867882847786,22.654435873031616 " class="fil0"/>
   <path stroke="null" id="svg_4" d="m15.38924,23.08402l1.23653,0c6.45146,0 11.73807,0.13218 11.73807,0.2974l0,0c0,0.13218 -5.28661,0.26435 -11.73807,0.26435l-1.23653,0c-3.18989,0 -6.07512,-0.03304 -8.20769,-0.06609c-0.25089,-0.13218 -0.48386,-0.26435 -0.71683,-0.39653c2.15049,-0.06609 5.35829,-0.09913 8.92451,-0.09913zm-9.56966,0.46262c-1.36197,-0.06609 -2.16841,-0.09913 -2.16841,-0.16522l0,0c0,-0.06609 0.62722,-0.09913 1.68455,-0.16522c0.16129,0.09913 0.32257,0.23131 0.48386,0.33044z" class="fil2"/>
   <path stroke="null" id="svg_5" d="m6.21383,20.04396c-0.01792,0.23131 -0.05376,0.46262 -0.12544,0.66088c-0.05376,0.19826 -0.14337,0.36349 -0.25089,0.49566c-0.05376,0.03304 -0.12544,0.09913 -0.17921,0.13218c-0.07168,0.03304 -0.14337,0.03304 -0.21505,0.03304l-0.89604,0l0.4301,-4.29574l0.84227,0c0.21505,0 0.35841,0.06609 0.44802,0.26435c0.0896,0.16522 0.12544,0.42957 0.0896,0.76002c-0.03584,0.33044 -0.0896,0.52871 -0.16129,0.69393c-0.05376,0.09913 -0.10752,0.19826 -0.17921,0.26435c0.05376,0.03304 0.0896,0.06609 0.10752,0.09913c0.05376,0.09913 0.0896,0.23131 0.10752,0.36349c0,0.06609 0,0.16522 0,0.26435c0,0.06609 0,0.16522 -0.01792,0.26435zm-0.41218,-1.78438c0.01792,-0.16522 0.01792,-0.26435 0,-0.33044c0,-0.06609 -0.03584,-0.09913 -0.07168,-0.09913c-0.01792,-0.03304 -0.0896,-0.03304 -0.16129,-0.03304l-0.12544,0l-0.0896,0.95828l0.12544,0c0.0896,0 0.16129,-0.03304 0.21505,-0.09913c0.05376,-0.06609 0.0896,-0.19826 0.10752,-0.39653zm-0.12544,1.78438c0.03584,-0.36349 -0.03584,-0.56175 -0.19713,-0.56175l-0.21505,0l-0.10752,1.15654l0.21505,0c0.16129,0 0.26881,-0.19826 0.30465,-0.59479zm2.40138,1.32177l-0.57346,0l0,-1.05741l-0.50178,0l-0.23297,1.05741l-0.55554,0l1.0394,-4.29574l0.68099,0l0.14337,4.29574zm-0.57346,-3.46963l-0.34049,1.68525l0.32257,0l0.01792,-1.68525zm2.4193,2.14787c-0.01792,0.23131 -0.07168,0.46262 -0.12544,0.66088c-0.07168,0.19826 -0.16129,0.36349 -0.26881,0.49566c-0.05376,0.03304 -0.10752,0.09913 -0.17921,0.13218c-0.05376,0.03304 -0.12544,0.03304 -0.19713,0.03304l-0.89604,0l0.4301,-4.29574l0.84227,0c0.19713,0 0.35841,0.06609 0.44802,0.26435c0.07168,0.16522 0.10752,0.42957 0.07168,0.76002c-0.03584,0.33044 -0.07168,0.52871 -0.14337,0.69393c-0.05376,0.09913 -0.10752,0.19826 -0.17921,0.26435c0.03584,0.03304 0.07168,0.06609 0.10752,0.09913c0.05376,0.09913 0.0896,0.23131 0.0896,0.36349c0.01792,0.06609 0.01792,0.16522 0.01792,0.26435c0,0.06609 -0.01792,0.16522 -0.01792,0.26435zm-0.41218,-1.78438c0,-0.16522 0,-0.26435 0,-0.33044c-0.01792,-0.06609 -0.03584,-0.09913 -0.07168,-0.09913c-0.03584,-0.03304 -0.0896,-0.03304 -0.16129,-0.03304l-0.14337,0l-0.0896,0.95828l0.12544,0c0.10752,0 0.17921,-0.03304 0.23297,-0.09913c0.05376,-0.06609 0.0896,-0.19826 0.10752,-0.39653zm-0.14337,1.78438c0.05376,-0.36349 -0.01792,-0.56175 -0.19713,-0.56175l-0.19713,0l-0.10752,1.15654l0.21505,0c0.16129,0 0.25089,-0.19826 0.28673,-0.59479zm1.27237,1.32177l-0.5197,0l0.4301,-4.29574l0.53762,0l-0.44802,4.29574zm1.79207,0l-1.39782,0l0.4301,-4.29574l0.53762,0l-0.37633,3.56877l0.87811,0l-0.07168,0.72697zm2.11464,-1.78438c-0.03584,0.33044 -0.05376,0.56175 -0.0896,0.76002c-0.05376,0.19826 -0.10752,0.39653 -0.17921,0.56175c-0.07168,0.16522 -0.16129,0.33044 -0.28673,0.42957c-0.12544,0.09913 -0.28673,0.13218 -0.48386,0.13218c-0.17921,0 -0.34049,-0.03304 -0.44802,-0.13218c-0.10752,-0.09913 -0.17921,-0.26435 -0.21505,-0.46262c-0.03584,-0.13218 -0.05376,-0.33044 -0.05376,-0.49566c0,-0.16522 0.01792,-0.39653 0.05376,-0.69393l0.07168,-0.69393c0,0 0.03584,-0.13218 0.07168,-0.46262c0.03584,-0.2974 0.07168,-0.49566 0.0896,-0.62784c0.05376,-0.23131 0.10752,-0.36349 0.16129,-0.49566c0.12544,-0.19826 0.25089,-0.33044 0.35841,-0.39653c0.0896,-0.06609 0.21505,-0.09913 0.37633,-0.09913c0.17921,0 0.34049,0.06609 0.44802,0.19826c0.10752,0.13218 0.16129,0.2974 0.19713,0.49566c0.03584,0.19826 0.05376,0.39653 0.05376,0.59479c0,0.19826 -0.01792,0.42957 -0.05376,0.72697l-0.07168,0.66088zm-0.57346,0.39653l0.14337,-1.45394c0,-0.09913 0,-0.16522 0,-0.26435c0,-0.09913 0,-0.19826 -0.01792,-0.2974c-0.01792,-0.16522 -0.0896,-0.26435 -0.19713,-0.26435c-0.21505,0 -0.34049,0.26435 -0.39426,0.76002l-0.14337,1.52003c-0.05376,0.49566 0.01792,0.72697 0.23297,0.72697c0.19713,0 0.32257,-0.23131 0.37633,-0.72697zm2.40138,1.38785l-0.53762,0l-0.35841,-2.87484l-0.23297,2.87484l-0.5197,0l0.4301,-4.29574l0.53762,0l0.34049,2.90788c0.03584,-0.33044 0.07168,-0.69393 0.10752,-1.09046c0.01792,-0.42957 0.05376,-0.8261 0.0896,-1.22263c0.01792,-0.39653 0.03584,-0.59479 0.03584,-0.59479l0.53762,0l-0.4301,4.29574z" class="fil3"/>
   <polygon stroke="null" id="svg_6" points="16.98418326675892,19.08567976951599 17.665169671177864,19.08567976951599 17.665169671177864,19.44916319847107 16.98418326675892,19.44916319847107 " class="fil0"/>
   <path stroke="null" id="svg_7" d="m31.57164,20.44049l0,0l-0.12544,0l-0.25089,-0.03304l-0.23297,-0.09913l-0.23297,-0.13218l-0.23297,-0.19826l-0.19713,-0.19826l-0.19713,-0.23131l-0.17921,-0.26435l-0.16129,-0.33044l-0.16129,-0.33044l-0.12544,-0.36349l-0.12544,-0.36349l-0.0896,-0.42957l-0.07168,-0.42957l-0.05376,-0.42957l-0.01792,-0.66088l0,-0.26435l0.01792,-0.42957l0,0.19826c-4.17553,-1.45394 -9.33669,-2.34613 -14.33657,-2.34613c-9.40837,0 -14.76667,3.23833 -11.91727,7.17058c2.86731,3.9653 12.88499,7.17058 22.29336,7.17058c9.42629,0 14.78459,-3.20528 11.91727,-7.17058c-0.69891,-0.95828 -1.80999,-1.88352 -3.24365,-2.70962l-0.07168,0.33044l-0.10752,0.36349l-0.14337,0.36349l-0.14337,0.33044l-0.16129,0.33044l-0.17921,0.26435l-0.19713,0.23131l-0.21505,0.19826l-0.21505,0.19826l-0.23297,0.13218l-0.23297,0.09913l-0.37633,0.03304zm-2.38345,-5.65055l0.07168,-0.42957l0.0896,-0.39653l0.12544,-0.36349l0.12544,-0.36349l0.16129,-0.33044l0.16129,-0.33044l0.17921,-0.26435l0.19713,-0.23131l0.19713,-0.23131l0.23297,-0.16522l0.23297,-0.13218l0.23297,-0.09913l0.37633,-0.03304l0.12544,0l0.25089,0.03304l0.23297,0.09913l0.23297,0.13218l0.21505,0.16522l0.21505,0.23131l0.19713,0.23131l0.17921,0.26435l0.16129,0.33044l0.14337,0.33044l0.14337,0.36349l0.10752,0.36349l0.0896,0.39653l0.07168,0.42957l0.05376,0.46262l0.03584,0.69393l-0.01792,0.19826l-0.01792,0.46262l-0.03584,0.2974c1.73831,1.02437 3.10028,2.18091 3.9784,3.3705c3.31533,4.59314 -2.02504,8.36017 -11.89935,8.36017c-9.89223,0 -20.66258,-3.76703 -23.97791,-8.36017c-3.33325,-4.59314 2.00712,-8.36017 11.89935,-8.36017c5.25077,0 10.75243,1.05741 15.25052,2.74266l-0.01792,0.13218zm2.38345,5.51837l0,0l-0.12544,0l-0.23297,-0.03304l-0.23297,-0.09913l-0.23297,-0.13218l-0.21505,-0.16522l-0.19713,-0.19826l-0.19713,-0.23131l-0.17921,-0.2974l-0.14337,-0.2974l-0.14337,-0.2974l-0.14337,-0.36349l-0.10752,-0.36349l-0.0896,-0.39653l-0.07168,-0.42957l-0.03584,-0.39653l-0.03584,-0.69393l0,-0.19826l0.03584,-0.46262l0.03584,-0.42957l0.07168,-0.39653l0.0896,-0.39653l0.10752,-0.39653l0.14337,-0.33044l0.14337,-0.33044l0.14337,-0.2974l0.17921,-0.26435l0.19713,-0.23131l0.19713,-0.19826l0.21505,-0.19826l0.23297,-0.09913l0.23297,-0.09913l0.35841,-0.03304l0.10752,0l0.25089,0.03304l0.23297,0.09913l0.21505,0.09913l0.21505,0.19826l0.19713,0.19826l0.19713,0.23131l0.17921,0.26435l0.16129,0.2974l0.14337,0.33044l0.12544,0.33044l0.10752,0.39653l0.0896,0.39653l0.07168,0.39653l0.05376,0.42957l0.03584,0.66088l0,0.23131l-0.03584,0.46262l-0.05376,0.39653l-0.07168,0.42957l-0.0896,0.39653l-0.10752,0.36349l-0.12544,0.36349l-0.14337,0.2974l-0.16129,0.2974l-0.17921,0.2974l-0.19713,0.23131l-0.19713,0.19826l-0.21505,0.16522l-0.21505,0.13218l-0.23297,0.09913l-0.35841,0.03304z" class="fil1"/>
   <path stroke="null" id="svg_8" d="m30.37095,14.62472l0,0.03304l0,0l0.01792,0.03304l0,0l0.01792,0.03304l0,0l0,0.03304l0.01792,0l0,0l0.01792,0.03304l0,0l0,0.03304l0,0l0,0.03304l0.0896,0.09913l-0.01792,0.23131l1.91752,0l-0.07168,-0.06609l-0.03584,-0.06609l-0.05376,-0.06609l-0.01792,-0.09913l0,-0.13218l-0.05376,-0.13218l-0.03584,0l0.01792,0.06609l-0.01792,0.06609l-0.01792,-0.03304l-0.03584,-0.09913l-1.39782,0l0,0.13218l0,0.06609l0,0.06609l-0.07168,-0.03304l0,-0.03304l0,-0.06609l0,-0.06609l-0.01792,-0.06609l-0.25089,0zm2.83147,0.56175l0.01792,0l0.03584,-0.06609l-0.01792,-0.03304l-0.05376,0l-0.01792,0l0,0.03304l-0.05376,0l0,0.03304l0,0.03304l0.0896,0l0.57346,0l0,0.13218l-0.89604,0l0,0.06609l0,0.06609l0,0.09913l-0.10752,0l0,-0.06609l0,-0.06609l-0.03584,0l-0.05376,-0.06609l-0.03584,-0.03304l-2.15049,0l0,0.16522l-0.05376,0.13218l0,0.03304l0,0l-0.01792,0.03304l0,0l-0.01792,0.03304l0,0l-0.01792,0.03304l0,0l-0.01792,0.03304l-0.01792,0l0,0l-0.01792,0l0,0.03304l-0.01792,0l0,0.03304l0,0l2.72395,0l0.01792,-0.03304l-0.03584,-0.06609l-0.03584,0l-0.03584,0l-0.01792,0l-0.07168,-0.06609l-0.03584,-0.06609l0.19713,-0.03304l0.05376,0.09913l0.03584,0l0,0.06609l0.01792,0.03304l0.01792,-0.09913l0.01792,-0.06609l0.28673,0l0.03584,0.16522l0.01792,0l0.07168,0.03304l0.01792,0.03304l0.21505,0l-0.01792,0.13218l-0.01792,0l0,0.06609l0.01792,0.06609l0,0.16522l0,0.16522l-0.01792,0.16522l-0.01792,0.16522l-0.01792,0.16522l-0.03584,0.16522l-0.01792,0.16522l-0.03584,0.16522l-0.03584,0.13218l-0.03584,0.16522l-0.03584,0.13218l-0.03584,0.13218l-0.05376,0.13218l-0.05376,0.16522l-0.05376,0.13218l-0.03584,0.03304l-0.01792,0.06609l-0.05376,0.13218l-1.50534,0l0,0l-0.01792,0.23131l-0.05376,0.13218l-0.01792,0.06609l-0.03584,0.06609l0,0.06609l1.29029,0l-0.0896,0.09913l-2.45514,0l-0.0896,-0.09913l1.05732,0l0,-0.03304l-0.01792,-0.03304l-0.01792,-0.03304l0.01792,-0.03304l0,-0.03304l-0.01792,0l-0.03584,0l-0.03584,-0.03304l0,-0.06609l-0.19713,0l-0.03584,0.06609l-0.03584,0.03304l-0.05376,0l-0.01792,0.03304l-0.03584,0.03304l-0.03584,0.06609l-0.01792,0l-0.01792,-0.06609l-0.01792,-0.03304l0,-0.06609l-0.01792,-0.06609l-0.01792,-0.09913l-0.01792,-0.09913l-0.01792,-0.09913l-0.75267,0l-0.05376,-0.13218l0.80643,0l0,0l0,-0.16522l0.01792,-0.06609l0.12544,-0.13218l0.01792,-0.03304l0.03584,-0.03304l0,-0.06609l0,-0.06609l-1.21861,0l-0.05376,-0.09913l0.50178,0l-0.05376,-0.09913l-0.05376,-0.16522l0.10752,0l0.05376,0.03304l0.03584,0.09913l0.05376,0.03304l0.05376,0.06609l0.01792,-0.03304l0.03584,-0.03304l0.03584,0.03304l0.05376,0l0.03584,0.06609l0.4301,0l0.01792,-0.03304l0.03584,-0.06609l0.01792,0l0.01792,0.03304l0.01792,0.06609l0.01792,-0.03304l0,-0.06609l0.01792,-0.06609l-0.01792,-0.06609l0.01792,-0.03304l0.17921,0.03304l0,0.13218l0.01792,0.09913l0.14337,0l0.01792,-0.23131l0.03584,0l0.03584,0.16522l0.03584,0.06609l1.75623,0l0.01792,-0.09913l-0.03584,-0.19826l-0.01792,-0.09913l-0.03584,-0.03304l-0.03584,-0.03304l-0.03584,-0.09913l-1.4695,0l0.03584,0.13218l0.01792,0.06609l0.03584,0.06609l-0.0896,0l0,-0.06609l-0.03584,-0.03304l-0.03584,-0.03304l-0.01792,-0.03304l-0.05376,-0.06609l0,0.06609l-0.0896,-0.03304l-0.01792,-0.03304l-0.01792,-0.03304l-0.78851,0l-0.01792,0.09913l-0.03584,0.03304l-0.05376,0.13218l-0.10752,0l-0.07168,-0.16522l-0.01792,-0.09913l-0.0896,0l0,0.13218l0.01792,0.13218l-0.05376,0l-0.01792,-0.13218l-0.03584,-0.03304l-0.01792,-0.09913l-0.62722,0l-0.03584,-0.09913l0.59138,0l-0.01792,-0.03304l-0.03584,-0.09913l-0.01792,-0.09913l-0.01792,-0.13218l0,-0.09913l-0.01792,-0.09913l-0.55554,0l-0.01792,-0.09913l0.53762,0l-0.0896,-0.06609l-0.01792,0l0,-0.03304l0,0l-0.01792,0l0,-0.03304l-0.01792,-0.03304l0,0l0,-0.03304l0,0l-0.01792,-0.03304l0,0l-0.05376,-0.06609l0,0.03304l-0.07168,-0.09913l0,0l0,-0.06609l-0.01792,0l-0.03584,-0.03304l-0.01792,0l-0.01792,0l-0.01792,0l-0.01792,0.03304l-0.01792,0.03304l-0.01792,0.03304l-0.03584,0.13218l0,0.03304l0,0.03304l0,0l-0.01792,0.03304l0,0.03304l-0.01792,0l-0.01792,0.03304l0,-0.03304l0,-0.03304l0,-0.03304l0,-0.03304l-0.01792,-0.03304l0,-0.03304l0,-0.03304l0,-0.03304l0,-0.03304l0,-0.06609l0,0l0,-0.03304l0,-0.06609l0,-0.03304l0,-0.03304l0,-0.03304l0,-0.13218l0,-0.16522l0.01792,-0.33044l0.03584,-0.2974l0.03584,-0.26435l0.05376,-0.2974l0.05376,-0.26435l0.07168,-0.26435l0.0896,-0.26435l0.0896,-0.23131l0.10752,-0.19826l0.10752,-0.23131l0.10752,-0.19826l0.12544,-0.16522l0.14337,-0.16522l0.12544,-0.13218l0.16129,-0.13218l0.48386,0.06609l0,0.06609l-0.05376,0l-0.05376,0l-0.07168,-0.03304l-0.01792,0.03304l0.01792,0.06609l0,0l0.03584,0.03304l0.01792,0l0.01792,0.06609l0,0.03304l0.35841,0l0.05376,-0.06609l-0.03584,-0.06609l0,-0.06609l0.01792,-0.06609l0.21505,-0.09913l0.03584,-0.03304l0.07168,0l0.05376,0.03304l0.12544,0.06609l0.53762,-0.03304l0.03584,0.03304l0.01792,0l0.03584,0.03304l0.03584,0.03304l0.01792,0.03304l0.03584,0.03304l0.03584,0.03304l0.01792,0.03304l0.01792,0.03304l0.03584,0.03304l0.01792,0.03304l0.03584,0.03304l0.01792,0.03304l0.03584,0.03304l0.03584,0.06609l0,0l-0.16129,0.03304l-0.01792,-0.03304l-0.05376,0l-0.03584,0.06609l0,0.03304l0.03584,0.03304l0.01792,0.03304l0.01792,0.03304l0.10752,0.06609l0.03584,0.03304l0.01792,0.06609l0.01792,0.03304l0.07168,0l0,0l0,-0.03304l0,-0.06609l0,-0.03304l0,-0.06609l0.01792,-0.06609l0,-0.03304l0.01792,0l0.01792,0.03304l0.03584,0.03304l0.01792,0.03304l0,0.03304l0.03584,0.03304l0.01792,0.03304l0.01792,0l0,0.03304l0.03584,0.06609l0.01792,0l0.01792,0.03304l0.01792,0.03304l0.01792,0.03304l0,0.06609l0.03584,0.03304l0.01792,0l-0.01792,0.09913l0.03584,0.03304l0.01792,0.03304l0,0.09913l-0.03584,0l-0.01792,-0.03304l-0.03584,-0.03304l-0.03584,0.06609l-0.07168,0.09913l-0.03584,0.13218l-0.01792,0.09913l0.4301,0l0.01792,0.09913l-0.50178,0l0,0l-0.03584,0.13218l0,0.09913l-0.03584,0.09913l0,0.09913l0,0.06609l0.01792,0.06609l0.71683,0l0,0.09913l-1.16485,0l-0.01792,0.13218l0.01792,0.09913l0.01792,0.09913l0.01792,0.06609l0,0.03304l0.03584,0l0.05376,-0.03304l0,-0.06609l0.03584,-0.03304l0.0896,0.03304l-0.01792,0.09913l0.01792,0.13218l0,0l0.4301,0zm-0.34049,-0.33044l0.03584,-0.03304l0.03584,-0.03304l0.01792,0.03304l0.07168,0.03304l0.10752,0.09913l-0.01792,0.03304l-0.03584,0.03304l-0.01792,0l-0.03584,-0.03304l-0.03584,0l-0.12544,-0.13218zm-1.16485,-2.21396l-0.07168,0l-0.01792,0l-0.01792,0l-0.03584,0l-0.05376,0.06609l-0.07168,0.09913l-0.03584,0.06609l-0.0896,0l0.03584,-0.13218l0.03584,-0.03304l0,-0.03304l-0.03584,-0.03304l0,0l-0.44802,0l-0.01792,0.03304l0,0.03304l0,0.03304l0.01792,0l0.03584,0.06609l0,0.03304l0.14337,0.13218l0,0.06609l0,0.03304l0.01792,0.03304l0.01792,0.06609l0.82435,0l0,0l0,-0.09913l-0.03584,-0.06609l-0.03584,-0.06609l-0.03584,-0.13218l0,-0.06609l-0.01792,-0.03304l-0.07168,-0.03304l-0.03584,-0.03304zm0.21505,0.66088l-1.23653,0l0.01792,0.03304l0.01792,0.06609l0.01792,0.06609l0.01792,0.06609l0.07168,0.09913l-0.01792,0.03304l-0.01792,0l-0.01792,0l-0.01792,-0.06609l-0.0896,0l0,0.06609l-0.01792,0.09913l-0.01792,0.03304l-0.01792,0.06609l0.16129,0l0,-0.03304l0.01792,0l0,-0.03304l0,0l0.01792,0l0,0l0.01792,0l0,0l0.01792,0l0,0l0.01792,0.03304l0.01792,0l0,0l0,0l0.01792,0l0,0l0.01792,0l0,-0.03304l0.01792,0l0,0l0.01792,0.03304l0.01792,0l0,0l0,0.03304l0.9498,0l-0.01792,-0.03304l-0.01792,-0.23131l0.01792,-0.09913l0.01792,-0.19826zm0.01792,0.66088l-1.09316,0l0,0l0,0.03304l-0.01792,0.03304l0,0.03304l0,0l0,0.03304l-0.01792,0l-0.01792,0l0,-0.03304l0,0l0,-0.03304l0,-0.06609l0,0l-0.28673,0l0,0.03304l0,0.06609l0,0.06609l0.01792,0.06609l0.01792,0.09913l0.10752,0.23131l0.12544,0l0,-0.03304l0,-0.03304l0,0l0.01792,-0.03304l0,0l0,-0.03304l0,0l0.01792,-0.03304l0,0l0,-0.03304l0,0l0.01792,-0.03304l0,-0.03304l0.05376,-0.09913l0,-0.03304l0,-0.03304l0,0l0,-0.03304l0.01792,-0.03304l0,0l0.01792,-0.03304l0,0l0.01792,0.03304l0,0l0,0.03304l0.01792,0.03304l0,0l0,0.03304l0,0.03304l-0.03584,0.09913l-0.03584,0.26435l1.16485,0l-0.01792,-0.26435l-0.01792,-0.13218l-0.07168,-0.16522zm0.19713,0.56175l0.03584,0l-0.01792,-0.03304l-0.03584,-0.13218l0,0.13218l0.01792,0.03304zm0.39426,0l0.37633,0l0,-0.09913l0,-0.06609l-0.03584,-0.09913l-0.26881,0l-0.05376,0.06609l-0.01792,0.06609l0,0.13218zm-0.91396,-2.67658l-0.03584,0l-0.01792,0l-0.01792,0l-0.03584,0l-0.03584,0l-0.05376,0l-0.03584,0l-0.03584,0.03304l-0.03584,0l-0.05376,0l-0.03584,0l-0.03584,0.03304l-0.03584,0l-0.03584,0l-0.03584,0l-0.03584,0.03304l-0.03584,0l-0.01792,0.03304l1.18277,0l-0.01792,-0.03304l-0.01792,0l-0.03584,0l-0.03584,-0.03304l-0.03584,0l-0.03584,0l-0.03584,-0.03304l-0.03584,0l-0.03584,0l-0.03584,0l-0.03584,-0.03304l-0.03584,0l-0.01792,0l-0.03584,0l-0.03584,0l-0.03584,0l-0.03584,0zm-0.98564,0.79306l0.10752,0l0.01792,0.03304l0.01792,0.03304l0.01792,0l0.03584,0.03304l0,0.03304l0.01792,0.03304l0.01792,0.03304l0.07168,0.09913l0.01792,0.06609l0.01792,0.03304l0.01792,0.03304l0.01792,0.09913l-0.41218,0l-0.03584,-0.03304l-0.01792,-0.06609l-0.03584,0.06609l-0.0896,0l-0.01792,-0.03304l-0.01792,0.03304l-0.03584,-0.03304l-0.01792,-0.03304l0,-0.03304l0,-0.09913l0.0896,-0.09913l0.01792,-0.06609l0.05376,0l0.03584,-0.03304l0.03584,0l0.03584,0l0.01792,0l0.01792,-0.03304l0,-0.06609zm-0.0896,1.88352l0,-0.06609l-0.01792,-0.03304l-0.01792,0.03304l-0.03584,0l0,-0.03304l0,-0.09913l-0.05376,-0.06609l-0.23297,0l0,0.03304l0.01792,0.06609l0,0l0.01792,0.03304l0.01792,0l0.01792,0.03304l0.01792,0l0.01792,0l0.01792,0l0.01792,0l0,0l0.01792,0l0.03584,0.03304l0,0.03304l0,0.03304l0.16129,0zm-0.34049,1.45394l-0.05376,0.03304l0.01792,0l-0.01792,0.03304l0,0l0,0.03304l0,0l-0.01792,0.03304l0,0l0,0l0,0.03304l0.01792,0l0,0.03304l0,0l0.01792,0.03304l0,0l0.07168,0.06609l0,0l0.01792,0.03304l0,0.03304l0,0.03304l0,0l0,0.03304l0.01792,0l0,0.03304l0.01792,0l0.01792,0.03304l0,0.03304l0.01792,0l0,0.03304l2.5985,0l0,-0.03304l0.01792,-0.06609l0.01792,-0.13218l0.03584,-0.13218l0.03584,-0.09913l0,-0.09913l-2.83147,0zm0.12544,0.66088l0,0.03304l0,0.03304l0,0.03304l0,0l0,0.03304l-0.01792,0l0,0.03304l-0.01792,0.03304l0,0l-0.01792,0.03304l0,0l-0.01792,0l0,0l-0.01792,0.03304l0,-0.03304l0,0l-0.01792,0l0,-0.03304l-0.01792,-0.03304l0,0l-0.01792,-0.03304l-0.01792,0l-0.01792,0l0,-0.03304l0,0l-0.01792,0l-0.01792,0l0,-0.03304l-0.01792,0l-0.01792,0l0,0l-0.01792,-0.03304l0,0l0,-0.03304l-0.03584,0l-0.01792,0.19826l0.01792,0.09913l0.03584,0.13218l0.07168,0.09913l0,0.03304l0.34049,0l0.03584,-0.09913l0.01792,-0.06609l-0.01792,-0.09913l0.0896,0.03304l0.01792,0.06609l-0.01792,0.09913l0.01792,0.06609l0.68099,0l0.01792,-0.06609l-0.01792,-0.03304l-0.10752,-0.06609l-0.01792,0.03304l-0.01792,-0.13218l0.28673,0l0.10752,0.09913l0.07168,0.06609l0.03584,0.06609l0,0.03304l1.43366,0l0,-0.03304l-0.01792,-0.06609l-0.01792,-0.06609l-0.01792,-0.06609l-0.07168,-0.13218l-0.01792,-0.06609l0,-0.03304l0,-0.09913l-2.61642,0zm1.20069,1.32177l1.75623,0l0.01792,0.13218l-0.03584,0.09913l0.03584,0.19826l0,0.13218l-1.57702,0l-0.03584,-0.06609l-0.03584,-0.13218l-0.05376,-0.13218l-0.01792,-0.06609l-0.03584,-0.06609l-0.01792,-0.09913zm0.64515,1.91656l-1.18277,0l0.01792,0l0.01792,0l0.03584,0.03304l0.03584,0l0.03584,0.03304l0.05376,0l0.03584,0l0.05376,0.03304l0.03584,0l0.05376,0l0.03584,0l0.05376,0l0.03584,0l0.03584,0l0.03584,0l0.01792,0.03304l0.01792,0l0.01792,0l0.01792,0l0.01792,0l0.03584,-0.03304l0.01792,0l0.03584,0l0.03584,0l0.03584,0l0.03584,0l0.01792,0l0.05376,0l0.03584,-0.03304l0.03584,0l0.03584,0l0.01792,-0.03304l0.05376,0l0.03584,-0.03304l0.03584,0z" class="fil1"/>
  </g>
 </g>
</svg>