<svg width="40" height="40" viewBox="0 0 40 40" fill="none" xmlns="http://www.w3.org/2000/svg">
<path d="M40.001 0H0.000976562V40H40.001V0Z" fill="#335497"/>
<path d="M37.7814 2.38965H2.48145V38.1697H37.7814V2.38965Z" fill="white"/>
<path d="M3.16113 3.26025H37.0911V37.2602H3.16113V3.26025Z" fill="#335497"/>
<path d="M4.21112 10.4297H7.04112V4.94971H35.5011V35.8497H6.99112V34.2097H4.16113L4.21112 10.4297Z" fill="white"/>
<path d="M5.57031 11.7002H16.6303C13.0403 15.2402 9.50032 18.7702 5.97032 22.3002C9.50032 25.9302 13.0403 29.5602 16.6303 33.1802H5.57031V11.7002Z" fill="#335497"/>
<path d="M18.9415 11.6299H21.2115C17.4915 15.1599 13.7515 18.7299 10.0515 22.2899C13.7515 25.9499 17.4915 29.6099 21.2115 33.2899H18.9415C15.1948 29.6299 11.4715 25.9632 7.77148 22.2899C11.5015 18.7299 15.1915 15.1599 18.9415 11.6299ZM22.3714 16.0801H33.9514V33.2301H22.3714V33.0401C22.6244 33.0559 22.8783 33.0559 23.1314 33.0401C28.5014 33.0701 32.9014 29.8701 32.9014 25.8701C32.9014 21.8701 28.5014 18.6201 23.1314 18.6201H22.3714V16.0801Z" fill="#335497"/>
<path d="M23.0812 20.9805C24.6312 20.9805 25.8612 23.3105 25.8612 26.2105C25.8612 29.1105 24.6312 31.4205 23.0812 31.4205C21.5312 31.4205 20.2812 29.0505 20.2812 26.1805C20.2812 23.3105 21.5012 20.9705 23.0812 20.9805Z" fill="#B4966A"/>
<path d="M22.5012 20.9303C24.0412 20.9303 25.2812 23.2603 25.2812 26.1603C25.2812 29.0603 24.0412 31.3703 22.5012 31.3703C20.9612 31.3703 19.7012 29.0003 19.7012 26.1303C19.7012 23.2603 20.9512 20.8703 22.5012 20.9303Z" fill="url(#paint0_linear_63_1075)"/>
<defs>
<linearGradient id="paint0_linear_63_1075" x1="17.8712" y1="19.5303" x2="27.1412" y2="32.7703" gradientUnits="userSpaceOnUse">
<stop stop-color="#B4966A"/>
<stop offset="0.5" stop-color="#FEF0C7"/>
<stop offset="1" stop-color="#B4966A"/>
</linearGradient>
</defs>
</svg>
