<svg width="32" height="33" viewBox="0 0 32 33" fill="none" xmlns="http://www.w3.org/2000/svg">
<path d="M22.219 21.6102H6.57364L23.4749 4.06141C23.6821 3.84577 23.7971 3.55284 23.7939 3.24904V0.801756C23.7939 0.0924372 22.9686 -0.273736 22.484 0.24162L0.295261 23.2892C-0.33272 23.9294 0.107867 25.0394 0.988328 25.0394H20.3252C20.6172 25.0367 20.8973 24.918 21.1064 24.7071L22.7694 22.9807C23.0718 22.6626 23.0666 22.1527 22.7588 21.8408C22.6142 21.695 22.4209 21.6123 22.219 21.6102Z" fill="#FFCA8C"/>
<path d="M29.8937 0.378574L10.9875 20.0193H15.6562L28.2754 6.91555V29.5691H6.46084L9.27982 26.6404H4.61112L0.371833 31.044C-0.322545 31.7649 0.173905 33.0004 1.15367 33.0004H30.158C30.9497 32.999 31.5908 32.3358 31.5895 31.5194C31.5895 31.5174 31.5895 31.5153 31.5895 31.5133V1.11026C31.5783 0.183949 30.5098 -0.273774 29.8937 0.378574Z" fill="#1EAAA2"/>
</svg>
