<svg width="40" height="40" viewBox="0 0 40 40" fill="none" xmlns="http://www.w3.org/2000/svg">
<path d="M35.76 11.2799C35.6325 11.1935 35.4867 11.1377 35.3341 11.1169C35.1814 11.0961 35.026 11.1108 34.88 11.1599C33.3238 11.0262 31.7617 10.9728 30.2 10.9999H27.64L21 10.9199H16C14.76 10.9199 13.52 10.9199 12.32 10.9999C11.12 11.0799 7.95999 10.9999 6.11999 10.9999H4.55999C4.43266 11.0337 4.31859 11.1053 4.23287 11.2053C4.14715 11.3053 4.09384 11.429 4.07999 11.5599C4.06446 11.6104 4.06089 11.6638 4.06956 11.7159C4.07824 11.7679 4.09892 11.8173 4.12997 11.86C4.16102 11.9027 4.20159 11.9375 4.24845 11.9618C4.29532 11.9861 4.3472 11.9992 4.39999 11.9999H10.68C12.1824 11.8606 13.6923 11.8205 15.2 11.8799H18.2C18.4115 11.9197 18.6285 11.9197 18.84 11.8799H19.12C19.3697 11.941 19.6303 11.941 19.88 11.8799C20.1329 11.8589 20.3871 11.8589 20.64 11.8799C20.8353 11.8185 21.0447 11.8185 21.24 11.8799C21.3323 11.8994 21.4277 11.8994 21.52 11.8799C23.7494 11.8321 25.9798 11.9123 28.2 12.1199L29.44 12.2399C30.5578 12.14 31.6822 12.14 32.8 12.2399C33.64 12.3199 34.44 12.3599 35.2 12.3599L35.6 12.0399C35.6953 11.9444 35.7488 11.8149 35.7488 11.6799C35.7488 11.545 35.6953 11.4155 35.6 11.3199" fill="#E8B909"/>
<path d="M24.68 25.5202V22.8002C24.68 22.4002 24.68 21.9602 24.6 21.5202C24.52 21.0802 24.6 20.5202 24.52 20.0002C24.4832 19.2872 24.3896 18.5782 24.24 17.8802L24.16 17.4002C24.0665 17.2866 24.0106 17.1468 24 17.0002C23.9642 16.8605 23.9104 16.726 23.84 16.6002C23.6493 16.2685 23.4211 15.9598 23.16 15.6802C23.1037 15.615 23.0359 15.5607 22.96 15.5202C22.96 15.5202 22.88 15.5202 22.84 15.4402C22.5892 15.2434 22.3045 15.0943 22 15.0002C21.9683 14.957 21.9256 14.9231 21.8764 14.902C21.8271 14.8809 21.7731 14.8733 21.72 14.8802V14.8002H21.6L21 14.6802V14.7602H20.84C20.7734 14.7563 20.7066 14.7563 20.64 14.7602H20.56C20.5339 14.7524 20.5061 14.7524 20.48 14.7602L20.24 14.6802V14.8002C20.148 14.7777 20.052 14.7777 19.96 14.8002H19.2V14.9202C19.1348 14.9058 19.0668 14.9094 19.0034 14.9305C18.9401 14.9516 18.8836 14.9895 18.84 15.0402C18.7939 15.0428 18.7489 15.0548 18.7077 15.0755C18.6664 15.0961 18.6298 15.1249 18.6 15.1602H18.52C18.52 15.2402 18.28 15.3202 18.2 15.3602L18 15.4402C17.9795 15.4423 17.9604 15.4515 17.9459 15.466C17.9313 15.4806 17.9222 15.4997 17.92 15.5202H17.72V15.6802H17.6L17.52 15.7602C17.3844 15.9299 17.2374 16.0903 17.08 16.2402C16.8955 16.4302 16.7218 16.6305 16.56 16.8402V17.0002C16.56 17.0002 16.44 17.0802 16.4 17.2002C16.36 17.3202 16.32 17.4002 16.28 17.4402V17.5202C16.2 17.6002 16.2 17.7202 16.16 17.7602C16.1683 17.7791 16.1725 17.7995 16.1725 17.8202C16.1725 17.8408 16.1683 17.8612 16.16 17.8802L16.08 18.0002C16.0643 18.0659 16.0643 18.1344 16.08 18.2002V18.2802C16.1212 18.451 16.1212 18.6293 16.08 18.8002C16.0587 18.9862 16.0587 19.1741 16.08 19.3602C16.0426 19.4635 16.0426 19.5768 16.08 19.6802V20.0002L16 20.0802L16.08 20.2002V20.5602C16.0405 20.6906 16.0405 20.8297 16.08 20.9602V21.2002L16 21.3602L16.12 21.4402V21.9602L16.2 22.0402C16.1943 22.0898 16.1984 22.1401 16.2121 22.1881C16.2258 22.2362 16.2489 22.281 16.28 22.3202H16.12L16.2 22.5202C16.1644 22.6101 16.1644 22.7102 16.2 22.8002C16.1797 22.9059 16.1797 23.0144 16.2 23.1202V23.2002C16.1614 23.267 16.1411 23.3429 16.1411 23.4202C16.1411 23.4974 16.1614 23.5733 16.2 23.6402C16.12 23.7202 16.2 23.8402 16.2 23.9202L16.04 24.0002L16.24 24.2002C16.2255 24.2525 16.2255 24.3078 16.24 24.3602L16.32 24.4402L16.4 24.6002C16.3806 24.6925 16.3806 24.7878 16.4 24.8802C16.3922 24.9063 16.3922 24.9341 16.4 24.9602L16.32 25.0402L16.4 25.1602C16.4412 25.2766 16.4412 25.4037 16.4 25.5202C16.3398 25.6745 16.3398 25.8458 16.4 26.0002L16.28 26.0802L16.4 26.1602C16.3707 26.201 16.3549 26.2499 16.3549 26.3002C16.3549 26.3504 16.3707 26.3994 16.4 26.4402V26.6802C16.3617 26.8514 16.3617 27.0289 16.4 27.2002V27.6402C16.4216 27.786 16.4216 27.9343 16.4 28.0802C16.3716 28.2572 16.3819 28.4382 16.4303 28.6109C16.4786 28.7835 16.5638 28.9436 16.68 29.0802H16.84C16.9159 29.0458 16.9796 28.9891 17.0224 28.9176C17.0653 28.8461 17.0854 28.7633 17.08 28.6802V28.5202C17.02 28.1895 17.02 27.8508 17.08 27.5202C17.0609 27.4413 17.0609 27.359 17.08 27.2802C17.0604 27.161 17.0604 27.0394 17.08 26.9202C17.1002 26.7876 17.1002 26.6527 17.08 26.5202V23.7602C17.0103 23.4317 16.9834 23.0955 17 22.7602V21.9202C17.059 21.6298 17.059 21.3305 17 21.0402V20.8002C17.0276 20.7663 17.0427 20.7239 17.0427 20.6802C17.0427 20.6364 17.0276 20.594 17 20.5602C17.0196 20.4544 17.0196 20.3459 17 20.2402C16.9771 20.1754 16.9771 20.1049 17 20.0402V19.7602C17.0402 19.6573 17.0402 19.543 17 19.4402C17.0953 19.1836 17.1493 18.9136 17.16 18.6402V18.5602C17.1783 18.5084 17.1783 18.4519 17.16 18.4002C17.168 18.2647 17.2248 18.1368 17.32 18.0402C17.4335 17.904 17.5032 17.7366 17.52 17.5602C17.5552 17.5304 17.584 17.4938 17.6047 17.4525C17.6253 17.4112 17.6373 17.3662 17.64 17.3202C17.7196 17.2367 17.7869 17.1425 17.84 17.0402C17.8721 16.9746 17.9169 16.9161 17.9718 16.868C18.0268 16.8199 18.0907 16.7833 18.16 16.7602H18.24V16.6802C18.2984 16.5812 18.381 16.4986 18.48 16.4402C18.5919 16.3847 18.6881 16.3022 18.76 16.2002H18.96C19.0705 16.155 19.1775 16.1015 19.28 16.0402C19.4 15.9202 19.44 15.9202 19.56 15.9602H19.64C19.6745 15.955 19.7073 15.9414 19.7352 15.9204C19.7631 15.8995 19.7854 15.8719 19.8 15.8402C19.8189 15.8484 19.8394 15.8527 19.86 15.8527C19.8806 15.8527 19.9011 15.8484 19.92 15.8402H20.44C20.8137 15.7652 21.2007 15.7928 21.56 15.9202L21.68 16.0002L21.76 15.8802C21.8117 15.9466 21.8787 15.9995 21.9554 16.0344C22.032 16.0692 22.1159 16.0849 22.2 16.0802C22.2191 16.1044 22.2434 16.1242 22.2711 16.138C22.2987 16.1519 22.3291 16.1594 22.36 16.1602C22.4467 16.2407 22.5617 16.2838 22.68 16.2802C22.9065 16.4849 23.0725 16.7477 23.16 17.0402V17.0002H23C23.0199 17.2193 23.1033 17.4278 23.24 17.6002V18.0402L23.32 18.1202C23.322 18.2064 23.3499 18.29 23.4 18.3602C23.3787 18.3968 23.3648 18.4374 23.3593 18.4795C23.3538 18.5216 23.3567 18.5643 23.3679 18.6053C23.379 18.6462 23.3982 18.6845 23.4244 18.718C23.4505 18.7515 23.483 18.7794 23.52 18.8002C23.44 18.8002 23.44 18.9202 23.44 19.0002V19.4002L23.52 19.5202V19.8002C23.4206 20.0575 23.4206 20.3428 23.52 20.6002C23.44 20.6802 23.52 20.8002 23.52 20.8802V21.1202C23.5459 21.111 23.5741 21.111 23.6 21.1202V21.4402C23.6229 21.5049 23.6229 21.5754 23.6 21.6402C23.5824 21.7151 23.5804 21.7928 23.5942 21.8685C23.6079 21.9442 23.6372 22.0162 23.68 22.0802V22.1602C23.6717 22.1791 23.6675 22.1995 23.6675 22.2202C23.6675 22.2408 23.6717 22.2612 23.68 22.2802V22.3602C23.6822 22.3806 23.6913 22.3997 23.7059 22.4143C23.7204 22.4289 23.7395 22.438 23.76 22.4402V22.6002H23.68V22.6802C23.6571 22.7449 23.6571 22.8154 23.68 22.8802H23.6C23.6 22.9014 23.6084 22.9217 23.6234 22.9367C23.6384 22.9517 23.6588 22.9602 23.68 22.9602C23.6687 23.041 23.6774 23.1233 23.7053 23.2C23.7332 23.2767 23.7794 23.3454 23.84 23.4002C23.84 23.4002 23.84 23.4802 23.92 23.4802H23.84V23.6802H23.72V24.0402C23.6712 24.1011 23.6308 24.1684 23.6 24.2402V25.0002H23.72V25.2002L23.92 25.3202C23.9017 25.3719 23.9017 25.4284 23.92 25.4802H23.76V26.6402L23.64 26.7202L23.8 26.8802V27.0402H23.68L23.88 27.2802C23.886 27.3199 23.886 27.3604 23.88 27.4002C23.8235 27.4669 23.7948 27.5528 23.8 27.6402V27.8002C23.8 27.8002 23.72 27.8002 23.72 27.8802C23.7115 27.8877 23.7047 27.8969 23.7 27.9072C23.6953 27.9176 23.6929 27.9288 23.6929 27.9402C23.6929 27.9515 23.6953 27.9627 23.7 27.9731C23.7047 27.9834 23.7115 27.9926 23.72 28.0002H23.52L23.68 28.1602H23.52L23.72 28.2802V28.6802C23.7207 28.7111 23.7283 28.7414 23.7421 28.7691C23.7559 28.7968 23.7757 28.821 23.8 28.8402C23.8789 28.8592 23.9611 28.8592 24.04 28.8402V29.0002H24.24C24.3592 28.9806 24.4808 28.9806 24.6 29.0002H24.76V28.8402C24.7991 28.2808 24.7991 27.7195 24.76 27.1602C24.7195 26.6543 24.7195 26.146 24.76 25.6402C24.7652 25.5528 24.7365 25.4669 24.68 25.4002" fill="#007638"/>
<path d="M13.6001 25.5201V22.8001C13.6001 22.4001 13.6001 21.9601 13.5201 21.5201C13.4401 21.0801 13.5201 20.5201 13.4401 20.0001C13.4033 19.2871 13.3097 18.5782 13.1601 17.8801L13.0801 17.4001C12.9601 17.2801 12.9601 17.1601 12.8801 17.0001C12.8443 16.8604 12.7905 16.726 12.7201 16.6001C12.5223 16.2384 12.2804 15.9025 12.0001 15.6001C11.9438 15.5349 11.876 15.4807 11.8001 15.4401C11.8001 15.4401 11.7201 15.4401 11.6801 15.3601C11.4701 15.2212 11.241 15.1134 11.0001 15.0401C10.9684 14.9969 10.9257 14.963 10.8765 14.9419C10.8272 14.9208 10.7732 14.9133 10.7201 14.9201V14.8401H10.6001L10.0401 14.7601H9.84006V14.8401H9.68006C9.61345 14.8363 9.54667 14.8363 9.48006 14.8401H9.36006C9.33396 14.8323 9.30616 14.8323 9.28006 14.8401L9.00006 14.6401V14.7601C8.90808 14.7376 8.81204 14.7376 8.72006 14.7601H8.00006V14.8801C7.93481 14.8657 7.86689 14.8693 7.80351 14.8904C7.74012 14.9116 7.68364 14.9495 7.64006 15.0001C7.59401 15.0028 7.54898 15.0148 7.50772 15.0354C7.46646 15.0561 7.42983 15.0849 7.40006 15.1201H7.32006C7.23634 15.2179 7.12466 15.2877 7.00006 15.3201L6.80006 15.4001C6.77959 15.4023 6.76048 15.4114 6.74592 15.426C6.73136 15.4405 6.72223 15.4596 6.72006 15.4801H6.52006V15.6401H6.40006L6.32006 15.7201C6.18445 15.8899 6.03745 16.0503 5.88006 16.2001C5.69552 16.3901 5.5219 16.5904 5.36006 16.8001V16.9601C5.36006 16.9601 5.24006 17.0401 5.24006 17.1601C5.24006 17.2801 5.16006 17.3601 5.12006 17.4001V17.4801C5.04006 17.5601 5.04006 17.6801 5.00006 17.7201C5.00832 17.739 5.01258 17.7595 5.01258 17.7801C5.01258 17.8008 5.00832 17.8212 5.00006 17.8401V17.9201C4.98434 17.9859 4.98434 18.0544 5.00006 18.1201V18.2001C5.04123 18.371 5.04123 18.5492 5.00006 18.7201C4.97875 18.9062 4.97875 19.0941 5.00006 19.2801C4.96263 19.3835 4.96263 19.4967 5.00006 19.6001V20.0001H4.56006L4.64006 20.1201V20.4801C4.60057 20.6105 4.60057 20.7497 4.64006 20.8801V21.1201L4.56006 21.2801L4.68006 21.3601V21.8801L4.76006 21.9601C4.75433 22.0098 4.75845 22.06 4.77218 22.1081C4.7859 22.1561 4.80897 22.201 4.84006 22.2401H4.68006L4.76006 22.4401C4.73906 22.5323 4.73906 22.628 4.76006 22.7201C4.7398 22.8258 4.7398 22.9344 4.76006 23.0401V23.1201C4.72144 23.187 4.70111 23.2629 4.70111 23.3401C4.70111 23.4174 4.72144 23.4932 4.76006 23.5601C4.68006 23.6401 4.76006 23.7601 4.76006 23.8401L4.56006 23.9201L4.76006 24.1201C4.74558 24.1725 4.74558 24.2278 4.76006 24.2801L4.84006 24.3601L4.92006 24.5201C4.90064 24.6124 4.90064 24.7078 4.92006 24.8001C4.91228 24.8262 4.91228 24.854 4.92006 24.8801L4.84006 24.9601L4.92006 25.0801C4.96124 25.1966 4.96124 25.3236 4.92006 25.4401C4.85982 25.5944 4.85982 25.7658 4.92006 25.9201L4.80006 26.0001L4.92006 26.0801C4.89076 26.1209 4.875 26.1699 4.875 26.2201C4.875 26.2703 4.89076 26.3193 4.92006 26.3601V26.6001C4.88173 26.7713 4.88173 26.9489 4.92006 27.1201V27.5601C4.94169 27.706 4.94169 27.8542 4.92006 28.0001C4.89167 28.1771 4.902 28.3582 4.95034 28.5308C4.99868 28.7035 5.08387 28.8636 5.20006 29.0001H5.36006C5.43598 28.9657 5.49961 28.909 5.54249 28.8376C5.58537 28.7661 5.60545 28.6833 5.60006 28.6001V28.4401C5.54006 28.1095 5.54006 27.7707 5.60006 27.4401V27.4001C5.58047 27.2809 5.58047 27.1593 5.60006 27.0401C5.62023 26.9075 5.62023 26.7727 5.60006 26.6401C5.64177 25.9741 5.64177 25.3061 5.60006 24.6401V23.8801C5.56004 23.5748 5.56004 23.2655 5.60006 22.9601V22.1201C5.65905 21.8297 5.65905 21.5305 5.60006 21.2401V20.8001C5.62767 20.7662 5.64275 20.7238 5.64275 20.6801C5.64275 20.6364 5.62767 20.594 5.60006 20.5601C5.61962 20.4543 5.61962 20.3459 5.60006 20.2401C5.57718 20.1754 5.57718 20.1048 5.60006 20.0401V19.7601C5.64022 19.6572 5.64022 19.543 5.60006 19.4401C5.69532 19.1836 5.74933 18.9136 5.76006 18.6401V18.5601C5.77836 18.5084 5.77836 18.4519 5.76006 18.4001C5.76006 18.2801 5.84006 18.2001 5.92006 18.0401C6.03356 17.9039 6.10327 17.7366 6.12006 17.5601C6.1553 17.5303 6.18411 17.4937 6.20474 17.4525C6.22537 17.4112 6.23739 17.3662 6.24006 17.3201C6.33222 17.2479 6.40165 17.1507 6.44006 17.0401C6.52006 16.9201 6.56006 16.8001 6.76006 16.7601H6.84006V16.6801C6.83115 16.6054 6.84113 16.5296 6.86908 16.4597C6.89704 16.3898 6.94207 16.3281 7.00006 16.2801C7.10212 16.2082 7.18461 16.112 7.24006 16.0001H7.44006C7.55061 15.9549 7.65758 15.9014 7.76006 15.8401C7.88006 15.7201 7.92006 15.7201 8.04006 15.7601H8.12006C8.15461 15.755 8.18733 15.7413 8.21526 15.7204C8.2432 15.6994 8.26547 15.6718 8.28006 15.6401C8.29899 15.6484 8.31941 15.6526 8.34006 15.6526C8.36071 15.6526 8.38114 15.6484 8.40006 15.6401H8.96006C9.33367 15.5636 9.72112 15.5913 10.0801 15.7201L10.2001 15.8001L10.2801 15.6801C10.3318 15.7466 10.3988 15.7995 10.4755 15.8343C10.5521 15.8692 10.636 15.8849 10.7201 15.8801C10.7392 15.9044 10.7635 15.9242 10.7912 15.938C10.8188 15.9518 10.8492 15.9594 10.8801 15.9601C10.9668 16.0406 11.0818 16.0838 11.2001 16.0801C11.4266 16.2848 11.5926 16.5477 11.6801 16.8401V17.0001H11.8001C11.82 17.2192 11.9034 17.4277 12.0401 17.6001V18.0001L12.1201 18.0801C12.1221 18.1663 12.15 18.2499 12.2001 18.3201C12.1788 18.3568 12.1649 18.3974 12.1594 18.4394C12.1539 18.4815 12.1568 18.5243 12.168 18.5652C12.1791 18.6062 12.1983 18.6445 12.2245 18.678C12.2506 18.7114 12.2831 18.7393 12.3201 18.7601C12.2401 18.7601 12.2401 18.8801 12.2401 18.9601V19.2401L12.1601 19.3601V19.4801L12.2401 19.6001V19.8801C12.1407 20.1375 12.1407 20.4227 12.2401 20.6801C12.1601 20.7601 12.2401 20.8801 12.2401 20.9601V21.2001C12.266 21.191 12.2942 21.191 12.3201 21.2001V21.5201C12.343 21.5848 12.343 21.6554 12.3201 21.7201C12.3025 21.795 12.3005 21.8727 12.3143 21.9484C12.328 22.0241 12.3573 22.0962 12.4001 22.1601V22.2401C12.3918 22.259 12.3876 22.2795 12.3876 22.3001C12.3876 22.3208 12.3918 22.3412 12.4001 22.3601V22.4401C12.4023 22.4606 12.4114 22.4797 12.426 22.4943C12.4405 22.5088 12.4596 22.5179 12.4801 22.5201V22.6801H12.4001V22.7601C12.3772 22.8248 12.3772 22.8954 12.4001 22.9601V23.0801C12.4001 23.1013 12.4085 23.1217 12.4235 23.1367C12.4385 23.1517 12.4589 23.1601 12.4801 23.1601C12.4688 23.2409 12.4775 23.3233 12.5054 23.4C12.5333 23.4767 12.5795 23.5454 12.6401 23.6001L12.7201 23.6801H12.6401V23.8801H12.5201V24.2401C12.4713 24.3011 12.4309 24.3684 12.4001 24.4401V24.5601H12.5201V24.7601L12.7201 24.8801C12.7018 24.9319 12.7018 24.9884 12.7201 25.0401H12.5601V26.0001C12.5518 26.019 12.5476 26.0395 12.5476 26.0601C12.5476 26.0808 12.5518 26.1012 12.5601 26.1201V26.8401L12.4401 26.9201L12.6001 27.0801V27.2401H12.4801L12.6801 27.4801C12.6861 27.5199 12.6861 27.5603 12.6801 27.6001C12.6236 27.6668 12.5949 27.7528 12.6001 27.8401V28.0001C12.6001 28.0001 12.5201 28.0001 12.5201 28.0801C12.5116 28.0876 12.5048 28.0969 12.5001 28.1072C12.4954 28.1175 12.493 28.1288 12.493 28.1401C12.493 28.1515 12.4954 28.1627 12.5001 28.173C12.5048 28.1834 12.5116 28.1926 12.5201 28.2001H12.3201L12.4801 28.3601H12.3201L12.4401 28.4801V28.8801C12.4408 28.911 12.4484 28.9414 12.4622 28.9691C12.476 28.9967 12.4958 29.021 12.5201 29.0401C12.599 29.0592 12.6812 29.0592 12.7601 29.0401V29.2001H12.9601C13.0793 29.1805 13.2009 29.1805 13.3201 29.2001H13.4801V29.0401C13.5192 28.4808 13.5192 27.9194 13.4801 27.3601C13.4396 26.8543 13.4396 26.346 13.4801 25.8401C13.5043 25.7213 13.5043 25.5989 13.4801 25.4801" fill="#0061AF"/>
<path d="M35.5998 25.7198V22.9998C35.5998 22.5998 35.5998 22.1598 35.5198 21.7198C35.4398 21.2798 35.5198 20.7198 35.4398 20.1998C35.403 19.4868 35.3094 18.7779 35.1598 18.0798L35.0798 17.5998C34.9745 17.4895 34.9048 17.3501 34.8798 17.1998C34.844 17.0601 34.7902 16.9256 34.7198 16.7998C34.522 16.438 34.2801 16.1021 33.9998 15.7998C33.9525 15.726 33.8822 15.6697 33.7998 15.6398C33.7998 15.6398 33.7198 15.6398 33.6798 15.5598C33.4698 15.4209 33.2407 15.3131 32.9998 15.2398C32.9633 15.1655 32.9061 15.1034 32.8352 15.0608C32.7642 15.0182 32.6825 14.997 32.5998 14.9998H32.4798L31.8798 14.9198H31.7998V14.9998H31.6398C31.5732 14.9959 31.5064 14.9959 31.4398 14.9998H31.3598C31.3337 14.992 31.3059 14.992 31.2798 14.9998L30.9998 14.8398V14.9998C30.9501 14.9915 30.8992 14.9944 30.8508 15.0083C30.8024 15.0221 30.7576 15.0465 30.7198 15.0798H29.9998V15.1998C29.9346 15.1854 29.8666 15.189 29.8032 15.2101C29.7399 15.2312 29.6834 15.2691 29.6398 15.3198C29.5523 15.3426 29.4706 15.3835 29.3998 15.4398H29.3198C29.2361 15.5376 29.1244 15.6074 28.9998 15.6398L28.7998 15.7198C28.7737 15.712 28.7459 15.712 28.7198 15.7198H28.5198V15.9998H28.3998L28.3198 16.0798C28.1998 16.2398 28.0398 16.3998 27.9198 16.5598C27.7353 16.7498 27.5616 16.9501 27.3998 17.1598V17.3198C27.3998 17.3198 27.2798 17.3998 27.2398 17.5198C27.1833 17.5865 27.1546 17.6725 27.1598 17.7598V17.8398C26.9998 17.8798 26.9998 17.9998 26.9998 17.9998C27.0081 18.0187 27.0123 18.0391 27.0123 18.0598C27.0123 18.0804 27.0081 18.1008 26.9998 18.1198L26.9198 18.2398C26.9041 18.3055 26.9041 18.374 26.9198 18.4398V18.5198C26.961 18.6907 26.961 18.8689 26.9198 19.0398C26.8985 19.2258 26.8985 19.4137 26.9198 19.5998C26.8824 19.7031 26.8824 19.8164 26.9198 19.9198V19.9998L26.8398 20.0798L26.9198 20.1998V20.5598C26.8803 20.6902 26.8803 20.8294 26.9198 20.9598V21.1998L26.8398 21.3598L26.9598 21.4398V21.8398L26.8798 21.9998L26.9598 22.0798C26.9531 22.1796 26.9814 22.2786 27.0398 22.3598H26.8798L26.9598 22.5598C26.9242 22.6497 26.9242 22.7498 26.9598 22.8398C26.9395 22.9455 26.9395 23.0541 26.9598 23.1598V23.2398C26.9212 23.3067 26.9009 23.3825 26.9009 23.4598C26.9009 23.537 26.9212 23.6129 26.9598 23.6798C26.8798 23.7598 26.9598 23.8798 26.9598 23.9598H26.8398L27.0398 24.1598C27.0253 24.2121 27.0253 24.2674 27.0398 24.3198L27.1198 24.3998L27.1998 24.5598C27.1773 24.6517 27.1773 24.7478 27.1998 24.8398C27.192 24.8659 27.192 24.8937 27.1998 24.9198L27.1198 24.9998L27.1998 25.1198C27.241 25.2362 27.241 25.3633 27.1998 25.4798C27.1396 25.6341 27.1396 25.8054 27.1998 25.9598H27.0398L27.1598 26.0398C27.129 26.0799 27.1123 26.1291 27.1123 26.1798C27.1123 26.2304 27.129 26.2796 27.1598 26.3198V26.5598C27.1208 26.7174 27.1208 26.8821 27.1598 27.0398V27.4798C27.1814 27.6256 27.1814 27.7739 27.1598 27.9198C27.1314 28.0968 27.1417 28.2779 27.1901 28.4505C27.2384 28.6231 27.3236 28.7832 27.4398 28.9198H27.5198C27.5957 28.8854 27.6594 28.8287 27.7022 28.7572C27.7451 28.6858 27.7652 28.6029 27.7598 28.5198V28.3598C27.6998 28.0291 27.6998 27.6904 27.7598 27.3598C27.7407 27.2809 27.7407 27.1986 27.7598 27.1198V27.0398C27.7402 26.9206 27.7402 26.799 27.7598 26.6798C27.78 26.5472 27.78 26.4123 27.7598 26.2798C27.8015 25.6138 27.8015 24.9458 27.7598 24.2798V23.5198C27.7198 23.2144 27.7198 22.9051 27.7598 22.5998V21.7598C27.8188 21.4694 27.8188 21.1701 27.7598 20.8798V20.9998C27.7874 20.9659 27.8025 20.9235 27.8025 20.8798C27.8025 20.836 27.7874 20.7937 27.7598 20.7598C27.7794 20.654 27.7794 20.5455 27.7598 20.4398V19.9598C27.8 19.8569 27.8 19.7427 27.7598 19.6398C27.8512 19.396 27.9051 19.1397 27.9198 18.8798V18.7998C27.9198 18.7198 27.9198 18.6798 27.8398 18.6398C27.7598 18.5998 27.9198 18.4398 27.9998 18.3198C28.1133 18.1836 28.183 18.0163 28.1998 17.8398C28.235 17.81 28.2638 17.7734 28.2845 17.7321C28.3051 17.6908 28.3171 17.6458 28.3198 17.5998C28.412 17.5276 28.4814 17.4304 28.5198 17.3198C28.5519 17.2542 28.5967 17.1957 28.6516 17.1476C28.7066 17.0995 28.7705 17.0629 28.8398 17.0398H28.9198V16.9598C28.9198 16.8798 29.0398 16.8398 29.1598 16.7598C29.2717 16.7043 29.3679 16.6218 29.4398 16.5198C29.4771 16.5229 29.5146 16.5174 29.5493 16.5035C29.584 16.4896 29.615 16.4678 29.6398 16.4398C29.7503 16.3946 29.8573 16.3411 29.9598 16.2798C30.0798 16.1598 30.1198 16.1598 30.2398 16.1998H30.3198C30.3543 16.1946 30.3871 16.181 30.415 16.16C30.4429 16.1391 30.4652 16.1115 30.4798 16.0798C30.4987 16.088 30.5192 16.0923 30.5398 16.0923C30.5604 16.0923 30.5809 16.088 30.5998 16.0798H31.0798C31.3741 15.9726 31.6914 15.945 31.9998 15.9998L32.1198 16.0798L32.1998 15.9998C32.2515 16.0662 32.3185 16.1192 32.3952 16.154C32.4718 16.1888 32.5557 16.2045 32.6398 16.1998C32.6854 16.2492 32.7396 16.2899 32.7998 16.3198C32.8259 16.3275 32.8537 16.3275 32.8798 16.3198C32.9665 16.4003 33.0815 16.4434 33.1998 16.4398C33.4263 16.6445 33.5923 16.9073 33.6798 17.1998V17.3598H33.7998C33.8197 17.5789 33.9031 17.7874 34.0398 17.9598V18.3598L34.1198 18.4398C34.1277 18.5375 34.1549 18.6327 34.1998 18.7198C34.1785 18.7565 34.1646 18.797 34.1591 18.8391C34.1536 18.8812 34.1565 18.9239 34.1677 18.9649C34.1788 19.0058 34.198 19.0442 34.2242 19.0776C34.2503 19.1111 34.2828 19.139 34.3198 19.1598C34.2398 19.1598 34.2398 19.2798 34.2398 19.3598V19.6398L34.3198 19.7598V19.9998C34.2204 20.2572 34.2204 20.5424 34.3198 20.7998C34.2398 20.8798 34.3198 20.9998 34.3198 21.0798V21.3198C34.3457 21.3106 34.3739 21.3106 34.3998 21.3198V21.4798H34.4798V21.9998C34.5027 22.0645 34.5027 22.1351 34.4798 22.1998C34.4622 22.2747 34.4602 22.3524 34.474 22.4281C34.4877 22.5038 34.517 22.5759 34.5598 22.6398V22.7198C34.5515 22.7387 34.5473 22.7591 34.5473 22.7798C34.5473 22.8004 34.5515 22.8208 34.5598 22.8398V22.9198C34.562 22.9402 34.5711 22.9593 34.5857 22.9739C34.6002 22.9885 34.6193 22.9976 34.6398 22.9998V23.1598H34.5598V23.2398C34.5369 23.3045 34.5369 23.3751 34.5598 23.4398L34.4798 23.5598C34.4798 23.581 34.4882 23.6013 34.5032 23.6163C34.5182 23.6313 34.5386 23.6398 34.5598 23.6398C34.5525 23.7204 34.563 23.8016 34.5906 23.8776C34.6183 23.9537 34.6624 24.0227 34.7198 24.0798C34.7198 24.0798 34.7198 24.1598 34.7998 24.1598V24.3598H34.6798V24.6798C34.631 24.7407 34.5906 24.808 34.5598 24.8798V24.9998H34.6798V25.1998L34.8798 25.3198C34.8615 25.3715 34.8615 25.428 34.8798 25.4798H34.7198V26.9998L34.5998 27.0798L34.7598 27.2398V27.3998H34.6398L34.8398 27.6398C34.8458 27.6795 34.8458 27.72 34.8398 27.7598C34.7833 27.8265 34.7546 27.9125 34.7598 27.9998V28.0798L34.6798 28.1598V28.2798H34.4798L34.6398 28.4398H34.4798L34.5998 28.5598V28.9998C34.6005 29.0307 34.6081 29.0611 34.6219 29.0887C34.6357 29.1164 34.6555 29.1406 34.6798 29.1598C34.7587 29.1789 34.8409 29.1789 34.9198 29.1598V29.3198H35.1198C35.239 29.3002 35.3606 29.3002 35.4798 29.3198H35.6398V29.1998C35.6793 28.6405 35.6793 28.0791 35.6398 27.5198C35.5993 27.0139 35.5993 26.5056 35.6398 25.9998V25.7198" fill="#F37021"/>
<path d="M0 40H40V0H0V40ZM37.88 37.88H2.12V2.12H37.88V37.88Z" fill="#F37021"/>
</svg>
