<svg width="32" height="32" viewBox="0 0 32 32" fill="none" xmlns="http://www.w3.org/2000/svg">
<path d="M20.3485 5C14.4156 5 9.69696 9.94285 9.69696 16C9.69696 22.127 14.4832 27 20.3485 27C26.2132 27 31 22.0572 31 16C31 9.94285 26.2132 5 20.3485 5ZM20.3485 20.0381C18.191 20.0381 16.3701 18.1582 16.3701 15.9301C16.3701 13.7026 18.191 11.8228 20.3485 11.8228C22.5054 11.8228 24.3258 13.7026 24.3258 15.9301C24.2581 18.228 22.5054 20.0381 20.3479 20.0381H20.3485ZM9.62933 8.1328V24.1455H5.85336L1 8.1328H9.62933Z" fill="#702FF4"/>
</svg>
