<svg width="40" height="41" viewBox="0 0 40 41" fill="none" xmlns="http://www.w3.org/2000/svg">
<g clip-path="url(#clip0_2488_289)">
<rect x="4" y="5" width="32" height="32" fill="#005BFF"/>
<path fill-rule="evenodd" clip-rule="evenodd" d="M36 26.1198V36.9998H10V32.5156V23.3998V21.0197C11.9876 18.5638 15.1052 16.5144 18.8855 15.4501C21.581 14.6912 24.2524 14.5359 26.6442 14.8928L33.7333 23.3998L35.3785 25.374L36 26.1198Z" fill="#F91155"/>
<path fill-rule="evenodd" clip-rule="evenodd" d="M10.8806 23.7846C11.5726 26.2425 16.2631 27.8902 21.4989 26.4162C26.7488 24.9382 29.8659 21.0924 29.174 18.6344C28.482 16.1765 23.8031 14.5293 18.5674 16.0033C13.3316 17.4773 10.1887 21.3266 10.8806 23.7846ZM6.30635 25.0724C4.78853 19.681 9.70416 13.5845 17.2855 11.4501C24.8667 9.31574 32.2572 11.9554 33.773 17.3397C35.2889 22.724 30.361 28.8315 22.7798 30.9659C15.1984 33.1002 7.82418 30.4637 6.30635 25.0724Z" fill="white"/>
</g>
<defs>
<clipPath id="clip0_2488_289">
<rect x="4" y="5" width="32" height="32" rx="6" fill="white"/>
</clipPath>
</defs>
</svg>
