<svg width="40" height="40" viewBox="0 0 40 40" fill="none" xmlns="http://www.w3.org/2000/svg">
<path fill-rule="evenodd" clip-rule="evenodd" d="M28.8385 36.7859L24.8189 28.0165H15.1851L11.1635 36.7859H28.8385ZM32.1048 6.52403C36.0187 9.94227 38.3861 15.0934 38.3861 20.3929C38.3861 25.6925 36.018 30.8436 32.1048 34.2619L27.0419 23.2187H12.9621L7.89915 34.2619C3.98396 30.8423 1.61519 25.6912 1.61519 20.3929C1.61519 15.094 3.98396 9.94363 7.89915 6.52403L12.9621 17.5679H27.0419L32.1048 6.52403ZM31.4865 4L26.0066 15.9537H13.998L8.51812 4C3.20635 7.66977 0.000976562 13.9151 0.000976562 20.3929C0.000976562 26.8715 3.20635 33.1161 8.51812 36.7859L13.998 24.8329H26.0066L31.4865 36.7859C36.799 33.1161 40.001 26.8715 40.001 20.3929C40.0003 13.9151 36.7983 7.66977 31.4865 4ZM28.8385 4L24.8189 12.77H15.1851L11.1635 4H28.8385Z" fill="#123A92"/>
</svg>
