<svg width="40" height="41" viewBox="0 0 40 41" fill="none" xmlns="http://www.w3.org/2000/svg">
<path d="M0 0.5H40V40.5H0V0.5Z" fill="#A70133"/>
<path fill-rule="evenodd" clip-rule="evenodd" d="M27.0872 27.7206C26.7009 28.2389 26.1043 29.386 26.1043 29.386C26.1043 29.386 26.0368 29.4965 25.9531 29.6474C25.879 29.7807 25.7923 29.9458 25.7284 30.0933C25.5927 30.4075 24.1108 33.9593 20.1586 34.0385C16.1307 34.1207 14.3012 30.4503 14.2049 30.2566L14.2026 30.2519C14.1386 30.1239 13.9661 29.6066 13.8922 29.3793C13.8184 29.1519 12.3507 26.2582 11.1918 26.3512C11.1608 26.3512 10.6297 26.5307 10.6297 26.5307C10.6297 26.5307 10.0607 26.4135 10.0054 25.2751C9.97766 24.7019 10.0602 24.4321 10.1647 24.3052C10.2574 24.1927 10.3675 24.1923 10.4335 24.1923H10.4539C10.5123 24.1907 10.6482 24.2311 10.7922 24.2742L10.9027 24.3069C11.0271 24.3429 11.1443 24.3732 11.2091 24.3719C11.3678 24.3681 12.1714 23.9923 12.1575 23.2439C12.1522 22.9553 11.9698 22.4919 11.751 21.9365C11.4028 21.0524 10.9628 19.9346 10.9988 18.9158C11.0084 18.0105 11.1812 17.1143 11.5092 16.2706C11.5092 16.2706 10.3503 14.9602 10.5056 13.6322C10.6235 12.7542 10.9683 11.9223 11.5057 11.2181C11.8319 10.7728 12.092 10.2825 12.2783 9.7628C12.2783 9.7628 11.9967 9.2411 11.7839 8.74535C11.6545 8.44425 11.5505 8.15259 11.5505 7.99362C11.5505 7.57263 11.992 6.52083 12.93 6.50029C13.8681 6.4794 14.1475 7.61069 14.1475 7.80401C14.1559 8.15697 13.9188 8.76623 13.7305 9.25053C13.6079 9.56611 13.5059 9.82847 13.5059 9.93187C13.5163 10.4492 14.2819 11.4734 14.813 12.0735C15.1776 12.4945 15.4972 12.9512 15.7675 13.4365C15.9007 13.6757 16.0219 13.9215 16.1305 14.1738C17.5344 13.4679 19.0744 13.0738 20.6449 13.0182C22.7901 12.932 23.6073 13.8185 23.6073 13.8185C23.9837 13.1095 24.4102 12.4285 24.8834 11.7802C25.1485 11.4367 25.4391 11.114 25.7527 10.8149C25.894 10.6799 26.04 10.5499 26.1905 10.4249C26.2774 10.3758 26.3534 10.3091 26.4126 10.2289C26.4719 10.1488 26.514 10.0568 26.5354 9.95948C26.5157 9.72912 26.4387 9.50717 26.3113 9.31453C26.3113 9.31453 24.7731 7.07957 27.2459 6.73469C29.5771 7.00379 28.3322 9.11447 28.3322 9.11447C28.2076 9.28522 28.123 9.48023 28.083 9.68533C28.0648 9.77863 28.0558 9.8736 28.0563 9.96959C28.136 10.3283 28.3098 10.6593 28.5599 10.9284C28.5599 10.9284 29.5738 12.0698 29.5531 13.3769C29.5392 14.5668 28.4874 16.1945 28.4874 16.1945C28.676 17.2332 28.7629 18.288 28.7461 19.3435C28.719 19.8191 28.6643 20.2926 28.5824 20.7614C28.5526 20.9322 28.5191 21.1023 28.4821 21.2713C28.4211 21.5505 28.3504 21.8281 28.27 22.1025C28.0939 22.4784 28.0087 22.891 28.0218 23.3059C28.0929 23.6252 28.2877 23.903 28.5632 24.0785C28.5632 24.0785 29.76 22.8819 29.9911 24.8578C30.1256 26.0235 28.6978 25.9962 28.6978 25.9962C28.1097 26.5206 27.5707 27.0979 27.0872 27.7206ZM12.2783 25.9824C11.0781 25.589 11.9713 24.8201 12.1885 24.6854C12.4058 24.551 13.568 23.806 12.4024 21.561C12.0579 20.8709 11.8526 20.1198 11.7989 19.3506C11.745 18.581 11.8433 17.8088 12.0885 17.0776C12.0885 17.0776 13.9233 17.6225 14.8268 17.4396C14.8268 17.4396 16.4478 17.1396 14.8268 16.788C13.8957 16.7465 12.9162 16.7017 12.2471 15.9911C11.6353 15.4401 11.2639 14.6712 11.2125 13.8494C11.1608 12.8148 12.7714 10.594 12.7714 10.594C12.7884 10.6408 12.8072 10.6866 12.8281 10.7321C12.8401 10.758 12.8527 10.7836 12.866 10.8089C12.8926 10.8597 12.9216 10.9096 12.9527 10.9577C12.9792 10.9985 13.0073 11.0382 13.0369 11.0766C13.3508 11.4457 15.1683 13.4908 15.5304 14.6911C15.7304 15.3808 16.2201 14.9326 16.2201 14.9326C17.5587 14.2694 19.0136 13.8734 20.5034 13.7669C21.5015 13.674 22.4976 13.9639 23.2901 14.5772C23.2901 14.5772 23.866 15.4532 24.1937 14.3324C24.7179 12.5356 27.1251 10.5903 27.1251 10.5903L27.2735 10.2629L28.3874 12.1422C28.9844 13.2203 28.7178 13.8845 28.2882 14.9545L28.1976 15.1808C27.5382 16.8327 25.9058 17.0166 25.1311 17.1035C24.9984 17.1183 24.891 17.1305 24.8179 17.1466C24.0972 17.2638 24.3902 17.574 24.9835 17.6293C25.7111 17.9741 27.677 17.3363 27.677 17.3363C27.677 17.3363 27.9701 17.3982 28.0218 18.9535C28.0712 20.3889 27.7049 21.4495 27.438 22.2224C27.2944 22.638 27.1795 22.9705 27.1734 23.2335C27.1561 23.9855 28.1183 24.7373 28.3081 24.8649C28.3239 24.8757 28.3413 24.8861 28.3591 24.8966C28.5545 25.0131 28.8003 25.1599 27.6184 26.0511C26.7082 26.7338 25.8219 28.3174 25.0796 29.6437C24.6968 30.3277 24.3525 30.943 24.0627 31.3313C23.2107 32.4727 21.9348 33.2039 19.862 33.2524C17.8953 33.2982 16.7297 32.1821 16.0409 31.523L15.9338 31.4209C15.6878 31.1875 15.2921 30.4496 14.83 29.5881C14.0298 28.0961 13.031 26.2336 12.2678 25.9824H12.2783ZM21.5621 26.1548C21.6069 26.7136 20.7688 27.0584 20.0481 27.0584V27.0723C18.9928 27.048 18.4823 26.6721 18.4721 26.2411C18.4616 25.81 18.7238 25.4408 18.7238 24.9097C18.6928 23.413 17.503 20.33 17.1891 20.1576C16.9324 20.0164 15.1329 20.1017 14.2984 20.1411C14.1131 20.1498 13.9754 20.1562 13.9127 20.1576C13.5679 20.1643 13.5162 20.5678 13.5162 20.5678C13.5162 20.5678 13.4092 22.9129 15.382 23.3268C17.5168 23.7612 17.7892 24.6201 17.7961 25.0512C17.803 25.4823 17.5787 26.2892 17.5787 26.5859C17.6218 26.8149 17.7241 27.0288 17.8754 27.206C17.9733 27.3208 18.0895 27.4175 18.2188 27.4929C18.2892 27.534 18.3636 27.5687 18.4409 27.5963C18.9653 27.8273 19.2568 27.986 19.4089 28.1682C19.5178 28.2985 19.555 28.441 19.555 28.6309C19.5618 28.9276 18.4135 29.2863 18.072 29.2968C17.7306 29.3069 17.4065 28.8519 17.1581 28.8519C17.0176 28.8478 16.8814 28.8994 16.7783 28.9947C16.6753 29.09 16.6135 29.222 16.6062 29.3621C16.6131 29.6932 17.5651 30.3691 18.0617 30.3587C18.5583 30.3486 19.4688 29.5622 20.0757 29.5484C20.3879 29.5413 20.7803 29.772 21.1516 29.9906C21.5024 30.197 21.8343 30.3927 22.0621 30.3657C22.5313 30.3105 23.1348 30.0519 23.1348 29.3311C23.1348 28.6104 22.5106 29.3207 22.1002 29.3311C21.6898 29.3416 20.4965 29.0034 20.4861 28.5413C20.4758 28.0793 20.6621 28.0069 21.5621 27.6825C21.8267 27.5785 22.0574 27.4037 22.2295 27.1773C22.4013 26.9513 22.5082 26.6822 22.5382 26.3997C22.3539 25.9437 22.2278 25.4661 22.1621 24.9788C21.9823 24.0721 24.2068 23.1005 25.4865 22.5417C25.9495 22.3393 26.2889 22.1911 26.3456 22.1197C26.5593 21.8506 26.3766 20.5887 26.3766 20.5887C26.3766 20.5887 26.5697 20.2677 25.7764 20.171C22.6976 19.7921 22.4525 20.2465 22.3028 20.5237L22.2864 20.554C22.1347 20.8264 21.1758 24.5995 21.2173 24.9649C21.2587 25.3307 21.5174 25.5961 21.5621 26.1548ZM17.0202 22.4094C17.2271 21.8058 15.3439 21.0922 15.2544 21.6196C15.1233 22.3578 16.5855 22.7165 17.0202 22.4094ZM23.1658 22.0955C23.6417 22.5508 25.4454 22.0439 25.0247 21.3852C24.7661 20.9817 22.6899 21.6368 23.1658 22.0955Z" fill="#FBB701"/>
</svg>
