<svg width="40" height="40" viewBox="0 0 40 40" fill="none" xmlns="http://www.w3.org/2000/svg">
<path fill-rule="evenodd" clip-rule="evenodd" d="M0.690343 19.7816C0.690343 9.24409 9.35281 0.676236 20 0.676236C30.6539 0.676236 39.3097 9.24409 39.3097 19.7816C39.3097 30.3125 30.6539 38.8803 20 38.8803C9.35281 38.8803 0.690343 30.3125 0.690343 19.7816ZM0 19.7816C0 30.6867 8.97446 39.5565 20 39.5565C31.0256 39.5565 40 30.6802 40 19.7816C40 8.86986 31.0256 0 20 0C8.97446 0 0 8.86986 0 19.7816ZM32.3197 18.0873L32.2337 18.1534C31.1251 18.9937 29.386 19.67 26.9632 20.3068C24.1496 21.0578 21.7679 21.4496 19.487 21.8248C17.6998 22.1188 15.9746 22.4026 14.152 22.841C13.3488 23.0314 12.4992 23.3071 11.7159 23.6223C12.4992 24.0096 13.329 24.3643 14.1852 24.686C15.8646 24.2132 16.6745 23.9966 19.1105 23.5895C20.0399 23.4319 22.9074 22.9395 24.9718 22.5062C28.709 21.7118 34.1786 20.0048 32.7249 17.766C32.6025 17.8705 32.4662 17.975 32.3197 18.0873ZM30.322 13.1177C29.5321 12.7697 28.5364 12.4217 27.481 12.1395C27.003 12.5071 26.4521 12.8354 25.6688 13.1439C26.6371 13.3132 27.4287 13.5538 28.2218 13.7946C28.5052 13.8808 28.7888 13.967 29.0807 14.0499C29.2865 14.155 30.1826 13.3146 30.322 13.1177ZM12.0212 18.0614C14.5951 17.3133 17.2354 16.8392 19.917 16.3578C22.3184 15.9266 24.7529 15.4896 27.2022 14.8444C25.1843 14.306 24.0691 14.0762 21.925 14.3191C18.8184 14.6803 15.3933 15.35 12.466 16.2099L12.3429 16.2463C10.9435 16.6586 5.32564 18.3137 7.01627 20.6154C7.01696 20.6188 7.02853 20.6065 7.05307 20.5807C7.26705 20.3553 8.46629 19.0921 12.0212 18.0614ZM8.66248 26.2026C8.6492 26.6359 8.92136 27.0297 9.51877 27.5156C9.59179 27.2793 9.69799 27.102 9.87721 26.8788C9.45903 26.6752 9.04748 26.4455 8.66248 26.2026ZM10.9459 25.9859C11.311 25.7692 11.7558 25.5591 12.2602 25.3556C11.5632 25.0733 10.853 24.7647 10.1295 24.4364C9.8042 24.6334 9.51213 24.8566 9.2798 25.0733C9.50284 25.1941 9.72376 25.317 9.94468 25.4399C10.276 25.6243 10.6074 25.8086 10.9459 25.9859ZM29.7046 15.7307C28.7222 16.1838 27.3083 16.6499 25.2904 17.1554C24.5293 17.3451 23.2672 17.5665 21.7047 17.8406C19.8603 18.1643 17.5975 18.5612 15.2472 19.0659C13.8732 19.3614 10.156 20.228 8.32394 21.7709C8.68648 22.0596 8.94882 22.193 9.27443 22.3587C9.40787 22.4266 9.55195 22.5 9.7179 22.5916C10.4813 22.1123 11.5035 21.6527 13.0302 21.2522C15.6872 20.551 17.6695 20.2423 20.0665 19.8689L20.0796 19.8669C22.4627 19.5059 26.93 18.5735 29.4059 17.6937C30.2157 17.4114 30.9658 17.0437 31.5235 16.6104C31.3508 16.4135 29.7577 15.6585 29.7046 15.7307ZM31.1451 14.8509C31.2454 14.8992 31.3432 14.945 31.4389 14.9898C31.8122 15.1646 32.1544 15.3248 32.4926 15.56C32.7979 14.9823 32.612 14.608 31.9748 14.0762C31.7293 14.3651 31.4438 14.6212 31.1451 14.8509ZM8.42351 23.5632C7.98541 23.3269 7.69334 23.1627 7.32826 22.9133C7.12912 23.3269 7.50084 23.7996 7.89248 24.0228C7.99031 23.9222 8.09738 23.8353 8.20415 23.7485C8.27849 23.6882 8.35267 23.6279 8.42351 23.5632ZM29.1868 10.2486C29.1072 10.5769 28.7488 10.9577 28.5032 11.2137C29.24 11.4042 29.9768 11.6732 30.6871 11.9359C30.6007 11.2925 29.8374 10.6622 29.1868 10.2486ZM6.22636 14.3585C11.3375 11.043 16.9931 9.11279 26.5781 10.7476C27.1093 10.4456 27.3946 10.1633 27.534 9.53954C25.1378 8.68603 22.5489 8.38403 19.1902 8.44312C16.1766 8.5219 10.7468 9.63145 7.85265 11.3254L8.7355 10.2289C10.7666 9.06027 16.0438 7.4977 20.0066 7.41892C22.8012 7.36639 24.2483 7.52395 27.5673 8.41029C27.2995 7.88064 26.6696 7.59941 25.7707 7.19808L25.5891 7.11691C22.3764 5.68564 16.3758 5.55434 11.4571 7.69466C12.0744 7.29417 12.685 6.91994 13.4816 6.55227C15.0946 5.81695 17.7498 5.11446 21.0688 5.16698C23.7172 5.20637 26.8636 6.12552 28.7886 8.00979C29.1138 8.38403 29.2931 8.78451 29.3794 9.10622C30.9061 9.86781 31.7889 10.5769 32.2934 11.4303C32.4926 11.8571 32.5789 12.3364 32.486 12.8682C33.1231 13.2425 33.4219 13.551 33.7338 13.9712C33.9662 14.3191 34.1322 14.7065 34.1719 15.0676C34.2383 15.5469 34.2915 16.0787 33.7936 16.7024C34.318 16.9519 34.7229 17.6609 34.7893 17.9826C35.0217 19.1251 34.2848 20.228 33.3091 21.0946C32.1873 22.0663 29.7112 23.2218 27.6933 23.7274C24.8433 24.4367 22.2348 24.8575 19.9537 25.2254C19.0258 25.3751 18.1521 25.5161 17.3383 25.6642L17.3506 25.6671C18.6041 25.9622 20.3213 26.3667 23.1132 26.3667C29.0873 26.3667 34.3711 23.5698 34.3711 23.5698C34.3711 23.5698 34.2516 23.9375 34.1388 24.2592C30.3485 26.5243 24.308 27.4893 21.7258 27.3712C19.1039 27.2464 16.9068 26.8656 14.7428 26.2091C14.079 26.3798 13.4351 26.5833 12.8046 26.8591C16.0903 28.3363 18.5596 28.6711 21.3741 28.868C24.235 29.0781 28.9678 28.3954 32.9705 26.9641C32.8844 27.0524 32.8167 27.1649 32.7498 27.2761C32.6773 27.3965 32.6057 27.5156 32.5125 27.601C30.4614 28.658 26.1334 29.7281 23.9628 29.8201C21.7989 29.9054 19.1504 29.8266 16.8603 29.3999C14.8822 29.0191 13.2758 28.3954 11.5897 27.6732C11.2778 27.8898 11.1251 28.1918 11.0721 28.507C17.6569 31.9078 23.8234 31.9801 30.8398 29.8266L30.2025 30.4372C22.4759 33.5295 16.4422 32.3281 11.769 30.0958C11.7447 30.0853 11.7195 30.0747 11.6939 30.0638C11.5584 30.0066 11.4082 29.9432 11.291 29.866C11.7225 30.6145 15.2937 33.1882 19.2832 33.5164C22.0379 33.7396 25.3967 33.2735 27.3814 32.4922L26.2198 33.0896C25.2507 33.5623 22.695 34.6194 19.1171 34.3896C14.3578 34.0679 11.6761 31.9866 10.4746 30.8968C9.92368 30.3847 9.65153 29.7938 9.48557 29.0716C8.41023 28.5135 7.73316 27.9358 7.16895 27.0757C6.83705 26.5702 6.90343 25.999 6.98973 25.5197C7.01627 25.3687 7.0561 25.2242 7.11584 25.093C6.59808 24.7188 6.07369 24.3248 5.85464 23.9243C5.38335 23.0839 5.67541 22.3617 6.00067 21.8037C5.72189 21.4886 5.45637 21.1668 5.34352 20.8451C5.2174 20.4446 5.19084 20.0901 5.23068 19.6831C5.31697 18.974 5.70197 18.3306 6.18654 17.7725C7.22869 16.5842 8.86162 15.665 11.6695 14.7459C13.7207 14.0729 14.854 13.8299 16.1622 13.5495C16.6024 13.4551 17.0623 13.3565 17.5838 13.2358C18.5042 13.0264 19.4907 12.8708 20.4931 12.7128C22.1293 12.455 23.8079 12.1904 25.3103 11.6732C18.5729 10.4981 11.5699 11.5616 5.86127 15.4484L6.22636 14.3585Z" fill="#0057B6"/>
</svg>
