<svg width="32" height="32" viewBox="0 0 32 32" fill="none" xmlns="http://www.w3.org/2000/svg">
<path d="M23.1837 13.9639L30.7703 1.2731C30.7818 1.24093 30.7818 1.206 30.7703 1.17383C30.7819 1.1443 30.7819 1.11173 30.7703 1.0822C30.7555 1.05019 30.7306 1.02349 30.6993 1.00584C30.6655 0.998053 30.6304 0.998053 30.5967 1.00584H25.7494C25.223 1.00817 24.7063 1.14234 24.2494 1.39527C23.7947 1.6409 23.4159 1.99938 23.1521 2.43375L15.0049 16.0867C15.0005 16.112 15.0005 16.1378 15.0049 16.1631C15.0012 16.191 15.0012 16.2192 15.0049 16.2471C15.0151 16.2732 15.0313 16.2967 15.0523 16.3158C15.0741 16.3337 15.0979 16.349 15.1233 16.3616C16.9824 17.0131 18.69 18.0136 20.1478 19.3058C21.6056 20.5979 22.7849 22.156 23.6179 23.8906C23.6294 23.9201 23.6294 23.9527 23.6179 23.9822C23.6302 24.0116 23.6302 24.0445 23.6179 24.0739C23.6026 24.1036 23.5776 24.1278 23.5468 24.1426C23.5156 24.1495 23.4833 24.1495 23.4521 24.1426H7.19722C7.14725 24.1412 7.09953 24.1222 7.06301 24.0891C7.04341 24.0715 7.02771 24.0503 7.01685 24.0267C7.00599 24.003 7.00021 23.9775 6.99986 23.9517V6.9771C6.99874 6.95175 7.00308 6.92644 7.0126 6.90279C7.02213 6.87914 7.03662 6.85766 7.05518 6.83972C7.07373 6.82177 7.09594 6.80775 7.12039 6.79854C7.14484 6.78932 7.171 6.78513 7.19722 6.78621H15.3523C15.8796 6.78512 16.3975 6.65065 16.8545 6.39615C17.3115 6.14164 17.6918 5.77596 17.9575 5.33539L20.3811 1.2731C20.3892 1.24047 20.3892 1.20646 20.3811 1.17383C20.3891 1.14378 20.3891 1.11225 20.3811 1.0822L20.3022 1.00584C20.2711 0.998082 20.2385 0.998082 20.2074 1.00584H1.20526C1.1532 1.00075 1.10078 1.01142 1.05526 1.03638C1.02109 1.07768 1.0017 1.12859 1 1.18147V29.8084C1.00036 29.8343 1.00614 29.8598 1.01699 29.8834C1.02785 29.907 1.04355 29.9283 1.06316 29.9459C1.10209 29.98 1.1527 29.999 1.20526 29.9993H30.794C30.8216 30.0016 30.8493 29.9981 30.8753 29.9889C30.9013 29.9798 30.9249 29.9652 30.9445 29.9463C30.9641 29.9274 30.9791 29.9046 30.9886 29.8794C30.998 29.8543 31.0017 29.8274 30.9993 29.8008C30.9753 26.8106 30.2634 23.8631 28.9151 21.1722C27.5723 18.4817 25.6314 16.1115 23.231 14.2312C23.1933 14.203 23.1679 14.1621 23.16 14.1167C23.1527 14.091 23.1511 14.0642 23.1552 14.0379C23.1592 14.0116 23.169 13.9864 23.1837 13.9639Z" fill="#96D700"/>
</svg>
