<svg width="32" height="32" viewBox="0 0 32 32" fill="none" xmlns="http://www.w3.org/2000/svg">
<path fill-rule="evenodd" clip-rule="evenodd" d="M25.2002 9C25.2002 13.9707 21.1709 18 16.2002 18C11.2295 18 7.2002 13.9707 7.2002 9C7.2002 4.0293 11.2295 0 16.2002 0C21.1709 0 25.2002 4.0293 25.2002 9ZM16.2002 30C11.2251 30 7.2002 30.3271 7.2002 30.6543V31.3457C7.2002 31.6729 11.2251 32 16.2002 32C21.1753 32 25.2002 31.6729 25.2002 31.3457V30.6543C25.228 30.3271 21.1753 30 16.2002 30ZM7.2002 23.5V24.5C7.2002 26.1572 11.2295 27.5 16.2002 27.5C21.1709 27.5 25.2002 26.1572 25.2002 24.5V23.5C25.2002 21.8428 21.1709 20.5 16.2002 20.5C11.2295 20.5 7.2002 21.8428 7.2002 23.5Z" fill="#F10D30"/>
</svg>
