<svg width="192" height="48" viewBox="0 0 192 48" fill="none" xmlns="http://www.w3.org/2000/svg">
<rect x="80" y="8" width="32" height="32" rx="16" fill="#60646E"/>
<path fill-rule="evenodd" clip-rule="evenodd" d="M95.9984 35.9958C102.625 35.9958 107.996 30.6251 107.996 24C107.996 17.3743 102.625 12.0043 95.9984 12.0043C89.374 12.0043 84.005 17.3743 84.005 24C84.005 30.6246 89.374 35.9958 95.9984 35.9958ZM95.9984 11C103.181 11 109 16.8208 109 24C109 31.1793 103.18 37 95.9984 37C88.8206 37 83 31.1793 83 24C83 16.8208 88.8201 11 95.9984 11ZM95.9984 33.2083C95.5711 33.2083 95.3136 32.9229 95.2979 32.5323C95.2043 32.7084 95.0837 32.8275 94.902 32.8638C94.7213 32.8976 94.5347 32.8761 94.3665 32.8021C94.2004 32.7355 94.0651 32.6092 93.9873 32.4478C93.9062 32.2832 93.9332 32.1136 93.9911 31.9159C93.7899 32.203 93.4502 32.2778 93.1511 32.1391C92.7411 31.9484 92.5918 31.6023 92.76 31.2074C93.2663 30.0114 93.7699 28.8371 94.2783 27.6427C94.3243 27.5344 94.3632 27.4223 94.4141 27.3145C94.4595 27.2186 94.4882 27.1482 94.5309 27.0902C94.5633 27.0467 94.6039 27.0101 94.6505 26.9824C93.864 27.0685 93.4859 27.3768 93.2776 27.5133C93.2225 27.5501 93.2257 27.5555 93.0131 27.4894C92.9189 27.462 92.8176 27.4729 92.7313 27.5198C92.635 27.5708 92.5428 27.6293 92.4555 27.6947C92.1737 27.9135 91.8859 28.1248 91.6192 28.361C91.4948 28.4715 91.3163 28.6594 91.3407 28.8295C91.3602 28.9871 91.7469 29.3522 91.8627 29.4611C92.1369 29.7189 91.722 30.2043 91.1692 30.1582C91.3163 30.0044 91.351 29.8738 91.332 29.7579C91.2774 29.7574 91.1719 29.7677 91.0724 29.6788C90.9534 29.5721 91.0064 29.2569 90.8961 29.1496C90.7013 28.9611 90.0647 28.9438 89.6844 28.9275C89.5243 28.921 89.3572 28.8783 89.3691 28.6307C89.1273 28.647 89.077 28.8257 89.077 28.9871C88.8688 28.8701 88.6908 28.309 89.4589 28.1817C89.3291 28.0641 89.1138 28.0213 88.9813 28.1708C88.8563 27.965 89.1722 27.5604 89.7407 27.7884C89.7391 27.7868 89.9965 27.452 90.7652 28.3084C90.862 28.2358 90.9583 28.1643 91.0464 28.0831C91.3439 27.8139 92.0936 27.0848 92.0936 27.0848C92.0936 26.6748 92.1553 25.8807 92.7 25.4045C92.932 25.2014 93.1543 25.0936 93.6455 25.0053C93.6455 25.0053 93.408 24.6354 93.3707 24.4897C92.9423 24.9154 92.0817 25.0427 92.0817 24.3245C91.3802 25.0216 90.7284 24.6457 90.7284 24.208C90.7041 24.4298 90.6538 24.648 90.5786 24.858C90.4904 25.0931 90.1691 25.9939 89.3399 25.9939C89.321 26.307 89.3193 27.3367 88.3284 27.5674C88.2857 27.5772 88.231 27.5918 88.204 27.6243C87.8037 28.1194 86.1399 28.6394 85.9365 28.4991C86.0653 28.407 86.2692 28.2851 86.3017 27.7039C86.3222 27.3204 86.3644 25.3303 86.3644 22.5272C86.3644 21.5349 86.472 18.3206 89.6693 17.8727C90.1545 17.805 90.6316 17.8402 91.0448 18.1451C91.6073 18.5633 91.8843 19.2664 91.5533 20.0632C91.5424 20.0919 91.5343 20.12 91.5192 20.1455C91.4067 20.3351 91.4527 20.4987 91.5992 20.6438C91.8659 20.9076 92.1769 21.0858 92.5512 21.1292C92.7871 21.1563 92.9829 21.0528 93.1392 20.8914C93.4978 20.5241 93.7412 20.0924 93.8294 19.5854C93.996 18.6223 93.7374 18.1392 93.7228 18.1088C93.4626 17.5899 92.9104 17.2097 92.27 17.1555C91.9768 16.6106 91.1351 16.8262 91.1351 16.8262C90.9242 16.8717 90.8501 16.9313 90.7976 17.0347C90.7976 17.0347 90.4282 16.4757 90.776 16.2515C91.1249 16.0267 91.9032 15.934 91.9032 15.934C91.9032 15.57 92.509 15.2868 93.6033 15.4812C94.9269 15.7163 95.2114 15.2017 95.2114 15.2017C95.2671 15.8311 94.7824 16.1561 94.6272 16.2439C95.1297 16.7855 95.8312 17.8678 95.9984 19.4034C96.1661 17.8678 96.8676 16.7855 97.3696 16.2439C97.2143 16.1561 96.7302 15.8311 96.7854 15.2017C96.7854 15.2017 97.0699 15.7163 98.3935 15.4812C99.4883 15.2868 100.094 15.57 100.094 15.934C100.094 15.934 100.872 16.0261 101.221 16.2515C101.569 16.4757 101.199 17.0347 101.199 17.0347C101.147 16.9313 101.073 16.8722 100.862 16.8262C100.862 16.8262 100.02 16.6106 99.7268 17.1555C99.0864 17.2097 98.5347 17.5899 98.2745 18.1088C98.2599 18.1392 98.0165 18.618 98.1674 19.5854C98.2469 20.0935 98.499 20.5241 98.8581 20.8914C99.0144 21.0528 99.2097 21.1557 99.4461 21.1292C99.8198 21.0858 100.131 20.9071 100.398 20.6438C100.544 20.4987 100.59 20.3351 100.478 20.1455C100.462 20.12 100.454 20.0919 100.444 20.0632C100.112 19.2669 100.39 18.5628 100.952 18.1457C101.365 17.8407 101.843 17.8044 102.327 17.8727C105.525 18.3206 105.632 21.5349 105.632 22.5272C105.632 25.3303 105.675 27.3204 105.695 27.7039C105.728 28.2851 105.931 28.407 106.061 28.4991C105.857 28.6399 104.193 28.1194 103.793 27.6243C103.766 27.5918 103.712 27.5772 103.669 27.5674C102.678 27.3367 102.676 26.307 102.657 25.9939C101.828 25.9939 101.506 25.0931 101.418 24.858C101.343 24.648 101.293 24.4298 101.268 24.208C101.268 24.6457 100.617 25.0216 99.9156 24.3245C99.9156 25.0427 99.0545 24.9154 98.6266 24.4897C98.5887 24.6354 98.3508 25.0053 98.3508 25.0053C98.843 25.0936 99.0647 25.2014 99.2973 25.4045C99.8415 25.8812 99.9031 26.6748 99.9031 27.0848C99.9031 27.0848 100.653 27.8139 100.951 28.0831C101.038 28.1643 101.135 28.2358 101.232 28.3084C102 27.452 102.258 27.7868 102.256 27.7884C102.825 27.5604 103.14 27.9655 103.016 28.1703C102.883 28.0213 102.668 28.0641 102.538 28.1811C103.306 28.309 103.128 28.8701 102.92 28.9871C102.92 28.8257 102.869 28.647 102.628 28.6307C102.64 28.8783 102.472 28.921 102.312 28.9275C101.932 28.9438 101.295 28.9611 101.101 29.1496C100.99 29.2569 101.044 29.5721 100.924 29.6788C100.825 29.7677 100.72 29.7574 100.665 29.7579C100.646 29.8738 100.681 30.0044 100.828 30.1588C100.275 30.2043 99.8599 29.7189 100.135 29.4611C100.249 29.3528 100.637 28.9871 100.656 28.8295C100.681 28.6594 100.502 28.4715 100.378 28.361C100.111 28.1248 99.8236 27.9135 99.5413 27.6947C99.454 27.6293 99.3618 27.5708 99.2654 27.5198C99.1793 27.4731 99.0782 27.4622 98.9841 27.4894C98.7716 27.5555 98.7748 27.5501 98.7191 27.5138C98.5109 27.3768 98.1333 27.0685 97.3463 26.983C97.3999 27.0155 97.4361 27.0501 97.4658 27.0902C97.5091 27.1482 97.5378 27.2186 97.5827 27.3145C97.6335 27.4228 97.673 27.5344 97.719 27.6427C98.2274 28.8371 98.7305 30.0114 99.2367 31.2069C99.4055 31.6023 99.2557 31.949 98.8462 32.1385C98.5466 32.2778 98.2069 32.2035 98.0062 31.9165C98.0641 32.1136 98.0911 32.2832 98.0094 32.4478C97.9319 32.6092 97.7968 32.7356 97.6308 32.8021C97.4626 32.8761 97.276 32.8976 97.0953 32.8638C96.913 32.8275 96.7924 32.7084 96.6988 32.5323C96.6832 32.9229 96.4257 33.2083 95.9984 33.2083Z" fill="#F2F3F5"/>
</svg>
