<svg width="40" height="41" viewBox="0 0 40 41" fill="none" xmlns="http://www.w3.org/2000/svg">
<path d="M40.001 0.5H0.000976562V40.5H40.001V0.5Z" fill="#C5AF62"/>
<path d="M23.8252 3.78553V19.8615C23.8252 21.0425 24.7832 22.0005 25.9642 22.0005C27.1452 22.0005 28.1032 21.0425 28.1032 19.8615V10.7795C30.8242 13.0855 32.5522 16.5285 32.5522 20.3755C32.5522 27.3215 26.9212 32.9525 19.9752 32.9525C13.0292 32.9525 7.39822 27.3205 7.39822 20.3745C7.39822 16.6095 9.05422 13.2335 11.6762 10.9305V19.8615C11.6762 21.0425 12.6342 22.0005 13.8152 22.0005C14.9962 22.0005 15.9542 21.0425 15.9542 19.8615V3.82753C8.49122 5.63453 2.94922 12.3565 2.94922 20.3745C2.94922 29.7775 10.5722 37.4005 19.9752 37.4005C29.3782 37.4005 37.0012 29.7775 37.0012 20.3745C37.0012 12.2955 31.3742 5.53053 23.8252 3.78553ZM19.5472 3.51953C18.6022 3.51953 17.8362 4.28553 17.8362 5.23053V19.8615C17.8362 21.0425 18.7942 22.0005 19.9752 22.0005C21.1562 22.0005 22.1142 21.0425 22.1142 19.8615V3.51953H19.5472ZM19.9752 6.00053C19.5972 6.00053 19.2912 5.69453 19.2912 5.31653C19.2912 4.93853 19.5972 4.63253 19.9752 4.63253C20.3532 4.63253 20.6592 4.93853 20.6592 5.31653C20.6592 5.69453 20.3532 6.00053 19.9752 6.00053Z" fill="white"/>
</svg>
