<svg xmlns="http://www.w3.org/2000/svg" xmlns:xlink="http://www.w3.org/1999/xlink" version="1.1" id="Layer_1" x="0px" y="0px" width="60px" height="60px" viewBox="10 10 43 40" style="enable-background:new 0 0 60 60;" xml:space="preserve">
<style type="text/css">
	.st0{fill:#FFFFFF;}
	.st1{fill:#008B92;}
	.st2{fill:#00664B;}
	.st3{fill:#E30613;}
	.st4{fill:#008A91;}
</style>

<rect x="0" class="st0" width="50" height="50"/>


<g>
	<rect x="10.9" y="40.7" class="st2" width="36.9" height="3.3"/>
	<g>
		<path class="st2" d="M34.3,22.7l2.5,6.2l4.4-2.3l-3.8-8.4h-5.5l-7.8,14.5c0,0,3.8-0.1,6.3-2C31,30.4,32.7,25.8,34.3,22.7    L34.3,22.7L34.3,22.7z"/>
		<path class="st1" d="M41.2,26.7L36.8,29c-3.8,1.9-7.3,3.6-9.3,4.2c-5.1,1.5-11.3,2.3-13.5,0.4c-2.1-1.9,2.7-9.6,11.9-11.3    c1.5-0.3,2.3-0.2,2.3-0.2c0,0-0.6-2.7-1.1-3.2c-0.7-0.8-1.3-1-2.3-0.9c-2,0.1-10.4,2.4-13.7,9.4c-1.8,4,0.6,8,2.2,9.2    c0.7,0.5,5.5,4.8,16.5,0.5C40.7,32.6,50.5,26,50.5,26v-4.4C50.5,21.5,46.2,24,41.2,26.7z"/>
		<path class="st2" d="M38.3,33c0.4,1,1.6,3.7,1.9,4.5c0.4,0.9,1.4,0.9,1.4,0.9h5.1l-3.8-7.8C41.5,31.4,40,32.2,38.3,33z"/>
	</g>
	<path class="st3" d="M50.5,19.8c0,0-5.8,3.3-7.2,3.8c-1.2,0.5-1.7-0.2-1.9-0.4c-0.3-0.5-0.9-2.2-1-2.5c0,0,0.4,0.1,1.1-0.1   c0.9-0.2,8.9-4.7,8.9-4.7V19.8L50.5,19.8z"/>
</g>































<script xmlns=""/><link xmlns=""/></svg>