<svg xmlns="http://www.w3.org/2000/svg" width="55.00000000000001" height="55.00000000000001">

 <g>
  <title>background</title>
  <rect fill="none" id="canvas_background" height="57" width="57" y="-1" x="-1"/>
 </g>
 <g>
  <title>Layer 1</title>
  
  <g stroke="null" id="Desktop_Ana Sayfa Redesign_Logo_V3">
   
   <g stroke="null" id="Group 799">
    
    <g stroke="null" id="Logo İlerisi Deniz">
     <g stroke="null" id="Group 2636">
      <path stroke="null" fill="white" d="m6.91363,23.69677c0.53075,-3.07774 1.70801,-5.90587 3.40001,-8.38463l-2.22275,-2.2459c-1.47527,-1.4972 -1.49251,-3.89279 -0.03202,-5.35677c1.45926,-1.48062 3.83101,-1.46399 5.30628,0.03326l2.1895,2.2126c2.4715,-1.76342 5.32475,-3.01113 8.42552,-3.57676l0,-2.94458c0,-2.1128 1.67599,-3.80967 3.7325,-3.80967c2.05651,0 3.73127,1.71351 3.73127,3.80967l0,2.92795c3.13525,0.54899 6.03775,1.81333 8.54127,3.59339l1.974,-1.99633c1.4765,-1.49725 3.84825,-1.49725 5.30751,-0.03327c1.45926,1.48061 1.44325,3.87621 -0.03325,5.35687l-2.02326,2.02954c1.67476,2.46214 2.85202,5.30689 3.38277,8.38463l2.3225,0c2.08975,0 3.78175,1.68018 3.78175,3.77634c0,2.09616 -1.692,3.77646 -3.78175,3.77646l-2.35451,0c-0.564,3.12761 -1.79175,6.00561 -3.533,8.501l1.77451,1.79667c1.4765,1.49731 1.49251,3.89283 0.03325,5.35689c-1.45926,1.48056 -3.83101,1.46394 -5.30751,-0.03325l-1.825,-1.83004c-2.43825,1.69693 -5.25702,2.89475 -8.29252,3.4271l0,2.76151c0,2.11278 -1.67476,3.80971 -3.73127,3.80971c-2.05651,0 -3.7325,-1.71355 -3.7325,-3.80971l0,-2.77813c-2.98501,-0.5491 -5.77176,-1.73017 -8.17677,-3.41047l-2.02326,2.04628c-1.47527,1.49719 -3.84702,1.49719 -5.30751,0.03325c-1.45926,-1.48056 -1.44202,-3.87621 0.03325,-5.35677l1.99001,-1.99641c-1.74126,-2.49539 -2.98501,-5.39002 -3.53177,-8.501l-3.33474,0c-2.08975,0 -3.78052,-1.69693 -3.78052,-3.77646c0,-2.07941 1.69077,-3.77634 3.78052,-3.77634l3.3175,0l0,-0.01662z" id="Vector"/>
      <g stroke="null" id="Group">
       <path stroke="null" fill="#004899" d="m-150.00061,37.95451c0.41463,-8.73399 -4.31226,-14.07414 -10.29965,-14.07414c-5.35714,0 -9.6694,4.82442 -9.6694,12.54358c0,7.71916 4.85951,11.79498 10.1504,11.79498c3.86438,0 8.40889,-2.59526 9.4869,-8.20164l-7.96102,0c-0.16588,1.09808 -0.79613,1.92979 -1.642,1.92979c-1.70825,0 -1.9405,-2.11278 -1.9405,-3.99258l11.87527,0zm-11.8919,-4.82454c0,-1.6303 0.59713,-3.02774 1.841,-3.02774c1.17763,0 1.99025,1.44731 1.99025,3.02774l-3.83126,0z" clip-rule="evenodd" fill-rule="evenodd" id="Vector_2"/>
       <path stroke="null" fill="#004899" d="m-139.29692,24.39585l-7.97764,0l0,23.29048l8.17664,0l0,-11.36238c0,-1.36419 0,-3.29398 1.36,-3.29398c1.36013,0 1.39325,1.92979 1.39325,3.29398l0,11.36238l8.17664,0l0,-14.34025c0,-5.14053 -1.64188,-9.48259 -5.83814,-9.48259c-2.63701,0 -3.83126,1.71355 -5.42339,4.25881l-0.1825,0l0.31513,-3.72646z" clip-rule="evenodd" fill-rule="evenodd" id="Vector_3"/>
       <path stroke="null" fill="#004899" d="m-97.12476,25.70931l0,-1.31432l-17.33191,0l0,7.35318l3.96388,0l1.85763,-0.31611l0,0.18299l-6.65089,14.50674l0,1.58043l17.76329,0l0,-7.41968l-4.67713,0l-1.67525,0.26611l0,-0.26611l1.7415,-4.30881l5.00888,-10.26443z" clip-rule="evenodd" fill-rule="evenodd" id="Vector_4"/>
       <path stroke="null" fill="#004899" d="m-38.58811,24.39585l-8.64102,0l0,23.29048l8.82327,0l0,-11.36238c0,-1.36419 0,-3.29398 1.35951,-3.29398c1.36074,0 1.39399,1.92979 1.39399,3.29398l0,11.36238l8.17677,0l0,-14.34025c0,-5.14053 -1.64274,-9.48259 -5.83826,-9.48259c-2.63775,0 -3.83224,1.71355 -5.4245,4.25881l-0.18225,0l0.33249,-3.72646z" clip-rule="evenodd" fill-rule="evenodd" id="Vector_5"/>
       <path stroke="null" fill="#004899" d="m-25.06319,47.70259l8.35902,0l0.01601,-11.69512l3.91475,11.69512l9.88477,0l-6.18676,-12.95944l6.05376,-10.34767l-9.58677,0l-3.73127,9.84857l-0.53075,-1.19782l0,-18.21646l-8.19277,0l0,32.87282z" clip-rule="evenodd" fill-rule="evenodd" id="Vector_6"/>
       <path stroke="null" fill="#004899" d="m-85.72728,27.28999l0,-4.69142l0.597,0c1.2605,0 2.88588,-0.18299 2.88588,2.22928c0,2.27915 -1.42638,2.46214 -2.68688,2.46214l-0.796,0zm-8.80702,20.41248l13.6334,0c4.17951,0 8.75714,-2.32902 8.75714,-9.13323c0,-3.9927 -1.60875,-6.17198 -4.74351,-7.85228c3.48301,-2.01291 3.98063,-3.72646 3.98063,-6.62109c0,-6.85408 -6.48501,-9.48259 -9.70264,-9.48259l-11.92502,0l0,33.08918zm8.80702,-13.42529l0.86238,0c1.39325,0 3.61563,-0.05 3.61563,2.71163c0,2.76163 -2.05651,2.8115 -3.48288,2.8115l-0.97863,0l0,-5.52313l-0.0165,0z" clip-rule="evenodd" fill-rule="evenodd" id="Vector_7"/>
       <path stroke="null" fill="#004899" d="m-58.47464,47.70321l8.77278,0l0,-23.29048l-8.77278,0l0.24875,2.76151l-0.19949,0c-1.21051,-2.27915 -2.88527,-3.29386 -4.90975,-3.29386c-5.32352,0 -7.33077,6.40485 -7.33077,12.27734c0,5.87262 2.538,12.06122 7.09926,12.06122c2.32127,0 3.64876,-1.39744 5.14126,-3.59334l0.19949,0l-0.24875,3.07762zm-4.06375,-11.76174c0,-1.71355 0.82876,-4.52505 2.123,-4.52505c1.29301,0 2.1895,2.64526 2.1895,4.44193c0,1.79667 -0.415,4.94091 -1.974,4.94091c-1.4765,-0.01662 -2.33851,-3.01112 -2.33851,-4.85779z" clip-rule="evenodd" fill-rule="evenodd" id="Vector_8"/>
       <path stroke="null" fill="#004899" d="m-194.0501,47.70259l11.01285,0c7.01569,0 12.02457,-6.22185 12.02457,-16.0538c0,-12.16097 -6.15326,-17.01876 -14.1807,-17.01876l-8.85672,0l0,33.07256zm8.69086,-25.03728l0.54733,0c3.16784,0 5.10835,4.27544 5.10835,8.93361c0,4.34206 -2.22244,7.9354 -5.10835,7.9354l-0.54733,0l0,-16.86901z" clip-rule="evenodd" fill-rule="evenodd" id="Vector_9"/>
       <path stroke="null" fill="#004899" d="m-124.78587,22.28147l7.29764,0l0,-7.15356l-7.29764,0l0,7.15356zm-0.44787,25.42001l8.17677,0l0,-23.29061l-8.17677,0l0,23.29061z" clip-rule="evenodd" fill-rule="evenodd" id="Vector_10"/>
      </g>
      <path stroke="null" fill="#CE0538" d="m15.31205,25.97629c0.26599,-2.3624 1.17726,-4.54168 2.55401,-6.32172l4.47875,4.52493c-0.33249,0.56572 -0.564,1.16457 -0.713,1.81342l-6.31975,0l0,-0.01662zm4.661,-8.4845c1.692,-1.36407 3.74851,-2.29577 5.98726,-2.62851l0,6.43822c-0.54676,0.16637 -1.0615,0.39923 -1.52575,0.69872l-4.46151,-4.50843zm9.00553,-2.69501c2.538,0.24961 4.84326,1.2477 6.71751,2.77825l-4.46151,4.49168c-0.66375,-0.44911 -1.42601,-0.76522 -2.23876,-0.91496l0,-6.35497l-0.01724,0zm8.80726,4.95753c1.32626,1.78005 2.22275,3.9262 2.4715,6.25523l-6.31975,0c-0.13176,-0.63222 -0.3485,-1.19782 -0.64651,-1.73017l4.49476,-4.52505zm2.43825,9.28297c-0.29924,2.32902 -1.22775,4.47506 -2.6045,6.22185l-4.47752,-4.5083c0.33126,-0.53235 0.58001,-1.1147 0.72901,-1.73017l6.353,0l0,0.01662zm-4.74351,8.36801c-1.825,1.43069 -4.04651,2.36227 -6.46876,2.61176l0,-6.35497c0.697,-0.14974 1.36074,-0.39923 1.974,-0.76522l4.49476,4.50843zm-9.48702,2.54526c-2.17226,-0.31611 -4.14626,-1.1812 -5.82225,-2.46214l4.49476,-4.52505c0.415,0.23299 0.846,0.41598 1.31025,0.56572l0,6.42147l0.01724,0zm-7.97727,-4.57493c-1.42724,-1.78005 -2.38899,-3.97608 -2.687,-6.3716l6.33576,0c0.16501,0.66547 0.44701,1.29757 0.81275,1.86317l-4.46151,4.50843zm-9.33801,-5.78937l-4.49476,0c-1.39276,0 -2.52076,-0.94821 -2.52076,-2.11278c0,-1.16445 1.128,-2.11278 2.52076,-2.11278l4.47752,0c0.38175,-3.75971 1.841,-7.18681 4.04775,-9.99831l-3.0355,-3.06099c-0.979,-0.99817 -1.11076,-2.46215 -0.29801,-3.29396c0.81152,-0.8318 2.27201,-0.68208 3.24977,0.29945l3.01949,3.04438c2.78552,-2.29575 6.23602,-3.82627 10.01777,-4.24218l0,-4.10911c0,-1.39744 0.91127,-2.54533 2.07251,-2.54533c1.16125,0 2.08975,1.13125 2.08975,2.54533l0,4.10911c3.815,0.39927 7.29752,1.94643 10.11752,4.2588l2.80276,-2.84474c0.979,-0.99816 2.43825,-1.13125 3.251,-0.29945c0.81275,0.83181 0.67976,2.29579 -0.29924,3.29393l-2.83601,2.86138c2.1895,2.8115 3.64876,6.2386 4.03051,9.98169l3.69925,0c1.39276,0 2.52076,0.94833 2.52076,2.11278c0,1.16457 -1.128,2.11278 -2.52076,2.11278l-3.71526,0c-0.415,3.79308 -1.92474,7.26993 -4.19675,10.08144l2.7535,2.79488c0.979,0.99821 1.128,2.46214 0.29801,3.29398c-0.81275,0.81521 -2.27201,0.68209 -3.24977,-0.29949l-2.77074,-2.8115c-2.76951,2.21265 -6.16952,3.67659 -9.88477,4.07595l0,4.14232c0,1.39744 -0.96176,2.54539 -2.10576,2.54539c-1.14524,0 -2.08975,-1.13132 -2.08975,-2.54539l0,-4.15907c-3.666,-0.41586 -7.01675,-1.86317 -9.75301,-4.0592l-2.98501,2.99449c-0.979,0.99821 -2.43825,1.13132 -3.251,0.29949c-0.81275,-0.81509 -0.67976,-2.29577 0.29801,-3.29398l2.95299,-2.97787c-2.28925,-2.8115 -3.79776,-6.28835 -4.21276,-10.08144z" clip-rule="evenodd" fill-rule="evenodd" id="Vector_11"/>
     </g>
     <g stroke="null" id="Group 2638">
      <path stroke="null" fill="#004899" d="m43.51081,61.64964c-0.36081,-0.36069 -0.94575,-0.36069 -1.30656,0c-0.35958,0.36069 -0.35958,0.9455 0,1.30619l3.64137,3.64063l-3.64137,3.64075c-0.35958,0.36069 -0.35958,0.94538 0,1.30607c0.36081,0.36069 0.94575,0.36069 1.30656,0l4.29403,-4.29379c0.36081,-0.36057 0.36081,-0.94538 0,-1.30607l-4.29403,-4.29379z" id="Union"/>
      <g stroke="null" id="İlerisi Deniz">
       <path stroke="null" fill="#004899" d="m35.43256,68.8532l0,1.72894l-7.09187,0l0,-1.37675l4.29034,-4.88266l-4.17828,0l0,-1.72894l6.7877,0l0,1.40877l-4.29034,4.85064l4.48244,0z" id="Vector_12"/>
       <path stroke="null" fill="#004899" d="m24.4949,59.32936c0.24506,-0.25614 0.54922,-0.38421 0.9125,-0.38421c0.36327,0 0.66744,0.12807 0.9125,0.38421c0.24506,0.24543 0.3682,0.53888 0.3682,0.88048c0,0.35219 -0.12314,0.64564 -0.3682,0.88048c-0.24506,0.23471 -0.54922,0.35219 -0.9125,0.35219c-0.37313,0 -0.68345,-0.11748 -0.92851,-0.35219c-0.23521,-0.23484 -0.35219,-0.52829 -0.35219,-0.88048c0,-0.3416 0.12314,-0.63505 0.3682,-0.88048zm1.96907,11.25414l-2.11315,0l0,-7.98836l2.11315,0l0,7.98836z" id="Vector_13"/>
       <path stroke="null" fill="#004899" d="m18.99775,62.35329c0.96052,0 1.73387,0.31476 2.32127,0.94451c0.5874,0.61892 0.88048,1.42478 0.88048,2.41732l0,4.86665l-2.11315,0l0,-4.41841c0,-0.56572 -0.149,-1.01926 -0.44824,-1.36074c-0.28816,-0.3416 -0.67729,-0.51228 -1.16864,-0.51228c-1.3238,0 -1.98508,0.91779 -1.98508,2.7535l0,3.53793l-2.11315,0l0,-7.98836l2.11315,0l0,0.72039c0.64035,-0.64035 1.47773,-0.96052 2.51337,-0.96052z" id="Vector_14"/>
       <path stroke="null" fill="#004899" d="m12.76789,66.43551l0,0.72039l-6.08332,0c0.1059,0.5656 0.34111,1.01914 0.70438,1.36074c0.37313,0.33076 0.80536,0.49627 1.29671,0.49627c0.90634,0 1.56886,-0.35219 1.98508,-1.05658l1.88903,0.40022c-0.34234,0.81103 -0.84846,1.42478 -1.52083,1.841c-0.67237,0.41623 -1.45679,0.62434 -2.35328,0.62434c-1.15263,0 -2.12424,-0.39492 -2.91359,-1.18465c-0.79058,-0.78985 -1.18465,-1.80369 -1.18465,-3.04166c0,-1.23809 0.39406,-2.25194 1.18465,-3.04166c0.80044,-0.80044 1.78189,-1.20065 2.94561,-1.20065c1.08859,0 2.02203,0.38421 2.80153,1.15263c0.78935,0.75771 1.20558,1.73424 1.24868,2.9296zm-4.05021,-2.24122c-0.43839,0 -0.84846,0.12807 -1.23267,0.38421c-0.37436,0.25614 -0.61941,0.61892 -0.7364,1.08859l3.8581,0c-0.12807,-0.49098 -0.36327,-0.85918 -0.70438,-1.1046c-0.34234,-0.24555 -0.7364,-0.3682 -1.18465,-0.3682z" id="Vector_15"/>
       <path stroke="null" fill="#004899" d="m-6.37116,59.85667l3.95416,0c1.77204,0 3.19682,0.49627 4.27433,1.48881c1.07874,0.98183 1.61688,2.27324 1.61688,3.87411c0,1.60087 -0.53814,2.89758 -1.61688,3.89012c-1.07751,0.98183 -2.50229,1.4728 -4.27433,1.4728l-3.95416,0l0,-10.72585zm2.17719,8.75677l1.77697,0c1.12061,0 2.0171,-0.30417 2.68947,-0.9125c0.67237,-0.61905 1.00855,-1.44608 1.00855,-2.48135c0,-1.03527 -0.33618,-1.85701 -1.00855,-2.46534c-0.67237,-0.61905 -1.56886,-0.92851 -2.68947,-0.92851l-1.77697,0l0,6.7877z" id="Vector_16"/>
       <path stroke="null" fill="#004899" d="m-14.59348,59.32936c0.24506,-0.25614 0.54922,-0.38421 0.9125,-0.38421c0.36204,0 0.66621,0.12807 0.9125,0.38421c0.24506,0.24543 0.3682,0.53888 0.3682,0.88048c0,0.35219 -0.12314,0.64564 -0.3682,0.88048c-0.24629,0.23471 -0.55045,0.35219 -0.9125,0.35219c-0.37436,0 -0.68345,-0.11748 -0.92851,-0.35219c-0.23521,-0.23484 -0.35219,-0.52829 -0.35219,-0.88048c0,-0.3416 0.12191,-0.63505 0.3682,-0.88048zm1.96907,11.25414l-2.11315,0l0,-7.98836l2.11315,0l0,7.98836z" id="Vector_17"/>
       <path stroke="null" fill="#004899" d="m-23.57192,68.46862l2.12916,-0.43224c0.09605,0.72569 0.64527,1.08859 1.64767,1.08859c0.38421,0 0.68961,-0.07475 0.91373,-0.22412c0.22289,-0.1495 0.33495,-0.3416 0.33495,-0.57631c0,-0.35219 -0.29308,-0.59232 -0.87925,-0.72039l-1.63289,-0.33618c-0.72655,-0.1495 -1.28686,-0.42165 -1.68092,-0.81645c-0.38421,-0.39492 -0.57631,-0.88048 -0.57631,-1.45679c0,-0.77913 0.29308,-1.41419 0.88048,-1.90504c0.59725,-0.49098 1.39276,-0.7364 2.3853,-0.7364c0.92851,0 1.70185,0.2187 2.32003,0.65636c0.6305,0.43753 1.01471,1.00855 1.15263,1.71293l-2.0171,0.40022c-0.04187,-0.33089 -0.20196,-0.59774 -0.48026,-0.80044c-0.26599,-0.20282 -0.61326,-0.30417 -1.03934,-0.30417c-0.38421,0 -0.66252,0.08004 -0.83369,0.24013c-0.16994,0.14937 -0.25614,0.33076 -0.25614,0.5443c0,0.34148 0.24136,0.5656 0.72162,0.67237l1.90381,0.41623c0.68345,0.14937 1.20065,0.42682 1.55285,0.83245c0.36327,0.3948 0.54553,0.86977 0.54553,1.42478c0,0.86447 -0.32017,1.52612 -0.96052,1.98508c-0.6305,0.45883 -1.47896,0.68838 -2.54539,0.68838c-0.95067,0 -1.76219,-0.1921 -2.43456,-0.57631c-0.67237,-0.39492 -1.05658,-0.98725 -1.1514,-1.77697z" id="Vector_18"/>
       <path stroke="null" fill="#004899" d="m-27.2256,59.32936c0.24506,-0.25614 0.54922,-0.38421 0.9125,-0.38421c0.36327,0 0.66744,0.12807 0.9125,0.38421c0.24506,0.24543 0.3682,0.53888 0.3682,0.88048c0,0.35219 -0.12314,0.64564 -0.3682,0.88048c-0.24506,0.23471 -0.54922,0.35219 -0.9125,0.35219c-0.37313,0 -0.68345,-0.11748 -0.92851,-0.35219c-0.23521,-0.23484 -0.35219,-0.52829 -0.35219,-0.88048c0,-0.3416 0.12314,-0.63505 0.3682,-0.88048zm1.96907,11.25414l-2.11315,0l0,-7.98836l2.11315,0l0,7.98836z" id="Vector_19"/>
       <path stroke="null" fill="#004899" d="m-29.35969,62.48308c0.24629,0 0.43224,0.02143 0.56031,0.06403l-0.11206,2.03311l-0.46425,0c-1.89888,0 -2.84955,1.14204 -2.84955,3.42587l0,2.57741l-2.11315,0l0,-7.98836l2.11315,0l0,1.45679c0.72655,-1.04586 1.68092,-1.56886 2.86556,-1.56886z" id="Vector_20"/>
       <path stroke="null" fill="#004899" d="m-35.95159,66.43551l0,0.72039l-6.08332,0c0.10714,0.5656 0.34234,1.01914 0.70438,1.36074c0.37436,0.33076 0.80659,0.49627 1.29671,0.49627c0.90757,0 1.56886,-0.35219 1.98508,-1.05658l1.88903,0.40022c-0.34111,0.81103 -0.84846,1.42478 -1.52083,1.841c-0.67237,0.41623 -1.45679,0.62434 -2.35328,0.62434c-1.15263,0 -2.123,-0.39492 -2.91359,-1.18465c-0.78935,-0.78985 -1.18465,-1.80369 -1.18465,-3.04166c0,-1.23809 0.39529,-2.25194 1.18465,-3.04166c0.80044,-0.80044 1.78313,-1.20065 2.94561,-1.20065c1.08859,0 2.02326,0.38421 2.80153,1.15263c0.79058,0.75771 1.20681,1.73424 1.24868,2.9296zm-4.05021,-2.24122c-0.43716,0 -0.84846,0.12807 -1.23267,0.38421c-0.37313,0.25614 -0.61818,0.61892 -0.7364,1.08859l3.8581,0c-0.12807,-0.49098 -0.36204,-0.85918 -0.70438,-1.1046c-0.34111,-0.24555 -0.7364,-0.3682 -1.18465,-0.3682z" id="Vector_21"/>
       <path stroke="null" fill="#004899" d="m-45.73169,70.58202l-2.11315,0l0,-11.52628l2.11315,0l0,11.52628z" id="Vector_22"/>
       <path stroke="null" fill="#004899" d="m-52.08223,56.62278c0.23521,-0.23484 0.52829,-0.35219 0.88048,-0.35219c0.35219,0 0.64527,0.11736 0.88048,0.35219c0.24506,0.23484 0.3682,0.51757 0.3682,0.84846c0,0.35219 -0.11699,0.64564 -0.35219,0.88048c-0.23521,0.22412 -0.53321,0.33618 -0.89649,0.33618c-0.36327,0 -0.66128,-0.11206 -0.89649,-0.33618c-0.22412,-0.23484 -0.33618,-0.52829 -0.33618,-0.88048c0,-0.33089 0.11699,-0.61363 0.35219,-0.84846zm1.98508,13.95961l-2.17719,0l0,-10.72585l2.17719,0l0,10.72585z" id="Vector_23"/>
      </g>
     </g>
    </g>
   </g>
  </g>
 </g>
</svg>