<svg xmlns="http://www.w3.org/2000/svg" version="1.0" width="55" height="55" viewBox="0 0 85 60" preserveAspectRatio="xMidYMid meet">
<metadata>
Created by potrace 1.10, written by Peter Selinger 2001-2011
</metadata>
<g transform="translate(0.000000,56.000000) scale(0.050000,-0.050000)" fill="#07a62f" stroke="none">

<path d="M670 949 c-44 -28 -208 -123 -365 -212 -157 -89 -289 -168 -294 -175 -4 -7 106 -79 246 -158 139 -80 293 -169 342 -199 89 -54 90 -50 9 69 -98 146 -78 304 60 466 158 184 158 306 2 209z"/>
<path d="M840 924 c0 -78 -20 -116 -147 -273 -67 -82 -89 -210 -52 -301 24 -61 27 -60 48 35 6 31 57 105 111 166 93 101 113 152 101 244 -1 14 7 25 18 25 76 0 12 -209 -101 -334 -87 -95 -108 -156 -91 -260 17 -106 53 -132 53 -39 0 64 16 90 108 182 172 170 200 365 79 537 -81 115 -127 122 -127 18z"/>
<path d="M1068 870 c88 -218 43 -415 -128 -553 -84 -67 -116 -133 -87 -183 14 -24 73 3 307 141 160 93 333 192 385 220 85 44 123 85 79 85 -17 0 -411 223 -513 291 -59 39 -59 39 -43 -1z"/>















</g>
</svg>