<svg xmlns="http://www.w3.org/2000/svg" width="450" height="450" fill="none" viewBox="102 87 269 366"><path d="M107.228 453.033C107.288 452.232 107.328 451.42 107.418 450.619C107.479 450.072 107.559 449.534 107.63 448.987C107.72 448.264 107.8 447.541 107.911 446.818C107.991 446.28 108.102 445.743 108.202 445.215C108.333 444.501 108.443 443.788 108.594 443.075C108.695 442.586 108.825 442.107 108.936 441.619C109.106 440.866 109.267 440.114 109.468 439.381C109.569 438.99 109.689 438.599 109.8 438.208C110.031 437.377 110.262 436.547 110.523 435.726C110.604 435.452 110.704 435.198 110.795 434.924C111.106 433.986 111.417 433.058 111.759 432.139C111.809 432.002 111.87 431.875 111.92 431.748C122.741 403.193 150.472 382.583 183.267 381.42C185.105 340.444 219.83 307.803 262.391 307.803C218.654 307.803 183.176 273.316 183.176 230.776C183.176 229.643 183.217 228.529 183.267 227.405C150.1 228.978 122.661 249.432 111.92 277.694C111.87 277.831 111.809 277.958 111.759 278.085C111.417 279.004 111.106 279.942 110.795 280.87C110.704 281.134 110.604 281.398 110.523 281.672C110.262 282.492 110.031 283.323 109.8 284.154C109.689 284.545 109.569 284.926 109.468 285.327C109.277 286.069 109.106 286.822 108.936 287.564C108.825 288.053 108.705 288.532 108.594 289.021C108.443 289.724 108.333 290.447 108.202 291.161C108.112 291.698 108.001 292.226 107.911 292.763C107.8 293.477 107.72 294.21 107.63 294.933C107.559 295.48 107.479 296.018 107.418 296.565C107.338 297.366 107.288 298.168 107.228 298.979C107.197 299.458 107.147 299.936 107.117 300.415C107.047 301.705 107.017 303.005 107.017 304.315L107.017 458.369C107.017 457.059 107.047 455.759 107.117 454.469C107.137 453.991 107.197 453.512 107.228 453.033Z" fill="#0A66B5"/><path d="M291.782 381.351C291.782 381.351 291.792 381.351 291.782 381.351C334.354 381.351 369.078 348.711 370.906 307.734C369.932 307.774 368.947 307.803 367.962 307.803L262.364 307.803C219.802 307.803 185.078 340.443 183.24 381.419C184.214 381.38 185.199 381.351 186.184 381.351L291.782 381.351Z" fill="#0A66B5"/><path d="M367.973 307.804C368.958 307.794 369.943 307.745 370.917 307.696C370.968 306.582 371.008 305.458 371.008 304.325C371.008 261.785 335.53 227.298 291.793 227.298L186.195 227.298C185.21 227.308 184.225 227.356 183.251 227.405C183.201 228.519 183.16 229.643 183.16 230.777C183.16 273.317 218.638 307.804 262.375 307.804L367.973 307.804Z" fill="#0A66B5"/><path d="M108.586 289.02C108.436 289.724 108.325 290.447 108.195 291.16C108.325 290.447 108.436 289.733 108.586 289.02Z" fill="#0A66B5"/><path d="M107.906 292.773C107.796 293.486 107.715 294.219 107.625 294.942C107.715 294.219 107.796 293.486 107.906 292.773Z" fill="#0A66B5"/><path d="M109.453 285.326C109.263 286.069 109.092 286.822 108.922 287.564C109.092 286.822 109.263 286.069 109.453 285.326Z" fill="#0A66B5"/><path d="M107.422 296.576C107.342 297.377 107.292 298.179 107.232 298.99C107.292 298.179 107.332 297.368 107.422 296.576Z" fill="#0A66B5"/><path d="M111.887 277.703C122.628 249.431 150.068 228.987 183.234 227.413C183.234 227.403 183.234 227.384 183.234 227.374C150.439 228.537 122.718 249.138 111.887 277.703Z" fill="#0A66B5"/><path d="M107.017 304.324C107.017 303.014 107.047 301.715 107.117 300.425C107.047 301.715 107.017 303.014 107.017 304.324Z" fill="#0A66B5"/><path d="M110.508 281.682C110.247 282.503 110.016 283.334 109.784 284.164C110.016 283.334 110.247 282.503 110.508 281.682Z" fill="#0A66B5"/><path d="M111.742 278.095C111.401 279.014 111.089 279.952 110.778 280.88C111.079 279.952 111.401 279.014 111.742 278.095Z" fill="#0A66B5"/><path d="M102.688 257.164C102.743 256.571 102.783 255.97 102.86 255.376C102.911 254.971 102.977 254.572 103.035 254.167C103.111 253.631 103.179 253.095 103.269 252.558C103.335 252.16 103.423 251.761 103.503 251.369C103.607 250.84 103.697 250.311 103.816 249.781C103.896 249.418 103.997 249.062 104.084 248.699C104.218 248.14 104.345 247.582 104.501 247.037C104.579 246.746 104.671 246.456 104.757 246.165C104.936 245.548 105.115 244.93 105.315 244.319C105.377 244.116 105.453 243.926 105.523 243.723C105.761 243.025 105.999 242.334 106.259 241.65C106.298 241.548 106.343 241.453 106.381 241.358C114.61 220.09 134.955 204.458 158.69 203.135C160.597 172.808 186.17 148.182 216.95 147.582C185.32 148.198 160.148 123.195 160.747 91.7378C160.763 90.8995 160.808 90.0751 160.86 89.2433C136.852 90.8743 116.719 106.386 108.553 127.437C108.514 127.539 108.469 127.634 108.431 127.729C108.171 128.413 107.932 129.111 107.694 129.802C107.625 129.998 107.549 130.195 107.487 130.398C107.286 131.009 107.107 131.627 106.928 132.244C106.843 132.535 106.75 132.818 106.672 133.116C106.523 133.668 106.389 134.227 106.255 134.778C106.168 135.141 106.075 135.497 105.988 135.86C105.869 136.382 105.779 136.919 105.674 137.448C105.601 137.847 105.514 138.239 105.441 138.637C105.351 139.166 105.282 139.71 105.207 140.246C105.148 140.651 105.083 141.05 105.031 141.455C104.962 142.049 104.914 142.642 104.859 143.243C104.831 143.598 104.788 143.952 104.759 144.307C104.69 145.262 104.65 146.224 104.631 147.192L102.46 261.113C102.478 260.144 102.519 259.183 102.588 258.228C102.609 257.874 102.659 257.519 102.688 257.164Z" fill="#F99400"/><path d="M237.176 201.555C237.176 201.555 237.183 201.555 237.176 201.555C267.964 200.955 293.537 176.328 295.437 146.001C294.732 146.044 294.019 146.079 293.307 146.093L216.937 147.582C186.156 148.182 160.583 172.808 158.676 203.135C159.381 203.093 160.094 203.057 160.806 203.043L237.176 201.555Z" fill="#F99400"/><path d="M293.313 146.094C294.026 146.073 294.738 146.023 295.444 145.973C295.496 145.148 295.541 144.317 295.557 143.478C296.156 112.021 270.985 87.0181 239.354 87.6345L162.984 89.123C162.271 89.1441 161.559 89.1941 160.853 89.2439C160.801 90.0685 160.756 90.9001 160.74 91.7384C160.141 123.196 185.312 148.199 216.943 147.582L293.313 146.094Z" fill="#F99400"/><path d="M105.983 135.86C105.865 136.382 105.775 136.918 105.67 137.448C105.775 136.918 105.864 136.389 105.983 135.86Z" fill="#F99400"/><path d="M105.437 138.644C105.347 139.173 105.278 139.717 105.203 140.253C105.278 139.717 105.347 139.173 105.437 138.644Z" fill="#F99400"/><path d="M106.657 133.116C106.508 133.668 106.374 134.227 106.241 134.778C106.374 134.227 106.508 133.668 106.657 133.116Z" fill="#F99400"/><path d="M105.034 141.464C104.965 142.057 104.917 142.651 104.863 143.251C104.917 142.651 104.958 142.05 105.034 141.464Z" fill="#F99400"/><path d="M108.526 127.444C116.692 106.386 136.825 90.8811 160.834 89.2501C160.834 89.2429 160.834 89.2284 160.834 89.2212C137.1 90.5434 116.762 106.168 108.526 127.444Z" fill="#F99400"/><path d="M104.631 147.199C104.649 146.23 104.689 145.269 104.758 144.314C104.689 145.269 104.649 146.23 104.631 147.199Z" fill="#F99400"/><path d="M107.472 130.406C107.272 131.017 107.093 131.635 106.914 132.252C107.093 131.635 107.272 131.017 107.472 130.406Z" fill="#F99400"/><path d="M108.414 127.736C108.154 128.421 107.916 129.119 107.677 129.81C107.909 129.119 108.154 128.421 108.414 127.736Z" fill="#F99400"/></svg>