<svg width="40" height="40" viewBox="0 0 40 40" fill="none" xmlns="http://www.w3.org/2000/svg">
<path fill-rule="evenodd" clip-rule="evenodd" d="M40 19.9996C40 31.0454 31.046 40 19.9996 40C8.95397 40 0 31.0454 0 19.9996C0 8.95541 8.95397 5.94636e-06 19.9996 5.94636e-06C25.2944 -0.00408328 30.3761 2.10105 34.1422 5.85823C37.8865 9.59333 39.9959 14.6852 40 19.9996Z" fill="#3C46FA"/>
<path fill-rule="evenodd" clip-rule="evenodd" d="M19.4318 32.2557C14.7381 32.0332 10.5839 29.152 8.73124 24.8346C6.87855 20.5163 7.65624 15.507 10.7273 11.9666C11.027 11.6223 11.5471 11.5879 11.889 11.8913C11.8995 11.9003 11.91 11.9101 11.9198 11.92L14.0446 14.0447C14.3403 14.3359 14.3646 14.8053 14.1014 15.1259C11.9538 17.7177 11.761 21.4307 13.6291 24.2351C15.4971 27.0436 18.9838 28.2981 22.2128 27.3224C25.441 26.3476 27.651 23.3722 27.6518 19.9995C27.6469 18.1765 26.9843 16.4173 25.7878 15.0515C25.5067 14.7432 25.5067 14.2688 25.7878 13.9605L27.9588 11.8079C28.2675 11.4783 28.7827 11.4636 29.11 11.7752C29.1213 11.7858 29.1318 11.7965 29.1424 11.8079C32.4475 15.4735 33.2212 20.7969 31.0979 25.2664C28.9755 29.7359 24.3741 32.492 19.4318 32.2549V32.2557Z" fill="white"/>
</svg>
