<svg xmlns="http://www.w3.org/2000/svg" xmlns:xlink="http://www.w3.org/1999/xlink" version="1.1" id="Layer_1" x="0" y="0" viewBox="0 0 45 45" xml:space="preserve"><style>.st3{fill:#aa55a1}.st7{fill:#d3b6d7}</style><symbol id="EN_PARA_LOGO_CMYK_2" viewBox="-193.4 -54.5 386.3 128.6"><path id="XMLID_66_" d="M-192.4 9.8c2.9 15.9 11.6 29.8 23.9 39.4 9.5 12.3 23.4 21 39.3 23.9-3.7.7-7.6 1-11.5 1-14.8 0-28.4-5-39.3-13.5-8.4-10.9-13.5-24.5-13.5-39.4.1-3.8.4-7.7 1.1-11.4z" fill="#f99d1c"/><path id="XMLID_65_" d="M-129.2-53.5c-15.9 2.9-29.8 11.6-39.3 23.9-12.3 9.5-21 23.4-23.9 39.4-.7-3.7-1-7.6-1-11.5 0-14.8 5-28.5 13.5-39.4 10.9-8.4 24.5-13.5 39.3-13.5 3.9.1 7.7.5 11.4 1.1z" fill="#00aeef"/><path id="XMLID_64_" d="M-168.5 49.2c-12.3-9.5-21-23.4-23.9-39.4 2.9-15.9 11.6-29.8 23.9-39.4C-176.9-18.7-182-5-182 9.8c0 14.8 5.1 28.5 13.5 39.4z" fill="#c7eafb"/><path id="XMLID_63_" class="st3" d="M-129.2 73.1c15.9-2.9 29.8-11.6 39.3-23.9 12.3-9.5 21-23.4 23.9-39.4.7 3.7 1 7.6 1 11.5 0 14.8-5 28.5-13.5 39.4-10.9 8.4-24.5 13.5-39.3 13.5-3.8-.1-7.7-.4-11.4-1.1z"/><path id="XMLID_62_" d="M-168.5 49.2c10.9 8.4 24.5 13.5 39.3 13.5 14.8 0 28.5-5 39.3-13.5-9.5 12.3-23.4 21-39.3 23.9-15.9-2.9-29.8-11.6-39.3-23.9z" fill="#ffce7b"/><path id="XMLID_61_" d="M-66 9.8C-68.8-6.1-77.6-20-89.8-29.5c-9.5-12.3-23.4-21-39.3-23.9 3.7-.7 7.6-1 11.5-1 14.8 0 28.5 5 39.3 13.5C-69.9-30-64.8-16.4-64.8-1.5c-.1 3.8-.5 7.6-1.2 11.3z" fill="#9aca3c"/><path id="XMLID_60_" d="M-168.5-29.5c9.5-12.3 23.4-21 39.3-23.9 15.9 2.9 29.8 11.6 39.3 23.9C-100.7-38-114.4-43-129.2-43c-14.8 0-28.4 5-39.3 13.5z" fill="#c6de89"/><path id="XMLID_59_" class="st7" d="M-89.8-29.5C-77.6-20-68.8-6.1-66 9.8c-2.9 15.9-11.6 29.8-23.9 39.4 8.4-10.9 13.5-24.5 13.5-39.4 0-14.8-5-28.5-13.4-39.3z"/><path id="XMLID_58_" d="M-168.5 49.2C-176.9 38.3-182 24.6-182 9.8c0-14.8 5-28.5 13.5-39.4C-157.6-38-144-43-129.2-43c14.8 0 28.5 5 39.3 13.5C-81.4-18.7-76.4-5-76.4 9.8c0 14.8-5 28.5-13.5 39.4-10.9 8.4-24.5 13.5-39.3 13.5-14.8-.1-28.4-5.1-39.3-13.5z" fill="#fff"/><path id="XMLID_54_" class="st3" d="M-125.1 31h6.6c1.5 0 2-.6 2-2.1l.2-2.1c2.4 2 6.8 4.8 13.7 4.8 7.9 0 12.4-4.8 12.4-11.5V-9.6c0-1.5-.6-2.2-2.1-2.2h-6.9c-1.5 0-2.2.7-2.2 2.2v26.8c0 3.1-.9 4.6-4.6 4.5-4.3 0-8.2-2.5-9.9-3.9V-9.7c0-1.5-.5-2.2-2-2.2h-7.1c-1.6 0-2.1.7-2.1 2.2v38.4c-.1 1.7.4 2.3 2 2.3zm-9.9-12V9.1c0-1.4-.5-2-1.9-2h-22V.8c0-3 1.6-4.7 6.7-4.7s6.7 1.7 6.7 4.7v.4c0 1.5.6 2.1 2.1 2.1h6c1.5 0 2.1-.7 2.1-2.1V.3c0-7.7-4.5-12.7-17.1-12.7-12.6 0-17.6 5-17.6 12.7v18.8c0 7.6 5.1 12.6 17.7 12.6 12.7-.1 17.3-5 17.3-12.7zm-23.9-.6v-3.8h13.4v3.8c0 3-1.9 4.7-6.7 4.7-4.9.1-6.7-1.7-6.7-4.7z"/></symbol><use xlink:href="#EN_PARA_LOGO_CMYK_2" width="386.3" height="128.6" id="XMLID_1_" x="-193.4" y="-54.5" transform="matrix(.3288 0 0 -.3288 63.597 25.729)" overflow="visible"/><script xmlns=""/><link xmlns=""/></svg>