<svg width="32" height="32" viewBox="0 0 32 32" fill="none" xmlns="http://www.w3.org/2000/svg">
<path d="M13.992 0C8.6429 0 3.90698 2.62205 1 6.65013L3.94457 8.76989C6.19214 5.65429 9.85467 3.62698 13.992 3.62698C20.2647 3.62698 25.4463 8.28909 26.2594 14.3361H15.9311L17.1798 17.6639C17.3396 18.0799 17.4997 18.5279 17.4997 18.944C17.4997 19.8081 16.9235 20.0959 15.9311 20.0959H12.7617V11.9041H18.5243L19.773 8.57593H9.17574V23.4237H16.2832C19.1005 23.4237 21.1178 22.1761 21.1178 19.5839C21.1178 18.9953 20.9573 18.231 20.7957 17.6639H26.2594C25.4463 23.7109 20.2647 28.373 13.992 28.373C9.85467 28.373 6.19214 26.3457 3.94457 23.2301L1 25.3495C3.90698 29.378 8.6429 32 13.992 32C22.8329 32 30 24.8363 30 15.9998C30 7.16332 22.8329 0 13.992 0Z" fill="#0050C8"/>
</svg>
