<svg width="40" height="40" viewBox="0 0 40 40" fill="none" xmlns="http://www.w3.org/2000/svg">
<path fill-rule="evenodd" clip-rule="evenodd" d="M14.7992 7.91016C13.8891 8.61912 13.2098 9.36106 12.7844 9.95791C11.6401 11.5539 9.8331 15.2274 11.4885 18.5414C11.6434 18.8546 11.8083 19.1349 11.9798 19.3855C9.50995 19.6955 6.76311 20.4308 4.80439 22.0961C1.79375 24.655 -0.0132863 27.6062 0.257111 31.6721C0.527507 35.7379 3.78216 38.7782 8.47782 39.3817C13.1768 39.9851 17.0019 38.2078 19.4718 35.9786C21.9416 33.7495 23.5079 30.7389 22.545 28.2394C21.5822 25.7398 18.4198 25.3178 16.0094 25.6178C13.5989 25.9179 10.9806 27.6062 9.35167 29.2913C7.72599 30.9763 6.94118 32.7833 6.97086 32.9647C7.00054 33.1461 7.27093 33.6275 7.48197 33.1461C7.69301 32.6646 8.47453 31.5798 9.25933 30.5872C10.0408 29.5946 15.0432 25.2881 18.4165 26.9138C21.7899 28.5394 19.5014 33.9012 15.7357 36.8228C11.9699 39.7444 8.41847 38.8706 7.21158 38.0561C6.00798 37.2416 3.14574 34.4717 4.31965 29.3836C5.49357 24.2955 7.66334 22.4885 9.01862 21.3739C9.64515 20.8595 11.0037 20.3154 12.4184 19.9626C13.9847 21.7696 15.8775 21.5652 16.6985 21.4663C17.6911 21.3443 18.4165 19.1778 15.5543 19.1778C14.8948 19.1778 14.1298 19.1976 13.3021 19.2569C12.4546 17.7928 12.4348 16.2034 13.5098 13.8754C13.9088 13.0081 14.6541 11.8408 15.8643 10.5911L14.7992 7.91016Z" fill="#31509A"/>
<path d="M14.1729 0.5H22.3045L37.5457 39.4997H29.414L14.1729 0.5Z" fill="#31509A"/>
</svg>
