<svg width="32" height="32" viewBox="0 0 32 32" fill="none" xmlns="http://www.w3.org/2000/svg">
<g clip-path="url(#clip0_2527_299)">
<path d="M0 15.0227C0 9.76427 0 7.13507 1.02337 5.12661C1.92354 3.35991 3.35991 1.92354 5.12661 1.02337C7.13507 0 9.76427 0 15.0227 0H16.9773C22.2357 0 24.8649 0 26.8734 1.02337C28.6401 1.92354 30.0765 3.35991 30.9767 5.12661C32 7.13507 32 9.76427 32 15.0227V16.9773C32 22.2357 32 24.8649 30.9767 26.8734C30.0765 28.6401 28.6401 30.0765 26.8734 30.9767C24.8649 32 22.2357 32 16.9773 32H15.0227C9.76427 32 7.13507 32 5.12661 30.9767C3.35991 30.0765 1.92354 28.6401 1.02337 26.8734C0 24.8649 0 22.2357 0 16.9773V15.0227Z" fill="url(#paint0_linear_2527_299)"/>
<path d="M24.2112 11.2918C23.0651 11.2918 22.0301 11.6384 21.1464 12.2316V6.81738H18.7018V16.8024C18.7018 19.8402 21.1733 22.2849 24.1977 22.2849C27.2222 22.2849 29.7218 19.8548 29.7218 16.7743C29.7218 13.6937 27.277 11.2918 24.2112 11.2918ZM13.1167 17.5078L10.8795 11.6799H9.1671L6.91644 17.5078L4.66584 11.6799H1.99902L5.93518 21.9273H7.64757L10.0092 15.8235L12.3844 21.9273H14.0968L18.0195 11.6799H15.3673L13.1167 17.5078ZM24.1989 19.8414C22.5415 19.8414 21.1464 18.516 21.1464 16.789C21.1464 15.0619 22.4585 13.7511 24.2124 13.7511C25.9662 13.7511 27.2783 15.118 27.2783 16.789C27.2783 18.4598 25.8832 19.8414 24.1989 19.8414Z" fill="white"/>
</g>
<defs>
<linearGradient id="paint0_linear_2527_299" x1="10.7637" y1="34.7637" x2="30.4" y2="2.03637" gradientUnits="userSpaceOnUse">
<stop stop-color="#6F01FB"/>
<stop offset="1" stop-color="#FF49D7"/>
</linearGradient>
<clipPath id="clip0_2527_299">
<rect width="32" height="32" fill="white"/>
</clipPath>
</defs>
</svg>
