<?xml version="1.0" encoding="UTF-8"?>
<!DOCTYPE svg PUBLIC "-//W3C//DTD SVG 1.1//EN" "http://www.w3.org/Graphics/SVG/1.1/DTD/svg11.dtd">
<svg xmlns="http://www.w3.org/2000/svg" version="1.1" width="512px" height="512px" style="shape-rendering:geometricPrecision; text-rendering:geometricPrecision; image-rendering:optimizeQuality; fill-rule:evenodd; clip-rule:evenodd" xmlns:xlink="http://www.w3.org/1999/xlink">
<g><path style="opacity:1" fill="#366354" d="M -0.5,-0.5 C 170.167,-0.5 340.833,-0.5 511.5,-0.5C 511.5,170.167 511.5,340.833 511.5,511.5C 340.833,511.5 170.167,511.5 -0.5,511.5C -0.5,340.833 -0.5,170.167 -0.5,-0.5 Z"/></g>
<g><path style="opacity:1" fill="#f4f7f6" d="M 158.5,141.5 C 224.168,141.333 289.834,141.5 355.5,142C 359.825,143.156 363.158,145.656 365.5,149.5C 293.169,150.667 220.836,150.833 148.5,150C 150.934,145.972 154.267,143.139 158.5,141.5 Z"/></g>
<g><path style="opacity:1" fill="#fbfcfc" d="M 287.5,199.5 C 287.5,195.833 287.5,192.167 287.5,188.5C 288.833,188.5 290.167,188.5 291.5,188.5C 324.641,190.933 354.641,201.767 381.5,221C 417.578,252.547 422.745,288.38 397,328.5C 376.699,351.079 351.532,365.579 321.5,372C 301.425,376.524 281.091,378.691 260.5,378.5C 260.5,311.167 260.5,243.833 260.5,176.5C 258.167,176.5 255.833,176.5 253.5,176.5C 253.5,243.833 253.5,311.167 253.5,378.5C 216.4,379.781 181.4,371.948 148.5,355C 131.284,344.784 117.784,330.951 108,313.5C 96.6316,287.488 98.965,262.822 115,239.5C 136.36,214.058 163.527,198.224 196.5,192C 204.428,190.247 212.428,189.08 220.5,188.5C 222.5,188.5 224.5,188.5 226.5,188.5C 226.5,192.167 226.5,195.833 226.5,199.5C 224.585,199.216 222.919,199.549 221.5,200.5C 211.46,201.902 202.46,205.735 194.5,212C 156.214,244.201 148.38,282.701 171,327.5C 181.874,344.708 196.707,357.208 215.5,365C 222.655,366.834 228.155,364.667 232,358.5C 232.5,297.834 232.667,237.168 232.5,176.5C 207.498,176.667 182.498,176.5 157.5,176C 149.005,171.842 145.672,165.009 147.5,155.5C 220.5,155.5 293.5,155.5 366.5,155.5C 368.954,165.765 365.287,172.598 355.5,176C 330.836,176.5 306.169,176.667 281.5,176.5C 281.011,237.892 281.511,299.225 283,360.5C 287.228,365.087 292.394,366.587 298.5,365C 344.769,342.962 362.602,306.795 352,256.5C 344.02,233.851 329.52,216.684 308.5,205C 301.601,202.19 294.601,200.356 287.5,199.5 Z"/></g>
<g><path style="opacity:1" fill="#b8c7c2" d="M 220.5,188.5 C 222.607,187.532 224.941,187.198 227.5,187.5C 227.5,191.833 227.5,196.167 227.5,200.5C 225.5,200.5 223.5,200.5 221.5,200.5C 222.919,199.549 224.585,199.216 226.5,199.5C 226.5,195.833 226.5,192.167 226.5,188.5C 224.5,188.5 222.5,188.5 220.5,188.5 Z"/></g>
<g><path style="opacity:1" fill="#9cb1aa" d="M 291.5,188.5 C 290.167,188.5 288.833,188.5 287.5,188.5C 287.5,192.167 287.5,195.833 287.5,199.5C 286.517,195.702 286.183,191.702 286.5,187.5C 288.415,187.216 290.081,187.549 291.5,188.5 Z"/></g>
</svg>
