<svg width="40" height="41" viewBox="0 0 40 41" fill="none" xmlns="http://www.w3.org/2000/svg">
<path d="M40.001 37.3004C35.501 35.9004 28.101 35.0004 19.801 35.0004C11.701 35.0004 4.50098 35.9004 0.000976562 37.2004V40.5004H40.001V37.3004ZM20.001 18.4004C28.101 18.4004 35.701 22.7004 40.001 27.1004V23.8004C35.401 17.2004 28.101 12.9004 20.001 12.9004C11.901 12.9004 4.60098 17.2004 0.000976562 23.8004V27.1004C4.30098 22.6004 11.601 18.7004 20.001 18.4004C20.101 18.4004 20.101 18.4004 20.001 18.4004Z" fill="#E92314"/>
<path d="M20.001 29.3998C28.201 29.3998 35.001 31.1998 40.001 33.6998V30.2998C35.001 26.3998 28.201 23.9998 20.001 23.7998C11.801 24.0998 5.00098 26.5998 0.000976562 30.3998V33.6998C5.10098 31.2998 11.801 29.3998 20.001 29.3998Z" fill="#E92314"/>
<path d="M40.001 20.9C35.501 12.5 28.101 7.1 19.801 7.1C11.701 7.1 4.60098 12.3 0.000976562 20.2V0.5H40.001V20.9Z" fill="black"/>
</svg>
