<svg xmlns="http://www.w3.org/2000/svg" width="32" height="32" viewBox="0 0 32 32" fill="none"><script xmlns=""/>
<rect width="32" height="32" rx="6" fill="#476BF0"/>
<path d="M16.0003 6.11875C13.5694 6.11875 11.3426 6.99486 9.61977 8.44817C8.95575 9.00831 8.21846 9.48855 7.39212 9.75766C7.14671 9.83758 6.90555 9.91946 6.66889 10.0035C6.36797 10.1104 6.2175 10.1638 6.14292 10.1091C6.11737 10.0904 6.09659 10.0638 6.08462 10.0344C6.04967 9.94884 6.13512 9.82068 6.30602 9.56437C8.39187 6.43617 11.9551 4.375 16.0002 4.375C18.8498 4.375 21.4602 5.39783 23.4835 7.09596C24.0685 7.58692 24.3292 8.41147 23.8889 9.03518C23.8063 9.15217 23.7155 9.2642 23.6175 9.37033C23.1482 9.87856 22.5271 10.2589 21.8802 10.5565C20.3961 11.2391 18.4003 11.6453 16.6679 11.9979L16.665 11.9985C16.4995 12.0322 16.3363 12.0654 16.1762 12.0983C11.6455 13.03 8.34051 13.8021 6.15784 14.9545C5.69159 15.2006 5.28715 15.459 4.93926 15.7332C4.70269 15.9196 4.58441 16.0128 4.50297 15.9942C4.47309 15.9874 4.44855 15.9747 4.42569 15.9543C4.36336 15.8987 4.37049 15.7585 4.38475 15.478C4.3908 15.3591 4.39817 15.2387 4.40686 15.1183C4.46473 14.3172 4.9338 13.6085 5.65495 13.2531C5.89586 13.1343 6.14632 13.0199 6.40709 12.9088C8.78118 11.8971 11.9707 11.1828 15.8242 10.3904C15.9753 10.3593 16.1268 10.3284 16.2783 10.2974C18.0683 9.93171 19.8611 9.56542 21.1499 8.9726C21.6179 8.75732 21.9673 8.53426 22.2125 8.30914C20.5136 6.93812 18.3546 6.11875 16.0003 6.11875Z" fill="white"/>
<path d="M6.10503 20.907C5.95482 21.1864 5.87971 21.326 5.80138 21.3432C5.77125 21.3498 5.74715 21.3492 5.71742 21.341C5.64012 21.3196 5.58072 21.1935 5.46193 20.9412C5.45762 20.932 5.45332 20.9228 5.44903 20.9137C5.05805 20.0776 5.20847 19.072 5.92751 18.4925C6.26996 18.2165 6.64859 17.969 7.05639 17.7443C9.1128 16.6111 12.1697 15.9276 15.8267 15.1449C19.5763 14.3424 22.3389 13.7049 24.1181 12.7245C24.9828 12.248 25.546 11.725 25.8788 11.1229C25.8844 11.1129 25.8898 11.1028 25.8953 11.0927C26.0455 10.8134 26.1206 10.6737 26.1989 10.6565C26.2291 10.6498 26.2532 10.6505 26.2829 10.6587C26.3602 10.68 26.4196 10.8062 26.5384 11.0585C26.5428 11.0677 26.5471 11.0769 26.5514 11.0861C26.9423 11.9222 26.792 12.9277 26.073 13.5072C25.7305 13.7833 25.3517 14.0309 24.9438 14.2557C22.8874 15.3889 19.8305 16.0724 16.1734 16.8551C12.4239 17.6575 9.66125 18.2951 7.88209 19.2755C7.01741 19.752 6.45414 20.275 6.12135 20.8771C6.11586 20.887 6.11042 20.897 6.10503 20.907Z" fill="white"/>
<path d="M25.3373 21.9874C25.6383 21.8801 25.7888 21.8265 25.8634 21.8812C25.889 21.8999 25.9098 21.9265 25.9218 21.9558C25.9568 22.0414 25.8715 22.1696 25.7007 22.4262C23.6158 25.5597 20.0495 27.625 16.0002 27.625C13.1444 27.625 10.5288 26.5977 8.50365 24.8928C7.91684 24.3988 7.65856 23.569 8.10534 22.9458C8.1843 22.8357 8.27053 22.73 8.36321 22.6296C8.83251 22.1214 9.45369 21.7411 10.1006 21.4435C11.5847 20.7608 13.5804 20.3547 15.3128 20.0021C15.4794 19.9682 15.6435 19.9347 15.8045 19.9016C20.3352 18.97 23.6402 18.1978 25.8229 17.0455C26.2967 16.7954 26.7067 16.5326 27.0583 16.2534C27.2961 16.0647 27.415 15.9704 27.4966 15.9888C27.5266 15.9956 27.5511 16.0082 27.5741 16.0286C27.6366 16.0841 27.6295 16.2255 27.6154 16.5081C27.6094 16.6276 27.6021 16.7486 27.5936 16.8695C27.5369 17.6692 27.071 18.3776 26.352 18.734C26.0872 18.8652 25.8109 18.9911 25.5221 19.113C23.1535 20.1131 19.9822 20.8229 16.1566 21.6096C16.0054 21.6406 15.854 21.6716 15.7025 21.7025C13.9125 22.0683 12.1196 22.4346 10.8308 23.0274C10.3628 23.2427 10.0135 23.4657 9.76827 23.6908C11.4671 25.0619 13.6262 25.8812 15.9804 25.8812C18.4113 25.8812 20.6381 25.0051 22.3609 23.5518C23.025 22.9917 23.7623 22.5114 24.5886 22.2423C24.8428 22.1595 25.0925 22.0746 25.3373 21.9874Z" fill="white"/>
<script xmlns=""/></svg>