<svg xmlns="http://www.w3.org/2000/svg" width="47" height="47" fill="none">
<path d="M6.26944 26.0865C6.26944 27.7439 4.97233 29.041 3.3149 29.041C1.65747 29.041 0.360352 27.6718 0.360352 26.0865C0.360352 24.429 1.65747 23.1319 3.3149 23.1319C4.97233 23.1319 6.26944 24.5011 6.26944 26.0865Z" fill="#034EA2"/>
<path d="M7.92679 31.8514C7.92679 33.3647 6.70174 34.5897 5.18843 34.5897C3.67513 34.5897 2.45007 33.3647 2.45007 31.8514C2.45007 30.3381 3.67513 29.113 5.18843 29.113C6.70174 29.113 7.92679 30.3381 7.92679 31.8514Z" fill="#034EA2"/>
<path d="M5.47684 19.6731C5.47684 21.1864 4.25178 22.4115 2.73848 22.4115C1.22518 22.4115 0.00012207 21.1864 0.00012207 19.6731C0.00012207 18.1598 1.22518 16.9348 2.73848 16.9348C4.17972 16.9348 5.47684 18.1598 5.47684 19.6731Z" fill="#034EA2"/>
<path d="M11.6741 36.5354C11.6741 37.9046 10.5932 38.9856 9.22398 38.9856C7.8548 38.9856 6.77386 37.9046 6.77386 36.5354C6.77386 35.1663 7.8548 34.0853 9.22398 34.0853C10.5211 34.0853 11.6741 35.1663 11.6741 36.5354Z" fill="#034EA2"/>
<path d="M6.70174 13.9079C6.70174 15.2771 5.6208 16.358 4.25162 16.358C2.88244 16.358 1.80151 15.2771 1.80151 13.9079C1.80151 12.5388 2.88244 11.4578 4.25162 11.4578C5.6208 11.3858 6.70174 12.5388 6.70174 13.9079Z" fill="#034EA2"/>
<path d="M11.6741 24.9335C11.6741 26.3027 10.5932 27.3836 9.22398 27.3836C7.8548 27.3836 6.77386 26.3027 6.77386 24.9335C6.77386 23.5643 7.8548 22.4834 9.22398 22.4834C10.5211 22.4834 11.6741 23.5643 11.6741 24.9335Z" fill="#034EA2"/>
<path d="M15.9979 40.1384C15.9979 41.4355 14.917 42.5165 13.6199 42.5165C12.3228 42.5165 11.2418 41.4355 11.2418 40.1384C11.2418 38.8413 12.3228 37.7604 13.6199 37.7604C14.917 37.7604 15.9979 38.8413 15.9979 40.1384Z" fill="#034EA2"/>
<path d="M9.87298 9.00766C9.87298 10.3048 8.79205 11.3857 7.49493 11.3857C6.19781 11.3857 5.11688 10.3048 5.11688 9.00766C5.11688 7.71054 6.19781 6.62961 7.49493 6.62961C8.86411 6.62961 9.87298 7.71054 9.87298 9.00766Z" fill="#034EA2"/>
<path d="M20.5379 41.7238C20.5379 42.8768 19.6011 43.8136 18.4481 43.8136C17.2951 43.8136 16.3583 42.8768 16.3583 41.7238C16.3583 40.5708 17.2951 39.634 18.4481 39.634C19.6011 39.634 20.5379 40.5708 20.5379 41.7238Z" fill="#034EA2"/>
<path d="M12.8993 5.33266C12.8993 6.48565 11.9625 7.42246 10.8095 7.42246C9.65647 7.42246 8.71967 6.48565 8.71967 5.33266C8.71967 4.17967 9.65647 3.24286 10.8095 3.24286C11.9625 3.24286 12.8993 4.17967 12.8993 5.33266Z" fill="#034EA2"/>
<path d="M24.7896 42.5167C24.7896 43.4535 23.9969 44.2462 23.0601 44.2462C22.1233 44.2462 21.3306 43.4535 21.3306 42.5167C21.3306 41.5078 22.1233 40.7872 23.0601 40.7872C23.9969 40.7151 24.7896 41.5078 24.7896 42.5167Z" fill="#034EA2"/>
<path d="M16.7905 3.24289C16.7905 4.17969 15.9978 4.97238 15.061 4.97238C14.1242 4.97238 13.3315 4.17969 13.3315 3.24289C13.3315 2.30608 14.1242 1.5134 15.061 1.5134C15.9978 1.5134 16.7905 2.30608 16.7905 3.24289Z" fill="#034EA2"/>
<path d="M11.674 15.2051C11.674 16.214 10.8813 16.9346 9.94452 16.9346C8.93565 16.9346 8.21503 16.1419 8.21503 15.2051C8.21503 14.2683 9.00771 13.4756 9.94452 13.4756C10.8813 13.4035 11.674 14.1962 11.674 15.2051Z" fill="#034EA2"/>
<path d="M16.2139 23.8525C16.2139 24.7893 15.4212 25.5819 14.4844 25.5819C13.5476 25.5819 12.7549 24.7893 12.7549 23.8525C12.7549 22.8436 13.5476 22.123 14.4844 22.123C15.4212 22.0509 16.2139 22.8436 16.2139 23.8525Z" fill="#034EA2"/>
<path d="M14.7728 33.581C14.7728 34.5898 13.9801 35.3105 13.0433 35.3105C12.0344 35.3105 11.3138 34.5178 11.3138 33.581C11.3138 32.5721 12.1065 31.8515 13.0433 31.8515C13.9801 31.8515 14.7728 32.6442 14.7728 33.581Z" fill="#034EA2"/>
<path d="M21.2585 2.08979C21.2585 3.02659 20.4658 3.81928 19.529 3.81928C18.5922 3.81928 17.7995 3.02659 17.7995 2.08979C17.7995 1.08092 18.5922 0.360295 19.529 0.360295C20.4658 0.288233 21.2585 1.08092 21.2585 2.08979Z" fill="#034EA2"/>
<path d="M29.2571 41.9402C29.2571 42.7329 28.6085 43.4535 27.7438 43.4535C26.879 43.4535 26.2305 42.805 26.2305 41.9402C26.2305 41.0755 26.879 40.4269 27.7438 40.4269C28.6085 40.4269 29.2571 41.1475 29.2571 41.9402Z" fill="#034EA2"/>
<path d="M25.5101 1.5133C25.5101 2.37805 24.8616 3.02661 23.9968 3.02661C23.1321 3.02661 22.4835 2.37805 22.4835 1.5133C22.4835 0.648558 23.1321 0 23.9968 0C24.8616 0 25.5101 0.648558 25.5101 1.5133Z" fill="#034EA2"/>
<path d="M15.9257 15.3493C15.9257 16.2141 15.2772 16.8626 14.4124 16.8626C13.5477 16.8626 12.8991 16.2141 12.8991 15.3493C12.8991 14.4846 13.5477 13.836 14.4124 13.836C15.2772 13.9081 15.9257 14.5566 15.9257 15.3493Z" fill="#034EA2"/>
<path d="M19.8173 15.2773C19.8173 16.07 19.1687 16.6465 18.4481 16.6465C17.6554 16.6465 17.0068 15.9979 17.0068 15.2773C17.0068 14.4846 17.6554 13.836 18.4481 13.836C19.1687 13.9081 19.8173 14.4846 19.8173 15.2773Z" fill="#034EA2"/>
<path d="M20.5378 23.132C20.5378 23.9247 19.8893 24.5732 19.0966 24.5732C18.3039 24.5732 17.6553 23.9247 17.6553 23.132C17.6553 22.3393 18.3039 21.6907 19.0966 21.6907C19.8893 21.6907 20.5378 22.3393 20.5378 23.132Z" fill="#034EA2"/>
<path d="M18.3759 31.275C18.3759 32.0677 17.7273 32.7163 16.9346 32.7163C16.142 32.7163 15.4934 32.0677 15.4934 31.275C15.4934 30.4823 16.142 29.9058 16.9346 29.9058C17.7273 29.8338 18.3759 30.4823 18.3759 31.275Z" fill="#034EA2"/>
<path d="M33.2929 40.7872C33.2929 41.5799 32.6443 42.2284 31.8516 42.2284C31.059 42.2284 30.4104 41.5799 30.4104 40.7872C30.4104 39.9945 31.059 39.3459 31.8516 39.3459C32.6443 39.3459 33.2929 39.9945 33.2929 40.7872Z" fill="#034EA2"/>
<path d="M29.2574 2.08977C29.2574 2.88245 28.6088 3.53101 27.8161 3.53101C27.0234 3.53101 26.3749 2.88245 26.3749 2.08977C26.3749 1.29709 27.0234 0.648529 27.8161 0.648529C28.6088 0.648529 29.2574 1.29709 29.2574 2.08977Z" fill="#034EA2"/>
<path d="M36.4634 38.6975C36.4634 39.3461 35.959 39.8505 35.3104 39.8505C34.6618 39.8505 34.1574 39.3461 34.1574 38.6975C34.1574 38.049 34.6618 37.5446 35.3104 37.5446C35.959 37.6166 36.4634 38.1211 36.4634 38.6975Z" fill="#034EA2"/>
<path d="M33.0047 3.24268C33.0047 3.89124 32.5003 4.39568 31.8517 4.39568C31.2032 4.39568 30.6987 3.89124 30.6987 3.24268C30.6987 2.59412 31.2032 2.08969 31.8517 2.08969C32.5003 2.16175 33.0047 2.66619 33.0047 3.24268Z" fill="#034EA2"/>
<path d="M22.8437 14.989C22.8437 15.6376 22.3393 16.142 21.6907 16.142C21.0422 16.142 20.5377 15.6376 20.5377 14.989C20.5377 14.3405 21.0422 13.836 21.6907 13.836C22.3393 13.9081 22.8437 14.4125 22.8437 14.989Z" fill="#034EA2"/>
<path d="M24.8617 22.0511C24.8617 22.6996 24.3573 23.2041 23.7087 23.2041C23.0602 23.2041 22.5557 22.6996 22.5557 22.0511C22.5557 21.4025 23.0602 20.8981 23.7087 20.8981C24.3573 20.9701 24.8617 21.4746 24.8617 22.0511Z" fill="#034EA2"/>
<path d="M25.8704 28.7529C25.8704 29.4014 25.366 29.9059 24.7174 29.9059C24.0689 29.9059 23.5645 29.4014 23.5645 28.7529C23.5645 28.1043 24.0689 27.5999 24.7174 27.5999C25.366 27.5999 25.8704 28.1043 25.8704 28.7529Z" fill="#034EA2"/>
<path d="M22.3393 29.8338C22.3393 30.4824 21.8349 30.9868 21.1863 30.9868C20.5378 30.9868 20.0333 30.4824 20.0333 29.8338C20.0333 29.1853 20.5378 28.6808 21.1863 28.6808C21.8349 28.7529 22.3393 29.2573 22.3393 29.8338Z" fill="#034EA2"/>
<path d="M36.0311 5.33265C36.0311 5.98121 35.5267 6.48564 34.9502 6.48564C34.3016 6.48564 33.7972 5.98121 33.7972 5.33265C33.7972 4.68409 34.3016 4.17966 34.9502 4.17966C35.5267 4.25172 36.0311 4.68409 36.0311 5.33265Z" fill="#034EA2"/>
<path d="M38.1929 7.27825C38.1929 7.85474 37.7605 8.28712 37.184 8.28712C36.6075 8.28712 36.1752 7.85474 36.1752 7.27825C36.1752 6.70175 36.6075 6.26938 37.184 6.26938C37.7605 6.34144 38.1929 6.77381 38.1929 7.27825Z" fill="#034EA2"/>
<path d="M25.7983 14.4125C25.7983 14.989 25.3659 15.4213 24.7894 15.4213C24.213 15.4213 23.7806 14.989 23.7806 14.4125C23.7806 13.836 24.213 13.4036 24.7894 13.4036C25.3659 13.4036 25.7983 13.836 25.7983 14.4125Z" fill="#034EA2"/>
<path d="M29.6177 21.4745C29.6177 22.051 29.1853 22.4834 28.6088 22.4834C28.0323 22.4834 27.6 22.051 27.6 21.4745C27.6 20.898 28.0323 20.4656 28.6088 20.4656C29.1853 20.4656 29.6177 20.898 29.6177 21.4745Z" fill="#034EA2"/>
<path d="M28.6087 28.7526C28.6087 29.3291 28.1764 29.7615 27.5999 29.7615C27.0234 29.7615 26.591 29.3291 26.591 28.7526C26.591 28.1761 27.0234 27.7437 27.5999 27.7437C28.1764 27.7437 28.6087 28.1761 28.6087 28.7526Z" fill="#034EA2"/>
<path d="M28.6088 13.3315C28.6088 13.8359 28.2484 14.1962 27.744 14.1962C27.2396 14.1962 26.8793 13.7639 26.8793 13.3315C26.8793 12.8271 27.3116 12.4667 27.744 12.4667C28.1764 12.3947 28.6088 12.8271 28.6088 13.3315Z" fill="#034EA2"/>
<path d="M38.7698 36.1752C38.7698 36.6076 38.4095 36.8958 38.0492 36.8958C37.6168 36.8958 37.3286 36.5355 37.3286 36.1752C37.3286 35.7428 37.6889 35.4546 38.0492 35.4546C38.4815 35.4546 38.7698 35.7428 38.7698 36.1752Z" fill="#034EA2"/>
<path d="M39.5622 9.94456C39.5622 10.3769 39.2019 10.6652 38.8416 10.6652C38.4092 10.6652 38.121 10.3049 38.121 9.94456C38.121 9.51219 38.4813 9.22394 38.8416 9.22394C39.2019 9.22394 39.5622 9.58425 39.5622 9.94456Z" fill="#034EA2"/>
<path d="M31.1309 12.1786C31.1309 12.611 30.7706 12.8993 30.4103 12.8993C29.9779 12.8993 29.6897 12.539 29.6897 12.1786C29.6897 11.7463 30.05 11.458 30.4103 11.458C30.8427 11.386 31.1309 11.7463 31.1309 12.1786Z" fill="#034EA2"/>
<path d="M32.5721 20.4655C32.5721 20.8979 32.2118 21.1861 31.8515 21.1861C31.4191 21.1861 31.1309 20.8258 31.1309 20.4655C31.1309 20.0332 31.4912 19.7449 31.8515 19.7449C32.2839 19.7449 32.5721 20.0332 32.5721 20.4655Z" fill="#034EA2"/>
<path d="M31.4912 28.7529C31.4912 29.1853 31.1309 29.4735 30.7705 29.4735C30.3382 29.4735 30.0499 29.1132 30.0499 28.7529C30.0499 28.3205 30.4102 28.0323 30.7705 28.0323C31.1309 27.9602 31.4912 28.3205 31.4912 28.7529Z" fill="#034EA2"/>
<path d="M33.5812 10.5932C33.5812 10.9535 33.2929 11.2418 32.9326 11.2418C32.5723 11.2418 32.2841 10.9535 32.2841 10.5932C32.2841 10.2329 32.5723 9.94467 32.9326 9.94467C33.2209 9.94467 33.5812 10.2329 33.5812 10.5932Z" fill="#034EA2"/>
<path d="M36.0311 19.7449C36.0311 20.1052 35.7428 20.3934 35.3825 20.3934C35.0222 20.3934 34.7339 20.1052 34.7339 19.7449C34.7339 19.3846 35.0222 19.0963 35.3825 19.0963C35.7428 19.0243 36.0311 19.3125 36.0311 19.7449Z" fill="#034EA2"/>
<path d="M34.2297 28.7528C34.2297 29.1131 33.9414 29.4014 33.5811 29.4014C33.2208 29.4014 32.9326 29.1131 32.9326 28.7528C32.9326 28.3925 33.2208 28.1043 33.5811 28.1043C33.9414 28.0322 34.2297 28.3925 34.2297 28.7528Z" fill="#034EA2"/>
<script xmlns=""/><link xmlns=""/></svg>