<svg xmlns="http://www.w3.org/2000/svg" xmlns:xlink="http://www.w3.org/1999/xlink" version="1.1" width="200" height="200px" style="shape-rendering:geometricPrecision; text-rendering:geometricPrecision; image-rendering:optimizeQuality; fill-rule:evenodd; clip-rule:evenodd" viewBox="10 155 150 150">

<g><path style="opacity:1" fill="#ff6e29" d="M 73.5,161.5 C 116.137,159.659 142.637,179.326 153,220.5C 155.005,253.672 141.171,277.505 111.5,292C 77.6743,304.056 49.8409,295.89 28,267.5C 8.00672,230.801 14.1734,199.301 46.5,173C 55.0576,167.878 64.0576,164.045 73.5,161.5 Z"/></g>
<g><path style="opacity:1" fill="#fffcfb" d="M 76.5,171.5 C 110.237,170.756 132.071,186.422 142,218.5C 142.667,223.167 142.667,227.833 142,232.5C 134.333,243.16 124.166,250.327 111.5,254C 104.841,255.232 98.1739,256.399 91.5,257.5C 84.8396,265.163 76.5063,269.663 66.5,271C 78.4109,262.022 85.9109,250.189 89,235.5C 94.9518,220.873 105.785,213.373 121.5,213C 118.286,207.888 113.619,205.055 107.5,204.5C 103.211,197.893 97.2111,195.726 89.5,198C 82.3323,203.391 74.3323,205.725 65.5,205C 62.8976,204.117 60.7309,202.617 59,200.5C 58.4999,207.653 61.6666,212.486 68.5,215C 72.2533,215.091 75.92,215.258 79.5,215.5C 74.0172,228.312 65.3506,238.312 53.5,245.5C 38.0486,237.604 30.5486,224.938 31,207.5C 40.4578,188.199 55.6244,176.199 76.5,171.5 Z"/></g>






</svg>