<svg xmlns="http://www.w3.org/2000/svg" xmlns:xlink="http://www.w3.org/1999/xlink" version="1.1" width="300px" height="300px" style="shape-rendering:geometricPrecision; text-rendering:geometricPrecision; image-rendering:optimizeQuality; fill-rule:evenodd; clip-rule:evenodd" viewBox="0 0 420 420">
<g><path style="opacity:0.993" fill="#21597e" d="M 190.5,-0.5 C 198.833,-0.5 207.167,-0.5 215.5,-0.5C 297.581,8.11874 356.081,49.7854 391,124.5C 419.067,200.039 408.733,269.705 360,333.5C 345.421,350.587 328.588,364.92 309.5,376.5C 312.582,333.816 294.582,303.982 255.5,287C 247.05,284.516 238.717,281.849 230.5,279C 256.131,271.034 273.631,254.534 283,229.5C 289.181,185.318 271.014,156.151 228.5,142C 214.734,138.396 200.734,136.396 186.5,136C 164.167,135.333 141.833,135.333 119.5,136C 85.1549,137.977 50.8216,140.144 16.5,142.5C 13.8333,142.167 11.1667,141.833 8.5,141.5C 34.6516,68.5128 85.3183,22.6795 160.5,4C 170.596,2.15822 180.596,0.65822 190.5,-0.5 Z M 92.5,61.5 C 116.657,60.1596 128.491,71.493 128,95.5C 124.155,110.176 114.655,118.176 99.5,119.5C 81.929,117.429 72.2624,107.596 70.5,90C 72.0938,75.9236 79.4271,66.4236 92.5,61.5 Z"/></g>
<g><path style="opacity:0.988" fill="#21597e" d="M 154.5,145.5 C 173.741,145.318 192.407,148.485 210.5,155C 232.535,165.886 243.202,183.719 242.5,208.5C 241.329,231.675 231.996,250.841 214.5,266C 198.876,275.492 181.876,280.492 163.5,281C 149.115,281.808 134.781,281.308 120.5,279.5C 120.167,236.495 120.5,193.495 121.5,150.5C 132.497,147.92 143.497,146.254 154.5,145.5 Z"/></g>
<g><path style="opacity:0.987" fill="#21597e" d="M -0.5,220.5 C -0.5,209.167 -0.5,197.833 -0.5,186.5C 1.04808,175.219 3.04808,163.886 5.5,152.5C 29.5684,152.098 53.5684,153.098 77.5,155.5C 77.6667,224.834 77.5,294.167 77,363.5C 31.8062,326.453 5.9729,278.787 -0.5,220.5 Z"/></g>
<g><path style="opacity:0.989" fill="#21597e" d="M 221.5,406.5 C 208.833,406.5 196.167,406.5 183.5,406.5C 161.929,403.897 141.096,398.23 121,389.5C 120.5,357.502 120.333,325.502 120.5,293.5C 135.817,292.661 151.151,291.994 166.5,291.5C 188.164,290.866 208.831,295.033 228.5,304C 248.854,315.063 260.687,332.23 264,355.5C 267.036,370.527 265.536,385.027 259.5,399C 246.857,402.362 234.191,404.862 221.5,406.5 Z"/></g>
</svg>