<svg width="46.00000000000001" height="46.00000000000001" xmlns="http://www.w3.org/2000/svg" fill="none">
 <defs>
  <linearGradient y2="0.5" x2="1" y1="0.5" x1="0" id="paint0_linear">
   <stop stop-color="#0093D4"/>
   <stop stop-color="#2B2A29" offset="0.60417"/>
  </linearGradient>
 </defs>
 <g>
  <title>Layer 1</title>
  <path id="svg_1" fill="url(#paint0_linear)" d="m20.1549,10.3791c0,5.7262 -4.5194,10.379 -10.0786,10.379c-5.56373,0 -10.0763,-4.6481 -10.0763,-10.379c0,-5.738 4.51257,-10.3791 10.0763,-10.3791c5.5592,0 10.0786,4.63875 10.0786,10.3791zm24.4988,0c0,-5.738 -4.5125,-10.3791 -10.074,-10.3791c-5.5592,0 -10.0695,4.6411 -10.0695,10.3791c0,5.7262 4.5103,10.379 10.0695,10.379c5.5637,-0.0023 10.074,-4.6505 10.074,-10.379zm-24.4988,25.2418c0,-5.7309 -4.5194,-10.372 -10.0786,-10.372c-5.56373,0 -10.0763,4.6411 -10.0763,10.372c0,5.7309 4.51257,10.3791 10.0763,10.3791c5.5592,0 10.0786,-4.6458 10.0786,-10.3791zm24.4988,0c0,-5.7309 -4.5125,-10.372 -10.074,-10.372c-5.5592,0 -10.0695,4.6411 -10.0695,10.372c0,5.7309 4.5103,10.3791 10.0695,10.3791c5.5637,0 10.074,-4.6458 10.074,-10.3791zm138.0853,-34.78985l-15.291,0l-0.005,44.30425l15.631,0c2.219,0 4.239,-0.296 6.07,-0.8832c1.826,-0.5918 3.407,-1.4444 4.725,-2.5671c1.313,-1.1204 2.341,-2.4756 3.064,-4.068c0.725,-1.5878 1.09,-3.4081 1.09,-5.4491c0,-1.3717 -0.191,-2.6282 -0.57,-3.7674c-0.385,-1.1462 -0.91,-2.135 -1.573,-2.9829c-0.668,-0.8385 -1.432,-1.5478 -2.294,-2.1162c-0.857,-0.5754 -1.758,-0.9747 -2.711,-1.2143l0,-0.1127c0.757,-0.357 1.491,-0.8103 2.196,-1.3599c0.704,-0.5449 1.327,-1.1932 1.86,-1.9377c0.536,-0.7516 0.953,-1.6042 1.257,-2.5672c0.307,-0.9606 0.462,-2.0481 0.462,-3.2695c0,-1.8014 -0.298,-3.44085 -0.893,-4.91351c-0.591,-1.47501 -1.467,-2.73863 -2.634,-3.80026c-1.163,-1.05693 -2.613,-1.87194 -4.346,-2.44034c-1.735,-0.56839 -3.751,-0.85493 -6.038,-0.85493l0,-0.00001zm3.466,16.80285c-1.238,0.9254 -2.896,1.3881 -4.957,1.3881l-5.22,0l0,-10.65855l5.963,0c1.715,0 3.16,0.40868 4.328,1.23074c1.167,0.82671 1.749,2.15851 1.749,4.00691c0,1.7663 -0.621,3.1074 -1.863,4.0328zm1.224,18.3507c-1.106,1.0804 -3.016,1.6183 -5.725,1.6183l-5.676,0.0047l0,-11.382l6.364,0c1.261,0 2.308,0.1621 3.154,0.4979c0.832,0.3335 1.523,0.7775 2.061,1.3271c0.529,0.5472 0.914,1.1649 1.142,1.8578c0.229,0.6905 0.345,1.3858 0.345,2.0974c0,1.5713 -0.557,2.8984 -1.665,3.9788zm32.235,5.1869l-0.123,0.0438c-1.372,1.8414 -2.964,3.0933 -4.777,3.765c-1.808,0.6647 -3.573,0.9959 -5.283,0.9959c-1.145,0 -2.328,-0.155 -3.553,-0.4674c-1.22,-0.3194 -2.33,-0.8338 -3.342,-1.5666c-1.006,-0.7281 -1.836,-1.677 -2.461,-2.8584c-0.625,-1.1838 -0.942,-2.6306 -0.942,-4.364c0,-0.8244 0.117,-1.7357 0.342,-2.7386c0.228,-1.0053 0.762,-1.9565 1.603,-2.8608c0.833,-0.9066 2.094,-1.7028 3.772,-2.391c1.674,-0.6858 3.945,-1.125 6.802,-1.32l7.607,-0.4744l0,-1.4163c0,-1.8109 -0.506,-3.1567 -1.521,-4.0398c-1.001,-0.8878 -2.426,-1.3247 -4.26,-1.3247c-1.717,0 -3.048,0.4063 -4.001,1.2166c-0.954,0.8127 -1.471,1.9072 -1.551,3.2953l-7.887,0c0.07,-1.1814 0.351,-2.3957 0.823,-3.6311c0.481,-1.2355 1.252,-2.384 2.323,-3.4245c1.063,-1.0381 2.456,-1.8978 4.171,-2.5672c1.715,-0.6623 3.874,-1.0052 6.462,-1.0052c1.836,0 3.555,0.1902 5.153,0.559c1.608,0.3734 3.015,0.9536 4.244,1.7357c1.215,0.7915 2.182,1.7968 2.891,3.0346c0.709,1.2307 1.063,2.7151 1.063,4.4461l0,17.5427c0,0.7892 0.039,1.4774 0.109,2.0693c0.076,0.5942 0.167,1.1626 0.281,1.7146l-7.945,0l0,-3.9686zm-7.216,-8.562l6.87,-0.6435l-0.007,2.7691c0,0.9067 -0.237,1.6794 -0.691,2.3253c-0.454,0.6459 -1.026,1.1791 -1.715,1.5948c-0.686,0.411 -1.425,0.714 -2.209,0.9113c-0.775,0.1973 -1.491,0.2936 -2.139,0.2936c-0.691,0 -1.341,-0.0587 -1.972,-0.1738c-0.632,-0.1198 -1.175,-0.3171 -1.631,-0.5919c-0.458,-0.2771 -0.828,-0.6389 -1.113,-1.0922c-0.287,-0.4509 -0.428,-1.0099 -0.428,-1.677c0,-1.1015 0.362,-1.9494 1.092,-2.5342c0.723,-0.5919 2.036,-0.9842 3.943,-1.1815zm36.939,-5.9018c0,-1.1039 -0.142,-2.0269 -0.429,-2.7738c-0.285,-0.7399 -0.675,-1.3435 -1.172,-1.7945c-0.495,-0.4509 -1.051,-0.7798 -1.66,-0.9771c-0.609,-0.1949 -1.243,-0.2935 -1.886,-0.2935c-1.674,0 -2.992,0.66 -3.945,1.9776c-0.953,1.3176 -1.434,3.0087 -1.434,5.0921l0,17.1951l-8.22,0l0,-30.2987l7.873,0l0,3.974l0.14,0c1.219,-1.8437 2.551,-3.105 4.004,-3.7697c1.443,-0.6623 3.005,-1.0053 4.683,-1.0053c1.754,0 3.279,0.2772 4.57,0.8315c1.288,0.5425 2.367,1.3059 3.229,2.2665c0.852,0.9607 1.479,2.081 1.883,3.3587c0.397,1.2754 0.6,2.64 0.6,4.0939l0,20.5561l-8.23,0l0,-18.4305l-0.006,0l0,-0.0024zm19.664,3.5812l0.121,0.0094l8.701,14.837l10.127,0l-10.241,-16.6267l9.835,-13.6509l-9.549,-0.0235l-8.873,13.2751l-0.121,0.0023l0,-27.28055l-8.22,0l0,44.30425l8.22,0l0,-14.8464zm-206.9743,-29.45785l-8.5782,0l0,44.30425l8.5782,0l0,-44.30425zm26.3321,40.07185l0.13,-0.0235l0.0023,4.2559l7.869,0l0,-44.30425l-8.2247,0l0,18.16275l-0.1118,0c-1.375,-1.8837 -2.7933,-3.1825 -4.2663,-3.8918c-1.4707,-0.707 -3.1581,-1.064 -5.0644,-1.064c-2.1388,0 -4.0451,0.4369 -5.7188,1.2989c-1.6783,0.8619 -3.1034,2.0316 -4.2617,3.5066c-1.1675,1.4703 -2.0637,3.1591 -2.6953,5.0662c-0.627,1.9002 -0.9417,3.9154 -0.9417,6.0386c0,2.1139 0.3306,4.1456 0.9987,6.0668c0.6681,1.926 1.6008,3.6265 2.807,5.0968c1.1971,1.475 2.6405,2.6541 4.3165,3.5348c1.6805,0.8832 3.548,1.3247 5.6093,1.3247c1.9063,0 3.6803,-0.3922 5.3221,-1.179c1.6349,-0.7869 3.0464,-2.0787 4.2298,-3.8895zm-0.4013,-14.1324c0.3101,1.0569 0.4606,2.1585 0.4606,3.2929c0,1.2613 -0.1642,2.4357 -0.4834,3.5349c-0.3306,1.0992 -0.8072,2.0598 -1.432,2.8842c-0.6293,0.8268 -1.3955,1.475 -2.2871,1.9424c-0.8984,0.4721 -1.9382,0.7094 -3.117,0.7094c-1.2245,0 -2.2917,-0.2443 -3.2083,-0.7352c-0.9167,-0.4909 -1.6897,-1.1438 -2.3145,-1.9706c-0.6316,-0.8221 -1.1036,-1.7733 -1.4342,-2.8537c-0.3215,-1.0804 -0.4857,-2.2078 -0.4857,-3.3869c0,-1.1297 0.155,-2.243 0.4583,-3.3235c0.3033,-1.0804 0.7662,-2.0316 1.3727,-2.856c0.6134,-0.8268 1.3636,-1.4915 2.2574,-2.0058c0.8985,-0.5121 1.9382,-0.7634 3.1217,-0.7634c1.2974,0 2.4102,0.2443 3.3451,0.7352c0.9349,0.4885 1.7193,1.1462 2.3463,1.9706c0.6271,0.8244 1.0945,1.7662 1.4001,2.8255zm20.1025,8.2652c-0.322,-0.8455 -0.527,-1.724 -0.602,-2.6353l21.512,-0.0047l0,-2.3511c0,-2.4309 -0.37,-4.6387 -1.113,-6.6281c-0.748,-1.9776 -1.776,-3.6617 -3.09,-5.0615c-1.313,-1.3905 -2.898,-2.4615 -4.745,-3.2013c-1.856,-0.7516 -3.881,-1.1251 -6.095,-1.1251c-2.214,0 -4.243,0.3805 -6.093,1.1251c-1.851,0.7445 -3.431,1.8155 -4.749,3.2107c-1.316,1.3975 -2.345,3.0768 -3.088,5.0662c-0.7433,1.9776 -1.1126,4.1925 -1.1126,6.6258c0,2.4356 0.3693,4.6246 1.1126,6.5717c0.743,1.9448 1.772,3.6148 3.088,5.0052c1.318,1.3975 2.898,2.4662 4.749,3.2131c1.85,0.7492 3.879,1.1203 6.093,1.1203c3.468,0 6.476,-0.7915 9.007,-2.3839c2.54,-1.5925 4.3,-3.9365 5.292,-7.0369l-8.008,-0.6482c-0.574,1.1814 -1.384,2.0763 -2.431,2.6869c-1.051,0.606 -2.205,0.9114 -3.459,0.9114c-1.112,0 -2.072,-0.2044 -2.898,-0.6201c-0.814,-0.4134 -1.5,-0.9512 -2.054,-1.5948c-0.552,-0.653 -0.99,-1.4045 -1.316,-2.2454zm12.103,-10.318c0.301,0.7657 0.493,1.5267 0.566,2.2689l-13.271,0c0.116,-0.8597 0.333,-1.6911 0.659,-2.4756c0.324,-0.7845 0.768,-1.4703 1.345,-2.0598c0.573,-0.5872 1.257,-1.0546 2.057,-1.4093c0.8,-0.3546 1.735,-0.5331 2.807,-0.5331c0.985,0 1.863,0.1996 2.625,0.5919c0.766,0.3875 1.411,0.8948 1.947,1.5266c0.536,0.6295 0.955,1.3271 1.265,2.0904zm31.028,16.4975l0.125,-0.0446l0.005,3.9647l7.942,0c-0.112,-0.552 -0.208,-1.1204 -0.281,-1.7146c-0.071,-0.5919 -0.107,-1.2801 -0.107,-2.0692l0,-17.5428c0,-1.731 -0.356,-3.2154 -1.065,-4.4461c-0.709,-1.2378 -1.671,-2.2431 -2.896,-3.0346c-1.222,-0.7821 -2.631,-1.3622 -4.239,-1.7357c-1.601,-0.3687 -3.315,-0.559 -5.149,-0.559c-2.594,0 -4.747,0.3429 -6.462,1.0053c-1.719,0.6694 -3.108,1.529 -4.177,2.5671c-1.072,1.0405 -1.84,2.1891 -2.317,3.4245c-0.476,1.2354 -0.755,2.4497 -0.83,3.6311l7.89,0c0.08,-1.3881 0.593,-2.4826 1.546,-3.2952c0.953,-0.8104 2.287,-1.2167 4.004,-1.2167c1.831,0 3.251,0.4392 4.259,1.3294c1.01,0.8831 1.514,2.2289 1.514,4.0398l0,1.4163l-7.602,0.4745c-2.859,0.1949 -5.128,0.6341 -6.8,1.3199c-1.682,0.6882 -2.939,1.4844 -3.78,2.3911c-0.839,0.9042 -1.371,1.8555 -1.599,2.8607c-0.225,1.0029 -0.342,1.9142 -0.342,2.7386c0,1.7334 0.317,3.1802 0.942,4.364c0.629,1.1814 1.45,2.1303 2.46,2.8584c1.013,0.7328 2.126,1.2472 3.346,1.5666c1.219,0.3124 2.405,0.4674 3.545,0.4674c1.72,0 3.478,-0.3311 5.288,-0.9958c1.811,-0.6718 3.402,-1.9237 4.78,-3.7651zm-7.094,-8.6057l6.863,-0.6436l-0.002,2.7692c0,0.9066 -0.23,1.6793 -0.689,2.3252c-0.456,0.6459 -1.026,1.1791 -1.719,1.5948c-0.684,0.411 -1.421,0.714 -2.198,0.9113c-0.78,0.1973 -1.496,0.2936 -2.146,0.2936c-0.682,0 -1.341,-0.0587 -1.97,-0.1738c-0.634,-0.1198 -1.179,-0.3171 -1.633,-0.5919c-0.458,-0.2771 -0.83,-0.6388 -1.115,-1.0921c-0.287,-0.451 -0.428,-1.01 -0.428,-1.677c0,-1.1016 0.362,-1.9495 1.087,-2.5343c0.723,-0.5919 2.043,-0.9841 3.95,-1.1814z" clip-rule="evenodd" fill-rule="evenodd"/>
 </g>
</svg>