<svg width="32" height="32" viewBox="0 0 32 32" fill="none" xmlns="http://www.w3.org/2000/svg">
<path d="M24 9C24 13.4093 20.4279 17 16 17C11.5721 17 8 13.4093 8 9C8 4.5721 11.5721 1 16 1C20.4093 1 24 4.5721 24 9Z" fill="#F56E28"/>
<path d="M24 21.667C24 22.7704 20.4279 23.667 16 23.667C11.5907 23.667 8 22.7704 8 21.667C8 20.5635 11.5721 19.667 16 19.667C20.4093 19.667 24 20.5635 24 21.667Z" fill="#F56E28"/>
<path d="M24 26.3335C24 27.0785 20.4279 27.6667 16 27.6667C11.5907 27.6667 8 27.0785 8 26.3335C8 25.5886 11.5721 25.0005 16 25.0005C20.4093 24.9808 24 25.5886 24 26.3335Z" fill="#F56E28"/>
<path d="M24 31.0011C24 31.3862 20.4279 31.6663 16 31.6663C11.5907 31.6663 8 31.3513 8 31.0011C8 30.6158 11.5721 30.3357 16 30.3357C20.4093 30.3007 24 30.6158 24 31.0011Z" fill="#F56E28"/>
</svg>
