<svg xmlns="http://www.w3.org/2000/svg" width="42" height="42" viewBox="-11 0 45 42" fill="none">
<path d="M10.4136 3.09804V0H11.281V3.09876C11.8978 3.28599 12.3489 3.86056 12.3489 4.53752C12.3489 5.21412 11.8978 5.78869 11.281 5.97592V31.212H10.4136V5.97663C9.79567 5.79012 9.34317 5.21519 9.34317 4.53752C9.34317 3.85984 9.79567 3.28455 10.4136 3.09804Z" fill="#148E62"/>
<path d="M9.37324 31.212V6.85801C9.33799 6.8734 9.3026 6.88865 9.26734 6.90385L9.20355 6.93139L9.04461 7.00228C8.90035 7.071 8.75609 7.13938 8.61183 7.20775C8.56302 7.23233 8.51347 7.25728 8.46502 7.28222C8.43196 7.29902 8.39909 7.31602 8.36613 7.33307L8.33221 7.3506V31.212H9.37324Z" fill="#148E62"/>
<path d="M7.63842 31.212V7.73973C7.59081 7.76909 7.54284 7.79809 7.49487 7.82708L7.45955 7.84898C7.42995 7.86733 7.40048 7.8856 7.37101 7.90405L6.80825 8.27672C6.77639 8.29891 6.74488 8.32111 6.71302 8.34366C6.67479 8.37082 6.63656 8.39833 6.59833 8.42584L6.59811 31.212H7.63842Z" fill="#148E62"/>
<path d="M5.80516 9.0421L5.90074 8.96298C5.95981 8.91573 6.01888 8.86812 6.07759 8.8205V31.212H4.86365V9.89769C4.89157 9.86977 4.91987 9.84184 4.94815 9.81463C4.9899 9.77431 5.03168 9.73396 5.07379 9.69364L5.80516 9.0421Z" fill="#148E62"/>
<path d="M4.51675 31.212V10.2517L4.41544 10.3599L4.3717 10.4074C4.3425 10.439 4.3133 10.4707 4.28442 10.5027C3.6583 11.1936 3.10305 11.9286 2.60581 12.7255L2.53815 12.835L2.4354 13.005V31.212H4.51675Z" fill="#148E62"/>
<path d="M1.82073 14.1309L1.902 13.9695L2.08851 13.6151V31.212L2.05994 31.2121C1.85411 31.2122 0.731897 31.2132 0.639011 31.1991C0.319685 31.1991 0 30.8537 0 30.4871C0 30.0711 0.00178909 29.7151 0.00358009 29.3591C0.00536728 29.0034 0.00716019 28.6467 0.00716019 28.2311C0.00716019 27.7354 0.00617409 27.2397 0.00518799 26.7439V26.7426C0.00286674 25.5747 0.000545502 24.4067 0.011097 23.2389C0.0264912 21.5682 0.0887814 19.9214 0.41312 18.2704C0.70166 16.8001 1.16526 15.4465 1.82073 14.1309Z" fill="#148E62"/>
<path d="M19.2595 13.005V31.212C19.3621 31.212 19.5049 31.2123 19.664 31.2126L19.6672 31.2126C20.1557 31.2135 20.7969 31.2146 20.9073 31.2095C21.3194 31.2095 21.6702 30.9163 21.6806 30.5082C21.6787 30.4664 21.6813 29.9055 21.6839 29.3496L21.6839 29.3484C21.6858 28.9296 21.6877 28.5133 21.6877 28.3248C21.6877 27.8146 21.6889 27.3044 21.6901 26.7942C21.693 25.5514 21.6959 24.3085 21.6816 23.0656C21.6616 21.3032 21.5796 19.5745 21.1916 17.8411C20.8103 16.1396 20.1448 14.4882 19.2595 13.005Z" fill="#148E62"/>
<path d="M18.9126 31.212H17.525V10.6305C17.5586 10.6692 17.5925 10.7079 17.6261 10.7463L17.6381 10.7601L17.6445 10.7674C17.6868 10.8166 17.7294 10.866 17.7713 10.9158C18.0978 11.3028 18.4039 11.7041 18.6924 12.1226C18.7239 12.1684 18.7554 12.2142 18.7866 12.2608L18.9126 12.4502V31.212Z" fill="#148E62"/>
<path d="M17.0045 31.212V10.0717L16.8656 9.9317C16.8366 9.90269 16.8074 9.87408 16.7783 9.84556L16.7775 9.84478L16.7767 9.84404L16.7471 9.815C16.5531 9.62598 16.3544 9.44233 16.1507 9.26477C16.0884 9.21035 16.0254 9.15666 15.9624 9.10332L15.7906 8.96012V31.212H17.0045Z" fill="#148E62"/>
<path d="M15.0968 8.426V31.212H14.0561V7.73973L14.2118 7.83424L14.2617 7.8653L14.2626 7.86586C14.2849 7.87975 14.3079 7.89399 14.33 7.90799C14.5233 8.02971 14.7137 8.15607 14.901 8.28674L14.9962 8.35369C15.0295 8.37803 15.0631 8.40201 15.0968 8.426Z" fill="#148E62"/>
<path d="M12.8547 31.2131V7.0259C12.7115 6.95216 12.5665 6.87913 12.4194 6.80753V31.2131H12.8547Z" fill="#148E62"/>
<path d="M0.27487 32.1652H21.4167V32.5658H0.27487V32.1652Z" fill="#148E62"/>
<path d="M0.274525 40.873H21.4163V41.2732H0.274525V40.873Z" fill="#148E62"/>
<path d="M21.4156 36.2987H20.1791V36.1616L20.2599 36.1551L20.3301 36.1498C20.3964 36.1451 20.4426 36.1369 20.4694 36.1265C20.5116 36.11 20.5428 36.0867 20.5625 36.0578C20.5818 36.0288 20.5911 35.9887 20.5911 35.9371V33.9488C20.5911 33.9037 20.5843 33.8661 20.57 33.8357C20.556 33.8056 20.5224 33.7806 20.4694 33.7591C20.4307 33.7441 20.3824 33.7297 20.3237 33.7158C20.265 33.7025 20.2167 33.6947 20.1791 33.6922V33.5547H21.4156V33.6922C21.3751 33.6932 21.3275 33.6979 21.2724 33.7065C21.2169 33.7144 21.1686 33.7254 21.127 33.7383C21.078 33.7541 21.0451 33.7791 21.0286 33.8135C21.0114 33.8482 21.0035 33.8873 21.0035 33.9295V35.916C21.0035 35.9582 21.0128 35.9958 21.0311 36.0288C21.0497 36.0617 21.0823 36.0882 21.127 36.1072C21.1542 36.1179 21.1983 36.129 21.2595 36.1412C21.3203 36.1533 21.3726 36.1601 21.4156 36.1616V36.2987Z" fill="#148E62"/>
<path d="M20.029 35.4828L19.9706 36.2987H17.8259V36.1616C17.8571 36.1587 17.9022 36.154 17.9609 36.1476C18.0196 36.1415 18.0604 36.1329 18.0837 36.1225C18.1216 36.1061 18.1503 36.0817 18.1674 36.0492C18.185 36.0169 18.1939 35.9758 18.1939 35.926V33.9606C18.1939 33.917 18.1864 33.8783 18.1714 33.8443C18.1567 33.8106 18.127 33.7838 18.0837 33.763C18.054 33.748 18.0121 33.733 17.9587 33.7176C17.9054 33.7033 17.861 33.6947 17.8259 33.6922V33.5547H18.9847V33.6922C18.9482 33.6932 18.902 33.6993 18.8448 33.7111C18.7871 33.7229 18.7456 33.733 18.7198 33.7423C18.6758 33.7573 18.6461 33.7838 18.6293 33.8214C18.6135 33.859 18.6056 33.8987 18.6056 33.9413V35.7846C18.6056 35.8698 18.6096 35.9357 18.6182 35.9826C18.6268 36.0295 18.6461 36.0656 18.6769 36.0921C18.7066 36.1154 18.751 36.1304 18.8097 36.1369C18.8684 36.1444 18.9504 36.1476 19.056 36.1476C19.104 36.1476 19.1537 36.1469 19.2049 36.1444C19.2565 36.1415 19.3055 36.1365 19.352 36.1283C19.3971 36.1204 19.4387 36.11 19.477 36.0968C19.5146 36.0828 19.5428 36.0656 19.5607 36.0452C19.6137 35.9858 19.6749 35.8959 19.7455 35.776C19.8156 35.655 19.8643 35.5573 19.8915 35.4828H20.029Z" fill="#148E62"/>
<path fill-rule="evenodd" clip-rule="evenodd" d="M16.242 33.8795C16.3626 34.0055 16.4579 34.158 16.5259 34.337C16.5946 34.5152 16.6283 34.7132 16.6283 34.9298C16.6283 35.1475 16.5939 35.3458 16.5237 35.5233C16.4546 35.7013 16.3576 35.8527 16.2341 35.978C16.1138 36.1015 15.9746 36.1971 15.8163 36.264C15.6578 36.3313 15.4888 36.365 15.3094 36.365C15.1186 36.365 14.9421 36.3285 14.7807 36.2572C14.6189 36.186 14.4803 36.0861 14.364 35.9583C14.248 35.8334 14.1567 35.6816 14.0901 35.5026C14.0243 35.3247 13.9906 35.1331 13.9906 34.9298C13.9906 34.7068 14.0253 34.5081 14.0955 34.333C14.1646 34.158 14.2609 34.0069 14.3833 33.8795C14.5047 33.7534 14.6454 33.6564 14.8057 33.5891C14.9661 33.5222 15.1344 33.4889 15.3094 33.4889C15.4913 33.4889 15.6631 33.5229 15.8242 33.5909C15.9853 33.6597 16.1246 33.7552 16.242 33.8795ZM15.9535 35.8248C16.0254 35.7074 16.0784 35.5745 16.1113 35.4267C16.1443 35.2781 16.16 35.1127 16.16 34.9298C16.16 34.7415 16.1425 34.5686 16.1052 34.4114C16.0684 34.2539 16.015 34.1197 15.9438 34.0091C15.8729 33.8995 15.7838 33.8143 15.6771 33.7527C15.5701 33.6915 15.4473 33.6611 15.3094 33.6611C15.1548 33.6611 15.0234 33.6965 14.9153 33.7674C14.8068 33.8379 14.7184 33.9328 14.65 34.0517C14.5859 34.1655 14.5376 34.298 14.5061 34.4497C14.4742 34.6022 14.4585 34.7623 14.4585 34.9298C14.4585 35.1152 14.4757 35.2828 14.5093 35.4321C14.5423 35.5821 14.5952 35.7145 14.6676 35.8309C14.737 35.9443 14.8247 36.0328 14.9303 36.0968C15.0359 36.1609 15.1627 36.1924 15.3094 36.1924C15.4473 36.1924 15.5718 36.1602 15.6828 36.0954C15.7938 36.0313 15.8844 35.9411 15.9535 35.8248Z" fill="#148E62"/>
<path d="M13.941 33.6922C13.9188 33.6932 13.8845 33.7018 13.8361 33.7176C13.7885 33.7344 13.7545 33.7501 13.7337 33.7652C13.6836 33.7963 13.6493 33.82 13.6317 33.8371C13.6138 33.8536 13.5787 33.8973 13.5272 33.9685C13.4262 34.1106 13.3339 34.2538 13.2487 34.3995C13.1635 34.5456 13.0571 34.7303 12.9293 34.9548C12.8817 35.0371 12.8499 35.1034 12.8348 35.1542C12.8191 35.2043 12.8119 35.277 12.8119 35.3726V35.8967C12.8119 35.9428 12.8209 35.9833 12.8395 36.0177C12.8581 36.0513 12.8903 36.0789 12.9351 36.0993C12.9623 36.11 13.0102 36.1225 13.0804 36.1369C13.1499 36.1523 13.2057 36.1601 13.2487 36.1616V36.2987H11.9642V36.1616C12.0004 36.1587 12.0544 36.154 12.1271 36.1469C12.199 36.1397 12.2492 36.1304 12.2778 36.1193C12.324 36.0993 12.3562 36.0731 12.3734 36.0391C12.3906 36.0062 12.3999 35.9647 12.3999 35.916V35.2483C12.3999 35.2279 12.3873 35.1903 12.3623 35.1356C12.3365 35.0808 12.3068 35.0196 12.2717 34.9526C12.1944 34.803 12.1088 34.6412 12.015 34.4676C11.9205 34.2932 11.8389 34.1443 11.7695 34.0208C11.7265 33.9467 11.6889 33.8919 11.656 33.8543C11.6227 33.8167 11.5855 33.7838 11.5432 33.7552C11.5121 33.7362 11.4752 33.7215 11.4315 33.7111C11.3886 33.7004 11.3495 33.6947 11.3145 33.6922V33.5547H12.4851V33.6922C12.353 33.6947 12.2606 33.7033 12.2062 33.719C12.1521 33.7344 12.1253 33.7559 12.1253 33.7845C12.1253 33.7924 12.1292 33.8064 12.1364 33.8253C12.1432 33.8417 12.1527 33.8624 12.164 33.887L12.1693 33.8987C12.1841 33.9289 12.202 33.9625 12.2223 34.0006L12.2295 34.014C12.2527 34.0569 12.2742 34.0985 12.295 34.1389C12.3555 34.2531 12.4178 34.368 12.4811 34.4822C12.5438 34.5957 12.6261 34.7443 12.7285 34.9276C12.9304 34.6014 13.0851 34.3469 13.1914 34.1647C13.2974 33.9825 13.3511 33.8729 13.3511 33.8364C13.3511 33.8074 13.3396 33.7831 13.3181 33.7652C13.2963 33.7473 13.2673 33.733 13.2308 33.7229C13.1939 33.7126 13.1531 33.7058 13.1094 33.7025C13.0654 33.6993 13.0249 33.6961 12.9873 33.6922V33.5547H13.941V33.6922Z" fill="#148E62"/>
<path d="M9.5926 36.2987H8.82292C8.67507 36.0688 8.51003 35.8412 8.32925 35.6149C8.14775 35.389 7.95837 35.1692 7.75969 34.9566H7.70921V35.912C7.70921 35.955 7.71709 35.9926 7.7332 36.0262C7.74966 36.0599 7.77866 36.0867 7.82162 36.1072C7.84203 36.1165 7.88033 36.1272 7.93653 36.1404C7.99238 36.153 8.03928 36.1601 8.07651 36.1616V36.2987H6.93774V36.1616C6.96746 36.1587 7.01042 36.1548 7.06698 36.1498C7.1239 36.1451 7.16399 36.1369 7.18726 36.1265C7.22557 36.11 7.25385 36.085 7.27103 36.052C7.28893 36.0194 7.29752 35.9797 7.29752 35.9332V33.9528C7.29752 33.9091 7.29036 33.8708 7.27497 33.8386C7.26029 33.8067 7.23058 33.7806 7.18726 33.7591C7.15218 33.7426 7.11137 33.7276 7.06304 33.7151C7.01543 33.7018 6.9739 33.6947 6.93774 33.6922V33.5547H8.07651V33.6922C8.04071 33.6932 7.99524 33.6993 7.94119 33.709C7.88677 33.7197 7.84739 33.729 7.82162 33.7383C7.77723 33.7541 7.74752 33.7799 7.73248 33.8153C7.71709 33.8518 7.70921 33.8912 7.70921 33.9334V34.8814H7.74752C7.86386 34.7833 7.97806 34.6809 8.09011 34.5746C8.20252 34.4683 8.30419 34.362 8.39584 34.2563C8.4975 34.1396 8.57197 34.0451 8.61886 33.975C8.66576 33.9052 8.68974 33.8425 8.68974 33.7885C8.68974 33.7691 8.67757 33.7534 8.65395 33.7408C8.63032 33.729 8.6024 33.719 8.57161 33.7111C8.53581 33.7033 8.50359 33.6986 8.47495 33.6965L8.40514 33.6922V33.5547H9.434V33.6922L9.42784 33.6923C9.4234 33.6926 9.41722 33.6931 9.40895 33.6939C9.3998 33.695 9.38974 33.6958 9.37879 33.6967L9.36491 33.6979C9.3463 33.6993 9.3284 33.7011 9.31086 33.705C9.29224 33.709 9.26933 33.7136 9.24069 33.719C9.19594 33.729 9.14905 33.7455 9.10072 33.7677C9.05203 33.791 9.01229 33.8185 8.98186 33.8522C8.84869 34.0029 8.71015 34.1593 8.56624 34.3204C8.42161 34.4815 8.27841 34.6287 8.13629 34.7615C8.33247 34.9831 8.49464 35.1739 8.6228 35.3335C8.75096 35.4932 8.88771 35.6643 9.03198 35.8458C9.08747 35.916 9.14296 35.9715 9.19845 36.0137C9.25394 36.0552 9.30155 36.0867 9.34093 36.1072C9.37494 36.124 9.41682 36.1369 9.4673 36.1462C9.51742 36.1548 9.55966 36.1601 9.5926 36.1616V36.2987Z" fill="#148E62"/>
<path fill-rule="evenodd" clip-rule="evenodd" d="M6.83022 36.2986H5.68751V36.1615C5.78775 36.1547 5.87116 36.1422 5.93775 36.1225C6.00434 36.1032 6.03727 36.0795 6.03727 36.0513C6.03727 36.0391 6.0362 36.0255 6.03333 36.009C6.03083 35.9918 6.02689 35.9772 6.02152 35.9639L5.79384 35.3496H4.83264C4.79648 35.4391 4.76748 35.5179 4.74421 35.5852C4.72202 35.6517 4.70161 35.7137 4.68371 35.7706C4.66724 35.8261 4.65507 35.8716 4.64863 35.9059C4.64254 35.941 4.63932 35.9693 4.63932 35.9911C4.63932 36.0427 4.67977 36.0828 4.76068 36.111C4.84194 36.1397 4.93359 36.1562 5.03526 36.1615V36.2986H4.00317V36.1615C4.03683 36.1587 4.07835 36.1515 4.12847 36.139C4.17859 36.1272 4.22012 36.1107 4.25269 36.0899C4.30388 36.0552 4.34362 36.0187 4.3719 35.9804C4.40054 35.9424 4.42811 35.8902 4.45531 35.8229C4.59314 35.4788 4.74564 35.0919 4.91211 34.6623L5.00765 34.4155C5.13549 34.0854 5.25167 33.7853 5.35673 33.5156H5.51138L6.4264 35.8827C6.44538 35.9331 6.46722 35.9739 6.49156 36.0051C6.51662 36.0359 6.55027 36.0656 6.59466 36.0953C6.62437 36.1139 6.66268 36.1289 6.70993 36.1411C6.75826 36.1533 6.798 36.1601 6.83022 36.1615V36.2986ZM5.72403 35.1771L5.30805 34.1131L4.89994 35.1771H5.72403Z" fill="#148E62"/>
<path fill-rule="evenodd" clip-rule="evenodd" d="M3.95781 34.2313C3.95781 34.3745 3.92953 34.5012 3.87332 34.6115C3.81748 34.7217 3.74015 34.8127 3.64063 34.8846C3.54254 34.9573 3.43514 35.0103 3.31772 35.0439C3.2003 35.0769 3.07608 35.094 2.9447 35.094H2.63719V35.926C2.63719 35.9708 2.64434 36.0101 2.65902 36.0445C2.67406 36.0782 2.70449 36.1046 2.75138 36.1225C2.77429 36.1319 2.81546 36.1404 2.87417 36.1476C2.93288 36.1555 2.98623 36.1601 3.03527 36.1616V36.2987H1.85748V36.1616C1.88863 36.1587 1.93338 36.154 1.99209 36.1476C2.05116 36.1415 2.09197 36.1329 2.11488 36.1225C2.15318 36.1061 2.18182 36.0817 2.19901 36.0492C2.21655 36.0169 2.22514 35.9758 2.22514 35.926V33.9456C2.22514 33.8998 2.2187 33.8597 2.20545 33.8232C2.19292 33.787 2.16249 33.7598 2.11488 33.7423C2.06619 33.7254 2.01715 33.7133 1.96918 33.7065C1.92013 33.6993 1.8786 33.6947 1.84424 33.6922V33.5547H3.0972C3.35281 33.5547 3.56008 33.6159 3.71903 33.7394C3.87833 33.8622 3.95781 34.0265 3.95781 34.2313ZM3.36963 34.6992C3.41402 34.6372 3.4423 34.5732 3.45698 34.5073C3.47094 34.4407 3.4781 34.3809 3.4781 34.3283C3.4781 34.2546 3.46951 34.1797 3.45233 34.1038C3.43443 34.028 3.40471 33.9614 3.36176 33.9044C3.31701 33.8439 3.25758 33.797 3.18455 33.763C3.11116 33.7297 3.01916 33.7133 2.90961 33.7133H2.63719V34.9258H2.83444C2.9737 34.9258 3.08682 34.9039 3.17381 34.861C3.2608 34.8173 3.32631 34.764 3.36963 34.6992Z" fill="#148E62"/>
<path d="M1.51299 36.2987H0.276489V36.1616C0.311573 36.1587 0.361691 36.1548 0.427561 36.1498C0.49379 36.1451 0.53997 36.1369 0.566818 36.1265C0.609062 36.11 0.640207 36.0867 0.659897 36.0578C0.679228 36.0288 0.688536 35.9887 0.688536 35.9371V33.9488C0.688536 33.9037 0.681734 33.8661 0.667414 33.8357C0.653452 33.8056 0.619801 33.7806 0.566818 33.7591C0.527798 33.7441 0.479828 33.7297 0.421118 33.7158C0.362408 33.7025 0.314077 33.6947 0.276489 33.6922V33.5547H1.51299V33.6922C1.47253 33.6932 1.42492 33.6979 1.36979 33.7065C1.3143 33.7144 1.26597 33.7254 1.22445 33.7383C1.17576 33.7541 1.14247 33.7791 1.126 33.8135C1.10882 33.8482 1.10094 33.8873 1.10094 33.9295V35.916C1.10094 35.9582 1.11025 35.9958 1.1285 36.0288C1.14712 36.0617 1.1797 36.0882 1.22445 36.1072C1.2513 36.1179 1.29569 36.129 1.3569 36.1412C1.41776 36.1533 1.47003 36.1601 1.51299 36.1616V36.2987Z" fill="#148E62"/>
<path d="M17.8933 40.0913H17.1351C16.9898 39.865 16.8269 39.6409 16.649 39.4179C16.4703 39.1952 16.2834 38.979 16.088 38.7699H16.0386V39.7104C16.0386 39.7526 16.0465 39.7895 16.0622 39.8228C16.0783 39.8561 16.107 39.8826 16.1492 39.9026C16.1693 39.9116 16.2072 39.9223 16.2623 39.9352C16.3175 39.9477 16.3636 39.9549 16.3998 39.9559V40.0913H15.2789V39.9559L15.4064 39.9445C15.4622 39.9398 15.5016 39.932 15.5245 39.9216C15.5621 39.9051 15.59 39.8804 15.6072 39.8482C15.6244 39.8163 15.633 39.7773 15.633 39.7311V37.7812C15.633 37.7382 15.6262 37.7003 15.6108 37.6687C15.5968 37.6372 15.5675 37.6115 15.5245 37.5907C15.4901 37.5742 15.4497 37.5596 15.4024 37.547C15.3555 37.5338 15.3147 37.5266 15.2789 37.5241V37.3892H16.3998V37.5241C16.3647 37.5256 16.3203 37.5316 16.267 37.5413C16.2136 37.5517 16.1746 37.5606 16.1492 37.5699C16.1055 37.5853 16.0762 37.6108 16.0615 37.6458C16.0465 37.6816 16.0386 37.7207 16.0386 37.7622V38.6955H16.0762C16.1907 38.5988 16.3031 38.4979 16.4138 38.3933C16.5244 38.2888 16.6243 38.1839 16.7148 38.0801C16.8147 37.9652 16.8885 37.8721 16.9343 37.803C16.9805 37.7343 17.0037 37.6727 17.0037 37.619C17.0037 37.6004 16.9923 37.5846 16.9686 37.5724C16.9454 37.5606 16.9178 37.551 16.8874 37.5431C16.8523 37.5356 16.8204 37.5306 16.7925 37.5288C16.7779 37.5276 16.7647 37.5268 16.7529 37.5261L16.7517 37.526L16.7238 37.5241V37.3892H17.7372V37.5241L17.7333 37.5243L17.7264 37.5248L17.7122 37.5263L17.7 37.5273C17.6904 37.5282 17.6801 37.5291 17.6689 37.5298C17.6506 37.5316 17.6331 37.5334 17.6155 37.5374C17.5973 37.5413 17.5747 37.5456 17.5464 37.551C17.5024 37.5606 17.4562 37.5767 17.409 37.5989C17.3606 37.6219 17.322 37.6491 17.2919 37.6824L17.2728 37.7039C17.1473 37.8455 17.0173 37.9922 16.8824 38.1431C16.7399 38.3017 16.5992 38.4467 16.4592 38.5773C16.6522 38.7957 16.8122 38.9836 16.9382 39.1408C17.0646 39.2983 17.1988 39.4666 17.3413 39.6452C17.3957 39.7143 17.4505 39.7687 17.5049 39.8102C17.5597 39.8514 17.6066 39.8826 17.6456 39.9026C17.6785 39.9191 17.7201 39.932 17.7695 39.9413C17.8189 39.9495 17.8604 39.9549 17.8933 39.9559V40.0913Z" fill="#148E62"/>
<path d="M12.9022 37.5313C12.8664 37.5328 12.8116 37.5428 12.7382 37.5621C12.6648 37.5811 12.6115 37.6004 12.5804 37.6205C12.5342 37.6527 12.5038 37.7135 12.488 37.8038C12.4719 37.8936 12.464 38.0082 12.464 38.1463V40.1253H12.2983L10.6608 37.9144V39.308C10.6608 39.4641 10.6705 39.5844 10.6902 39.6682C10.7099 39.7519 10.7403 39.8117 10.7804 39.8468C10.8097 39.8747 10.8702 39.9009 10.9612 39.9248C11.0528 39.9495 11.1133 39.9621 11.1427 39.9631V40.0985H10.0343V39.9631C10.068 39.9606 10.126 39.9485 10.2072 39.9263C10.2885 39.9041 10.3393 39.884 10.3601 39.8665C10.4041 39.8307 10.4346 39.7759 10.451 39.7032C10.4679 39.6306 10.4757 39.5056 10.4757 39.3288V37.9981C10.4757 37.9398 10.4657 37.8814 10.4453 37.8227C10.4249 37.7644 10.3977 37.7193 10.3633 37.6874C10.3175 37.6459 10.2559 37.6094 10.1779 37.5797C10.1002 37.5503 10.0368 37.5342 9.98816 37.5313V37.3964H10.7596L12.2793 39.457V38.1711C12.2793 38.0139 12.2689 37.8929 12.2489 37.8084C12.2288 37.7239 12.1995 37.6681 12.1612 37.6402C12.1254 37.6158 12.0674 37.5925 11.9868 37.5693C11.9063 37.5464 11.8451 37.5342 11.8028 37.5313V37.3964H12.9022V37.5313Z" fill="#148E62"/>
<path fill-rule="evenodd" clip-rule="evenodd" d="M7.61734 40.0938H6.49218V39.9585C6.59098 39.952 6.67296 39.9395 6.73847 39.9202C6.80434 39.9012 6.83656 39.8779 6.83656 39.85C6.83656 39.8382 6.83549 39.8246 6.83298 39.8085C6.83012 39.7913 6.82654 39.7773 6.82117 39.7641L6.59707 39.1587H5.65054C5.61474 39.2471 5.5861 39.3248 5.56355 39.3911C5.54136 39.4566 5.52095 39.5178 5.50377 39.5736C5.4873 39.628 5.47584 39.6732 5.4694 39.7068C5.46331 39.7412 5.46009 39.7695 5.46009 39.7906C5.46009 39.8414 5.49983 39.8811 5.57966 39.9091C5.65949 39.937 5.74971 39.9535 5.84994 39.9585V40.0938H4.83325V39.9585C4.86654 39.956 4.90771 39.9488 4.95712 39.9363C5.00616 39.9248 5.04733 39.9084 5.07919 39.8883C5.13003 39.8536 5.16869 39.8181 5.19661 39.7806C5.22489 39.7426 5.2521 39.6914 5.27859 39.6248C5.41463 39.2865 5.56462 38.9053 5.72858 38.4825L5.87754 38.0981L5.87812 38.0966C5.98252 37.8271 6.0785 37.5793 6.16676 37.353H6.31855L7.21961 39.6843C7.23823 39.7337 7.26006 39.7741 7.28405 39.8045C7.30875 39.835 7.34169 39.8643 7.38536 39.8937C7.41436 39.9116 7.4523 39.9266 7.4992 39.9381C7.54646 39.9506 7.58548 39.957 7.61734 39.9585V40.0938ZM6.52798 38.9894L6.11843 37.9416L5.71677 38.9894H6.52798Z" fill="#148E62"/>
<path fill-rule="evenodd" clip-rule="evenodd" d="M2.19782 38.8383C2.27658 38.8917 2.34209 38.9618 2.39436 39.0485C2.44626 39.1347 2.4724 39.2396 2.4724 39.3624C2.4724 39.4881 2.44483 39.5969 2.39042 39.69C2.33564 39.7831 2.26476 39.859 2.17706 39.9187C2.09221 39.9764 1.99555 40.0215 1.88852 40.0519C1.78148 40.0823 1.67086 40.0977 1.5563 40.0977H0.276489V39.9624C0.306919 39.9596 0.352024 39.9545 0.409662 39.9459C0.468372 39.9377 0.510256 39.9281 0.535673 39.917C0.575052 39.8987 0.602617 39.8751 0.619801 39.8454C0.63591 39.8153 0.644503 39.777 0.644503 39.7304V37.7873C0.644503 37.7447 0.637342 37.7064 0.622307 37.6727C0.607988 37.6405 0.578991 37.6136 0.535673 37.5932C0.497368 37.5743 0.455126 37.5596 0.407871 37.5496C0.360975 37.5392 0.321955 37.5331 0.290092 37.5306V37.3956H1.53733C1.63363 37.3956 1.72599 37.4046 1.81441 37.4239C1.90284 37.4429 1.9866 37.4769 2.06644 37.5249C2.14126 37.5689 2.20319 37.6294 2.25116 37.7057C2.29985 37.7815 2.32419 37.8743 2.32419 37.9838C2.32419 38.079 2.30629 38.1635 2.27264 38.238C2.23827 38.3117 2.1903 38.3762 2.12765 38.4295C2.0693 38.4803 2.00236 38.5233 1.92682 38.5577C1.85128 38.5928 1.76966 38.62 1.6816 38.6389V38.6558C1.76 38.6651 1.84627 38.6844 1.94186 38.7141C2.03816 38.7435 2.12336 38.785 2.19782 38.8383ZM2.00236 39.294C2.00236 39.134 1.9483 39.0023 1.84126 38.8995C1.73386 38.7968 1.58064 38.7456 1.3816 38.7456C1.30034 38.7456 1.23125 38.7463 1.1754 38.7481C1.13764 38.7493 1.10643 38.7507 1.08154 38.7518L1.0501 38.7531V39.705C1.0501 39.7856 1.08232 39.8454 1.14712 39.8865C1.21192 39.9266 1.30141 39.9474 1.4174 39.9474C1.60642 39.9474 1.75141 39.8923 1.85128 39.7816C1.95152 39.671 2.00236 39.5085 2.00236 39.294ZM1.73888 38.4317C1.78649 38.3769 1.81907 38.3171 1.83732 38.2523C1.85594 38.1879 1.86489 38.1102 1.86489 38.0218C1.86489 37.8732 1.82408 37.7568 1.74281 37.6724C1.66191 37.5879 1.53375 37.5456 1.35798 37.5456C1.31788 37.5456 1.26669 37.5467 1.20547 37.5489L1.0501 37.5531V38.5913H1.29175C1.39592 38.5913 1.4847 38.5777 1.55881 38.5512C1.63363 38.5244 1.69377 38.485 1.73888 38.4317Z" fill="#148E62"/>
<path d="M21.4156 40.097H20.1791V39.9595C20.2142 39.957 20.2643 39.9531 20.3302 39.9477C20.3964 39.9431 20.4426 39.9352 20.4694 39.9248C20.5117 39.9084 20.5428 39.8851 20.5625 39.8561C20.5818 39.8271 20.5911 39.7866 20.5911 39.7351V37.7472C20.5911 37.7021 20.5843 37.6645 20.57 37.634C20.556 37.6036 20.5224 37.5786 20.4694 37.5574C20.4307 37.5424 20.3824 37.5277 20.3237 37.5141C20.265 37.5009 20.2167 37.493 20.1791 37.4901V37.353H21.4156V37.4901C21.3751 37.4916 21.3275 37.4962 21.2724 37.5048C21.2169 37.5127 21.1686 37.5238 21.127 37.5363C21.078 37.5524 21.0451 37.5775 21.0286 37.6115C21.0114 37.6466 21.0035 37.6856 21.0035 37.7278V39.714C21.0035 39.7562 21.0128 39.7942 21.0311 39.8271C21.0497 39.86 21.0823 39.8865 21.127 39.9055C21.1542 39.9162 21.1983 39.9273 21.2595 39.9391C21.3203 39.9517 21.3726 39.9585 21.4156 39.9595V40.097Z" fill="#148E62"/>
<path d="M17.5511 33.5032C17.4889 33.5386 17.4394 33.5687 17.4008 33.5937C17.3628 33.6192 17.3242 33.6528 17.2844 33.6947C17.2479 33.7323 17.22 33.7727 17.1996 33.8161C17.1803 33.8597 17.1663 33.9159 17.1584 33.9832H17.2519C17.3328 33.9832 17.3954 34.0033 17.4416 34.0434C17.4874 34.0828 17.511 34.1415 17.511 34.2181C17.511 34.2736 17.4903 34.3244 17.4495 34.3724C17.4083 34.42 17.3514 34.444 17.2801 34.444C17.167 34.444 17.0868 34.4071 17.0389 34.3337C16.9902 34.2596 16.9662 34.1629 16.9662 34.0434C16.9662 33.9585 16.9848 33.8812 17.0217 33.8118C17.0582 33.7416 17.1029 33.6793 17.1556 33.6245C17.21 33.5687 17.2673 33.5211 17.3281 33.4817C17.3883 33.443 17.4391 33.4108 17.4803 33.3861L17.5511 33.5032Z" fill="#148E62"/>














<script xmlns=""/><link xmlns=""/></svg>