<svg width="100" height="100" xmlns="http://www.w3.org/2000/svg" clip-rule="evenodd" version="1.1">

 <g>
  <title>Layer 1</title>
  <g stroke="null" id="svg_3">
   <path stroke="null" id="svg_4" d="m75.50549,31.54758c-0.85019,1.17182 -1.39644,2.53786 -1.63891,4.09728c-5.61475,12.78188 -15.44823,18.10835 -29.50044,15.9794c-9.29895,-3.42369 -15.30827,-9.84249 -18.02805,-19.25723c-1.02317,-17.37412 7.03479,-27.2076 24.17397,-29.50044c17.20531,1.77494 25.5364,11.33554 24.99343,28.68098z" fill="#fd5902"/>
  </g>
  <g id="svg_5"/>
  <g stroke="null" id="svg_33">
   <path stroke="null" id="svg_34" d="m75.28429,32.40476c0.38928,16.58751 -0.00342,33.03196 -1.17786,49.33333c0.38893,-15.21769 -0.00377,-30.29149 -1.17786,-45.22222c0.34853,-1.56469 1.13369,-2.93533 2.35572,-4.11111z" fill="#000000"/>
  </g>
  <g stroke="null" id="svg_39">
   <path stroke="null" id="svg_40" d="m27.10638,32.57236c2.64607,9.23799 8.49253,15.53629 17.53946,18.89571c13.67137,2.08898 23.23835,-3.13749 28.70094,-15.67942c0.7947,14.60116 1.0605,29.34222 0.79725,44.224c-3.67332,14.54648 -12.97458,21.11334 -27.90369,19.69978c-10.68847,-2.73787 -16.93363,-9.57249 -18.73533,-20.50385c-0.39862,-15.54273 -0.53145,-31.08867 -0.39862,-46.63622z" fill="#020101"/>
  </g>
 </g>
</svg>