<svg width="32" height="32" viewBox="0 0 32 32" fill="none" xmlns="http://www.w3.org/2000/svg">
<g clip-path="url(#clip0_2449_272)">
<path d="M31.9983 10.3636C31.9996 9.26131 31.9879 8.16556 31.7687 7.07765C31.3368 4.94623 30.2486 3.21968 28.5602 1.88232C27.0231 0.665114 25.2108 0.179276 23.2888 0.035614C23.0735 0.0251658 22.8569 0.00426959 22.6416 0.00426959C19.1748 0.00165756 15.708 -0.00226049 12.2411 0.00165756C11.0512 0.00296358 9.8599 0.0251658 8.66994 0.03692C8.54207 0.038226 8.4155 0.038226 8.28763 0.038226C8.20282 0.0107997 8.16237 0.0591223 8.13236 0.127035C7.82835 0.134871 7.51389 0.0943847 7.22162 0.155767C5.15744 0.593283 3.38423 1.51794 2.02855 3.19487C0.791607 4.72682 0.0191707 6.42073 0.0139516 8.41501C0.00351324 13.2642 -0.00301072 18.1135 -0.000401134 22.9627C-0.000401134 23.6353 -0.0108394 24.3066 0.141821 24.9766C0.614155 27.0349 1.66843 28.7157 3.29289 30.0518C4.64987 31.1671 6.22215 31.9181 7.94578 31.9507C12.7044 32.0421 17.4655 31.9808 22.2254 31.9677C22.977 31.9651 23.7246 31.9899 24.4814 31.8684C26.8183 31.4923 28.6946 30.3417 30.139 28.5185C31.4777 26.8285 31.9944 24.8316 31.9957 22.6937C31.997 18.5836 31.9918 14.4736 31.9983 10.3636ZM12.8714 24.8538C11.915 25.2966 10.9872 25.802 10.0452 26.2774C9.83511 26.3832 9.63548 26.5229 9.34321 26.5164C9.34321 24.4686 9.30015 22.4338 9.36669 20.4016C9.39018 19.6637 9.93819 19.0669 10.5541 18.7234C11.8549 17.9999 13.2171 17.386 14.6615 16.673V18.2793C14.6615 19.4953 14.6485 20.7111 14.6655 21.9271C14.685 23.2905 14.1331 24.27 12.8714 24.8538ZM22.639 18.3512C22.6338 19.4012 22.1002 20.2031 21.1751 20.6903C19.929 21.3446 18.6581 21.9532 17.3129 22.6232V21.8957C17.3129 17.9829 17.3337 14.0701 17.3011 10.1572C17.2894 8.68666 17.7839 7.63532 19.2113 7.05153C20.2121 6.64275 21.1633 6.10728 22.1289 5.611C22.4746 5.43338 22.6586 5.37461 22.656 5.89571C22.6416 10.0475 22.6599 14.1994 22.639 18.3512Z" fill="#FE6700"/>
</g>
<defs>
<clipPath id="clip0_2449_272">
<rect width="32" height="32" fill="white"/>
</clipPath>
</defs>
</svg>
