<svg width="32" height="32" viewBox="0 0 32 32" fill="none" xmlns="http://www.w3.org/2000/svg">
<path fill-rule="evenodd" clip-rule="evenodd" d="M6.88607 0H32V25.1139C32 28.9331 28.8752 32 25.1139 32H12.094C11.4575 32 10.821 31.9421 10.2423 31.8263L26.5606 11.1103L21.5841 6.07594H16.434L21.0054 10.9946L3.93489 28.8752C3.64557 28.5858 3.35624 28.2965 3.0669 28.0072L19.7902 11.1103L13.5407 4.91862H27.0813V18.4592L24.2459 15.3345L21.7576 18.575L29.7431 26.5606V2.31464H5.49727L14.4086 11.2261L0.0578661 21.2948C0 20.8317 0 20.4268 0 19.9638V6.88607C0 3.12477 3.12477 0 6.88607 0Z" fill="#FE0027"/>
</svg>
