<svg width="60" height="60" xmlns="http://www.w3.org/2000/svg">
 <title>cardmilli</title>

 <g>
  <title>background</title>
  <rect fill="none" id="canvas_background" height="62" width="62" y="-1" x="-1"/>
 </g>
 <g>
  <title>Layer 1</title>
  <path id="svg_1" fill="#fff" stroke="#ac8734" stroke-miterlimit="22.9256" stroke-width="0.2126px" fill-rule="evenodd" d="m15.13992,1.4986l29.76,0a4.86,4.86 0 0 1 5,4.73l0,47.24a4.86,4.86 0 0 1 -5,4.73l-29.76,0a4.86,4.86 0 0 1 -5,-4.73l0,-47.24a4.86,4.86 0 0 1 5,-4.73z"/>
  <path id="svg_2" fill="#ac8734" fill-rule="evenodd" d="m18.54992,43.0586l0,0.11l0,0.16a0.23,0.23 0 0 0 0.11,0.11l0.08,0l0.13,0.09a0.17,0.17 0 0 1 0,0.13a0.19,0.19 0 0 1 -0.1,0.17a0.49,0.49 0 0 1 -0.25,0.06l-1.31,0a0.63,0.63 0 0 1 -0.26,-0.05a0.18,0.18 0 0 1 -0.09,-0.18a0.19,0.19 0 0 1 0.07,-0.16l0.1,-0.06l0.08,0a0.27,0.27 0 0 0 0.1,-0.11l0,-0.16l0,-3.51a0.7,0.7 0 0 0 0,-0.16a0.18,0.18 0 0 0 -0.11,-0.1l-0.08,0l-0.12,-0.09a0.16,0.16 0 0 1 -0.05,-0.13a0.17,0.17 0 0 1 0.1,-0.18a0.54,0.54 0 0 1 0.25,-0.06l1.37,0a0.62,0.62 0 0 1 0.25,0.05c0.07,0 0.1,0.09 0.1,0.19a0.18,0.18 0 0 1 -0.07,0.15l-0.1,0.07l-0.08,0a0.22,0.22 0 0 0 -0.09,0.08a0.3,0.3 0 0 0 0,0.18l0,1.69l1.18,-0.9l0.34,-0.32l0.26,-0.28a0.87,0.87 0 0 0 0.23,-0.34q0,-0.09 -0.15,-0.18a0.25,0.25 0 0 1 -0.16,-0.22a0.18,0.18 0 0 1 0.1,-0.16a0.56,0.56 0 0 1 0.23,-0.05l1.05,0l0.13,0a0.23,0.23 0 0 1 0.17,0.23a0.19,0.19 0 0 1 -0.08,0.14a0.34,0.34 0 0 1 -0.16,0.1a1.38,1.38 0 0 0 -0.43,0.32l-0.24,0.26l-0.93,0.93a10,10 0 0 1 0.9,1.05c0.25,0.34 0.5,0.73 0.76,1.16l0.13,0.2a0.56,0.56 0 0 0 0.2,0.16l0.15,0.09a0.22,0.22 0 0 1 0.05,0.16c0,0.08 -0.06,0.14 -0.17,0.18l-0.18,0l-1.37,0a1,1 0 0 1 -0.29,0a0.19,0.19 0 0 1 -0.16,-0.2a0.29,0.29 0 0 1 0.12,-0.2c0.09,-0.06 0.13,-0.11 0.13,-0.14a2.16,2.16 0 0 0 -0.51,-0.91a7.8,7.8 0 0 0 -0.74,-0.88l-0.56,0.42l-0.03,1.09z"/>
  <path id="svg_3" fill="#ac8734" fill-rule="evenodd" d="m26.47992,41.4286a2.82,2.82 0 0 0 -0.3,-1.38a1.25,1.25 0 0 0 -1.17,-0.73a1.23,1.23 0 0 0 -0.7,0.21a1.74,1.74 0 0 0 -0.47,0.55a2.94,2.94 0 0 0 -0.22,0.61c0,0.11 0,0.22 0,0.32s0,0.23 0,0.37a2.87,2.87 0 0 0 0.3,1.38a1.28,1.28 0 0 0 2.31,0a2.75,2.75 0 0 0 0.31,-1.37l-0.06,0.04zm-3.51,1.86a2.59,2.59 0 0 1 -0.81,-1.89a2.38,2.38 0 0 1 0.82,-1.86a2.9,2.9 0 0 1 2,-0.74a3,3 0 0 1 2,0.71a2.4,2.4 0 0 1 0.85,1.89a2.37,2.37 0 0 1 -0.85,1.88a3,3 0 0 1 -2.05,0.75a3.07,3.07 0 0 1 -1.08,-0.19a2.73,2.73 0 0 1 -0.93,-0.55l0.05,0z"/>
  <path id="svg_4" fill="#ac8734" fill-rule="evenodd" d="m29.85992,41.5086a2.76,2.76 0 0 0 1.06,-0.33a1,1 0 0 0 0.54,-0.87a0.84,0.84 0 0 0 -0.28,-0.68a1.12,1.12 0 0 0 -0.76,-0.25l-0.28,0a0.54,0.54 0 0 0 -0.18,0.1a0.3,0.3 0 0 0 -0.1,0.21l0,1.8l0,0.02zm0,1.56l0,0.14l0,0.11l0.06,0.08l0.18,0.08c0.09,0 0.15,0.06 0.17,0.1a0.18,0.18 0 0 1 0,0.14a0.19,0.19 0 0 1 -0.15,0.19a1.31,1.31 0 0 1 -0.27,0l-1.42,0a0.63,0.63 0 0 1 -0.26,-0.05a0.18,0.18 0 0 1 -0.09,-0.18a0.19,0.19 0 0 1 0.07,-0.16l0.1,-0.06l0.08,-0.05s0.07,-0.05 0.1,-0.1l0,-0.16l0,-3.52a0.63,0.63 0 0 0 0,-0.16a0.2,0.2 0 0 0 -0.11,-0.11l-0.08,0l-0.12,-0.08a0.16,0.16 0 0 1 0,-0.13a0.17,0.17 0 0 1 0.1,-0.17a0.54,0.54 0 0 1 0.25,-0.06l2.23,0a5.17,5.17 0 0 1 0.74,0.05a2.08,2.08 0 0 1 0.66,0.2a1.42,1.42 0 0 1 0.52,0.45a1.18,1.18 0 0 1 0.2,0.67a1.25,1.25 0 0 1 -0.32,0.83a2.2,2.2 0 0 1 -0.75,0.54a4.08,4.08 0 0 1 -0.93,0.29a5.16,5.16 0 0 1 -1,0.1l0.04,1.02z"/>
  <path id="svg_5" fill="#ac8734" fill-rule="evenodd" d="m34.80992,39.7786l0,-0.09a0.54,0.54 0 0 0 0,-0.22s-0.12,-0.06 -0.25,-0.06a1.12,1.12 0 0 0 -0.77,0.29a1,1 0 0 1 -0.4,0.27c-0.18,0 -0.27,-0.08 -0.27,-0.26l0,-0.12l0,-0.1c0,-0.1 0,-0.17 0,-0.2a0.24,0.24 0 0 1 0,-0.09a0.55,0.55 0 0 1 0.1,-0.25a0.22,0.22 0 0 1 0.12,-0.05l4.12,0a0.28,0.28 0 0 1 0.16,0.05a0.66,0.66 0 0 1 0.11,0.25l0.06,0.29l0,0.15l0,0.07c0,0.18 -0.09,0.26 -0.27,0.26s-0.2,-0.09 -0.4,-0.28a1.07,1.07 0 0 0 -0.77,-0.28a0.35,0.35 0 0 0 -0.24,0.06a0.45,0.45 0 0 0 -0.05,0.22l0,3.48l0,0.16a0.23,0.23 0 0 0 0.11,0.11l0.08,0l0.13,0.09a0.17,0.17 0 0 1 0,0.13a0.19,0.19 0 0 1 -0.1,0.17a0.49,0.49 0 0 1 -0.25,0.06l-1.37,0a0.63,0.63 0 0 1 -0.26,-0.05a0.18,0.18 0 0 1 -0.09,-0.18a0.19,0.19 0 0 1 0.07,-0.16l0.1,-0.06l0.08,0a0.22,0.22 0 0 0 0.1,-0.11l0,-0.16l0.15,-3.39z"/>
  <path id="svg_6" fill="#ac8734" fill-rule="evenodd" d="m39.81992,43.0586l0,0.11l0,0.16a0.23,0.23 0 0 0 0.11,0.11l0.08,0l0.13,0.09a0.17,0.17 0 0 1 0,0.13a0.19,0.19 0 0 1 -0.1,0.17a0.49,0.49 0 0 1 -0.25,0.06l-1.37,0a0.63,0.63 0 0 1 -0.26,-0.05a0.18,0.18 0 0 1 -0.09,-0.18a0.19,0.19 0 0 1 0.07,-0.16l0.1,-0.06l0.08,0a0.22,0.22 0 0 0 0.1,-0.11l0,-0.16l0,-3.51a0.7,0.7 0 0 0 0,-0.16a0.18,0.18 0 0 0 -0.11,-0.1l-0.08,0l-0.12,-0.09a0.16,0.16 0 0 1 0,-0.13a0.17,0.17 0 0 1 0.1,-0.18a0.54,0.54 0 0 1 0.25,-0.06l1.37,0a0.58,0.58 0 0 1 0.25,0.05c0.07,0 0.1,0.09 0.1,0.19a0.18,0.18 0 0 1 -0.07,0.15l-0.1,0.07l-0.08,0a0.22,0.22 0 0 0 -0.09,0.08a0.3,0.3 0 0 0 0,0.18l0,2.35l2.15,-2.06l0,-0.32a0.7,0.7 0 0 0 0,-0.16a0.18,0.18 0 0 0 -0.11,-0.1l-0.08,0l-0.12,-0.09a0.16,0.16 0 0 1 -0.05,-0.13a0.17,0.17 0 0 1 0.11,-0.18a0.48,0.48 0 0 1 0.24,-0.06l1.33,0a0.67,0.67 0 0 1 0.26,0.05a0.19,0.19 0 0 1 0.1,0.19a0.19,0.19 0 0 1 -0.08,0.15l-0.1,0.07l-0.08,0a0.22,0.22 0 0 0 -0.09,0.08a0.4,0.4 0 0 0 0,0.18l0,3.51l0,0.16a0.21,0.21 0 0 0 0.1,0.11l0.08,0a0.4,0.4 0 0 1 0.13,0.09a0.17,0.17 0 0 1 0.05,0.13a0.2,0.2 0 0 1 -0.11,0.17a0.49,0.49 0 0 1 -0.25,0.06l-1.37,0a0.58,0.58 0 0 1 -0.25,-0.05a0.17,0.17 0 0 1 -0.1,-0.18a0.19,0.19 0 0 1 0.07,-0.16l0.1,-0.06l0.08,0a0.22,0.22 0 0 0 0.1,-0.11l0,-0.16l0,-2.47l-2.15,2.06l0.02,0.33z"/>
  <path id="svg_7" fill="#ac8734" fill-rule="evenodd" d="m19.95992,47.3386a0.79,0.79 0 0 1 0.18,-0.28a0.44,0.44 0 0 1 0.3,-0.07l1.34,0a0.24,0.24 0 0 1 0.25,0.24a0.23,0.23 0 0 1 -0.09,0.18l-0.19,0.08a0.22,0.22 0 0 0 -0.17,0.11a0.47,0.47 0 0 0 0,0.23l0,3.42l0,0.17s0,0.07 0.11,0.1l0.08,0a0.53,0.53 0 0 1 0.13,0.1a0.17,0.17 0 0 1 0,0.12a0.2,0.2 0 0 1 -0.11,0.18a0.48,0.48 0 0 1 -0.24,0.06l-1.38,0a0.58,0.58 0 0 1 -0.25,-0.05a0.19,0.19 0 0 1 -0.1,-0.19a0.26,0.26 0 0 1 0.07,-0.16l0.1,-0.06l0.08,0a0.17,0.17 0 0 0 0.1,-0.1l0,-0.17l0,-3.09l-1.16,2.76l-0.13,0.26a0.43,0.43 0 0 1 -0.4,0.18a1.19,1.19 0 0 1 -0.34,0a0.55,0.55 0 0 1 -0.2,-0.25l-1.27,-2.83l0,3l0,0.11l0,0.09l0.18,0.08c0.1,0 0.16,0.06 0.18,0.1a0.16,0.16 0 0 1 0,0.13c0,0.1 -0.06,0.16 -0.18,0.2l-0.31,0l-0.78,0l-0.16,0c-0.12,0 -0.18,-0.09 -0.18,-0.2a0.23,0.23 0 0 1 0.16,-0.22l0.22,-0.09a0.32,0.32 0 0 0 0.08,-0.13a0.36,0.36 0 0 0 0,-0.1s0,-0.07 0,-0.1l0,-3.3l0,-0.16a0.31,0.31 0 0 0 -0.08,-0.13a0.64,0.64 0 0 0 -0.22,-0.12l-0.17,-0.06a0.17,0.17 0 0 1 -0.08,-0.17a0.2,0.2 0 0 1 0.14,-0.2l0.27,0l1.57,0a0.4,0.4 0 0 1 0.34,0.13s0.07,0.15 0.16,0.35l1,2.47l1.15,-2.62z"/>
  <path id="svg_8" fill="#ac8734" fill-rule="evenodd" d="m24.01992,51.1386l0,0.11l0,0.17s0,0.07 0.1,0.1l0.08,0a0.58,0.58 0 0 1 0.13,0.1a0.14,0.14 0 0 1 0.05,0.12a0.2,0.2 0 0 1 -0.11,0.18a0.49,0.49 0 0 1 -0.25,0.06l-1.37,0a0.58,0.58 0 0 1 -0.25,-0.05a0.19,0.19 0 0 1 -0.1,-0.19a0.21,0.21 0 0 1 0.07,-0.16l0.1,-0.06l0.08,0a0.17,0.17 0 0 0 0.1,-0.1l0,-0.17l0,-3.5a0.44,0.44 0 0 0 0,-0.17s0,-0.07 -0.11,-0.1l-0.08,0l-0.12,-0.08a0.21,0.21 0 0 1 0.06,-0.32a0.6,0.6 0 0 1 0.24,0l1.37,0a0.68,0.68 0 0 1 0.26,0a0.19,0.19 0 0 1 0.1,0.19a0.24,0.24 0 0 1 -0.07,0.16l-0.11,0.06l-0.08,0a0.32,0.32 0 0 0 -0.09,0.08a0.49,0.49 0 0 0 0,0.19l0,2.38l2.15,-2.06l0,-0.32a0.44,0.44 0 0 0 0,-0.17s-0.05,-0.07 -0.11,-0.1l-0.07,0l-0.13,-0.08a0.26,0.26 0 0 1 0,-0.14a0.2,0.2 0 0 1 0.11,-0.18a0.62,0.62 0 0 1 0.25,0l1.37,0a0.62,0.62 0 0 1 0.25,0c0.07,0 0.1,0.09 0.1,0.19a0.2,0.2 0 0 1 -0.07,0.16l-0.1,0.06l-0.08,0a0.18,0.18 0 0 0 -0.09,0.08a0.36,0.36 0 0 0 0,0.19l0,3.5l0,0.17s0,0.07 0.11,0.1l0.08,0a0.53,0.53 0 0 1 0.13,0.1s0,0.06 0,0.12a0.2,0.2 0 0 1 -0.11,0.18a0.45,0.45 0 0 1 -0.24,0.06l-1.37,0a0.6,0.6 0 0 1 -0.26,-0.05a0.19,0.19 0 0 1 -0.1,-0.19a0.26,0.26 0 0 1 0.07,-0.16l0.11,-0.06l0.07,0a0.21,0.21 0 0 0 0.11,-0.1l0,-0.17l0,-2.46l-2.15,2.06l-0.03,0.27z"/>
  <path id="svg_9" fill="#ac8734" fill-rule="evenodd" d="m29.72992,47.7086c0,-0.07 0,-0.13 -0.17,-0.2a0.34,0.34 0 0 1 -0.16,-0.29c0,-0.15 0.13,-0.23 0.4,-0.23l3,0a0.68,0.68 0 0 1 0.26,0a0.19,0.19 0 0 1 0.1,0.19a0.21,0.21 0 0 1 -0.08,0.16l-0.1,0.06l-0.08,0a0.32,0.32 0 0 0 -0.09,0.08a0.49,0.49 0 0 0 0,0.19l0,3.5l0,0.17s0.05,0.07 0.1,0.1l0.08,0a0.38,0.38 0 0 1 0.13,0.1a0.14,0.14 0 0 1 0,0.12a0.2,0.2 0 0 1 -0.11,0.18a0.49,0.49 0 0 1 -0.25,0.06l-1.37,0a0.58,0.58 0 0 1 -0.25,-0.05a0.19,0.19 0 0 1 -0.1,-0.19a0.21,0.21 0 0 1 0.07,-0.16l0.1,-0.06l0.08,0a0.17,0.17 0 0 0 0.1,-0.1l0,-0.17l0,-3.26a0.48,0.48 0 0 0 -0.09,-0.34l-0.1,-0.05a1.32,1.32 0 0 0 -0.32,0l-0.14,0a0.61,0.61 0 0 0 -0.45,0.27a3.64,3.64 0 0 0 -0.34,0.57a13.83,13.83 0 0 0 -0.66,1.59a4.12,4.12 0 0 0 -0.31,1.29a0.37,0.37 0 0 0 0.26,0.33c0.17,0.09 0.26,0.18 0.26,0.27a0.19,0.19 0 0 1 -0.15,0.19l-0.27,0l-0.82,0a0.72,0.72 0 0 1 -0.25,0a0.2,0.2 0 0 1 -0.15,-0.19a0.17,0.17 0 0 1 0,-0.12a0.32,0.32 0 0 1 0.12,-0.12a0.65,0.65 0 0 0 0.17,-0.17l0.1,-0.26c0.14,-0.49 0.3,-1 0.48,-1.43c0.07,-0.19 0.16,-0.4 0.25,-0.62l0.36,-0.78l0.15,-0.33a1.08,1.08 0 0 0 0.24,-0.3z"/>
  <path id="svg_10" fill="#ac8734" fill-rule="evenodd" d="m35.06992,47.7086c0,-0.07 -0.06,-0.13 -0.17,-0.2a0.34,0.34 0 0 1 -0.16,-0.29c0,-0.15 0.13,-0.23 0.4,-0.23l3,0a0.6,0.6 0 0 1 0.25,0c0.07,0 0.1,0.09 0.1,0.19a0.2,0.2 0 0 1 -0.07,0.16l-0.1,0.06l-0.08,0a0.32,0.32 0 0 0 -0.09,0.08a0.49,0.49 0 0 0 0,0.19l0,3.5l0,0.17a0.22,0.22 0 0 0 0.11,0.1l0.08,0a0.38,0.38 0 0 1 0.13,0.1s0,0.06 0,0.12a0.19,0.19 0 0 1 -0.1,0.18a0.49,0.49 0 0 1 -0.25,0.06l-1.37,0a0.67,0.67 0 0 1 -0.26,-0.05a0.2,0.2 0 0 1 -0.09,-0.19a0.21,0.21 0 0 1 0.07,-0.16l0.1,-0.06l0.08,0a0.19,0.19 0 0 0 0.1,-0.1l0,-0.17l0,-3.26a0.48,0.48 0 0 0 -0.09,-0.34l-0.1,-0.05a1.32,1.32 0 0 0 -0.32,0l-0.15,0a0.62,0.62 0 0 0 -0.44,0.27a3.64,3.64 0 0 0 -0.34,0.57a15.85,15.85 0 0 0 -0.67,1.59a4.33,4.33 0 0 0 -0.3,1.29a0.37,0.37 0 0 0 0.26,0.33c0.17,0.09 0.25,0.18 0.25,0.27a0.19,0.19 0 0 1 -0.14,0.19l-0.27,0l-0.82,0a0.67,0.67 0 0 1 -0.25,0a0.2,0.2 0 0 1 -0.15,-0.19a0.17,0.17 0 0 1 0,-0.12a0.32,0.32 0 0 1 0.12,-0.12a0.65,0.65 0 0 0 0.17,-0.17l0.09,-0.26a13.37,13.37 0 0 1 0.49,-1.43c0.07,-0.19 0.15,-0.4 0.25,-0.62l0.36,-0.78l0.15,-0.33a1.08,1.08 0 0 0 0.22,-0.3z"/>
  <path id="svg_11" fill="#ac8734" fill-rule="evenodd" d="m40.30992,46.3986a1,1 0 0 1 -0.29,0c-0.06,0 -0.09,-0.11 -0.09,-0.22s0,-0.19 0.07,-0.22s0.13,-0.05 0.28,-0.05l2.77,0a1.05,1.05 0 0 1 0.3,0c0.06,0 0.09,0.09 0.09,0.2s0,0.21 -0.08,0.24a0.46,0.46 0 0 1 -0.28,0.06l-2.77,-0.01zm0.33,4.74l0,0.11l0,0.17s0,0.07 0.1,0.1l0.08,0a0.58,0.58 0 0 1 0.13,0.1a0.14,0.14 0 0 1 0.05,0.12a0.2,0.2 0 0 1 -0.11,0.18a0.49,0.49 0 0 1 -0.25,0.06l-1.33,0a0.58,0.58 0 0 1 -0.25,-0.05a0.19,0.19 0 0 1 -0.1,-0.19a0.21,0.21 0 0 1 0.07,-0.16l0.1,-0.06l0.08,0a0.17,0.17 0 0 0 0.1,-0.1l0,-0.17l0,-3.5a0.79,0.79 0 0 0 0,-0.17s-0.05,-0.07 -0.11,-0.1l-0.08,0l-0.12,-0.08a0.21,0.21 0 0 1 0.06,-0.32a0.6,0.6 0 0 1 0.24,0l1.37,0a0.68,0.68 0 0 1 0.26,0a0.19,0.19 0 0 1 0.1,0.19a0.24,0.24 0 0 1 -0.07,0.16l-0.11,0.06l-0.08,0a0.32,0.32 0 0 0 -0.09,0.08a0.49,0.49 0 0 0 0,0.19l0,2.38l2.15,-2.06l0,-0.32a0.44,0.44 0 0 0 0,-0.17s0,-0.07 -0.11,-0.1l-0.07,0l-0.13,-0.08a0.26,0.26 0 0 1 0,-0.14a0.2,0.2 0 0 1 0.11,-0.18a0.62,0.62 0 0 1 0.25,0l1.37,0a0.62,0.62 0 0 1 0.25,0c0.07,0 0.1,0.09 0.1,0.19a0.2,0.2 0 0 1 -0.07,0.16l-0.1,0.06l-0.08,0a0.18,0.18 0 0 0 -0.09,0.08a0.36,0.36 0 0 0 0,0.19l0,3.5l0,0.17s0.05,0.07 0.11,0.1l0.08,0a0.53,0.53 0 0 1 0.13,0.1s0,0.06 0,0.12a0.2,0.2 0 0 1 -0.11,0.18a0.45,0.45 0 0 1 -0.24,0.06l-1.37,0a0.6,0.6 0 0 1 -0.26,-0.05a0.19,0.19 0 0 1 -0.1,-0.19a0.26,0.26 0 0 1 0.07,-0.16l0.11,-0.06l0.07,0a0.21,0.21 0 0 0 0.11,-0.1l0,-0.17l0,-2.46l-2.15,2.06l-0.07,0.27z"/>
  <path id="svg_12" fill="#ac8734" fill-rule="evenodd" d="m40.50992,23.5486a4.17,4.17 0 0 0 0,-7.77l-0.3,-0.13a4.13,4.13 0 0 0 0.32,-2.7a4.5,4.5 0 0 0 -6,-3.09l-0.31,0.11a4.44,4.44 0 0 0 -1.78,-2.13a4.58,4.58 0 0 0 -6.52,1.85l-0.13,0.28a4.76,4.76 0 0 0 -2.84,-0.3a4.23,4.23 0 0 0 -3.24,5.69l0.11,0.29a4.54,4.54 0 0 0 -2.23,1.7a4.16,4.16 0 0 0 1.93,6.2l0.3,0.13a4.21,4.21 0 0 0 -0.32,2.71a4.51,4.51 0 0 0 6,3.08l0.31,-0.11a4.39,4.39 0 0 0 1.78,2.13a4.58,4.58 0 0 0 6.52,-1.84l0.13,-0.29a4.76,4.76 0 0 0 2.84,0.3a4.23,4.23 0 0 0 3.23,-5.65l-0.12,-0.29l0.3,-0.13l0.02,-0.04zm-17.4,-15.75l0.78,-2.26l2.23,1.07a6.63,6.63 0 0 1 7.82,0l2.24,-1.07l0.78,2.26a6.24,6.24 0 0 1 5.53,5.27l2.37,0.74l-1.12,2.13a5.86,5.86 0 0 1 0,7.45l1.12,2.13l-2.37,0.74a6.24,6.24 0 0 1 -5.53,5.27l-0.78,2.26l-2.24,-1.07a6.63,6.63 0 0 1 -7.82,0l-2.23,1.07l-0.78,-2.26a6.24,6.24 0 0 1 -5.53,-5.27l-2.38,-0.74l1.13,-2.13a5.84,5.84 0 0 1 0,-7.45l-1.13,-2.13l2.38,-0.74a6.24,6.24 0 0 1 5.53,-5.27z"/>
  <path id="svg_13" fill="#ac8734" stroke="#fff" stroke-miterlimit="22.9256" stroke-width="0.2126px" fill-rule="evenodd" d="m42.14992,13.3286l2.2,0.69l-1,2a6.32,6.32 0 0 0 -1.24,-1.06a5.67,5.67 0 0 0 0.08,-1.59l-0.04,-0.04zm1.16,10l1,2l-2.2,0.69l0,0a5.67,5.67 0 0 0 -0.08,-1.59a6,6 0 0 0 1.24,-1.06l0.04,-0.04zm-6.62,7.86l-0.73,2.09l-2.06,-1a6,6 0 0 0 1.12,-1.18a6.61,6.61 0 0 0 1.66,0.08l0.01,0.01zm-10.52,1.1l-2.07,1l-0.72,-2.09l0,0a6.23,6.23 0 0 0 1.67,-0.08a5.69,5.69 0 0 0 1.12,1.18l0,-0.01zm-8.26,-6.28l-2.2,-0.69l1.05,-2a6,6 0 0 0 1.24,1.06a5.32,5.32 0 0 0 -0.09,1.59l0,0.04zm-1.15,-10l-1.05,-2l2.2,-0.69l0,0a5.32,5.32 0 0 0 0.09,1.59a6.32,6.32 0 0 0 -1.24,1.06l0,0.04zm6.62,-7.87l0.72,-2.09l2.07,1a5.69,5.69 0 0 0 -1.12,1.18a6.67,6.67 0 0 0 -1.67,-0.08l0,-0.01zm10.52,-1.1l2.06,-1l0.73,2.09l0,0a6.67,6.67 0 0 0 -1.67,0.08a6.25,6.25 0 0 0 -1.12,-1.18l0,0.01z"/>
  <path id="svg_14" fill="none" stroke="#fff" stroke-miterlimit="22.9256" stroke-width="0.2126px" fill-rule="evenodd" d="m17.99992,14.9186a5.52,5.52 0 0 1 1.65,-5.14a6.23,6.23 0 0 1 5.4,-1.58a6.19,6.19 0 0 1 10,0a6.24,6.24 0 0 1 5.4,1.58a5.57,5.57 0 0 1 1.65,5.14a5.57,5.57 0 0 1 0,9.49a5.57,5.57 0 0 1 -1.65,5.14a6.24,6.24 0 0 1 -5.4,1.58a6.19,6.19 0 0 1 -10,0a6.2,6.2 0 0 1 -5.4,-1.58a5.52,5.52 0 0 1 -1.65,-5.14a5.57,5.57 0 0 1 0,-9.49z"/>
  <path id="svg_15" fill="none" stroke="#fff" stroke-miterlimit="22.9256" stroke-width="0.2126px" fill-rule="evenodd" d="m25.62992,29.7786a4.92,4.92 0 0 0 8.8,0a5,5 0 0 0 5.14,-1a4.42,4.42 0 0 0 1.08,-4.89a4.49,4.49 0 0 0 0,-8.37a4.44,4.44 0 0 0 -1.08,-4.89a5,5 0 0 0 -5.14,-1a4.92,4.92 0 0 0 -8.8,0a5,5 0 0 0 -5.13,1a4.43,4.43 0 0 0 -1.09,4.89a4.49,4.49 0 0 0 0,8.37a4.43,4.43 0 0 0 1.09,4.89a5,5 0 0 0 5.13,1z"/>
  <line id="svg_16" fill="none" stroke="#fff" stroke-miterlimit="22.9256" stroke-width="0.2126px" y2="5.7686" x2="28.98993" y1="6.8986" x1="29.19993"/>
  <line id="svg_17" fill="none" stroke="#fff" stroke-miterlimit="22.9256" stroke-width="0.2126px" y2="5.6886" x2="30.02993" y1="6.8286" x1="30.02993"/>
  <line id="svg_18" fill="none" stroke="#fff" stroke-miterlimit="22.9256" stroke-width="0.2126px" y2="5.7686" x2="31.06993" y1="6.8986" x1="30.86993"/>
  <line id="svg_19" fill="none" stroke="#fff" stroke-miterlimit="22.9256" stroke-width="0.2126px" y2="6.0286" x2="32.08993" y1="7.1086" x1="31.67993"/>
  <line id="svg_20" fill="none" stroke="#fff" stroke-miterlimit="22.9256" stroke-width="0.2126px" y2="6.4486" x2="33.03993" y1="7.4386" x1="32.43993"/>
  <line id="svg_21" fill="none" stroke="#fff" stroke-miterlimit="22.9256" stroke-width="0.2126px" y2="7.0186" x2="33.89993" y1="7.8986" x1="33.11993"/>
  <line id="svg_22" fill="none" stroke="#fff" stroke-miterlimit="22.9256" stroke-width="0.2126px" y2="7.7286" x2="34.63993" y1="8.4686" x1="33.71993"/>
  <line id="svg_23" fill="none" stroke="#fff" stroke-miterlimit="22.9256" stroke-width="0.2126px" y2="6.0286" x2="27.96993" y1="7.1086" x1="28.38993"/>
  <line id="svg_24" fill="none" stroke="#fff" stroke-miterlimit="22.9256" stroke-width="0.2126px" y2="6.4486" x2="27.01993" y1="7.4386" x1="27.62993"/>
  <line id="svg_25" fill="none" stroke="#fff" stroke-miterlimit="22.9256" stroke-width="0.2126px" y2="7.0286" x2="26.16993" y1="7.8986" x1="26.93993"/>
  <line id="svg_26" fill="none" stroke="#fff" stroke-miterlimit="22.9256" stroke-width="0.2126px" y2="7.7286" x2="25.41993" y1="8.4686" x1="26.34993"/>
  <line id="svg_27" fill="none" stroke="#fff" stroke-miterlimit="22.9256" stroke-width="0.2126px" y2="10.5486" x2="18.97993" y1="11.1986" x1="19.95993"/>
  <line id="svg_28" fill="none" stroke="#fff" stroke-miterlimit="22.9256" stroke-width="0.2126px" y2="9.7786" x2="19.64993" y1="10.5886" x1="20.49993"/>
  <line id="svg_29" fill="none" stroke="#fff" stroke-miterlimit="22.9256" stroke-width="0.2126px" y2="9.1386" x2="20.44993" y1="10.0786" x1="21.13993"/>
  <line id="svg_30" fill="none" stroke="#fff" stroke-miterlimit="22.9256" stroke-width="0.2126px" y2="8.6386" x2="21.35993" y1="9.6786" x1="21.86993"/>
  <line id="svg_31" fill="none" stroke="#fff" stroke-miterlimit="22.9256" stroke-width="0.2126px" y2="8.2986" x2="22.33993" y1="9.4086" x1="22.65993"/>
  <line id="svg_32" fill="none" stroke="#fff" stroke-miterlimit="22.9256" stroke-width="0.2126px" y2="8.1286" x2="23.37993" y1="9.2686" x1="23.47993"/>
  <line id="svg_33" fill="none" stroke="#fff" stroke-miterlimit="22.9256" stroke-width="0.2126px" y2="8.1286" x2="24.41993" y1="9.2686" x1="24.31993"/>
  <line id="svg_34" fill="none" stroke="#fff" stroke-miterlimit="22.9256" stroke-width="0.2126px" y2="11.4086" x2="18.44993" y1="11.8886" x1="19.53993"/>
  <line id="svg_35" fill="none" stroke="#fff" stroke-miterlimit="22.9256" stroke-width="0.2126px" y2="12.3486" x2="18.08993" y1="12.6386" x1="19.24993"/>
  <line id="svg_36" fill="none" stroke="#fff" stroke-miterlimit="22.9256" stroke-width="0.2126px" y2="13.3286" x2="17.90993" y1="13.4286" x1="19.10993"/>
  <line id="svg_37" fill="none" stroke="#fff" stroke-miterlimit="22.9256" stroke-width="0.2126px" y2="14.3286" x2="17.90993" y1="14.2286" x1="19.10993"/>
  <line id="svg_38" fill="none" stroke="#fff" stroke-miterlimit="22.9256" stroke-width="0.2126px" y2="20.6586" x2="15.43993" y1="20.4686" x1="16.61993"/>
  <line id="svg_39" fill="none" stroke="#fff" stroke-miterlimit="22.9256" stroke-width="0.2126px" y2="19.6686" x2="15.34993" y1="19.6686" x1="16.54993"/>
  <line id="svg_40" fill="none" stroke="#fff" stroke-miterlimit="22.9256" stroke-width="0.2126px" y2="18.6786" x2="15.43993" y1="18.8686" x1="16.61993"/>
  <line id="svg_41" fill="none" stroke="#fff" stroke-miterlimit="22.9256" stroke-width="0.2126px" y2="17.7086" x2="15.70993" y1="18.0986" x1="16.83993"/>
  <line id="svg_42" fill="none" stroke="#fff" stroke-miterlimit="22.9256" stroke-width="0.2126px" y2="16.8086" x2="16.14993" y1="17.3786" x1="17.18993"/>
  <line id="svg_43" fill="none" stroke="#fff" stroke-miterlimit="22.9256" stroke-width="0.2126px" y2="15.9886" x2="16.74993" y1="16.7286" x1="17.67993"/>
  <line id="svg_44" fill="none" stroke="#fff" stroke-miterlimit="22.9256" stroke-width="0.2126px" y2="15.2786" x2="17.49993" y1="16.1586" x1="18.26993"/>
  <line id="svg_45" fill="none" stroke="#fff" stroke-miterlimit="22.9256" stroke-width="0.2126px" y2="21.6286" x2="15.70993" y1="21.2386" x1="16.83993"/>
  <line id="svg_46" fill="none" stroke="#fff" stroke-miterlimit="22.9256" stroke-width="0.2126px" y2="22.5286" x2="16.14993" y1="21.9586" x1="17.18993"/>
  <line id="svg_47" fill="none" stroke="#fff" stroke-miterlimit="22.9256" stroke-width="0.2126px" y2="23.3486" x2="16.74993" y1="22.6086" x1="17.67993"/>
  <line id="svg_48" fill="none" stroke="#fff" stroke-miterlimit="22.9256" stroke-width="0.2126px" y2="24.0586" x2="17.49993" y1="23.1786" x1="18.26993"/>
  <line id="svg_49" fill="none" stroke="#fff" stroke-miterlimit="22.9256" stroke-width="0.2126px" y2="30.1986" x2="20.44993" y1="29.2586" x1="21.13993"/>
  <line id="svg_50" fill="none" stroke="#fff" stroke-miterlimit="22.9256" stroke-width="0.2126px" y2="29.5586" x2="19.64993" y1="28.7486" x1="20.49993"/>
  <line id="svg_51" fill="none" stroke="#fff" stroke-miterlimit="22.9256" stroke-width="0.2126px" y2="28.7886" x2="18.97993" y1="28.1386" x1="19.95993"/>
  <line id="svg_52" fill="none" stroke="#fff" stroke-miterlimit="22.9256" stroke-width="0.2126px" y2="27.9286" x2="18.44993" y1="27.4386" x1="19.53993"/>
  <line id="svg_53" fill="none" stroke="#fff" stroke-miterlimit="22.9256" stroke-width="0.2126px" y2="26.9886" x2="18.08993" y1="26.6886" x1="19.24993"/>
  <line id="svg_54" fill="none" stroke="#fff" stroke-miterlimit="22.9256" stroke-width="0.2126px" y2="26.0086" x2="17.90993" y1="25.9086" x1="19.10993"/>
  <line id="svg_55" fill="none" stroke="#fff" stroke-miterlimit="22.9256" stroke-width="0.2126px" y2="25.0086" x2="17.90993" y1="25.1086" x1="19.10993"/>
  <line id="svg_56" fill="none" stroke="#fff" stroke-miterlimit="22.9256" stroke-width="0.2126px" y2="30.6986" x2="21.35993" y1="29.6586" x1="21.86993"/>
  <line id="svg_57" fill="none" stroke="#fff" stroke-miterlimit="22.9256" stroke-width="0.2126px" y2="31.0386" x2="22.33993" y1="29.9286" x1="22.65993"/>
  <line id="svg_58" fill="none" stroke="#fff" stroke-miterlimit="22.9256" stroke-width="0.2126px" y2="31.2086" x2="23.37993" y1="30.0686" x1="23.47993"/>
  <line id="svg_59" fill="none" stroke="#fff" stroke-miterlimit="22.9256" stroke-width="0.2126px" y2="31.2086" x2="24.41993" y1="30.0686" x1="24.31993"/>
  <line id="svg_60" fill="none" stroke="#fff" stroke-miterlimit="22.9256" stroke-width="0.2126px" y2="33.5686" x2="31.07993" y1="32.4386" x1="30.86993"/>
  <line id="svg_61" fill="none" stroke="#fff" stroke-miterlimit="22.9256" stroke-width="0.2126px" y2="33.6486" x2="30.02993" y1="32.5086" x1="30.02993"/>
  <line id="svg_62" fill="none" stroke="#fff" stroke-miterlimit="22.9256" stroke-width="0.2126px" y2="33.5686" x2="28.98993" y1="32.4386" x1="29.19993"/>
  <line id="svg_63" fill="none" stroke="#fff" stroke-miterlimit="22.9256" stroke-width="0.2126px" y2="33.3086" x2="27.96993" y1="32.2286" x1="28.38993"/>
  <line id="svg_64" fill="none" stroke="#fff" stroke-miterlimit="22.9256" stroke-width="0.2126px" y2="32.8886" x2="27.02993" y1="31.8886" x1="27.62993"/>
  <line id="svg_65" fill="none" stroke="#fff" stroke-miterlimit="22.9256" stroke-width="0.2126px" y2="32.3086" x2="26.16993" y1="31.4386" x1="26.93993"/>
  <line id="svg_66" fill="none" stroke="#fff" stroke-miterlimit="22.9256" stroke-width="0.2126px" y2="31.6086" x2="25.42993" y1="30.8686" x1="26.34993"/>
  <line id="svg_67" fill="none" stroke="#fff" stroke-miterlimit="22.9256" stroke-width="0.2126px" y2="33.3086" x2="32.08993" y1="32.2286" x1="31.67993"/>
  <line id="svg_68" fill="none" stroke="#fff" stroke-miterlimit="22.9256" stroke-width="0.2126px" y2="32.8886" x2="33.03993" y1="31.8886" x1="32.43993"/>
  <line id="svg_69" fill="none" stroke="#fff" stroke-miterlimit="22.9256" stroke-width="0.2126px" y2="32.3086" x2="33.89993" y1="31.4386" x1="33.11993"/>
  <line id="svg_70" fill="none" stroke="#fff" stroke-miterlimit="22.9256" stroke-width="0.2126px" y2="31.6086" x2="34.63993" y1="30.8686" x1="33.71993"/>
  <line id="svg_71" fill="none" stroke="#fff" stroke-miterlimit="22.9256" stroke-width="0.2126px" y2="28.7886" x2="41.08993" y1="28.1386" x1="40.09993"/>
  <line id="svg_72" fill="none" stroke="#fff" stroke-miterlimit="22.9256" stroke-width="0.2126px" y2="29.5586" x2="40.40993" y1="28.7486" x1="39.55993"/>
  <line id="svg_73" fill="none" stroke="#fff" stroke-miterlimit="22.9256" stroke-width="0.2126px" y2="30.1986" x2="39.60993" y1="29.2586" x1="38.91993"/>
  <line id="svg_74" fill="none" stroke="#fff" stroke-miterlimit="22.9256" stroke-width="0.2126px" y2="30.6986" x2="38.69993" y1="29.6586" x1="38.19993"/>
  <line id="svg_75" fill="none" stroke="#fff" stroke-miterlimit="22.9256" stroke-width="0.2126px" y2="31.0386" x2="37.71993" y1="29.9286" x1="37.40993"/>
  <line id="svg_76" fill="none" stroke="#fff" stroke-miterlimit="22.9256" stroke-width="0.2126px" y2="31.2086" x2="36.68993" y1="30.0686" x1="36.57993"/>
  <line id="svg_77" fill="none" stroke="#fff" stroke-miterlimit="22.9256" stroke-width="0.2126px" y2="31.2086" x2="35.63993" y1="30.0686" x1="35.73993"/>
  <line id="svg_78" fill="none" stroke="#fff" stroke-miterlimit="22.9256" stroke-width="0.2126px" y2="27.9286" x2="41.60993" y1="27.4386" x1="40.51993"/>
  <line id="svg_79" fill="none" stroke="#fff" stroke-miterlimit="22.9256" stroke-width="0.2126px" y2="26.9886" x2="41.96993" y1="26.6886" x1="40.80993"/>
  <line id="svg_80" fill="none" stroke="#fff" stroke-miterlimit="22.9256" stroke-width="0.2126px" y2="26.0086" x2="42.14993" y1="25.9086" x1="40.94993"/>
  <line id="svg_81" fill="none" stroke="#fff" stroke-miterlimit="22.9256" stroke-width="0.2126px" y2="25.0086" x2="42.14993" y1="25.1086" x1="40.94993"/>
  <line id="svg_82" fill="none" stroke="#fff" stroke-miterlimit="22.9256" stroke-width="0.2126px" y2="18.6686" x2="44.61993" y1="18.8686" x1="43.43993"/>
  <line id="svg_83" fill="none" stroke="#fff" stroke-miterlimit="22.9256" stroke-width="0.2126px" y2="19.6686" x2="44.70993" y1="19.6686" x1="43.50993"/>
  <line id="svg_84" fill="none" stroke="#fff" stroke-miterlimit="22.9256" stroke-width="0.2126px" y2="20.6586" x2="44.61993" y1="20.4586" x1="43.43993"/>
  <line id="svg_85" fill="none" stroke="#fff" stroke-miterlimit="22.9256" stroke-width="0.2126px" y2="21.6286" x2="44.34993" y1="21.2386" x1="43.21993"/>
  <line id="svg_86" fill="none" stroke="#fff" stroke-miterlimit="22.9256" stroke-width="0.2126px" y2="22.5286" x2="43.90993" y1="21.9586" x1="42.86993"/>
  <line id="svg_87" fill="none" stroke="#fff" stroke-miterlimit="22.9256" stroke-width="0.2126px" y2="23.3486" x2="43.30993" y1="22.6086" x1="42.38993"/>
  <line id="svg_88" fill="none" stroke="#fff" stroke-miterlimit="22.9256" stroke-width="0.2126px" y2="24.0586" x2="42.56993" y1="23.1786" x1="41.78993"/>
  <line id="svg_89" fill="none" stroke="#fff" stroke-miterlimit="22.9256" stroke-width="0.2126px" y2="17.7086" x2="44.34993" y1="18.0986" x1="43.21993"/>
  <line id="svg_90" fill="none" stroke="#fff" stroke-miterlimit="22.9256" stroke-width="0.2126px" y2="16.8086" x2="43.90993" y1="17.3786" x1="42.86993"/>
  <line id="svg_91" fill="none" stroke="#fff" stroke-miterlimit="22.9256" stroke-width="0.2126px" y2="15.9886" x2="43.30993" y1="16.7286" x1="42.38993"/>
  <line id="svg_92" fill="none" stroke="#fff" stroke-miterlimit="22.9256" stroke-width="0.2126px" y2="15.2786" x2="42.56993" y1="16.1586" x1="41.78993"/>
  <line id="svg_93" fill="none" stroke="#fff" stroke-miterlimit="22.9256" stroke-width="0.2126px" y2="9.1386" x2="39.60993" y1="10.0786" x1="38.91993"/>
  <line id="svg_94" fill="none" stroke="#fff" stroke-miterlimit="22.9256" stroke-width="0.2126px" y2="9.7786" x2="40.40993" y1="10.5886" x1="39.55993"/>
  <line id="svg_95" fill="none" stroke="#fff" stroke-miterlimit="22.9256" stroke-width="0.2126px" y2="10.5486" x2="41.08993" y1="11.1986" x1="40.09993"/>
  <line id="svg_96" fill="none" stroke="#fff" stroke-miterlimit="22.9256" stroke-width="0.2126px" y2="11.4086" x2="41.60993" y1="11.8886" x1="40.51993"/>
  <line id="svg_97" fill="none" stroke="#fff" stroke-miterlimit="22.9256" stroke-width="0.2126px" y2="12.3486" x2="41.96993" y1="12.6386" x1="40.80993"/>
  <line id="svg_98" fill="none" stroke="#fff" stroke-miterlimit="22.9256" stroke-width="0.2126px" y2="13.3286" x2="42.14993" y1="13.4286" x1="40.94993"/>
  <line id="svg_99" fill="none" stroke="#fff" stroke-miterlimit="22.9256" stroke-width="0.2126px" y2="14.3286" x2="42.14993" y1="14.2286" x1="40.94993"/>
  <line id="svg_100" fill="none" stroke="#fff" stroke-miterlimit="22.9256" stroke-width="0.2126px" y2="8.6386" x2="38.69993" y1="9.6786" x1="38.19993"/>
  <line id="svg_101" fill="none" stroke="#fff" stroke-miterlimit="22.9256" stroke-width="0.2126px" y2="8.2986" x2="37.71993" y1="9.4086" x1="37.40993"/>
  <line id="svg_102" fill="none" stroke="#fff" stroke-miterlimit="22.9256" stroke-width="0.2126px" y2="8.1286" x2="36.68993" y1="9.2686" x1="36.57993"/>
  <line id="svg_103" fill="none" stroke="#fff" stroke-miterlimit="22.9256" stroke-width="0.2126px" y2="8.1286" x2="35.63993" y1="9.2686" x1="35.73993"/>
  <line id="svg_104" fill="none" stroke="#fff" stroke-miterlimit="22.9256" stroke-width="0.2126px" y2="9.5586" x2="25.62993" y1="8.2086" x1="25.04993"/>
  <line id="svg_105" fill="none" stroke="#fff" stroke-miterlimit="22.9256" stroke-width="0.2126px" y2="9.5586" x2="34.42993" y1="8.2086" x1="35.01993"/>
  <line id="svg_106" fill="none" stroke="#fff" stroke-miterlimit="22.9256" stroke-width="0.2126px" y2="15.4786" x2="40.64993" y1="14.9186" x1="42.06993"/>
  <line id="svg_107" fill="none" stroke="#fff" stroke-miterlimit="22.9256" stroke-width="0.2126px" y2="15.4786" x2="19.40993" y1="14.9186" x1="17.99993"/>
  <line id="svg_108" fill="none" stroke="#fff" stroke-miterlimit="22.9256" stroke-width="0.2126px" y2="23.8586" x2="19.40993" y1="24.4186" x1="17.99993"/>
  <line id="svg_109" fill="none" stroke="#fff" stroke-miterlimit="22.9256" stroke-width="0.2126px" y2="31.1286" x2="25.04993" y1="29.7786" x1="25.62993"/>
  <line id="svg_110" fill="none" stroke="#fff" stroke-miterlimit="22.9256" stroke-width="0.2126px" y2="31.1286" x2="35.01993" y1="29.7786" x1="34.42993"/>
  <line id="svg_111" fill="none" stroke="#fff" stroke-miterlimit="22.9256" stroke-width="0.2126px" y2="24.4186" x2="42.06993" y1="23.8586" x1="40.64993"/>
  <path id="svg_112" fill="#ac8734" fill-rule="evenodd" d="m23.02992,24.1686l0.78,1.62a19.87,19.87 0 0 1 12,0l0.84,-1.4c-1.66,0.06 -2.13,-0.47 -2.59,-1.6a2.56,2.56 0 0 1 -4.06,-0.69c-1.39,1.72 -2.77,1.79 -4.14,0.32a2.35,2.35 0 0 1 -2.8,1.8l-0.03,-0.05zm5.53,-7.09c-0.15,-1.51 2.71,-1.64 2.76,0c-0.44,0 -1.32,-0.15 -1.24,0.53l-0.29,0c0,-0.66 -0.52,-0.52 -1.23,-0.51l0,-0.02zm3.33,0.82l0,0a1.06,1.06 0 0 0 -1.58,0.11l0,2.85c0.76,1.63 2.65,2 4.06,0c0.23,2.64 1.9,3.19 4.32,1.79l-2.53,4.1c-5.1,-1.28 -7.65,-1.36 -12.8,0l-2.38,-4.2c2.43,1.06 3.65,0.85 4.57,-1.84c1,1.74 3,2.25 3.87,0l0,-2.7c-0.33,-0.45 -0.8,-0.52 -1.44,-0.1c-0.6,-3.76 4.57,-3.52 3.88,0l0.03,-0.01zm-5.87,5.51a0.73,0.73 0 0 1 0.38,1c0.21,-0.42 0.42,-0.48 0.94,-0.46c-0.15,1.27 -2,1.32 -2.33,0.43a0.79,0.79 0 0 1 1,0.1c-0.43,-0.31 -0.15,-0.86 0,-1l0.01,-0.07zm3.89,-0.31a0.72,0.72 0 0 1 0.2,1c0.28,-0.37 0.5,-0.4 1,-0.29c-0.38,1.23 -2.26,0.94 -2.37,0a0.76,0.76 0 0 1 1,0.26c-0.36,-0.38 0,-0.87 0.2,-1l-0.03,0.03zm3.87,0.38a0.71,0.71 0 0 1 0,1c0.35,-0.3 0.57,-0.29 1,-0.08c-0.63,1.13 -2.41,0.47 -2.32,-0.45a0.76,0.76 0 0 1 0.88,0.46c-0.27,-0.45 0.2,-0.86 0.4,-0.95l0.04,0.02zm4,-1.46l0,0l1,-0.77l1.05,0.74l-0.38,-1.22l1,-0.79l-1.33,0l-0.39,-1.13l-0.39,1.13l-1.3,0l1,0.79l-0.4,1.25l0.14,0zm-1.21,-4.54l0,0l1,-0.77l1.06,0.75l-0.38,-1.22l1,-0.8l-1.24,0l-0.39,-1.13l-0.38,1.13l-1.3,0l1,0.8l-0.41,1.24l0.04,0zm-3.26,-3.19l0,0l1,-0.77l1.05,0.74l-0.35,-1.25l1,-0.8l-1.33,0l-0.39,-1.12l-0.39,1.12l-1.3,0l1,0.8l-0.41,1.25l0.12,0.03zm-4.29,-1.37l0.41,-1.25l-1.05,-0.8l1.3,0l0.39,-1.12l0.39,1.12l1.33,0l-1,0.8l0.37,1.22l-1,-0.74l-1,0.77l-0.14,0zm-4.22,1.17l0.41,-1.25l-1,-0.79l1.3,0l0.39,-1.13l0.39,1.13l1.33,0l-1,0.79l0.38,1.22l-1.05,-0.74l-1,0.77l-0.15,0zm-3.29,3.33l0,0l1.05,-0.77l1.06,0.74l-0.38,-1.22l1,-0.79l-1.33,0l-0.39,-1.13l-0.38,1.13l-1.3,0l1,0.79l-0.41,1.25l0.08,0zm-1.34,4.37l0,0l1,-0.77l1.06,0.74l-0.38,-1.22l1,-0.79l-1.33,0l-0.39,-1.13l-0.38,1.13l-1.3,0l1,0.79l-0.28,1.25z"/>
 </g>
</svg>