<svg xmlns="http://www.w3.org/2000/svg" width="41" height="41" viewBox="0 0 41 41" fill="none">
<g clip-path="url(#clip0_6525_7302)">
<path d="M19.1903 37.2776L17.2657 38.4771L15.9946 35.3946L19.1903 37.2762V37.2776ZM16.1193 28.8199L19.2075 30.733L17.3804 31.9697L16.1193 28.8199ZM16.0219 22.1777L19.2605 24.131L17.3618 25.5052L16.0219 22.1777ZM21.1579 27.5201L24.3234 25.5525L23.0953 28.7783L21.1579 27.5201ZM16.072 32.113L22.0077 35.7099L20.2106 36.8764L17.1325 35.1438L16.072 32.113ZM18.3935 32.3208L24.2633 28.7711L23.3175 31.6243L20.2622 33.6907L18.3935 32.3208ZM16.0749 25.6256L22.0564 29.0592L20.0845 30.4062L17.0981 28.5992L16.0749 25.6256ZM18.309 25.8334L24.2661 22.2465L23.1899 25.3147L20.288 27.0673L18.3076 25.8334H18.309ZM18.1241 22.3999H22.1037L20.2121 23.8931L18.1256 22.3999H18.1241ZM21.1579 33.9172L24.3234 31.9539L23.0953 35.1797L21.1579 33.9186V33.9172ZM20.106 20.1457C20.106 20.1457 16.9046 10.9026 16.2956 9.05257C16.0434 8.29592 15.9431 7.65106 16.4203 7.02052L20.1046 2.19263L23.7818 7.02052C24.2647 7.65106 24.1601 8.29592 23.9107 9.05257C23.3017 10.904 20.106 20.1457 20.106 20.1457ZM38.221 21.2033L21.231 21.2061L28.9722 17.2237C33.2871 15.0011 34.7158 16.8583 36.295 18.8158L38.221 21.2018V21.2033ZM20.8555 20.3506L26.195 10.7808C26.8871 9.54267 28.6584 8.92359 30.2075 9.85363L36.2076 13.4577L33.1954 13.4677C31.8755 13.4677 30.8223 13.9722 29.865 14.5855L20.8555 20.3506ZM1.98242 21.2033L3.91272 18.8173C5.48906 16.8597 6.91636 15.0025 11.2341 17.2252L18.9739 21.2076L1.98385 21.2047L1.98242 21.2033ZM19.3465 20.3506L10.3385 14.5855C9.38262 13.9722 8.32934 13.4677 7.00235 13.4677L3.99584 13.4577L9.99452 9.85363C11.5465 8.92359 13.3192 9.54267 14.0085 10.7808L19.3465 20.3506ZM18.0468 39.1234L24.2633 35.4476L23.0753 39.0202C22.1223 39.1592 21.1507 39.2352 20.1562 39.2352C19.444 39.2352 18.7418 39.1979 18.0453 39.122L18.0468 39.1234Z" fill="#16A085"/>
<path d="M20.0983 0C8.99946 0 0 8.99803 0 20.0983C0 31.1986 8.99946 40.1966 20.0983 40.1966C31.1972 40.1966 40.1981 31.1986 40.1981 20.0983C40.1981 8.99803 31.2029 0 20.0983 0ZM20.0983 39.2379C9.53112 39.2379 0.961567 30.667 0.961567 20.0983C0.961567 9.52969 9.53112 0.954402 20.0983 0.954402C30.6655 0.954402 39.2451 9.52969 39.2451 20.0983C39.2451 30.667 30.6727 39.2379 20.0983 39.2379Z" fill="#16A085"/>
</g>
<defs>
<clipPath id="clip0_6525_7302">
<rect width="227" height="40.1966" fill="white"/>
</clipPath>
</defs>
<script xmlns=""/><link xmlns=""/></svg>