<svg width="80" height="80" viewBox="0 0 80 80" fill="none" xmlns="http://www.w3.org/2000/svg">
<path fill-rule="evenodd" clip-rule="evenodd" d="M40 80C62.0914 80 80 62.0914 80 40C80 17.9086 62.0914 0 40 0C17.9086 0 0 17.9086 0 40C0 62.0914 17.9086 80 40 80ZM39.9601 27.4267C37.8348 29.1549 34.9289 29.1886 33.4695 27.5019C32.0101 25.8152 32.55 23.0468 34.6753 21.3186C36.8006 19.5903 39.7065 19.5566 41.1659 21.2433C42.6253 22.93 42.0854 25.6984 39.9601 27.4267ZM34.993 54.7011C28.7025 56.8681 26.4636 52.988 24.0941 46.8144C21.7246 40.6408 20.1216 34.5116 26.4121 32.3446C32.7026 30.1775 39.723 33.4255 42.0925 39.5991C44.4621 45.7727 41.2835 52.5341 34.993 54.7011ZM44.1232 33.4892C45.2652 35.3904 48.1444 35.8486 50.5542 34.5128C52.964 33.1769 53.9917 30.5527 52.8498 28.6516C51.7078 26.7504 48.8286 26.2921 46.4188 27.628C44.009 28.9639 42.9812 31.5881 44.1232 33.4892ZM53.5286 46.1412C50.7759 46.5837 48.209 45.1979 47.7953 43.0458C47.3816 40.8938 49.2776 38.7905 52.0303 38.348C54.783 37.9054 57.3499 39.2913 57.7636 41.4433C58.1773 43.5953 56.2812 45.6986 53.5286 46.1412ZM43.6864 54.1244C43.7114 56.3053 46.0021 58.0985 48.8027 58.1299C51.6034 58.1612 53.8535 56.4187 53.8284 54.2378C53.8034 52.057 51.5127 50.2637 48.712 50.2324C45.9114 50.2011 43.6613 51.9436 43.6864 54.1244Z" fill="black"/>
</svg>
