<svg width="40" height="41" viewBox="0 0 40 41" fill="none" xmlns="http://www.w3.org/2000/svg">
<path d="M31.7954 40.5H8.21028C3.68407 40.5 0.000976562 36.8172 0.000976562 32.2914V8.70853C0.000976562 4.18275 3.68407 0.5 8.21028 0.5H31.7954C36.3217 0.5 40.001 4.18275 40.001 8.70853V32.2914C40.0047 36.8172 36.3217 40.5 31.7954 40.5ZM8.21028 1.08051C4.00209 1.08051 0.581544 4.50073 0.581544 8.70853V32.2914C0.581544 36.4955 4.00209 39.9158 8.21028 39.9158H31.7954C35.9999 39.9158 39.4204 36.4918 39.4204 32.2914V8.70853C39.4204 4.50073 35.9999 1.08051 31.7954 1.08051H8.21028Z" fill="#0039A6"/>
<path d="M17.9399 6.32317C18.5501 5.96821 19.2157 5.79073 19.8776 5.76855C18.4908 5.80923 17.1597 6.54503 16.4164 7.83547L4.45001 28.5527C3.30737 30.5347 3.98777 33.0638 5.96614 34.2063C7.94451 35.3489 10.4776 34.6722 11.6165 32.694L20.0033 18.1701L16.4275 11.9767C15.2848 9.99483 15.9616 7.46572 17.9399 6.32317Z" fill="#00A1DE"/>
<path d="M35.5551 28.5539L23.5924 7.84035C22.8454 6.54992 21.5142 5.81411 20.1274 5.77344C20.7857 5.79192 21.4514 5.9731 22.0615 6.32807C24.0399 7.4706 24.7203 9.99972 23.5738 11.9779L19.998 18.1712L28.3848 32.6952C29.5274 34.6734 32.0568 35.35 34.0352 34.2075C36.021 33.065 36.6977 30.5358 35.5551 28.5539Z" fill="#0039A6"/>
<path d="M22.067 6.32317C21.4569 5.96821 20.7912 5.79073 20.133 5.76855H20.1072H19.9038H19.8816C19.2196 5.78704 18.5577 5.96821 17.9439 6.32317C15.9655 7.46572 15.2888 9.99483 16.4314 11.973L20.0073 18.1664L23.5831 11.973C24.7221 9.99483 24.0454 7.46572 22.067 6.32317Z" fill="#002C77"/>
<path d="M24.2624 30.6498C24.2624 33.0052 22.358 34.9057 20.0061 34.9057C17.6542 34.9057 15.7461 33.0014 15.7461 30.6498C15.7461 28.3019 17.6506 26.394 20.0024 26.394C22.3542 26.394 24.2624 28.3019 24.2624 30.6498Z" fill="#EEAF30"/>
</svg>
