<svg xmlns="http://www.w3.org/2000/svg" width="45" height="45" viewBox="0 0 124.74 124.74"><path d="m59.07 35a4 4 0 0 0 -2.3-1.2 19.67 19.67 0 0 1 4.6 0 15.37 15.37 0 0 1 3.7.8l-1.6 3.7a1.42 1.42 0 0 1 -2.7-.4 6.2 6.2 0 0 0 -1.7-2.9zm65.67-35v124.74h-124.74v-124.74zm-44.58 37.88h6.7v-3.5h-1.6v-3.9h15.69a1.84 1.84 0 0 1 1.7 1.2 2 2 0 0 1 -1.6 2.7h-4.6v3.5h4.5a4.73 4.73 0 0 0 3.8-1.9 5.85 5.85 0 0 0 -.1-7.2 5.78 5.78 0 0 0 .2-7.1 5 5 0 0 0 -3.9-2h-7.5v-1.9h-3.6v1.8h-9.7v3.5h1.6v11.3h-1.6v3.5zm24.19 6.3v-3.4h-10.8v-8.6l-3.6.9v7.7h-2.95v3.4zm-4.35 7.82-.7-3.6a1 1 0 0 0 -1.3-.6l-1.7.8v7.3c.2-.1 1.6-.6 2.4-1 1.15-.73 1.85-1.23 1.3-2.9zm-10 7v3l3.6-.9v-14l-3.6.9v3.5s-7.6 5.2-14 5.3c1.1 1.6 1 1.7 2.5 4.1 1.1 1.7 4.1 1.5 5 1.2a45.35 45.35 0 0 0 6.5-3.1zm-48.92-38 3.2 7.5a34.19 34.19 0 0 1 6-1.8 36.52 36.52 0 0 1 4.6-.7c1.4-.1 2.8 0 4.3 0a33.27 33.27 0 0 1 8.9 1.6l3.2-7.5a24.88 24.88 0 0 0 -4.3-1.2 4.08 4.08 0 0 1 -2.8 3.9 4 4 0 0 1 -4.6-1.6 3.93 3.93 0 0 1 -.6-3.3 42.76 42.76 0 0 0 -6.2.1 4.23 4.23 0 0 1 -1.6 4.3 4.06 4.06 0 0 1 -4.7-.1 3.66 3.66 0 0 1 -1.5-2.5 23.72 23.72 0 0 0 -3.9 1.3zm-2.3 20.49a29 29 0 0 1 8.4-5.4 15.33 15.33 0 0 0 -1 3c-.3 1.2-.5 2.7-.5 2.7a22.16 22.16 0 0 0 -3.5 2.5 27 27 0 0 0 -3.2 3.3s.4 2.2.6 2.9.8 2.3.8 2.3a28.35 28.35 0 0 1 5.5-6s.4 1.8.6 2.3.8 2.2.8 2.2a35.14 35.14 0 0 0 -2.5 2.6 37.38 37.38 0 0 0 -2.2 3.2l1.3 2 1.4 1.7a15.27 15.27 0 0 1 1.9-3 16 16 0 0 1 4.4-4.2 22.59 22.59 0 0 1 2.6-1.6 14.45 14.45 0 0 1 2.9-1.1 10.38 10.38 0 0 1 -2.5-4.4h4.3a6.37 6.37 0 0 0 4.2 3.5c1.4.4 2.7-.3 6.8 1.7a17.58 17.58 0 0 1 4 2.7l1-5.8c.2-2.3-2.8-2.4-2.8-2.4a2.76 2.76 0 0 1 -2.7 2.1 2.8 2.8 0 0 1 -2.7-2.9 3.52 3.52 0 0 1 3.7-3.3 6.64 6.64 0 0 1 5.2 2.4 4.69 4.69 0 0 0 1.2-2.7 3.23 3.23 0 0 0 -1.4-3.2 1.75 1.75 0 0 0 1.7-1.7v-.3h-8l1.7-4a14.76 14.76 0 0 0 -2.9-1.2 34.86 34.86 0 0 0 -11.09-1.8c-9-.1-16.49 5.1-16.49 5.1s-.7 2.4-1 3.3-.52 3.49-.52 3.49zm-15.59 35.37a16.6 16.6 0 0 0 8.7 3.5 7.65 7.65 0 0 1 1.7-3.9 12.55 12.55 0 0 1 -7.3-2.2 10.89 10.89 0 0 1 -3.8-4.9 10.32 10.32 0 0 1 -.3-6.5 12.12 12.12 0 0 1 4.2-5.8c.9-.7 1.8-1.3 2.7-2a14.46 14.46 0 0 0 2.2-2.1 15.81 15.81 0 0 0 3.5-6 20.61 20.61 0 0 0 .7-8.9 13.52 13.52 0 0 0 -3.2-7.2 16 16 0 0 0 -6.9-4.5 24.64 24.64 0 0 0 -6.6-1.1h-1v4c1.7-.1 7.1 0 10.59 3.2a9 9 0 0 1 2.5 3.6 14.16 14.16 0 0 1 .8 5 13.45 13.45 0 0 1 -2.8 8.6 18.65 18.65 0 0 1 -3.3 3 19.06 19.06 0 0 0 -6.5 7.6 14.13 14.13 0 0 0 .1 11.39 12.34 12.34 0 0 0 4.01 5.21zm2.3-29.49a8.62 8.62 0 0 0 2-3.3 12.87 12.87 0 0 1 -5.8-10.49 8.57 8.57 0 0 0 -3.9-.1 16.64 16.64 0 0 0 7.7 13.9zm10.89 50.78c17 0 21-14.29 21-14.29a20.84 20.84 0 0 0 13.78-6.86 27.09 27.09 0 0 1 -9.1-7.5h5.2a22.57 22.57 0 0 0 7.8 4.8 19.74 19.74 0 0 0 2.6.8c3.8-.9 7.6-1.8 11.39-2.8a84.52 84.52 0 0 0 8.2-2.4c.4-.2.9-.3 1.3-.5a4.67 4.67 0 0 0 1-.5 3.49 3.49 0 0 0 1-2.4c.1-1.1 0-2.2.1-3.3a2.36 2.36 0 0 0 -.9-2.2 3.32 3.32 0 0 0 -3.2.2 3 3 0 0 1 -2 2.2c-3.2.8-7.4 1.9-10.79 2.7a8.36 8.36 0 0 1 -8.4-2.7 12.35 12.35 0 0 1 -1.7-2.7 13.26 13.26 0 0 0 -3.5-4.3 10.21 10.21 0 0 0 -5.5-2.2 12.91 12.91 0 0 0 -3.4-.1 15.43 15.43 0 0 0 -12.09 8c-.3.6-.6 1.2-.9 1.9a15.45 15.45 0 0 0 -.7 2.3 10.94 10.94 0 0 1 -.9 2.3 8.42 8.42 0 0 1 -1.1 2.1 15.44 15.44 0 0 1 -5.5 5.3 9.37 9.37 0 0 0 -4.6 6.4c-.5 2.8 1.1 6.6 1.1 6.6l-9.7 6.2 5.13 11.75h16.18l-2.4-5.7-6.7 1.7zm39.68 8.8-2.5-5.7-6.7 1.7-2.7-4.8a11.43 11.43 0 0 0 7.3-9.4 10.8 10.8 0 0 0 -1-5.9 24.34 24.34 0 0 1 -10.29 4.6 24.41 24.41 0 0 1 -5.4 7.7l5.1 11.79h16.19zm31.48-18.89a8.81 8.81 0 0 0 -7.5-7.8 8.2 8.2 0 0 0 -3.5.2v3.7a4.85 4.85 0 0 1 2.7-.5 5.3 5.3 0 0 1 4.9 5.1 5 5 0 0 1 -1.5 3.9 5.57 5.57 0 0 1 -4.1 1.6 4.81 4.81 0 0 1 -2.4-.7 5.1 5.1 0 0 1 -2.5-4.6v-14.7l-3.6.9v13.84a5.51 5.51 0 0 1 -2.5 4.5 5.32 5.32 0 0 1 -6.1-8.7 5.41 5.41 0 0 1 5.6-.6v-3.7a8.81 8.81 0 0 0 -10 4.2 7.61 7.61 0 0 0 -1 3 8.93 8.93 0 0 0 5.3 9.4 8.75 8.75 0 0 0 3.2.7 9.14 9.14 0 0 0 7.3-3.6c.7 1.1 1.9 1.8 2.7 2.7a3.85 3.85 0 0 1 1.1 3.2 4 4 0 0 1 -4.6 3.4 3.85 3.85 0 0 1 -2.9-2.2 10.19 10.19 0 0 1 -3.5.4 7.42 7.42 0 0 0 7.7 5.2 7.56 7.56 0 0 0 6.6-5.7 6.91 6.91 0 0 0 0-3.5 8.68 8.68 0 0 0 8.61-9.64zm-4.9-62.27a2 2 0 0 0 -.2-2 1.6 1.6 0 0 0 -1.44-.79h-7.5v2h-3.5v-2h-4.6v3.9h15.6a1.58 1.58 0 0 0 1.65-1.11z" fill="#ac145a"/><script xmlns=""/><link xmlns=""/></svg>