<svg xmlns="http://www.w3.org/2000/svg" xmlns:xlink="http://www.w3.org/1999/xlink" version="1.1" width="610px" height="610px" style="shape-rendering:geometricPrecision; text-rendering:geometricPrecision; image-rendering:optimizeQuality; fill-rule:evenodd; clip-rule:evenodd">
<g><path style="opacity:0.982" fill="#7db904" d="M 348.5,-0.5 C 361.167,-0.5 373.833,-0.5 386.5,-0.5C 478.458,10.6407 544.291,57.974 584,141.5C 615.275,221.01 607.942,296.676 562,368.5C 522.795,423.642 469.628,456.809 402.5,468C 324.026,477.896 256.359,455.73 199.5,401.5C 201.575,398.758 203.909,396.424 206.5,394.5C 206.458,392.151 207.625,390.818 210,390.5C 211.811,391.078 213.645,391.578 215.5,392C 267.596,440.918 329.263,460.585 400.5,451C 476.484,436.66 531.317,394.826 565,325.5C 597.27,245.997 588.27,171.664 538,102.5C 488.336,42.8122 424.503,15.3122 346.5,20C 272.442,28.9145 216.275,65.0812 178,128.5C 170.372,142.415 163.872,156.748 158.5,171.5C 155.569,173.091 152.902,175.091 150.5,177.5C 171.408,104.752 217.075,54.2519 287.5,26C 361.177,0.777563 430.51,9.44423 495.5,52C 512.278,64.4446 527.445,78.6113 541,94.5C 516.88,61.1375 485.38,36.9708 446.5,22C 374.623,-3.61016 305.29,1.72317 238.5,38C 271.941,15.9088 308.608,3.07542 348.5,-0.5 Z M 542.5,95.5 C 543.906,95.9731 544.573,96.9731 544.5,98.5C 543.094,98.0269 542.427,97.0269 542.5,95.5 Z"/></g>
<g><path style="opacity:0.997" fill="#fafbfa" d="M 206.5,394.5 C 203.909,396.424 201.575,398.758 199.5,401.5C 195.944,405.623 191.611,408.789 186.5,411C 179.632,412.901 172.632,414.067 165.5,414.5C 152.381,412.634 139.381,410.301 126.5,407.5C 129.304,406.362 132.304,406.195 135.5,407C 149.474,412.424 163.808,413.757 178.5,411C 190.985,407.341 200.318,399.841 206.5,388.5C 207.5,389.833 208.5,389.833 209.5,388.5C 210.239,388.631 210.906,388.464 211.5,388C 206.932,381.931 201.599,376.764 195.5,372.5C 196.525,372.103 196.692,371.437 196,370.5C 188.549,361.044 181.882,351.044 176,340.5C 173.795,337.96 171.295,335.793 168.5,334C 166.648,333.227 165.314,333.727 164.5,335.5C 162.5,336.167 160.5,336.833 158.5,337.5C 156.62,337.229 155.287,337.896 154.5,339.5C 122.069,349.149 90.4023,346.982 59.5,333C 45.6643,324.583 31.9976,315.916 18.5,307C 16.7216,306.296 14.8882,305.796 13,305.5C 8.32734,306.755 3.82734,308.422 -0.5,310.5C -0.5,309.833 -0.5,309.167 -0.5,308.5C 2.39625,303.726 5.56292,299.059 9,294.5C 29.8468,277.547 53.8468,268.881 81,268.5C 105.717,268.797 128.217,275.797 148.5,289.5C 152.545,293.38 156.045,297.713 159,302.5C 157.023,293.919 155.023,285.252 153,276.5C 150.287,274.28 147.454,272.28 144.5,270.5C 136.115,261.218 131.282,250.218 130,237.5C 127.803,214.255 134.636,194.255 150.5,177.5C 152.902,175.091 155.569,173.091 158.5,171.5C 163.872,156.748 170.372,142.415 178,128.5C 216.275,65.0812 272.442,28.9145 346.5,20C 424.503,15.3122 488.336,42.8122 538,102.5C 588.27,171.664 597.27,245.997 565,325.5C 531.317,394.826 476.484,436.66 400.5,451C 329.263,460.585 267.596,440.918 215.5,392C 213.645,391.578 211.811,391.078 210,390.5C 207.625,390.818 206.458,392.151 206.5,394.5 Z"/></g>
<g><path style="opacity:1" fill="#c8d4e0" d="M 336.5,29.5 C 338.042,30.1635 339.709,30.8302 341.5,31.5C 340.833,32.1667 340.167,32.8333 339.5,33.5C 340.63,34.6223 341.297,35.9557 341.5,37.5C 339.45,37.9612 337.45,38.6279 335.5,39.5C 335.511,38.5585 335.011,37.8919 334,37.5C 332.108,37.7769 330.775,38.7769 330,40.5C 329.617,39.944 329.117,39.6107 328.5,39.5C 328.809,36.6545 330.475,35.1545 333.5,35C 332.044,34.5774 331.544,33.7441 332,32.5C 333.129,30.8588 334.629,29.8588 336.5,29.5 Z"/></g>
<g><path style="opacity:1" fill="#87a0bc" d="M 327.5,39.5 C 325.735,40.4614 323.735,40.7947 321.5,40.5C 321.217,39.7109 320.717,39.0442 320,38.5C 318.562,39.9003 317.729,41.567 317.5,43.5C 315.645,43.728 314.812,43.0613 315,41.5C 317.334,38.9852 319.834,36.8185 322.5,35C 322.333,34.5 322.167,34 322,33.5C 319.982,34.2228 318.148,35.2228 316.5,36.5C 316.19,34.8564 315.19,33.8564 313.5,33.5C 316.942,32.1364 320.608,31.1364 324.5,30.5C 332.381,32.2764 332.381,33.9431 324.5,35.5C 324.64,37.1238 323.973,38.2904 322.5,39C 324.134,39.4935 325.801,39.6602 327.5,39.5 Z"/></g>
<g><path style="opacity:1" fill="#285887" d="M 567.5,178.5 C 567.204,180.403 566.537,182.07 565.5,183.5C 564.556,177.722 562.056,172.722 558,168.5C 556.425,182.453 556.091,196.453 557,210.5C 558.586,214.344 559.586,218.344 560,222.5C 562.4,220.271 564.567,217.937 566.5,215.5C 566.5,215.833 566.5,216.167 566.5,216.5C 564.588,219.919 562.088,222.919 559,225.5C 558.818,228.226 558.318,230.893 557.5,233.5C 556.081,232.995 555.415,231.995 555.5,230.5C 553.196,224.55 550.529,218.883 547.5,213.5C 545.21,205.46 542.043,197.793 538,190.5C 537.798,192.256 537.298,193.922 536.5,195.5C 533.758,193.81 531.424,191.644 529.5,189C 528.552,188.517 527.552,188.351 526.5,188.5C 526.338,186.176 525.172,184.509 523,183.5C 519.039,186.23 514.872,188.563 510.5,190.5C 511.909,193.727 512.909,197.06 513.5,200.5C 513.167,201.167 512.833,201.833 512.5,202.5C 512.328,206.534 511.828,210.534 511,214.5C 508.854,217.126 507.521,220.126 507,223.5C 503.21,224.29 501.21,226.624 501,230.5C 496,234.833 491,239.167 486,243.5C 485.064,246.792 485.564,249.792 487.5,252.5C 491.968,250.097 496.301,247.43 500.5,244.5C 500.938,247.295 501.938,249.628 503.5,251.5C 504.492,251.328 505.158,251.662 505.5,252.5C 503.83,252.751 502.33,253.418 501,254.5C 498.693,260.392 496.693,266.392 495,272.5C 493.503,276.165 491.503,279.498 489,282.5C 488.5,290.493 488.334,298.493 488.5,306.5C 487.833,299.655 487.167,292.655 486.5,285.5C 485.893,285.624 485.56,285.957 485.5,286.5C 478.299,295.727 471.965,305.56 466.5,316C 466.905,316.945 467.572,317.612 468.5,318C 467.54,321.73 467.207,325.563 467.5,329.5C 468.833,329.5 470.167,329.5 471.5,329.5C 472.791,329.263 473.791,329.596 474.5,330.5C 472.571,330.231 470.905,330.731 469.5,332C 469.957,332.414 470.291,332.914 470.5,333.5C 469.941,338.561 469.107,343.561 468,348.5C 461.333,353.833 454.667,359.167 448,364.5C 450.062,372.883 446.895,378.217 438.5,380.5C 437.731,383.872 436.065,386.705 433.5,389C 434.793,389.49 436.127,389.657 437.5,389.5C 438.167,389.5 438.5,389.833 438.5,390.5C 436.533,390.261 434.699,390.594 433,391.5C 430.023,402.1 425.69,412.1 420,421.5C 424.125,412.72 427.625,403.553 430.5,394C 430.167,393.5 429.833,393 429.5,392.5C 425.508,395.831 421.175,398.664 416.5,401C 409.169,401.196 402.336,403.029 396,406.5C 393.463,405.903 391.463,404.57 390,402.5C 389.517,403.448 389.351,404.448 389.5,405.5C 388.596,404.791 388.263,403.791 388.5,402.5C 388.5,400.167 388.5,397.833 388.5,395.5C 386.5,394.833 384.5,394.167 382.5,393.5C 383.978,393.762 385.311,393.429 386.5,392.5C 384.196,390.569 382.362,388.236 381,385.5C 380.872,382.486 380.872,379.486 381,376.5C 378.578,372.656 375.911,368.99 373,365.5C 372.134,360.291 372.801,355.291 375,350.5C 376,348.833 377.333,347.5 379,346.5C 379.495,344.527 379.662,342.527 379.5,340.5C 367.833,340.5 356.167,340.5 344.5,340.5C 344.5,347.833 344.5,355.167 344.5,362.5C 344.819,367.363 344.486,372.03 343.5,376.5C 342.656,364.187 342.323,351.854 342.5,339.5C 339.167,339.5 335.833,339.5 332.5,339.5C 335.625,338.521 338.958,338.187 342.5,338.5C 342.83,318.66 342.497,298.993 341.5,279.5C 335.493,281.17 329.493,282.836 323.5,284.5C 316.668,283.194 309.835,283.194 303,284.5C 299.642,284.727 296.809,283.727 294.5,281.5C 294.44,280.957 294.107,280.624 293.5,280.5C 292.174,294.661 292.174,308.661 293.5,322.5C 293.5,324.5 293.5,326.5 293.5,328.5C 292.833,328.5 292.167,328.5 291.5,328.5C 290.773,311.515 290.273,294.515 290,277.5C 284.486,273.66 280.986,268.493 279.5,262C 281.31,251.781 283.31,241.615 285.5,231.5C 286.885,224.528 288.552,217.528 290.5,210.5C 291.906,210.027 292.573,209.027 292.5,207.5C 295.163,202.839 299.163,200.172 304.5,199.5C 306.379,199.607 306.712,199.107 305.5,198C 301.227,196.97 296.894,196.303 292.5,196C 294.384,195.784 296.051,195.117 297.5,194C 294.081,193.752 290.747,193.252 287.5,192.5C 287.5,191.833 287.833,191.5 288.5,191.5C 292.824,191.927 297.158,192.261 301.5,192.5C 301.916,189.417 302.583,186.417 303.5,183.5C 304.925,185.031 305.591,184.698 305.5,182.5C 309.712,178.478 314.212,174.811 319,171.5C 321.478,172.245 323.978,172.911 326.5,173.5C 333.275,171.055 340.275,169.722 347.5,169.5C 347.5,168.5 347.5,167.5 347.5,166.5C 348.167,167.5 348.833,168.5 349.5,169.5C 355.472,168.526 361.472,168.359 367.5,169C 368.179,170.929 369.179,172.929 370.5,175C 369.711,176.626 368.711,178.126 367.5,179.5C 372.543,182.348 377.876,184.515 383.5,186C 384.364,187.697 385.697,188.863 387.5,189.5C 388.383,180.506 388.216,171.506 387,162.5C 386.167,163.5 385.333,164.5 384.5,165.5C 384.512,163.588 384.179,161.588 383.5,159.5C 377.692,155.193 372.359,150.359 367.5,145C 365.833,144.333 364.167,144.333 362.5,145C 358.755,147.65 354.755,148.15 350.5,146.5C 350.5,148.167 350.5,149.833 350.5,151.5C 349.71,150.391 349.21,149.058 349,147.5C 348.59,148.901 348.09,150.234 347.5,151.5C 345.115,153.263 342.448,154.763 339.5,156C 337.348,158.424 336.015,161.257 335.5,164.5C 331.538,167.901 326.871,169.401 321.5,169C 321,169.5 320.5,170 320,170.5C 318.98,169.109 318.147,167.609 317.5,166C 316.451,165.508 315.451,165.674 314.5,166.5C 313.328,166.081 312.328,165.415 311.5,164.5C 312.672,162.177 312.672,159.844 311.5,157.5C 312.79,156.942 313.623,155.942 314,154.5C 314.833,151.5 315.667,148.5 316.5,145.5C 317.5,144.833 318.5,144.167 319.5,143.5C 324.263,145.72 329.263,147.054 334.5,147.5C 335.478,147.023 336.311,146.357 337,145.5C 339.876,134.199 335.376,129.199 323.5,130.5C 324.919,129.549 326.585,129.216 328.5,129.5C 337.663,129.778 345.496,126.778 352,120.5C 352.494,118.866 352.66,117.199 352.5,115.5C 352.833,115.5 353.167,115.5 353.5,115.5C 353.008,119.29 353.841,119.956 356,117.5C 356.333,117.833 356.667,118.167 357,118.5C 359.354,116.363 362.188,115.363 365.5,115.5C 363.352,111.094 364.186,107.427 368,104.5C 368.617,107.035 368.117,109.368 366.5,111.5C 368.43,114.31 370.93,114.977 374,113.5C 375.285,113.95 376.452,114.617 377.5,115.5C 381.423,114.034 382.423,111.368 380.5,107.5C 378.206,108.706 375.873,109.706 373.5,110.5C 372.678,106.875 371.344,103.375 369.5,100C 367.799,99.6554 366.466,100.322 365.5,102C 360.459,103.809 358.125,102.143 358.5,97C 358.667,95.5 358.833,94 359,92.5C 362.216,90.8067 365.383,88.9733 368.5,87C 369.77,83.7968 371.77,81.1301 374.5,79C 368.843,78.5006 363.176,78.3339 357.5,78.5C 357.5,78.1667 357.5,77.8333 357.5,77.5C 363.509,77.6662 369.509,77.4995 375.5,77C 374.944,76.6174 374.611,76.1174 374.5,75.5C 375.167,75.5 375.5,75.1667 375.5,74.5C 375.833,74.5 376.167,74.5 376.5,74.5C 376.435,74.9382 376.601,75.2716 377,75.5C 383.096,69.1045 389.93,68.2712 397.5,73C 401.152,73.4986 404.818,73.6653 408.5,73.5C 408.5,73.8333 408.5,74.1667 408.5,74.5C 409.684,75.6879 409.684,76.8545 408.5,78C 398.712,78.4273 398.879,80.594 409,84.5C 409.5,84.3333 410,84.1667 410.5,84C 406.488,82.1967 406.822,81.1967 411.5,81C 410.316,79.8545 410.316,78.6879 411.5,77.5C 412.873,77.6567 414.207,77.49 415.5,77C 414.944,76.6174 414.611,76.1174 414.5,75.5C 415.791,75.7373 416.791,75.404 417.5,74.5C 417.5,73.1667 417.5,71.8333 417.5,70.5C 420.258,69.623 422.924,68.4563 425.5,67C 423.355,66.2569 423.189,65.4235 425,64.5C 427.349,65.9765 429.516,65.8098 431.5,64C 427.664,61.9164 423.997,59.583 420.5,57C 421.899,56.4054 423.232,56.5721 424.5,57.5C 425.72,57.1131 426.387,56.2798 426.5,55C 422.537,50.7313 417.87,46.398 412.5,42C 415.918,39.9805 419.251,40.1472 422.5,42.5C 423.429,41.3112 423.762,39.9778 423.5,38.5C 422.448,38.6495 421.448,38.4828 420.5,38C 421.833,37.6667 423.167,37.3333 424.5,37C 422.086,35.1151 419.419,34.4484 416.5,35C 416.833,35.3333 417.167,35.6667 417.5,36C 415.343,36.0781 413.343,36.2448 411.5,36.5C 412.5,37.3333 413.5,38.1667 414.5,39C 408.509,39.4995 402.509,39.6662 396.5,39.5C 396.037,42.2552 394.37,43.9219 391.5,44.5C 390.508,44.3284 389.842,44.6618 389.5,45.5C 380.253,47.0307 370.92,48.0307 361.5,48.5C 358.915,47.9272 357.915,46.2605 358.5,43.5C 355.834,43.067 353.168,42.567 350.5,42C 349.167,41.3333 349.167,40.6667 350.5,40C 347.625,38.698 344.625,37.8647 341.5,37.5C 341.297,35.9557 340.63,34.6223 339.5,33.5C 340.167,32.8333 340.833,32.1667 341.5,31.5C 339.709,30.8302 338.042,30.1635 336.5,29.5C 361.67,24.6605 386.504,25.9939 411,33.5C 412.762,33.0556 412.595,32.5556 410.5,32C 478.585,47.8111 527.752,87.3111 558,150.5C 562.268,159.471 565.435,168.804 567.5,178.5 Z"/></g>
<g><path style="opacity:1" fill="#b0c1d3" d="M 312.5,37.5 C 313.091,38.1515 313.757,38.8182 314.5,39.5C 313.23,40.2876 312.23,41.2876 311.5,42.5C 308.763,42.4013 306.096,42.7347 303.5,43.5C 303.062,43.5654 302.728,43.3988 302.5,43C 303.956,42.5774 304.456,41.7441 304,40.5C 303,41.1667 302,41.8333 301,42.5C 299.989,41.6634 298.822,41.33 297.5,41.5C 299.187,39.8338 301.187,38.5005 303.5,37.5C 303.833,38.1667 304.167,38.8333 304.5,39.5C 307.021,38.2147 309.687,37.5481 312.5,37.5 Z"/></g>
<g><path style="opacity:1" fill="#305d8c" d="M 341.5,37.5 C 343.712,39.519 345.212,41.8523 346,44.5C 348.719,43.5562 351.552,43.2229 354.5,43.5C 354.64,45.1238 353.973,46.2904 352.5,47C 353.833,47.3333 355.167,47.6667 356.5,48C 351.435,49.9321 346.768,52.4321 342.5,55.5C 342.52,57.143 341.853,58.4763 340.5,59.5C 337.945,60.4611 335.612,61.7945 333.5,63.5C 332.914,63.2907 332.414,62.9574 332,62.5C 331.798,64.2556 331.298,65.9223 330.5,67.5C 329.833,66.5 329.167,65.5 328.5,64.5C 327.646,65.5217 326.646,66.3551 325.5,67C 327.301,67.3173 327.634,67.984 326.5,69C 324.134,69.4396 321.801,69.9396 319.5,70.5C 318.193,69.8466 316.86,69.1799 315.5,68.5C 314.702,68.9569 314.369,69.6236 314.5,70.5C 310.764,71.3051 307.264,72.6384 304,74.5C 303.275,72.842 302.108,72.342 300.5,73C 294.198,75.7623 288.364,79.2623 283,83.5C 283.729,81.2677 283.395,79.2677 282,77.5C 284.833,74 287.667,70.5 290.5,67C 293.173,65.9986 295.507,64.4986 297.5,62.5C 296.243,60.3211 294.743,58.3211 293,56.5C 291.562,57.9003 290.729,59.567 290.5,61.5C 288.488,62.0138 286.488,62.1805 284.5,62C 285.96,61.1887 286.293,60.3554 285.5,59.5C 283.31,61.524 280.977,63.3573 278.5,65C 276.209,64.1894 274.375,65.0228 273,67.5C 272.833,67.1667 272.667,66.8333 272.5,66.5C 273.972,63.1946 276.305,60.6946 279.5,59C 279.043,58.586 278.709,58.086 278.5,57.5C 282.387,57.1145 286.387,56.2812 290.5,55C 292.141,53.871 293.141,52.371 293.5,50.5C 295.475,50.8361 297.475,50.3361 299.5,49C 298.332,47.1291 298.832,45.6291 301,44.5C 303.447,45.9964 304.281,45.6631 303.5,43.5C 306.096,42.7347 308.763,42.4013 311.5,42.5C 310.719,46.0519 308.719,47.2185 305.5,46C 306.833,46.6667 306.833,47.3333 305.5,48C 302.333,50.1667 299.167,52.3333 296,54.5C 296.293,58.0025 298.126,60.6692 301.5,62.5C 305.655,61.5094 308.322,59.0094 309.5,55C 314.301,53.7671 318.301,51.2671 321.5,47.5C 321.291,46.914 320.957,46.414 320.5,46C 324.696,44.5139 329.363,43.5139 334.5,43C 331.113,41.3347 327.613,41.1681 324,42.5C 322.833,42.1667 321.667,41.8333 320.5,41.5C 320.624,40.8933 320.957,40.56 321.5,40.5C 323.735,40.7947 325.735,40.4614 327.5,39.5C 327.833,39.5 328.167,39.5 328.5,39.5C 329.117,39.6107 329.617,39.944 330,40.5C 330.775,38.7769 332.108,37.7769 334,37.5C 335.011,37.8919 335.511,38.5585 335.5,39.5C 337.45,38.6279 339.45,37.9612 341.5,37.5 Z"/></g>
<g><path style="opacity:1" fill="#7c98b6" d="M 303.5,43.5 C 304.281,45.6631 303.447,45.9964 301,44.5C 298.832,45.6291 298.332,47.1291 299.5,49C 297.475,50.3361 295.475,50.8361 293.5,50.5C 293.5,50.1667 293.5,49.8333 293.5,49.5C 292.391,48.71 291.058,48.21 289.5,48C 292.295,46.9639 294.962,45.6305 297.5,44C 294.887,42.9288 294.887,42.0955 297.5,41.5C 298.822,41.33 299.989,41.6634 301,42.5C 302,41.8333 303,41.1667 304,40.5C 304.456,41.7441 303.956,42.5774 302.5,43C 302.728,43.3988 303.062,43.5654 303.5,43.5 Z"/></g>
<g><path style="opacity:1" fill="#ebeff3" d="M 321.5,40.5 C 320.957,40.56 320.624,40.8933 320.5,41.5C 321.667,41.8333 322.833,42.1667 324,42.5C 327.613,41.1681 331.113,41.3347 334.5,43C 329.363,43.5139 324.696,44.5139 320.5,46C 320.957,46.414 321.291,46.914 321.5,47.5C 318.301,51.2671 314.301,53.7671 309.5,55C 308.322,59.0094 305.655,61.5094 301.5,62.5C 298.126,60.6692 296.293,58.0025 296,54.5C 299.167,52.3333 302.333,50.1667 305.5,48C 306.833,47.3333 306.833,46.6667 305.5,46C 308.719,47.2185 310.719,46.0519 311.5,42.5C 312.23,41.2876 313.23,40.2876 314.5,39.5C 313.757,38.8182 313.091,38.1515 312.5,37.5C 313.833,37.1667 315.167,36.8333 316.5,36.5C 318.148,35.2228 319.982,34.2228 322,33.5C 322.167,34 322.333,34.5 322.5,35C 319.834,36.8185 317.334,38.9852 315,41.5C 314.812,43.0613 315.645,43.728 317.5,43.5C 317.729,41.567 318.562,39.9003 320,38.5C 320.717,39.0442 321.217,39.7109 321.5,40.5 Z"/></g>
<g><path style="opacity:1" fill="#f5f7f9" d="M 417.5,70.5 C 414.016,70.6767 411.016,71.6767 408.5,73.5C 404.818,73.6653 401.152,73.4986 397.5,73C 389.93,68.2712 383.096,69.1045 377,75.5C 376.601,75.2716 376.435,74.9382 376.5,74.5C 375.987,70.447 375.154,66.447 374,62.5C 373.779,66.5704 374.279,70.5704 375.5,74.5C 375.5,75.1667 375.167,75.5 374.5,75.5C 369.551,76.7786 364.551,76.7786 359.5,75.5C 361.054,69.9062 361.887,64.2395 362,58.5C 360.51,64.4487 359.344,70.4487 358.5,76.5C 357.167,76.5 355.833,76.5 354.5,76.5C 351.482,76.6646 348.482,76.498 345.5,76C 343.939,75.6824 342.772,74.8491 342,73.5C 341.311,74.3567 340.478,75.0233 339.5,75.5C 332.222,74.5323 325.556,72.8657 319.5,70.5C 321.801,69.9396 324.134,69.4396 326.5,69C 327.634,67.984 327.301,67.3173 325.5,67C 326.646,66.3551 327.646,65.5217 328.5,64.5C 329.167,65.5 329.833,66.5 330.5,67.5C 331.298,65.9223 331.798,64.2556 332,62.5C 332.414,62.9574 332.914,63.2907 333.5,63.5C 335.612,61.7945 337.945,60.4611 340.5,59.5C 341.853,58.4763 342.52,57.143 342.5,55.5C 346.768,52.4321 351.435,49.9321 356.5,48C 355.167,47.6667 353.833,47.3333 352.5,47C 353.973,46.2904 354.64,45.1238 354.5,43.5C 351.552,43.2229 348.719,43.5562 346,44.5C 345.212,41.8523 343.712,39.519 341.5,37.5C 344.625,37.8647 347.625,38.698 350.5,40C 349.167,40.6667 349.167,41.3333 350.5,42C 353.168,42.567 355.834,43.067 358.5,43.5C 357.915,46.2605 358.915,47.9272 361.5,48.5C 370.92,48.0307 380.253,47.0307 389.5,45.5C 388.71,46.7942 387.71,47.9609 386.5,49C 389.207,49.3283 391.874,48.995 394.5,48C 393.635,46.6412 392.635,45.4745 391.5,44.5C 394.37,43.9219 396.037,42.2552 396.5,39.5C 402.509,39.6662 408.509,39.4995 414.5,39C 413.5,38.1667 412.5,37.3333 411.5,36.5C 413.343,36.2448 415.343,36.0781 417.5,36C 417.167,35.6667 416.833,35.3333 416.5,35C 419.419,34.4484 422.086,35.1151 424.5,37C 423.167,37.3333 421.833,37.6667 420.5,38C 421.448,38.4828 422.448,38.6495 423.5,38.5C 423.762,39.9778 423.429,41.3112 422.5,42.5C 419.251,40.1472 415.918,39.9805 412.5,42C 417.87,46.398 422.537,50.7313 426.5,55C 426.387,56.2798 425.72,57.1131 424.5,57.5C 423.232,56.5721 421.899,56.4054 420.5,57C 423.997,59.583 427.664,61.9164 431.5,64C 429.516,65.8098 427.349,65.9765 425,64.5C 423.189,65.4235 423.355,66.2569 425.5,67C 422.924,68.4563 420.258,69.623 417.5,70.5 Z"/></g>
<g><path style="opacity:1" fill="#567aa0" d="M 397.5,41.5 C 400.976,40.3567 404.642,40.1901 408.5,41C 404.91,42.8223 401.243,42.9889 397.5,41.5 Z"/></g>
<g><path style="opacity:1" fill="#7995b3" d="M 391.5,44.5 C 392.635,45.4745 393.635,46.6412 394.5,48C 391.874,48.995 389.207,49.3283 386.5,49C 387.71,47.9609 388.71,46.7942 389.5,45.5C 389.842,44.6618 390.508,44.3284 391.5,44.5 Z"/></g>
<g><path style="opacity:1" fill="#3f6894" d="M 372.5,50.5 C 374.604,50.2011 376.604,50.5344 378.5,51.5C 377.624,52.2508 376.624,52.7508 375.5,53C 379.611,56.5082 379.444,57.0082 375,54.5C 374.576,56.6145 373.409,57.4479 371.5,57C 370.687,55.6861 369.687,54.5195 368.5,53.5C 370.332,52.9432 371.665,51.9432 372.5,50.5 Z"/></g>
<g><path style="opacity:1" fill="#476d97" d="M 405.5,50.5 C 406.496,50.4142 407.329,50.7476 408,51.5C 408.171,58.0327 411.338,62.1994 417.5,64C 414.534,64.8952 411.867,64.3952 409.5,62.5C 408.334,59.4968 406.667,56.8302 404.5,54.5C 405.246,53.2638 405.579,51.9305 405.5,50.5 Z"/></g>
<g><path style="opacity:1" fill="#2f5d8b" d="M 313.5,33.5 C 315.19,33.8564 316.19,34.8564 316.5,36.5C 315.167,36.8333 313.833,37.1667 312.5,37.5C 309.687,37.5481 307.021,38.2147 304.5,39.5C 304.167,38.8333 303.833,38.1667 303.5,37.5C 301.187,38.5005 299.187,39.8338 297.5,41.5C 294.887,42.0955 294.887,42.9288 297.5,44C 294.962,45.6305 292.295,46.9639 289.5,48C 291.058,48.21 292.391,48.71 293.5,49.5C 291.321,50.0592 289.154,50.7259 287,51.5C 286.127,51.2645 285.293,50.9312 284.5,50.5C 282.72,52.4438 280.553,53.7771 278,54.5C 276.189,53.5765 276.355,52.7431 278.5,52C 273.819,51.3346 269.486,52.3346 265.5,55C 256.162,61.917 247.329,69.417 239,77.5C 238.333,78.1667 238.333,78.8333 239,79.5C 243.766,75.0698 249.266,71.9031 255.5,70C 260.282,66.193 265.449,63.0264 271,60.5C 271.667,61.5 271.667,62.5 271,63.5C 269.615,64.5505 268.615,65.8839 268,67.5C 265.103,68.5234 262.936,70.3567 261.5,73C 263.756,72.3853 266.089,72.0519 268.5,72C 260.714,76.7948 255.547,83.6281 253,92.5C 252.184,93.8228 251.017,94.4894 249.5,94.5C 247.901,94.2322 246.568,94.5655 245.5,95.5C 243.712,95.7852 242.045,95.4519 240.5,94.5C 239.255,91.08 237.588,90.7466 235.5,93.5C 236.127,94.4168 236.461,95.4168 236.5,96.5C 235.508,96.3284 234.842,96.6618 234.5,97.5C 230.768,99.1713 229.435,101.838 230.5,105.5C 232.529,104.371 232.863,104.871 231.5,107C 228.833,107.333 226.167,107.667 223.5,108C 223,108.5 222.5,109 222,109.5C 221.837,107.613 222.671,106.113 224.5,105C 220.018,104.156 216.518,105.656 214,109.5C 211.701,108.621 209.701,109.288 208,111.5C 207.667,111.167 207.333,110.833 207,110.5C 203.619,115.282 199.786,119.615 195.5,123.5C 192.944,124.543 190.777,126.21 189,128.5C 188.601,128.272 188.435,127.938 188.5,127.5C 195.321,115.019 203.654,103.685 213.5,93.5C 214.117,93.6107 214.617,93.944 215,94.5C 216.74,92.0465 218.907,90.5465 221.5,90C 220.5,91 219.5,92 218.5,93C 219.635,93.7494 220.635,93.5827 221.5,92.5C 224.021,90.7399 224.854,88.4066 224,85.5C 222.585,87.3188 221.085,87.9854 219.5,87.5C 221.834,84.3338 224.667,81.6671 228,79.5C 227.667,81.1667 227.333,82.8333 227,84.5C 228.833,82.6667 230.667,80.8333 232.5,79C 228.998,78.3439 228.998,77.0105 232.5,75C 256.461,55.352 283.461,41.5187 313.5,33.5 Z"/></g>
<g><path style="opacity:1" fill="#9eb4c9" d="M 376.5,74.5 C 376.167,74.5 375.833,74.5 375.5,74.5C 374.279,70.5704 373.779,66.5704 374,62.5C 375.154,66.447 375.987,70.447 376.5,74.5 Z"/></g>
<g><path style="opacity:1" fill="#6988aa" d="M 319.5,70.5 C 325.556,72.8657 332.222,74.5323 339.5,75.5C 340.478,75.0233 341.311,74.3567 342,73.5C 342.772,74.8491 343.939,75.6824 345.5,76C 348.482,76.498 351.482,76.6646 354.5,76.5C 355.209,77.404 356.209,77.7373 357.5,77.5C 357.5,77.8333 357.5,78.1667 357.5,78.5C 351.604,77.4886 345.77,77.4886 340,78.5C 335.461,76.5735 330.627,75.2402 325.5,74.5C 322.684,74.9827 322.017,76.3161 323.5,78.5C 322.074,79.3412 320.74,80.3412 319.5,81.5C 319.082,80.7784 318.416,80.2784 317.5,80C 318.928,77.8153 320.595,75.8153 322.5,74C 319.524,73.2952 316.858,72.1286 314.5,70.5C 314.369,69.6236 314.702,68.9569 315.5,68.5C 316.86,69.1799 318.193,69.8466 319.5,70.5 Z"/></g>
<g><path style="opacity:1" fill="#6183a6" d="M 417.5,70.5 C 417.5,71.8333 417.5,73.1667 417.5,74.5C 414.856,71.728 413.856,72.0614 414.5,75.5C 414.611,76.1174 414.944,76.6174 415.5,77C 414.207,77.49 412.873,77.6567 411.5,77.5C 411.5,75.5 410.5,74.5 408.5,74.5C 408.5,74.1667 408.5,73.8333 408.5,73.5C 411.016,71.6767 414.016,70.6767 417.5,70.5 Z"/></g>
<g><path style="opacity:1" fill="#e3e9ef" d="M 417.5,74.5 C 416.791,75.404 415.791,75.7373 414.5,75.5C 413.856,72.0614 414.856,71.728 417.5,74.5 Z"/></g>
<g><path style="opacity:1" fill="#b2c3d4" d="M 374.5,75.5 C 374.611,76.1174 374.944,76.6174 375.5,77C 369.509,77.4995 363.509,77.6662 357.5,77.5C 356.209,77.7373 355.209,77.404 354.5,76.5C 355.833,76.5 357.167,76.5 358.5,76.5C 359.344,70.4487 360.51,64.4487 362,58.5C 361.887,64.2395 361.054,69.9062 359.5,75.5C 364.551,76.7786 369.551,76.7786 374.5,75.5 Z"/></g>
<g><path style="opacity:1" fill="#f5f7f9" d="M 293.5,49.5 C 293.5,49.8333 293.5,50.1667 293.5,50.5C 293.141,52.371 292.141,53.871 290.5,55C 286.387,56.2812 282.387,57.1145 278.5,57.5C 278.709,58.086 279.043,58.586 279.5,59C 276.305,60.6946 273.972,63.1946 272.5,66.5C 272.667,66.8333 272.833,67.1667 273,67.5C 274.375,65.0228 276.209,64.1894 278.5,65C 280.977,63.3573 283.31,61.524 285.5,59.5C 286.293,60.3554 285.96,61.1887 284.5,62C 286.488,62.1805 288.488,62.0138 290.5,61.5C 290.729,59.567 291.562,57.9003 293,56.5C 294.743,58.3211 296.243,60.3211 297.5,62.5C 295.507,64.4986 293.173,65.9986 290.5,67C 287.667,70.5 284.833,74 282,77.5C 283.395,79.2677 283.729,81.2677 283,83.5C 288.364,79.2623 294.198,75.7623 300.5,73C 302.108,72.342 303.275,72.842 304,74.5C 307.264,72.6384 310.764,71.3051 314.5,70.5C 316.858,72.1286 319.524,73.2952 322.5,74C 320.595,75.8153 318.928,77.8153 317.5,80C 318.416,80.2784 319.082,80.7784 319.5,81.5C 320.406,82.9649 321.739,83.9649 323.5,84.5C 325.889,83.8195 328.222,82.9862 330.5,82C 331.337,80.9887 331.67,79.8221 331.5,78.5C 328.833,78.5 326.167,78.5 323.5,78.5C 322.017,76.3161 322.684,74.9827 325.5,74.5C 330.627,75.2402 335.461,76.5735 340,78.5C 345.77,77.4886 351.604,77.4886 357.5,78.5C 363.176,78.3339 368.843,78.5006 374.5,79C 371.77,81.1301 369.77,83.7968 368.5,87C 365.383,88.9733 362.216,90.8067 359,92.5C 358.833,94 358.667,95.5 358.5,97C 358.125,102.143 360.459,103.809 365.5,102C 366.466,100.322 367.799,99.6554 369.5,100C 371.344,103.375 372.678,106.875 373.5,110.5C 375.873,109.706 378.206,108.706 380.5,107.5C 382.423,111.368 381.423,114.034 377.5,115.5C 376.452,114.617 375.285,113.95 374,113.5C 370.93,114.977 368.43,114.31 366.5,111.5C 368.117,109.368 368.617,107.035 368,104.5C 364.186,107.427 363.352,111.094 365.5,115.5C 362.188,115.363 359.354,116.363 357,118.5C 356.667,118.167 356.333,117.833 356,117.5C 353.841,119.956 353.008,119.29 353.5,115.5C 355.831,104.041 357.331,92.3743 358,80.5C 355.562,92.069 353.728,103.736 352.5,115.5C 352.66,117.199 352.494,118.866 352,120.5C 345.496,126.778 337.663,129.778 328.5,129.5C 326.052,128.527 323.385,128.194 320.5,128.5C 320.183,121.482 323.516,117.482 330.5,116.5C 331.034,114.386 332.034,112.552 333.5,111C 331.635,108.088 329.635,107.922 327.5,110.5C 327.167,110 326.833,109.5 326.5,109C 328.14,105.244 329.474,101.411 330.5,97.5C 326.135,106.905 322.135,116.571 318.5,126.5C 308.553,127.176 298.886,125.676 289.5,122C 291.088,120.013 291.921,117.846 292,115.5C 290.748,117.001 289.748,118.668 289,120.5C 280.615,121.102 272.781,119.102 265.5,114.5C 266.63,113.378 267.297,112.044 267.5,110.5C 266.373,111.122 265.373,111.955 264.5,113C 263.167,113.667 261.833,113.667 260.5,113C 254.83,110.501 249.497,107.501 244.5,104C 245.833,103 245.833,102 244.5,101C 246.288,98.8156 247.954,96.649 249.5,94.5C 251.017,94.4894 252.184,93.8228 253,92.5C 255.547,83.6281 260.714,76.7948 268.5,72C 266.089,72.0519 263.756,72.3853 261.5,73C 262.936,70.3567 265.103,68.5234 268,67.5C 268.615,65.8839 269.615,64.5505 271,63.5C 271.667,62.5 271.667,61.5 271,60.5C 265.449,63.0264 260.282,66.193 255.5,70C 249.266,71.9031 243.766,75.0698 239,79.5C 238.333,78.8333 238.333,78.1667 239,77.5C 247.329,69.417 256.162,61.917 265.5,55C 269.486,52.3346 273.819,51.3346 278.5,52C 276.355,52.7431 276.189,53.5765 278,54.5C 280.553,53.7771 282.72,52.4438 284.5,50.5C 285.293,50.9312 286.127,51.2645 287,51.5C 289.154,50.7259 291.321,50.0592 293.5,49.5 Z"/></g>
<g><path style="opacity:1" fill="#eef2f5" d="M 408.5,74.5 C 410.5,74.5 411.5,75.5 411.5,77.5C 410.316,78.6879 410.316,79.8545 411.5,81C 406.822,81.1967 406.488,82.1967 410.5,84C 410,84.1667 409.5,84.3333 409,84.5C 398.879,80.594 398.712,78.4273 408.5,78C 409.684,76.8545 409.684,75.6879 408.5,74.5 Z"/></g>
<g><path style="opacity:1" fill="#315e8c" d="M 323.5,78.5 C 326.167,78.5 328.833,78.5 331.5,78.5C 331.67,79.8221 331.337,80.9887 330.5,82C 328.222,82.9862 325.889,83.8195 323.5,84.5C 321.739,83.9649 320.406,82.9649 319.5,81.5C 320.74,80.3412 322.074,79.3412 323.5,78.5 Z"/></g>
<g><path style="opacity:1" fill="#eff2f6" d="M 385.5,81.5 C 387.665,81.1159 389.332,81.7826 390.5,83.5C 389.349,85.8091 388.016,87.9758 386.5,90C 387.115,92.5146 388.115,94.848 389.5,97C 392.701,96.6713 395.867,95.838 399,94.5C 400.28,94.6135 401.113,95.2801 401.5,96.5C 398.973,97.2136 396.473,97.8803 394,98.5C 394.287,100.899 395.12,103.232 396.5,105.5C 396.167,105.833 395.833,106.167 395.5,106.5C 394.15,105.05 392.484,104.383 390.5,104.5C 391.598,111.406 388.931,114.072 382.5,112.5C 382.66,109.116 382.327,105.783 381.5,102.5C 381.722,100.945 382.389,99.6113 383.5,98.5C 381.534,95.451 381.034,92.1177 382,88.5C 385.044,87.1971 386.211,84.8638 385.5,81.5 Z"/></g>
<g><path style="opacity:1" fill="#7996b4" d="M 353.5,115.5 C 353.167,115.5 352.833,115.5 352.5,115.5C 353.728,103.736 355.562,92.069 358,80.5C 357.331,92.3743 355.831,104.041 353.5,115.5 Z"/></g>
<g><path style="opacity:1" fill="#7f9ab7" d="M 213.5,93.5 C 215.167,91.1667 217.167,89.1667 219.5,87.5C 221.085,87.9854 222.585,87.3188 224,85.5C 224.854,88.4066 224.021,90.7399 221.5,92.5C 220.635,93.5827 219.635,93.7494 218.5,93C 219.5,92 220.5,91 221.5,90C 218.907,90.5465 216.74,92.0465 215,94.5C 214.617,93.944 214.117,93.6107 213.5,93.5 Z"/></g>
<g><path style="opacity:1" fill="#7e9ab7" d="M 330.5,97.5 C 331.092,94.3093 332.259,91.3093 334,88.5C 333.956,91.9233 332.79,94.9233 330.5,97.5 Z"/></g>
<g><path style="opacity:1" fill="#dde4ec" d="M 245.5,95.5 C 246.239,95.369 246.906,95.5357 247.5,96C 245.333,97.5 243.167,99 241,100.5C 239.26,99.2842 238.26,97.6175 238,95.5C 237.617,96.056 237.117,96.3893 236.5,96.5C 236.461,95.4168 236.127,94.4168 235.5,93.5C 237.588,90.7466 239.255,91.08 240.5,94.5C 242.045,95.4519 243.712,95.7852 245.5,95.5 Z"/></g>
<g><path style="opacity:1" fill="#7d96b5" d="M 212.5,97.5 C 214.604,97.2011 216.604,97.5344 218.5,98.5C 216.977,100.283 214.977,100.949 212.5,100.5C 212.5,99.5 212.5,98.5 212.5,97.5 Z"/></g>
<g><path style="opacity:1" fill="#35608e" d="M 337.5,100.5 C 338.873,100.343 340.207,100.51 341.5,101C 341.167,101.333 340.833,101.667 340.5,102C 343.003,103.549 343.003,105.216 340.5,107C 342.277,110.051 343.943,113.218 345.5,116.5C 346.672,116.919 347.672,117.585 348.5,118.5C 346.995,119.842 346.328,121.508 346.5,123.5C 341.824,122.342 337.157,122.175 332.5,123C 333.949,121.883 335.616,121.216 337.5,121C 335.913,120.138 334.246,119.471 332.5,119C 334.791,117.086 337.124,115.252 339.5,113.5C 338.855,111.568 337.521,110.401 335.5,110C 336.833,108.16 336.666,107.66 335,108.5C 334.833,107.5 334.667,106.5 334.5,105.5C 334.771,103.307 335.771,101.641 337.5,100.5 Z"/></g>
<g><path style="opacity:1" fill="#9fb4c9" d="M 499.5,108.5 C 500.043,108.56 500.376,108.893 500.5,109.5C 498.171,110.771 497.005,112.771 497,115.5C 495.033,112.266 495.866,109.933 499.5,108.5 Z"/></g>
<g><path style="opacity:1" fill="#fafbfb" d="M 234.5,97.5 C 235.794,98.2899 236.961,99.2899 238,100.5C 238.456,101.744 237.956,102.577 236.5,103C 237.833,104.667 239.167,106.333 240.5,108C 239.167,109 239.167,110 240.5,111C 238.362,112.422 237.195,114.255 237,116.5C 240.559,113.634 242.726,110.301 243.5,106.5C 249.008,109.755 254.675,112.755 260.5,115.5C 261.096,116.716 261.263,118.049 261,119.5C 261.833,118.5 262.667,117.5 263.5,116.5C 271.033,119.566 278.7,122.233 286.5,124.5C 282.268,132.294 278.601,140.294 275.5,148.5C 269.479,159.885 264.812,171.885 261.5,184.5C 250.243,182.969 239.576,179.636 229.5,174.5C 231.494,172.184 232.494,169.518 232.5,166.5C 230.858,169.102 229.192,171.769 227.5,174.5C 220.676,171.255 214.009,167.755 207.5,164C 206.978,163.439 206.645,162.772 206.5,162C 209.084,154.887 208.417,154.72 204.5,161.5C 193.649,155.316 188.315,145.983 188.5,133.5C 191.313,130.554 193.646,127.221 195.5,123.5C 199.786,119.615 203.619,115.282 207,110.5C 207.333,110.833 207.667,111.167 208,111.5C 209.701,109.288 211.701,108.621 214,109.5C 216.518,105.656 220.018,104.156 224.5,105C 222.671,106.113 221.837,107.613 222,109.5C 222.5,109 223,108.5 223.5,108C 226.167,107.667 228.833,107.333 231.5,107C 232.863,104.871 232.529,104.371 230.5,105.5C 229.435,101.838 230.768,99.1713 234.5,97.5 Z"/></g>
<g><path style="opacity:1" fill="#4e739b" d="M 245.5,95.5 C 246.568,94.5655 247.901,94.2322 249.5,94.5C 247.954,96.649 246.288,98.8156 244.5,101C 245.833,102 245.833,103 244.5,104C 249.497,107.501 254.83,110.501 260.5,113C 261.833,113.667 263.167,113.667 264.5,113C 265.373,111.955 266.373,111.122 267.5,110.5C 267.297,112.044 266.63,113.378 265.5,114.5C 272.781,119.102 280.615,121.102 289,120.5C 289.748,118.668 290.748,117.001 292,115.5C 291.921,117.846 291.088,120.013 289.5,122C 298.886,125.676 308.553,127.176 318.5,126.5C 322.135,116.571 326.135,106.905 330.5,97.5C 329.474,101.411 328.14,105.244 326.5,109C 326.833,109.5 327.167,110 327.5,110.5C 329.635,107.922 331.635,108.088 333.5,111C 332.034,112.552 331.034,114.386 330.5,116.5C 323.516,117.482 320.183,121.482 320.5,128.5C 323.385,128.194 326.052,128.527 328.5,129.5C 326.585,129.216 324.919,129.549 323.5,130.5C 321.833,130.5 320.167,130.5 318.5,130.5C 316.011,139.457 313.677,148.457 311.5,157.5C 309.009,165.602 307.009,173.935 305.5,182.5C 305.591,184.698 304.925,185.031 303.5,183.5C 307.145,165.232 311.812,147.232 317.5,129.5C 307.882,128.531 298.382,126.864 289,124.5C 284.232,132.372 279.732,140.372 275.5,148.5C 278.601,140.294 282.268,132.294 286.5,124.5C 278.7,122.233 271.033,119.566 263.5,116.5C 262.667,117.5 261.833,118.5 261,119.5C 261.263,118.049 261.096,116.716 260.5,115.5C 254.675,112.755 249.008,109.755 243.5,106.5C 242.726,110.301 240.559,113.634 237,116.5C 237.195,114.255 238.362,112.422 240.5,111C 239.167,110 239.167,109 240.5,108C 239.167,106.333 237.833,104.667 236.5,103C 237.956,102.577 238.456,101.744 238,100.5C 236.961,99.2899 235.794,98.2899 234.5,97.5C 234.842,96.6618 235.508,96.3284 236.5,96.5C 237.117,96.3893 237.617,96.056 238,95.5C 238.26,97.6175 239.26,99.2842 241,100.5C 243.167,99 245.333,97.5 247.5,96C 246.906,95.5357 246.239,95.369 245.5,95.5 Z"/></g>
<g><path style="opacity:1" fill="#829eb9" d="M 267.5,110.5 C 268.031,108.456 269.198,106.789 271,105.5C 270.923,107.772 269.757,109.438 267.5,110.5 Z"/></g>
<g><path style="opacity:1" fill="#dfe6ed" d="M 476.5,122.5 C 476.56,121.957 476.893,121.624 477.5,121.5C 478.48,122.981 479.647,124.315 481,125.5C 481.781,126.944 481.614,128.277 480.5,129.5C 479.108,128.395 477.941,127.061 477,125.5C 477.109,124.231 476.942,123.231 476.5,122.5 Z"/></g>
<g><path style="opacity:1" fill="#fbfcfc" d="M 303.5,183.5 C 302.583,186.417 301.916,189.417 301.5,192.5C 297.158,192.261 292.824,191.927 288.5,191.5C 280.312,189.626 271.978,187.793 263.5,186C 263.043,185.586 262.709,185.086 262.5,184.5C 266.844,172.465 271.177,160.465 275.5,148.5C 279.732,140.372 284.232,132.372 289,124.5C 298.382,126.864 307.882,128.531 317.5,129.5C 311.812,147.232 307.145,165.232 303.5,183.5 Z"/></g>
<g><path style="opacity:1" fill="#f4f6f8" d="M 462.5,125.5 C 463.695,125.866 464.361,126.699 464.5,128C 463.355,130.199 463.355,132.365 464.5,134.5C 467.938,136.435 470.938,138.935 473.5,142C 472.663,143.011 472.33,144.178 472.5,145.5C 473.5,145.5 474.5,145.5 475.5,145.5C 476.468,149.432 478.468,152.766 481.5,155.5C 480.312,156.84 478.812,157.507 477,157.5C 470.423,156.405 467.089,152.405 467,145.5C 463.034,142.536 459.367,139.203 456,135.5C 456.754,132.606 457.587,129.606 458.5,126.5C 460.099,126.768 461.432,126.434 462.5,125.5 Z"/></g>
<g><path style="opacity:1" fill="#f4f6f8" d="M 323.5,130.5 C 335.376,129.199 339.876,134.199 337,145.5C 336.311,146.357 335.478,147.023 334.5,147.5C 329.263,147.054 324.263,145.72 319.5,143.5C 318.5,144.167 317.5,144.833 316.5,145.5C 315.667,148.5 314.833,151.5 314,154.5C 313.623,155.942 312.79,156.942 311.5,157.5C 313.677,148.457 316.011,139.457 318.5,130.5C 320.167,130.5 321.833,130.5 323.5,130.5 Z"/></g>
<g><path style="opacity:1" fill="#f5f7f9" d="M 434.5,130.5 C 436.842,130.775 436.842,131.608 434.5,133C 435.747,134.458 435.747,135.958 434.5,137.5C 438.832,138.986 442.832,141.153 446.5,144C 449.684,145.806 450.017,147.806 447.5,150C 441.545,150.851 435.711,150.351 430,148.5C 427.594,148.703 425.594,149.703 424,151.5C 422.34,145.858 420.84,140.191 419.5,134.5C 421.696,134.565 423.696,135.232 425.5,136.5C 425.291,137.086 424.957,137.586 424.5,138C 425.646,138.645 426.646,139.478 427.5,140.5C 429.957,138.999 429.957,137.332 427.5,135.5C 429.724,133.566 432.058,131.899 434.5,130.5 Z"/></g>
<g><path style="opacity:1" fill="#eff2f5" d="M 416.5,136.5 C 417.497,136.47 418.164,136.97 418.5,138C 419.734,142.535 421.067,147.035 422.5,151.5C 417.927,153.579 414.927,152.246 413.5,147.5C 414.125,143.693 415.125,140.027 416.5,136.5 Z"/></g>
<g><path style="opacity:1" fill="#6889ab" d="M 243.5,145.5 C 244.547,141.739 246.381,138.406 249,135.5C 249.315,136.908 248.982,138.241 248,139.5C 246.723,141.747 245.223,143.747 243.5,145.5 Z"/></g>
<g><path style="opacity:1" fill="#c5d1de" d="M 195.5,123.5 C 193.646,127.221 191.313,130.554 188.5,133.5C 187.532,135.607 187.198,137.941 187.5,140.5C 186.778,140.082 186.278,139.416 186,138.5C 184.587,141.661 182.92,144.661 181,147.5C 180.5,146.5 180,145.5 179.5,144.5C 182.289,138.582 185.289,132.915 188.5,127.5C 188.435,127.938 188.601,128.272 189,128.5C 190.777,126.21 192.944,124.543 195.5,123.5 Z"/></g>
<g><path style="opacity:1" fill="#ebeff3" d="M 373.5,140.5 C 378.282,142.099 382.449,144.765 386,148.5C 386.667,150.833 386.667,153.167 386,155.5C 379.427,152.433 375.26,147.433 373.5,140.5 Z"/></g>
<g><path style="opacity:1" fill="#f8f9fa" d="M 349.5,169.5 C 349.701,163.491 350.034,157.491 350.5,151.5C 350.5,149.833 350.5,148.167 350.5,146.5C 354.755,148.15 358.755,147.65 362.5,145C 364.167,144.333 365.833,144.333 367.5,145C 372.359,150.359 377.692,155.193 383.5,159.5C 384.179,161.588 384.512,163.588 384.5,165.5C 385.333,164.5 386.167,163.5 387,162.5C 388.216,171.506 388.383,180.506 387.5,189.5C 385.697,188.863 384.364,187.697 383.5,186C 377.876,184.515 372.543,182.348 367.5,179.5C 368.711,178.126 369.711,176.626 370.5,175C 369.179,172.929 368.179,170.929 367.5,169C 361.472,168.359 355.472,168.526 349.5,169.5 Z"/></g>
<g><path style="opacity:1" fill="#6787aa" d="M 243.5,145.5 C 242.872,148.09 241.705,150.423 240,152.5C 240.085,149.664 241.251,147.331 243.5,145.5 Z"/></g>
<g><path style="opacity:1" fill="#f5f7f9" d="M 387.5,149.5 C 392.191,150.007 394.357,152.674 394,157.5C 396.018,159.35 397.851,161.35 399.5,163.5C 399.911,162.738 400.077,161.738 400,160.5C 401.011,161.337 402.178,161.67 403.5,161.5C 402.948,159.669 402.948,158.003 403.5,156.5C 406.335,154.037 409.335,153.87 412.5,156C 411.5,158.091 412.167,159.757 414.5,161C 414.167,161.333 413.833,161.667 413.5,162C 415.586,165.754 418.753,167.92 423,168.5C 424.326,168.245 425.326,167.578 426,166.5C 427.694,173.139 429.194,179.806 430.5,186.5C 424.824,186.666 419.157,186.499 413.5,186C 410.146,185.235 406.979,184.068 404,182.5C 401.966,182.354 400.299,183.02 399,184.5C 399.044,190.287 396.211,192.62 390.5,191.5C 389.997,180.473 389.497,169.473 389,158.5C 389.654,159.696 390.154,159.696 390.5,158.5C 387.923,156.08 386.923,153.08 387.5,149.5 Z"/></g>
<g><path style="opacity:1" fill="#89a0bb" d="M 364.5,149.5 C 365.497,149.47 366.164,149.97 366.5,151C 365.858,154.817 364.858,155.15 363.5,152C 363.743,151.098 364.077,150.265 364.5,149.5 Z"/></g>
<g><path style="opacity:1" fill="#f4f6f8" d="M 347.5,151.5 C 347.627,156.579 347.627,161.579 347.5,166.5C 347.5,167.5 347.5,168.5 347.5,169.5C 340.275,169.722 333.275,171.055 326.5,173.5C 323.978,172.911 321.478,172.245 319,171.5C 314.212,174.811 309.712,178.478 305.5,182.5C 307.009,173.935 309.009,165.602 311.5,157.5C 312.672,159.844 312.672,162.177 311.5,164.5C 312.328,165.415 313.328,166.081 314.5,166.5C 315.451,165.674 316.451,165.508 317.5,166C 318.147,167.609 318.98,169.109 320,170.5C 320.5,170 321,169.5 321.5,169C 326.871,169.401 331.538,167.901 335.5,164.5C 336.015,161.257 337.348,158.424 339.5,156C 342.448,154.763 345.115,153.263 347.5,151.5 Z"/></g>
<g><path style="opacity:1" fill="#35618e" d="M 364.5,155.5 C 365.793,157.364 365.793,159.364 364.5,161.5C 363.306,159.484 363.306,157.484 364.5,155.5 Z"/></g>
<g><path style="opacity:1" fill="#80bb0d" d="M 156.5,272.5 C 152.929,264.299 151.763,255.633 153,246.5C 156.082,242.266 158.916,237.933 161.5,233.5C 158.833,236.5 156.167,239.5 153.5,242.5C 152.532,240.393 152.198,238.059 152.5,235.5C 152.637,227.615 154.637,220.282 158.5,213.5C 158.154,212.304 157.654,212.304 157,213.5C 156.941,206.009 159.441,199.509 164.5,194C 163.692,193.692 163.025,193.192 162.5,192.5C 163.246,191.264 163.579,189.93 163.5,188.5C 162.065,190.598 160.898,192.931 160,195.5C 159.667,193.5 159.333,191.5 159,189.5C 158.115,199.376 156.115,209.043 153,218.5C 152.148,217.429 151.315,216.429 150.5,215.5C 150.724,217.787 151.391,219.953 152.5,222C 150.776,228.73 149.61,235.564 149,242.5C 148,241.167 147,239.833 146,238.5C 146.126,241.098 147.126,243.431 149,245.5C 150.057,254.858 151.224,264.191 152.5,273.5C 144.988,269.148 139.822,262.815 137,254.5C 125.87,222.063 133.036,194.396 158.5,171.5C 165.291,166.598 172.624,162.431 180.5,159C 183.77,157.679 187.103,157.013 190.5,157C 186.066,160.2 183.733,164.534 183.5,170C 187.563,189.719 188.396,209.553 186,229.5C 180.232,246.743 170.399,261.077 156.5,272.5 Z"/></g>
<g><path style="opacity:1" fill="#36628f" d="M 399.5,165.5 C 400.919,164.549 402.585,164.216 404.5,164.5C 404.807,166.446 404.807,168.113 404.5,169.5C 402.501,168.492 400.834,167.159 399.5,165.5 Z"/></g>
<g><path style="opacity:1" fill="#6384a7" d="M 350.5,151.5 C 350.034,157.491 349.701,163.491 349.5,169.5C 348.833,168.5 348.167,167.5 347.5,166.5C 347.627,161.579 347.627,156.579 347.5,151.5C 348.09,150.234 348.59,148.901 349,147.5C 349.21,149.058 349.71,150.391 350.5,151.5 Z"/></g>
<g><path style="opacity:1" fill="#3c6692" d="M 374.5,165.5 C 377.167,165.5 379.833,165.5 382.5,165.5C 382.5,166.833 382.5,168.167 382.5,169.5C 379.173,169.171 376.507,167.837 374.5,165.5 Z"/></g>
<g><path style="opacity:1" fill="#f6f8fa" d="M 435.5,165.5 C 437.167,165.5 438.833,165.5 440.5,165.5C 441.938,170.725 442.438,176.058 442,181.5C 440.741,184.217 438.574,185.55 435.5,185.5C 434.006,185.291 432.839,184.624 432,183.5C 430.56,178.184 429.56,172.851 429,167.5C 431.86,169.077 434.027,168.41 435.5,165.5 Z"/></g>
<g><path style="opacity:1" fill="#4d739b" d="M 433.5,170.5 C 436.028,171.518 435.861,172.518 433,173.5C 432.5,173.167 432,172.833 431.5,172.5C 432.243,171.818 432.909,171.151 433.5,170.5 Z"/></g>
<g><path style="opacity:1" fill="#7694b3" d="M 197.5,178.5 C 198.092,175.309 199.259,172.309 201,169.5C 200.956,172.923 199.79,175.923 197.5,178.5 Z"/></g>
<g><path style="opacity:1" fill="#9cb2c8" d="M 474.5,176.5 C 475.434,177.568 475.768,178.901 475.5,180.5C 474.325,180.719 473.325,180.386 472.5,179.5C 473.193,178.482 473.859,177.482 474.5,176.5 Z"/></g>
<g><path style="opacity:1" fill="#7694b3" d="M 197.5,178.5 C 196.737,182.137 195.403,185.47 193.5,188.5C 193.872,184.703 195.206,181.37 197.5,178.5 Z"/></g>
<g><path style="opacity:1" fill="#d9e1ea" d="M 477.5,178.5 C 479.737,179.814 482.071,180.98 484.5,182C 482.323,183.202 479.989,183.702 477.5,183.5C 477.5,181.833 477.5,180.167 477.5,178.5 Z"/></g>
<g><path style="opacity:1" fill="#7593b2" d="M 567.5,178.5 C 569.266,182.239 570.099,186.239 570,190.5C 569.333,188.5 568.667,186.5 568,184.5C 566.993,186.742 566.159,186.408 565.5,183.5C 566.537,182.07 567.204,180.403 567.5,178.5 Z"/></g>
<g><path style="opacity:1" fill="#f3f5f8" d="M 482.5,184.5 C 486.536,184.353 489.869,185.853 492.5,189C 493.5,189.167 494.5,189.333 495.5,189.5C 497.694,189.046 499.527,188.046 501,186.5C 502.714,187.076 503.881,188.243 504.5,190C 506.134,190.494 507.801,190.66 509.5,190.5C 510.063,192.91 510.563,195.243 511,197.5C 508.931,196.736 506.764,196.236 504.5,196C 503.782,194.013 502.782,192.179 501.5,190.5C 500.238,193.115 499.072,195.782 498,198.5C 492.9,201.877 491.066,200.71 492.5,195C 490.003,193.017 488.836,193.85 489,197.5C 486.552,193.385 483.719,189.552 480.5,186C 481.416,185.722 482.082,185.222 482.5,184.5 Z"/></g>
<g><path style="opacity:1" fill="#fbfbfc" d="M 547.5,213.5 C 549.31,219.043 550.143,224.71 550,230.5C 541.887,236.306 533.054,240.64 523.5,243.5C 522.187,228.59 518.854,214.257 513.5,200.5C 512.909,197.06 511.909,193.727 510.5,190.5C 514.872,188.563 519.039,186.23 523,183.5C 525.172,184.509 526.338,186.176 526.5,188.5C 527.552,188.351 528.552,188.517 529.5,189C 531.424,191.644 533.758,193.81 536.5,195.5C 537.298,193.922 537.798,192.256 538,190.5C 542.043,197.793 545.21,205.46 547.5,213.5 Z"/></g>
<g><path style="opacity:1" fill="#cce39a" d="M 163.5,188.5 C 163.504,186.158 164.337,184.158 166,182.5C 166.008,184.821 165.175,186.821 163.5,188.5 Z"/></g>
<g><path style="opacity:1" fill="#456c97" d="M 188.5,133.5 C 188.315,145.983 193.649,155.316 204.5,161.5C 208.417,154.72 209.084,154.887 206.5,162C 206.645,162.772 206.978,163.439 207.5,164C 214.009,167.755 220.676,171.255 227.5,174.5C 229.192,171.769 230.858,169.102 232.5,166.5C 232.494,169.518 231.494,172.184 229.5,174.5C 239.576,179.636 250.243,182.969 261.5,184.5C 264.812,171.885 269.479,159.885 275.5,148.5C 271.177,160.465 266.844,172.465 262.5,184.5C 262.709,185.086 263.043,185.586 263.5,186C 271.978,187.793 280.312,189.626 288.5,191.5C 287.833,191.5 287.5,191.833 287.5,192.5C 279.032,191.473 270.699,189.806 262.5,187.5C 260.633,192.982 258.466,198.316 256,203.5C 256.991,197.859 258.158,192.192 259.5,186.5C 249.409,184.415 239.576,181.415 230,177.5C 228.038,178.761 226.538,180.428 225.5,182.5C 225.472,180.418 226.139,178.584 227.5,177C 213.471,171.189 201.638,163.022 192,152.5C 189.636,148.781 188.136,144.781 187.5,140.5C 187.198,137.941 187.532,135.607 188.5,133.5 Z"/></g>
<g><path style="opacity:1" fill="#5c7fa4" d="M 232.5,166.5 C 233.511,162.144 235.344,158.144 238,154.5C 237,158.836 235.167,162.836 232.5,166.5 Z"/></g>
<g><path style="opacity:1" fill="#7190b0" d="M 193.5,188.5 C 192.507,193.313 191.007,197.98 189,202.5C 189.403,197.457 190.903,192.79 193.5,188.5 Z"/></g>
<g><path style="opacity:1" fill="#f3f5f8" d="M 442.5,193.5 C 446.709,197.562 450.209,202.228 453,207.5C 454.667,208.5 456.333,209.5 458,210.5C 459.333,213.833 460.667,217.167 462,220.5C 465.145,223.734 468.478,226.734 472,229.5C 474.264,234.793 476.431,240.127 478.5,245.5C 480.135,246.681 481.802,246.681 483.5,245.5C 484.474,247.743 484.808,250.076 484.5,252.5C 482.011,252.702 479.677,252.202 477.5,251C 478.517,249.951 478.684,248.784 478,247.5C 475.258,243.884 471.758,241.384 467.5,240C 461.169,234.508 457.002,227.675 455,219.5C 449.346,211.148 444.013,202.815 439,194.5C 441.723,198.756 442.89,198.422 442.5,193.5 Z"/></g>
<g><path style="opacity:1" fill="#7fbb09" d="M 304.5,199.5 C 299.163,200.172 295.163,202.839 292.5,207.5C 291.094,207.973 290.427,208.973 290.5,210.5C 287.208,215.58 285.542,221.246 285.5,227.5C 282.169,243.161 278.335,258.828 274,274.5C 268.831,290.514 260.831,304.847 250,317.5C 235.466,332.193 218.632,343.526 199.5,351.5C 199.609,338.456 202.109,325.789 207,313.5C 212.713,308.063 218.88,303.23 225.5,299C 229.349,295.318 233.016,291.485 236.5,287.5C 236.333,287.167 236.167,286.833 236,286.5C 228.127,295.627 218.96,302.294 208.5,306.5C 214.475,289.865 223.475,275.198 235.5,262.5C 233.211,264.006 230.877,265.173 228.5,266C 232.667,259.833 236.833,253.667 241,247.5C 243.063,245.266 245.229,243.266 247.5,241.5C 245.302,241.591 244.969,240.925 246.5,239.5C 250.415,234.718 254.582,230.051 259,225.5C 259.667,224.833 259.667,224.167 259,223.5C 253.922,228.072 249.422,233.072 245.5,238.5C 245.167,239.5 244.5,240.167 243.5,240.5C 244.683,237.173 245.516,233.839 246,230.5C 244.396,233.821 242.896,237.154 241.5,240.5C 235.646,251.198 229.146,261.531 222,271.5C 221.67,265.479 221.67,259.479 222,253.5C 220.818,260.771 220.151,268.104 220,275.5C 214.256,284.988 209.59,294.988 206,305.5C 204.025,298.985 202.691,292.318 202,285.5C 202.333,294.833 202.667,304.167 203,313.5C 199.524,325.69 196.691,338.023 194.5,350.5C 189.914,344.93 186.747,338.596 185,331.5C 178.92,281.031 196.753,241.531 238.5,213C 257.766,202.016 278.433,197.016 300.5,198C 302.058,198.21 303.391,198.71 304.5,199.5 Z"/></g>
<g><path style="opacity:1" fill="#587ca1" d="M 225.5,182.5 C 219.895,199.251 215.061,216.251 211,233.5C 213.198,215.703 218.031,198.703 225.5,182.5 Z"/></g>
<g><path style="opacity:1" fill="#f8f9fb" d="M 512.5,202.5 C 517.804,216.21 520.804,230.377 521.5,245C 515.429,247.299 509.429,249.465 503.5,251.5C 501.938,249.628 500.938,247.295 500.5,244.5C 496.301,247.43 491.968,250.097 487.5,252.5C 485.564,249.792 485.064,246.792 486,243.5C 491,239.167 496,234.833 501,230.5C 501.21,226.624 503.21,224.29 507,223.5C 507.521,220.126 508.854,217.126 511,214.5C 511.828,210.534 512.328,206.534 512.5,202.5 Z"/></g>
<g><path style="opacity:1" fill="#d4e8ab" d="M 150.5,215.5 C 148.797,213.149 148.297,210.482 149,207.5C 149.822,210.117 150.322,212.784 150.5,215.5 Z"/></g>
<g><path style="opacity:1" fill="#d9e2e4" d="M 292.5,207.5 C 292.573,209.027 291.906,210.027 290.5,210.5C 290.427,208.973 291.094,207.973 292.5,207.5 Z"/></g>
<g><path style="opacity:1" fill="#a8b9ca" d="M 290.5,210.5 C 288.552,217.528 286.885,224.528 285.5,231.5C 285.5,230.167 285.5,228.833 285.5,227.5C 285.542,221.246 287.208,215.58 290.5,210.5 Z"/></g>
<g><path style="opacity:1" fill="#f0f6e1" d="M 163.5,188.5 C 163.579,189.93 163.246,191.264 162.5,192.5C 163.025,193.192 163.692,193.692 164.5,194C 159.441,199.509 156.941,206.009 157,213.5C 157.654,212.304 158.154,212.304 158.5,213.5C 154.637,220.282 152.637,227.615 152.5,235.5C 151.2,238.024 151.2,240.691 152.5,243.5C 153.107,243.376 153.44,243.043 153.5,242.5C 156.167,239.5 158.833,236.5 161.5,233.5C 158.916,237.933 156.082,242.266 153,246.5C 151.763,255.633 152.929,264.299 156.5,272.5C 155.295,274.138 153.962,274.471 152.5,273.5C 151.224,264.191 150.057,254.858 149,245.5C 147.126,243.431 146.126,241.098 146,238.5C 147,239.833 148,241.167 149,242.5C 149.61,235.564 150.776,228.73 152.5,222C 151.391,219.953 150.724,217.787 150.5,215.5C 151.315,216.429 152.148,217.429 153,218.5C 156.115,209.043 158.115,199.376 159,189.5C 159.333,191.5 159.667,193.5 160,195.5C 160.898,192.931 162.065,190.598 163.5,188.5 Z"/></g>
<g><path style="opacity:1" fill="#9cb2c8" d="M 566.5,216.5 C 566.5,216.167 566.5,215.833 566.5,215.5C 565.718,209.109 564.885,202.775 564,196.5C 565.46,201.469 566.794,206.469 568,211.5C 568.471,209.754 569.138,208.087 570,206.5C 570.167,207.167 570.333,207.833 570.5,208.5C 569.393,210.881 568.727,213.381 568.5,216C 570.079,223.441 570.579,230.941 570,238.5C 569.638,230.895 568.471,223.562 566.5,216.5 Z"/></g>
<g><path style="opacity:1" fill="#c9e294" d="M 161.5,233.5 C 162.128,230.91 163.295,228.577 165,226.5C 164.915,229.336 163.749,231.669 161.5,233.5 Z"/></g>
<g><path style="opacity:1" fill="#426a95" d="M 560.5,225.5 C 562.689,228.212 564.022,231.378 564.5,235C 564.612,236.662 563.946,237.829 562.5,238.5C 561.088,234.283 560.421,229.95 560.5,225.5 Z"/></g>
<g><path style="opacity:1" fill="#e7f2cf" d="M 246.5,239.5 C 246.5,238.833 246.167,238.5 245.5,238.5C 249.422,233.072 253.922,228.072 259,223.5C 259.667,224.167 259.667,224.833 259,225.5C 254.582,230.051 250.415,234.718 246.5,239.5 Z"/></g>
<g><path style="opacity:1" fill="#d7e9af" d="M 243.5,240.5 C 243.062,241.506 242.396,241.506 241.5,240.5C 242.896,237.154 244.396,233.821 246,230.5C 245.516,233.839 244.683,237.173 243.5,240.5 Z"/></g>
<g><path style="opacity:1" fill="#3b6591" d="M 186.5,232.5 C 192.456,235.478 198.456,238.478 204.5,241.5C 203.635,242.583 202.635,242.749 201.5,242C 197.5,240 193.5,238 189.5,236C 187.937,235.241 186.937,234.074 186.5,232.5 Z"/></g>
<g><path style="opacity:1" fill="#deedbc" d="M 247.5,241.5 C 249.573,238.963 252.24,237.796 255.5,238C 252.929,239.454 250.262,240.62 247.5,241.5 Z"/></g>
<g><path style="opacity:1" fill="#c3df8a" d="M 152.5,235.5 C 152.198,238.059 152.532,240.393 153.5,242.5C 153.44,243.043 153.107,243.376 152.5,243.5C 151.2,240.691 151.2,238.024 152.5,235.5 Z"/></g>
<g><path style="opacity:1" fill="#50749c" d="M 513.5,200.5 C 518.854,214.257 522.187,228.59 523.5,243.5C 533.054,240.64 541.887,236.306 550,230.5C 550.143,224.71 549.31,219.043 547.5,213.5C 550.529,218.883 553.196,224.55 555.5,230.5C 554.5,230.5 553.5,230.5 552.5,230.5C 553.577,236.782 554.243,243.116 554.5,249.5C 554.799,251.604 554.466,253.604 553.5,255.5C 553.167,255.333 552.833,255.167 552.5,255C 553.82,251.399 553.82,247.899 552.5,244.5C 552.66,241.116 552.327,237.783 551.5,234.5C 551.267,233.068 550.6,232.568 549.5,233C 541.941,237.947 533.941,242.114 525.5,245.5C 525.182,249.734 525.182,254.067 525.5,258.5C 525.768,260.099 525.434,261.432 524.5,262.5C 524.054,257.148 523.387,251.815 522.5,246.5C 516.961,248.902 511.294,250.902 505.5,252.5C 505.158,251.662 504.492,251.328 503.5,251.5C 509.429,249.465 515.429,247.299 521.5,245C 520.804,230.377 517.804,216.21 512.5,202.5C 512.833,201.833 513.167,201.167 513.5,200.5 Z"/></g>
<g><path style="opacity:1" fill="#fcfcfc" d="M 524.5,262.5 C 524.5,271.833 524.5,281.167 524.5,290.5C 524.427,298.892 523.761,307.225 522.5,315.5C 515.928,317.19 509.428,319.19 503,321.5C 502.228,321.355 501.561,321.022 501,320.5C 500.612,321.428 499.945,322.095 499,322.5C 495.757,323.269 492.59,324.269 489.5,325.5C 488.914,325.291 488.414,324.957 488,324.5C 487.7,318.496 487.866,312.496 488.5,306.5C 488.334,298.493 488.5,290.493 489,282.5C 491.503,279.498 493.503,276.165 495,272.5C 496.693,266.392 498.693,260.392 501,254.5C 502.33,253.418 503.83,252.751 505.5,252.5C 511.294,250.902 516.961,248.902 522.5,246.5C 523.387,251.815 524.054,257.148 524.5,262.5 Z"/></g>
<g><path style="opacity:1" fill="#2a5989" d="M 180.5,247.5 C 181.793,248.842 182.626,250.509 183,252.5C 183.781,257.554 183.614,262.554 182.5,267.5C 184.8,269.836 186.133,272.67 186.5,276C 183.964,282.976 182.131,290.142 181,297.5C 180.26,309.579 180.593,321.579 182,333.5C 171.555,314.334 164.389,294 160.5,272.5C 168.377,265.049 175.043,256.715 180.5,247.5 Z"/></g>
<g><path style="opacity:1" fill="#e3efc6" d="M 235.5,262.5 C 236.254,260.554 237.588,259.721 239.5,260C 238.529,261.481 237.196,262.315 235.5,262.5 Z"/></g>
<g><path style="opacity:1" fill="#acbed0" d="M 552.5,244.5 C 553.82,247.899 553.82,251.399 552.5,255C 552.833,255.167 553.167,255.333 553.5,255.5C 554.466,253.604 554.799,251.604 554.5,249.5C 555.794,261.693 555.628,274.026 554,286.5C 554.087,281.037 553.254,275.87 551.5,271C 552.428,270.612 553.095,269.945 553.5,269C 552.167,267 552.167,265 553.5,263C 551.388,256.731 550.555,250.231 551,243.5C 551.333,244.167 551.667,244.833 552,245.5C 552.399,245.272 552.565,244.938 552.5,244.5 Z"/></g>
<g><path style="opacity:1" fill="#c0cedc" d="M 564.5,288.5 C 565.072,286.745 565.906,285.078 567,283.5C 568.41,275.217 569.41,266.883 570,258.5C 570.075,265.047 570.241,271.547 570.5,278C 569.589,281.145 568.755,284.312 568,287.5C 566.855,287.619 565.688,287.952 564.5,288.5 Z"/></g>
<g><path style="opacity:1" fill="#7fbb08" d="M 102.5,298.5 C 100.143,294.955 97.1435,292.455 93.5,291C 95.5,293 97.5,295 99.5,297C 93.21,296.294 86.8767,295.961 80.5,296C 87.2665,296.965 93.9332,298.299 100.5,300C 94.2231,301.611 87.8897,302.944 81.5,304C 88.8446,304.332 95.8446,303.165 102.5,300.5C 112.648,302.406 122.314,305.739 131.5,310.5C 128.371,312.022 125.037,312.855 121.5,313C 113.191,313.957 104.858,314.624 96.5,315C 105.167,315.667 113.833,315.667 122.5,315C 127.527,314.09 132.527,313.424 137.5,313C 147.37,318.211 156.704,324.211 165.5,331C 137.042,345.174 107.709,347.174 77.5,337C 68.5885,333.918 59.9218,330.252 51.5,326C 41.1697,318.833 30.503,312.166 19.5,306C 13.8987,303.7 8.56536,304.2 3.5,307.5C 3.16667,307.167 2.83333,306.833 2.5,306.5C 5.92904,300.237 10.5957,295.07 16.5,291C 52.0516,268.774 89.3849,265.441 128.5,281C 147.283,288.114 159.45,301.281 165,320.5C 165.667,322.5 165.667,324.5 165,326.5C 155.909,320.369 146.409,314.869 136.5,310C 133.064,304.396 128.731,299.563 123.5,295.5C 123.167,295.667 122.833,295.833 122.5,296C 126.062,299.058 129.062,302.558 131.5,306.5C 131.167,306.833 130.833,307.167 130.5,307.5C 121.412,303.693 112.079,300.693 102.5,298.5 Z"/></g>
<g><path style="opacity:0.97" fill="#81bc13" d="M 144.5,270.5 C 147.454,272.28 150.287,274.28 153,276.5C 155.023,285.252 157.023,293.919 159,302.5C 156.045,297.713 152.545,293.38 148.5,289.5C 146.911,283.22 145.577,276.886 144.5,270.5 Z"/></g>
<g><path style="opacity:1" fill="#adbfd1" d="M 525.5,258.5 C 526.473,260.948 526.806,263.615 526.5,266.5C 525.833,274.5 525.167,282.5 524.5,290.5C 524.5,281.167 524.5,271.833 524.5,262.5C 525.434,261.432 525.768,260.099 525.5,258.5 Z"/></g>
<g><path style="opacity:1" fill="#fdfdfd" d="M 341.5,279.5 C 341.5,298.833 341.5,318.167 341.5,337.5C 325.473,336.908 309.473,335.908 293.5,334.5C 293.5,332.5 293.5,330.5 293.5,328.5C 293.5,326.5 293.5,324.5 293.5,322.5C 293.171,308.656 293.504,294.99 294.5,281.5C 296.809,283.727 299.642,284.727 303,284.5C 309.835,283.194 316.668,283.194 323.5,284.5C 329.493,282.836 335.493,281.17 341.5,279.5 Z"/></g>
<g><path style="opacity:1" fill="#fcfcfd" d="M 345.5,280.5 C 347.434,282.76 349.101,285.26 350.5,288C 353.179,288.434 355.846,288.268 358.5,287.5C 360.835,288.171 363.002,289.171 365,290.5C 365.229,296.991 364.563,303.324 363,309.5C 365.243,313.748 368.243,317.414 372,320.5C 375.601,326.026 377.768,332.026 378.5,338.5C 367.167,338.5 355.833,338.5 344.5,338.5C 344.17,318.993 344.503,299.659 345.5,280.5 Z"/></g>
<g><path style="opacity:1" fill="#b8c7d7" d="M 457.5,281.5 C 458.494,283.826 459.327,286.16 460,288.5C 457.863,286.679 457.03,284.346 457.5,281.5 Z"/></g>
<g><path style="opacity:1" fill="#f9fafb" d="M 485.5,286.5 C 486.677,299.676 486.677,313.009 485.5,326.5C 480.625,327.085 475.958,328.085 471.5,329.5C 470.167,329.5 468.833,329.5 467.5,329.5C 467.207,325.563 467.54,321.73 468.5,318C 467.572,317.612 466.905,316.945 466.5,316C 471.965,305.56 478.299,295.727 485.5,286.5 Z"/></g>
<g><path style="opacity:1" fill="#c9e193" d="M 54.5,294.5 C 62.3577,293.383 70.3577,293.549 78.5,295C 70.4987,295.27 62.4987,295.103 54.5,294.5 Z"/></g>
<g><path style="opacity:1" fill="#e3efc6" d="M 102.5,298.5 C 101.167,299.167 101.167,299.833 102.5,300.5C 95.8446,303.165 88.8446,304.332 81.5,304C 87.8897,302.944 94.2231,301.611 100.5,300C 93.9332,298.299 87.2665,296.965 80.5,296C 86.8767,295.961 93.21,296.294 99.5,297C 97.5,295 95.5,293 93.5,291C 97.1435,292.455 100.143,294.955 102.5,298.5 Z"/></g>
<g><path style="opacity:1" fill="#f1f4f7" d="M 448.5,297.5 C 450.14,298.32 451.807,299.153 453.5,300C 451.241,302.354 449.907,305.187 449.5,308.5C 447.833,308.5 446.167,308.5 444.5,308.5C 444.336,305.813 444.503,303.146 445,300.5C 446.145,299.364 447.312,298.364 448.5,297.5 Z"/></g>
<g><path style="opacity:1" fill="#a5b9cd" d="M 294.5,281.5 C 293.504,294.99 293.171,308.656 293.5,322.5C 292.174,308.661 292.174,294.661 293.5,280.5C 294.107,280.624 294.44,280.957 294.5,281.5 Z"/></g>
<g><path style="opacity:1" fill="#c0cedc" d="M 345.5,280.5 C 344.503,299.659 344.17,318.993 344.5,338.5C 343.172,318.996 343.172,299.329 344.5,279.5C 345.107,279.624 345.44,279.957 345.5,280.5 Z"/></g>
<g><path style="opacity:1" fill="#54789f" d="M 526.5,266.5 C 526.864,281.558 526.197,296.558 524.5,311.5C 524.833,312.167 525.167,312.833 525.5,313.5C 534.274,309.947 542.607,305.614 550.5,300.5C 551.472,296.533 552.305,292.533 553,288.5C 553.369,291.877 553.369,295.21 553,298.5C 557.001,295.331 560.834,291.997 564.5,288.5C 561.232,293.603 557.065,297.937 552,301.5C 551.254,305.896 550.254,310.23 549,314.5C 549.018,310.446 549.351,306.446 550,302.5C 541.78,307.944 533.113,312.611 524,316.5C 521.851,330.118 518.017,343.118 512.5,355.5C 516.78,342.716 519.946,329.716 522,316.5C 510.777,321.014 499.277,324.681 487.5,327.5C 485.703,332.981 484.703,338.647 484.5,344.5C 484.565,344.938 484.399,345.272 484,345.5C 483.722,344.584 483.222,343.918 482.5,343.5C 483.167,338.5 483.833,333.5 484.5,328.5C 481.123,328.959 477.789,329.626 474.5,330.5C 473.791,329.596 472.791,329.263 471.5,329.5C 475.958,328.085 480.625,327.085 485.5,326.5C 486.677,313.009 486.677,299.676 485.5,286.5C 485.56,285.957 485.893,285.624 486.5,285.5C 487.167,292.655 487.833,299.655 488.5,306.5C 487.866,312.496 487.7,318.496 488,324.5C 488.414,324.957 488.914,325.291 489.5,325.5C 492.59,324.269 495.757,323.269 499,322.5C 499.945,322.095 500.612,321.428 501,320.5C 501.561,321.022 502.228,321.355 503,321.5C 509.428,319.19 515.928,317.19 522.5,315.5C 523.761,307.225 524.427,298.892 524.5,290.5C 525.167,282.5 525.833,274.5 526.5,266.5 Z"/></g>
<g><path style="opacity:1" fill="#d2dbe5" d="M 434.5,313.5 C 436.621,318.721 438.621,324.054 440.5,329.5C 440.167,329.833 439.833,330.167 439.5,330.5C 435.953,325.464 434.286,319.797 434.5,313.5 Z"/></g>
<g><path style="opacity:1" fill="#fafbfc" d="M 482.5,343.5 C 480.628,346.057 478.795,348.723 477,351.5C 477.485,356.731 475.819,361.065 472,364.5C 471.564,366.847 471.064,369.181 470.5,371.5C 470.925,373.38 471.925,374.88 473.5,376C 472.528,378.111 471.695,380.278 471,382.5C 468.262,383.482 465.428,384.148 462.5,384.5C 454.03,386.074 445.697,387.741 437.5,389.5C 436.127,389.657 434.793,389.49 433.5,389C 436.065,386.705 437.731,383.872 438.5,380.5C 446.895,378.217 450.062,372.883 448,364.5C 454.667,359.167 461.333,353.833 468,348.5C 469.107,343.561 469.941,338.561 470.5,333.5C 470.291,332.914 469.957,332.414 469.5,332C 470.905,330.731 472.571,330.231 474.5,330.5C 477.789,329.626 481.123,328.959 484.5,328.5C 483.833,333.5 483.167,338.5 482.5,343.5 Z"/></g>
<g><path style="opacity:1" fill="#94c630" d="M 168.5,326.5 C 169.848,327.527 170.348,328.86 170,330.5C 168.812,329.437 168.312,328.103 168.5,326.5 Z"/></g>
<g><path style="opacity:1" fill="#d3dde6" d="M 432.5,331.5 C 433.713,332.497 433.546,333.497 432,334.5C 431.53,333.423 431.697,332.423 432.5,331.5 Z"/></g>
<g><path style="opacity:0.974" fill="#7fbb0c" d="M 195.5,372.5 C 194.089,370.461 192.089,369.461 189.5,369.5C 187.75,368.13 185.75,367.13 183.5,366.5C 183.5,365.833 183.167,365.5 182.5,365.5C 176.067,355.74 170.067,345.74 164.5,335.5C 165.314,333.727 166.648,333.227 168.5,334C 171.295,335.793 173.795,337.96 176,340.5C 181.882,351.044 188.549,361.044 196,370.5C 196.692,371.437 196.525,372.103 195.5,372.5 Z"/></g>
<g><path style="opacity:1" fill="#325f8d" d="M 474.5,382.5 C 474.5,382.833 474.5,383.167 474.5,383.5C 473.325,383.281 472.325,383.614 471.5,384.5C 469.312,389.555 466.645,394.222 463.5,398.5C 465.215,394.069 467.215,389.735 469.5,385.5C 467.78,385.254 465.78,385.254 463.5,385.5C 462.833,385.5 462.5,385.167 462.5,384.5C 465.428,384.148 468.262,383.482 471,382.5C 471.695,380.278 472.528,378.111 473.5,376C 471.925,374.88 470.925,373.38 470.5,371.5C 471.064,369.181 471.564,366.847 472,364.5C 475.819,361.065 477.485,356.731 477,351.5C 478.795,348.723 480.628,346.057 482.5,343.5C 483.222,343.918 483.722,344.584 484,345.5C 484.399,345.272 484.565,344.938 484.5,344.5C 489.047,341.601 492.38,337.601 494.5,332.5C 495.833,335.833 495.833,339.167 494.5,342.5C 490.346,354.159 484.179,364.492 476,373.5C 474.931,376.208 473.764,378.875 472.5,381.5C 472.957,382.298 473.624,382.631 474.5,382.5 Z"/></g>
<g><path style="opacity:1" fill="#d6dfe8" d="M 449.5,334.5 C 451.185,335.184 452.185,336.517 452.5,338.5C 451.926,341.177 451.259,343.843 450.5,346.5C 449.509,342.555 449.176,338.555 449.5,334.5 Z"/></g>
<g><path style="opacity:1" fill="#fcfcfc" d="M 332.5,339.5 C 335.833,339.5 339.167,339.5 342.5,339.5C 342.323,351.854 342.656,364.187 343.5,376.5C 343.907,382.161 344.24,387.828 344.5,393.5C 336.848,392.626 329.182,392.459 321.5,393C 329.439,394.321 337.439,394.821 345.5,394.5C 346.084,406.254 347.417,417.921 349.5,429.5C 348.167,429.5 346.833,429.5 345.5,429.5C 337.037,428.629 328.537,427.629 320,426.5C 318.107,425.992 316.607,424.992 315.5,423.5C 314.921,420.669 313.588,418.336 311.5,416.5C 308.034,408.434 305.367,400.101 303.5,391.5C 308.796,392.509 314.129,392.676 319.5,392C 313.865,391.096 308.198,390.596 302.5,390.5C 298.062,372.766 295.395,354.766 294.5,336.5C 307.166,337.5 319.832,338.5 332.5,339.5 Z"/></g>
<g><path style="opacity:1" fill="#fcfdfd" d="M 382.5,393.5 C 372.167,393.5 361.833,393.5 351.5,393.5C 349.833,393.5 348.167,393.5 346.5,393.5C 346.247,382.988 345.58,372.655 344.5,362.5C 344.5,355.167 344.5,347.833 344.5,340.5C 356.167,340.5 367.833,340.5 379.5,340.5C 379.662,342.527 379.495,344.527 379,346.5C 377.333,347.5 376,348.833 375,350.5C 372.801,355.291 372.134,360.291 373,365.5C 375.911,368.99 378.578,372.656 381,376.5C 380.872,379.486 380.872,382.486 381,385.5C 382.362,388.236 384.196,390.569 386.5,392.5C 385.311,393.429 383.978,393.762 382.5,393.5 Z"/></g>
<g><path style="opacity:1" fill="#7291b0" d="M 216.5,346.5 C 218.431,348.794 219.264,351.461 219,354.5C 217.659,351.978 216.826,349.311 216.5,346.5 Z"/></g>
<g><path style="opacity:1" fill="#426a95" d="M 212.5,348.5 C 213.737,349.743 213.404,350.743 211.5,351.5C 211.167,351.167 210.833,350.833 210.5,350.5C 211.243,349.818 211.909,349.151 212.5,348.5 Z"/></g>
<g><path style="opacity:1" fill="#3c6592" d="M 203.5,353.5 C 205.397,355.269 206.564,357.602 207,360.5C 208.41,361.787 209.91,362.954 211.5,364C 210.262,363.923 209.262,364.089 208.5,364.5C 209.984,368.095 210.817,371.762 211,375.5C 206.62,370.789 202.62,365.789 199,360.5C 198.333,359.167 198.333,357.833 199,356.5C 200.652,355.601 202.152,354.601 203.5,353.5 Z"/></g>
<g><path style="opacity:1" fill="#7795b3" d="M 512.5,355.5 C 512.245,358.016 511.411,360.35 510,362.5C 509.705,359.758 510.538,357.425 512.5,355.5 Z"/></g>
<g><path style="opacity:0.747" fill="#f0f4e6" d="M 177.5,364.5 C 179.042,365.301 180.708,365.634 182.5,365.5C 183.167,365.5 183.5,365.833 183.5,366.5C 185.75,367.13 187.75,368.13 189.5,369.5C 184.874,368.237 180.208,367.071 175.5,366C 176.416,365.722 177.082,365.222 177.5,364.5 Z"/></g>
<g><path style="opacity:1" fill="#e0edc0" d="M 157.5,365.5 C 155.562,367.163 153.228,367.829 150.5,367.5C 152.515,366.076 154.848,365.41 157.5,365.5 Z"/></g>
<g><path style="opacity:1" fill="#81bb12" d="M 158.5,337.5 C 163.699,347.355 170.032,356.355 177.5,364.5C 177.082,365.222 176.416,365.722 175.5,366C 180.208,367.071 184.874,368.237 189.5,369.5C 191.181,371.008 193.181,372.008 195.5,372.5C 201.599,376.764 206.932,381.931 211.5,388C 210.906,388.464 210.239,388.631 209.5,388.5C 202.465,385.987 195.131,384.154 187.5,383C 186.211,381.198 184.544,380.031 182.5,379.5C 182.953,380.458 183.619,381.292 184.5,382C 178.78,382.788 173.114,382.621 167.5,381.5C 166.304,381.846 166.304,382.346 167.5,383C 161.332,384.056 155.332,385.723 149.5,388C 148.304,388.654 148.304,389.154 149.5,389.5C 161.136,384.391 173.136,382.891 185.5,385C 184.04,385.811 183.707,386.645 184.5,387.5C 185.941,386.696 187.441,386.029 189,385.5C 194.827,386.566 200.661,387.566 206.5,388.5C 200.318,399.841 190.985,407.341 178.5,411C 163.808,413.757 149.474,412.424 135.5,407C 132.304,406.195 129.304,406.362 126.5,407.5C 124.973,407.427 123.973,408.094 123.5,409.5C 123.5,410.167 123.167,410.5 122.5,410.5C 121.539,408.735 121.205,406.735 121.5,404.5C 121.5,404.167 121.5,403.833 121.5,403.5C 123.101,400.45 124.101,397.116 124.5,393.5C 126.341,391.151 127.674,388.485 128.5,385.5C 131.805,381.859 135.138,378.192 138.5,374.5C 140.404,374.262 141.738,373.262 142.5,371.5C 145.485,370.674 148.151,369.341 150.5,367.5C 153.228,367.829 155.562,367.163 157.5,365.5C 161.312,364.676 165.312,364.176 169.5,364C 164.098,356.02 159.098,347.853 154.5,339.5C 155.287,337.896 156.62,337.229 158.5,337.5 Z"/></g>
<g><path style="opacity:0.369" fill="#f0f3e9" d="M 150.5,367.5 C 148.151,369.341 145.485,370.674 142.5,371.5C 144.579,369.127 147.246,367.794 150.5,367.5 Z"/></g>
<g><path style="opacity:1" fill="#708faf" d="M 223.5,370.5 C 219.813,369.824 216.48,368.324 213.5,366C 217.166,366.665 220.5,368.165 223.5,370.5 Z"/></g>
<g><path style="opacity:1" fill="#d9eab3" d="M 189.5,369.5 C 192.089,369.461 194.089,370.461 195.5,372.5C 193.181,372.008 191.181,371.008 189.5,369.5 Z"/></g>
<g><path style="opacity:1" fill="#7b97b5" d="M 508.5,371.5 C 512.829,368.501 517.496,366.334 522.5,365C 518.192,367.988 513.525,370.155 508.5,371.5 Z"/></g>
<g><path style="opacity:0.894" fill="#ecf3db" d="M 142.5,371.5 C 141.738,373.262 140.404,374.262 138.5,374.5C 139.262,372.738 140.596,371.738 142.5,371.5 Z"/></g>
<g><path style="opacity:1" fill="#f1f3f6" d="M 500.5,379.5 C 494.214,391.291 485.881,401.458 475.5,410C 476.167,410.333 476.833,410.667 477.5,411C 472.758,413.12 468.258,415.62 464,418.5C 463.439,417.978 462.772,417.645 462,417.5C 458.283,419.018 454.449,420.018 450.5,420.5C 449.209,420.737 448.209,420.404 447.5,419.5C 453.087,412.641 458.421,405.641 463.5,398.5C 466.645,394.222 469.312,389.555 471.5,384.5C 472.325,383.614 473.325,383.281 474.5,383.5C 483.204,381.532 491.704,378.865 500,375.5C 500.5,375.833 501,376.167 501.5,376.5C 500.873,377.417 500.539,378.417 500.5,379.5 Z"/></g>
<g><path style="opacity:1" fill="#e2f0c7" d="M 182.5,379.5 C 181.244,379.539 180.244,379.039 179.5,378C 180.998,377.415 181.998,377.915 182.5,379.5 Z"/></g>
<g><path style="opacity:1" fill="#6e8dae" d="M 508.5,371.5 C 507.4,372.558 506.066,373.392 504.5,374C 503.512,376.167 502.179,378 500.5,379.5C 500.539,378.417 500.873,377.417 501.5,376.5C 501,376.167 500.5,375.833 500,375.5C 491.704,378.865 483.204,381.532 474.5,383.5C 474.5,383.167 474.5,382.833 474.5,382.5C 484.107,379.507 493.773,376.34 503.5,373C 504.46,371.581 505.293,370.081 506,368.5C 506.236,370.119 507.069,371.119 508.5,371.5 Z"/></g>
<g><path style="opacity:0.831" fill="#e8ecdf" d="M 138.5,374.5 C 135.138,378.192 131.805,381.859 128.5,385.5C 130.442,380.559 133.775,376.892 138.5,374.5 Z"/></g>
<g><path style="opacity:1" fill="#edf5dc" d="M 182.5,379.5 C 184.544,380.031 186.211,381.198 187.5,383C 195.131,384.154 202.465,385.987 209.5,388.5C 208.5,389.833 207.5,389.833 206.5,388.5C 200.661,387.566 194.827,386.566 189,385.5C 187.441,386.029 185.941,386.696 184.5,387.5C 183.707,386.645 184.04,385.811 185.5,385C 173.136,382.891 161.136,384.391 149.5,389.5C 148.304,389.154 148.304,388.654 149.5,388C 155.332,385.723 161.332,384.056 167.5,383C 166.304,382.346 166.304,381.846 167.5,381.5C 173.114,382.621 178.78,382.788 184.5,382C 183.619,381.292 182.953,380.458 182.5,379.5 Z"/></g>
<g><path style="opacity:1" fill="#708eaf" d="M 462.5,384.5 C 462.5,385.167 462.833,385.5 463.5,385.5C 455.377,387.608 447.044,389.275 438.5,390.5C 438.5,389.833 438.167,389.5 437.5,389.5C 445.697,387.741 454.03,386.074 462.5,384.5 Z"/></g>
<g><path style="opacity:0.475" fill="#edf1e1" d="M 128.5,385.5 C 127.674,388.485 126.341,391.151 124.5,393.5C 124.794,390.246 126.127,387.579 128.5,385.5 Z"/></g>
<g><path style="opacity:1" fill="#53779e" d="M 341.5,279.5 C 342.497,298.993 342.83,318.66 342.5,338.5C 338.958,338.187 335.625,338.521 332.5,339.5C 319.832,338.5 307.166,337.5 294.5,336.5C 295.395,354.766 298.062,372.766 302.5,390.5C 308.198,390.596 313.865,391.096 319.5,392C 314.129,392.676 308.796,392.509 303.5,391.5C 305.367,400.101 308.034,408.434 311.5,416.5C 306.58,408.624 303.246,399.957 301.5,390.5C 288.985,389.692 276.652,387.692 264.5,384.5C 263.833,384.833 263.167,385.167 262.5,385.5C 264.12,388.404 265.453,391.404 266.5,394.5C 263.881,391.438 261.881,387.938 260.5,384C 250.745,381.137 241.079,377.971 231.5,374.5C 230.904,375.716 230.737,377.049 231,378.5C 229.748,376.999 228.748,375.332 228,373.5C 226.348,372.601 224.848,371.601 223.5,370.5C 224.376,370.631 225.043,370.298 225.5,369.5C 223.749,367.028 222.915,364.361 223,361.5C 224.706,365.079 226.539,368.579 228.5,372C 238.609,376.107 248.942,379.107 259.5,381C 251.668,363.329 247.001,344.829 245.5,325.5C 260.641,329.246 275.974,331.912 291.5,333.5C 291.5,331.833 291.5,330.167 291.5,328.5C 292.167,328.5 292.833,328.5 293.5,328.5C 293.5,330.5 293.5,332.5 293.5,334.5C 309.473,335.908 325.473,336.908 341.5,337.5C 341.5,318.167 341.5,298.833 341.5,279.5 Z"/></g>
<g><path style="opacity:1" fill="#fcfcfd" d="M 247.5,327.5 C 262.355,330.964 277.355,333.63 292.5,335.5C 293.368,353.778 296.034,371.778 300.5,389.5C 287.09,387.895 273.923,385.229 261,381.5C 253.986,364.11 249.486,346.11 247.5,327.5 Z"/></g>
<g><path style="opacity:1" fill="#fafbfc" d="M 463.5,398.5 C 458.421,405.641 453.087,412.641 447.5,419.5C 444.458,421.268 441.125,422.434 437.5,423C 431.151,424.169 424.817,425.336 418.5,426.5C 417.808,425.975 417.308,425.308 417,424.5C 415.509,426.004 413.676,426.837 411.5,427C 403.664,427.662 395.997,428.495 388.5,429.5C 387.127,429.657 385.793,429.49 384.5,429C 386.873,421.339 388.539,413.506 389.5,405.5C 389.351,404.448 389.517,403.448 390,402.5C 391.463,404.57 393.463,405.903 396,406.5C 402.336,403.029 409.169,401.196 416.5,401C 421.175,398.664 425.508,395.831 429.5,392.5C 429.833,393 430.167,393.5 430.5,394C 427.625,403.553 424.125,412.72 420,421.5C 425.69,412.1 430.023,402.1 433,391.5C 434.699,390.594 436.533,390.261 438.5,390.5C 447.044,389.275 455.377,387.608 463.5,385.5C 465.78,385.254 467.78,385.254 469.5,385.5C 467.215,389.735 465.215,394.069 463.5,398.5 Z"/></g>
<g><path style="opacity:1" fill="#597ca2" d="M 344.5,362.5 C 345.58,372.655 346.247,382.988 346.5,393.5C 348.167,393.5 349.833,393.5 351.5,393.5C 350.081,394.451 348.415,394.784 346.5,394.5C 346.216,396.415 346.549,398.081 347.5,399.5C 348.045,409.617 349.378,419.617 351.5,429.5C 362.167,429.5 372.833,429.5 383.5,429.5C 385.077,420.356 386.744,411.356 388.5,402.5C 388.263,403.791 388.596,404.791 389.5,405.5C 388.539,413.506 386.873,421.339 384.5,429C 385.793,429.49 387.127,429.657 388.5,429.5C 388.5,429.833 388.5,430.167 388.5,430.5C 387.127,430.343 385.793,430.51 384.5,431C 381.806,438.413 381.139,438.247 382.5,430.5C 372.161,430.334 361.828,430.5 351.5,431C 352.724,433.39 353.224,435.89 353,438.5C 351.659,435.978 350.826,433.311 350.5,430.5C 348.833,430.5 347.167,430.5 345.5,430.5C 345.5,430.167 345.5,429.833 345.5,429.5C 346.833,429.5 348.167,429.5 349.5,429.5C 347.417,417.921 346.084,406.254 345.5,394.5C 337.439,394.821 329.439,394.321 321.5,393C 329.182,392.459 336.848,392.626 344.5,393.5C 344.24,387.828 343.907,382.161 343.5,376.5C 344.486,372.03 344.819,367.363 344.5,362.5 Z"/></g>
<g><path style="opacity:1" fill="#7b99b6" d="M 351.5,393.5 C 361.833,393.5 372.167,393.5 382.5,393.5C 384.5,394.167 386.5,394.833 388.5,395.5C 374.833,395.5 361.167,395.5 347.5,395.5C 347.5,396.833 347.5,398.167 347.5,399.5C 346.549,398.081 346.216,396.415 346.5,394.5C 348.415,394.784 350.081,394.451 351.5,393.5 Z"/></g>
<g><path style="opacity:0.922" fill="#ccd5b8" d="M 124.5,393.5 C 124.101,397.116 123.101,400.45 121.5,403.5C 121.59,399.786 122.59,396.452 124.5,393.5 Z"/></g>
<g><path style="opacity:1" fill="#fdfdfd" d="M 388.5,395.5 C 388.5,397.833 388.5,400.167 388.5,402.5C 386.744,411.356 385.077,420.356 383.5,429.5C 372.833,429.5 362.167,429.5 351.5,429.5C 349.378,419.617 348.045,409.617 347.5,399.5C 347.5,398.167 347.5,396.833 347.5,395.5C 361.167,395.5 374.833,395.5 388.5,395.5 Z"/></g>
<g><path style="opacity:0.42" fill="#eeeeee" d="M 121.5,404.5 C 121.205,406.735 121.539,408.735 122.5,410.5C 122.013,411.473 121.513,412.473 121,413.5C 120.195,410.304 120.362,407.304 121.5,404.5 Z"/></g>
<g><path style="opacity:1" fill="#7694b3" d="M 266.5,394.5 C 269.47,398.32 272.304,402.32 275,406.5C 275.667,407.167 275.667,407.833 275,408.5C 271.391,404.277 268.557,399.61 266.5,394.5 Z"/></g>
<g><path style="opacity:0.008" fill="#c1c1be" d="M 126.5,407.5 C 126.027,408.906 125.027,409.573 123.5,409.5C 123.973,408.094 124.973,407.427 126.5,407.5 Z"/></g>
<g><path style="opacity:1" fill="#a4b8cc" d="M 287.5,421.5 C 283.737,421.143 280.07,420.31 276.5,419C 278.856,418.845 281.189,418.845 283.5,419C 281.671,417.887 280.837,416.387 281,414.5C 283.372,416.703 285.539,419.037 287.5,421.5 Z"/></g>
<g><path style="opacity:1" fill="#5c7fa4" d="M 311.5,416.5 C 313.588,418.336 314.921,420.669 315.5,423.5C 313.412,421.664 312.079,419.331 311.5,416.5 Z"/></g>
<g><path style="opacity:1" fill="#a9bbcf" d="M 287.5,421.5 C 290.781,421.42 293.781,422.087 296.5,423.5C 294.801,423.34 293.134,423.506 291.5,424C 292.696,424.654 292.696,425.154 291.5,425.5C 289.812,424.479 288.479,423.145 287.5,421.5 Z"/></g>
<g><path style="opacity:1" fill="#95acc4" d="M 447.5,419.5 C 448.209,420.404 449.209,420.737 450.5,420.5C 447.154,421.344 444.154,423.011 441.5,425.5C 441.511,424.559 441.011,423.892 440,423.5C 431.888,425.269 423.721,426.769 415.5,428C 413.307,431.876 410.307,434.543 406.5,436C 408.833,433.667 411.167,431.333 413.5,429C 405.141,428.891 396.807,429.391 388.5,430.5C 388.5,430.167 388.5,429.833 388.5,429.5C 395.997,428.495 403.664,427.662 411.5,427C 413.676,426.837 415.509,426.004 417,424.5C 417.308,425.308 417.808,425.975 418.5,426.5C 424.817,425.336 431.151,424.169 437.5,423C 441.125,422.434 444.458,421.268 447.5,419.5 Z"/></g>
<g><path style="opacity:1" fill="#94abc3" d="M 296.5,423.5 C 302.924,423.96 309.257,424.96 315.5,426.5C 316.087,425.767 316.087,424.767 315.5,423.5C 316.607,424.992 318.107,425.992 320,426.5C 328.537,427.629 337.037,428.629 345.5,429.5C 345.5,429.833 345.5,430.167 345.5,430.5C 337.174,429.564 328.841,429.064 320.5,429C 321.451,429.718 321.617,430.551 321,431.5C 319.833,430.333 318.667,429.167 317.5,428C 310.276,426.913 303.276,425.413 296.5,423.5 Z"/></g>




<g/>
</svg>