<svg xmlns="http://www.w3.org/2000/svg" xmlns:xlink="http://www.w3.org/1999/xlink" version="1.1" width="550px" height="550px" style="shape-rendering:geometricPrecision; text-rendering:geometricPrecision; image-rendering:optimizeQuality; fill-rule:evenodd; clip-rule:evenodd">
<g><path style="opacity:0.992" fill="#00b955" d="M 249.5,-0.5 C 252.5,-0.5 255.5,-0.5 258.5,-0.5C 258.5,85.8333 258.5,172.167 258.5,258.5C 245.496,258.333 232.496,258.5 219.5,259C 210.359,262.808 203.859,269.308 200,278.5C 199.5,358.499 199.333,438.499 199.5,518.5C 196.813,518.664 194.146,518.497 191.5,518C 97.9065,488.74 36.7399,427.24 8,333.5C 4.18335,318.886 1.35001,304.22 -0.5,289.5C -0.5,272.5 -0.5,255.5 -0.5,238.5C 12.4175,139.149 63.7508,67.3155 153.5,23C 184.228,9.49813 216.228,1.6648 249.5,-0.5 Z M 205.5,154.5 C 219.718,153.841 230.551,159.507 238,171.5C 244.638,188.694 240.471,202.528 225.5,213C 208.289,220.375 194.289,216.375 183.5,201C 176.17,184.68 179.503,171.013 193.5,160C 197.441,157.861 201.441,156.028 205.5,154.5 Z"/></g>
<g><path style="opacity:0.987" fill="#00b956" d="M 301.5,2.5 C 383.404,15.7623 446.404,57.4289 490.5,127.5C 531.962,200.863 538.795,277.53 511,357.5C 470.532,453.431 398.365,509.597 294.5,526C 276.821,527.143 259.154,527.31 241.5,526.5C 241.333,451.833 241.5,377.166 242,302.5C 255.494,301.954 268.994,301.121 282.5,300C 293.191,295.302 299.357,287.136 301,275.5C 301.5,184.501 301.667,93.5006 301.5,2.5 Z M 286.5,342.5 C 312.972,345.788 323.472,360.455 318,386.5C 310.706,400.452 299.206,406.619 283.5,405C 264.199,398.239 256.366,384.739 260,364.5C 265.399,352.927 274.232,345.593 286.5,342.5 Z M 365.5,342.5 C 390.161,345.14 400.994,358.806 398,383.5C 391.349,399.241 379.516,406.408 362.5,405C 341.75,398.006 334.25,383.839 340,362.5C 342.946,356.396 347.112,351.396 352.5,347.5C 357.022,345.998 361.355,344.332 365.5,342.5 Z M 443.5,342.5 C 466.116,343.947 477.616,355.947 478,378.5C 471.013,402.057 455.847,409.89 432.5,402C 417.606,390.985 413.439,376.818 420,359.5C 426.084,351.225 433.918,345.559 443.5,342.5 Z"/></g>

















</svg>