<svg xmlns="http://www.w3.org/2000/svg" width="32" height="32" fill="none">
<g id="homepage-logo.3372a385 3" clip-path="url(#clip0_1_1260)">
<path id="Vector" opacity="0.01" d="M85.76 0H0V32H85.76V0Z" fill="white"/>
<path id="Vector_2" d="M19.1207 28.7513C17.5274 30.079 15.7383 31.1525 13.8374 31.9153C13.5299 32.0283 13.1944 32.0283 12.9149 31.9153C11.014 31.1243 9.22494 30.0507 7.63152 28.7513L12.8869 26.5478C13.1944 26.4348 13.5299 26.4348 13.8374 26.5478L19.1207 28.7513ZM13.8374 17.7338C13.5299 17.6208 13.1944 17.6208 12.8869 17.7338L2.3202 22.1691C3.13088 23.7511 4.13723 25.2201 5.33927 26.5478L12.7472 23.4403C13.1385 23.2708 13.6137 23.2708 14.0051 23.4403L21.413 26.5478C22.5871 25.2201 23.6213 23.7511 24.432 22.1691L13.8374 17.7338ZM25.9695 14.0049L13.8374 8.91987C13.5299 8.80687 13.1944 8.80687 12.8869 8.91987L0.754767 14.0049C0 14.3333 0.111817 14.3333 0.111817 14.6546C0.279543 16.2931 0.642949 17.9316 1.17408 19.4853L12.7472 14.6263C13.1385 14.4569 13.6137 14.4569 14.0051 14.6263L25.5782 19.4853C26.1093 17.9316 26.4727 16.2931 26.6404 14.6546C26.5006 14.3439 26.277 14.1179 25.9695 14.0049ZM26.5286 5.64291C26.5006 5.58641 26.4727 5.55815 26.4168 5.50165L26.3609 5.44515C26.2491 5.33215 26.1093 5.24741 25.9695 5.19091L13.8374 0.105937C13.5299 -0.0353122 13.1944 -0.0353122 12.8869 0.105937L0.754767 5.19091C0.698858 5.21915 0.642949 5.24741 0.58704 5.27566C0.503177 5.33215 0.447269 5.38865 0.363405 5.44515C0.335452 5.47341 0.279543 5.52991 0.251589 5.58641C0.223634 5.64291 0.223634 5.61465 0.223634 5.64291C0.0838627 5.84065 0 6.0949 0 6.34915V11.1799L12.7472 5.84065C13.1385 5.67115 13.6137 5.67115 14.0051 5.84065L26.7522 11.1799V6.34915C26.7522 6.0949 26.6684 5.84065 26.5286 5.64291Z" fill="url(#paint0_linear_1_1260)"/>




</g>
<defs>
<linearGradient id="paint0_linear_1_1260" x1="0" y1="16" x2="26.7522" y2="16" gradientUnits="userSpaceOnUse">
<stop stop-color="#4193CF"/>
<stop offset="1" stop-color="#68E2FB"/>
</linearGradient>
<clipPath id="clip0_1_1260">
<rect width="85.76" height="32" fill="white"/>
</clipPath>
</defs>
<script xmlns=""/><link xmlns=""/></svg>