<svg xmlns="http://www.w3.org/2000/svg" xmlns:xlink="http://www.w3.org/1999/xlink" version="1.1" width="126px" height="126px" style="shape-rendering:geometricPrecision; text-rendering:geometricPrecision; image-rendering:optimizeQuality; fill-rule:evenodd; clip-rule:evenodd">
<g><path style="opacity:0.985" fill="#fcfcfc" d="M 21.5,-0.5 C 48.8333,-0.5 76.1667,-0.5 103.5,-0.5C 114.5,3.16667 121.833,10.5 125.5,21.5C 125.5,48.8333 125.5,76.1667 125.5,103.5C 121.833,114.5 114.5,121.833 103.5,125.5C 76.1667,125.5 48.8333,125.5 21.5,125.5C 10.5,121.833 3.16667,114.5 -0.5,103.5C -0.5,76.1667 -0.5,48.8333 -0.5,21.5C 3.16667,10.5 10.5,3.16667 21.5,-0.5 Z"/></g>

<g><path style="opacity:1" fill="#1d4969" d="M 82.5,61.5 C 86.5,62.1667 90.5,62.8333 94.5,63.5C 79.3945,68.1858 64.7279,67.0191 50.5,60C 40.4872,54.9974 31.1538,48.9974 22.5,42C 29.5,41.3333 36.5,41.3333 43.5,42C 54.8758,51.6879 67.8758,58.1879 82.5,61.5 Z"/></g>
<g><path style="opacity:1" fill="#8d8a7c" d="M 50.5,42.5 C 56.3188,41.3475 62.3188,41.1808 68.5,42C 78.562,52.0207 90.562,56.0207 104.5,54C 91.4097,61.3008 78.4097,60.9675 65.5,53C 60.1211,49.9827 55.1211,46.4827 50.5,42.5 Z"/></g>
<g><path style="opacity:1" fill="#b7c4cd" d="M 82.5,61.5 C 87.1785,61.3342 91.8452,61.5008 96.5,62C 95.9558,62.7172 95.2891,63.2172 94.5,63.5C 90.5,62.8333 86.5,62.1667 82.5,61.5 Z"/></g>
<g><path style="opacity:1" fill="#8c897b" d="M 104.5,91.5 C 97.825,91.6663 91.1583,91.4996 84.5,91C 81.9528,88.946 79.2861,87.1126 76.5,85.5C 63.8223,76.1043 49.4889,70.9377 33.5,70C 35.9113,68.4171 38.578,67.4171 41.5,67C 66.0492,66.2829 87.0492,74.4496 104.5,91.5 Z"/></g>
<g><path style="opacity:1" fill="#204c6b" d="M 73.5,87.5 C 74.343,89.1733 75.6763,90.34 77.5,91C 71.5,91.6667 65.5,91.6667 59.5,91C 49.2789,81.3707 37.2789,77.3707 23.5,79C 24.0442,78.2828 24.7109,77.7828 25.5,77.5C 29.6209,75.0099 34.1209,73.6766 39,73.5C 51.9339,74.7528 63.4339,79.4195 73.5,87.5 Z"/></g>
</svg>