<svg xmlns="http://www.w3.org/2000/svg" width="50" height="50" viewBox="-1 3 25 20" fill="none">
<g clip-path="url(#clip0_2498_36205)">
<g clip-path="url(#clip1_2498_36205)">
<path d="M17.2096 0.833313H5.64373C2.52703 0.833313 0 3.39526 0 6.55503V18.2818C0 21.4416 2.52703 24.0035 5.64373 24.0035H17.2107C20.3274 24.0035 22.8544 21.4416 22.8544 18.2818V6.55503C22.8544 3.39526 20.3274 0.833313 17.2107 0.833313" fill="#690DD3"/>
<path d="M12.9907 18.0146V14.2838H9.86234V18.0146H7.46976L10.3716 20.9565C10.9538 21.5468 11.8992 21.5468 12.4815 20.9565L15.3833 18.0146H12.9907ZM5.90612 16.4283V8.4065L3.00432 11.3484C2.42206 11.9387 2.42206 12.8972 3.00432 13.4875L5.90612 16.4294V16.4283ZM9.86234 6.82017V10.552H12.9907V6.82017H15.3833L12.4815 3.87828C11.8992 3.28797 10.9538 3.28797 10.3716 3.87828L7.46976 6.82017H9.86234ZM19.8487 11.3473L16.9469 8.40543V16.4272L19.8487 13.4853C20.431 12.895 20.431 11.9366 19.8487 11.3462" fill="white"/>







</g>
</g>
<defs>
<clipPath id="clip0_2498_36205">
<rect width="124" height="25" fill="white"/>
</clipPath>
<clipPath id="clip1_2498_36205">
<rect width="124" height="23.1928" fill="white" transform="translate(0 0.833313)"/>
</clipPath>
</defs>
<script xmlns=""/><link xmlns=""/></svg>