<svg xmlns="http://www.w3.org/2000/svg" xmlns:xlink="http://www.w3.org/1999/xlink" version="1.1" width="88px" height="88px" style="shape-rendering:geometricPrecision; text-rendering:geometricPrecision; image-rendering:optimizeQuality; fill-rule:evenodd; clip-rule:evenodd">
<g><path style="opacity:0.925" fill="#ff6600" d="M 10.5,-0.5 C 15.1667,-0.5 19.8333,-0.5 24.5,-0.5C 25.7997,0.601008 26.2997,1.93434 26,3.5C 14.8542,11.1808 6.02083,20.8475 -0.5,32.5C -0.5,25.1667 -0.5,17.8333 -0.5,10.5C 1.83333,5.5 5.5,1.83333 10.5,-0.5 Z"/></g>
<g><path style="opacity:0.961" fill="#ff6400" d="M 65.5,-0.5 C 70.5,-0.5 75.5,-0.5 80.5,-0.5C 80.9867,0.473444 81.4867,1.47344 82,2.5C 82.6667,16.5 82.6667,30.5 82,44.5C 72.826,63.5082 58.326,76.6748 38.5,84C 18.0008,88.4231 5.00081,80.5897 -0.5,60.5C -0.5,55.5 -0.5,50.5 -0.5,45.5C 4.84646,31.9643 13.1798,20.4643 24.5,11C 25.448,10.5172 26.448,10.3505 27.5,10.5C 27.0318,25.9296 27.5318,41.2629 29,56.5C 30.9522,58.8936 33.4522,60.3936 36.5,61C 42.2367,61.7894 47.9034,61.4561 53.5,60C 54.3255,43.9074 54.8255,27.7407 55,11.5C 56.9363,6.0678 60.4363,2.0678 65.5,-0.5 Z"/></g>
<g><path style="opacity:0.856" fill="#ff6600" d="M 81.5,56.5 C 82.6525,62.3188 82.8192,68.3188 82,74.5C 81.4169,76.0016 80.5836,77.3349 79.5,78.5C 69.7037,83.366 59.3704,85.866 48.5,86C 62.1801,79.1526 73.1801,69.3192 81.5,56.5 Z"/></g>
</svg>