<svg xmlns="http://www.w3.org/2000/svg" width="150" height="150" viewBox="0 0 42 42" fill="none">
<g clip-path="url(#clip0_106_31)">
<mask id="mask0_106_31" style="mask-type:luminance" maskUnits="userSpaceOnUse" x="0" y="0" height="" width="500">
<path d="M208.018 0H0V40.2967H208.018V0Z" fill="white"/>
</mask>
<g mask="url(#mask0_106_31)">

<path fill-rule="evenodd" clip-rule="evenodd" d="M20.1676 0C24.7839 0 29.0379 1.55025 32.4368 4.15792C35.8705 6.79245 38.432 10.5072 39.6119 14.793H39.6139L39.6562 14.9519C39.8147 15.5474 39.9473 16.1543 40.0517 16.771C40.1547 17.3798 40.2306 17.997 40.2776 18.62L40.2947 18.8489H26.1944L25.3547 20.8426L40.323 20.8417L40.3132 21.0631C40.2855 21.6858 40.2292 22.3008 40.1467 22.9072C40.0626 23.5211 39.9515 24.1253 39.8139 24.717L39.7756 24.8826H39.7732C38.703 29.3219 36.1622 33.1887 32.6946 35.9384C29.2538 38.6669 24.9011 40.2967 20.1676 40.2967C19.6397 40.2967 19.1147 40.2761 18.593 40.2359C18.072 40.1955 17.551 40.1343 17.0318 40.0532C16.6616 39.995 15.2923 39.7688 15.0201 39.6331C14.7568 39.5638 14.4929 39.4883 14.2295 39.4072C13.9602 39.3244 13.6979 39.2377 13.4432 39.1478L13.2303 39.0725L19.2511 24.8835H16.8459L11.1405 38.1707L10.9374 38.0662C10.3887 37.7836 9.85184 37.4742 9.32943 37.1408C8.80076 36.8036 8.29304 36.4456 7.80842 36.0699L7.69018 35.9781L7.69044 35.9767C5.32492 34.1131 3.38616 31.7302 2.04696 28.9996C0.736323 26.327 0 23.3229 0 20.1485C0 14.5848 2.25761 9.54761 5.90713 5.90155C9.55664 2.25549 14.5988 0 20.1676 0ZM21.7932 18.8489H19.437L18.5806 20.8434H20.9506L21.7932 18.8489ZM30.5258 8.56375L27.9026 14.793H34.7344C34.2978 13.5988 33.718 12.4719 33.0168 11.4335C32.3041 10.3782 31.4665 9.41449 30.5258 8.56375ZM23.5064 14.793L27.1269 6.22168C26.0821 5.68917 24.9701 5.27125 23.8078 4.98453C22.6198 4.69152 21.3774 4.53593 20.0993 4.53593C15.8168 4.53593 11.9232 6.28633 9.10077 9.10633C6.27807 11.9261 4.52604 15.816 4.52604 20.0942V20.2028C4.52604 20.3625 4.52794 20.5034 4.53121 20.6243L4.53882 20.8443L14.1737 20.8437L16.7716 14.793H23.5064ZM12.4388 24.8837L5.25121 24.8842C5.66299 26.179 6.24031 27.4006 6.9576 28.5241C7.68413 29.6627 8.55635 30.703 9.54707 31.6178L12.4388 24.8837ZM34.9467 24.882L23.6431 24.8829L19.0425 35.7252C19.1722 35.7342 19.2991 35.7416 19.4236 35.7469C19.6375 35.7561 19.8628 35.7608 20.0991 35.7608C23.5727 35.7608 26.7898 34.6092 29.3869 32.6695C31.9756 30.7362 33.9488 28.0204 34.9467 24.882Z" fill="#F9B503"/>
</g>
</g>
<defs>
<clipPath id="clip0_106_31">
<rect width="208.018" height="40.38" fill="white"/>
</clipPath>
</defs>
</svg>