<svg xmlns="http://www.w3.org/2000/svg" width="50" height="50" fill="none" viewBox="0 -10 50 50"><g clip-path="url(#clip0)"><path d="M39.7278 0H31.0016L24.6738 7.30754V16.5179L31.0016 23.7102H39.7278L29.3863 11.9127L39.7278 0Z" fill="#004C91"/><path d="M20.3706 22.2045L29.3926 11.8525L20.3706 1.50391L16.0059 6.50711L20.6664 11.8525L16.0059 17.2013L20.3706 22.2045Z" fill="#004C91"/><path d="M8.72625 11.8534L19.058 0H12.9545H10.335L0 11.8534L10.335 23.7102H19.058L8.72625 11.8534Z" fill="#00B2FF"/><path d="M48.0153 4.16526L51.6455 0H42.9193L39.2891 4.16526H48.0153Z" fill="#004C91"/><path d="M45.9746 6.50781H37.2484L32.5879 11.8532L42.9196 23.71H51.6459L41.3141 11.8532L45.9746 6.50781Z" fill="#00B2FF"/></g><defs><clipPath id="clip0"><rect width="195" height="24" fill="white"/></clipPath></defs></svg>