<svg xmlns="http://www.w3.org/2000/svg" viewBox="0 0 40 40" width="46.00000000000001" height="46.00000000000001"><g fill="none" fill-rule="evenodd"><path fill="#316E87" d="M13.062 0l-1.784 11.286 5.69 5.695 1.785-11.285z"/><path fill="#00B5A0" d="M0 13.07l5.692 5.696 11.277-1.784-5.692-5.697z"/><path fill="#316E87" d="M20.95 34.037l5.691 5.696 1.786-11.284-5.692-5.697z"/><path fill="#00B5A0" d="M34.012 20.966l-11.277 1.785 5.692 5.697 11.276-1.786z"/><path fill="#FBB040" d="M20.95 5.696l1.786 11.285 5.691-5.696L26.642.001z"/><path fill="#F58220" d="M22.735 16.981l11.277 1.786 5.692-5.696-11.277-1.786z"/><path fill="#FBB040" d="M11.277 28.448l1.784 11.285 5.692-5.697-1.786-11.284z"/><path fill="#F58220" d="M0 26.663l11.278 1.785 5.69-5.696-11.276-1.785z"/></g></svg>