<svg xmlns="http://www.w3.org/2000/svg" xmlns:xlink="http://www.w3.org/1999/xlink" xml:space="preserve" width="50px" height="50px" version="1.1" style="shape-rendering:geometricPrecision; text-rendering:geometricPrecision; image-rendering:optimizeQuality; fill-rule:evenodd; clip-rule:evenodd" id="Layer_1" viewBox="-2 -2 27 27">
    <rect width="200%" height="200%" fill="#FF700D" x="-10" y="-10"/>
    <defs><style>.cls-1,.cls-2{fill:#fff;}.cls-2{fill-rule:evenodd;}</style></defs><path class="cls-1" d="M7.62,14.31h.02v-.06l-.02-1.46h0c-.03-.23-.03-.47-.04-.73,0-.29-.01-.59-.05-.85,0-.38-.08-.78-.16-1.18l-.05-.27v-.03s-.02-.02-.02-.02c-.06-.06-.08-.13-.1-.22-.02-.07-.04-.15-.08-.22-.1-.18-.25-.35-.39-.51h0c-.04-.06-.08-.08-.11-.1-.02-.02-.04-.03-.06-.05l-.03-.03h-.02s-.02-.01-.02-.01c-.12-.1-.24-.14-.37-.18h0c-.04-.06-.11-.06-.16-.07v-.04h-.07s-.32-.06-.32-.06h-.05s-.03.03-.03.03c-.01.01-.01.02-.08,0-.03-.01-.07-.02-.1-.03h-.04s-.02.01-.02.01c-.01,0-.02-.01-.04-.02l-.13-.04v.06c-.07,0-.12.01-.17.03h-.41s.02.08.02.08h0c-.09-.02-.15.04-.19.07,0,0-.01.01-.02.01-.07.01-.11.04-.14.07-.02.01-.03.02-.05.02h-.03s-.02.03-.02.03c-.03.03-.12.08-.17.1l-.11.05.03.02s-.04.02-.05.03h-.1v.08h0s-.01,0-.01,0l-.06-.03s-.04.05-.04.05c-.06.09-.15.18-.24.27-.1.11-.21.22-.29.35l-.02.04.02.04s-.07.04-.08.1c-.04.04-.05.1-.06.14,0,.01,0,.03,0,.03-.04.05-.05.11-.06.14,0,.03,0,.05-.02.07l-.05.06.02.02s-.02.08-.02.1c0,.01,0,.03,0,.03l-.03.02v.05c.02.1,0,.2,0,.3-.01.1-.03.2-.02.31-.04.06-.03.13-.02.18,0,.01,0,.04,0,.05l-.05.04.04.06s0,.12-.01.2c-.02.07-.04.15-.02.23,0,0-.01.01-.02.02,0,.01-.02.03-.01.06,0,.06,0,.07,0,.08l-.04.08v.03s.06.05.06.05c0,.05,0,.09,0,.13,0,.05,0,.08,0,.1l-.04.08.04.05s0,0,0,.01c0,.04,0,.1.04.15,0,0,0,.02,0,.02l-.08.02.05.11s0,.02,0,.03c0,.03-.02.1.01.15-.03.07,0,.13,0,.17,0,.01,0,.03,0,.04-.07.08-.04.18-.02.24-.03.05-.03.12-.02.15l-.1.03.1.11s0,.05.01.08c.01.02.03.03.04.04h-.03s0,.02,0,.02h0l.04.09h0c-.01.07,0,.12.03.16,0,.01-.01.03-.02.04l-.04.04.04.06s.02.1,0,.19c-.02.08-.04.18,0,.27l-.06.06.07.05s0,0,0,0c-.02.04-.05.1,0,.17h0s0,.08,0,.14c0,.08-.02.18.02.28v.1s-.01-.01-.01-.01c-.01.04,0,.07,0,.1h-.03s.02.08.02.08c.02.07.02.16.02.25,0,.18,0,.38.16.53l.03.03h.05c.12-.05.12-.17.13-.23,0-.01,0-.03,0-.04v-.02s0-.02,0-.02c-.05-.16-.03-.38,0-.56,0-.05,0-.1.01-.14v-.02s0-.02,0-.02c-.03-.07-.03-.13-.02-.2,0-.07.02-.14,0-.22.03-.34.01-.75,0-1.1,0-.15-.01-.3-.01-.43h0s0,0,0,0c-.02-.17-.01-.35,0-.52,0-.16,0-.32,0-.47.04-.17.03-.33.03-.49,0-.07,0-.15,0-.23v-.02h0c.04-.05.05-.1.03-.14.02-.06.02-.12.02-.18,0-.04,0-.08.01-.12v-.02s0-.02,0-.02c-.01-.03,0-.08.01-.12.01-.05.02-.12,0-.18.06-.13.08-.29.09-.44v-.05s0-.06-.03-.09h0c0-.07.03-.13.08-.2.05-.08.1-.16.12-.28v-.02s0,0,0,0c0,0,.01-.01.02-.02.03-.02.07-.06.07-.12,0-.01,0-.02,0-.03.06-.05.09-.11.12-.16.05-.08.08-.13.17-.16h.04s0-.06,0-.06c.01-.05.06-.08.13-.12.05-.03.11-.07.15-.12.06,0,.09-.01.11-.03.07-.02.13-.06.17-.1.08-.06.1-.07.15-.05l.05.02.03-.03s0,0,0,0c.02,0,.07-.02.09-.06.02,0,.04-.01.06-.02.04-.01.05-.02.07,0,.02.01.04.02.08.01h0s.06,0,.06,0h.08c.23-.04.44-.07.62.03l.06.04.04-.06s.02.02.02.03c.05.05.13.14.25.12.03.02.06.04.08.06.01,0,.03.01.03.02h0s.02.03.02.03c.04.05.11.07.18.07.14.15.28.34.28.43v.08h.06s0,0,0,0c.02.11.05.24.14.33-.02.06,0,.12,0,.15,0,0,0,.02,0,.03l-.02.06.05.05h.01c0,.06.02.11.04.15,0,.01.01.02.01.03v.03c-.09.14.01.22.06.26,0,0,.01,0,.02.01-.04.03-.04.06-.04.11v.06s.03.04.03.04h0s0,0,0,0c0,.01,0,.03.02.05l-.03.03-.02.07.04.06.03.02s.01.06.02.08c0,0,0,0,0,.01v.03c-.04.13-.07.31.01.45,0,0,0,0,0,0-.04.05-.03.11-.02.15,0,.01,0,.04,0,.04l-.02.08s.03,0,.05.02c0,0,0,.01,0,.02l-.02.1h.03s0,.07,0,.09c0,.05,0,.08-.02.11h0s0,.02,0,.02c-.02.09,0,.17.03.24,0,.01,0,.03.01.04-.01.02-.03.04-.03.07,0,0,0,.01,0,.02l-.02.02v.05s.04.05.06.05h-.01s0,.07,0,.07v.02h-.05s.02.07.02.07c-.01.02-.03.06-.01.1l-.03.06s0,.04.04.05c-.03.11.05.19.1.24.02.02.03.04.04.05h-.04l.03.1h0s-.01.02-.02.03l-.06.03.02.09v.02s0,.08,0,.1c0,0,0,0,0,0-.03.02-.05.06-.06.11v.08s.05,0,.05,0c0,.02-.01.03-.01.05,0,.03-.01.05-.03.07h0s0,0,0,.01l.11.06s-.02.06-.03.08c0,.01,0,.03-.01.03h-.1v.11s.01.03.01.06c0,.02,0,.04.01.06v.11s0,.04,0,.06h-.01s.01.07.01.07c0,.03,0,.06,0,.09,0,.02,0,.04,0,.05l-.07.04.09.1s0,0,0,0c-.01.03-.02.06-.02.09h-.07l.11.14s.02.04.02.06c0,0,0,0,0,0-.05.04-.05.11-.05.14,0,.02,0,.04,0,.04,0,0,0,0,0,0l.03.04s-.03.03-.04.05c0,.03,0,.05,0,.08h-.11l.09.09-.08.03.07.06v.22s.02.07.05.09h0s.09.03.13.02v.09l.11-.03c.08-.02.14-.03.2-.01l.09.02v-.09c.05-.33.04-.64.03-.94,0-.3-.01-.58.02-.85.02-.06,0-.1-.02-.13"/><path class="cls-1" d="M20.06,6.33h0s0,0,0,0c-.14-.08-.34-.13-.48-.07-.89-.08-1.73-.07-2.63-.06h-.06c-.45,0-.91.01-1.38,0l-3.75-.08c-.88-.02-1.85-.02-2.79.02-.7,0-1.38.02-2.07.04-.72.02-2.45.02-3.47.03-.55,0-.83,0-.87,0-.12,0-.27.18-.27.31,0,.08.04.16.17.18.1.01.72.01,1.85.01h1.15c.31,0,.45,0,.52-.01h0c.85-.08,1.7-.08,2.53-.07h.07c.53,0,1.09,0,1.64-.02.12.03.24,0,.35-.02h.02c.05-.01.11-.02.16-.03.13.03.27.03.42.03.15,0,.3,0,.43.03h0s.02,0,.02,0h0c.12-.05.23-.02.34,0,0,0,.02,0,.02,0,.06.01.11.02.16.02,1.07-.03,2.26,0,3.74.12,0,0,.7.08.7.08h0c.62-.06,1.26-.01,1.89.03h.01c.47.03.91.07,1.35.06h0s.03,0,.03,0h0s.23-.19.23-.19h0s.01,0,.01,0h0c.08-.13.05-.3-.05-.4"/><path class="cls-1" d="M13.85,14.31h.02s0-.06,0-.06l-.02-1.46h0c-.03-.23-.03-.47-.04-.73,0-.29-.01-.59-.05-.85,0-.38-.08-.78-.16-1.18l-.05-.27v-.03s-.02-.02-.02-.02c-.06-.06-.08-.13-.1-.22-.02-.07-.04-.15-.08-.22-.1-.18-.25-.35-.39-.51h0c-.03-.06-.07-.08-.11-.1-.02-.02-.04-.03-.06-.05l-.03-.03h-.02s-.03-.01-.03-.01c-.12-.1-.24-.14-.37-.18h0c-.04-.06-.11-.06-.16-.07v-.04h-.07s-.32-.06-.32-.06h-.05s-.03.03-.03.03c-.01.01-.02.02-.08,0-.03-.01-.07-.02-.1-.03h-.04s-.02.01-.02.01c0,0-.02-.01-.04-.02l-.13-.04v.06c-.07,0-.12.01-.17.03h-.41s.02.08.02.08h0c-.09-.02-.16.04-.19.07,0,0-.01.01-.02.01-.07.01-.11.04-.14.07-.02.01-.03.02-.05.02h-.03s-.02.03-.02.03c-.03.03-.12.08-.17.1l-.11.05.02.02s-.04.02-.05.03h-.11v.08h0s0,0-.01,0l-.06-.03s-.04.05-.04.05c-.06.09-.15.18-.24.27-.1.11-.21.22-.29.35l-.03.04.02.04s-.07.04-.08.1c-.04.04-.05.1-.06.14,0,.01,0,.03,0,.03-.04.05-.05.11-.06.14,0,.03,0,.05-.02.07l-.05.06.02.02s-.02.08-.02.1c0,.01,0,.03,0,.03l-.04.02v.05c.02.1,0,.2,0,.3-.01.1-.03.2-.02.31-.04.06-.03.13-.02.18,0,.01,0,.04,0,.05l-.05.04.04.06s0,.12-.01.2c-.02.07-.05.15-.02.23,0,0-.01.01-.02.02,0,.01-.02.03-.02.06,0,.06,0,.07,0,.08l-.04.08v.03s.06.05.06.05c0,.05,0,.09,0,.13,0,.05.01.08,0,.1l-.04.08.04.05h0s0,.11.04.16c0,0,0,.02,0,.02l-.08.02.05.11s0,.02,0,.03c0,.03-.02.1.01.15-.03.07,0,.13,0,.17,0,.01,0,.03,0,.04-.08.08-.04.18-.02.24-.03.05-.03.12-.02.15l-.1.03.1.11s0,.05.01.08c.01.02.03.03.04.04h-.03s0,.02,0,.02h0l.04.09h0c0,.07,0,.12.03.16,0,.01-.01.03-.02.04l-.04.04.04.06s.02.1,0,.19c-.02.08-.05.18,0,.27l-.06.06.07.05s0,0,0,0c-.02.04-.05.1,0,.17h0s0,.08,0,.14c0,.08-.02.18.02.28v.1s-.01-.01-.01-.01c-.01.04,0,.07.01.1h-.03s.02.08.02.08c.02.07.02.16.02.25,0,.18,0,.38.16.53l.03.03h.04c.12-.05.12-.17.13-.23,0-.01,0-.03,0-.04v-.02s0-.02,0-.02c-.05-.16-.03-.38,0-.56,0-.05,0-.1.01-.14v-.02s0-.02,0-.02c-.03-.07-.02-.13-.02-.2,0-.07.02-.14,0-.22.03-.34.01-.75,0-1.1,0-.15-.01-.3-.01-.43h0s0,0,0,0c-.02-.17-.02-.35,0-.52,0-.16,0-.32,0-.47.04-.17.04-.33.03-.49,0-.07,0-.15,0-.23v-.02h0c.04-.05.05-.1.03-.14.02-.06.02-.12.02-.18,0-.04,0-.08.01-.12v-.02s0-.02,0-.02c-.01-.03,0-.08,0-.12.01-.05.03-.12,0-.18.06-.13.08-.29.09-.44v-.05s0-.06-.03-.09h0c0-.07.04-.13.08-.2.05-.08.1-.16.12-.28v-.02s0,0,0,0c0,0,.01-.01.02-.02.03-.02.07-.06.07-.12,0-.01,0-.02,0-.03.06-.05.09-.11.12-.16.05-.08.08-.13.17-.16h.04s.01-.06.01-.06c.01-.05.06-.08.13-.12.05-.03.11-.07.15-.12.06,0,.1-.01.11-.03.07-.02.12-.06.17-.1.07-.06.1-.07.15-.05l.05.02.03-.03s0,0,0,0c.02,0,.07-.02.09-.06.02,0,.04-.01.06-.02.04-.01.05-.02.07,0,.01.01.04.02.08.01h0s.06,0,.06,0h.08c.23-.04.44-.07.62.03l.07.04.04-.06s.02.02.03.03c.05.05.13.14.25.12.03.02.06.04.08.06.01,0,.02.01.03.02h0s.02.03.02.03c.04.05.11.07.18.07.14.15.28.34.28.43v.08h.06s0,0,0,0c.02.11.05.24.14.33-.02.06,0,.12,0,.15,0,0,0,.02,0,.03l-.02.06.06.05h.01c0,.06.02.11.04.15,0,.01.01.02.02.03l-.02.03c-.07.14.03.22.07.26,0,0,.01,0,.02.01-.04.03-.03.06-.04.11v.06s.03.04.03.04h0s0,0,0,0c0,.01,0,.03.02.05l-.03.03-.02.07.04.06.03.02s.01.06.02.08c0,0,0,0,0,.01v.03c-.03.13-.07.31.01.45,0,0,0,0,0,0-.04.05-.03.11-.02.15,0,.01,0,.04,0,.04l-.02.08s.03,0,.05.02c0,0,0,.01,0,.02l-.02.1h.03s0,.07,0,.09c0,.05,0,.08-.02.11h0s0,.02,0,.02c-.02.09,0,.17.03.24,0,.01,0,.03.01.04-.01.02-.03.04-.03.07,0,0,0,.01,0,.02l-.02.02.02.05s.03.05.05.05h-.01s0,.07,0,.07v.02h-.05s.03.07.03.07c-.01.02-.03.06-.01.1l-.04.06s0,.04.04.05c-.03.11.05.19.1.24.02.02.03.04.04.05h-.04l.03.1h0s-.02.02-.02.03l-.07.03.02.09v.02s-.01.08,0,.1c0,0,0,0,.01,0-.02.02-.05.06-.06.11v.08s.06,0,.06,0c0,.02-.01.03-.02.05,0,.03-.01.05-.03.07h0s0,0,0,.01l.11.06s-.02.06-.03.08c0,.01,0,.03-.01.03h-.1v.11s.01.03.02.06c0,.02,0,.04.01.06v.11s0,.04,0,.06h-.01s0,.07,0,.07c0,.03,0,.06,0,.09,0,.02,0,.04,0,.05l-.07.04.09.1h0s-.02.06-.02.1h-.06l.11.14s.02.04.02.06c0,0,0,0,0,0-.05.04-.05.11-.06.14,0,.02,0,.04,0,.04,0,0,0,0,0,0l.03.04s-.04.03-.04.05c-.01.03-.01.05,0,.08h-.11l.09.09-.08.03.07.06v.22s.02.07.05.09c0,0,0,0,0,0,.04.03.09.03.13.02v.09l.1-.03c.08-.02.14-.03.2-.01l.09.02v-.09c.05-.33.04-.64.03-.94,0-.3-.01-.58.02-.85.03-.06,0-.1-.02-.13"/><path class="cls-1" d="M19.97,14.42h.02s0-.06,0-.06l-.02-1.46h0c-.03-.23-.03-.47-.04-.73,0-.29-.01-.59-.05-.85,0-.38-.08-.79-.16-1.18l-.05-.27v-.02s-.02-.02-.02-.02c-.06-.06-.08-.13-.1-.22-.02-.07-.04-.14-.08-.21-.1-.18-.25-.35-.39-.51h0c-.03-.06-.07-.08-.11-.1-.02-.01-.04-.03-.06-.04l-.03-.03h-.02s-.02-.01-.02-.01c-.12-.1-.24-.14-.37-.18h0c-.04-.06-.11-.06-.16-.07v-.04h-.07s-.33-.06-.33-.06h-.05s-.03.03-.03.03c-.01.02-.01.02-.08,0-.03-.01-.07-.02-.1-.03h-.04s-.02.01-.02.01c-.01,0-.02-.01-.04-.02l-.13-.04v.06c-.07,0-.12.01-.17.03h-.41l.02.08s0,0,0,0c-.09-.02-.16.03-.19.06,0,0-.01.01-.02.02-.07.01-.11.04-.14.06-.02.02-.03.02-.05.02h-.03s-.02.03-.02.03c-.03.04-.12.08-.17.1l-.11.05.02.02s-.04.02-.05.03h-.11v.08h0s-.01,0-.01,0l-.06-.02s-.04.05-.04.05c-.06.09-.15.18-.24.27-.1.11-.21.22-.29.35l-.02.04.02.04s-.07.04-.08.1c-.04.04-.05.1-.06.14,0,.01,0,.03,0,.03-.04.05-.05.11-.06.15,0,.03,0,.05-.02.06l-.05.06.02.02s-.02.08-.02.11c0,.01,0,.03,0,.03l-.03.02v.05c.02.1,0,.2,0,.3-.02.1-.03.19-.02.31-.04.06-.03.13-.02.18,0,.01,0,.04,0,.05l-.05.04.03.06s0,.12-.01.19c-.02.07-.05.15-.02.23,0,0-.01.01-.02.02,0,.01-.02.03-.02.06,0,.06,0,.07,0,.08l-.04.08v.03s.06.05.06.05c0,.05,0,.09,0,.13.01.05.01.08,0,.09l-.04.08.04.05s0,0,0,.02c0,.03,0,.1.04.15,0,0,0,.02,0,.03l-.08.02.05.11s0,.02,0,.03c0,.03-.02.1,0,.15-.02.07,0,.13,0,.17,0,.01,0,.03,0,.04-.08.08-.04.18-.02.24-.03.05-.03.12-.02.16l-.1.03.1.1s0,.05.01.08c.01.02.03.03.04.03h-.03s0,.02,0,.02l.04.09h0c0,.07,0,.12.03.16,0,0-.02.03-.02.04l-.04.04.04.06s.02.1,0,.19c-.02.08-.04.18,0,.26l-.06.06.07.05s0,0,0,0c-.02.03-.05.1,0,.17h0s0,.08,0,.14c0,.08-.02.18.02.28l-.02.1h0s0,.06,0,.08l-.03.02.02.07c.02.07.02.16.02.25,0,.18,0,.38.16.53l.03.03h.05c.12-.05.12-.17.13-.23,0-.01,0-.03,0-.04v-.02s0-.02,0-.02c-.05-.16-.03-.37,0-.56,0-.05,0-.1.01-.14v-.02s0-.02,0-.02c-.03-.07-.02-.13-.02-.2,0-.07.02-.14,0-.22.03-.34.01-.75,0-1.1,0-.15-.01-.29-.01-.42h0c-.02-.18-.02-.36-.01-.53,0-.16.01-.32,0-.47.04-.17.03-.33.03-.49,0-.07,0-.15,0-.23v-.02h0c.04-.05.05-.1.03-.15.02-.06.02-.12.02-.18,0-.04,0-.08.01-.12v-.02s0-.02,0-.02c-.01-.04,0-.08.01-.12.01-.05.02-.12,0-.18.06-.13.08-.29.09-.44v-.05s0-.06-.03-.09h0c0-.07.04-.13.08-.2.05-.08.1-.16.12-.28v-.02s0,0,0,0c0,0,.01-.01.02-.02.03-.03.08-.06.07-.12,0-.01,0-.02,0-.03.06-.05.09-.11.12-.16.05-.08.08-.13.17-.16h.04s.01-.06.01-.06c.01-.05.06-.08.13-.12.05-.03.11-.07.15-.12.06,0,.09-.01.12-.03.07-.02.12-.06.17-.1.07-.06.1-.07.15-.05l.05.02.03-.03s0,0,0,0c.02,0,.06-.02.09-.06.02,0,.04-.01.06-.02.04-.01.05-.01.07,0,.02,0,.04.02.08.01h0s.06,0,.06,0h.08c.23-.04.44-.07.62.03l.07.04.04-.06s.02.02.02.03c.05.05.13.14.25.12.03.02.05.04.08.06.01,0,.02.01.03.02h0s.02.03.02.03c.03.05.11.07.18.07.14.15.28.34.28.43v.08h.06c.02.11.05.24.14.33-.02.06,0,.12,0,.15,0,0,0,.02,0,.03l-.02.06.06.06h.01c0,.06.02.11.04.15,0,0,.01.02.01.03v.03c-.09.14.01.22.06.25,0,0,.01,0,.02.01-.03.03-.03.06-.04.11v.06s.03.04.03.04h0s0,0,0,0c0,.01,0,.03.02.05l-.03.03-.02.07.04.06.03.02s.01.06.02.08c0,0,0,0,0,.01v.04c-.03.13-.07.31.01.45,0,0,0,0,0,0-.04.05-.03.11-.02.15,0,.01,0,.04,0,.04l-.02.08s.03,0,.05.01c0,.01,0,.02,0,.03l-.02.1h.03s0,.06,0,.09c0,.05,0,.08-.02.11h0s0,.02,0,.02c-.02.09,0,.17.04.24,0,.01.01.02.01.04-.01.02-.03.04-.03.07,0,0,0,.01,0,.02l-.02.02v.05s.04.04.06.05h-.01s0,.07,0,.07v.02h-.05s.03.07.03.07c-.01.02-.03.06-.01.1l-.04.06s0,.04.04.05c-.03.11.05.19.1.24.02.02.03.04.04.05h-.04l.03.11h0s-.02.02-.02.03l-.07.03.02.09v.02s-.01.08,0,.1c0,0,0,0,.01,0-.02.02-.05.06-.06.11v.08s.05,0,.05,0c0,.02,0,.03-.01.05,0,.03-.01.05-.03.07,0,0,0,0,0,0l.11.06s-.03.06-.03.08c0,.01,0,.03-.01.03h-.1v.11s.01.03.02.06c0,.02,0,.04,0,.07v.1s0,.04,0,.06h-.01s0,.07,0,.07c0,.03,0,.06,0,.09,0,.02,0,.03,0,.06l-.07.04.09.1s0,0,0,0c-.01.03-.02.06-.02.09h-.07l.11.13s.02.04.02.06c0,0,0,0,0,0-.05.04-.05.11-.06.14,0,.02,0,.04,0,.05h0s.03.03.03.03c-.02.02-.03.03-.04.05-.01.03-.01.05,0,.08h-.11l.09.09-.08.02.07.06v.22s.02.07.05.09h0s.09.03.13.02v.09l.11-.03c.08-.02.14-.03.19-.01l.09.02v-.09c.05-.32.04-.64.04-.94,0-.3-.01-.58.02-.86.03-.05,0-.1-.02-.13"/><path class="cls-1" d="M1.18,1.18h20.06v20.06H1.18V1.18ZM0,22.43h22.43V0H0v22.43Z"/><script xmlns=""/><link xmlns=""/></svg>