<svg xmlns="http://www.w3.org/2000/svg" xmlns:xlink="http://www.w3.org/1999/xlink" version="1.1" width="200px" height="200px" style="shape-rendering:geometricPrecision; text-rendering:geometricPrecision; image-rendering:optimizeQuality; fill-rule:evenodd; clip-rule:evenodd">
<g><path style="opacity:1" fill="#009a52" d="M -0.5,-0.5 C 66.1667,-0.5 132.833,-0.5 199.5,-0.5C 199.5,66.1667 199.5,132.833 199.5,199.5C 132.833,199.5 66.1667,199.5 -0.5,199.5C -0.5,132.833 -0.5,66.1667 -0.5,-0.5 Z"/></g>
<g><path style="opacity:1" fill="#179059" d="M 36.5,27.5 C 51.4963,26.8334 66.663,26.5001 82,26.5C 97.515,26.5006 112.682,27.1673 127.5,28.5C 125.5,28.5 123.5,28.5 121.5,28.5C 93.3382,27.502 65.0049,27.1687 36.5,27.5 Z"/></g>
<g><path style="opacity:1" fill="#fcfefd" d="M 121.5,28.5 C 123.5,28.5 125.5,28.5 127.5,28.5C 147.098,34.4334 159.098,47.4334 163.5,67.5C 163.666,73.8421 163.5,80.1754 163,86.5C 162.767,88.7801 161.934,90.7801 160.5,92.5C 150.809,79.3193 137.809,71.8193 121.5,70C 105.5,69.3333 89.5,69.3333 73.5,70C 57.3664,73.6484 45.0331,82.4818 36.5,96.5C 35.5025,74.0061 35.1692,51.3395 35.5,28.5C 64.1667,28.5 92.8333,28.5 121.5,28.5 Z"/></g>
<g><path style="opacity:1" fill="#9fdfc1" d="M 36.5,27.5 C 65.0049,27.1687 93.3382,27.502 121.5,28.5C 92.8333,28.5 64.1667,28.5 35.5,28.5C 35.1692,51.3395 35.5025,74.0061 36.5,96.5C 36.2172,97.2891 35.7172,97.9558 35,98.5C 34.5,75.169 34.3334,51.8357 34.5,28.5C 34.8417,27.6618 35.5084,27.3284 36.5,27.5 Z"/></g>
<g><path style="opacity:1" fill="#269b60" d="M 34.5,28.5 C 34.3334,51.8357 34.5,75.169 35,98.5C 35.7172,97.9558 36.2172,97.2891 36.5,96.5C 45.0331,82.4818 57.3664,73.6484 73.5,70C 89.5,69.3333 105.5,69.3333 121.5,70C 137.809,71.8193 150.809,79.3193 160.5,92.5C 161.934,90.7801 162.767,88.7801 163,86.5C 163.5,80.1754 163.666,73.8421 163.5,67.5C 164.655,74.3209 164.821,81.3209 164,88.5C 163.822,92.1208 162.155,94.7875 159,96.5C 158.998,99.0512 158.164,101.051 156.5,102.5C 157.473,100.932 157.64,99.265 157,97.5C 151.505,89.8301 144.672,83.8301 136.5,79.5C 137.5,79.5 138.5,79.5 139.5,79.5C 139.439,77.4078 138.439,75.9078 136.5,75C 123.845,72.1288 111.012,70.9622 98,71.5C 91.1667,71.6667 84.3333,71.8333 77.5,72C 77.0426,72.414 76.7093,72.914 76.5,73.5C 93.4902,74.3329 110.49,74.8329 127.5,75C 129.76,75.5494 131.426,76.716 132.5,78.5C 128.985,77.0807 125.319,76.414 121.5,76.5C 105.672,75.3386 89.672,75.1719 73.5,76C 70.2823,76.9003 67.2823,78.067 64.5,79.5C 51.1078,85.2259 41.7745,94.8925 36.5,108.5C 36.4249,105.794 36.0916,103.127 35.5,100.5C 34.5,100.5 33.5,100.5 32.5,100.5C 33.8079,76.9934 33.8079,53.4934 32.5,30C 32.8361,28.9701 33.5028,28.4701 34.5,28.5 Z"/></g>
<g><path style="opacity:1" fill="#039c52" d="M 136.5,79.5 C 135.041,79.5674 133.708,79.2341 132.5,78.5C 131.426,76.716 129.76,75.5494 127.5,75C 110.49,74.8329 93.4902,74.3329 76.5,73.5C 76.7093,72.914 77.0426,72.414 77.5,72C 84.3333,71.8333 91.1667,71.6667 98,71.5C 111.012,70.9622 123.845,72.1288 136.5,75C 138.439,75.9078 139.439,77.4078 139.5,79.5C 138.5,79.5 137.5,79.5 136.5,79.5 Z"/></g>
<g><path style="opacity:1" fill="#d1fae3" d="M 121.5,76.5 C 105.83,76.3334 90.1631,76.5001 74.5,77C 71.3897,78.5244 68.0564,79.3577 64.5,79.5C 67.2823,78.067 70.2823,76.9003 73.5,76C 89.672,75.1719 105.672,75.3386 121.5,76.5 Z"/></g>
<g><path style="opacity:1" fill="#fdfefe" d="M 121.5,76.5 C 125.319,76.414 128.985,77.0807 132.5,78.5C 133.708,79.2341 135.041,79.5674 136.5,79.5C 144.672,83.8301 151.505,89.8301 157,97.5C 157.64,99.265 157.473,100.932 156.5,102.5C 149.214,112.45 139.548,118.783 127.5,121.5C 96.8493,122.445 66.1827,122.778 35.5,122.5C 35.5,120.5 35.5,118.5 35.5,116.5C 35.5751,113.794 35.9084,111.127 36.5,108.5C 41.7745,94.8925 51.1078,85.2259 64.5,79.5C 68.0564,79.3577 71.3897,78.5244 74.5,77C 90.1631,76.5001 105.83,76.3334 121.5,76.5 Z"/></g>
<g><path style="opacity:1" fill="#fdfefd" d="M 159.5,106.5 C 162.341,108.64 163.674,111.64 163.5,115.5C 163.5,133.833 163.5,152.167 163.5,170.5C 134.167,170.5 104.833,170.5 75.5,170.5C 74.8333,170.5 74.1667,170.5 73.5,170.5C 51.8082,165.143 39.1416,151.477 35.5,129.5C 66.2029,129.953 96.8695,129.453 127.5,128C 141.125,125.036 151.792,117.869 159.5,106.5 Z"/></g>
<g><path style="opacity:1" fill="#d1fbe7" d="M 35.5,116.5 C 35.5,118.5 35.5,120.5 35.5,122.5C 66.1827,122.778 96.8493,122.445 127.5,121.5C 127.5,121.833 127.5,122.167 127.5,122.5C 96.518,123.454 65.518,123.787 34.5,123.5C 34.1984,120.941 34.5318,118.607 35.5,116.5 Z"/></g>
<g><path style="opacity:1" fill="#198b57" d="M 164.5,116.5 C 165.186,133.86 165.853,151.36 166.5,169C 166.164,170.03 165.497,170.53 164.5,170.5C 164.5,152.5 164.5,134.5 164.5,116.5 Z"/></g>
<g><path style="opacity:1" fill="#208f5d" d="M 127.5,122.5 C 127.5,123.167 127.5,123.833 127.5,124.5C 96.3288,124.831 65.3288,124.498 34.5,123.5C 65.518,123.787 96.518,123.454 127.5,122.5 Z"/></g>
<g><path style="opacity:1" fill="#299e60" d="M 156.5,102.5 C 156.554,104.632 157.554,105.965 159.5,106.5C 151.792,117.869 141.125,125.036 127.5,128C 96.8695,129.453 66.2029,129.953 35.5,129.5C 38.008,127.763 41.008,126.93 44.5,127C 72.5181,127.16 100.185,126.327 127.5,124.5C 127.5,123.833 127.5,123.167 127.5,122.5C 127.5,122.167 127.5,121.833 127.5,121.5C 139.548,118.783 149.214,112.45 156.5,102.5 Z"/></g>
<g><path style="opacity:1" fill="#b1e6cc" d="M 163.5,115.5 C 164.167,115.5 164.5,115.833 164.5,116.5C 164.5,134.5 164.5,152.5 164.5,170.5C 164.158,171.338 163.492,171.672 162.5,171.5C 133.329,171.831 104.329,171.498 75.5,170.5C 104.833,170.5 134.167,170.5 163.5,170.5C 163.5,152.167 163.5,133.833 163.5,115.5 Z"/></g>
<g><path style="opacity:1" fill="#188e59" d="M 73.5,170.5 C 74.1667,170.5 74.8333,170.5 75.5,170.5C 104.329,171.498 133.329,171.831 162.5,171.5C 133.336,172.664 104.003,172.83 74.5,172C 73.944,171.617 73.6107,171.117 73.5,170.5 Z"/></g>
</svg>