<svg xmlns="http://www.w3.org/2000/svg" class="d-lg-none" width="56" height="56" viewBox="0 0 33 20" fill="none">
<g clip-path="url(#clip0_4265_4367)">
<path d="M15.8199 0C7.08087 0 0 4.01304 0 8.96313C0 10.5398 0.71705 12.0187 1.97596 13.3062L2.35893 13.6932C4.10674 15.1844 6.57568 16.4066 9.48462 17.1236L10.1243 17.2459C10.3494 17.5792 10.6058 17.8903 10.8902 18.1748C11.4683 18.7529 12.1546 19.2115 12.9099 19.5244C13.6652 19.8373 14.4748 19.9983 15.2923 19.9983C16.1099 19.9983 16.9194 19.8373 17.6747 19.5244C18.4301 19.2115 19.1164 18.7529 19.6944 18.1748C19.88 17.9897 20.0528 17.7923 20.2119 17.584C26.8079 16.5044 31.6195 13.0536 31.6195 8.96721C31.6358 4.01304 24.5549 0 15.8199 0ZM18.957 15.7873C18.3871 16.3567 17.6611 16.7442 16.8709 16.9011C16.0807 17.0579 15.2618 16.977 14.5176 16.6685C13.7734 16.36 13.1374 15.8378 12.6899 15.1679C12.2424 14.498 12.0036 13.7105 12.0036 12.9049C12.0036 12.0993 12.2424 11.3118 12.6899 10.6419C13.1374 9.97197 13.7734 9.44978 14.5176 9.14128C15.2618 8.83278 16.0807 8.75184 16.8709 8.90867C17.6611 9.06551 18.3871 9.45308 18.957 10.0224C19.3358 10.4008 19.6363 10.8501 19.8414 11.3447C20.0464 11.8393 20.1519 12.3695 20.1519 12.9049C20.1519 13.4403 20.0464 13.9704 19.8414 14.465C19.6363 14.9596 19.3358 15.4089 18.957 15.7873ZM19.723 9.34203C18.6799 8.29674 17.3012 7.65342 15.83 7.52556C14.3589 7.3977 12.8898 7.79352 11.6821 8.64319C10.4743 9.49286 9.60545 10.7418 9.22875 12.1696C8.85205 13.5974 8.99173 15.1125 9.62314 16.4473L9.38277 16.3944L9.0935 16.3129C6.8553 15.7417 4.7594 14.7139 2.93746 13.294C3.89896 10.5317 6.53086 7.56162 10.222 5.43899C12.9721 3.8623 15.5184 3.7197 18.1544 5.90344C18.8275 6.48397 19.3905 7.1809 19.8167 7.96089C20.0624 8.40697 20.2435 8.88572 20.3545 9.38277C20.4294 9.69296 20.4865 10.0072 20.5256 10.3239C20.2919 9.97033 20.023 9.64135 19.723 9.34203ZM30.9554 8.96721C30.9555 9.21293 30.935 9.45823 30.8943 9.70055C30.2424 13.6565 25.6997 14.9195 22.2612 15.0377C27.2194 10.1976 26.7427 1.83337 18.1137 2.14708C15.2129 2.25301 12.2387 3.30821 9.74129 4.74231C7.72584 5.89286 5.91763 7.3733 4.39193 9.12202C1.29965 6.30271 2.27745 4.59157 5.45121 2.96191C8.55979 1.33225 12.3447 0.68446 15.8199 0.68446C19.2952 0.68446 23.076 1.33225 26.1846 2.96191C28.2216 4.02526 30.495 5.81381 30.8943 8.23793C30.9348 8.47891 30.9552 8.72284 30.9554 8.96721Z" fill="#154A90"/>
</g>
<defs>
<clipPath id="clip0_4265_4367">
<rect width="126.449" height="20" fill="white"/>
</clipPath>
</defs>
</svg>