<svg width="32" height="32" viewBox="0 0 32 32" fill="none" xmlns="http://www.w3.org/2000/svg">
<path d="M6.98439 32H2.40039V12.264C2.41929 9.0172 3.71745 5.90878 6.01331 3.61292C8.30919 1.31706 11.4176 0.0188954 14.6644 0H29.8164V12.16C29.8142 15.4134 28.5204 18.5327 26.2192 20.8325C23.918 23.1322 20.7978 24.424 17.5444 24.424H9.86439L11.5684 19.84H17.4404C18.4502 19.8442 19.4507 19.6485 20.3844 19.264C21.3181 18.8796 22.1664 18.314 22.8804 17.6C23.5944 16.886 24.16 16.0377 24.5444 15.104C24.9289 14.1703 25.1246 13.1698 25.1204 12.16V4.584H14.5604C13.5506 4.57977 12.5501 4.77553 11.6164 5.15998C10.6827 5.54444 9.83439 6.10998 9.12039 6.82398C8.40639 7.53798 7.84083 8.38632 7.45637 9.32C7.07192 10.2537 6.87616 11.2542 6.88039 12.264V32H6.98439V32Z" fill="url(#paint0_radial_2609_315)"/>
<defs>
<radialGradient id="paint0_radial_2609_315" cx="0" cy="0" r="1" gradientUnits="userSpaceOnUse" gradientTransform="translate(3.32039 30.712) scale(26.544 26.544)">
<stop stop-color="#D6005E"/>
<stop offset="1" stop-color="#E3448A"/>
</radialGradient>
</defs>
</svg>
