<svg width="32" height="32" viewBox="0 0 32 32" fill="none" xmlns="http://www.w3.org/2000/svg">
<path d="M16.0001 0C12.8001 0 9.7601 0.96 7.1201 2.72C4.4801 4.48 2.4001 6.96 1.2001 9.92C9.67977e-05 12.8 -0.319903 16 0.320097 19.12C0.960097 22.24 2.4801 25.04 4.7201 27.28C6.9601 29.52 9.8401 31.04 12.8801 31.68C15.9201 32.32 19.2001 32 22.1601 30.8C25.1201 29.6 27.6001 27.52 29.3601 24.88C31.0401 22.24 32.0001 19.2 32.0001 16C32.0001 11.76 30.3201 7.68 27.2801 4.72C24.3201 1.68 20.2401 0 16.0001 0ZM16.0001 30.32C13.2001 30.32 10.4001 29.44 8.0801 27.92C5.7601 26.32 3.9201 24.08 2.8001 21.52C1.6801 18.96 1.4401 16 2.0001 13.28C2.5601 10.4 3.9201 7.92 5.9201 5.92C7.9201 3.92 10.4801 2.56 13.2801 2C16.0801 1.44 18.9601 1.76 21.5201 2.8C24.0801 3.84 26.4001 5.76 27.9201 8.08C29.5201 10.4 30.3201 13.2 30.3201 16.08C30.3201 19.84 28.8001 23.52 26.0801 26.16C23.4401 28.88 19.7601 30.32 16.0001 30.32Z" fill="#A9112B"/>
<path d="M19.5199 21.6804C20.8799 23.1204 20.6399 25.7604 20.2399 26.9604C20.2399 27.0404 20.2399 27.0404 20.1599 27.1204C20.1599 27.2004 20.0799 27.2004 19.9999 27.2004C19.2799 27.4404 18.3199 27.6804 17.9199 27.7604C19.9999 25.9204 20.3199 23.2804 19.5199 21.6804ZM27.0399 20.0004C25.3599 18.5604 23.2799 17.5204 21.1199 17.0404C23.3599 18.1604 25.1199 19.9204 26.2399 22.1604C26.6399 21.5204 26.9599 20.8804 27.1999 20.2404V20.0804C27.1199 20.0804 27.1199 20.0004 27.0399 20.0004ZM27.9199 16.0804C27.9199 16.0004 27.9199 15.9204 27.8399 15.9204C27.1999 15.6804 26.4799 15.4404 25.8399 15.2004C25.9999 15.1204 26.1599 15.0404 26.2399 14.8804C26.3199 14.7204 26.3999 14.6404 26.4799 14.4004C25.7599 14.7204 24.9599 14.8804 24.2399 14.8804C25.5999 15.4404 26.8799 16.1604 27.9999 17.0404C27.9199 16.7204 27.9199 16.4004 27.9199 16.0804Z" fill="#A9112B"/>
<path d="M21.4404 20.3203C21.9204 20.4803 22.4004 20.4803 22.8804 20.3203C20.9604 19.8403 19.8404 17.0403 15.3604 16.6403C15.2004 16.6403 14.7204 16.7203 14.9604 16.2403C15.6004 15.6003 16.2404 15.0403 16.9604 14.5603C16.6404 14.5603 15.1204 14.7203 14.7204 14.7203C14.3204 14.7203 14.1604 14.6403 14.1604 14.3203C14.1604 14.3203 13.2804 15.1203 13.6804 15.6003C13.7604 15.6803 13.9204 15.6803 14.1604 15.6003C14.4004 15.5203 14.7204 15.4403 14.9604 15.3603H15.0404V15.4403L14.5604 16.1603C14.4804 16.4003 14.4004 16.5603 14.8804 16.6403C16.1604 17.0403 17.4404 17.6003 18.6404 18.3203C19.9204 19.1203 20.9604 20.1603 21.6804 21.5203C22.4004 22.8003 22.7204 24.3203 22.7204 25.7603C23.2804 25.3603 23.9204 24.8803 24.4004 24.4003C24.4804 24.3203 24.4804 24.1603 24.4804 24.1603C23.8404 22.6403 22.8004 21.2803 21.4404 20.3203Z" fill="#A9112B"/>
<path d="M26.3999 10.6401C26.1599 10.4801 24.8799 9.68008 24.5599 9.52008C24.3199 9.36008 24.0799 9.20008 23.9199 8.96008C23.7599 8.72008 23.6799 8.40008 23.6799 8.16008C23.7599 7.36008 23.1999 6.24008 21.6799 4.88008V5.28008C21.1999 4.88008 20.6399 4.56008 19.9999 4.48008C19.9999 4.48008 20.1599 4.00008 20.1599 3.68008C20.1599 3.36008 19.9999 3.04008 19.5999 3.28008C17.6799 4.08008 14.5599 4.08008 11.2799 7.28008C11.6799 6.24008 12.3999 5.28008 13.2799 4.56008C12.4799 4.72008 11.6799 5.04008 10.8799 5.36008C10.6399 5.44008 10.4799 5.68008 10.3199 5.84008C9.11992 7.68008 8.31992 9.76008 7.99992 11.9201C7.67992 10.4001 7.75992 8.80008 7.99992 7.20008C7.35992 7.76008 6.71992 8.48008 6.23992 9.20008C6.07992 9.44008 5.91992 9.68008 5.91992 10.0001C5.91992 12.3201 6.39992 14.5601 7.27992 16.6401C5.99992 15.6001 5.03992 13.4401 4.55992 12.2401C4.23992 13.2001 3.99992 14.2401 3.91992 15.2801C3.91992 15.6801 4.07992 16.1601 4.31992 16.4801C5.59992 18.7201 7.51992 20.5601 9.75992 21.8401C8.39992 21.6801 5.67992 20.1601 4.31992 19.0401C4.55992 20.0801 4.95992 21.0401 5.43992 21.9201C5.67992 22.3201 5.99992 22.6401 6.47992 22.8001C8.71992 24.0001 11.1999 24.6401 13.7599 24.4801C11.8399 25.2001 9.75992 25.2801 7.75992 24.8001C8.07992 25.1201 8.47992 25.4401 8.87992 25.7601C9.75992 26.4001 10.7999 26.8801 11.8399 27.1201C14.3999 27.6001 17.5999 25.7601 16.7999 22.4001C16.6399 22.7201 16.4799 22.9601 16.2399 23.2001C15.9999 23.4401 15.6799 23.6001 15.3599 23.6801C16.6399 22.4001 16.4799 20.4001 14.3199 20.1601C13.3599 20.0801 12.4799 20.0801 11.5199 20.1601C11.2799 20.1601 10.9599 20.1601 10.7199 20.0801C10.4799 20.0001 10.2399 19.8401 10.0799 19.6801L11.3599 19.5201C12.0799 19.2001 12.7999 19.0401 13.5999 19.0401C13.5199 18.8801 13.2799 18.5601 12.2399 18.8801C12.0799 18.9601 11.8399 18.9601 11.6799 18.8801C11.5199 18.8001 11.3599 18.7201 11.1999 18.5601C12.2399 18.8001 12.5599 17.6801 13.5199 18.3201C13.6799 18.4801 13.9999 18.4801 13.9199 18.1601C13.8399 18.0001 13.6799 17.8401 13.5999 17.7601C13.4399 17.6801 13.2799 17.6001 13.0399 17.6801C12.0799 17.5201 11.1199 17.6001 10.2399 17.9201C9.83992 18.0801 9.51992 18.4001 9.19992 18.6401C9.19992 18.1601 9.27992 16.8001 9.91992 16.1601C10.8799 15.6001 11.9199 15.2001 13.0399 15.1201C12.9599 15.0401 12.9599 14.8801 12.9599 14.8001C12.9599 14.7201 12.9599 14.5601 13.0399 14.4801C13.3599 14.0801 14.3199 13.4401 19.9199 13.4401L19.4399 13.9201C20.6399 14.0001 21.8399 14.2401 22.9599 14.6401C23.1199 14.7201 23.4399 14.8001 23.7599 14.1601C23.9199 14.0001 23.7599 14.0001 23.4399 13.7601C23.5199 13.6801 23.5199 13.5201 23.5199 13.4401C23.5199 13.2801 23.3599 13.2801 23.3599 13.3601C23.1999 13.5201 22.7999 13.5201 22.7199 13.2801C22.6399 13.0401 22.4799 12.8801 22.3199 12.8001C22.1599 12.6401 21.9199 12.5601 21.6799 12.5601C21.8399 12.4001 22.0799 12.2401 22.3199 12.2401C22.5599 12.1601 22.7999 12.1601 23.0399 12.2401C23.0399 12.2401 23.1199 12.4801 23.2799 12.4001C23.4399 12.3201 23.5999 12.1601 23.7599 12.3201C23.8399 12.4001 23.8399 12.5601 23.8399 12.6401C23.7599 12.8001 23.8399 12.8001 23.9999 12.7201L24.3199 12.4001C24.5599 12.4801 24.7999 12.4801 25.0399 12.4001C25.2799 12.3201 25.4399 12.1601 25.5999 12.0001C25.7599 11.8401 25.8399 11.6001 25.9199 11.3601C26.3199 11.1201 26.5599 10.7201 26.3999 10.6401ZM15.6799 10.4001L16.3999 10.1601C16.6399 10.0801 16.8799 10.0801 16.6399 10.3201C16.0799 11.1201 16.0799 12.7201 16.8799 13.0401C16.3999 13.0401 15.8399 13.1201 15.3599 13.2001C15.2799 12.4801 15.3599 11.6801 15.5199 10.9601C15.1999 11.1201 14.7999 11.2801 14.6399 11.3601C14.5599 9.84008 15.9199 7.28008 17.5999 6.64008C16.5599 7.60008 15.8399 8.96008 15.6799 10.4001ZM19.2799 4.16008C19.1199 4.48008 18.6399 4.96008 18.7999 5.36008C18.5599 5.44008 18.2399 5.52008 17.9999 5.68008C17.8399 5.84008 17.7599 5.68008 17.8399 5.52008C18.0799 4.96008 18.5599 4.48008 19.1199 4.08008C19.3599 3.92008 19.4399 4.08008 19.2799 4.16008ZM22.8799 8.56008C22.7999 8.80008 22.7999 8.88008 22.5599 8.80008C22.4799 8.72008 22.3199 8.72008 22.1599 8.64008C21.9999 8.56008 21.9999 8.56008 21.9999 8.72008C22.1599 8.96008 22.2399 9.28008 22.1599 9.60008C21.8399 9.04008 21.5199 8.48008 21.0399 8.08008C21.4399 8.00008 21.9199 8.08008 22.3199 8.24008C22.4799 8.32008 22.7199 8.32008 22.7999 7.52008C23.0399 7.84008 23.0399 8.24008 22.8799 8.56008Z" fill="#A9112B"/>
</svg>
