<?xml version="1.0" encoding="UTF-8"?>
<!DOCTYPE svg PUBLIC "-//W3C//DTD SVG 1.1//EN" "http://www.w3.org/Graphics/SVG/1.1/DTD/svg11.dtd">
<svg xmlns="http://www.w3.org/2000/svg" version="1.1" width="200px" height="200px" style="shape-rendering:geometricPrecision; text-rendering:geometricPrecision; image-rendering:optimizeQuality; fill-rule:evenodd; clip-rule:evenodd" xmlns:xlink="http://www.w3.org/1999/xlink">
<g><path style="opacity:1" fill="#2e2c2c" d="M -0.5,-0.5 C 29.1667,-0.5 58.8333,-0.5 88.5,-0.5C 88.5,-0.166667 88.5,0.166667 88.5,0.5C 49.6158,6.54629 22.1158,27.5463 6,63.5C 4.18144,69.4409 2.68144,75.4409 1.5,81.5C 0.833333,82.5 0.166667,83.5 -0.5,84.5C -0.5,56.1667 -0.5,27.8333 -0.5,-0.5 Z"/></g>
<g><path style="opacity:1" fill="#2f2c2c" d="M 88.5,0.5 C 88.5,0.166667 88.5,-0.166667 88.5,-0.5C 125.5,-0.5 162.5,-0.5 199.5,-0.5C 199.5,28.8333 199.5,58.1667 199.5,87.5C 191.706,44.8644 167.039,17.0311 125.5,4C 113.353,1.01614 101.02,-0.150522 88.5,0.5 Z"/></g>
<g><path style="opacity:1" fill="#74602d" d="M 1.5,81.5 C 1.59047,84.1522 0.923808,86.4855 -0.5,88.5C -0.5,87.1667 -0.5,85.8333 -0.5,84.5C 0.166667,83.5 0.833333,82.5 1.5,81.5 Z"/></g>
<g><path style="opacity:1" fill="#605123" d="M -0.5,111.5 C 1.23011,115.883 2.23011,120.55 2.5,125.5C 1.13471,122.264 0.134708,118.931 -0.5,115.5C -0.5,114.167 -0.5,112.833 -0.5,111.5 Z"/></g>
<g><path style="opacity:1" fill="#2e2c2c" d="M 199.5,113.5 C 199.5,142.167 199.5,170.833 199.5,199.5C 172.167,199.5 144.833,199.5 117.5,199.5C 162.893,188.106 190.226,159.439 199.5,113.5 Z"/></g>
<g><path style="opacity:1" fill="#f3cf58" d="M 88.5,0.5 C 101.02,-0.150522 113.353,1.01614 125.5,4C 167.039,17.0311 191.706,44.8644 199.5,87.5C 199.5,96.1667 199.5,104.833 199.5,113.5C 190.226,159.439 162.893,188.106 117.5,199.5C 104.833,199.5 92.1667,199.5 79.5,199.5C 52.7225,192.776 31.3891,178.109 15.5,155.5C 10.0386,145.918 5.70523,135.918 2.5,125.5C 2.23011,120.55 1.23011,115.883 -0.5,111.5C -0.5,103.833 -0.5,96.1667 -0.5,88.5C 0.923808,86.4855 1.59047,84.1522 1.5,81.5C 2.68144,75.4409 4.18144,69.4409 6,63.5C 22.1158,27.5463 49.6158,6.54629 88.5,0.5 Z"/></g>
<g><path style="opacity:1" fill="#3f3515" d="M 8.5,79.5 C 7.72304,90.1482 7.38971,100.815 7.5,111.5C 6.83434,107.514 6.50101,103.347 6.5,99C 6.3534,92.2686 7.02006,85.7686 8.5,79.5 Z"/></g>
<g><path style="opacity:1" fill="#2e2c2c" d="M 117.5,191.5 C 113.96,191.753 110.627,192.419 107.5,193.5C 59.4816,194.3 26.9816,172.3 10,127.5C 8.7117,122.227 7.87837,116.894 7.5,111.5C 7.38971,100.815 7.72304,90.1482 8.5,79.5C 18.866,40.9688 43.5326,17.1355 82.5,8C 128.794,3.06008 162.961,20.8934 185,61.5C 200.837,104.632 192.004,141.798 158.5,173C 146.303,182.432 132.636,188.599 117.5,191.5 Z"/></g>
<g><path style="opacity:1" fill="#443923" d="M 139.5,91.5 C 139.919,97.5313 140.919,103.531 142.5,109.5C 141.47,109.554 140.303,109.888 139,110.5C 137.885,115.725 135.385,120.059 131.5,123.5C 138.032,113.885 140.699,103.218 139.5,91.5 Z"/></g>
<g><path style="opacity:1" fill="#f7d256" d="M 105.5,58.5 C 124.034,62.0333 135.367,73.0333 139.5,91.5C 140.699,103.218 138.032,113.885 131.5,123.5C 114.204,140.791 95.2041,142.958 74.5,130C 62.1302,118.894 57.2968,105.061 60,88.5C 64.2996,73.7005 73.7996,64.0339 88.5,59.5C 94.1302,58.7081 99.7969,58.3748 105.5,58.5 Z"/></g>
<g><path style="opacity:1" fill="#644f0d" d="M 90.5,122.5 C 90.5,124.167 90.5,125.833 90.5,127.5C 96.8333,127.5 103.167,127.5 109.5,127.5C 103.021,128.491 96.3543,128.824 89.5,128.5C 89.2053,126.265 89.5386,124.265 90.5,122.5 Z"/></g>
<g><path style="opacity:1" fill="#312d2a" d="M 109.5,127.5 C 103.167,127.5 96.8333,127.5 90.5,127.5C 90.5,125.833 90.5,124.167 90.5,122.5C 91.6021,117.562 92.6021,112.562 93.5,107.5C 92.6016,105.374 91.435,103.374 90,101.5C 89.0352,91.5517 93.5352,87.3851 103.5,89C 108.732,91.6326 110.565,95.7992 109,101.5C 107.217,103.289 106.384,105.456 106.5,108C 107.586,114.504 108.586,121.004 109.5,127.5 Z"/></g>
<g><path style="opacity:1" fill="#5b4f24" d="M 130.5,84.5 C 133.508,90.609 134.174,96.9423 132.5,103.5C 132.768,97.044 132.101,90.7107 130.5,84.5 Z"/></g>
<g><path style="opacity:1" fill="#312e2a" d="M 107.5,65.5 C 118.403,67.801 126.07,74.1344 130.5,84.5C 132.101,90.7107 132.768,97.044 132.5,103.5C 132.623,106.588 131.623,109.255 129.5,111.5C 128.575,110.643 127.908,109.643 127.5,108.5C 126.925,103.031 126.259,97.6979 125.5,92.5C 120.358,76.5813 109.358,69.7479 92.5,72C 76.7725,78.6126 70.2725,90.4459 73,107.5C 71.647,108.685 70.4803,110.019 69.5,111.5C 62.3593,94.9236 66.0259,81.2569 80.5,70.5C 82.5996,70.5228 84.4329,69.8561 86,68.5C 88.0777,69.943 88.9111,69.2763 88.5,66.5C 94.7889,65.6279 101.122,65.2946 107.5,65.5 Z"/></g>
<g><path style="opacity:1" fill="#514520" d="M 125.5,92.5 C 126.259,97.6979 126.925,103.031 127.5,108.5C 126.883,108.389 126.383,108.056 126,107.5C 125.501,102.511 125.334,97.5111 125.5,92.5 Z"/></g>
<g><path style="opacity:1" fill="#43381b" d="M 107.5,65.5 C 101.122,65.2946 94.7889,65.6279 88.5,66.5C 88.9111,69.2763 88.0777,69.943 86,68.5C 84.4329,69.8561 82.5996,70.5228 80.5,70.5C 83.3203,67.9193 86.6536,66.0859 90.5,65C 96.3487,64.1816 102.015,64.3483 107.5,65.5 Z"/></g>
<g><path style="opacity:1" fill="#998341" d="M 105.5,58.5 C 99.7969,58.3748 94.1302,58.7081 88.5,59.5C 91.5256,57.9814 94.8589,57.3148 98.5,57.5C 101.025,57.5034 103.359,57.8367 105.5,58.5 Z"/></g>
<g><path style="opacity:1" fill="#3c3321" d="M 2.5,125.5 C 5.70523,135.918 10.0386,145.918 15.5,155.5C 14.2652,155.721 13.2652,156.388 12.5,157.5C 12.1667,157 11.8333,156.5 11.5,156C 12.3295,154.535 12.4962,153.035 12,151.5C 11.4646,153.271 10.6313,153.604 9.5,152.5C 10.3094,150.929 10.6427,149.262 10.5,147.5C 9.44802,147.649 8.44802,147.483 7.5,147C 8.33663,145.989 8.66997,144.822 8.5,143.5C 5.38734,143.935 4.72068,142.935 6.5,140.5C 6.16667,139.833 5.83333,139.167 5.5,138.5C 4.60433,139.506 3.93767,139.506 3.5,138.5C 5.21772,135.527 4.55105,133.36 1.5,132C 2.42308,129.959 2.75642,127.792 2.5,125.5 Z"/></g>
<g><path style="opacity:1" fill="#2e2c2c" d="M -0.5,115.5 C 0.134708,118.931 1.13471,122.264 2.5,125.5C 2.75642,127.792 2.42308,129.959 1.5,132C 4.55105,133.36 5.21772,135.527 3.5,138.5C 3.93767,139.506 4.60433,139.506 5.5,138.5C 5.83333,139.167 6.16667,139.833 6.5,140.5C 4.72068,142.935 5.38734,143.935 8.5,143.5C 8.66997,144.822 8.33663,145.989 7.5,147C 8.44802,147.483 9.44802,147.649 10.5,147.5C 10.6427,149.262 10.3094,150.929 9.5,152.5C 10.6313,153.604 11.4646,153.271 12,151.5C 12.4962,153.035 12.3295,154.535 11.5,156C 11.8333,156.5 12.1667,157 12.5,157.5C 13.2652,156.388 14.2652,155.721 15.5,155.5C 31.3891,178.109 52.7225,192.776 79.5,199.5C 52.8333,199.5 26.1667,199.5 -0.5,199.5C -0.5,171.5 -0.5,143.5 -0.5,115.5 Z"/></g>
<g><path style="opacity:1" fill="#9d8946" d="M 117.5,191.5 C 117.082,192.222 116.416,192.722 115.5,193C 112.854,193.497 110.187,193.664 107.5,193.5C 110.627,192.419 113.96,191.753 117.5,191.5 Z"/></g>
</svg>
