<svg width="100" height="100" viewBox="0 0 100 100" fill="none" xmlns="http://www.w3.org/2000/svg">
<rect width="100" height="100" rx="28" fill="#2722FF"/>
<path d="M17.6451 44.09C19.299 44.09 20.7231 44.5032 22.3587 45.7254L22.4322 45.488L23.8012 41.9094L21.6879 41.25L21.302 42.7096C20.2637 42.1908 19.0233 41.7688 17.6726 41.7688C14.2178 41.7688 12.3067 43.2987 12.3067 45.5935C12.3067 47.862 14.3924 48.9786 17.6175 49.9634C20.2454 50.7283 20.9896 51.4669 20.9896 52.1791C20.9896 53.3221 19.8227 53.9815 18.1596 53.9815C16.0187 53.9815 14.1903 52.944 13.2255 51.3614L11.25 52.9176C12.4445 54.7729 14.8426 56.25 18.0402 56.25C21.8074 56.25 23.6358 54.342 23.6358 51.9329C23.6358 50.3502 22.5241 49.0402 18.2699 47.6949C16.3587 47.0706 14.9621 46.7101 14.9621 45.5407C14.9621 44.6967 15.5593 44.09 17.6451 44.09Z" fill="white"/>
<path d="M33.5882 53.3221C30.9052 53.3221 28.9114 51.546 28.6541 49.0314H39.2115C40.3784 44.5824 37.7873 41.25 33.1288 41.25C29.187 41.25 25.9619 44.5032 25.9619 48.4862C25.9619 52.6099 29.2421 55.7224 33.579 55.7224C36.8592 55.7224 39.3768 54.1134 40.5162 51.6515L38.3294 50.3414C37.6403 52.1175 35.9864 53.3221 33.5882 53.3221ZM33.1288 43.5712C35.5545 43.5712 36.9787 44.9341 36.9236 46.9563H28.7919C29.2789 44.8285 30.8777 43.5712 33.1288 43.5712Z" fill="white"/>
<path d="M49.8988 41.25C47.9876 41.25 46.3888 42.0941 45.2495 43.2723V41.6545H42.6768V55.3092H45.2495V48.1257C45.2495 45.7254 46.9585 43.6504 49.7609 43.6504C52.104 43.6504 53.5006 45.0747 53.5006 47.1234V55.318H56.0733V46.9036C56.0641 43.2635 53.6935 41.25 49.8988 41.25Z" fill="white"/>
<path d="M64.6198 44.09C66.2737 44.09 67.6978 44.5032 69.3334 45.7254L69.4069 45.488L70.7759 41.9094L68.6626 41.25L68.2767 42.7096C67.2384 42.1908 65.998 41.7688 64.6473 41.7688C61.1925 41.7688 59.2814 43.2987 59.2814 45.5935C59.2814 47.862 61.3671 48.9786 64.5922 49.9634C67.2201 50.7283 67.9643 51.4669 67.9643 52.1791C67.9643 53.3221 66.7974 53.9815 65.1343 53.9815C62.9934 53.9815 61.165 52.944 60.2002 51.3614L58.2339 52.9176C59.4284 54.7729 61.8265 56.25 65.024 56.25C68.7913 56.25 70.6197 54.342 70.6197 51.9329C70.6197 50.3502 69.5079 49.0402 65.2538 47.6949C63.3426 47.0706 61.946 46.7101 61.946 45.5407C61.9368 44.6967 62.534 44.09 64.6198 44.09Z" fill="white"/>
<path d="M80.5628 55.7224C83.843 55.7224 86.3606 54.1134 87.5 51.6515L85.304 50.3414C84.6149 52.1175 82.961 53.3221 80.5628 53.3221C77.8798 53.3221 75.886 51.546 75.6287 49.0314H86.1861C87.353 44.5824 84.7619 41.25 80.1034 41.25C76.1616 41.25 72.9365 44.5032 72.9365 48.4862C72.9457 52.6099 76.2259 55.7224 80.5628 55.7224ZM80.1034 43.5712C82.5291 43.5712 83.9533 44.9341 83.8982 46.9563H75.7665C76.2535 44.8285 77.8523 43.5712 80.1034 43.5712Z" fill="white"/>
</svg>
