<svg width="32" height="32" viewBox="0 0 32 32" fill="none" xmlns="http://www.w3.org/2000/svg">
<g clip-path="url(#clip0_2438_274)">
<path d="M27.8762 0.659048C17.503 2.86238 9.76528 8.39728 10.5933 13.0199C10.8524 14.4629 11.917 15.646 13.5708 16.5245L13.5649 16.5498L13.5389 16.5219L13.533 16.5498C9.08032 15.7978 5.7657 13.733 4.74836 10.5736C3.63757 7.11881 4.54253 3.28346 7.5283 0H0V31.9814C1.34265 31.8338 2.71368 31.6364 4.12376 31.3359C14.4958 29.1318 22.2347 23.5978 21.4055 18.975C21.1464 17.5329 20.083 16.349 18.4256 15.4696L18.4339 15.4443L18.4599 15.4738L18.4658 15.4452C22.9185 16.1979 26.2331 18.2628 27.2505 21.4214C28.3636 24.8778 27.4551 28.7132 24.467 31.9992H32V0.0126575C30.6574 0.161179 29.2863 0.359478 27.8762 0.659048Z" fill="#E40134"/>
</g>
<defs>
<clipPath id="clip0_2438_274">
<rect width="32" height="32" fill="white"/>
</clipPath>
</defs>
</svg>
