<svg width="32" height="32" viewBox="0 0 32 32" fill="none" xmlns="http://www.w3.org/2000/svg">
<g clip-path="url(#clip0_2470_278)">
<path d="M17.041 11.7857C17.361 11.7857 17.681 11.6296 18.001 11.5516L28.721 7.64916C27.281 5.38575 23.281 0.858918 17.121 0.468674C16.721 0.390625 16.241 0.390625 15.761 0.390625C9.841 0.390625 5.28098 2.96623 2.40098 7.57111C0.400977 10.537 0.000976562 13.5809 0.000976562 15.8443C0.000976562 17.4053 0.160977 18.576 0.320977 19.1223C0.480977 20.4492 1.20098 21.854 1.60098 22.0882C1.84098 22.2443 2.24098 22.4004 2.64098 22.4004C2.88098 22.4004 3.20098 22.3223 3.44098 22.2443L14.081 18.3418C13.761 17.7955 13.121 16.7028 11.921 14.2053C10.001 10.2248 9.281 7.80526 9.121 6.01014C9.201 5.77599 9.201 5.61989 9.201 5.54184C9.201 4.9955 9.521 4.44916 10.081 4.44916C10.801 4.52721 11.441 5.07355 12.161 5.77599C13.521 7.10282 15.441 10.2248 16.081 11.0833C16.321 11.6296 16.641 11.7857 17.041 11.7857Z" fill="#DB0334"/>
<path d="M14.8812 20.2142C14.5612 20.2142 14.2412 20.2923 13.9212 20.4484L3.20117 24.4289C4.64117 26.6923 8.64119 31.1411 14.8012 31.6094C15.2812 31.6874 15.6812 31.6874 16.1612 31.6874C22.0812 31.6874 26.6412 29.1118 29.6012 24.5069C31.5212 21.5411 32.0012 18.4972 32.0012 16.0777C32.0012 14.5167 31.8412 13.424 31.6812 12.8777C31.5212 11.5508 30.8012 10.146 30.3212 9.9118C30.0812 9.75571 29.6812 9.59961 29.2012 9.59961C28.9612 9.59961 28.6412 9.67766 28.4012 9.75571L17.7612 13.6581C18.0812 14.2045 18.7212 15.2972 19.9212 17.7947C21.8412 21.7752 22.5612 24.1167 22.7212 25.9899V26.3801C22.7212 26.9264 22.4012 27.4728 21.9212 27.4728C21.2012 27.3947 20.5612 26.8484 19.8412 26.146C18.4812 24.8191 16.5612 21.6972 15.9212 20.8386C15.6812 20.3703 15.2812 20.2142 14.8812 20.2142Z" fill="#DB0334"/>
</g>
<defs>
<clipPath id="clip0_2470_278">
<rect width="32" height="32" fill="white"/>
</clipPath>
</defs>
</svg>
