<svg width="32" height="32" viewBox="0 0 32 32" fill="none" xmlns="http://www.w3.org/2000/svg">
<path fill-rule="evenodd" clip-rule="evenodd" d="M11.7054 16.0609C12.5126 15.5136 13.3317 14.978 14.153 14.4442L9.04888 16.3692C8.30423 12.851 9.62332 9.06565 12.5966 7.04937C15.6774 4.95983 19.5622 5.42846 22.1722 7.91119C20.9461 8.97418 17.8391 11.7683 16.7825 12.7753C18.6067 11.6411 20.4566 10.5437 22.327 9.48616C22.6638 9.29101 22.9534 9.12659 23.1521 9.01674C23.1527 9.01724 23.1533 9.01821 23.1533 9.01904C23.4358 8.86146 23.7163 8.70095 24 8.54565C20.8802 4.76533 15.6312 3.83242 11.5494 6.60072C7.63246 9.25769 6.07984 14.4461 7.54086 19C7.56133 18.9851 7.58232 18.9706 7.60359 18.9553C8.96493 17.965 10.3318 16.9924 11.7054 16.0609Z" fill="#525F7B"/>
<path fill-rule="evenodd" clip-rule="evenodd" d="M32 5C29.6956 6.53104 27.3562 7.98566 24.9938 9.38048C16.1186 14.1168 7.88957 19.5953 0 26C7.81419 20.8074 15.9811 16.3931 24.3916 12.7737C25.7746 16.5595 24.4909 20.9606 21.1342 23.1859C17.4698 25.6151 12.6734 24.5643 10.1731 20.8793C9.88266 21.0429 9.59499 21.2118 9.30541 21.3773C12.4248 25.3992 17.9387 26.4509 22.1941 23.6297C26.5996 20.7096 28.0524 14.7001 25.6513 9.89103C27.7942 8.32184 29.9102 6.69648 32 5Z" fill="#FFD400"/>
</svg>
