<svg width="32" height="32" viewBox="0 0 32 32" fill="none" xmlns="http://www.w3.org/2000/svg">
<path d="M26 0H6C2.68629 0 0 2.68629 0 6V26C0 29.3137 2.68629 32 6 32H26C29.3137 32 32 29.3137 32 26V6C32 2.68629 29.3137 0 26 0Z" fill="#9638E3"/>
<mask id="mask0_2488_328" style="mask-type:luminance" maskUnits="userSpaceOnUse" x="13" y="7" width="8" height="19">
<path d="M20.3314 7.42285H13V25.186H20.3314V7.42285Z" fill="white"/>
</mask>
<g mask="url(#mask0_2488_328)">
<path d="M14.2455 25.151C13.7935 25.151 13.3593 24.8972 13.1493 24.4637C12.8647 23.8646 13.1209 23.1527 13.7259 22.8672C16.2707 21.6794 17.9113 19.0996 17.9113 16.3046C17.9113 13.5098 16.2707 10.9299 13.7295 9.73862C13.1244 9.45666 12.8682 8.7412 13.1529 8.14205C13.4376 7.54289 14.1601 7.28913 14.7651 7.57109C16.4058 8.33942 17.7972 9.5483 18.783 11.0673C19.7939 12.6287 20.3315 14.4402 20.3315 16.3046C20.3315 18.1691 19.7939 19.9806 18.7794 21.5384C17.7937 23.0575 16.4022 24.2664 14.7615 25.0347C14.5978 25.1157 14.4199 25.151 14.2455 25.151Z" fill="white"/>
</g>
</svg>
