<?xml version="1.0" encoding="UTF-8"?>
<svg version="1.1" xmlns="http://www.w3.org/2000/svg" width="240" height="240">
<path d="M0 0 C27.39 0 54.78 0 83 0 C83 38.28 83 76.56 83 116 C66.17 116 49.34 116 32 116 C31.67 87.95 31.34 59.9 31 31 C16.25574266 40.14783325 16.25574266 40.14783325 2 50 C1.34 50 0.68 50 0 50 C0 33.5 0 17 0 0 Z " fill="#309898" transform="translate(59,27)"/>
<path d="M0 0 C9.57 0 19.14 0 29 0 C29 16.83 29 33.66 29 51 C24.400625 51.020625 19.80125 51.04125 15.0625 51.0625 C13.60980713 51.071604 12.15711426 51.08070801 10.66040039 51.09008789 C9.52594482 51.09258545 8.39148926 51.09508301 7.22265625 51.09765625 C5.47094116 51.10551147 5.47094116 51.10551147 3.68383789 51.11352539 C1 51 1 51 0 50 C-0.09326716 48.43452952 -0.11745582 46.86487228 -0.11352539 45.29663086 C-0.11344986 44.29566879 -0.11337433 43.29470673 -0.11329651 42.26341248 C-0.10813522 41.1748848 -0.10297394 40.08635712 -0.09765625 38.96484375 C-0.0962413 37.85645645 -0.09482635 36.74806915 -0.09336853 35.60609436 C-0.08775033 32.04986931 -0.07519475 28.49370617 -0.0625 24.9375 C-0.05748734 22.53320403 -0.05292403 20.12890708 -0.04882812 17.72460938 C-0.0386239 11.81636294 -0.01905205 5.90825115 0 0 Z " fill="#309798" transform="translate(152,27)"/>
<path d="M0 0 C2.97 0 5.94 0 9 0 C11.31 8.91 13.62 17.82 16 27 C18.31 18.09 20.62 9.18 23 0 C25.31 0 27.62 0 30 0 C30.26478149 1.07483643 30.26478149 1.07483643 30.53491211 2.17138672 C31.33332819 5.40653403 32.13536747 8.64077225 32.9375 11.875 C33.35418945 13.56689453 33.35418945 13.56689453 33.77929688 15.29296875 C34.04677734 16.36933594 34.31425781 17.44570312 34.58984375 18.5546875 C34.95903931 20.04718018 34.95903931 20.04718018 35.33569336 21.56982422 C35.91048863 23.98392813 35.91048863 23.98392813 37 26 C37.176521 25.2479126 37.35304199 24.4958252 37.53491211 23.72094727 C38.3320621 20.33391174 39.13470475 16.94820171 39.9375 13.5625 C40.21529297 12.37849609 40.49308594 11.19449219 40.77929688 9.97460938 C41.18051758 8.28754883 41.18051758 8.28754883 41.58984375 6.56640625 C41.83597412 5.52427979 42.08210449 4.48215332 42.33569336 3.40844727 C43 1 43 1 44 0 C45.51928038 -0.07179964 47.04167482 -0.08392007 48.5625 -0.0625 C49.38878906 -0.05347656 50.21507812 -0.04445312 51.06640625 -0.03515625 C51.70449219 -0.02355469 52.34257813 -0.01195312 53 0 C50.65953951 10.77843648 47.83470138 21.39261284 44.8125 32 C44.27689453 33.8886377 44.27689453 33.8886377 43.73046875 35.81542969 C43.39273438 36.99008789 43.055 38.16474609 42.70703125 39.375 C42.25034058 40.96441406 42.25034058 40.96441406 41.78442383 42.5859375 C41 45 41 45 40 46 C37.69 46 35.38 46 33 46 C31.02 37.75 29.04 29.5 27 21 C25.44428172 26.60843778 25.44428172 26.60843778 23.88916016 32.21704102 C22.61225926 36.81710505 21.31802541 41.41154706 20 46 C17.36 46 14.72 46 12 46 C10.60768743 41.05748216 9.22035826 36.11360111 7.83740234 31.16845703 C7.36737766 29.49034971 6.89605126 27.81260637 6.42333984 26.13525391 C3.98190236 17.46892508 1.57261265 8.87531968 0 0 Z " fill="#309798" transform="translate(75,167)"/>
<path d="M0 0 C22.26940639 0 22.26940639 0 29.0234375 5.7109375 C29.46945313 6.26007813 29.91546875 6.80921875 30.375 7.375 C30.83648437 7.91898438 31.29796875 8.46296875 31.7734375 9.0234375 C35.78349678 15.48550755 35.72803126 22.6477831 35 30 C33.39572506 35.42851952 30.3425516 39.381207 26 43 C20 46 20 46 0 46 C0 30.82 0 15.64 0 0 Z M8 10 C8 18.91 8 27.82 8 37 C16.16374202 37.53698709 16.16374202 37.53698709 22 34 C25.10480101 30.11899874 26.1448038 25.92332922 26 21 C25.18065065 16.90325325 23.95302667 13.92414707 20.9375 11 C16.93942481 9.46289367 16.93942481 9.46289367 8 10 Z " fill="#309798" transform="translate(188,167)"/>
<path d="M0 0 C2.97 0 5.94 0 9 0 C9 6.27 9 12.54 9 19 C13.95 19 18.9 19 24 19 C24 12.73 24 6.46 24 0 C26.97 0 29.94 0 33 0 C33 15.18 33 30.36 33 46 C30.03 46 27.06 46 24 46 C24 39.73 24 33.46 24 27 C19.05 27 14.1 27 9 27 C9 33.27 9 39.54 9 46 C6.03 46 3.06 46 0 46 C0 30.82 0 15.64 0 0 Z " fill="#309798" transform="translate(131,167)"/>
<path d="M0 0 C1.134375 0.020625 2.26875 0.04125 3.4375 0.0625 C6.22358582 6.21103968 8.82824818 12.41143041 11.3125 18.6875 C12.00767747 20.43755364 12.70299143 22.18755308 13.3984375 23.9375 C13.7397168 24.79730469 14.08099609 25.65710938 14.43261719 26.54296875 C15.3756634 28.90745779 16.32950514 31.26717109 17.2890625 33.625 C17.5689502 34.31513184 17.84883789 35.00526367 18.13720703 35.71630859 C18.89168491 37.57465344 19.64887996 39.43189447 20.40625 41.2890625 C21.4375 44.0625 21.4375 44.0625 21.4375 46.0625 C18.4675 46.0625 15.4975 46.0625 12.4375 46.0625 C11.76395501 44.62820999 11.09890299 43.18992943 10.4375 41.75 C10.06625 40.94949219 9.695 40.14898437 9.3125 39.32421875 C8.4375 37.0625 8.4375 37.0625 8.4375 34.0625 C0.5175 34.5575 0.5175 34.5575 -7.5625 35.0625 C-8.8825 38.6925 -10.2025 42.3225 -11.5625 46.0625 C-15.1925 46.0625 -18.8225 46.0625 -22.5625 46.0625 C-22.20260986 45.1638623 -21.84271973 44.26522461 -21.47192383 43.33935547 C-19.03156053 37.2433227 -16.59366963 31.1463616 -14.17037964 25.04351807 C-13.12762447 22.41793048 -12.08282023 19.79316043 -11.0378418 17.16845703 C-10.50278409 15.82310277 -9.96863587 14.47738651 -9.43530273 13.13134766 C-8.65066413 11.1517094 -7.86277984 9.17339096 -7.07421875 7.1953125 C-6.61490967 6.03918457 -6.15560059 4.88305664 -5.68237305 3.69189453 C-4.14091665 0.07264766 -4.14091665 0.07264766 0 0 Z M-0.5625 14.0625 C-1.8825 17.6925 -3.2025 21.3225 -4.5625 25.0625 C-1.5925 25.0625 1.3775 25.0625 4.4375 25.0625 C3.1175 21.4325 1.7975 17.8025 0.4375 14.0625 C0.1075 14.0625 -0.2225 14.0625 -0.5625 14.0625 Z " fill="#309798" transform="translate(59.5625,166.9375)"/>
<path d="M0 0 C8.25 0 16.5 0 25 0 C25 2.97 25 5.94 25 9 C22.36 9 19.72 9 17 9 C17 21.21 17 33.42 17 46 C13.7 46 10.4 46 7 46 C7 33.79 7 21.58 7 9 C4.69 9 2.38 9 0 9 C0 6.03 0 3.06 0 0 Z " fill="#309798" transform="translate(17,167)"/>
<path d="M0 0 C2.97 0 5.94 0 9 0 C9 15.18 9 30.36 9 46 C6.03 46 3.06 46 0 46 C0 30.82 0 15.64 0 0 Z " fill="#309799" transform="translate(171,167)"/>
</svg>
