<svg width="40" height="40" viewBox="0 0 40 40" fill="none" xmlns="http://www.w3.org/2000/svg">
<path d="M0 12.6H9.5C13.8 20 20 26.2 27.4 30.4V40C21 37.8 15.3 34.2 10.5 29.5C5.8 24.7 2.2 18.9 0 12.6ZM27.4 12.6H9.5C7.2 8.7 5.5 4.4 4.5 0H14.9C18.2 0 21.4 1.3 23.8 3.7C26.1 6 27.4 9.2 27.4 12.6ZM27.3 0C28 3.1 29.5 5.9 31.8 8.2C34 10.4 36.9 12 40 12.7V0H27.3Z" fill="#00AFAA"/>
<path d="M27.4001 12.5996V30.4996C20.0001 26.1996 13.8001 19.9996 9.6001 12.5996H27.4001Z" fill="#00539B"/>
<path d="M39.9999 25.1996V35.5996C35.5999 34.4996 31.3999 32.8996 27.3999 30.5996V12.5996C30.6999 12.5996 33.8999 13.8996 36.2999 16.2996C38.6999 18.6996 39.9999 21.7996 39.9999 25.1996Z" fill="#F39A00"/>
</svg>
