<svg width="40" height="40" xmlns="http://www.w3.org/2000/svg">
 <!-- Generator: Adobe Illustrator 29.1.0, SVG Export Plug-In . SVG Version: 2.1.0 Build 142)  -->
 <defs>
  <style>.st0 {
        fill: #fff;
      }

      .st1 {
        fill: #754299;
      }</style>
 </defs>
 <g>
  <title>background</title>
  <rect fill="none" id="canvas_background" height="42" width="42" y="-1" x="-1"/>
 </g>
 <g>
  <title>Layer 1</title>
  <path id="svg_1" d="m18.56141,3.85964c8,0 14.5,6.2 15,14.1l0,15.9s-15,0 -15,0c-8.3,0 -15,-6.7 -15,-15s6.7,-15 15,-15z" class="st1"/>
  <path id="svg_2" d="m18.73685,6.95964c6.3,0 11.5,5 11.9,11.2l0,12.6s-11.9,0 -11.9,0c-6.6,0 -11.9,-5.3 -11.9,-11.9s5.3,-11.9 11.9,-11.9z" class="st0"/>
  <path id="svg_3" d="m19.08773,18.34562c1.1,0 2,0.9 2,2s-0.9,2 -2,2s-2,-0.9 -2,-2s0.9,-2 2,-2z" class="st1"/>
  <path stroke="null" id="svg_4" d="m11.31229,14.30877c0,-1.1 0.9,-2 2,-2s2,0.9 2,2s-0.9,2 -2,2s-2,-0.9 -2,-2z" class="st1"/>
  <path id="svg_5" d="m17.1737,26.58946c0,-1.1 0.9,-2 2,-2s2,0.9 2,2s-0.9,2 -2,2s-2,-0.9 -2,-2z" class="st1"/>
  <path id="svg_6" d="m19.08773,12.48421c1.1,0 2,0.9 2,2s-0.9,2 -2,2s-2,-0.9 -2,-2s0.9,-2 2,-2z" class="st1"/>
  <path id="svg_7" d="m24.87719,12.57018c1.1,0 2,0.9 2,2s-0.9,2 -2,2s-2,-0.9 -2,-2s0.9,-2 2,-2z" class="st1"/>
 </g>
</svg>