<svg width="120" height="120" xmlns="http://www.w3.org/2000/svg">
 <style type="text/css">.st0{fill:#00C4B3;}
	.st1{fill:#231F20;}</style>

 <g>
  <title>background</title>
  <rect fill="none" id="canvas_background" height="122" width="122" y="-1" x="-1"/>
 </g>
 <g>
  <title>Layer 1</title>
  <g stroke="null" id="Shape_1181_copy_1_">
   <g stroke="null" id="svg_3">
    <path stroke="null" id="svg_4" d="m67.78897,93.50381c-1.14219,-2.28438 -2.85547,-4.56875 -4.71152,-6.56758c-0.28555,-0.28555 -0.42832,-0.42832 -0.71387,-0.71387s-0.42832,-0.42832 -0.71387,-0.71387s-0.42832,-0.42832 -0.71387,-0.57109s-0.42832,-0.42832 -0.71387,-0.57109l-7.13867,7.56699l-10.13691,-10.70801c-0.14277,0.14277 -0.28555,0.28555 -0.42832,0.28555c-0.14277,0.14277 -0.28555,0.28555 -0.42832,0.42832c-0.14277,0.14277 -0.28555,0.28555 -0.42832,0.42832c-0.14277,0.14277 -0.28555,0.28555 -0.28555,0.42832c-0.99941,1.28496 -1.57051,2.85547 -1.71328,4.56875s-0.14277,3.56934 0.42832,5.42539c0.42832,1.85605 1.14219,3.85488 2.28438,5.71094c0.99941,1.85605 2.42715,3.71211 3.99766,5.56816l11.8502,12.99238l8.99473,-6.71035c1.42773,-0.99941 2.28438,-2.42715 2.85547,-4.14043c0.57109,-1.71328 0.57109,-3.71211 0.28555,-5.85371c-0.57109,-2.28438 -1.42773,-4.56875 -2.56992,-6.85313zm-38.83438,-50.82735c1.28496,2.28438 2.7127,4.42598 4.56875,6.28203c0.14277,0.28555 0.42832,0.42832 0.57109,0.57109c0.28555,0.14277 0.42832,0.42832 0.71387,0.57109c0.28555,0.14277 0.42832,0.42832 0.71387,0.57109c0.28555,0.14277 0.42832,0.42832 0.71387,0.57109l6.4248,-11.42188l11.8502,11.70742c0.14277,-0.14277 0.42832,-0.42832 0.57109,-0.57109c0.14277,-0.14277 0.42832,-0.42832 0.57109,-0.57109c0.14277,-0.14277 0.42832,-0.42832 0.57109,-0.71387s0.28555,-0.42832 0.57109,-0.71387c1.42773,-2.1416 2.42715,-4.71152 2.99824,-7.42422c0.57109,-2.85547 0.57109,-5.85371 0,-8.85195c-0.42832,-3.14102 -1.42773,-6.28203 -2.85547,-9.1375s-3.42656,-5.56816 -5.71094,-7.70977l-16.27617,-15.27676l-7.70977,19.27441c-0.99941,2.42715 -1.42773,4.99707 -1.57051,7.56699s0.14277,5.13984 0.85664,7.70977c0.28555,2.7127 1.14219,5.28262 2.42715,7.56699zm4.2832,13.84902c-0.14277,-0.28555 -0.28555,-0.42832 -0.57109,-0.71387c-0.14277,-0.28555 -0.42832,-0.42832 -0.57109,-0.71387s-0.42832,-0.42832 -0.57109,-0.71387s-0.42832,-0.42832 -0.57109,-0.71387c-0.85664,-0.99941 -1.85605,-1.71328 -2.7127,-2.42715c-0.99941,-0.71387 -1.85605,-1.28496 -2.85547,-1.71328c-0.85664,-0.42832 -1.85605,-0.71387 -2.7127,-0.99941c-0.85664,-0.14277 -1.71328,-0.28555 -2.56992,-0.28555c-0.71387,0 -1.42773,0.14277 -2.1416,0.42832s-1.28496,0.57109 -1.85605,0.99941s-1.14219,0.85664 -1.57051,1.57051c-0.42832,0.57109 -0.85664,1.28496 -1.14219,1.99883l-4.2832,10.42246l10.42246,11.42188c0.71387,0.85664 1.57051,1.57051 2.28438,2.28438s1.57051,1.28496 2.42715,1.71328c0.85664,0.42832 1.57051,0.85664 2.42715,1.14219c0.85664,0.28555 1.57051,0.57109 2.42715,0.71387c0.71387,0.14277 1.42773,0.14277 2.1416,0.14277s1.42773,-0.14277 1.99883,-0.42832c0.71387,-0.28555 1.28496,-0.57109 1.85605,-0.99941c0.57109,-0.42832 1.14219,-0.99941 1.57051,-1.57051c0.14277,-0.14277 0.14277,-0.28555 0.28555,-0.42832c0.14277,-0.14277 0.14277,-0.28555 0.28555,-0.57109c0.14277,-0.14277 0.14277,-0.28555 0.28555,-0.57109c0.14277,-0.14277 0.14277,-0.42832 0.28555,-0.57109l-9.56582,-10.13691l4.99707,-9.28027zm60.67871,-0.57109c-1.42773,-1.28496 -2.85547,-2.42715 -4.2832,-3.28379c-1.42773,-0.99941 -2.99824,-1.71328 -4.56875,-2.28438c-1.57051,-0.57109 -3.14102,-0.99941 -4.56875,-1.28496c-1.57051,-0.28555 -2.99824,-0.42832 -4.56875,-0.42832c-1.42773,0 -2.7127,0.14277 -3.99766,0.42832s-2.42715,0.71387 -3.56934,1.28496s-2.1416,1.14219 -3.14102,1.99883c-0.99941,0.71387 -1.85605,1.71328 -2.56992,2.7127c-0.14277,0.28555 -0.28555,0.42832 -0.57109,0.71387c-0.14277,0.28555 -0.28555,0.42832 -0.42832,0.71387c-0.14277,0.28555 -0.28555,0.42832 -0.42832,0.71387c-0.14277,0.28555 -0.28555,0.57109 -0.42832,0.71387l12.70684,12.56406l-9.1375,9.56582c0.14277,0.28555 0.42832,0.57109 0.57109,0.71387c0.14277,0.28555 0.42832,0.57109 0.57109,0.71387c0.28555,0.28555 0.42832,0.57109 0.71387,0.71387c0.28555,0.28555 0.42832,0.42832 0.71387,0.71387c0.99941,1.14219 2.1416,1.99883 3.28379,2.99824c1.14219,0.85664 2.42715,1.71328 3.56934,2.28438c1.28496,0.71387 2.56992,1.28496 3.85488,1.71328c1.28496,0.42832 2.7127,0.85664 3.99766,0.99941c1.28496,0.28555 2.56992,0.28555 3.85488,0.28555c1.28496,0 2.56992,-0.14277 3.71211,-0.28555c1.28496,-0.28555 2.42715,-0.57109 3.56934,-1.14219s2.28438,-1.14219 3.28379,-1.99883l17.70391,-13.27793l-19.84551,-18.56055z" class="st0"/>
   </g>
  </g>
  <style transform="matrix(0.020664220154586133,0,0,0.020664220154586133,0,0) " type="text/css">.st0{fill:#00C4B3;}
	.st1{fill:#231F20;}</style>
 </g>
</svg>