<svg width="32" height="32" viewBox="0 0 32 32" fill="none" xmlns="http://www.w3.org/2000/svg">
<path d="M30.9998 19.3341C30.9873 18.2674 30.7474 17.2153 30.296 16.2467C29.8445 15.2781 29.1915 14.4147 28.3798 13.7131C28.6426 13.0039 28.7762 12.2542 28.7743 11.4988C28.7743 11.0841 28.7321 10.6749 28.6554 10.2811C28.0821 7.277 25.4221 5 22.2343 5H14.5033V19.1031C14.5033 21.8179 12.1588 24.0289 9.27662 24.0289C9.18585 24.0282 9.09509 24.026 9.0044 24.0223C6.24886 23.8903 4.04887 21.7332 4.04887 19.1053V9.1635C4.04887 8.5057 4.59665 7.9711 5.26886 7.9711H8.29551C8.49414 7.97284 8.69117 7.93579 8.87532 7.86208C9.05947 7.78837 9.22714 7.67943 9.36873 7.54151C9.51031 7.40358 9.62304 7.23937 9.70047 7.05828C9.77789 6.87718 9.81849 6.68275 9.81995 6.4861C9.81995 5.6666 9.13662 5.0011 8.29551 5.0011H5.26997C2.91443 5.0011 1 6.8678 1 9.1635V10.4967V19.1053L1.00111 19.2142C1.06667 23.5174 4.75109 27 9.27773 27C13.841 27 17.5543 23.458 17.5543 19.1053V7.97H22.2354C22.2665 7.97 22.2965 7.9711 22.3243 7.9755C24.2076 8.0228 25.7243 9.5848 25.7243 11.4988C25.7286 12.2026 25.5196 12.8916 25.1243 13.4766C24.6665 14.1762 24.7821 14.9462 25.4854 15.3356C26.2322 15.7322 26.8561 16.3221 27.2906 17.0425C27.725 17.7628 27.9537 18.5864 27.9521 19.4254C27.9521 21.7937 26.1676 23.7484 23.8854 24.0025C23.7189 24.0198 23.5517 24.0286 23.3843 24.0289H18.4555C17.6155 24.0289 16.9332 24.6955 16.9332 25.515C16.9332 26.3367 17.6155 27 18.4555 27H23.3832C27.5798 27 30.9976 23.601 30.9976 19.4265C31.0009 19.3946 30.9998 19.3649 30.9998 19.3341Z" fill="#CC163F"/>
</svg>
