<svg xmlns="http://www.w3.org/2000/svg" xmlns:xlink="http://www.w3.org/1999/xlink" width="43" height="43" viewBox="-1 0 45 43"><defs><style> .i { fill: url(#g); } .j { fill: url(#f); } .k { fill: url(#e); } .l { fill: url(#d); } .m { fill: url(#c); } .n { fill: url(#b); } .o { fill: #231f20; } .p { fill: #fff; } </style><linearGradient id="b" x1="21.5" y1="-1.06" x2="21.5" y2="44.33" gradientUnits="userSpaceOnUse"><stop offset="0" stop-color="#008053"/><stop offset=".6" stop-color="#7fcbae"/><stop offset="1" stop-color="#00a76d"/></linearGradient><linearGradient id="c" x1="21.43" y1="-10.68" x2="21.43" y2="40.33" gradientUnits="userSpaceOnUse"><stop offset="0" stop-color="#00a76d"/><stop offset=".3" stop-color="#7fcbae"/><stop offset=".55" stop-color="#00a76d"/><stop offset=".84" stop-color="#008053"/><stop offset=".89" stop-color="#00885b"/><stop offset=".97" stop-color="#00a171"/><stop offset="1" stop-color="#00ad7d"/></linearGradient><linearGradient id="d" x1="29.6" y1="37.51" x2="29.6" y2="4.5" gradientUnits="userSpaceOnUse"><stop offset="0" stop-color="#00b387"/><stop offset="1" stop-color="#00a76d"/></linearGradient><linearGradient id="e" x1="9.12" y1="37.51" x2="9.12" y2="4.49" xlink:href="#d"/><linearGradient id="f" x1="15.5" y1="37.5" x2="15.5" y2="4.51" xlink:href="#d"/><linearGradient id="g" x1="21.02" y1="37.51" x2="21.02" y2="4.5" xlink:href="#d"/></defs><g id="a" data-name="Embleme"><g><rect class="n" width="43" height="43"/><path class="m" d="M41.67,21.75c0,8.97.41,18.16.41,18.16-.02,1.03-.68,1.69-1.51,1.69H3.36c-.83,0-1.41-.74-1.51-1.69,0,0-1.07-7.85-1.07-19.84S1.85,2.45,1.85,2.45c.13-.99.67-1.69,1.51-1.69h37.22c.83,0,1.53.77,1.51,1.69,0,0-.41,10.33-.41,19.3Z"/><g><g><path class="l" d="M33.39,11.61c-2.66,1.56-3.47,1.68-6.36,3.41l.14-.32c1.51-1.65,2.17-2.35,3.17-3.81-2.67.14-6.53.46-9.3,1.07h0l.15-.3c2.51-1.22,7.16-2.43,9.54-2.75-.58-.81-5.3-3.37-6.47-3.86h0l.14-.3c3.58.4,8.31,2.08,10.38,3.34.87-.27,1.76-.3,3.38-.44,0,0-.24.98-2,2.19h0c.44,1.17-.61,7.66-1.48,9.38h0c-.04-2.71-.28-6.14-1.29-7.62Z"/><path class="k" d="M13.96,34.86l.14-.3c-1.41-.55-2.82-.98-3.97-2.06h0c.36-1,.77-1.78,1.44-2.77h0l.14-.3c-1.21.18-2.31.63-3.36.83h0c-.83-1.45-1.15-3.44-1.57-5.34l-.14.3h0c-.23,2.16-.33,3.71-.02,5.43h0c-.87.24-1.64.28-2.35.58l-.13.3h0c1.12.69,2.03,1.22,3.3,1.81h0c.68,1.46,1.38,2.44,2.52,3.56h0l.14-.3c-.2-.83-.47-1.51-.37-2.42h0c1.41.41,2.62.63,4.23.68Z"/><path class="j" d="M17.88,13.26s-.57,1.01-1.02,2.34h-.11c3.31.45,6.44,1.79,7.22,2.25l-.14.3h0c-3.44-.6-5.25-.54-6.53-.42h0c-1.28.12-1.54.28-1.54.28h0c-.74,1.61-1.17,4.24-1.34,5.21l-.14.3h0c-.63-1.51-1.54-4.53-1.54-4.53h0c-1.73.93-5.72,4.68-5.72,4.68h0c2.2-4.39,4.43-6.39,4.43-6.39h0c-.77-.77-2.77-1.16-4.24-1.23h0l.14-.3c.92-.27,2.81-.38,4.08-.44h0c1.5-.05,2.41.04,2.41.04h0c1.34-1.07,3.33-2,4.04-2.1Z"/><path class="i" d="M22.1,32.13c-.69.94-1.29,1.68-2.05,2.54h0c-1.13.31-2.49.17-3.53.21l-.14.3h0c.79.4,1.56.65,2.38.82h0c-.67.61-1.56,1.07-2.19,1.49l-.14.3h0c1.34-.32,3.11-.89,4.43-1.67h0c.69.03,1.33-.01,1.8-.11h0s.14-.31.14-.3c-.09-.3-.36-.49-.44-.91h0c1.24-.96,2.13-1.83,3.16-2.87h0l.14-.3c-1.02.7-2.26,1.67-3.45,2.24h0c-.05-.59-.09-1.08-.12-1.74Z"/></g><g><path class="p" d="M33.53,11.31c-2.65,1.56-3.47,1.69-6.35,3.42,1.68-1.82,2.26-2.6,3.3-4.12-2.66.14-6.53.46-9.29,1.07h0c2.4-1.28,7.17-2.71,9.68-3.05-.58-.8-5.3-3.36-6.48-3.85h0c3.74.29,8.3,1.69,10.52,3.04.87-.27,1.78-.29,3.4-.43h0c-.41.71-.43,1.12-2.02,2.17h0c.44,1.18-.61,7.66-1.48,9.38h0c-.03-2.71-.27-6.13-1.28-7.62Z"/><path class="p" d="M14.1,34.56c-1.52-.57-2.62-1.22-3.83-2.35h0c.36-1,.77-1.78,1.45-2.78h0c-1.24.19-2.15.33-3.22.53h0c-.87-1.52-1.26-2.99-1.71-5.03h0c-.24,2.17-.33,3.71-.02,5.44h0c-.98.27-1.67.51-2.48.87h0c1.13.69,2.04,1.22,3.31,1.81h0c.68,1.45,1.38,2.44,2.52,3.56h0c-.27-.96-.34-1.71-.23-2.72h0c1.41.41,2.62.63,4.22.68Z"/><path class="p" d="M18.07,13h0c-.47.62-1.03,1.77-1.17,2.3h0c3.93.53,7.08,2.55,7.08,2.55h0c-3.44-.61-5.25-.53-6.53-.42h0c-1.27.12-1.54.27-1.54.27h0c-.93,2.03-1.48,5.52-1.48,5.52h0c-.62-1.51-1.53-4.53-1.53-4.53h0c-1.73.93-5.72,4.68-5.72,4.68h0c2.19-4.39,4.42-6.39,4.42-6.39h0c-.77-.78-2.77-1.16-4.24-1.23h0c.76-.31,2.72-.68,4.22-.74h0c1.5-.04,2.41.04,2.41.04h0c1.34-1.06,3.38-1.95,4.08-2.06Z"/><path class="p" d="M22.24,31.84c-.69.94-1.29,1.68-2.06,2.54h0c-1.32.37-2.38.51-3.67.51h0c.79.41,1.56.65,2.38.83h0c-.83.75-1.52,1.28-2.33,1.79h0c1.34-.32,3.11-.89,4.43-1.67h0c.69.03,1.33-.02,1.8-.11h0c-.12-.4-.2-.7-.3-1.21h0c1.24-.96,2.14-1.83,3.17-2.87h0c-1.1.77-2.04,1.34-3.31,1.94h0c-.05-.59-.09-1.08-.12-1.74Z"/></g></g></g></g><script xmlns=""/><link xmlns=""/></svg>