<?xml version="1.0" standalone="no"?>
<!DOCTYPE svg PUBLIC "-//W3C//DTD SVG 20010904//EN"
 "http://www.w3.org/TR/2001/REC-SVG-20010904/DTD/svg10.dtd">
<svg version="1.0" xmlns="http://www.w3.org/2000/svg"
 width="84.000000pt" height="88.000000pt" viewBox="0 0 84.000000 88.000000"
 preserveAspectRatio="xMidYMid meet">

<g transform="translate(0.000000,88.000000) scale(0.100000,-0.100000)"
fill="#FF6400" stroke="none">
<path d="M140 871 c-91 -19 -129 -74 -137 -201 -3 -49 -4 -90 -1 -90 3 0 22
25 43 56 21 30 78 93 127 139 49 46 85 86 81 88 -17 11 -80 15 -113 8z"/>
<path d="M691 870 c-40 -9 -77 -36 -105 -74 -20 -26 -21 -45 -26 -279 l-5
-252 -30 -6 c-58 -13 -145 -9 -185 7 -66 27 -70 43 -70 284 l0 211 -37 -28
c-59 -45 -142 -152 -184 -239 -34 -70 -39 -89 -39 -150 1 -124 56 -227 151
-279 47 -26 64 -30 135 -30 75 0 87 3 165 42 144 72 264 186 330 315 l29 57 0
199 c0 148 -3 202 -12 210 -19 15 -79 22 -117 12z"/>
<path d="M768 224 c-52 -65 -111 -117 -191 -170 -51 -34 -52 -34 -17 -28 130
23 233 62 250 93 6 12 10 53 8 92 l-3 71 -47 -58z"/>
</g>
</svg>
