<svg width="40" height="40" viewBox="0 0 40 40" fill="none" xmlns="http://www.w3.org/2000/svg">
<path d="M39.1 23.2H36.8C36.7 23.2 36.6 23.4 36.5 23.5C35.1 25.2 33 26.5 30.1 27.6C27.5 28.6 24.6 29.1 21.3 29.4C18 29.6 14.7 29.4 11.6 28.7C9.2 28.2 6.7 27.4 4.8 26.2C3.4 25.4 2.3 24.6 1.7 23.7C1.5 23.5 1.7 23.4 1.9 23.5C2.9 24.5 4.2 25.4 5.7 26.1C7.2 26.8 9.2 27.4 11.8 27.9C13.7 28.2 16.2 28.4 19.3 28.2C22.6 28 25.8 27.2 28.4 26C29.9 25.3 31 24.6 31.8 23.8C32.1 23.5 31.8 23.1 31.5 23H30.3C28.2 25.3 23.6 27.6 16.1 27.6C8.5 27.9 0.4 24.8 0.5 20C0.6 15.2 8.2 12.1 15.6 12.1C23 12.1 27.9 14.1 30.4 16.8H31.6C31.9 16.7 32 16.3 31.8 16C31 15.2 29.9 14.5 28.4 13.8C25.8 12.6 22.7 11.8 19.3 11.6C16.2 11.4 13.7 11.6 11.8 11.9C9 12.4 7.1 13 5.6 13.7C4 14.4 2.8 15.4 1.8 16.4C1.6 16.5 1.4 16.4 1.6 16.2C2.3 15.4 3.3 14.5 4.7 13.7C6.7 12.5 9.1 11.7 11.6 11.2C14.7 10.5 18 10.3 21.3 10.5C24.6 10.7 27.6 11.3 30.1 12.3C33 13.4 35.2 14.8 36.5 16.5L36.8 16.8H39.2C39.8 16.8 40.2 16.3 39.9 15.6C36.7 12 29.7 9.5 20.3 9.5C9.8 9.5 0 14 0 20C0 26 9.7 30.6 20.8 30.5C30.4 30.4 36.1 27.9 39.4 24.9C40.5 24 39.9 23.2 39.1 23.2Z" fill="#2A426C"/>
<path d="M13.4002 22H13.6002V18.1H12.8002V19.5C12.8002 19.6 12.8002 19.8 12.6002 19.8H11.0002C10.9002 19.8 10.8002 19.7 10.8002 19.6V19C10.8002 18.3 10.3002 18.2 10.1002 18.2H10.0002V22H10.8002V20.7C10.8002 20.5 10.9002 20.5 11.1002 20.5H12.5002C12.7002 20.5 12.8002 20.6 12.8002 20.8V21.4C12.8002 21.9 13.3002 22 13.4002 22ZM14.8002 18H14.7002V21.9H15.5002L17.1002 19.6C17.2002 19.5 17.4002 19.4 17.4002 19.7V21.2C17.4002 21.9 17.9002 22 18.1002 22H18.3002V18.1H17.5002L15.9002 20.4C15.8002 20.6 15.6002 20.6 15.6002 20.4V18.9C15.4002 18.1 15.0002 18 14.8002 18ZM24.7002 22V19C24.7002 18.9 24.8002 18.8 25.0002 18.8H25.6002C25.9002 18.8 26.1002 18.4 26.1002 18.2H23.1002C22.7002 18.2 22.5002 18.5 22.4002 18.8H23.6002C23.8002 18.8 23.8002 18.9 23.8002 19V22H24.7002ZM31.0002 18H30.8002V21.9H31.6002L33.2002 19.6C33.3002 19.5 33.5002 19.4 33.5002 19.7V21.2C33.5002 21.9 34.0002 22 34.2002 22H34.4002V18.1H33.6002L32.0002 20.4C31.9002 20.6 31.7002 20.6 31.7002 20.4V18.9C31.7002 18.1 31.2002 18 31.0002 18ZM7.2002 22H7.8002C8.4002 22 9.0002 21.5 9.0002 20.8V19.3C9.0002 18.6 8.4002 18 7.7002 18H7.2002C6.5002 18 6.0002 18.5 6.0002 19.2V19.5C6.0002 19.7 5.9002 19.8 5.7002 19.8H5.1002C5.0002 19.8 4.9002 19.7 4.9002 19.6V18.9C4.9002 18.2 4.4002 18.1 4.2002 18.1V22H5.0002V20.6C5.0002 20.4 5.1002 20.4 5.3002 20.4H5.8002C6.0002 20.4 6.0002 20.5 6.0002 20.7V20.9C5.9002 21.5 6.5002 22 7.2002 22ZM6.7002 19.3C6.7002 18.9 7.0002 18.6 7.4002 18.6H7.6002C8.0002 18.6 8.3002 18.9 8.3002 19.3V20.7C8.3002 21.1 8.0002 21.4 7.6002 21.4H7.4002C7.0002 21.4 6.7002 21.1 6.7002 20.7V19.3ZM20.4002 18.7H21.4002C21.7002 18.6 21.8002 18.4 21.9002 18.1H20.3002C19.6002 18.1 19.1002 18.6 19.1002 19.3V20.7C19.1002 21.4 19.6002 21.9 20.3002 21.9H22.0002C22.0002 21.6 21.7002 21.4 21.5002 21.3H20.4002C20.1002 21.3 20.0002 21.1 20.0002 20.9V19.2C20.0002 18.9 20.2002 18.7 20.4002 18.7ZM28.9002 18.1H26.8002V22H27.7002V20.7H28.8002C29.3002 20.7 29.7002 20.4 29.9002 20.1C30.1002 19.7 30.0002 19.3 29.9002 18.8C29.8002 18.4 29.4002 18.1 28.9002 18.1ZM28.7002 20.1H27.7002C27.7002 20.1 27.6002 20.1 27.6002 20V18.9C27.6002 18.9 27.6002 18.8 27.7002 18.8H28.8002C29.1002 18.8 29.2002 19 29.2002 19.2V19.7C29.3002 19.8 29.0002 20.1 28.7002 20.1ZM39.1002 21.2C39.1002 21.9 39.6002 22 39.8002 22H40.0002V18.1H39.0002C38.8002 18.1 38.7002 18.2 38.7002 18.3L37.9002 20.4C37.8002 20.7 37.6002 20.7 37.5002 20.4C37.2002 19.7 37.0002 19.1 36.8002 18.4C36.8002 18.3 36.7002 18.2 36.5002 18.2H35.5002V22H35.7002C35.9002 22 36.4002 22 36.4002 21.2V19.7C36.4002 19.4 36.6002 19.4 36.7002 19.6L37.4002 21.4H38.2002L38.9002 19.6C39.0002 19.4 39.2002 19.4 39.2002 19.7L39.1002 21.2Z" fill="#2A426C"/>
</svg>
