<svg width="32" height="32" viewBox="0 0 32 32" fill="none" xmlns="http://www.w3.org/2000/svg">
<path d="M26 0H6C2.68629 0 0 2.68629 0 6V26C0 29.3137 2.68629 32 6 32H26C29.3137 32 32 29.3137 32 26V6C32 2.68629 29.3137 0 26 0Z" fill="#3B175C"/>
<path fill-rule="evenodd" clip-rule="evenodd" d="M16.186 4C16.5056 4 16.8456 4.01324 17.222 4.0435V6.34612C17.222 16.4918 17.6087 20.8777 19.1085 27.6409C17.1922 28.1203 15.1595 28.1203 13.2465 27.6371C14.7562 20.8248 15.1458 16.4389 15.1458 6.34612V4.0435C15.526 4.01324 15.8659 4 16.186 4ZM27.7648 16.8588C27.7648 12.9126 25.6154 9.44308 22.3861 7.4667L22.4296 10.1457C24.3492 11.7958 25.5653 14.1958 25.5653 16.8588C25.5653 18.0748 25.3052 19.2351 24.849 20.2952C23.4594 18.9751 22.4693 17.4224 21.8532 15.5888C21.1099 13.3694 20.9364 10.9391 20.9099 7.96978L20.9132 6.69317L20.6409 6.57969L20.3913 6.48324C19.8863 6.29411 19.3662 6.13808 18.8371 6.01988L18.8404 7.966C18.9104 18.2186 20.6868 22.4446 23.3293 25.621C26.032 23.5813 27.7648 20.4153 27.7648 16.8588ZM13.5274 7.96789L13.5307 6.02177C12.8177 6.18158 12.1212 6.40853 11.4545 6.69506L11.4578 7.97167C11.428 10.9381 11.2578 13.3713 10.5146 15.5907C9.90179 17.4242 8.9084 18.9741 7.51879 20.2971C7.06252 19.237 6.80247 18.0767 6.80247 16.8606C6.80247 14.194 8.01525 11.7977 9.9382 10.1476L9.98169 7.46859C6.74904 9.44119 4.59961 12.9107 4.59961 16.8606C4.59961 20.4172 6.3358 23.5832 9.03511 25.6229C11.6843 22.4503 13.4574 18.2205 13.5274 7.96789Z" fill="white"/>
</svg>
