<svg xmlns="http://www.w3.org/2000/svg" width="102" height="102" viewBox="-2 0 102 110" fill="none"><path fill-rule="evenodd" clip-rule="evenodd" d="M12.4383 96.4756C4.51393 88.1473 0.548828 75.0691 0.548828 58.298C0.548828 39.5194 0.548828 21.2469 0.548828 2.46859C0.548828 1.15266 1.63137 0.0761719 2.95427 0.0761719H30.7375C32.0604 0.0761719 33.1426 1.15266 33.1426 2.46859C33.1426 21.6544 33.1426 40.8406 33.1426 60.0263C33.1426 65.4657 33.9255 71.7036 37.2504 76.2126C42.4181 83.2208 53.692 83.2208 58.8597 76.2126C62.1846 71.7036 62.9676 65.4657 62.9676 60.0263V50.0109H95.5613V58.298C95.5613 75.0691 91.5962 88.1473 83.6719 96.4756C67.7666 113.193 28.3435 113.193 12.4383 96.4756H12.4383Z" fill="#0E397A"/><path fill-rule="evenodd" clip-rule="evenodd" d="M62.9668 43.698C62.9668 29.9928 62.9668 16.2873 62.9668 2.58172C62.9668 1.20401 64.1001 0.0761719 65.4861 0.0761719H70.0329C70.0425 14.1123 81.44 25.4897 95.5534 25.4897H95.5606C95.5606 31.5584 95.5606 37.6281 95.5606 43.6981C84.6965 43.6981 73.8313 43.6981 62.9668 43.6981V43.698Z" fill="#0E397A"/><path fill-rule="evenodd" clip-rule="evenodd" d="M76.3948 0.0762141C81.9441 0.0762141 87.4934 0.0762141 93.0427 0.0762141C94.4282 0.0762141 95.5618 1.2038 95.5618 2.58197C95.5618 8.10885 95.5618 13.6358 95.5618 19.1627C84.9763 19.1627 76.3945 10.6265 76.3945 0.0969483L76.3948 0.0761719L76.3948 0.0762141Z" fill="#FF6620"/></svg>