<svg xmlns="http://www.w3.org/2000/svg" width="50" height="50" viewBox="0 0 45 33" fill="none">
<g clip-path="url(#clip0_2730_916)">
<path d="M4.11515 8.76993L0 31.693C3.61411 31.693 27.424 31.693 27.3718 31.693H28.9224C37.4471 31.6488 42.3601 29.6129 43.2506 23.0606C43.8466 18.6401 40.1921 15.7962 37.2049 15.2019C40.2254 14.6174 43.8941 13.527 44.6587 8.92465C45.231 5.4717 42.2319 0.660645 34.0657 0.660645H13.7726C8.20892 0.660645 4.72541 4.70546 4.10802 8.78221" fill="#FDB913"/>
<path d="M21.3166 8.89026C20.2813 10.2189 14.1929 17.3041 9.76665 22.7929C10.7165 18.252 12.3787 8.5317 13.8628 6.53508C14.7341 5.3662 15.9819 4.55931 17.3795 4.26094C17.3795 4.26094 9.6408 1.9647 7.40632 11.6654C6.58709 15.2313 4.06291 27.8741 4.06291 27.8889C4.1104 27.9945 11.1154 28.6035 14.5111 24.5096C16.0284 22.6775 23.5511 13.0407 25.617 10.2655C29.9624 4.40093 32.6576 4.01536 32.6576 4.01536C32.6576 4.01536 25.7357 3.23193 21.3166 8.90254" fill="white"/>

</g>
<defs>
<clipPath id="clip0_2730_916">
<rect width="249.905" height="32" fill="white"/>
</clipPath>
</defs>
<script xmlns=""/><link xmlns=""/></svg>