<svg xmlns="http://www.w3.org/2000/svg" width="89" height="89" viewBox="3 0 89 89" fill="none"><circle cx="47" cy="44.5" r="43" fill="#555db3"/><path d="M73.2715 17.9852C69.8369 14.4919 65.7517 11.7223 61.2522 9.83674C56.7527 7.95117 51.9283 6.98704 47.0581 7.00013C43.537 6.99668 40.0332 7.49817 36.6512 8.48966L39.4486 14.518C41.9348 13.873 44.4915 13.5473 47.0581 13.5488C63.9296 13.5488 77.6565 27.4367 77.6565 44.5061C77.6565 61.5756 63.9296 75.4635 47.0581 75.4635C30.1867 75.4635 16.4598 61.5756 16.4598 44.5061C16.4525 38.275 18.3148 32.1883 21.8004 27.051L18.6958 20.3547C15.0619 24.6946 12.4613 29.8207 11.0945 35.338C11.058 35.4857 11.0227 35.6345 10.9874 35.7833C10.9521 35.9322 10.9191 36.0798 10.8862 36.2298C10.7873 36.6767 10.6963 37.1264 10.6131 37.5788C10.5861 37.7289 10.559 37.8801 10.5331 38.0313C10.5108 38.1587 10.4896 38.2873 10.4696 38.4147C10.4613 38.4707 10.4519 38.5254 10.4437 38.5814C10.4248 38.7005 10.406 38.8195 10.3895 38.9386C10.3731 39.0577 10.3495 39.216 10.3307 39.3553C10.3307 39.3768 10.3307 39.3994 10.3213 39.422C10.3025 39.5649 10.2848 39.709 10.2671 39.853C10.2365 40.0999 10.2091 40.3464 10.1848 40.5924C10.1718 40.7115 10.1601 40.8365 10.1495 40.9592C10.14 41.0508 10.1318 41.1437 10.1247 41.2354C10.1118 41.3878 10.1 41.5414 10.0883 41.6938V41.7057C10.0765 41.8569 10.0671 42.0069 10.0577 42.1582C10.0577 42.2582 10.0459 42.3582 10.0412 42.4594C10.0412 42.5404 10.0318 42.6213 10.0282 42.6975C10.0282 42.8273 10.0177 42.9583 10.0129 43.0893C10.0082 43.2202 10.0024 43.375 10 43.5179C10 43.5989 10 43.681 10 43.7632C10 43.8668 10 43.9715 10 44.0751C10 44.2144 10 44.3549 10 44.4942C9.99982 45.8929 10.0756 47.2904 10.2271 48.6806C10.2589 48.9712 10.293 49.2605 10.3319 49.5498L10.3389 49.6058C10.3805 49.9082 10.4245 50.2098 10.4707 50.5107C10.4955 50.6619 10.5202 50.8131 10.5461 50.9643C11.718 57.7268 14.7017 64.0342 19.1722 69.1994C23.6427 74.3647 29.4285 78.1896 35.8993 80.2577C42.3702 82.3257 49.2778 82.5575 55.8699 80.9278C62.4619 79.2981 68.4855 75.8694 73.2845 71.0152C76.7269 67.5324 79.4576 63.3977 81.3206 58.8473C83.1836 54.2968 84.1425 49.4196 84.1425 44.4942C84.1425 39.5688 83.1836 34.6917 81.3206 30.1412C79.4576 25.5907 76.7269 21.4561 73.2845 17.9733" fill="white"/><path d="M47.0452 64.5653L62.6504 31.1111H54.8431L47.0581 47.7912L30.0407 11.1222C27.9266 12.2337 25.9236 13.5496 24.0599 15.0514L47.0452 64.5653Z" fill="white"/></svg>