<svg xmlns:dc="http://purl.org/dc/elements/1.1/" xmlns:cc="http://creativecommons.org/ns#" xmlns:rdf="http://www.w3.org/1999/02/22-rdf-syntax-ns#" xmlns:svg="http://www.w3.org/2000/svg" xmlns="http://www.w3.org/2000/svg" viewBox="0 0 303 76.333336" height="304" width="304" xml:space="preserve" id="svg2" version="1.1"><metadata id="metadata8"><rdf:RDF><cc:Work rdf:about=""><dc:format>image/svg+xml</dc:format><dc:type rdf:resource="http://purl.org/dc/dcmitype/StillImage"/></cc:Work></rdf:RDF></metadata><defs id="defs6"/><g transform="matrix(1.3333333,0,0,-1.3333333,0,77.333333)" id="g10"><g transform="scale(0.1)" id="g12"><path id="path14" style="fill:#393536;fill-opacity:1;fill-rule:evenodd;stroke:none" d="M 346.461,561.996 219.965,232.883 H 128.664 L 2.16406,561.996 92.625,564.211 174.313,330.898 256.004,564.211 Z m 142.074,8.117 h 24.692 c 85.574,0 155.586,-69.504 155.586,-154.457 v -30.398 c 0,-84.953 -70.012,-154.457 -155.586,-154.457 h -24.692 c -85.605,0 -155.586,69.504 -155.586,154.457 v 30.398 c 0,84.953 69.981,154.457 155.586,154.457 z m 5.871,-71.152 h 12.953 c 44.887,0 81.614,-39.824 81.614,-88.496 v -17.414 c 0,-48.672 -36.727,-88.492 -81.614,-88.492 h -12.953 c -44.898,0 -81.613,39.82 -81.613,88.492 v 17.414 c 0,48.672 36.715,88.496 81.613,88.496 z m 689.554,3.949 V 231.059 h -87.33 V 502.91 h -90.15 v 63.031 h 267.63 V 502.91 Z m 248.95,67.203 h 24.69 c 85.58,0 155.59,-69.504 155.59,-154.457 v -30.398 c 0,-84.953 -70.01,-154.457 -155.59,-154.457 h -24.69 c -85.6,0 -155.59,69.504 -155.59,154.457 v 30.398 c 0,84.953 69.99,154.457 155.59,154.457 z m 5.88,-71.152 h 12.94 c 44.89,0 81.62,-39.824 81.62,-88.496 v -17.414 c 0,-48.672 -36.73,-88.492 -81.62,-88.492 h -12.94 c -44.91,0 -81.62,39.82 -81.62,88.492 v 17.414 c 0,48.672 36.71,88.496 81.62,88.496 z m -504.591,-33.586 51.371,49.234 c -11.593,10.883 -21.48,23.946 -34.785,32.649 -73.594,48.105 -246.137,37.683 -250.98,-75.996 -4.403,-103.34 130,-85.918 193.183,-116.121 15.078,-7.207 20.102,-28.059 7.492,-40.137 -29.121,-27.879 -95.984,-23.883 -127.894,-2.141 -8.863,6.035 -15.695,14.625 -23.547,21.938 l -59.402,-42.274 c 8.918,-9.273 16.468,-20.109 26.761,-27.824 64.977,-48.746 202.18,-45.539 257.934,16.055 26.548,29.332 33.758,77.027 10.168,110.234 -33.336,46.918 -103.562,43.043 -153.586,54.051 -15.301,3.363 -39.551,9.434 -45.078,26.637 -11.617,36.09 37.797,41.554 74.871,37.324 37.059,-4.223 47.926,-17.649 73.492,-43.629 z M 1726.28,568.789 V 417.301 l 162.82,151.488 h 97.85 L 1814.62,400.852 1985.95,232.91 h -98.86 L 1726.28,388.676 V 231.059 h -87.33 v 337.73 h 87.33"/><path id="path16" style="fill:#f47216;fill-opacity:1;fill-rule:evenodd;stroke:none" d="M 2093.05,568.789 H 1995.2 L 2167.53,400.852 1996.2,232.91 h 98.85 l 175.89,170.367 z M 1985.16,504.184 2087.71,401.637 1985.16,299.09 1882.61,401.637 1985.16,504.184"/><path id="path18" style="fill:#f47216;fill-opacity:1;fill-rule:evenodd;stroke:none" d="m 1458.28,183.855 h 73.3 c 16.04,0 27.54,-3.195 34.51,-9.597 6.97,-6.406 11.44,-13.496 13.38,-21.278 0.75,-2.593 1.24,-5.183 1.46,-7.781 0.23,-2.59 0.34,-5.023 0.34,-7.293 0,-10.859 -2.85,-19.57 -8.54,-26.136 -5.7,-6.567 -12.14,-10.743 -19.34,-12.52 v -0.7305 c 0.9,-0.1601 1.8,-0.3242 2.7,-0.4882 0.89,-0.1602 1.8,-0.4024 2.69,-0.7266 7.5,-2.1094 14.39,-6.5664 20.69,-13.375 6.3,-6.8125 9.44,-16.8555 9.44,-30.1524 0,-16.2031 -3.97,-27.7929 -11.91,-34.7617 -7.95,-6.9765 -16.71,-11.42966 -26.31,-13.37888 -3.9,-0.97266 -7.72,-1.57813 -11.46,-1.81641 -3.76,-0.24609 -7.2,-0.36718 -10.35,-0.36718 h -70.6 z m 22.48,-97.0073 V 23.8789 h 46.32 c 0.6,0 1.24,0 1.91,0 0.68,0 1.39,0 2.14,0 8.55,0.3203 16.41,2.5117 23.61,6.5586 7.19,4.0547 10.79,12.4883 10.79,25.2891 0,11.0234 -3.18,18.9648 -9.55,23.8242 -6.37,4.8633 -16,7.2969 -28.9,7.2969 z m 0,76.5933 V 107.27 h 44.97 c 11.84,0 20.05,2.558 24.62,7.664 4.57,5.097 7.16,10.734 7.76,16.898 0.15,0.641 0.22,1.254 0.22,1.816 0,0.571 0,1.18 0,1.829 0,1.621 -0.1,3.445 -0.33,5.468 -0.23,2.024 -0.79,4.172 -1.69,6.446 -1.5,4.05 -4.46,7.738 -8.88,11.058 -4.42,3.328 -11.43,4.992 -21.02,4.992 z M 1641.75,50.1367 1626.02,3.45313 h -24.06 l 63.18,180.40187 h 24.06 L 1752.39,3.45313 h -24.07 l -15.96,46.68357 z m 6.07,20.4219 h 58.47 l -29.23,88.7424 z m 146.39,75.8634 V 3.45313 h -22.49 V 183.855 h 24.74 L 1885.27,40.8984 V 183.855 h 22.49 V 3.45313 h -24.74 z m 176.5,-44.742 75.11,82.175 h 27.43 l -79.37,-83.39 84.54,-97.01187 h -29.45 L 1970.71,97.5469 V 3.45313 h -22.48 V 183.855 h 22.48 V 101.68"/></g></g><script xmlns=""/><link xmlns=""/></svg>