<svg xmlns="http://www.w3.org/2000/svg" data-name="Group 38639" width="34" height="34" viewBox="-1 0 68 34">
    <defs>
        <clipPath id="ds0zyvceya">
            <path data-name="Rectangle 14745" style="fill:none" d="M0 0h194.563v34H0z"/>
        </clipPath>
    </defs>
    <g data-name="Group 38102" style="clip-path:url(#ds0zyvceya)">
        <path data-name="Path 47426" d="M65.46 10.928C61.861.6 51.571.029 50.515 0a18.918 18.918 0 0 0-13.557 5.295 24.157 24.157 0 0 0-3.843 4.773 24.089 24.089 0 0 0-3.834-4.773A18.936 18.936 0 0 0 15.715 0C14.662.029 4.371.6.782 10.928a15.679 15.679 0 0 0 .919 12c1.9 4.059 6.426 7.369 11.2 7.034a9.8 9.8 0 0 0 8.657-5.838 8.442 8.442 0 0 0-1.9-9.3 3.388 3.388 0 0 1-.587 2.545 3.763 3.763 0 0 1-4.6 1.24 3.057 3.057 0 0 1-2-3.356 3.574 3.574 0 0 1 2.21-2.748c2.093-.906 4.02-.446 5.908 1.351 3.08 3.448 3.442 8.673 4.909 12.639 1.038 3.264 2.682 6.1 6.279 6.915a5.88 5.88 0 0 0 1.341.145 5.785 5.785 0 0 0 1.339-.145c3.6-.812 5.243-3.651 6.281-6.915 1.466-3.966 1.828-9.191 4.919-12.639 1.878-1.8 3.805-2.257 5.9-1.351a3.571 3.571 0 0 1 2.21 2.748 3.045 3.045 0 0 1-2.006 3.356 3.768 3.768 0 0 1-4.6-1.24 3.382 3.382 0 0 1-.587-2.545 8.476 8.476 0 0 0-1.9 9.3 9.8 9.8 0 0 0 8.656 5.838c4.774.335 9.3-2.975 11.2-7.034a15.685 15.685 0 0 0 .931-12m-7.268 12.321a7.027 7.027 0 0 1-7.453 1.419 5.064 5.064 0 0 1-2.769-3.2c1.986 1.974 5.565 2.982 8.853-.479 0 0 3.072-2.848 1.33-8.214-.87-2.655-4.118-4.863-6.828-5.137a10.327 10.327 0 0 0-10.474 4.416c-3.11 4.8-3.5 10.14-5.752 15.478a2.222 2.222 0 0 1-3.969 0c-2.249-5.338-2.641-10.681-5.75-15.478A10.322 10.322 0 0 0 14.9 7.637c-2.7.274-5.955 2.482-6.828 5.137-1.74 5.366 1.331 8.214 1.331 8.214 3.287 3.462 6.866 2.453 8.862.479a5.1 5.1 0 0 1-2.779 3.2 7.026 7.026 0 0 1-7.452-1.419A10.342 10.342 0 0 1 5.6 12.165c1.55-4.591 6.194-6.895 9.891-7.185 4.372-.385 10.407 2.3 12.823 6.872.558 1.057 1.741 3.785 1.741 3.785h6.132s1.174-2.728 1.74-3.785C40.332 7.278 46.367 4.6 50.74 4.98c3.7.29 8.342 2.594 9.885 7.185a10.322 10.322 0 0 1-2.433 11.084" style="fill:#a8a9ac"/>
        
        
        
        
        
        
        
        
        
        
    </g>
<script xmlns=""/><link xmlns=""/></svg>