<svg width="40" height="40" viewBox="0 0 40 40" fill="none" xmlns="http://www.w3.org/2000/svg">
<path d="M10.001 39.9998L30.035 39.9726L30.0214 20.1426C25.846 28.0583 18.0255 33.1994 10.001 35.1715C10.0282 36.6676 10.001 39.9998 10.001 39.9998Z" fill="#008FB4"/>
<path d="M16.4072 30.017C23.9693 26.1952 27.6143 19.218 27.6143 19.218C27.6143 19.218 27.5871 16.9194 27.5871 16.8786C23.4253 15.4097 19.6442 13.2608 16.4208 10.051C16.4344 15.4914 16.4072 30.017 16.4072 30.017ZM17.4817 0C17.4817 0 17.4817 6.06596 17.4681 7.57566C19.4675 9.42537 20.4603 10.2822 22.5276 11.6015L22.5412 3.46821C20.1883 2.17613 19.277 1.49609 17.4817 0Z" fill="#008FB4"/>
</svg>
