<svg xmlns="http://www.w3.org/2000/svg" xmlns:xlink="http://www.w3.org/1999/xlink" version="1.1" id="Layer_1" x="0px" y="0px" width="60" height="60" viewBox="-10 0 60 60" enable-background="new 0 0 282.914 60.517" xml:space="preserve">
<g id="LOGOLAR">
	<path fill="#E52629" d="M13.248,27.991c0.349-0.409,5.798-6.889,4.138-13.257c-0.388-1.907-1.43-3.617-2.946-4.836   C14.15,9.6,2.69,0.854,2.69,0.854C1.43-0.099,0.408,0.097,0.408,1.289v8.574c0.206,1.551,1.029,2.954,2.282,3.891l5.959,4.572   c6.327,4.871,3.84,8.762,3.61,9.084c-0.672,0.674-1.486,1.186-2.384,1.499l-8.94-6.572c-0.426-0.316-0.715-0.077-0.647,0.536v1.405   c0.091,0.747,0.501,1.417,1.124,1.839l5.483,4.036c-0.889,0.545-1.687,1.226-2.367,2.017c-0.366,0.418-5.807,6.898-4.146,13.258   c0.466,2.163,1.584,4.129,3.201,5.637c0.324,0.289,0.665,0.589,1.056,0.853L4.92,52.13l10.218,6.957   c1.251,0.952,2.282,0.757,2.282-0.426v-8.414c-0.21-1.544-1.032-2.94-2.282-3.873l-6.003-4.589   c-6.369-4.896-3.797-8.796-3.609-9.077c0.775-0.743,1.714-1.295,2.741-1.61l8.072,5.959c0.426,0.316,0.715,0.077,0.638-0.534   l-0.179-1.566c-0.157-0.78-0.604-1.471-1.251-1.935l-4.385-3.218C11.94,29.302,12.643,28.692,13.248,27.991z"/>
	<path fill="#E52629" d="M34.151,28.323c1.318-1.321,2.107-3.077,2.223-4.938c0.068-0.435,0.4-21.287,0.4-21.287   c0-1.558-0.732-2.23-1.703-1.499l-6.318,5.032c-1.214,1.099-1.956,2.624-2.069,4.257l0.128,13.486   c-0.188,6.089-2.631,8.354-4.079,8.796h-0.119V10.843c0-0.537-0.298-0.631-0.809-0.188l-1.141,0.852   c-0.451,0.451-0.808,0.638-0.808,1.481v47.034c0,0.527,0.289,0.623,0.808,0.187l1.141-0.809c0.443-0.45,0.809-0.629,0.809-1.481   V33.475l0,0c1.456,0.442,3.704,1.516,3.917,7.604v1.899l-0.205,10.778c0,1.557,0.647,2.222,1.626,1.498l6.438-4.923   c1.222-0.989,1.991-2.433,2.128-4l0.051-2.666c0-0.731-0.043-1.183-0.051-1.251c-0.315-2.485-0.962-4.079-2.103-5.245   c-1.958-2.358-5.228-3.703-7.808-4.325C29.538,32.175,32.18,30.591,34.151,28.323z"/>
	
	
	
	
	
	
	
	
	
	
	
	
	
	
	
</g>
<script xmlns=""/><link xmlns=""/></svg>