<svg xmlns="http://www.w3.org/2000/svg" xmlns:xlink="http://www.w3.org/1999/xlink" version="1.1" width="92px" height="92px" style="shape-rendering:geometricPrecision; text-rendering:geometricPrecision; image-rendering:optimizeQuality; fill-rule:evenodd; clip-rule:evenodd" viewBox="0 0 45 95">
<g><path style="opacity:0.779" fill="#e1251c" d="M 10.5,-0.5 C 11.5,-0.5 12.5,-0.5 13.5,-0.5C 15.498,1.59981 17.6647,3.59981 20,5.5C 18.5801,11.0644 18.0801,16.7311 18.5,22.5C 11.4496,19.9241 9.78296,15.4241 13.5,9C 10.8144,6.48777 9.81443,3.32111 10.5,-0.5 Z"/></g>
<g><path style="opacity:0.809" fill="#e1251c" d="M 30.5,-0.5 C 31.5,-0.5 32.5,-0.5 33.5,-0.5C 33.8076,1.92397 33.4742,4.25731 32.5,6.5C 29.4402,8.01882 27.9402,10.3522 28,13.5C 29.2635,11.393 31.0968,10.393 33.5,10.5C 33.3707,16.6579 30.3707,20.9912 24.5,23.5C 23.3364,17.5276 23.1697,11.5276 24,5.5C 26.0627,3.26589 28.2294,1.26589 30.5,-0.5 Z"/></g>
<g><path style="opacity:0.898" fill="#e1251d" d="M -0.5,11.5 C 7.0116,15.8308 13.8449,21.1642 20,27.5C 20.8192,33.6812 20.6525,39.6812 19.5,45.5C 18.7777,44.4489 17.7777,43.7822 16.5,43.5C 10.858,38.8632 5.19137,34.1966 -0.5,29.5C -0.5,23.5 -0.5,17.5 -0.5,11.5 Z"/></g>
<g><path style="opacity:0.917" fill="#e1251d" d="M 27.5,91.5 C 26.1667,91.5 24.8333,91.5 23.5,91.5C 23.2114,85.4093 23.5447,79.4093 24.5,73.5C 26.7488,72.9202 28.4154,71.5869 29.5,69.5C 34.6041,66.7329 38.2708,62.7329 40.5,57.5C 40.3333,56.5 40.1667,55.5 40,54.5C 36.6235,57.3826 33.1235,60.0493 29.5,62.5C 27.8333,63.8333 26.1667,65.1667 24.5,66.5C 23.1979,61.2663 23.1979,55.9329 24.5,50.5C 26.7488,49.9202 28.4154,48.5869 29.5,46.5C 34.1745,43.8255 37.8412,40.1588 40.5,35.5C 40.2668,34.0683 39.6001,33.5683 38.5,34C 35.3347,36.3347 32.3347,38.8347 29.5,41.5C 27.5887,42.075 25.922,43.075 24.5,44.5C 23.3483,39.0154 23.1816,33.3487 24,27.5C 30.185,21.1261 37.0183,15.7928 44.5,11.5C 44.6666,33.1692 44.5,54.8359 44,76.5C 38.3045,81.3658 32.8045,86.3658 27.5,91.5 Z"/></g>











<g><path style="opacity:0.899" fill="#e1251d" d="M -0.5,36.5 C 0.551975,36.3505 1.55198,36.5172 2.5,37C 6.0426,40.0486 9.70926,42.8819 13.5,45.5C 13.894,47.7099 15.2273,49.0432 17.5,49.5C 18.4584,49.9528 19.2917,50.6195 20,51.5C 20.9391,56.681 20.6058,61.681 19,66.5C 15.2271,63.3707 11.3938,60.3707 7.5,57.5C 7.30592,55.0882 5.97259,54.0882 3.5,54.5C 2.5,52.8333 1.16667,51.5 -0.5,50.5C -0.5,45.8333 -0.5,41.1667 -0.5,36.5 Z"/></g>
<g><path style="opacity:0.664" fill="#ab3339" d="M 29.5,41.5 C 29.5,43.1667 29.5,44.8333 29.5,46.5C 28.4154,48.5869 26.7488,49.9202 24.5,50.5C 24.5,48.5 24.5,46.5 24.5,44.5C 25.922,43.075 27.5887,42.075 29.5,41.5 Z"/></g>
<g><path style="opacity:0.756" fill="#ae3337" d="M 16.5,43.5 C 17.7777,43.7822 18.7777,44.4489 19.5,45.5C 19.2671,47.0618 18.6005,48.3951 17.5,49.5C 15.2273,49.0432 13.894,47.7099 13.5,45.5C 14.5,44.8333 15.5,44.1667 16.5,43.5 Z"/></g>
<g><path style="opacity:0.741" fill="#ad3338" d="M 3.5,54.5 C 5.97259,54.0882 7.30592,55.0882 7.5,57.5C 6.12835,58.5116 4.79502,59.5116 3.5,60.5C 1.5,60.5 0.5,59.5 0.5,57.5C 1.16667,56.1667 2.16667,55.1667 3.5,54.5 Z"/></g>
<g><path style="opacity:0.906" fill="#e1251c" d="M -0.5,57.5 C -0.166667,57.5 0.166667,57.5 0.5,57.5C 0.5,59.5 1.5,60.5 3.5,60.5C 8.83592,65.2672 14.3359,69.9339 20,74.5C 20.4994,80.1569 20.6661,85.8236 20.5,91.5C 19.1667,91.5 17.8333,91.5 16.5,91.5C 11.1557,86.1569 5.48899,81.1569 -0.5,76.5C -0.5,70.1667 -0.5,63.8333 -0.5,57.5 Z"/></g>
<g><path style="opacity:0.684" fill="#aa3339" d="M 29.5,62.5 C 29.5,64.8333 29.5,67.1667 29.5,69.5C 28.4154,71.5869 26.7488,72.9202 24.5,73.5C 24.5,71.1667 24.5,68.8333 24.5,66.5C 26.1667,65.1667 27.8333,63.8333 29.5,62.5 Z"/></g>
<g><path style="opacity:0.004" fill="#1c1d1a" d="M 368.5,68.5 C 369.833,69.1667 369.833,69.1667 368.5,68.5 Z"/></g>
</svg>