<svg width="27" height="28" viewBox="0 0 27 28" fill="none" xmlns="http://www.w3.org/2000/svg">
<path d="M20.2493 7.25126C20.0384 7.04036 19.7523 6.92188 19.4539 6.92188C19.1557 6.92188 18.8695 7.04036 18.6585 7.25126L13.4993 12.4105L8.34006 7.25126C8.12909 7.04036 7.84299 6.92188 7.54469 6.92188C7.24637 6.92188 6.96028 7.04036 6.74931 7.25126C6.53841 7.46224 6.41992 7.74832 6.41992 8.04664C6.41992 8.34494 6.53841 8.63104 6.74931 8.84201L11.9085 14.0012L6.74931 19.1605C6.53841 19.3714 6.41992 19.6576 6.41992 19.9559C6.41992 20.2542 6.53841 20.5403 6.74931 20.7512C6.96028 20.9622 7.24637 21.0806 7.54469 21.0806C7.84299 21.0806 8.12909 20.9622 8.34006 20.7512L13.4993 15.592L18.6585 20.7512C18.8695 20.9622 19.1557 21.0806 19.4539 21.0806C19.7523 21.0806 20.0384 20.9622 20.2493 20.7512C20.4602 20.5403 20.5787 20.2542 20.5787 19.9559C20.5787 19.6576 20.4602 19.3714 20.2493 19.1605L15.09 14.0012L20.2493 8.84201C20.4602 8.63104 20.5787 8.34494 20.5787 8.04664C20.5787 7.74832 20.4602 7.46224 20.2493 7.25126Z" fill="#EA4444"/>
</svg>
