<svg width="28" height="28" viewBox="0 0 28 28" fill="none" xmlns="http://www.w3.org/2000/svg">
<path d="M14.0007 25.681C20.444 25.681 25.6673 20.4576 25.6673 14.0143C25.6673 7.571 20.444 2.34766 14.0007 2.34766C7.55733 2.34766 2.33398 7.571 2.33398 14.0143C2.33398 20.4576 7.55733 25.681 14.0007 25.681Z" fill="#37A8F3"/>
<path d="M10.5935 19.4444V18.0833H9.91298C9.72016 18.0833 9.55864 18.018 9.42842 17.8873C9.29821 17.7567 9.23288 17.5951 9.23242 17.4028C9.23197 17.2104 9.2973 17.0489 9.42842 16.9182C9.55954 16.7876 9.72106 16.7222 9.91298 16.7222H10.5935V15.3611H9.91298C9.72016 15.3611 9.55864 15.2958 9.42842 15.1651C9.29821 15.0344 9.23288 14.8729 9.23242 14.6806C9.23197 14.4882 9.2973 14.3267 9.42842 14.196C9.55954 14.0653 9.72106 14 9.91298 14H10.5935V8.55556C10.5935 8.36273 10.6589 8.20121 10.7895 8.071C10.9202 7.94079 11.0817 7.87545 11.2741 7.875H15.0171C16.0607 7.875 16.9454 8.23796 17.6713 8.96389C18.3972 9.68982 18.7602 10.5745 18.7602 11.6181C18.7602 12.6616 18.3972 13.5463 17.6713 14.2722C16.9454 14.9981 16.0607 15.3611 15.0171 15.3611H11.9546V16.7222H13.9963C14.1891 16.7222 14.3509 16.7876 14.4816 16.9182C14.6122 17.0489 14.6773 17.2104 14.6769 17.4028C14.6764 17.5951 14.6111 17.7569 14.4809 17.888C14.3507 18.0191 14.1891 18.0842 13.9963 18.0833H11.9546V19.4444C11.9546 19.6373 11.8893 19.799 11.7586 19.9297C11.628 20.0603 11.4665 20.1255 11.2741 20.125C11.0817 20.1245 10.9202 20.0592 10.7895 19.929C10.6589 19.7988 10.5935 19.6373 10.5935 19.4444ZM11.9546 14H15.0171C15.675 14 16.2365 13.7675 16.7015 13.3024C17.1666 12.8374 17.3991 12.2759 17.3991 11.6181C17.3991 10.9602 17.1666 10.3987 16.7015 9.93368C16.2365 9.46863 15.675 9.23611 15.0171 9.23611H11.9546V14Z" fill="white"/>
</svg>
