<svg width="60" height="57" viewBox="0 0 60 57" fill="none" xmlns="http://www.w3.org/2000/svg">
<path d="M20.6644 34.8672C20.2044 34.8672 19.8944 34.9099 19.7344 34.9527V37.7504C19.9244 37.7932 20.1619 37.8051 20.4894 37.8051C21.6869 37.8051 22.4244 37.2303 22.4244 36.2589C22.4244 35.3897 21.7894 34.8672 20.6644 34.8672ZM29.3819 34.8957C28.8819 34.8957 28.5569 34.9384 28.3644 34.9812V41.1799C28.5569 41.2227 28.8669 41.2227 29.1469 41.2227C31.1894 41.2369 32.5194 40.1682 32.5194 37.9072C32.5344 35.9359 31.3219 34.8957 29.3819 34.8957Z" fill="#37A8F3"/>
<path d="M35 4.74609H15C13.6739 4.74609 12.4021 5.24654 11.4645 6.13734C10.5268 7.02813 10 8.23632 10 9.49609V47.4961C10 48.7559 10.5268 49.9641 11.4645 50.8549C12.4021 51.7457 13.6739 52.2461 15 52.2461H45C46.3261 52.2461 47.5979 51.7457 48.5355 50.8549C49.4732 49.9641 50 48.7559 50 47.4961V18.9961L35 4.74609ZM23.745 38.4473C22.9725 39.1361 21.8325 39.4448 20.505 39.4448C20.2476 39.4475 19.9903 39.4332 19.735 39.4021V42.7888H17.5V33.4408C18.5086 33.2979 19.5278 33.2328 20.5475 33.2461C21.94 33.2461 22.93 33.4978 23.5975 34.0037C24.2325 34.4835 24.6625 35.2696 24.6625 36.1958C24.66 37.1268 24.335 37.913 23.745 38.4473ZM33.2625 41.6655C32.2125 42.4943 30.615 42.8886 28.6625 42.8886C27.4925 42.8886 26.665 42.8173 26.1025 42.7461V33.4432C27.1115 33.3033 28.1303 33.2374 29.15 33.2461C31.0425 33.2461 32.2725 33.5691 33.2325 34.2578C34.27 34.9893 34.92 36.1555 34.92 37.8298C34.92 39.642 34.2225 40.8936 33.2625 41.6655ZM42.5 35.0748H38.67V37.2385H42.25V38.9817H38.67V42.7912H36.405V33.3173H42.5V35.0748ZM35 21.3711H32.5V9.49609L45 21.3711H35Z" fill="#37A8F3"/>
</svg>
