<svg width="127" height="126" viewBox="0 0 127 126" fill="none" xmlns="http://www.w3.org/2000/svg">
<path d="M98.2529 110.055C85.8909 119.187 70.4319 123.086 55.2178 120.911C40.0037 118.736 26.2568 110.66 16.9487 98.43C7.64069 86.1998 3.51944 70.7975 5.47593 55.5528C7.43242 40.3082 15.3095 26.4459 27.4041 16.9628C39.4988 7.47968 54.8394 3.13754 70.1097 4.87499C85.38 6.61244 99.3532 14.2899 109.009 26.2478C118.664 38.2056 123.226 53.4832 121.708 68.7778C120.19 84.0724 112.714 98.1551 100.897 107.982" stroke="#E7F5FE" stroke-width="9" stroke-linecap="round"/>
<path d="M100.903 107.982C93.5058 114.132 84.7063 118.364 75.2835 120.301C65.8608 122.239 56.1057 121.822 46.8823 119.089C37.6589 116.356 29.2519 111.39 22.4061 104.631C15.5602 97.8721 10.4867 89.5292 7.63505 80.3412C4.78341 71.1532 4.24162 61.4037 6.05769 51.9562C7.87376 42.5088 11.9916 33.6551 18.0465 26.1794C24.1014 18.7036 31.9064 12.8366 40.7701 9.09805C49.6339 5.35945 59.2828 3.86464 68.8622 4.74603" stroke="#37A8F3" stroke-width="9" stroke-linecap="round"/>
</svg>
