<svg width="105" height="21" viewBox="0 0 105 21" fill="none" xmlns="http://www.w3.org/2000/svg">
<path d="M0.078125 16V-4.76837e-07H6.07813C7.30729 -4.76837e-07 8.33854 0.229166 9.17188 0.6875C10.0104 1.14583 10.6432 1.77604 11.0703 2.57812C11.5026 3.375 11.7188 4.28125 11.7188 5.29687C11.7188 6.32292 11.5026 7.23437 11.0703 8.03125C10.638 8.82812 10 9.45573 9.15625 9.91406C8.3125 10.3672 7.27344 10.5937 6.03906 10.5937H2.0625V8.21094H5.64844C6.36719 8.21094 6.95573 8.08594 7.41406 7.83594C7.8724 7.58594 8.21094 7.24219 8.42969 6.80469C8.65365 6.36719 8.76563 5.86458 8.76563 5.29687C8.76563 4.72917 8.65365 4.22917 8.42969 3.79688C8.21094 3.36458 7.86979 3.02865 7.40625 2.78906C6.94792 2.54427 6.35677 2.42188 5.63281 2.42188H2.97656V16H0.078125ZM17.3496 16.2422C16.5892 16.2422 15.9043 16.1068 15.2949 15.8359C14.6908 15.5599 14.2116 15.1536 13.8574 14.6172C13.5085 14.0807 13.334 13.4193 13.334 12.6328C13.334 11.9557 13.459 11.3958 13.709 10.9531C13.959 10.5104 14.3001 10.1562 14.7324 9.89062C15.1647 9.625 15.6517 9.42448 16.1934 9.28906C16.7402 9.14844 17.3053 9.04687 17.8887 8.98437C18.5918 8.91146 19.1621 8.84635 19.5996 8.78906C20.0371 8.72656 20.3548 8.63281 20.5527 8.50781C20.7559 8.3776 20.8574 8.17708 20.8574 7.90625V7.85938C20.8574 7.27083 20.6829 6.8151 20.334 6.49219C19.985 6.16927 19.4824 6.00781 18.8262 6.00781C18.1335 6.00781 17.584 6.15885 17.1777 6.46094C16.7767 6.76302 16.5059 7.11979 16.3652 7.53125L13.7246 7.15625C13.9329 6.42708 14.2767 5.81771 14.7559 5.32812C15.235 4.83333 15.821 4.46354 16.5137 4.21875C17.2064 3.96875 17.972 3.84375 18.8105 3.84375C19.3887 3.84375 19.9642 3.91146 20.5371 4.04687C21.11 4.18229 21.6335 4.40625 22.1074 4.71875C22.5814 5.02604 22.9616 5.44531 23.248 5.97656C23.5397 6.50781 23.6855 7.17187 23.6855 7.96875V16H20.9668V14.3516H20.873C20.7012 14.6849 20.459 14.9974 20.1465 15.2891C19.8392 15.5755 19.4512 15.8073 18.9824 15.9844C18.5189 16.1563 17.9746 16.2422 17.3496 16.2422ZM18.084 14.1641C18.6517 14.1641 19.1439 14.0521 19.5605 13.8281C19.9772 13.599 20.2975 13.2969 20.5215 12.9219C20.7507 12.5469 20.8652 12.138 20.8652 11.6953V10.2812C20.7767 10.3542 20.6257 10.4219 20.4121 10.4844C20.2038 10.5469 19.9694 10.6016 19.709 10.6484C19.4486 10.6953 19.1908 10.737 18.9355 10.7734C18.6803 10.8099 18.459 10.8411 18.2715 10.8672C17.8496 10.9245 17.472 11.0182 17.1387 11.1484C16.8053 11.2786 16.5423 11.4609 16.3496 11.6953C16.1569 11.9245 16.0605 12.2214 16.0605 12.5859C16.0605 13.1068 16.2507 13.5 16.6309 13.7656C17.0111 14.0312 17.4954 14.1641 18.084 14.1641ZM27.8574 20.5C27.472 20.5 27.1152 20.4688 26.7871 20.4063C26.4642 20.349 26.2064 20.2813 26.0137 20.2031L26.6699 18C27.0814 18.1198 27.4486 18.1771 27.7715 18.1719C28.0944 18.1667 28.3783 18.0651 28.623 17.8672C28.873 17.6745 29.084 17.3516 29.2559 16.8984L29.498 16.25L25.1465 4H28.1465L30.9121 13.0625H31.0371L33.8105 4H36.8184L32.0137 17.4531C31.7897 18.0885 31.4928 18.6328 31.123 19.0859C30.7533 19.5443 30.3001 19.8932 29.7637 20.1328C29.2324 20.3776 28.597 20.5 27.8574 20.5ZM41.8828 -4.76837e-07V1.59375C41.8828 2.05208 41.7943 2.52865 41.6172 3.02344C41.4453 3.51302 41.2083 3.98177 40.9063 4.42969C40.6042 4.8724 40.2604 5.2526 39.875 5.57031L38.5625 4.71875C38.849 4.28646 39.099 3.82031 39.3125 3.32031C39.526 2.8151 39.6328 2.24479 39.6328 1.60938V-4.76837e-07H41.8828ZM46.5449 8.96875V16H43.7168V4H46.4199V6.03906H46.5605C46.8366 5.36719 47.2767 4.83333 47.8809 4.4375C48.4902 4.04167 49.2428 3.84375 50.1387 3.84375C50.9668 3.84375 51.6882 4.02083 52.3027 4.375C52.9225 4.72917 53.4017 5.24219 53.7402 5.91406C54.084 6.58594 54.2533 7.40104 54.248 8.35937V16H51.4199V8.79687C51.4199 7.99479 51.2116 7.36719 50.7949 6.91406C50.3835 6.46094 49.8132 6.23437 49.084 6.23437C48.5892 6.23437 48.1491 6.34375 47.7637 6.5625C47.3835 6.77604 47.084 7.08594 46.8652 7.49219C46.6517 7.89844 46.5449 8.39062 46.5449 8.96875ZM59.5215 -4.76837e-07V1.59375C59.5215 2.05208 59.4329 2.52865 59.2559 3.02344C59.084 3.51302 58.847 3.98177 58.5449 4.42969C58.2428 4.8724 57.8991 5.2526 57.5137 5.57031L56.2012 4.71875C56.4876 4.28646 56.7376 3.82031 56.9512 3.32031C57.1647 2.8151 57.2715 2.24479 57.2715 1.60938V-4.76837e-07H59.5215Z" fill="#031E30"/>
<path d="M61.9531 16V-4.76837e-07H67.9531C69.1823 -4.76837e-07 70.2135 0.229166 71.0469 0.6875C71.8854 1.14583 72.5182 1.77604 72.9453 2.57812C73.3776 3.375 73.5938 4.28125 73.5938 5.29687C73.5938 6.32292 73.3776 7.23437 72.9453 8.03125C72.513 8.82812 71.875 9.45573 71.0312 9.91406C70.1875 10.3672 69.1484 10.5937 67.9141 10.5937H63.9375V8.21094H67.5234C68.2422 8.21094 68.8307 8.08594 69.2891 7.83594C69.7474 7.58594 70.0859 7.24219 70.3047 6.80469C70.5286 6.36719 70.6406 5.86458 70.6406 5.29687C70.6406 4.72917 70.5286 4.22917 70.3047 3.79688C70.0859 3.36458 69.7448 3.02865 69.2813 2.78906C68.8229 2.54427 68.2318 2.42188 67.5078 2.42188H64.8516V16H61.9531ZM78.8145 -4.76837e-07V16H75.9863V-4.76837e-07H78.8145ZM85.1758 16.2422C84.4154 16.2422 83.7305 16.1068 83.1211 15.8359C82.5169 15.5599 82.0378 15.1536 81.6836 14.6172C81.3346 14.0807 81.1602 13.4193 81.1602 12.6328C81.1602 11.9557 81.2852 11.3958 81.5352 10.9531C81.7852 10.5104 82.1263 10.1562 82.5586 9.89062C82.9909 9.625 83.4779 9.42448 84.0195 9.28906C84.5664 9.14844 85.1315 9.04687 85.7148 8.98437C86.418 8.91146 86.9883 8.84635 87.4258 8.78906C87.8633 8.72656 88.181 8.63281 88.3789 8.50781C88.582 8.3776 88.6836 8.17708 88.6836 7.90625V7.85938C88.6836 7.27083 88.5091 6.8151 88.1602 6.49219C87.8112 6.16927 87.3086 6.00781 86.6523 6.00781C85.9596 6.00781 85.4102 6.15885 85.0039 6.46094C84.6029 6.76302 84.332 7.11979 84.1914 7.53125L81.5508 7.15625C81.7591 6.42708 82.1029 5.81771 82.582 5.32812C83.0612 4.83333 83.6471 4.46354 84.3398 4.21875C85.0326 3.96875 85.7982 3.84375 86.6367 3.84375C87.2148 3.84375 87.7904 3.91146 88.3633 4.04687C88.9362 4.18229 89.4596 4.40625 89.9336 4.71875C90.4076 5.02604 90.7878 5.44531 91.0742 5.97656C91.3659 6.50781 91.5117 7.17187 91.5117 7.96875V16H88.793V14.3516H88.6992C88.5273 14.6849 88.2852 14.9974 87.9727 15.2891C87.6654 15.5755 87.2773 15.8073 86.8086 15.9844C86.3451 16.1563 85.8008 16.2422 85.1758 16.2422ZM85.9102 14.1641C86.4779 14.1641 86.9701 14.0521 87.3867 13.8281C87.8034 13.599 88.1237 13.2969 88.3477 12.9219C88.5768 12.5469 88.6914 12.138 88.6914 11.6953V10.2812C88.6029 10.3542 88.4518 10.4219 88.2383 10.4844C88.0299 10.5469 87.7956 10.6016 87.5352 10.6484C87.2747 10.6953 87.0169 10.737 86.7617 10.7734C86.5065 10.8099 86.2852 10.8411 86.0977 10.8672C85.6758 10.9245 85.2982 11.0182 84.9648 11.1484C84.6315 11.2786 84.3685 11.4609 84.1758 11.6953C83.9831 11.9245 83.8867 12.2214 83.8867 12.5859C83.8867 13.1068 84.0768 13.5 84.457 13.7656C84.8372 14.0312 85.3216 14.1641 85.9102 14.1641ZM95.6836 20.5C95.2982 20.5 94.9414 20.4688 94.6133 20.4063C94.2904 20.349 94.0326 20.2813 93.8398 20.2031L94.4961 18C94.9076 18.1198 95.2747 18.1771 95.5977 18.1719C95.9206 18.1667 96.2044 18.0651 96.4492 17.8672C96.6992 17.6745 96.9102 17.3516 97.082 16.8984L97.3242 16.25L92.9727 4H95.9727L98.7383 13.0625H98.8633L101.637 4H104.645L99.8398 17.4531C99.6159 18.0885 99.319 18.6328 98.9492 19.0859C98.5794 19.5443 98.1263 19.8932 97.5898 20.1328C97.0586 20.3776 96.4232 20.5 95.6836 20.5Z" fill="#37A8F3"/>
</svg>
