<svg width="27" height="27" viewBox="0 0 27 27" fill="none" xmlns="http://www.w3.org/2000/svg">
<g clip-path="url(#clip0_1216_5149)">
<path d="M2.45508 5.875L5.73846 11.7194V15.2843L2.45892 21.1172L2.45508 5.875Z" fill="#5B57A2"/>
<path d="M15.0615 9.59073L18.1382 7.71288L24.4347 7.70703L15.0615 13.4252V9.59073Z" fill="#D90751"/>
<path d="M15.0452 5.83867L15.0625 13.5764L11.7715 11.5627V-0.00390625L15.0452 5.83867Z" fill="#FAB718"/>
<path d="M24.4357 7.70707L18.139 7.71292L15.0451 5.83867L11.7715 -0.00390625L24.4357 7.70707Z" fill="#ED6F26"/>
<path d="M15.0625 21.1476V17.3935L11.7715 15.418L11.7733 26.996L15.0625 21.1476Z" fill="#63B22F"/>
<path d="M18.1309 19.2888L5.73823 11.7194L2.45508 5.875L24.4218 19.2812L18.1309 19.2888Z" fill="#1487C9"/>
<path d="M11.7725 26.9981L15.0613 21.1497L18.1302 19.2889L24.4211 19.2812L11.7725 26.9981Z" fill="#017F36"/>
<path d="M2.45898 21.1154L11.7978 15.4184L8.65814 13.5L5.73852 15.2825L2.45898 21.1154Z" fill="#984995"/>
</g>
<defs>
<clipPath id="clip0_1216_5149">
<rect width="27" height="27" fill="white"/>
</clipPath>
</defs>
</svg>
