<svg width="70" height="68" viewBox="0 0 70 68" fill="none" xmlns="http://www.w3.org/2000/svg">
<path d="M31.3787 2.71855C32.8182 -0.3495 37.1818 -0.349494 38.6213 2.71856L46.0366 18.5241C46.6196 19.7668 47.7991 20.6237 49.1611 20.7942L66.4846 22.9624C69.8473 23.3833 71.1957 27.5334 68.7226 29.8505L55.9821 41.7871C54.9804 42.7256 54.5299 44.1121 54.7887 45.4601L58.0798 62.6058C58.7186 65.9339 55.1883 68.4988 52.2205 66.8628L36.931 58.4345C35.729 57.7718 34.271 57.7718 33.069 58.4345L17.7795 66.8628C14.8117 68.4988 11.2814 65.9339 11.9202 62.6057L15.2113 45.4601C15.4701 44.1121 15.0196 42.7256 14.0179 41.7871L1.27738 29.8505C-1.19571 27.5334 0.152748 23.3833 3.51544 22.9624L20.8389 20.7942C22.2009 20.6237 23.3804 19.7668 23.9634 18.5241L31.3787 2.71855Z" fill="#37A8F3"/>
</svg>
