<svg width="26" height="26" viewBox="0 0 26 26" fill="none" xmlns="http://www.w3.org/2000/svg">
<path d="M11.1478 4.1836L1.97199 19.5019C1.78281 19.8296 1.68271 20.201 1.68165 20.5793C1.68059 20.9576 1.77861 21.3297 1.96596 21.6583C2.1533 21.987 2.42345 22.2609 2.74951 22.4528C3.07558 22.6446 3.44619 22.7478 3.82449 22.7519H22.1762C22.5545 22.7478 22.9251 22.6446 23.2511 22.4528C23.5772 22.2609 23.8474 21.987 24.0347 21.6583C24.222 21.3297 24.3201 20.9576 24.319 20.5793C24.3179 20.201 24.2178 19.8296 24.0287 19.5019L14.8528 4.1836C14.6597 3.86521 14.3878 3.60198 14.0633 3.41929C13.7388 3.2366 13.3727 3.14062 13.0003 3.14062C12.6279 3.14063 12.2619 3.2366 11.9374 3.41929C11.6129 3.60198 11.341 3.86521 11.1478 4.1836Z" fill="#FF0000"/>
<path d="M13 9.75V14.0833" stroke="white" stroke-width="1.44312" stroke-linecap="round" stroke-linejoin="round"/>
<path d="M13 18.418H13.0099" stroke="white" stroke-width="1.44312" stroke-linecap="round" stroke-linejoin="round"/>
</svg>
