<svg width="186" height="163" viewBox="0 0 186 163" fill="none" xmlns="http://www.w3.org/2000/svg">
<path d="M79.5507 14.1569L12.9285 132.353C11.5549 134.881 10.8281 137.747 10.8204 140.666C10.8127 143.585 11.5244 146.455 12.8846 148.992C14.2449 151.528 16.2063 153.641 18.5737 155.121C20.9411 156.602 23.6321 157.398 26.3788 157.43H159.623C162.37 157.398 165.061 156.602 167.428 155.121C169.796 153.641 171.757 151.528 173.117 148.992C174.478 146.455 175.189 143.585 175.182 140.666C175.174 137.747 174.447 134.881 173.074 132.353L106.451 14.1569C105.049 11.7003 103.075 9.66916 100.719 8.25953C98.3628 6.84991 95.7047 6.10938 93.001 6.10938C90.2973 6.10938 87.6392 6.84991 85.2832 8.25953C82.9273 9.66916 80.9529 11.7003 79.5507 14.1569Z" stroke="#FF0000" stroke-width="8" stroke-linecap="round" stroke-linejoin="round"/>
<path d="M93 56.4382V100.999M93 100.999L97.5 56.4375H88.5L93 100.999Z" stroke="#FF0000" stroke-width="8" stroke-linecap="round" stroke-linejoin="round"/>
<path d="M93 123.992H93.0787" stroke="#FF0000" stroke-width="8" stroke-linecap="round" stroke-linejoin="round"/>
</svg>
