<svg width="27" height="27" viewBox="0 0 27 27" fill="none" xmlns="http://www.w3.org/2000/svg">
<circle cx="13.5" cy="13.5" r="13.5" fill="url(#paint0_linear_775_7637)" fill-opacity="0.2"/>
<circle cx="13.5" cy="13.5" r="12.7784" stroke="#57CD8C" stroke-opacity="0.1" stroke-width="1.44312"/>
<path d="M18.8611 17.468H17.8486V14.0136C17.8486 13.6562 17.6104 13.418 17.253 13.418C16.8957 13.418 16.6574 13.6562 16.6574 14.0136V17.468H15.3471V14.0136C15.3471 13.6562 15.1089 13.418 14.7515 13.418C14.3942 13.418 14.156 13.6562 14.156 14.0136V17.468H12.8457V14.0136C12.8457 13.6562 12.6074 13.418 12.2501 13.418C11.8927 13.418 11.6545 13.6562 11.6545 14.0136V17.468H10.3442V14.0136C10.3442 13.6562 10.106 13.418 9.7486 13.418C9.39125 13.418 9.15301 13.6562 9.15301 14.0136V17.468H8.14051C7.78316 17.468 7.54492 17.7062 7.54492 18.0636C7.54492 18.4209 7.78316 18.6591 8.14051 18.6591H18.8611C19.2184 18.6591 19.4567 18.4209 19.4567 18.0636C19.4567 17.7062 19.2184 17.468 18.8611 17.468Z" fill="#57CD8C"/>
<path d="M18.8611 9.13015L14.3942 6.92647C13.7986 6.62868 13.1435 6.62868 12.6074 6.92647L8.14051 9.13015C7.78316 9.30882 7.54492 9.72574 7.54492 10.0831V11.4529C7.54492 12.0485 8.02139 12.525 8.61698 12.525H18.3846C18.9802 12.525 19.4567 12.0485 19.4567 11.4529V10.0831C19.4567 9.66618 19.2184 9.30882 18.8611 9.13015ZM18.2655 11.3338H8.7361V10.1426L13.1435 7.99853C13.3817 7.87941 13.6795 7.87941 13.9177 7.99853L18.2655 10.2022V11.3338Z" fill="#57CD8C"/>
<defs>
<linearGradient id="paint0_linear_775_7637" x1="-1.15743e-07" y1="1.92857" x2="27.1223" y2="3.93599" gradientUnits="userSpaceOnUse">
<stop offset="0.0105058" stop-color="#57CD8C"/>
<stop offset="1" stop-color="#2F9D60"/>
</linearGradient>
</defs>
</svg>
