<?xml version="1.0" encoding="utf-8"?>
<!-- Generator: Adobe Illustrator 25.0.0, SVG Export Plug-In . SVG Version: 6.00 Build 0)  -->
<svg version="1.1" id="Слой_1" xmlns="http://www.w3.org/2000/svg" xmlns:xlink="http://www.w3.org/1999/xlink" x="0px" y="0px"
	 viewBox="0 0 28 28" style="enable-background:new 0 0 28 28;" xml:space="preserve">
<style type="text/css">
	.st0{fill:#37A8F3;}
</style>
<path class="st0" d="M24.5,23.3h-2v-6.8c0-0.7-0.5-1.2-1.2-1.2s-1.2,0.5-1.2,1.2v6.8h-2.6v-6.8c0-0.7-0.5-1.2-1.2-1.2
	c-0.7,0-1.2,0.5-1.2,1.2v6.8h-2.6v-6.8c0-0.7-0.5-1.2-1.2-1.2s-1.2,0.5-1.2,1.2v6.8H7.8v-6.8c0-0.7-0.5-1.2-1.2-1.2
	s-1.2,0.5-1.2,1.2v6.8h-2c-0.7,0-1.2,0.5-1.2,1.2c0,0.7,0.5,1.2,1.2,1.2h21c0.7,0,1.2-0.5,1.2-1.2C25.7,23.8,25.2,23.3,24.5,23.3z"
	/>
<path class="st0" d="M24.5,7l-8.8-4.3c-1.2-0.6-2.4-0.6-3.5,0L3.5,7C2.8,7.3,2.3,8.2,2.3,8.9v2.7c0,1.2,0.9,2.1,2.1,2.1h19.1
	c1.2,0,2.1-0.9,2.1-2.1V8.9C25.7,8,25.2,7.3,24.5,7z"/>
</svg>
