<svg width="28" height="28" viewBox="0 0 28 28" fill="none" xmlns="http://www.w3.org/2000/svg">
<path d="M17.7573 7.63281H6.74398C6.41732 7.63281 6.11398 7.64448 5.83398 7.65615C3.06898 7.81948 2.33398 8.83448 2.33398 11.9845V12.6611C2.33398 13.3028 2.85898 13.8278 3.50065 13.8278H21.0007C21.6423 13.8278 22.1673 13.3028 22.1673 12.6611V11.9845C22.1673 8.50781 21.2807 7.63281 17.7573 7.63281Z" fill="#37A8F3"/>
<path d="M3.50065 15.5781C2.85898 15.5781 2.33398 16.1031 2.33398 16.7448V20.1398C2.33398 23.6165 3.22065 24.4915 6.74398 24.4915H17.7573C21.2223 24.4915 22.1323 23.6515 22.1673 20.3265V16.7448C22.1673 16.1031 21.6423 15.5781 21.0007 15.5781H3.50065ZM8.12065 21.6448H6.12565C5.64732 21.6448 5.25065 21.2481 5.25065 20.7698C5.25065 20.2915 5.64732 19.8948 6.12565 19.8948H8.13232C8.61065 19.8948 9.00732 20.2915 9.00732 20.7698C9.00732 21.2481 8.61065 21.6448 8.12065 21.6448ZM14.6423 21.6448H10.629C10.1507 21.6448 9.75398 21.2481 9.75398 20.7698C9.75398 20.2915 10.1507 19.8948 10.629 19.8948H14.6423C15.1207 19.8948 15.5173 20.2915 15.5173 20.7698C15.5173 21.2481 15.1323 21.6448 14.6423 21.6448Z" fill="#37A8F3"/>
<path d="M25.6659 15.547V9.43365C25.6659 5.78198 23.5776 4.19531 20.4276 4.19531H10.0092C9.12256 4.19531 8.32923 4.32365 7.62923 4.59198C7.0809 4.79031 6.5909 5.08198 6.19423 5.46698C5.98423 5.66531 6.14756 5.99198 6.4509 5.99198H19.1326C21.7576 5.99198 23.8809 8.11531 23.8809 10.7403V19.1053C23.8809 19.397 24.1959 19.5603 24.4059 19.3503C25.2109 18.4986 25.6659 17.2503 25.6659 15.547Z" fill="#37A8F3"/>
</svg>
