<svg width="24" height="24" viewBox="0 0 24 24" fill="none" xmlns="http://www.w3.org/2000/svg">
<path d="M16.1411 2.96297L7.11109 5.96297C1.04109 7.99297 1.04109 11.303 7.11109 13.323L9.79109 14.213L10.6811 16.893C12.7011 22.963 16.0211 22.963 18.0411 16.893L21.0511 7.87297C22.3911 3.82297 20.1911 1.61297 16.1411 2.96297ZM16.4611 8.34297L12.6611 12.163C12.5111 12.313 12.3211 12.383 12.1311 12.383C11.9411 12.383 11.7511 12.313 11.6011 12.163C11.3111 11.873 11.3111 11.393 11.6011 11.103L15.4011 7.28297C15.6911 6.99297 16.1711 6.99297 16.4611 7.28297C16.7511 7.57297 16.7511 8.05297 16.4611 8.34297Z" fill="#E7F5FE"/>
</svg>
