<svg width="24" height="25" viewBox="0 0 24 25" fill="none" xmlns="http://www.w3.org/2000/svg">
<g opacity="0.3">
<path d="M21.4403 11.5489L12.2503 20.7389C11.1244 21.8648 9.59747 22.4973 8.00529 22.4973C6.41311 22.4973 4.88613 21.8648 3.76029 20.7389C2.63445 19.6131 2.00195 18.0861 2.00195 16.4939C2.00195 14.9018 2.63445 13.3748 3.76029 12.2489L12.9503 3.05894C13.7009 2.30838 14.7188 1.88672 15.7803 1.88672C16.8417 1.88672 17.8597 2.30838 18.6103 3.05894C19.3609 3.80951 19.7825 4.82749 19.7825 5.88894C19.7825 6.9504 19.3609 7.96838 18.6103 8.71894L9.41029 17.9089C9.03501 18.2842 8.52602 18.4951 7.99529 18.4951C7.46456 18.4951 6.95557 18.2842 6.58029 17.9089C6.20501 17.5337 5.99418 17.0247 5.99418 16.4939C5.99418 15.9632 6.20501 15.4542 6.58029 15.0789L15.0703 6.59894" stroke="#010F18" stroke-width="1.5" stroke-linecap="round" stroke-linejoin="round"/>
</g>
</svg>
