<svg width="22" height="23" viewBox="0 0 22 23" fill="none" xmlns="http://www.w3.org/2000/svg">
<path d="M17.125 10.5391H4.875C3.9085 10.5391 3.125 11.3972 3.125 12.4557V19.1641C3.125 20.2226 3.9085 21.0807 4.875 21.0807H17.125C18.0915 21.0807 18.875 20.2226 18.875 19.1641V12.4557C18.875 11.3972 18.0915 10.5391 17.125 10.5391Z" fill="#37A8F3" stroke="#37A8F3" stroke-width="1.44312" stroke-linecap="round" stroke-linejoin="round"/>
<path d="M6.625 10.5391V6.70573C6.625 5.4349 7.08594 4.21612 7.90641 3.31751C8.72688 2.4189 9.83968 1.91406 11 1.91406C12.1603 1.91406 13.2731 2.4189 14.0936 3.31751C14.9141 4.21612 15.375 5.4349 15.375 6.70573V10.5391" stroke="#37A8F3" stroke-width="1.44312" stroke-linecap="round" stroke-linejoin="round"/>
</svg>
