<svg width="80" height="80" viewBox="0 0 80 80" fill="none" xmlns="http://www.w3.org/2000/svg">
<rect width="80" height="80" rx="10" fill="#CFEAFC"/>
<path d="M6.44336 32.192V14.2773H13.1613C14.5376 14.2773 15.6923 14.5339 16.6253 15.0471C17.5642 15.5603 18.2727 16.2659 18.7509 17.164C19.2349 18.0562 19.477 19.0709 19.477 20.2081C19.477 21.3569 19.2349 22.3774 18.7509 23.2697C18.2669 24.1619 17.5525 24.8646 16.6078 25.3778C15.6631 25.8851 14.4997 26.1388 13.1176 26.1388H8.66519V23.4708H12.6802C13.485 23.4708 14.144 23.3309 14.6572 23.051C15.1703 22.7711 15.5494 22.3862 15.7943 21.8963C16.0451 21.4065 16.1704 20.8437 16.1704 20.2081C16.1704 19.5724 16.0451 19.0126 15.7943 18.5286C15.5494 18.0445 15.1674 17.6684 14.6484 17.4002C14.1352 17.1261 13.4733 16.989 12.6627 16.989H9.68864V32.192H6.44336Z" fill="#031E30"/>
<path d="M25.7816 32.4632C24.9302 32.4632 24.1634 32.3115 23.4811 32.0083C22.8046 31.6992 22.2681 31.2443 21.8716 30.6437C21.4808 30.043 21.2855 29.3024 21.2855 28.4219C21.2855 27.6638 21.4254 27.0369 21.7054 26.5412C21.9853 26.0455 22.3672 25.6489 22.8513 25.3515C23.3353 25.0541 23.8805 24.8296 24.487 24.678C25.0993 24.5205 25.7321 24.4068 26.3852 24.3368C27.1725 24.2552 27.811 24.1823 28.3009 24.1181C28.7907 24.0482 29.1465 23.9432 29.3681 23.8032C29.5955 23.6575 29.7092 23.4329 29.7092 23.1297V23.0772C29.7092 22.4182 29.5139 21.908 29.1231 21.5464C28.7324 21.1849 28.1697 21.0041 27.4349 21.0041C26.6593 21.0041 26.0441 21.1732 25.5892 21.5114C25.1402 21.8497 24.8369 22.2491 24.6795 22.7098L21.7228 22.2899C21.9561 21.4735 22.341 20.7912 22.8775 20.2431C23.414 19.6891 24.0701 19.275 24.8457 19.0009C25.6213 18.721 26.4785 18.5811 27.4174 18.5811C28.0647 18.5811 28.7091 18.6569 29.3506 18.8085C29.992 18.9601 30.5781 19.2109 31.1088 19.5608C31.6395 19.9048 32.0652 20.3743 32.3859 20.9691C32.7125 21.5639 32.8758 22.3074 32.8758 23.1997V32.192H29.8317V30.3463H29.7267C29.5343 30.7195 29.2631 31.0694 28.9132 31.396C28.5691 31.7167 28.1347 31.9762 27.6098 32.1745C27.0908 32.3669 26.4814 32.4632 25.7816 32.4632ZM26.6039 30.1363C27.2395 30.1363 27.7906 30.011 28.2571 29.7602C28.7237 29.5036 29.0823 29.1654 29.3331 28.7455C29.5897 28.3256 29.718 27.8679 29.718 27.3722V25.7889C29.6188 25.8705 29.4497 25.9464 29.2106 26.0163C28.9773 26.0863 28.7149 26.1475 28.4233 26.2C28.1318 26.2525 27.8431 26.2992 27.5574 26.34C27.2716 26.3808 27.0238 26.4158 26.8138 26.445C26.3415 26.5091 25.9187 26.6141 25.5455 26.7599C25.1722 26.9056 24.8777 27.1098 24.662 27.3722C24.4462 27.6288 24.3383 27.9612 24.3383 28.3694C24.3383 28.9525 24.5512 29.3928 24.9769 29.6902C25.4026 29.9876 25.9449 30.1363 26.6039 30.1363Z" fill="#031E30"/>
<path d="M37.5469 37.2305C37.1153 37.2305 36.7159 37.1955 36.3485 37.1255C35.9869 37.0614 35.6982 36.9855 35.4825 36.8981L36.2173 34.4313C36.678 34.5654 37.0891 34.6296 37.4506 34.6238C37.8122 34.6179 38.13 34.5042 38.4041 34.2826C38.684 34.0668 38.9202 33.7053 39.1126 33.1979L39.3838 32.4719L34.5115 18.756H37.8705L40.9671 28.903H41.107L44.2124 18.756H47.5801L42.2005 33.819C41.9497 34.5304 41.6173 35.1398 41.2033 35.6472C40.7892 36.1604 40.2819 36.5511 39.6812 36.8193C39.0864 37.0934 38.3749 37.2305 37.5469 37.2305Z" fill="#031E30"/>
<path d="M53.2506 14.2773V16.0618C53.2506 16.575 53.1515 17.1086 52.9532 17.6626C52.7607 18.2108 52.4954 18.7356 52.1572 19.2371C51.8189 19.7328 51.4341 20.1585 51.0025 20.5142L49.533 19.5608C49.8537 19.0767 50.1336 18.5548 50.3727 17.995C50.6118 17.4293 50.7314 16.7908 50.7314 16.0793V14.2773H53.2506Z" fill="#031E30"/>
<path d="M58.4706 24.3193V32.192H55.3041V18.756H58.3306V21.0391H58.4881C58.7972 20.2868 59.2899 19.6891 59.9664 19.2459C60.6487 18.8027 61.4914 18.5811 62.4944 18.5811C63.4216 18.5811 64.2293 18.7793 64.9174 19.1759C65.6114 19.5724 66.1479 20.1468 66.5269 20.8991C66.9118 21.6514 67.1014 22.564 67.0955 23.637V32.192H63.929V24.1269C63.929 23.2288 63.6957 22.5261 63.2292 22.0188C62.7685 21.5114 62.1299 21.2578 61.3135 21.2578C60.7595 21.2578 60.2667 21.3802 59.8352 21.6251C59.4095 21.8642 59.0742 22.2112 58.8292 22.6661C58.5901 23.1209 58.4706 23.672 58.4706 24.3193Z" fill="#031E30"/>
<path d="M73 14.2773V16.0618C73 16.575 72.9009 17.1086 72.7026 17.6626C72.5101 18.2108 72.2448 18.7356 71.9066 19.2371C71.5684 19.7328 71.1835 20.1585 70.7519 20.5142L69.2824 19.5608C69.6031 19.0767 69.883 18.5548 70.1221 17.995C70.3612 17.4293 70.4808 16.7908 70.4808 16.0793V14.2773H73Z" fill="#031E30"/>
<path d="M6.44336 60.1842V42.2695H13.1613C14.5376 42.2695 15.6923 42.5261 16.6253 43.0393C17.5642 43.5525 18.2727 44.2581 18.7509 45.1562C19.2349 46.0484 19.477 47.0631 19.477 48.2003C19.477 49.3491 19.2349 50.3696 18.7509 51.2618C18.2669 52.1541 17.5525 52.8568 16.6078 53.37C15.6631 53.8773 14.4997 54.131 13.1176 54.131H8.66519V51.463H12.6802C13.485 51.463 14.144 51.3231 14.6572 51.0432C15.1703 50.7632 15.5494 50.3784 15.7943 49.8885C16.0451 49.3986 16.1704 48.8359 16.1704 48.2003C16.1704 47.5646 16.0451 47.0048 15.7943 46.5208C15.5494 46.0367 15.1674 45.6606 14.6484 45.3923C14.1352 45.1183 13.4733 44.9812 12.6627 44.9812H9.68864V60.1842H6.44336Z" fill="#37A8F3"/>
<path d="M25.3224 42.2695V60.1842H22.1558V42.2695H25.3224Z" fill="#37A8F3"/>
<path d="M32.445 60.4553C31.5935 60.4553 30.8267 60.3037 30.1444 60.0005C29.4679 59.6914 28.9314 59.2365 28.5349 58.6359C28.1442 58.0352 27.9488 57.2946 27.9488 56.414C27.9488 55.6559 28.0888 55.029 28.3687 54.5334C28.6486 54.0377 29.0306 53.6411 29.5146 53.3437C29.9986 53.0463 30.5439 52.8218 31.1503 52.6702C31.7627 52.5127 32.3954 52.399 33.0485 52.329C33.8358 52.2474 34.4743 52.1745 34.9642 52.1103C35.4541 52.0404 35.8098 51.9354 36.0314 51.7954C36.2588 51.6496 36.3725 51.4251 36.3725 51.1219V51.0694C36.3725 50.4104 36.1772 49.9002 35.7865 49.5386C35.3957 49.177 34.833 48.9963 34.0982 48.9963C33.3226 48.9963 32.7074 49.1654 32.2525 49.5036C31.8035 49.8418 31.5002 50.2413 31.3428 50.702L28.3862 50.2821C28.6194 49.4657 29.0043 48.7834 29.5408 48.2352C30.0773 47.6812 30.7334 47.2672 31.509 46.9931C32.2846 46.7132 33.1418 46.5732 34.0807 46.5732C34.728 46.5732 35.3724 46.6491 36.0139 46.8007C36.6554 46.9523 37.2414 47.2031 37.7721 47.5529C38.3028 47.897 38.7285 48.3665 39.0492 48.9613C39.3758 49.5561 39.5391 50.2996 39.5391 51.1919V60.1842H36.495V58.3385H36.39C36.1976 58.7117 35.9264 59.0616 35.5765 59.3882C35.2325 59.7089 34.798 59.9684 34.2732 60.1667C33.7541 60.3591 33.1447 60.4553 32.445 60.4553ZM33.2672 58.1285C33.9028 58.1285 34.4539 58.0032 34.9205 57.7524C35.387 57.4958 35.7456 57.1576 35.9964 56.7377C36.253 56.3178 36.3813 55.86 36.3813 55.3644V53.7811C36.2821 53.8627 36.113 53.9385 35.8739 54.0085C35.6407 54.0785 35.3782 54.1397 35.0867 54.1922C34.7951 54.2447 34.5064 54.2913 34.2207 54.3322C33.9349 54.373 33.6871 54.408 33.4771 54.4371C33.0048 54.5013 32.582 54.6063 32.2088 54.752C31.8356 54.8978 31.5411 55.1019 31.3253 55.3644C31.1095 55.621 31.0016 55.9534 31.0016 56.3616C31.0016 56.9447 31.2145 57.385 31.6402 57.6824C32.0659 57.9798 32.6082 58.1285 33.2672 58.1285Z" fill="#37A8F3"/>
<path d="M44.2102 65.2227C43.7786 65.2227 43.3792 65.1877 43.0118 65.1177C42.6502 65.0535 42.3616 64.9777 42.1458 64.8903L42.8806 62.4235C43.3413 62.5576 43.7524 62.6218 44.114 62.6159C44.4755 62.6101 44.7933 62.4964 45.0674 62.2748C45.3473 62.059 45.5835 61.6975 45.776 61.1901L46.0471 60.4641L41.1748 46.7482H44.5338L47.6304 56.8952H47.7704L50.8757 46.7482H54.2434L48.8638 61.8112C48.613 62.5226 48.2806 63.132 47.8666 63.6394C47.4525 64.1526 46.9452 64.5433 46.3445 64.8115C45.7497 65.0856 45.0383 65.2227 44.2102 65.2227Z" fill="#37A8F3"/>
</svg>
